%
M48
M72
T01C0.0220
T02C0.0236
T03C0.0276
T04C0.0315
T05C0.0354
T06C0.0394
T07C0.1181
%
T01
X9960Y2899
T02
X14600Y13059
X10490Y13509
X15990Y18219
X15990Y18719
T03
X12190Y2519
X13790Y4719
X11390Y8219
X12090Y16119
T04
X10656Y3385
T05
X7637Y16843
X7637Y18576
T06
X15645Y2550
X15645Y1550
X15645Y3550
X15645Y4550
X15645Y5550
X15645Y6550
X15645Y7550
X15645Y8550
X15645Y9550
X15645Y10550
X15645Y11550
X15645Y12550
X16145Y13550
X17145Y13550
X18145Y13550
X19145Y13550
X20145Y13550
X21145Y13550
X21645Y12550
X21645Y11550
X21645Y10550
X21645Y9550
X20645Y9050
X21645Y8550
X20645Y8050
X21645Y7550
X21645Y6550
X21645Y5550
X21645Y4550
X21645Y3550
X21645Y2550
X21645Y1550
X20645Y1550
X19645Y1550
X18645Y1550
T07
X7556Y2285
X21755Y14850
M30
