<?xml version="1.0" encoding="UTF-8" standalone="no"?>
<!-- Created with Inkscape (http://www.inkscape.org/) -->

<svg
   xmlns:dc="http://purl.org/dc/elements/1.1/"
   xmlns:cc="http://creativecommons.org/ns#"
   xmlns:rdf="http://www.w3.org/1999/02/22-rdf-syntax-ns#"
   xmlns:svg="http://www.w3.org/2000/svg"
   xmlns="http://www.w3.org/2000/svg"
   xmlns:xlink="http://www.w3.org/1999/xlink"
   xmlns:sodipodi="http://sodipodi.sourceforge.net/DTD/sodipodi-0.dtd"
   xmlns:inkscape="http://www.inkscape.org/namespaces/inkscape"
   width="50mm"
   height="50mm"
   viewBox="0 0 50 50"
   version="1.1"
   id="svg8"
   inkscape:version="0.92.1 r15371"
   sodipodi:docname="logos_v2_export.svg"
   inkscape:export-filename="S:\Projekte\TTN\Platine\logos_v2.png"
   inkscape:export-xdpi="96"
   inkscape:export-ydpi="96">
  <defs
     id="defs2">
    <inkscape:perspective
       id="perspective2410"
       inkscape:persp3d-origin="372.04724 : 350.78739 : 1"
       inkscape:vp_z="744.09448 : 526.18109 : 1"
       inkscape:vp_y="0 : 1000 : 0"
       inkscape:vp_x="0 : 526.18109 : 1"
       sodipodi:type="inkscape:persp3d" />
    <clipPath
       id="clipPath4532"
       clipPathUnits="userSpaceOnUse">
      <path
         inkscape:connector-curvature="0"
         id="path4530"
         d="M 0,362.164 H 596 V 69.039 H 0 Z" />
    </clipPath>
    <clipPath
       id="clipPath4542"
       clipPathUnits="userSpaceOnUse">
      <path
         inkscape:connector-curvature="0"
         id="path4540"
         d="M 11,89 H 587 V 344 H 11 Z" />
    </clipPath>
    <rect
       height="39.299999"
       width="150.7"
       id="SVGID_1_"
       x="0"
       y="0" />
    <rect
       height="39.299999"
       width="150.7"
       id="SVGID_3_"
       x="0"
       y="0" />
    <rect
       height="39.299999"
       width="150.7"
       id="SVGID_5_"
       x="0"
       y="0" />
    <rect
       height="39.299999"
       width="150.7"
       id="SVGID_7_"
       x="0"
       y="0" />
    <rect
       height="39.299999"
       width="150.7"
       id="SVGID_9_"
       x="0"
       y="0" />
    <rect
       height="39.299999"
       width="150.7"
       id="SVGID_11_"
       x="0"
       y="0" />
    <rect
       height="39.299999"
       width="150.7"
       id="SVGID_13_"
       x="0"
       y="0" />
    <rect
       height="39.299999"
       width="150.7"
       id="SVGID_15_"
       x="0"
       y="0" />
    <rect
       height="39.299999"
       width="150.7"
       id="SVGID_17_"
       x="0"
       y="0" />
    <rect
       height="39.299999"
       width="150.7"
       id="SVGID_19_"
       x="0"
       y="0" />
    <rect
       height="39.299999"
       width="150.7"
       id="SVGID_21_"
       x="0"
       y="0" />
  </defs>
  <sodipodi:namedview
     id="base"
     pagecolor="#ffffff"
     bordercolor="#666666"
     borderopacity="1.0"
     inkscape:pageopacity="0.0"
     inkscape:pageshadow="2"
     inkscape:zoom="5.6"
     inkscape:cx="52.792155"
     inkscape:cy="90.687756"
     inkscape:document-units="mm"
     inkscape:current-layer="layer2"
     showgrid="false"
     inkscape:window-width="3840"
     inkscape:window-height="2066"
     inkscape:window-x="-11"
     inkscape:window-y="-11"
     inkscape:window-maximized="1"
     showguides="true"
     inkscape:guide-bbox="true" />
  <metadata
     id="metadata5">
    <rdf:RDF>
      <cc:Work
         rdf:about="">
        <dc:format>image/svg+xml</dc:format>
        <dc:type
           rdf:resource="http://purl.org/dc/dcmitype/StillImage" />
        <dc:title></dc:title>
      </cc:Work>
    </rdf:RDF>
  </metadata>
  <g
     inkscape:groupmode="layer"
     id="layer2"
     inkscape:label="Ebene 2"
     style="opacity:0.43999999" />
  <g
     inkscape:label="Ebene 1"
     inkscape:groupmode="layer"
     id="layer1"
     transform="translate(0,-247)"
     style="opacity:1">
    <text
       xml:space="preserve"
       style="font-style:normal;font-weight:normal;font-size:2.89978576px;line-height:1.25;font-family:sans-serif;letter-spacing:0px;word-spacing:0px;fill:#000000;fill-opacity:1;stroke:none;stroke-width:0.07249465"
       x="-293.98474"
       y="4.6140323"
       id="text4487"
       transform="rotate(-90)"><tspan
         sodipodi:role="line"
         x="-293.98474"
         y="4.6140323"
         style="stroke-width:0.07249465"
         id="tspan5078">TTN Ulm Mini Node v1.0</tspan><tspan
         sodipodi:role="line"
         x="-293.98474"
         y="8.2387648"
         style="stroke-width:0.07249465"
         id="tspan5076">https://lora.ulm-digital.com</tspan></text>
    <g
       id="g4876"
       transform="matrix(0.59479616,0,0,0.59479616,19.455885,123.60147)">
      <path
         d="m 5.0028152,266.81767 v 1.00773 c -0.1369219,-0.16934 -0.3022865,-0.25334 -0.4960938,-0.25334 -0.5437187,0 -0.8162396,0.58903 -0.8162396,1.76742 0,1.25048 0.271198,1.87589 0.8112787,1.87589 0.1524661,0 0.3191536,-0.0671 0.5010547,-0.20174 v 0.92505 c -0.2609453,0.13692 -0.5268516,0.2067 -0.7957344,0.2067 -1.0606485,0 -1.5914688,-0.90289 -1.5914688,-2.70768 0,-0.9611 0.1316302,-1.66919 0.3925756,-2.12394 0.2622682,-0.45872 0.6693958,-0.68726 1.2197291,-0.68726 0.2659063,0 0.5245365,0.0632 0.7748985,0.19117 m 3.989586,2.61474 c 0,1.80876 -0.5595938,2.71297 -1.6794428,2.71297 -1.1188568,0 -1.6794427,-0.91843 -1.6794427,-2.75431 0,-1.84349 0.5579401,-2.76457 1.6741511,-2.76457 0.289388,0 0.5400807,0.0542 0.7494323,0.16537 0.2143125,0.1098 0.3899297,0.28046 0.5268515,0.51164 0.1382448,0.22985 0.2404401,0.52189 0.3049323,0.87312 0.069784,0.35157 0.1035183,0.76994 0.1035183,1.25578 m -1.0232761,-0.0258 c 0,-0.7028 -0.046633,-1.19228 -0.1395677,-1.46744 -0.092935,-0.27914 -0.2582995,-0.4187 -0.4960938,-0.4187 -0.2338255,0 -0.400513,0.13692 -0.5010547,0.41341 -0.093266,0.27516 -0.1395677,0.75571 -0.1395677,1.44165 0,0.68494 0.046302,1.16416 0.1395677,1.43668 0.1005417,0.27517 0.2672292,0.41341 0.5010547,0.41341 0.2351485,0 0.3978672,-0.13692 0.4911329,-0.40812 0.096904,-0.25598 0.1445286,-0.72628 0.1445286,-1.41089 m 1.9377422,-2.69246 h 0.9872267 v 0.66675 c 0.169333,-0.28278 0.33569,-0.48055 0.501055,-0.59432 0.165364,-0.11377 0.385299,-0.17959 0.656497,-0.19646 v 1.03353 c -0.06846,-0.0102 -0.126669,-0.0152 -0.175617,-0.0152 -0.354211,0 -0.607219,0.0903 -0.759685,0.27384 -0.147505,0.17827 -0.22225,0.49213 -0.22225,0.94027 v 3.24015 H 9.9068673 v -5.34855 m 2.9507657,-1.49854 h 0.987227 v 1.49854 h 0.537434 v 0.78548 H 13.84486 v 2.34123 2.22184 h -0.987227 v -4.56307 h -0.542396 v -0.78548 h 0.542396 v -1.49854 m 4.283935,5.04362 h 0.920088 c -0.07243,1.25711 -0.589359,1.88615 -1.550458,1.88615 -0.285419,0 -0.532143,-0.0542 -0.738849,-0.16007 -0.202737,-0.10716 -0.37207,-0.27252 -0.506346,-0.49609 -0.134607,-0.2249 -0.233826,-0.509 -0.299972,-0.85262 -0.06185,-0.34496 -0.09293,-0.7544 -0.09293,-1.22999 0,-0.94423 0.13196,-1.64339 0.392906,-2.09814 0.265906,-0.45475 0.674357,-0.68197 1.22469,-0.68197 1.072224,0 1.607013,0.94291 1.607013,2.83171 v 0.12402 h -2.258219 c 0,1.14333 0.227211,1.71582 0.681964,1.71582 0.413411,0 0.620117,-0.34627 0.620117,-1.03882 m -0.05159,-1.39005 c -0.04134,-0.56191 -0.10451,-0.93001 -0.191161,-1.10596 -0.08897,-0.19612 -0.233826,-0.29435 -0.433917,-0.29435 -0.203068,0 -0.347596,0.0982 -0.434247,0.29435 -0.08533,0.17595 -0.149821,0.54405 -0.191162,1.10596 h 1.250487 m 1.374511,-2.15503 h 1.168135 l 0.470297,1.03353 c 0.05556,0.12038 0.107156,0.24804 0.154781,0.38265 0.04928,0.13031 0.09194,0.26987 0.129315,0.41837 0.02844,-0.13163 0.06085,-0.25697 0.09823,-0.37703 0.0387,-0.12138 0.08136,-0.24044 0.128984,-0.35653 l 0.06747,-0.15511 0.387284,-0.94588 h 1.03882 l -1.209146,2.5271 1.462485,2.82145 H 21.18276 l -0.470297,-1.02295 c -0.229857,-0.47955 -0.366779,-0.86188 -0.40812,-1.1473 -0.03109,0.27517 -0.140891,0.62641 -0.330729,1.05404 l -0.475589,1.11621 h -1.033528 l 1.338461,-2.82145 -1.338461,-2.5271 m 21.714685,-2.27377 c 0.179586,0 0.334367,0.0648 0.465005,0.19646 0.13163,0.13064 0.196453,0.28674 0.196453,0.47029 0,0.1862 -0.06482,0.34363 -0.196453,0.47559 -0.130638,0.13031 -0.289388,0.19613 -0.475589,0.19613 -0.185869,0 -0.343627,-0.0658 -0.475257,-0.19613 -0.12667,-0.12799 -0.191162,-0.28806 -0.191162,-0.48088 0,-0.17925 0.06582,-0.33436 0.196453,-0.465 0.141883,-0.13163 0.302287,-0.19646 0.48055,-0.19646"
         style="fill:#000000;fill-opacity:1;fill-rule:nonzero;stroke:none;stroke-width:0.33072916"
         id="path2416"
         inkscape:connector-curvature="0" />
      <path
         inkscape:connector-curvature="0"
         d="m 25.144718,266.71431 h 0.987226 v 0.66146 c 0.272521,-0.50006 0.634339,-0.74943 1.085123,-0.74943 0.493448,0 0.826823,0.24937 1.00244,0.74943 0.262268,-0.50006 0.634338,-0.74943 1.116211,-0.74943 0.376039,0 0.661458,0.0995 0.857911,0.29997 0.200091,0.19612 0.299641,0.48683 0.299641,0.87313 v 4.26342 h -0.992188 v -3.51928 c 0,-0.40316 -0.03737,-0.67304 -0.11377,-0.81128 -0.0721,-0.14089 -0.21299,-0.212 -0.423665,-0.212 -0.237794,0 -0.39919,0.0724 -0.485841,0.21729 -0.08268,0.14089 -0.123692,0.40944 -0.123692,0.80599 v 3.51928 h -1.023276 v -3.51928 c 0,-0.18984 -0.01058,-0.34992 -0.03109,-0.48055 -0.01687,-0.13031 -0.04796,-0.23647 -0.09293,-0.31519 -0.04399,-0.0787 -0.103518,-0.1356 -0.175617,-0.17065 -0.07243,-0.0374 -0.161727,-0.0569 -0.268883,-0.0569 -0.227211,0 -0.388937,0.0777 -0.485841,0.23283 -0.09558,0.15478 -0.144529,0.41838 -0.144529,0.79045 v 3.51928 h -0.987226 v -5.34855 m 8.537112,3.54509 h 0.919758 c -0.07243,1.2571 -0.589029,1.88615 -1.550128,1.88615 -0.28575,0 -0.532474,-0.0529 -0.73918,-0.16041 -0.202737,-0.10715 -0.37207,-0.27252 -0.506346,-0.49609 -0.134276,-0.22324 -0.233826,-0.50767 -0.299641,-0.85262 -0.06218,-0.34495 -0.09294,-0.75439 -0.09294,-1.22965 0,-0.94456 0.131631,-1.64339 0.392576,-2.09815 0.266237,-0.45475 0.674357,-0.68229 1.22469,-0.68229 1.072224,0 1.607344,0.94456 1.607344,2.83203 v 0.12403 h -2.25855 c 0,1.14333 0.227542,1.71549 0.682295,1.71549 0.413411,0 0.620117,-0.34628 0.620117,-1.03849 m -0.05159,-1.39006 c -0.04134,-0.56224 -0.104841,-0.93034 -0.191492,-1.10595 -0.08897,-0.19646 -0.233826,-0.29468 -0.433917,-0.29468 -0.202737,0 -0.347596,0.0982 -0.433916,0.29468 -0.08533,0.17561 -0.150152,0.54371 -0.191493,1.10595 h 1.250818 m 4.945393,-5.58634 v 8.77986 h -0.987226 v -0.68725 c -0.14056,0.29303 -0.281451,0.49477 -0.423664,0.60457 -0.140891,0.1098 -0.328084,0.16537 -0.563232,0.16537 -0.440531,0 -0.764977,-0.22622 -0.971352,-0.67701 -0.207036,-0.45475 -0.310224,-1.1678 -0.310224,-2.13948 0,-0.46898 0.0258,-0.87313 0.07739,-1.21444 0.05192,-0.34098 0.129315,-0.62144 0.232833,-0.84237 0.107157,-0.22059 0.242756,-0.38232 0.40812,-0.48551 0.165365,-0.10715 0.361818,-0.1604 0.589029,-0.1604 0.216958,0 0.396544,0.0519 0.537435,0.15511 0.06978,0.048 0.139567,0.11774 0.211997,0.20671 0.07243,0.0893 0.143206,0.20042 0.211667,0.33073 V 263.283 h 0.987226 m -2.232422,6.08244 c 0,0.7028 0.0463,1.1936 0.139568,1.47273 0.0969,0.27881 0.265906,0.41838 0.506346,0.41838 0.220928,0 0.381,-0.14453 0.48055,-0.43392 0.100872,-0.31022 0.14982,-0.7868 0.14982,-1.4314 0,-0.64723 -0.04895,-1.12679 -0.14982,-1.43668 -0.09955,-0.28939 -0.259622,-0.43425 -0.48055,-0.43425 -0.233825,0 -0.400513,0.13824 -0.501385,0.41341 -0.09558,0.25466 -0.144529,0.73257 -0.144529,1.43173 m 3.353594,-2.65113 h 0.992188 v 5.34855 h -0.992188 v -5.34855 m 5.162683,0 v 5.34855 h -0.987227 v -0.68725 c -0.14056,0.29303 -0.281451,0.49477 -0.423664,0.60457 -0.140891,0.1098 -0.326761,0.16537 -0.55794,0.16537 -0.4445,0 -0.770268,-0.22754 -0.976643,-0.6823 -0.207037,-0.45475 -0.310224,-1.1678 -0.310224,-2.13915 0,-0.92638 0.103187,-1.60735 0.310224,-2.04126 0.206375,-0.43789 0.532143,-0.6565 0.976643,-0.6565 0.406797,0 0.733557,0.23151 0.981604,0.69255 v -0.60458 h 0.987227 m -2.232422,2.65113 c 0,0.7028 0.0463,1.1936 0.139567,1.47273 0.0969,0.27881 0.265907,0.41838 0.506347,0.41838 0.220927,0 0.381,-0.14453 0.480549,-0.43392 0.100873,-0.31022 0.149821,-0.7868 0.149821,-1.4314 0,-0.64723 -0.04895,-1.12679 -0.149821,-1.43668 -0.09955,-0.28939 -0.259622,-0.43425 -0.480549,-0.43425 -0.233826,0 -0.400513,0.13824 -0.501386,0.41341 -0.09558,0.25466 -0.144528,0.73257 -0.144528,1.43173"
         style="fill:#000000;fill-opacity:1;fill-rule:nonzero;stroke:none;stroke-width:0.33072916"
         id="path2418" />
      <g
         id="g2420"
         transform="matrix(0.33072917,0,0,0.31541277,-1.3910065,263.28299)">
        <path
           inkscape:connector-curvature="0"
           d="M 33.879,36.72 C 11.066,34.713 -3.566,25.337 1.219,15.786 4.754,8.728 17.145,3.559 34.012,2.101"
           style="fill:none;stroke:#000000;stroke-width:0.640113;stroke-linecap:butt;stroke-linejoin:miter;stroke-miterlimit:4;stroke-dasharray:none;stroke-opacity:1"
           id="path2422" />
      </g>
    </g>
    <g
       id="g5061"
       transform="matrix(1.3117724,0,0,1.3117724,-16.745977,-94.503294)">
      <g
         transform="matrix(0.84756811,0,0,0.84756811,2.6738594,43.64017)"
         id="g5021">
        <g
           id="g4520"
           transform="matrix(0.03454264,0,0,-0.03454264,27.182944,277.65603)">
          <path
             d="m 288.852,305.883 h -11.547 l -18.379,-36.438 -18.614,36.438 h -11.628 l 30.164,-57.809 z"
             style="fill:#231f20;fill-opacity:1;fill-rule:nonzero;stroke:none"
             id="path4522"
             inkscape:connector-curvature="0" />
          <path
             d="m 334.059,258.91 h -30 v 14.618 h 18.613 v 9.343 h -18.613 v 13.59 h 28.902 v 9.344 H 293.613 V 249.57 h 40.446 z"
             style="fill:#231f20;fill-opacity:1;fill-rule:nonzero;stroke:none"
             id="path4524"
             inkscape:connector-curvature="0" />
        </g>
        <path
           d="m 39.450037,267.41547 h 0.374442 c 0.273889,0 0.414892,0.14114 0.414892,0.30929 0,0.1685 -0.143697,0.30681 -0.414892,0.30681 h -0.374442 z m 0,0.93873 h 0.442181 l 0.317343,0.68114 h 0.398864 l -0.374304,-0.76791 c 0.227774,-0.11386 0.363526,-0.31479 0.363526,-0.54267 0,-0.35002 -0.314821,-0.63203 -0.770473,-0.63203 h -0.738073 v 1.94261 h 0.360936 z"
           style="fill:#231f20;fill-opacity:1;fill-rule:nonzero;stroke:none;stroke-width:0.03454264"
           id="path4546"
           inkscape:connector-curvature="0" />
      </g>
      <g
         transform="matrix(0.84756811,0,0,0.84756811,0.28350871,42.305877)"
         id="g5015">
        <path
           d="m 44.473932,269.76008 0.233301,0.0625 c 0.192402,0.0517 0.333543,0.10847 0.333543,0.25773 0,0.141 -0.130053,0.25499 -0.423147,0.25499 -0.249467,0 -0.480212,-0.0838 -0.746017,-0.30926 v 0.40992 c 0.181728,0.13534 0.474823,0.22522 0.743184,0.22522 0.407085,0 0.800423,-0.20916 0.800423,-0.61072 0,-0.39061 -0.374443,-0.52339 -0.610438,-0.58857 l -0.233439,-0.0653 c -0.195373,-0.0543 -0.333544,-0.10324 -0.333544,-0.23046 0,-0.12754 0.135615,-0.19824 0.347326,-0.19824 0.235996,0 0.504496,0.0869 0.727157,0.25247 v -0.40439 c -0.09513,-0.0542 -0.363664,-0.17634 -0.694652,-0.17634 -0.382387,0 -0.74885,0.16515 -0.74885,0.54809 0,0.35554 0.311955,0.49371 0.605153,0.57237"
           style="fill:#231f20;fill-opacity:1;fill-rule:nonzero;stroke:none;stroke-width:0.03454264"
           id="path4548"
           inkscape:connector-curvature="0" />
        <path
           d="m 46.852261,270.66116 c 0.301143,0 0.534444,-0.10336 0.656552,-0.17123 v -0.39078 c -0.157445,0.13575 -0.415168,0.23613 -0.662078,0.23613 -0.423148,0 -0.726881,-0.29548 -0.726881,-0.6837 0,-0.38805 0.303733,-0.6837 0.726881,-0.6837 0.24691,0 0.504633,0.10055 0.662078,0.23589 v -0.39051 c -0.122108,-0.0679 -0.355409,-0.17095 -0.656552,-0.17095 -0.613131,0 -1.093378,0.4342 -1.093378,1.00927 0,0.57524 0.480247,1.00958 1.093378,1.00958"
           style="fill:#231f20;fill-opacity:1;fill-rule:nonzero;stroke:none;stroke-width:0.03454264"
           id="path4550"
           inkscape:connector-curvature="0" />
        <path
           d="m 48.234209,269.80098 h 1.035623 v 0.82201 h 0.360798 v -1.94279 h -0.360798 v 0.78706 h -1.035623 v -0.78706 h -0.360936 v 1.94279 h 0.360936 z"
           style="fill:#231f20;fill-opacity:1;fill-rule:nonzero;stroke:none;stroke-width:0.03454264"
           id="path4552"
           inkscape:connector-curvature="0" />
        <path
           d="m 51.90585,268.68034 -0.390608,1.07974 -0.434201,-1.12046 -0.434098,1.12046 -0.390746,-1.07974 H 49.86286 l 0.781389,1.98337 0.434201,-1.09873 0.433821,1.09873 0.786916,-1.98337 z"
           style="fill:#231f20;fill-opacity:1;fill-rule:nonzero;stroke:none;stroke-width:0.03454264"
           id="path4554"
           inkscape:connector-curvature="0" />
        <path
           d="m 53.345449,270.33811 c -0.390747,0 -0.694756,-0.29831 -0.694756,-0.68653 0,-0.38805 0.304009,-0.6864 0.694756,-0.6864 0.390642,0 0.691923,0.29835 0.691923,0.6864 0,0.38822 -0.301281,0.68653 -0.691923,0.68653 m 0,-1.6958 c -0.586154,0 -1.058145,0.4531 -1.058145,1.00927 0,0.55904 0.471991,1.00958 1.058145,1.00958 0.583183,0 1.058144,-0.45054 1.058144,-1.00958 0,-0.55617 -0.474961,-1.00927 -1.058144,-1.00927"
           style="fill:#231f20;fill-opacity:1;fill-rule:nonzero;stroke:none;stroke-width:0.03454264"
           id="path4556"
           inkscape:connector-curvature="0" />
        <path
           d="m 53.641099,268.54718 c 0.10836,0 0.214268,-0.076 0.214268,-0.18985 0,-0.11119 -0.105908,-0.18729 -0.214268,-0.18729 -0.108498,0 -0.214406,0.0761 -0.214406,0.18729 0,0.11389 0.105908,0.18985 0.214406,0.18985"
           style="fill:#231f20;fill-opacity:1;fill-rule:nonzero;stroke:none;stroke-width:0.03454264"
           id="path4558"
           inkscape:connector-curvature="0" />
        <path
           d="m 53.047,268.54718 c 0.108464,0 0.214268,-0.076 0.214268,-0.18985 0,-0.11119 -0.105804,-0.18729 -0.214268,-0.18729 -0.108636,0 -0.214406,0.0761 -0.214406,0.18729 0,0.11389 0.10577,0.18985 0.214406,0.18985"
           style="fill:#231f20;fill-opacity:1;fill-rule:nonzero;stroke:none;stroke-width:0.03454264"
           id="path4560"
           inkscape:connector-curvature="0" />
        <path
           d="m 55.44122,269.61935 h -0.374442 v -0.6161 h 0.374442 c 0.274061,0 0.415202,0.141 0.415202,0.30926 0,0.16853 -0.143835,0.30684 -0.415202,0.30684 m 0.409641,0.23586 c 0.227912,-0.11403 0.363527,-0.31479 0.363527,-0.5427 0,-0.34988 -0.314649,-0.63217 -0.770474,-0.63217 H 54.70598 v 1.94251 h 0.360798 v -0.68087 h 0.442318 l 0.31724,0.68087 h 0.398967 z"
           style="fill:#231f20;fill-opacity:1;fill-rule:nonzero;stroke:none;stroke-width:0.03454264"
           id="path4562"
           inkscape:connector-curvature="0" />
      </g>
      <g
         transform="matrix(0.84756811,0,0,0.84756811,2.9003885,41.678151)"
         id="g5027">
        <path
           d="m 36.487868,273.06333 h -1.044639 v -0.78692 h -0.360936 v 1.94288 h 0.360936 v -0.82228 h 1.044639 v 0.82228 h 0.360798 v -1.94288 h -0.360798 z"
           style="fill:#231f20;fill-opacity:1;fill-rule:nonzero;stroke:none;stroke-width:0.03454264"
           id="path4564"
           inkscape:connector-curvature="0" />
        <path
           d="m 37.715617,273.59794 0.325599,-0.64294 0.325599,0.64294 z m -0.710681,0.62135 h 0.401559 l 0.149086,-0.29858 h 0.973929 l 0.151953,0.29858 h 0.401697 l -1.03925,-1.99684 z"
           style="fill:#231f20;fill-opacity:1;fill-rule:nonzero;stroke:none;stroke-width:0.03454264"
           id="path4566"
           inkscape:connector-curvature="0" />
        <path
           d="m 40.48794,273.34008 c 0,0.37741 -0.225218,0.58332 -0.51814,0.58332 -0.293094,0 -0.520972,-0.21171 -0.520972,-0.58332 v -1.06892 h -0.360832 v 1.09092 c 0,0.55334 0.385392,0.88692 0.881804,0.88692 0.496413,0 0.879076,-0.3418 0.879076,-0.88692 v -1.09092 H 40.48794 Z"
           style="fill:#231f20;fill-opacity:1;fill-rule:nonzero;stroke:none;stroke-width:0.03454264"
           id="path4568"
           inkscape:connector-curvature="0" />
        <path
           d="m 42.105226,273.05255 -0.233577,-0.065 c -0.195235,-0.0542 -0.333544,-0.10293 -0.333544,-0.2306 0,-0.12736 0.135476,-0.19793 0.347326,-0.19793 0.235996,0 0.504634,0.0867 0.727019,0.25219 v -0.40401 c -0.09485,-0.0544 -0.363526,-0.17661 -0.694652,-0.17661 -0.382525,0 -0.748712,0.16556 -0.748712,0.54809 0,0.35554 0.311955,0.49371 0.605015,0.57237 l 0.233439,0.0623 c 0.19254,0.0517 0.333543,0.10849 0.333543,0.258 0,0.141 -0.130053,0.25489 -0.423285,0.25489 -0.249605,0 -0.480212,-0.0842 -0.746156,-0.3094 v 0.40991 c 0.181867,0.13534 0.474962,0.22495 0.743462,0.22495 0.407085,0 0.800422,-0.20875 0.800422,-0.6103 0,-0.39065 -0.374443,-0.52357 -0.6103,-0.58885"
           style="fill:#231f20;fill-opacity:1;fill-rule:nonzero;stroke:none;stroke-width:0.03454264"
           id="path4570"
           inkscape:connector-curvature="0" />
      </g>
      <g
         transform="matrix(0.59509629,0,0,0.59509629,11.338838,111.13389)"
         id="g5031">
        <path
           d="m 30.548433,269.03279 v -2.8e-4 h -0.647536 v 0.64795 h 0.647536 z"
           style="fill:#231f20;fill-opacity:1;fill-rule:nonzero;stroke:none;stroke-width:0.03454264"
           id="path4572"
           inkscape:connector-curvature="0" />
        <path
           d="m 27.958254,273.56637 v -4.53386 h 0.647536 v -0.64781 h 0.647571 v -0.64768 h 0.647536 v -0.64753 h 0.647675 v 0.64753 h 0.647536 v 0.64768 h 0.647536 v 0.64781 h 0.647537 v 3.23879 h -0.647537 v 0.64698 h 0.647537 v 1.29576 H 31.196108 V 272.2713 H 28.60579 v 1.29507 h 1.295107 v 0.64809 h -1.942643 z m -0.367016,1.01469 h 6.195153 V 265.794 h -6.195153 z"
           style="fill:#231f20;fill-opacity:1;fill-rule:nonzero;stroke:none;stroke-width:0.03454264"
           id="path4574"
           inkscape:connector-curvature="0" />
      </g>
    </g>
    <g
       id="g4861"
       transform="matrix(0.182828,0,0,0.182828,18.585954,269.64944)"
       style="fill:#000000">
      <g
         id="g4615"
         style="fill:#000000">
        <defs
           id="defs4608">
          <rect
             height="39.299999"
             width="150.7"
             id="rect4768"
             x="0"
             y="0" />
        </defs>
        <clipPath
           id="SVGID_2_">
          <use
             id="use4610"
             style="overflow:visible"
             xlink:href="#SVGID_1_"
             x="0"
             y="0"
             width="100%"
             height="100%" />
        </clipPath>
        <path
           id="path4613"
           clip-path="url(#SVGID_2_)"
           d="m 57.5,31.1 h -1.9 v -1 0 c -0.6,0.7 -1.4,1.2 -2.5,1.2 -1.8,0 -2.6,-1.3 -2.6,-3 v -4.8 h 2 v 4 c 0,0.9 0,2.2 1.3,2.2 1.4,0 1.7,-1.5 1.7,-2.5 v -3.7 h 2 z"
           class="st0"
           inkscape:connector-curvature="0"
           style="fill:#000000" />
      </g>
      <rect
         id="rect4617"
         height="11"
         width="2"
         class="st1"
         y="20.200001"
         x="59.599998"
         style="fill:#000000" />
      <g
         id="g4627"
         style="fill:#000000">
        <defs
           id="defs4620">
          <rect
             height="39.299999"
             width="150.7"
             id="rect4776"
             x="0"
             y="0" />
        </defs>
        <clipPath
           id="SVGID_4_">
          <use
             id="use4622"
             style="overflow:visible"
             xlink:href="#SVGID_3_"
             x="0"
             y="0"
             width="100%"
             height="100%" />
        </clipPath>
        <path
           id="path4625"
           clip-path="url(#SVGID_4_)"
           d="m 63.5,23.6 h 1.8 v 1.1 0 c 0.6,-0.9 1.5,-1.2 2.2,-1.2 1.1,0 1.8,0.4 2.2,1.3 0.5,-0.9 1.4,-1.3 2.4,-1.3 1.9,0 2.4,1.3 2.4,3 v 4.8 h -2 v -4.5 c 0,-0.7 0,-1.7 -1.1,-1.7 -1.3,0 -1.5,1.5 -1.5,2.5 v 3.7 h -2 v -4.5 c 0,-0.7 0,-1.7 -1.1,-1.7 -1.3,0 -1.5,1.5 -1.5,2.5 v 3.7 h -2 v -7.7 z"
           class="st2"
           inkscape:connector-curvature="0"
           style="fill:#000000" />
      </g>
      <rect
         id="rect4629"
         height="2"
         width="2"
         class="st1"
         y="29.1"
         x="76.599998"
         style="fill:#000000" />
      <g
         id="g4639"
         style="fill:#000000">
        <defs
           id="defs4632">
          <rect
             height="39.299999"
             width="150.7"
             id="rect4784"
             x="0"
             y="0" />
        </defs>
        <clipPath
           id="SVGID_6_">
          <use
             id="use4634"
             style="overflow:visible"
             xlink:href="#SVGID_5_"
             x="0"
             y="0"
             width="100%"
             height="100%" />
        </clipPath>
        <path
           id="path4637"
           clip-path="url(#SVGID_6_)"
           d="m 83.8,29.8 c 1.3,0 1.7,-1.4 1.7,-2.4 0,-1.1 -0.5,-2.4 -1.8,-2.4 -1.3,0 -1.6,1.4 -1.6,2.4 0.1,1 0.5,2.4 1.7,2.4 m 1.8,0.5 v 0 c -0.6,0.7 -1.4,1 -2.3,1 -2.3,0 -3.2,-1.9 -3.2,-4 0,-2.1 0.8,-3.9 3.2,-3.9 1,0 1.7,0.3 2.3,1.1 v 0 -4.3 h 2 v 11 h -1.9 v -0.9 z"
           class="st3"
           inkscape:connector-curvature="0"
           style="fill:#000000" />
      </g>
      <path
         id="path4641"
         d="m 89.6,23.6 h 2 v 7.5 h -2 z m 0,-3.2 h 2 v 1.9 h -2 z"
         class="st1"
         inkscape:connector-curvature="0"
         style="fill:#000000" />
      <g
         id="g4651"
         style="fill:#000000">
        <defs
           id="defs4644">
          <rect
             height="39.299999"
             width="150.7"
             id="rect4792"
             x="0"
             y="0" />
        </defs>
        <clipPath
           id="SVGID_8_">
          <use
             id="use4646"
             style="overflow:visible"
             xlink:href="#SVGID_7_"
             x="0"
             y="0"
             width="100%"
             height="100%" />
        </clipPath>
        <path
           id="path4649"
           clip-path="url(#SVGID_8_)"
           d="M 98.6,27.3 C 98.6,26 98.1,25 97,25 c -1.3,0 -1.8,1.2 -1.8,2.4 0,1 0.5,2.3 1.7,2.3 1.2,-0.1 1.7,-1.2 1.7,-2.4 m 1.9,-3.7 v 6.8 c 0,2 -0.8,4 -4,4 -0.8,0 -1.7,-0.1 -2.6,-0.5 l 0.2,-1.7 c 0.6,0.3 1.6,0.7 2.2,0.7 2.2,0 2.3,-1.6 2.3,-2.9 v 0 c -0.4,0.6 -1.2,1.2 -2.3,1.2 -2.2,0 -3.1,-1.8 -3.1,-3.8 0,-1.8 0.9,-3.9 3.2,-3.9 1,0 1.8,0.3 2.3,1.2 v 0 -1 h 1.8 z"
           class="st4"
           inkscape:connector-curvature="0"
           style="fill:#000000" />
      </g>
      <path
         id="path4653"
         d="m 102.6,23.6 h 2 v 7.5 h -2 z m 0,-3.2 h 2 v 1.9 h -2 z"
         class="st1"
         inkscape:connector-curvature="0"
         style="fill:#000000" />
      <g
         id="g4665"
         style="fill:#000000">
        <defs
           id="defs4656">
          <rect
             height="39.299999"
             width="150.7"
             id="rect4800"
             x="0"
             y="0" />
        </defs>
        <clipPath
           id="SVGID_10_">
          <use
             id="use4658"
             style="overflow:visible"
             xlink:href="#SVGID_9_"
             x="0"
             y="0"
             width="100%"
             height="100%" />
        </clipPath>
        <path
           id="path4661"
           clip-path="url(#SVGID_10_)"
           d="m 107.3,25 h -1.4 v -1.4 h 1.4 v -1.5 l 2,-0.6 v 2.1 H 111 V 25 h -1.7 v 3.5 c 0,0.6 0.2,1.2 0.9,1.2 0.4,0 0.7,-0.1 0.9,-0.2 l 0.1,1.5 c -0.4,0.1 -0.9,0.2 -1.4,0.2 -1.5,0 -2.4,-0.9 -2.4,-2.4 V 25 Z"
           class="st5"
           inkscape:connector-curvature="0"
           style="fill:#000000" />
        <path
           id="path4663"
           clip-path="url(#SVGID_10_)"
           d="m 114.9,29.9 c 0.6,0 1.1,-0.3 1.4,-0.7 0.3,-0.4 0.4,-1 0.4,-1.5 h -0.8 c -0.9,0 -2.2,0.1 -2.2,1.3 0,0.6 0.5,0.9 1.2,0.9 M 112.6,24 c 0.8,-0.4 1.8,-0.6 2.6,-0.6 2.3,0 3.2,0.9 3.2,3.2 v 1 c 0,0.8 0,1.3 0,1.9 0,0.6 0,1.1 0.1,1.7 h -1.7 c -0.1,-0.4 -0.1,-0.9 -0.1,-1.1 v 0 c -0.5,0.8 -1.4,1.3 -2.3,1.3 -1.3,0 -2.6,-0.8 -2.6,-2.2 0,-1.1 0.5,-1.8 1.3,-2.1 0.7,-0.4 1.7,-0.4 2.5,-0.4 h 1.1 c 0,-1.2 -0.5,-1.6 -1.7,-1.6 -0.8,0 -1.7,0.3 -2.3,0.8 z"
           class="st5"
           inkscape:connector-curvature="0"
           style="fill:#000000" />
      </g>
      <rect
         id="rect4667"
         height="11"
         width="2"
         class="st1"
         y="20.200001"
         x="120.5"
         style="fill:#000000" />
      <g
         id="g4677"
         style="fill:#000000">
        <defs
           id="defs4670">
          <rect
             height="39.299999"
             width="150.7"
             id="rect4809"
             x="0"
             y="0" />
        </defs>
        <clipPath
           id="SVGID_12_">
          <use
             id="use4672"
             style="overflow:visible"
             xlink:href="#SVGID_11_"
             x="0"
             y="0"
             width="100%"
             height="100%" />
        </clipPath>
        <path
           id="path4675"
           clip-path="url(#SVGID_12_)"
           d="m 133.3,26.6 c -0.1,-0.9 -0.5,-1.8 -1.6,-1.8 -1.1,0 -1.7,0.8 -1.7,1.8 z m 1.3,4.1 c -0.7,0.4 -1.5,0.6 -2.6,0.6 -2.5,0 -3.9,-1.4 -3.9,-3.9 0,-2.2 1.2,-4 3.5,-4 2.8,0 3.6,1.9 3.6,4.5 H 130 c 0.1,1.2 0.9,1.9 2.1,1.9 0.9,0 1.8,-0.4 2.5,-0.8 z"
           class="st6"
           inkscape:connector-curvature="0"
           style="fill:#000000" />
      </g>
      <rect
         id="rect4679"
         height="2"
         width="2"
         class="st1"
         y="29.1"
         x="136.7"
         style="fill:#000000" />
      <polygon
         id="polygon4681"
         points="145.9,31.1 143.4,31.1 139.9,20.9 142.1,20.9 144.7,28.9 147.3,20.9 149.3,20.9 "
         class="st1"
         style="fill:#000000" />
      <rect
         id="rect4683"
         height="2"
         width="2"
         class="st1"
         y="29.1"
         x="148.60001"
         style="fill:#000000" />
      <path
         id="path4685"
         d="m 50.6,10.2 h 1.1 v 6 H 50.6 Z M 51.8,8.9 H 50.6 V 7.6 h 1.2 z"
         class="st1"
         inkscape:connector-curvature="0"
         style="fill:#000000" />
      <g
         id="g4695"
         style="fill:#000000">
        <defs
           id="defs4688">
          <rect
             height="39.299999"
             width="150.7"
             id="rect4820"
             x="0"
             y="0" />
        </defs>
        <clipPath
           id="SVGID_14_">
          <use
             id="use4690"
             style="overflow:visible"
             xlink:href="#SVGID_13_"
             x="0"
             y="0"
             width="100%"
             height="100%" />
        </clipPath>
        <path
           id="path4693"
           clip-path="url(#SVGID_14_)"
           d="m 53.8,10.2 h 1.1 v 0.9 0 c 0.3,-0.7 1.1,-1.1 2,-1.1 1.5,0 2.2,1 2.2,2.6 v 3.5 H 58 V 13 c 0,-1.4 -0.3,-2.1 -1.3,-2.1 -1.3,0 -1.8,1 -1.8,2.5 v 2.8 h -1.1 z"
           class="st7"
           inkscape:connector-curvature="0"
           style="fill:#000000" />
      </g>
      <path
         id="path4697"
         d="m 61,10.2 h 1.1 v 6 H 61 Z M 62.2,8.9 H 61 V 7.6 h 1.2 z"
         class="st1"
         inkscape:connector-curvature="0"
         style="fill:#000000" />
      <g
         id="g4707"
         style="fill:#000000">
        <defs
           id="defs4700">
          <rect
             height="39.299999"
             width="150.7"
             id="rect4828"
             x="0"
             y="0" />
        </defs>
        <clipPath
           id="SVGID_16_">
          <use
             id="use4702"
             style="overflow:visible"
             xlink:href="#SVGID_15_"
             x="0"
             y="0"
             width="100%"
             height="100%" />
        </clipPath>
        <path
           id="path4705"
           clip-path="url(#SVGID_16_)"
           d="m 67.3,11.1 h -1.6 v 3.3 c 0,0.7 0.4,1.1 0.9,1.1 0.3,0 0.6,-0.1 0.7,-0.2 v 0.9 c -0.2,0.1 -0.6,0.2 -0.9,0.2 -1.1,0 -1.8,-0.5 -1.8,-1.7 v -3.5 h -1.3 v -0.9 h 1.3 V 8.8 l 1.1,-0.4 v 1.7 h 1.6 z"
           class="st8"
           inkscape:connector-curvature="0"
           style="fill:#000000" />
      </g>
      <path
         id="path4709"
         d="m 68.8,10.2 h 1.1 v 6 H 68.8 Z M 70,8.9 H 68.8 V 7.6 H 70 Z"
         class="st1"
         inkscape:connector-curvature="0"
         style="fill:#000000" />
      <g
         id="g4721"
         style="fill:#000000">
        <defs
           id="defs4712">
          <rect
             height="39.299999"
             width="150.7"
             id="rect4836"
             x="0"
             y="0" />
        </defs>
        <clipPath
           id="SVGID_18_">
          <use
             id="use4714"
             style="overflow:visible"
             xlink:href="#SVGID_17_"
             x="0"
             y="0"
             width="100%"
             height="100%" />
        </clipPath>
        <path
           id="path4717"
           clip-path="url(#SVGID_18_)"
           d="m 75.5,13.3 c -0.2,0 -0.5,0 -0.7,0 -0.6,0 -2.1,0.1 -2.1,1.1 0,0.6 0.6,1 1.1,1 1.1,0 1.7,-0.7 1.7,-1.6 z m -3.3,-2.7 c 0.5,-0.3 1.2,-0.6 2,-0.6 1.7,0 2.4,0.8 2.4,2.5 V 15 c 0,0.7 0,1 0,1.2 h -1 v -0.8 0 c -0.3,0.4 -0.8,0.9 -1.8,0.9 -1.3,0 -2.2,-0.6 -2.2,-1.9 0,-1.5 1.6,-2 2.8,-2 0.4,0 0.7,0 1.2,0 0,-1 -0.4,-1.6 -1.5,-1.6 -0.6,0 -1.3,0.2 -1.7,0.6 z"
           class="st9"
           inkscape:connector-curvature="0"
           style="fill:#000000" />
        <path
           id="path4719"
           clip-path="url(#SVGID_18_)"
           d="M 81.6,11.1 H 80 v 3.3 c 0,0.7 0.4,1.1 0.9,1.1 0.3,0 0.6,-0.1 0.7,-0.2 v 0.9 c -0.2,0.1 -0.6,0.2 -0.9,0.2 -1.1,0 -1.8,-0.5 -1.8,-1.7 v -3.5 h -1.3 v -0.9 h 1.3 V 8.8 L 80,8.5 v 1.7 h 1.6 z"
           class="st9"
           inkscape:connector-curvature="0"
           style="fill:#000000" />
      </g>
      <path
         id="path4723"
         d="m 83.1,10.2 h 1.1 v 6 H 83.1 Z M 84.3,8.9 H 83.1 V 7.6 h 1.2 z"
         class="st1"
         inkscape:connector-curvature="0"
         style="fill:#000000" />
      <polygon
         id="polygon4725"
         points="89.9,10.2 91,10.2 88.9,16.2 87.6,16.2 85.4,10.2 86.6,10.2 88.3,15.1 "
         class="st1"
         style="fill:#000000" />
      <g
         id="g4735"
         style="fill:#000000">
        <defs
           id="defs4728">
          <rect
             height="39.299999"
             width="150.7"
             id="rect4846"
             x="0"
             y="0" />
        </defs>
        <clipPath
           id="SVGID_20_">
          <use
             id="use4730"
             style="overflow:visible"
             xlink:href="#SVGID_19_"
             x="0"
             y="0"
             width="100%"
             height="100%" />
        </clipPath>
        <path
           id="path4733"
           clip-path="url(#SVGID_20_)"
           d="m 96,12.6 c 0,-0.9 -0.5,-1.7 -1.5,-1.7 -1.1,0 -1.5,0.9 -1.6,1.7 z m 0.7,3.3 c -0.4,0.2 -0.9,0.4 -1.9,0.4 -2.1,0 -3.1,-1.3 -3.1,-3.2 0,-1.8 1.1,-3 2.8,-3 2,0 2.6,1.5 2.6,3.4 h -4.3 c 0,1.2 0.9,2 2,2 0.7,0 1.6,-0.4 1.8,-0.6 v 1 z"
           class="st10"
           inkscape:connector-curvature="0"
           style="fill:#000000" />
      </g>
      <rect
         id="rect4737"
         height="1.3"
         width="1.3"
         class="st1"
         y="14.9"
         x="98.599998"
         style="fill:#000000" />
      <g
         id="g4747"
         style="fill:#000000">
        <defs
           id="defs4740">
          <rect
             height="39.299999"
             width="150.7"
             id="rect4854"
             x="0"
             y="0" />
        </defs>
        <clipPath
           id="SVGID_22_">
          <use
             id="use4742"
             style="overflow:visible"
             xlink:href="#SVGID_21_"
             x="0"
             y="0"
             width="100%"
             height="100%" />
        </clipPath>
        <path
           id="path4745"
           clip-path="url(#SVGID_22_)"
           d="M 4.1,26.6 C 5,26.1 5.5,25.3 5.6,24.3 l 10.1,-3.1 c 0,0 0,0 0,0 0.8,1.5 2.3,2.5 3.9,2.8 v 8.4 c -0.2,0.1 -0.4,0.1 -0.6,0.3 -1.7,0.9 -2.3,3 -1.5,4.6 0.9,1.7 3,2.3 4.6,1.5 1.7,-0.9 2.3,-3 1.5,-4.6 -0.4,-0.9 -1.2,-1.4 -2.1,-1.7 v -8.4 c 0.5,-0.1 1.1,-0.3 1.6,-0.5 1.4,-0.7 2.3,-1.9 2.7,-3.3 l 6,2.1 c 0,0.4 0.1,0.8 0.3,1.2 0.7,1.4 2.4,1.9 3.7,1.2 1.4,-0.7 1.9,-2.4 1.2,-3.7 -0.7,-1.4 -2.4,-1.9 -3.7,-1.2 -0.3,0.2 -0.6,0.4 -0.8,0.7 L 26.1,18.3 C 26,17.6 25.8,16.9 25.5,16.3 25.4,16.1 25.3,16 25.2,15.8 L 38.3,6.3 c 1,0.8 2.5,1 3.7,0.3 1.7,-0.9 2.3,-3 1.5,-4.6 -0.9,-1.7 -3,-2.3 -4.6,-1.5 -1.5,0.8 -2.2,2.6 -1.6,4.2 L 24,14.3 c -1,-0.7 -2.3,-1.1 -3.5,-1 L 18.8,6.4 C 20.4,5.5 21,3.5 20.1,1.8 19.2,0.1 17.1,-0.5 15.5,0.3 13.8,1.2 13.2,3.3 14,4.9 14.6,6 15.7,6.7 16.9,6.7 l 1.7,6.9 c -0.1,0 -0.2,0.1 -0.3,0.1 -2.1,1.1 -3.1,3.3 -2.9,5.5 L 5,22.4 C 4.2,21.4 2.7,21 1.5,21.6 0.1,22.3 -0.4,24 0.3,25.3 c 0.7,1.4 2.4,2 3.8,1.3"
           class="st11"
           inkscape:connector-curvature="0"
           style="fill:#000000" />
      </g>
    </g>
  </g>
  <style
     id="style4605"
     type="text/css">
	.st0{clip-path:url(#SVGID_2_);fill:#575756;}
	.st1{fill:#575756;}
	.st2{clip-path:url(#SVGID_4_);fill:#575756;}
	.st3{clip-path:url(#SVGID_6_);fill:#575756;}
	.st4{clip-path:url(#SVGID_8_);fill:#575756;}
	.st5{clip-path:url(#SVGID_10_);fill:#575756;}
	.st6{clip-path:url(#SVGID_12_);fill:#575756;}
	.st7{clip-path:url(#SVGID_14_);fill:#575756;}
	.st8{clip-path:url(#SVGID_16_);fill:#575756;}
	.st9{clip-path:url(#SVGID_18_);fill:#575756;}
	.st10{clip-path:url(#SVGID_20_);fill:#575756;}
	.st11{clip-path:url(#SVGID_22_);fill:#0B3753;}
</style>
</svg>
