<?xml version="1.0" encoding="UTF-8" standalone="no"?>
<!-- Created with Inkscape (http://www.inkscape.org/) -->

<svg
   xmlns:dc="http://purl.org/dc/elements/1.1/"
   xmlns:cc="http://creativecommons.org/ns#"
   xmlns:rdf="http://www.w3.org/1999/02/22-rdf-syntax-ns#"
   xmlns:svg="http://www.w3.org/2000/svg"
   xmlns="http://www.w3.org/2000/svg"
   xmlns:sodipodi="http://sodipodi.sourceforge.net/DTD/sodipodi-0.dtd"
   xmlns:inkscape="http://www.inkscape.org/namespaces/inkscape"
   id="svg4136"
   version="1.1"
   inkscape:version="0.91 r13725"
   xml:space="preserve"
   width="744.09448"
   height="524.40942"
   viewBox="0 0 744.09448 524.40942"
   sodipodi:docname="Logo_VSH_a5.svg"><metadata
     id="metadata4142"><rdf:RDF><cc:Work
         rdf:about=""><dc:format>image/svg+xml</dc:format><dc:type
           rdf:resource="http://purl.org/dc/dcmitype/StillImage" /><dc:title></dc:title></cc:Work></rdf:RDF></metadata><defs
     id="defs4140"><clipPath
       clipPathUnits="userSpaceOnUse"
       id="clipPath4156"><path
         d="m 0,362.164 596,0 0,-293.125 -596,0 0,293.125 z"
         id="path4158"
         inkscape:connector-curvature="0" /></clipPath><clipPath
       clipPathUnits="userSpaceOnUse"
       id="clipPath4166"><path
         d="m 11,89 576,0 0,255 -576,0 0,-255 z"
         id="path4168"
         inkscape:connector-curvature="0" /></clipPath></defs><sodipodi:namedview
     pagecolor="#ffffff"
     bordercolor="#666666"
     borderopacity="1"
     objecttolerance="10"
     gridtolerance="10"
     guidetolerance="10"
     inkscape:pageopacity="0"
     inkscape:pageshadow="2"
     inkscape:window-width="2556"
     inkscape:window-height="1032"
     id="namedview4138"
     showgrid="false"
     inkscape:zoom="1.6704505"
     inkscape:cx="372.04724"
     inkscape:cy="262.20471"
     inkscape:window-x="0"
     inkscape:window-y="46"
     inkscape:window-maximized="0"
     inkscape:current-layer="g4144" /><g
     id="g4144"
     inkscape:groupmode="layer"
     inkscape:label="Logo_VSH_a5"
     transform="matrix(1.25,0,0,-1.25,0,524.40941)"><g
       id="g4146"><path
         d="m 288.852,305.883 -11.547,0 -18.379,-36.438 -18.614,36.438 -11.628,0 30.164,-57.809 30.004,57.809 z"
         style="fill:#231f20;fill-opacity:1;fill-rule:nonzero;stroke:none"
         id="path4148"
         inkscape:connector-curvature="0" /><path
         d="m 334.059,258.91 -30,0 0,14.618 18.613,0 0,9.343 -18.613,0 0,13.59 28.902,0 0,9.344 -39.348,0 0,-56.235 40.446,0 0,9.34 z"
         style="fill:#231f20;fill-opacity:1;fill-rule:nonzero;stroke:none"
         id="path4150"
         inkscape:connector-curvature="0" /></g><g
       id="g4152"><g
         id="g4154"
         clip-path="url(#clipPath4156)"><g
           id="g4160"
           transform="translate(0,-0.472473)"><g
             id="g4162"><g
               id="g4164"
               clip-path="url(#clipPath4166)"><g
                 id="g4170"><path
                   d="m 355.129,296.934 10.84,0 c 7.929,0 12.011,-4.086 12.011,-8.954 0,-4.878 -4.16,-8.882 -12.011,-8.882 l -10.84,0 0,17.836 z m 0,-27.176 12.801,0 9.187,-19.719 11.547,0 -10.836,22.231 c 6.594,3.296 10.524,9.113 10.524,15.71 0,10.133 -9.114,18.297 -22.305,18.297 l -21.367,0 0,-56.238 10.449,0 0,19.719 z"
                   style="fill:#231f20;fill-opacity:1;fill-rule:nonzero;stroke:none"
                   id="path4172"
                   inkscape:connector-curvature="0" /><path
                   d="m 246.203,200.043 6.754,-1.809 c 5.57,-1.496 9.656,-3.14 9.656,-7.461 0,-4.082 -3.765,-7.382 -12.25,-7.382 -7.222,0 -13.902,2.425 -21.597,8.953 l 0,-11.867 c 5.261,-3.918 13.746,-6.52 21.515,-6.52 11.785,0 23.172,6.055 23.172,17.68 0,11.308 -10.84,15.152 -17.672,17.039 l -6.758,1.89 c -5.656,1.571 -9.656,2.989 -9.656,6.672 0,3.692 3.926,5.739 10.055,5.739 6.832,0 14.605,-2.516 21.051,-7.309 l 0,11.707 c -2.754,1.57 -10.528,5.105 -20.11,5.105 -11.07,0 -21.679,-4.781 -21.679,-15.867 0,-10.293 9.031,-14.293 17.519,-16.57"
                   style="fill:#231f20;fill-opacity:1;fill-rule:nonzero;stroke:none"
                   id="path4174"
                   inkscape:connector-curvature="0" /><path
                   d="m 315.055,173.957 c 8.718,0 15.472,2.992 19.007,4.957 l 0,11.313 c -4.558,-3.93 -12.019,-6.836 -19.167,-6.836 -12.25,0 -21.043,8.554 -21.043,19.793 0,11.234 8.793,19.793 21.043,19.793 7.148,0 14.609,-2.911 19.167,-6.829 l 0,11.305 c -3.535,1.965 -10.289,4.949 -19.007,4.949 -17.75,0 -31.653,-12.57 -31.653,-29.218 0,-16.653 13.903,-29.227 31.653,-29.227"
                   style="fill:#231f20;fill-opacity:1;fill-rule:nonzero;stroke:none"
                   id="path4176"
                   inkscape:connector-curvature="0" /><path
                   d="m 355.062,198.859 29.981,0 0,-23.797 10.445,0 0,56.243 -10.445,0 0,-22.785 -29.981,0 0,22.785 -10.449,0 0,-56.243 10.449,0 0,23.797 z"
                   style="fill:#231f20;fill-opacity:1;fill-rule:nonzero;stroke:none"
                   id="path4178"
                   inkscape:connector-curvature="0" /><path
                   d="m 461.355,231.301 -11.308,-31.258 -12.57,32.437 -12.567,-32.437 -11.312,31.258 -11.387,0 22.621,-57.418 12.57,31.808 12.559,-31.808 22.781,57.418 -11.387,0 z"
                   style="fill:#231f20;fill-opacity:1;fill-rule:nonzero;stroke:none"
                   id="path4180"
                   inkscape:connector-curvature="0" /><path
                   d="m 503.031,183.309 c -11.312,0 -20.113,8.636 -20.113,19.875 0,11.234 8.801,19.871 20.113,19.871 11.309,0 20.031,-8.637 20.031,-19.871 0,-11.239 -8.722,-19.875 -20.031,-19.875 m 0,49.093 c -16.969,0 -30.633,-13.117 -30.633,-29.218 0,-16.184 13.664,-29.227 30.633,-29.227 16.883,0 30.633,13.043 30.633,29.227 0,16.101 -13.75,29.218 -30.633,29.218"
                   style="fill:#231f20;fill-opacity:1;fill-rule:nonzero;stroke:none"
                   id="path4182"
                   inkscape:connector-curvature="0" /><path
                   d="m 511.59,235.156 c 3.137,0 6.203,2.199 6.203,5.496 0,3.219 -3.066,5.422 -6.203,5.422 -3.141,0 -6.207,-2.203 -6.207,-5.422 0,-3.297 3.066,-5.496 6.207,-5.496"
                   style="fill:#231f20;fill-opacity:1;fill-rule:nonzero;stroke:none"
                   id="path4184"
                   inkscape:connector-curvature="0" /><path
                   d="m 494.391,235.156 c 3.14,0 6.203,2.199 6.203,5.496 0,3.219 -3.063,5.422 -6.203,5.422 -3.145,0 -6.207,-2.203 -6.207,-5.422 0,-3.297 3.062,-5.496 6.207,-5.496"
                   style="fill:#231f20;fill-opacity:1;fill-rule:nonzero;stroke:none"
                   id="path4186"
                   inkscape:connector-curvature="0" /><path
                   d="m 563.703,204.117 -10.84,0 0,17.836 10.84,0 c 7.934,0 12.02,-4.082 12.02,-8.953 0,-4.879 -4.164,-8.883 -12.02,-8.883 m 11.859,-6.828 c 6.598,3.301 10.524,9.113 10.524,15.711 0,10.129 -9.109,18.301 -22.305,18.301 l -21.363,0 0,-56.235 10.445,0 0,19.711 12.805,0 9.184,-19.711 11.55,0 -10.84,22.223 z"
                   style="fill:#231f20;fill-opacity:1;fill-rule:nonzero;stroke:none"
                   id="path4188"
                   inkscape:connector-curvature="0" /><path
                   d="m 269.375,133.43 -30.242,0 0,22.781 -10.449,0 0,-56.246 10.449,0 0,23.805 30.242,0 0,-23.805 10.445,0 0,56.246 -10.445,0 0,-22.781 z"
                   style="fill:#231f20;fill-opacity:1;fill-rule:nonzero;stroke:none"
                   id="path4190"
                   inkscape:connector-curvature="0" /><path
                   d="m 304.918,117.953 9.426,18.613 9.426,-18.613 -18.852,0 z m -20.574,-17.988 11.625,0 4.316,8.644 28.195,0 4.399,-8.644 11.629,0 -30.086,57.808 -30.078,-57.808 z"
                   style="fill:#231f20;fill-opacity:1;fill-rule:nonzero;stroke:none"
                   id="path4192"
                   inkscape:connector-curvature="0" /><path
                   d="m 385.176,125.418 c 0,-10.926 -6.52,-16.887 -15,-16.887 -8.485,0 -15.082,6.129 -15.082,16.887 l 0,30.945 -10.446,0 0,-31.582 c 0,-16.019 11.157,-25.676 25.528,-25.676 14.371,0 25.449,9.895 25.449,25.676 l 0,31.582 -10.449,0 0,-30.945 z"
                   style="fill:#231f20;fill-opacity:1;fill-rule:nonzero;stroke:none"
                   id="path4194"
                   inkscape:connector-curvature="0" /><path
                   d="m 431.996,133.742 -6.762,1.883 c -5.652,1.57 -9.656,2.98 -9.656,6.676 0,3.687 3.922,5.73 10.055,5.73 6.832,0 14.609,-2.511 21.047,-7.301 l 0,11.696 c -2.746,1.574 -10.524,5.113 -20.11,5.113 -11.074,0 -21.675,-4.793 -21.675,-15.867 0,-10.293 9.031,-14.293 17.515,-16.57 l 6.758,-1.805 c 5.574,-1.496 9.656,-3.141 9.656,-7.469 0,-4.082 -3.765,-7.379 -12.254,-7.379 -7.226,0 -13.902,2.438 -21.601,8.957 l 0,-11.867 c 5.265,-3.918 13.75,-6.512 21.523,-6.512 11.785,0 23.172,6.043 23.172,17.668 0,11.309 -10.84,15.157 -17.668,17.047"
                   style="fill:#231f20;fill-opacity:1;fill-rule:nonzero;stroke:none"
                   id="path4196"
                   inkscape:connector-curvature="0" /><path
                   d="m 97.43,250.113 0,0.008 -18.746,0 0,-18.758 18.746,0 0,18.75 z"
                   style="fill:#231f20;fill-opacity:1;fill-rule:nonzero;stroke:none"
                   id="path4198"
                   inkscape:connector-curvature="0" /><path
                   d="m 22.445,118.867 0,131.254 18.746,0 0,18.754 18.747,0 0,18.75 18.746,0 0,18.746 18.75,0 0,-18.746 18.746,0 0,-18.75 18.746,0 0,-18.754 18.746,0 0,-93.762 -18.746,0 0,-18.73 18.746,0 0,-37.512 -37.492,0 0,56.242 -74.989,0 0,-37.492 37.493,0 0,-18.762 -56.239,0 0,18.762 z M 11.82,89.492 l 179.348,0 0,254.383 -179.348,0 0,-254.383 z"
                   style="fill:#231f20;fill-opacity:1;fill-rule:nonzero;stroke:none"
                   id="path4200"
                   inkscape:connector-curvature="0" /></g></g></g></g></g></g></g></svg>