  0
SECTION
  2
HEADER
  9
$ACADVER
  1
AC1014
  9
$HANDSEED
  5
FFFF
  9
$MEASUREMENT
 70
     1
  0
ENDSEC
  0
SECTION
  2
TABLES
  0
TABLE
  2
VPORT
  5
8
330
0
100
AcDbSymbolTable
 70
     4
  0
VPORT
  5
2E
330
8
100
AcDbSymbolTableRecord
100
AcDbViewportTableRecord
  2
*ACTIVE
 70
     0
 10
0.0
 20
0.0
 11
1.0
 21
1.0
 12
210.0
 22
148.5
 13
0.0
 23
0.0
 14
10.0
 24
10.0
 15
10.0
 25
10.0
 16
0.0
 26
0.0
 36
1.0
 17
0.0
 27
0.0
 37
0.0
 40
341.0
 41
1.24
 42
50.0
 43
0.0
 44
0.0
 50
0.0
 51
0.0
 71
     0
 72
   100
 73
     1
 74
     3
 75
     0
 76
     0
 77
     0
 78
     0
  0
ENDTAB
  0
TABLE
  2
LTYPE
  5
5
330
0
100
AcDbSymbolTable
 70
     1
  0
LTYPE
  5
14
330
5
100
AcDbSymbolTableRecord
100
AcDbLinetypeTableRecord
  2
BYBLOCK
 70
     0
  3

 72
    65
 73
     0
 40
0.0
  0
LTYPE
  5
15
330
5
100
AcDbSymbolTableRecord
100
AcDbLinetypeTableRecord
  2
BYLAYER
 70
     0
  3

 72
    65
 73
     0
 40
0.0
  0
LTYPE
  5
16
330
5
100
AcDbSymbolTableRecord
100
AcDbLinetypeTableRecord
  2
CONTINUOUS
 70
     0
  3
Solid line
 72
    65
 73
     0
 40
0.0
  0
ENDTAB
  0
TABLE
  2
LAYER
  5
2
100
AcDbSymbolTable
 70
3
  0
LAYER
  5
50
100
AcDbSymbolTableRecord
100
AcDbLayerTableRecord
  2
0
 70
0
  6
CONTINUOUS
  0
LAYER
  5
51
100
AcDbSymbolTableRecord
100
AcDbLayerTableRecord
  2
Ebene_2
 70
0
  6
CONTINUOUS
  0
LAYER
  5
52
100
AcDbSymbolTableRecord
100
AcDbLayerTableRecord
  2
Ebene_1
 70
0
  6
CONTINUOUS
  0
ENDTAB
  0
TABLE
  2
STYLE
  5
3
330
0
100
AcDbSymbolTable
 70
     1
  0
STYLE
  5
11
330
3
100
AcDbSymbolTableRecord
100
AcDbTextStyleTableRecord
  2
STANDARD
 70
     0
 40
0.0
 41
1.0
 50
0.0
 71
     0
 42
2.5
  3
txt
  4

  0
ENDTAB
  0
TABLE
  2
VIEW
  5
6
330
0
100
AcDbSymbolTable
 70
     0
  0
ENDTAB
  0
TABLE
  2
UCS
  5
7
330
0
100
AcDbSymbolTable
 70
     0
  0
ENDTAB
  0
TABLE
  2
APPID
  5
9
330
0
100
AcDbSymbolTable
 70
     2
  0
APPID
  5
12
330
9
100
AcDbSymbolTableRecord
100
AcDbRegAppTableRecord
  2
ACAD
 70
     0
  0
ENDTAB
  0
TABLE
  2
DIMSTYLE
  5
A
330
0
100
AcDbSymbolTable
 70
     1
  0
DIMSTYLE
105
27
330
A
100
AcDbSymbolTableRecord
100
AcDbDimStyleTableRecord
  2
ISO-25
 70
     0
  3

  4

  5

  6

  7

 40
1.0
 41
2.5
 42
0.625
 43
3.75
 44
1.25
 45
0.0
 46
0.0
 47
0.0
 48
0.0
140
2.5
141
2.5
142
0.0
143
0.03937007874016
144
1.0
145
0.0
146
1.0
147
0.625
 71
     0
 72
     0
 73
     0
 74
     0
 75
     0
 76
     0
 77
     1
 78
     8
170
     0
171
     3
172
     1
173
     0
174
     0
175
     0
176
     0
177
     0
178
     0
270
     2
271
     2
272
     2
273
     2
274
     3
340
11
275
     0
280
     0
281
     0
282
     0
283
     0
284
     8
285
     0
286
     0
287
     3
288
     0
  0
ENDTAB
  0
TABLE
  2
BLOCK_RECORD
  5
1
330
0
100
AcDbSymbolTable
 70
     1
  0
BLOCK_RECORD
  5
1F
330
1
100
AcDbSymbolTableRecord
100
AcDbBlockTableRecord
  2
*MODEL_SPACE
  0
BLOCK_RECORD
  5
1B
330
1
100
AcDbSymbolTableRecord
100
AcDbBlockTableRecord
  2
*PAPER_SPACE
  0
ENDTAB
  0
ENDSEC
  0
SECTION
  2
BLOCKS
  0
BLOCK
  5
20
330
1F
100
AcDbEntity
  8
0
100
AcDbBlockBegin
  2
*MODEL_SPACE
 70
     0
 10
0.0
 20
0.0
 30
0.0
  3
*MODEL_SPACE
  1

  0
ENDBLK
  5
21
330
1F
100
AcDbEntity
  8
0
100
AcDbBlockEnd
  0
BLOCK
  5
1C
330
1B
100
AcDbEntity
 67
     1
  8
0
100
AcDbBlockBegin
  2
*PAPER_SPACE
  1

  0
ENDBLK
  5
1D
330
1B
100
AcDbEntity
 67
     1
  8
0
100
AcDbBlockEnd
  0
ENDSEC
  0
SECTION
  2
ENTITIES
  0
SPLINE
  5
100
100
AcDbEntity
  8
Ebene_1
 62
7
100
AcDbSpline
 70
8
 71
3
 72
8
 73
4
 74
0
 40
0
 40
0
 40
0
 40
0
 40
1
 40
1
 40
1
 40
1
 10
208.669917
 20
66.613492
 30
0.0
 10
209.484500
 20
68.448450
 30
0.0
 10
209.955957
 20
69.956190
 30
0.0
 10
210.089352
 20
71.136930
 30
0.0
  0
SPLINE
  5
101
100
AcDbEntity
  8
Ebene_1
 62
7
100
AcDbSpline
 70
8
 71
3
 72
8
 73
4
 74
0
 40
0
 40
0
 40
0
 40
0
 40
1
 40
1
 40
1
 40
1
 10
210.089352
 20
71.136930
 30
0.0
 10
210.266742
 20
69.912195
 30
0.0
 10
210.855005
 20
68.271322
 30
0.0
 10
211.841307
 20
66.213592
 30
0.0
  0
LWPOLYLINE
  5
102
100
AcDbEntity
  8
Ebene_1
 62
7
100
AcDbPolyline
 90
5
 70
0
 10
202.195310
 20
84.774629
 30
0.0
 10
207.938960
 20
73.931857
 30
0.0
 10
202.195310
 20
61.824922
 30
0.0
 10
206.629392
 20
61.824922
 30
0.0
 10
208.669917
 20
66.613492
 30
0.0
  0
SPLINE
  5
103
100
AcDbEntity
  8
Ebene_1
 62
7
100
AcDbSpline
 70
8
 71
3
 72
8
 73
4
 74
0
 40
0
 40
0
 40
0
 40
0
 40
1
 40
1
 40
1
 40
1
 10
211.419432
 20
80.050507
 30
0.0
 10
211.215080
 20
79.552372
 30
0.0
 10
211.031772
 20
79.042050
 30
0.0
 10
210.865722
 20
78.521212
 30
0.0
  0
SPLINE
  5
104
100
AcDbEntity
  8
Ebene_1
 62
7
100
AcDbSpline
 70
8
 71
3
 72
8
 73
4
 74
0
 40
0
 40
0
 40
0
 40
0
 40
1
 40
1
 40
1
 40
1
 10
210.865722
 20
78.521212
 30
0.0
 10
210.705320
 20
78.006045
 30
0.0
 10
210.565880
 20
77.467387
 30
0.0
 10
210.443847
 20
76.902555
 30
0.0
  0
SPLINE
  5
105
100
AcDbEntity
  8
Ebene_1
 62
7
100
AcDbSpline
 70
8
 71
3
 72
8
 73
4
 74
0
 40
0
 40
0
 40
0
 40
0
 40
1
 40
1
 40
1
 40
1
 10
210.443847
 20
76.902555
 30
0.0
 10
210.283475
 20
77.539785
 30
0.0
 10
210.101600
 20
78.139297
 30
0.0
 10
209.890137
 20
78.698460
 30
0.0
  0
SPLINE
  5
106
100
AcDbEntity
  8
Ebene_1
 62
7
100
AcDbSpline
 70
8
 71
3
 72
8
 73
4
 74
0
 40
0
 40
0
 40
0
 40
0
 40
1
 40
1
 40
1
 40
1
 10
209.890137
 20
78.698460
 30
0.0
 10
209.685777
 20
79.276072
 30
0.0
 10
209.463492
 20
79.823992
 30
0.0
 10
209.225097
 20
80.340547
 30
0.0
  0
LWPOLYLINE
  5
107
100
AcDbEntity
  8
Ebene_1
 62
7
100
AcDbPolyline
 90
8
 70
0
 10
211.841307
 20
66.213592
 30
0.0
 10
213.858395
 20
61.824922
 30
0.0
 10
218.915037
 20
61.824922
 30
0.0
 10
212.639645
 20
73.931857
 30
0.0
 10
217.828122
 20
84.774629
 30
0.0
 10
213.370602
 20
84.774629
 30
0.0
 10
211.709472
 20
80.715547
 30
0.0
 10
211.419432
 20
80.050507
 30
0.0
  0
LWPOLYLINE
  5
108
100
AcDbEntity
  8
Ebene_1
 62
7
100
AcDbPolyline
 90
4
 70
0
 10
209.225097
 20
80.340547
 30
0.0
 10
207.208002
 20
84.774629
 30
0.0
 10
202.195310
 20
84.774629
 30
0.0
 10
202.195310
 20
84.774629
 30
0.0
  0
SPLINE
  5
109
100
AcDbEntity
  8
Ebene_1
 62
7
100
AcDbSpline
 70
8
 71
3
 72
8
 73
4
 74
0
 40
0
 40
0
 40
0
 40
0
 40
1
 40
1
 40
1
 40
1
 10
196.059080
 20
76.898160
 30
0.0
 10
196.126078
 20
76.340662
 30
0.0
 10
196.245170
 20
76.224592
 30
0.0
 10
196.296388
 20
75.528532
 30
0.0
  0
LWPOLYLINE
  5
10a
100
AcDbEntity
  8
Ebene_1
 62
7
100
AcDbPolyline
 90
2
 70
0
 10
200.304200
 20
76.898160
 30
0.0
 10
196.059080
 20
76.898160
 30
0.0
  0
SPLINE
  5
10b
100
AcDbEntity
  8
Ebene_1
 62
7
100
AcDbSpline
 70
8
 71
3
 72
8
 73
4
 74
0
 40
0
 40
0
 40
0
 40
0
 40
1
 40
1
 40
1
 40
1
 10
190.930663
 20
75.528532
 30
0.0
 10
190.981873
 20
76.224592
 30
0.0
 10
191.100433
 20
76.340662
 30
0.0
 10
191.167963
 20
76.898160
 30
0.0
  0
LWPOLYLINE
  5
10c
100
AcDbEntity
  8
Ebene_1
 62
7
100
AcDbPolyline
 90
2
 70
0
 10
196.296388
 20
75.528532
 30
0.0
 10
190.930663
 20
75.528532
 30
0.0
  0
SPLINE
  5
10d
100
AcDbEntity
  8
Ebene_1
 62
7
100
AcDbSpline
 70
8
 71
3
 72
8
 73
4
 74
0
 40
0
 40
0
 40
0
 40
0
 40
1
 40
1
 40
1
 40
1
 10
187.079585
 20
76.898160
 30
0.0
 10
186.943318
 20
75.743955
 30
0.0
 10
186.785150
 20
74.629552
 30
0.0
 10
186.785158
 20
73.221405
 30
0.0
  0
SPLINE
  5
10e
100
AcDbEntity
  8
Ebene_1
 62
7
100
AcDbSpline
 70
8
 71
3
 72
8
 73
4
 74
0
 40
0
 40
0
 40
0
 40
0
 40
1
 40
1
 40
1
 40
1
 10
186.785158
 20
73.221405
 30
0.0
 10
186.785158
 20
71.180685
 30
0.0
 10
186.918193
 20
69.423772
 30
0.0
 10
187.183588
 20
67.943572
 30
0.0
  0
SPLINE
  5
10f
100
AcDbEntity
  8
Ebene_1
 62
7
100
AcDbSpline
 70
8
 71
3
 72
8
 73
4
 74
0
 40
0
 40
0
 40
0
 40
0
 40
1
 40
1
 40
1
 40
1
 10
187.183588
 20
67.943572
 30
0.0
 10
187.467418
 20
66.469132
 30
0.0
 10
187.893598
 20
65.250885
 30
0.0
 10
188.471188
 20
64.285860
 30
0.0
  0
SPLINE
  5
110
100
AcDbEntity
  8
Ebene_1
 62
7
100
AcDbSpline
 70
8
 71
3
 72
8
 73
4
 74
0
 40
0
 40
0
 40
0
 40
0
 40
1
 40
1
 40
1
 40
1
 10
188.471188
 20
64.285860
 30
0.0
 10
189.047360
 20
63.326527
 30
0.0
 10
189.773623
 20
62.615805
 30
0.0
 10
190.643555
 20
62.155980
 30
0.0
  0
SPLINE
  5
111
100
AcDbEntity
  8
Ebene_1
 62
7
100
AcDbSpline
 70
8
 71
3
 72
8
 73
4
 74
0
 40
0
 40
0
 40
0
 40
0
 40
1
 40
1
 40
1
 40
1
 10
190.643555
 20
62.155980
 30
0.0
 10
191.530513
 20
61.701585
 30
0.0
 10
192.588763
 20
61.470427
 30
0.0
 10
193.813475
 20
61.470427
 30
0.0
  0
SPLINE
  5
112
100
AcDbEntity
  8
Ebene_1
 62
7
100
AcDbSpline
 70
8
 71
3
 72
8
 73
4
 74
0
 40
0
 40
0
 40
0
 40
0
 40
1
 40
1
 40
1
 40
1
 10
193.813475
 20
61.470427
 30
0.0
 10
197.937493
 20
61.470427
 30
0.0
 10
200.156000
 20
64.169527
 30
0.0
 10
200.466792
 20
69.563692
 30
0.0
  0
LWPOLYLINE
  5
113
100
AcDbEntity
  8
Ebene_1
 62
7
100
AcDbPolyline
 90
2
 70
0
 10
191.167963
 20
76.898160
 30
0.0
 10
187.079585
 20
76.898160
 30
0.0
  0
SPLINE
  5
114
100
AcDbEntity
  8
Ebene_1
 62
7
100
AcDbSpline
 70
8
 71
3
 72
8
 73
4
 74
0
 40
0
 40
0
 40
0
 40
0
 40
1
 40
1
 40
1
 40
1
 10
196.519040
 20
69.563692
 30
0.0
 10
196.519040
 20
66.592020
 30
0.0
 10
195.631340
 20
65.106172
 30
0.0
 10
193.857418
 20
65.106172
 30
0.0
  0
SPLINE
  5
115
100
AcDbEntity
  8
Ebene_1
 62
7
100
AcDbSpline
 70
8
 71
3
 72
8
 73
4
 74
0
 40
0
 40
0
 40
0
 40
0
 40
1
 40
1
 40
1
 40
1
 10
193.857418
 20
65.106172
 30
0.0
 10
191.906098
 20
65.106172
 30
0.0
 10
190.930663
 20
67.562527
 30
0.0
 10
190.930663
 20
72.468480
 30
0.0
  0
LWPOLYLINE
  5
116
100
AcDbEntity
  8
Ebene_1
 62
7
100
AcDbPolyline
 90
2
 70
0
 10
200.466792
 20
69.563692
 30
0.0
 10
196.519040
 20
69.563692
 30
0.0
  0
SPLINE
  5
117
100
AcDbEntity
  8
Ebene_1
 62
7
100
AcDbSpline
 70
8
 71
3
 72
8
 73
4
 74
0
 40
0
 40
0
 40
0
 40
0
 40
1
 40
1
 40
1
 40
1
 10
200.620602
 20
73.000215
 30
0.0
 10
200.620602
 20
74.485537
 30
0.0
 10
200.458385
 20
75.685387
 30
0.0
 10
200.304200
 20
76.898160
 30
0.0
  0
LWPOLYLINE
  5
118
100
AcDbEntity
  8
Ebene_1
 62
7
100
AcDbPolyline
 90
3
 70
0
 10
190.930663
 20
72.468480
 30
0.0
 10
200.620602
 20
72.468480
 30
0.0
 10
200.620602
 20
73.000215
 30
0.0
  0
LWPOLYLINE
  5
119
100
AcDbEntity
  8
Ebene_1
 62
7
100
AcDbPolyline
 90
1
 70
1
 10
200.304200
 20
76.898160
 30
0.0
  0
SPLINE
  5
11a
100
AcDbEntity
  8
Ebene_1
 62
7
100
AcDbSpline
 70
8
 71
3
 72
8
 73
4
 74
0
 40
0
 40
0
 40
0
 40
0
 40
1
 40
1
 40
1
 40
1
 10
191.564938
 20
84.774629
 30
0.0
 10
190.275103
 20
84.337942
 30
0.0
 10
189.226288
 20
83.515694
 30
0.0
 10
188.471188
 20
82.224337
 30
0.0
  0
SPLINE
  5
11b
100
AcDbEntity
  8
Ebene_1
 62
7
100
AcDbSpline
 70
8
 71
3
 72
8
 73
4
 74
0
 40
0
 40
0
 40
0
 40
0
 40
1
 40
1
 40
1
 40
1
 10
188.471188
 20
82.224337
 30
0.0
 10
187.740643
 20
80.951204
 30
0.0
 10
187.335410
 20
79.064940
 30
0.0
 10
187.079585
 20
76.898160
 30
0.0
  0
LWPOLYLINE
  5
11c
100
AcDbEntity
  8
Ebene_1
 62
7
100
AcDbPolyline
 90
2
 70
0
 10
195.804200
 20
84.774629
 30
0.0
 10
191.564938
 20
84.774629
 30
0.0
  0
SPLINE
  5
11d
100
AcDbEntity
  8
Ebene_1
 62
7
100
AcDbSpline
 70
8
 71
3
 72
8
 73
4
 74
0
 40
0
 40
0
 40
0
 40
0
 40
1
 40
1
 40
1
 40
1
 10
191.167963
 20
76.898160
 30
0.0
 10
191.334365
 20
78.271822
 30
0.0
 10
191.490530
 20
79.736144
 30
0.0
 10
191.750975
 20
80.273159
 30
0.0
  0
SPLINE
  5
11e
100
AcDbEntity
  8
Ebene_1
 62
7
100
AcDbSpline
 70
8
 71
3
 72
8
 73
4
 74
0
 40
0
 40
0
 40
0
 40
0
 40
1
 40
1
 40
1
 40
1
 10
191.750975
 20
80.273159
 30
0.0
 10
192.122788
 20
81.114824
 30
0.0
 10
192.742903
 20
81.535859
 30
0.0
 10
193.614253
 20
81.535859
 30
0.0
  0
SPLINE
  5
11f
100
AcDbEntity
  8
Ebene_1
 62
7
100
AcDbSpline
 70
8
 71
3
 72
8
 73
4
 74
0
 40
0
 40
0
 40
0
 40
0
 40
1
 40
1
 40
1
 40
1
 10
193.614253
 20
81.535859
 30
0.0
 10
194.472830
 20
81.535859
 30
0.0
 10
195.094310
 20
81.114712
 30
0.0
 10
195.476075
 20
80.273159
 30
0.0
  0
SPLINE
  5
120
100
AcDbEntity
  8
Ebene_1
 62
7
100
AcDbSpline
 70
8
 71
3
 72
8
 73
4
 74
0
 40
0
 40
0
 40
0
 40
0
 40
1
 40
1
 40
1
 40
1
 10
195.476075
 20
80.273159
 30
0.0
 10
195.740548
 20
79.736144
 30
0.0
 10
195.893998
 20
78.271822
 30
0.0
 10
196.059080
 20
76.898160
 30
0.0
  0
LWPOLYLINE
  5
121
100
AcDbEntity
  8
Ebene_1
 62
7
100
AcDbPolyline
 90
2
 70
0
 10
187.079585
 20
76.898160
 30
0.0
 10
191.167963
 20
76.898160
 30
0.0
  0
SPLINE
  5
122
100
AcDbEntity
  8
Ebene_1
 62
7
100
AcDbSpline
 70
8
 71
3
 72
8
 73
4
 74
0
 40
0
 40
0
 40
0
 40
0
 40
1
 40
1
 40
1
 40
1
 10
200.304200
 20
76.898160
 30
0.0
 10
199.756850
 20
81.203467
 30
0.0
 10
198.299030
 20
83.899702
 30
0.0
 10
195.804200
 20
84.774629
 30
0.0
  0
LWPOLYLINE
  5
123
100
AcDbEntity
  8
Ebene_1
 62
7
100
AcDbPolyline
 90
2
 70
0
 10
196.059080
 20
76.898160
 30
0.0
 10
200.304200
 20
76.898160
 30
0.0
  0
SPLINE
  5
124
100
AcDbEntity
  8
Ebene_1
 62
7
100
AcDbSpline
 70
8
 71
3
 72
8
 73
4
 74
0
 40
0
 40
0
 40
0
 40
0
 40
1
 40
1
 40
1
 40
1
 10
193.725583
 20
85.151092
 30
0.0
 10
192.926923
 20
85.151092
 30
0.0
 10
192.224113
 20
84.997799
 30
0.0
 10
191.564938
 20
84.774629
 30
0.0
  0
LWPOLYLINE
  5
125
100
AcDbEntity
  8
Ebene_1
 62
7
100
AcDbPolyline
 90
1
 70
1
 10
195.804200
 20
84.774629
 30
0.0
  0
SPLINE
  5
126
100
AcDbEntity
  8
Ebene_1
 62
7
100
AcDbSpline
 70
8
 71
3
 72
8
 73
4
 74
0
 40
0
 40
0
 40
0
 40
0
 40
1
 40
1
 40
1
 40
1
 10
195.804200
 20
84.774629
 30
0.0
 10
195.167090
 20
84.998062
 30
0.0
 10
194.489983
 20
85.151092
 30
0.0
 10
193.725583
 20
85.151092
 30
0.0
  0
LWPOLYLINE
  5
127
100
AcDbEntity
  8
Ebene_1
 62
7
100
AcDbPolyline
 90
2
 70
0
 10
191.564938
 20
84.774629
 30
0.0
 10
195.804200
 20
84.774629
 30
0.0
  0
SPLINE
  5
128
100
AcDbEntity
  8
Ebene_1
 62
7
100
AcDbSpline
 70
8
 71
3
 72
8
 73
4
 74
0
 40
0
 40
0
 40
0
 40
0
 40
1
 40
1
 40
1
 40
1
 10
141.106933
 20
85.151092
 30
0.0
 10
138.745483
 20
85.151092
 30
0.0
 10
136.998426
 20
84.170684
 30
0.0
 10
135.873043
 20
82.202362
 30
0.0
  0
SPLINE
  5
129
100
AcDbEntity
  8
Ebene_1
 62
7
100
AcDbSpline
 70
8
 71
3
 72
8
 73
4
 74
0
 40
0
 40
0
 40
0
 40
0
 40
1
 40
1
 40
1
 40
1
 10
135.873043
 20
82.202362
 30
0.0
 10
134.753346
 20
80.251049
 30
0.0
 10
134.188476
 20
77.212117
 30
0.0
 10
134.188476
 20
73.088107
 30
0.0
  0
SPLINE
  5
12a
100
AcDbEntity
  8
Ebene_1
 62
7
100
AcDbSpline
 70
8
 71
3
 72
8
 73
4
 74
0
 40
0
 40
0
 40
0
 40
0
 40
1
 40
1
 40
1
 40
1
 10
134.188476
 20
73.088107
 30
0.0
 10
134.188476
 20
65.343855
 30
0.0
 10
136.466398
 20
61.470427
 30
0.0
 10
141.017578
 20
61.470427
 30
0.0
  0
SPLINE
  5
12b
100
AcDbEntity
  8
Ebene_1
 62
7
100
AcDbSpline
 70
8
 71
3
 72
8
 73
4
 74
0
 40
0
 40
0
 40
0
 40
0
 40
1
 40
1
 40
1
 40
1
 10
141.017578
 20
61.470427
 30
0.0
 10
142.171333
 20
61.470427
 30
0.0
 10
143.312428
 20
61.769152
 30
0.0
 10
144.432126
 20
62.356657
 30
0.0
  0
LWPOLYLINE
  5
12c
100
AcDbEntity
  8
Ebene_1
 62
7
100
AcDbPolyline
 90
1
 70
1
 10
193.725583
 20
85.151092
 30
0.0
  0
SPLINE
  5
12d
100
AcDbEntity
  8
Ebene_1
 62
7
100
AcDbSpline
 70
8
 71
3
 72
8
 73
4
 74
0
 40
0
 40
0
 40
0
 40
0
 40
1
 40
1
 40
1
 40
1
 10
144.432126
 20
66.326385
 30
0.0
 10
143.651601
 20
65.748660
 30
0.0
 10
142.935958
 20
65.460660
 30
0.0
 10
142.281733
 20
65.460660
 30
0.0
  0
SPLINE
  5
12e
100
AcDbEntity
  8
Ebene_1
 62
7
100
AcDbSpline
 70
8
 71
3
 72
8
 73
4
 74
0
 40
0
 40
0
 40
0
 40
0
 40
1
 40
1
 40
1
 40
1
 10
142.281733
 20
65.460660
 30
0.0
 10
139.964278
 20
65.460660
 30
0.0
 10
138.801268
 20
68.144250
 30
0.0
 10
138.801268
 20
73.509982
 30
0.0
  0
SPLINE
  5
12f
100
AcDbEntity
  8
Ebene_1
 62
7
100
AcDbSpline
 70
8
 71
3
 72
8
 73
4
 74
0
 40
0
 40
0
 40
0
 40
0
 40
1
 40
1
 40
1
 40
1
 10
138.801268
 20
73.509982
 30
0.0
 10
138.801268
 20
78.566362
 30
0.0
 10
139.970646
 20
81.093479
 30
0.0
 10
142.303708
 20
81.093479
 30
0.0
  0
SPLINE
  5
130
100
AcDbEntity
  8
Ebene_1
 62
7
100
AcDbSpline
 70
8
 71
3
 72
8
 73
4
 74
0
 40
0
 40
0
 40
0
 40
0
 40
1
 40
1
 40
1
 40
1
 10
142.303708
 20
81.093479
 30
0.0
 10
143.135323
 20
81.093479
 30
0.0
 10
143.844606
 20
80.733194
 30
0.0
 10
144.432126
 20
80.006564
 30
0.0
  0
LWPOLYLINE
  5
131
100
AcDbEntity
  8
Ebene_1
 62
7
100
AcDbPolyline
 90
2
 70
0
 10
144.432126
 20
62.356657
 30
0.0
 10
144.432126
 20
66.326385
 30
0.0
  0
SPLINE
  5
132
100
AcDbEntity
  8
Ebene_1
 62
7
100
AcDbSpline
 70
8
 71
3
 72
8
 73
4
 74
0
 40
0
 40
0
 40
0
 40
0
 40
1
 40
1
 40
1
 40
1
 10
144.432126
 20
84.330779
 30
0.0
 10
143.357841
 20
84.879824
 30
0.0
 10
142.247916
 20
85.151092
 30
0.0
 10
141.106933
 20
85.151092
 30
0.0
  0
LWPOLYLINE
  5
133
100
AcDbEntity
  8
Ebene_1
 62
7
100
AcDbPolyline
 90
2
 70
0
 10
144.432126
 20
80.006564
 30
0.0
 10
144.432126
 20
84.330779
 30
0.0
  0
SPLINE
  5
134
100
AcDbEntity
  8
Ebene_1
 62
7
100
AcDbSpline
 70
8
 71
3
 72
8
 73
4
 74
0
 40
0
 40
0
 40
0
 40
0
 40
1
 40
1
 40
1
 40
1
 10
174.678223
 20
85.307834
 30
0.0
 10
173.514523
 20
85.235437
 30
0.0
 10
172.570895
 20
84.952267
 30
0.0
 10
171.861328
 20
84.464084
 30
0.0
  0
SPLINE
  5
135
100
AcDbEntity
  8
Ebene_1
 62
7
100
AcDbSpline
 70
8
 71
3
 72
8
 73
4
 74
0
 40
0
 40
0
 40
0
 40
0
 40
1
 40
1
 40
1
 40
1
 10
171.861328
 20
84.464084
 30
0.0
 10
171.151753
 20
83.975924
 30
0.0
 10
170.437528
 20
83.127187
 30
0.0
 10
169.710935
 20
81.913784
 30
0.0
  0
LWPOLYLINE
  5
136
100
AcDbEntity
  8
Ebene_1
 62
7
100
AcDbPolyline
 90
1
 70
1
 10
141.106933
 20
85.151092
 30
0.0
  0
SPLINE
  5
137
100
AcDbEntity
  8
Ebene_1
 62
7
100
AcDbSpline
 70
8
 71
3
 72
8
 73
4
 74
0
 40
0
 40
0
 40
0
 40
0
 40
1
 40
1
 40
1
 40
1
 10
169.710935
 20
75.727755
 30
0.0
 10
169.710935
 20
77.650717
 30
0.0
 10
170.031613
 20
78.996975
 30
0.0
 10
170.664545
 20
79.761929
 30
0.0
  0
SPLINE
  5
138
100
AcDbEntity
  8
Ebene_1
 62
7
100
AcDbSpline
 70
8
 71
3
 72
8
 73
4
 74
0
 40
0
 40
0
 40
0
 40
0
 40
1
 40
1
 40
1
 40
1
 10
170.664545
 20
79.761929
 30
0.0
 10
171.318770
 20
80.549482
 30
0.0
 10
172.403930
 20
80.938199
 30
0.0
 10
173.923828
 20
80.938199
 30
0.0
  0
SPLINE
  5
139
100
AcDbEntity
  8
Ebene_1
 62
7
100
AcDbSpline
 70
8
 71
3
 72
8
 73
4
 74
0
 40
0
 40
0
 40
0
 40
0
 40
1
 40
1
 40
1
 40
1
 10
173.923828
 20
80.938199
 30
0.0
 10
174.133858
 20
80.938199
 30
0.0
 10
174.384463
 20
80.915939
 30
0.0
 10
174.678223
 20
80.872282
 30
0.0
  0
LWPOLYLINE
  5
13a
100
AcDbEntity
  8
Ebene_1
 62
7
100
AcDbPolyline
 90
6
 70
0
 10
169.710935
 20
81.913784
 30
0.0
 10
169.710935
 20
84.774629
 30
0.0
 10
165.474605
 20
84.774629
 30
0.0
 10
165.474605
 20
61.824922
 30
0.0
 10
169.710935
 20
61.824922
 30
0.0
 10
169.710935
 20
75.727755
 30
0.0
  0
SPLINE
  5
13b
100
AcDbEntity
  8
Ebene_1
 62
7
100
AcDbSpline
 70
8
 71
3
 72
8
 73
4
 74
0
 40
0
 40
0
 40
0
 40
0
 40
1
 40
1
 40
1
 40
1
 10
147.187498
 20
73.863007
 30
0.0
 10
147.183838
 20
73.650262
 30
0.0
 10
147.137691
 20
73.507590
 30
0.0
 10
147.137691
 20
73.288785
 30
0.0
  0
SPLINE
  5
13c
100
AcDbEntity
  8
Ebene_1
 62
7
100
AcDbSpline
 70
8
 71
3
 72
8
 73
4
 74
0
 40
0
 40
0
 40
0
 40
0
 40
1
 40
1
 40
1
 40
1
 10
147.137691
 20
73.288785
 30
0.0
 10
147.137691
 20
65.411137
 30
0.0
 10
149.543781
 20
61.470427
 30
0.0
 10
154.344726
 20
61.470427
 30
0.0
  0
SPLINE
  5
13d
100
AcDbEntity
  8
Ebene_1
 62
7
100
AcDbSpline
 70
8
 71
3
 72
8
 73
4
 74
0
 40
0
 40
0
 40
0
 40
0
 40
1
 40
1
 40
1
 40
1
 10
154.344726
 20
61.470427
 30
0.0
 10
159.149930
 20
61.470427
 30
0.0
 10
161.550290
 20
65.350252
 30
0.0
 10
161.550290
 20
73.111545
 30
0.0
  0
LWPOLYLINE
  5
13e
100
AcDbEntity
  8
Ebene_1
 62
7
100
AcDbPolyline
 90
3
 70
0
 10
174.678223
 20
80.872282
 30
0.0
 10
174.678223
 20
85.307834
 30
0.0
 10
174.678223
 20
85.307834
 30
0.0
  0
SPLINE
  5
13f
100
AcDbEntity
  8
Ebene_1
 62
7
100
AcDbSpline
 70
8
 71
3
 72
8
 73
4
 74
0
 40
0
 40
0
 40
0
 40
0
 40
1
 40
1
 40
1
 40
1
 10
157.155763
 20
73.111545
 30
0.0
 10
157.149808
 20
70.244115
 30
0.0
 10
156.950188
 20
68.249370
 30
0.0
 10
156.540523
 20
67.167210
 30
0.0
  0
SPLINE
  5
140
100
AcDbEntity
  8
Ebene_1
 62
7
100
AcDbSpline
 70
8
 71
3
 72
8
 73
4
 74
0
 40
0
 40
0
 40
0
 40
0
 40
1
 40
1
 40
1
 40
1
 10
156.540523
 20
67.167210
 30
0.0
 10
156.140331
 20
66.003502
 30
0.0
 10
155.441623
 20
65.416717
 30
0.0
 10
154.432618
 20
65.416717
 30
0.0
  0
SPLINE
  5
141
100
AcDbEntity
  8
Ebene_1
 62
7
100
AcDbSpline
 70
8
 71
3
 72
8
 73
4
 74
0
 40
0
 40
0
 40
0
 40
0
 40
1
 40
1
 40
1
 40
1
 10
154.432618
 20
65.416717
 30
0.0
 10
153.429283
 20
65.416717
 30
0.0
 10
152.713641
 20
66.009900
 30
0.0
 10
152.282226
 20
67.190647
 30
0.0
  0
SPLINE
  5
142
100
AcDbEntity
  8
Ebene_1
 62
7
100
AcDbSpline
 70
8
 71
3
 72
8
 73
4
 74
0
 40
0
 40
0
 40
0
 40
0
 40
1
 40
1
 40
1
 40
1
 10
152.282226
 20
67.190647
 30
0.0
 10
151.895016
 20
68.322030
 30
0.0
 10
151.705843
 20
70.323360
 30
0.0
 10
151.693356
 20
73.111545
 30
0.0
  0
LWPOLYLINE
  5
143
100
AcDbEntity
  8
Ebene_1
 62
7
100
AcDbPolyline
 90
2
 70
0
 10
161.550290
 20
73.111545
 30
0.0
 10
157.155763
 20
73.111545
 30
0.0
  0
SPLINE
  5
144
100
AcDbEntity
  8
Ebene_1
 62
7
100
AcDbSpline
 70
8
 71
3
 72
8
 73
4
 74
0
 40
0
 40
0
 40
0
 40
0
 40
1
 40
1
 40
1
 40
1
 10
151.693356
 20
73.111545
 30
0.0
 10
151.692936
 20
73.205092
 30
0.0
 10
151.683103
 20
73.259295
 30
0.0
 10
151.683103
 20
73.354710
 30
0.0
  0
SPLINE
  5
145
100
AcDbEntity
  8
Ebene_1
 62
7
100
AcDbSpline
 70
8
 71
3
 72
8
 73
4
 74
0
 40
0
 40
0
 40
0
 40
0
 40
1
 40
1
 40
1
 40
1
 10
151.683103
 20
73.354710
 30
0.0
 10
151.683103
 20
76.298032
 30
0.0
 10
151.882026
 20
78.360052
 30
0.0
 10
152.282226
 20
79.540739
 30
0.0
  0
SPLINE
  5
146
100
AcDbEntity
  8
Ebene_1
 62
7
100
AcDbSpline
 70
8
 71
3
 72
8
 73
4
 74
0
 40
0
 40
0
 40
0
 40
0
 40
1
 40
1
 40
1
 40
1
 10
152.282226
 20
79.540739
 30
0.0
 10
152.713641
 20
80.727157
 30
0.0
 10
153.429283
 20
81.314669
 30
0.0
 10
154.432618
 20
81.314669
 30
0.0
  0
SPLINE
  5
147
100
AcDbEntity
  8
Ebene_1
 62
7
100
AcDbSpline
 70
8
 71
3
 72
8
 73
4
 74
0
 40
0
 40
0
 40
0
 40
0
 40
1
 40
1
 40
1
 40
1
 10
154.432618
 20
81.314669
 30
0.0
 10
155.452978
 20
81.314669
 30
0.0
 10
156.162253
 20
80.716544
 30
0.0
 10
156.561036
 20
79.518772
 30
0.0
  0
SPLINE
  5
148
100
AcDbEntity
  8
Ebene_1
 62
7
100
AcDbSpline
 70
8
 71
3
 72
8
 73
4
 74
0
 40
0
 40
0
 40
0
 40
0
 40
1
 40
1
 40
1
 40
1
 10
156.561036
 20
79.518772
 30
0.0
 10
156.959811
 20
78.338085
 30
0.0
 10
157.160158
 20
76.237072
 30
0.0
 10
157.160158
 20
73.221405
 30
0.0
  0
SPLINE
  5
149
100
AcDbEntity
  8
Ebene_1
 62
7
100
AcDbSpline
 70
8
 71
3
 72
8
 73
4
 74
0
 40
0
 40
0
 40
0
 40
0
 40
1
 40
1
 40
1
 40
1
 10
157.160158
 20
73.221405
 30
0.0
 10
157.160158
 20
73.177987
 30
0.0
 10
157.155846
 20
73.154557
 30
0.0
 10
157.155763
 20
73.111545
 30
0.0
  0
LWPOLYLINE
  5
14a
100
AcDbEntity
  8
Ebene_1
 62
7
100
AcDbPolyline
 90
5
 70
1
 10
151.693356
 20
73.111545
 30
0.0
 10
147.187498
 20
73.111545
 30
0.0
 10
147.187498
 20
73.863007
 30
0.0
 10
147.187498
 20
73.863007
 30
0.0
 10
147.187498
 20
73.111545
 30
0.0
  0
SPLINE
  5
14b
100
AcDbEntity
  8
Ebene_1
 62
7
100
AcDbSpline
 70
8
 71
3
 72
8
 73
4
 74
0
 40
0
 40
0
 40
0
 40
0
 40
1
 40
1
 40
1
 40
1
 10
161.550290
 20
73.111545
 30
0.0
 10
161.550290
 20
75.196222
 30
0.0
 10
161.405878
 20
76.990665
 30
0.0
 10
161.106440
 20
78.499237
 30
0.0
  0
SPLINE
  5
14c
100
AcDbEntity
  8
Ebene_1
 62
7
100
AcDbSpline
 70
8
 71
3
 72
8
 73
4
 74
0
 40
0
 40
0
 40
0
 40
0
 40
1
 40
1
 40
1
 40
1
 10
161.106440
 20
78.499237
 30
0.0
 10
160.829713
 20
80.006332
 30
0.0
 10
160.391540
 20
81.260047
 30
0.0
 10
159.798335
 20
82.246304
 30
0.0
  0
SPLINE
  5
14d
100
AcDbEntity
  8
Ebene_1
 62
7
100
AcDbSpline
 70
8
 71
3
 72
8
 73
4
 74
0
 40
0
 40
0
 40
0
 40
0
 40
1
 40
1
 40
1
 40
1
 10
159.798335
 20
82.246304
 30
0.0
 10
159.210815
 20
83.238292
 30
0.0
 10
158.457688
 20
83.969497
 30
0.0
 10
157.538083
 20
84.440647
 30
0.0
  0
SPLINE
  5
14e
100
AcDbEntity
  8
Ebene_1
 62
7
100
AcDbSpline
 70
8
 71
3
 72
8
 73
4
 74
0
 40
0
 40
0
 40
0
 40
0
 40
1
 40
1
 40
1
 40
1
 10
157.538083
 20
84.440647
 30
0.0
 10
156.639771
 20
84.917797
 30
0.0
 10
155.563033
 20
85.151092
 30
0.0
 10
154.321288
 20
85.151092
 30
0.0
  0
SPLINE
  5
14f
100
AcDbEntity
  8
Ebene_1
 62
7
100
AcDbSpline
 70
8
 71
3
 72
8
 73
4
 74
0
 40
0
 40
0
 40
0
 40
0
 40
1
 40
1
 40
1
 40
1
 10
154.321288
 20
85.151092
 30
0.0
 10
149.664178
 20
85.151092
 30
0.0
 10
147.316281
 20
81.341609
 30
0.0
 10
147.187498
 20
73.863007
 30
0.0
  0
LWPOLYLINE
  5
150
100
AcDbEntity
  8
Ebene_1
 62
7
100
AcDbPolyline
 90
2
 70
0
 10
157.155763
 20
73.111545
 30
0.0
 10
161.550290
 20
73.111545
 30
0.0
  0
LWPOLYLINE
  5
151
100
AcDbEntity
  8
Ebene_1
 62
7
100
AcDbPolyline
 90
1
 70
1
 10
147.187498
 20
73.863007
 30
0.0
  0
SPLINE
  5
152
100
AcDbEntity
  8
Ebene_1
 62
7
100
AcDbSpline
 70
8
 71
3
 72
8
 73
4
 74
0
 40
0
 40
0
 40
0
 40
0
 40
1
 40
1
 40
1
 40
1
 10
295.371086
 20
94.531949
 30
0.0
 10
294.606161
 20
94.531949
 30
0.0
 10
293.918854
 20
94.253032
 30
0.0
 10
293.310056
 20
93.688199
 30
0.0
  0
SPLINE
  5
153
100
AcDbEntity
  8
Ebene_1
 62
7
100
AcDbSpline
 70
8
 71
3
 72
8
 73
4
 74
0
 40
0
 40
0
 40
0
 40
0
 40
1
 40
1
 40
1
 40
1
 10
293.310056
 20
93.688199
 30
0.0
 10
292.749416
 20
93.127649
 30
0.0
 10
292.466306
 20
92.462234
 30
0.0
 10
292.466306
 20
91.693087
 30
0.0
  0
SPLINE
  5
154
100
AcDbEntity
  8
Ebene_1
 62
7
100
AcDbSpline
 70
8
 71
3
 72
8
 73
4
 74
0
 40
0
 40
0
 40
0
 40
0
 40
1
 40
1
 40
1
 40
1
 10
292.466306
 20
91.693087
 30
0.0
 10
292.466306
 20
90.865709
 30
0.0
 10
292.743071
 20
90.178304
 30
0.0
 10
293.286619
 20
89.629117
 30
0.0
  0
SPLINE
  5
155
100
AcDbEntity
  8
Ebene_1
 62
7
100
AcDbSpline
 70
8
 71
3
 72
8
 73
4
 74
0
 40
0
 40
0
 40
0
 40
0
 40
1
 40
1
 40
1
 40
1
 10
293.286619
 20
89.629117
 30
0.0
 10
293.851421
 20
89.069872
 30
0.0
 10
294.528124
 20
88.788299
 30
0.0
 10
295.325681
 20
88.788299
 30
0.0
  0
SPLINE
  5
156
100
AcDbEntity
  8
Ebene_1
 62
7
100
AcDbSpline
 70
8
 71
3
 72
8
 73
4
 74
0
 40
0
 40
0
 40
0
 40
0
 40
1
 40
1
 40
1
 40
1
 10
295.325681
 20
88.788299
 30
0.0
 10
296.124656
 20
88.788299
 30
0.0
 10
296.805656
 20
89.069954
 30
0.0
 10
297.366206
 20
89.629117
 30
0.0
  0
SPLINE
  5
157
100
AcDbEntity
  8
Ebene_1
 62
7
100
AcDbSpline
 70
8
 71
3
 72
8
 73
4
 74
0
 40
0
 40
0
 40
0
 40
0
 40
1
 40
1
 40
1
 40
1
 10
297.366206
 20
89.629117
 30
0.0
 10
297.931099
 20
90.195344
 30
0.0
 10
298.209956
 20
90.872137
 30
0.0
 10
298.209956
 20
91.671112
 30
0.0
  0
SPLINE
  5
158
100
AcDbEntity
  8
Ebene_1
 62
7
100
AcDbSpline
 70
8
 71
3
 72
8
 73
4
 74
0
 40
0
 40
0
 40
0
 40
0
 40
1
 40
1
 40
1
 40
1
 10
298.209956
 20
91.671112
 30
0.0
 10
298.209956
 20
92.458717
 30
0.0
 10
297.931009
 20
93.127649
 30
0.0
 10
297.366206
 20
93.688199
 30
0.0
  0
SPLINE
  5
159
100
AcDbEntity
  8
Ebene_1
 62
7
100
AcDbSpline
 70
8
 71
3
 72
8
 73
4
 74
0
 40
0
 40
0
 40
0
 40
0
 40
1
 40
1
 40
1
 40
1
 10
297.366206
 20
93.688199
 30
0.0
 10
296.805656
 20
94.253122
 30
0.0
 10
296.141689
 20
94.531949
 30
0.0
 10
295.371086
 20
94.531949
 30
0.0
  0
LWPOLYLINE
  5
15a
100
AcDbEntity
  8
Ebene_1
 62
7
100
AcDbPolyline
 90
14
 70
1
 10
178.136713
 20
91.205294
 30
0.0
 10
178.136713
 20
84.774629
 30
0.0
 10
175.809080
 20
84.774629
 30
0.0
 10
175.809080
 20
81.404024
 30
0.0
 10
178.136713
 20
81.404024
 30
0.0
 10
178.136713
 20
61.824922
 30
0.0
 10
182.373043
 20
61.824922
 30
0.0
 10
182.373043
 20
71.358127
 30
0.0
 10
182.373043
 20
81.404024
 30
0.0
 10
184.678708
 20
81.404024
 30
0.0
 10
184.678708
 20
84.774629
 30
0.0
 10
182.373043
 20
84.774629
 30
0.0
 10
182.373043
 20
91.205294
 30
0.0
 10
178.136713
 20
91.205294
 30
0.0
  0
LWPOLYLINE
  5
15b
100
AcDbEntity
  8
Ebene_1
 62
7
100
AcDbPolyline
 90
1
 70
1
 10
295.371086
 20
94.531949
 30
0.0
  0
LWPOLYLINE
  5
15c
100
AcDbEntity
  8
Ebene_1
 62
7
100
AcDbPolyline
 90
5
 70
1
 10
293.301266
 20
84.774629
 30
0.0
 10
293.301266
 20
61.823460
 30
0.0
 10
297.559564
 20
61.823460
 30
0.0
 10
297.559564
 20
84.774629
 30
0.0
 10
293.301266
 20
84.774629
 30
0.0
  0
SPLINE
  5
15d
100
AcDbEntity
  8
Ebene_1
 62
7
100
AcDbSpline
 70
8
 71
3
 72
8
 73
4
 74
0
 40
0
 40
0
 40
0
 40
0
 40
1
 40
1
 40
1
 40
1
 10
311.317376
 20
72.541717
 30
0.0
 10
311.278316
 20
70.194960
 30
0.0
 10
311.096119
 20
68.338882
 30
0.0
 10
310.708001
 20
67.145235
 30
0.0
  0
SPLINE
  5
15e
100
AcDbEntity
  8
Ebene_1
 62
7
100
AcDbSpline
 70
8
 71
3
 72
8
 73
4
 74
0
 40
0
 40
0
 40
0
 40
0
 40
1
 40
1
 40
1
 40
1
 10
310.708001
 20
67.145235
 30
0.0
 10
310.280824
 20
65.903490
 30
0.0
 10
309.594934
 20
65.283420
 30
0.0
 10
308.646971
 20
65.283420
 30
0.0
  0
SPLINE
  5
15f
100
AcDbEntity
  8
Ebene_1
 62
7
100
AcDbSpline
 70
8
 71
3
 72
8
 73
4
 74
0
 40
0
 40
0
 40
0
 40
0
 40
1
 40
1
 40
1
 40
1
 10
308.646971
 20
65.283420
 30
0.0
 10
307.615241
 20
65.283420
 30
0.0
 10
306.890419
 20
65.882955
 30
0.0
 10
306.474604
 20
67.079317
 30
0.0
  0
SPLINE
  5
160
100
AcDbEntity
  8
Ebene_1
 62
7
100
AcDbSpline
 70
8
 71
3
 72
8
 73
4
 74
0
 40
0
 40
0
 40
0
 40
0
 40
1
 40
1
 40
1
 40
1
 10
306.474604
 20
67.079317
 30
0.0
 10
306.119104
 20
68.143417
 30
0.0
 10
305.948644
 20
70.042785
 30
0.0
 10
305.909179
 20
72.541717
 30
0.0
  0
LWPOLYLINE
  5
161
100
AcDbEntity
  8
Ebene_1
 62
7
100
AcDbPolyline
 90
2
 70
0
 10
315.454099
 20
72.541717
 30
0.0
 10
311.317376
 20
72.541717
 30
0.0
  0
SPLINE
  5
162
100
AcDbEntity
  8
Ebene_1
 62
7
100
AcDbSpline
 70
8
 71
3
 72
8
 73
4
 74
0
 40
0
 40
0
 40
0
 40
0
 40
1
 40
1
 40
1
 40
1
 10
301.546871
 20
72.541717
 30
0.0
 10
301.623379
 20
68.962695
 30
0.0
 10
302.011796
 20
66.162315
 30
0.0
 10
302.815429
 20
64.397190
 30
0.0
  0
SPLINE
  5
163
100
AcDbEntity
  8
Ebene_1
 62
7
100
AcDbSpline
 70
8
 71
3
 72
8
 73
4
 74
0
 40
0
 40
0
 40
0
 40
0
 40
1
 40
1
 40
1
 40
1
 10
302.815429
 20
64.397190
 30
0.0
 10
303.700969
 20
62.445817
 30
0.0
 10
305.098999
 20
61.468965
 30
0.0
 10
307.006346
 20
61.468965
 30
0.0
  0
SPLINE
  5
164
100
AcDbEntity
  8
Ebene_1
 62
7
100
AcDbSpline
 70
8
 71
3
 72
8
 73
4
 74
0
 40
0
 40
0
 40
0
 40
0
 40
1
 40
1
 40
1
 40
1
 10
307.006346
 20
61.468965
 30
0.0
 10
307.998296
 20
61.468965
 30
0.0
 10
308.795329
 20
61.706805
 30
0.0
 10
309.399896
 20
62.177947
 30
0.0
  0
SPLINE
  5
165
100
AcDbEntity
  8
Ebene_1
 62
7
100
AcDbSpline
 70
8
 71
3
 72
8
 73
4
 74
0
 40
0
 40
0
 40
0
 40
0
 40
1
 40
1
 40
1
 40
1
 10
309.399896
 20
62.177947
 30
0.0
 10
310.010111
 20
62.649097
 30
0.0
 10
310.614611
 20
63.514822
 30
0.0
 10
311.217769
 20
64.772190
 30
0.0
  0
LWPOLYLINE
  5
166
100
AcDbEntity
  8
Ebene_1
 62
7
100
AcDbPolyline
 90
2
 70
0
 10
305.909179
 20
72.541717
 30
0.0
 10
301.546871
 20
72.541717
 30
0.0
  0
SPLINE
  5
167
100
AcDbEntity
  8
Ebene_1
 62
7
100
AcDbSpline
 70
8
 71
3
 72
8
 73
4
 74
0
 40
0
 40
0
 40
0
 40
0
 40
1
 40
1
 40
1
 40
1
 10
307.006346
 20
85.151092
 30
0.0
 10
305.098999
 20
85.151092
 30
0.0
 10
303.700969
 20
84.213172
 30
0.0
 10
302.815429
 20
82.334197
 30
0.0
  0
SPLINE
  5
168
100
AcDbEntity
  8
Ebene_1
 62
7
100
AcDbSpline
 70
8
 71
3
 72
8
 73
4
 74
0
 40
0
 40
0
 40
0
 40
0
 40
1
 40
1
 40
1
 40
1
 10
302.815429
 20
82.334197
 30
0.0
 10
301.927046
 20
80.472314
 30
0.0
 10
301.483886
 20
77.550922
 30
0.0
 10
301.483886
 20
73.575900
 30
0.0
  0
SPLINE
  5
169
100
AcDbEntity
  8
Ebene_1
 62
7
100
AcDbSpline
 70
8
 71
3
 72
8
 73
4
 74
0
 40
0
 40
0
 40
0
 40
0
 40
1
 40
1
 40
1
 40
1
 10
301.483886
 20
73.575900
 30
0.0
 10
301.483886
 20
73.178257
 30
0.0
 10
301.538801
 20
72.919177
 30
0.0
 10
301.546871
 20
72.541717
 30
0.0
  0
LWPOLYLINE
  5
16a
100
AcDbEntity
  8
Ebene_1
 62
7
100
AcDbPolyline
 90
5
 70
0
 10
311.217769
 20
64.772190
 30
0.0
 10
311.217769
 20
61.823460
 30
0.0
 10
315.454099
 20
61.823460
 30
0.0
 10
315.454099
 20
72.541717
 30
0.0
 10
315.454099
 20
72.541717
 30
0.0
  0
SPLINE
  5
16b
100
AcDbEntity
  8
Ebene_1
 62
7
100
AcDbSpline
 70
8
 71
3
 72
8
 73
4
 74
0
 40
0
 40
0
 40
0
 40
0
 40
1
 40
1
 40
1
 40
1
 10
305.909179
 20
72.541717
 30
0.0
 10
305.904221
 20
72.855495
 30
0.0
 10
305.875481
 20
73.062232
 30
0.0
 10
305.875481
 20
73.398652
 30
0.0
  0
SPLINE
  5
16c
100
AcDbEntity
  8
Ebene_1
 62
7
100
AcDbSpline
 70
8
 71
3
 72
8
 73
4
 74
0
 40
0
 40
0
 40
0
 40
0
 40
1
 40
1
 40
1
 40
1
 10
305.875481
 20
73.398652
 30
0.0
 10
305.875481
 20
76.398697
 30
0.0
 10
306.084994
 20
78.449482
 30
0.0
 10
306.495116
 20
79.542209
 30
0.0
  0
SPLINE
  5
16d
100
AcDbEntity
  8
Ebene_1
 62
7
100
AcDbSpline
 70
8
 71
3
 72
8
 73
4
 74
0
 40
0
 40
0
 40
0
 40
0
 40
1
 40
1
 40
1
 40
1
 10
306.495116
 20
79.542209
 30
0.0
 10
306.927964
 20
80.722949
 30
0.0
 10
307.643621
 20
81.316132
 30
0.0
 10
308.646971
 20
81.316132
 30
0.0
  0
SPLINE
  5
16e
100
AcDbEntity
  8
Ebene_1
 62
7
100
AcDbSpline
 70
8
 71
3
 72
8
 73
4
 74
0
 40
0
 40
0
 40
0
 40
0
 40
1
 40
1
 40
1
 40
1
 10
308.646971
 20
81.316132
 30
0.0
 10
309.594934
 20
81.316132
 30
0.0
 10
310.280824
 20
80.694614
 30
0.0
 10
310.708001
 20
79.452855
 30
0.0
  0
SPLINE
  5
16f
100
AcDbEntity
  8
Ebene_1
 62
7
100
AcDbSpline
 70
8
 71
3
 72
8
 73
4
 74
0
 40
0
 40
0
 40
0
 40
0
 40
1
 40
1
 40
1
 40
1
 10
310.708001
 20
79.452855
 30
0.0
 10
311.140826
 20
78.123150
 30
0.0
 10
311.351074
 20
76.064542
 30
0.0
 10
311.351074
 20
73.287322
 30
0.0
  0
SPLINE
  5
170
100
AcDbEntity
  8
Ebene_1
 62
7
100
AcDbSpline
 70
8
 71
3
 72
8
 73
4
 74
0
 40
0
 40
0
 40
0
 40
0
 40
1
 40
1
 40
1
 40
1
 10
311.351074
 20
73.287322
 30
0.0
 10
311.351074
 20
73.001625
 30
0.0
 10
311.321876
 20
72.812040
 30
0.0
 10
311.317376
 20
72.541717
 30
0.0
  0
LWPOLYLINE
  5
171
100
AcDbEntity
  8
Ebene_1
 62
7
100
AcDbPolyline
 90
2
 70
0
 10
301.546871
 20
72.541717
 30
0.0
 10
305.909179
 20
72.541717
 30
0.0
  0
SPLINE
  5
172
100
AcDbEntity
  8
Ebene_1
 62
7
100
AcDbSpline
 70
8
 71
3
 72
8
 73
4
 74
0
 40
0
 40
0
 40
0
 40
0
 40
1
 40
1
 40
1
 40
1
 10
311.217769
 20
82.180387
 30
0.0
 10
310.153414
 20
84.158692
 30
0.0
 10
308.751859
 20
85.151092
 30
0.0
 10
307.006346
 20
85.151092
 30
0.0
  0
LWPOLYLINE
  5
173
100
AcDbEntity
  8
Ebene_1
 62
7
100
AcDbPolyline
 90
5
 70
0
 10
311.317376
 20
72.541717
 30
0.0
 10
315.454099
 20
72.541717
 30
0.0
 10
315.454099
 20
84.774629
 30
0.0
 10
311.217769
 20
84.774629
 30
0.0
 10
311.217769
 20
82.180387
 30
0.0
  0
SPLINE
  5
174
100
AcDbEntity
  8
Ebene_1
 62
7
100
AcDbSpline
 70
8
 71
3
 72
8
 73
4
 74
0
 40
0
 40
0
 40
0
 40
0
 40
1
 40
1
 40
1
 40
1
 10
239.752437
 20
85.151092
 30
0.0
 10
237.818150
 20
85.151092
 30
0.0
 10
236.265072
 20
84.081472
 30
0.0
 10
235.095702
 20
81.935759
 30
0.0
  0
LWPOLYLINE
  5
175
100
AcDbEntity
  8
Ebene_1
 62
7
100
AcDbPolyline
 90
1
 70
1
 10
307.006346
 20
85.151092
 30
0.0
  0
SPLINE
  5
176
100
AcDbEntity
  8
Ebene_1
 62
7
100
AcDbSpline
 70
8
 71
3
 72
8
 73
4
 74
0
 40
0
 40
0
 40
0
 40
0
 40
1
 40
1
 40
1
 40
1
 10
235.095702
 20
76.924530
 30
0.0
 10
235.095702
 20
78.521085
 30
0.0
 10
235.305200
 20
79.652954
 30
0.0
 10
235.715330
 20
80.317109
 30
0.0
  0
SPLINE
  5
177
100
AcDbEntity
  8
Ebene_1
 62
7
100
AcDbSpline
 70
8
 71
3
 72
8
 73
4
 74
0
 40
0
 40
0
 40
0
 40
0
 40
1
 40
1
 40
1
 40
1
 10
235.715330
 20
80.317109
 30
0.0
 10
236.131137
 20
80.982742
 30
0.0
 10
236.824850
 20
81.316132
 30
0.0
 10
237.799805
 20
81.316132
 30
0.0
  0
SPLINE
  5
178
100
AcDbEntity
  8
Ebene_1
 62
7
100
AcDbSpline
 70
8
 71
3
 72
8
 73
4
 74
0
 40
0
 40
0
 40
0
 40
0
 40
1
 40
1
 40
1
 40
1
 10
237.799805
 20
81.316132
 30
0.0
 10
238.259600
 20
81.316132
 30
0.0
 10
238.643307
 20
81.231944
 30
0.0
 10
238.954099
 20
81.071504
 30
0.0
  0
SPLINE
  5
179
100
AcDbEntity
  8
Ebene_1
 62
7
100
AcDbSpline
 70
8
 71
3
 72
8
 73
4
 74
0
 40
0
 40
0
 40
0
 40
0
 40
1
 40
1
 40
1
 40
1
 10
238.954099
 20
81.071504
 30
0.0
 10
239.263467
 20
80.921099
 30
0.0
 10
239.519734
 20
80.676772
 30
0.0
 10
239.708494
 20
80.339084
 30
0.0
  0
SPLINE
  5
17a
100
AcDbEntity
  8
Ebene_1
 62
7
100
AcDbSpline
 70
8
 71
3
 72
8
 73
4
 74
0
 40
0
 40
0
 40
0
 40
0
 40
1
 40
1
 40
1
 40
1
 10
239.708494
 20
80.339084
 30
0.0
 10
239.901454
 20
80.001307
 30
0.0
 10
240.034534
 20
79.546192
 30
0.0
 10
240.106932
 20
78.987030
 30
0.0
  0
SPLINE
  5
17b
100
AcDbEntity
  8
Ebene_1
 62
7
100
AcDbSpline
 70
8
 71
3
 72
8
 73
4
 74
0
 40
0
 40
0
 40
0
 40
0
 40
1
 40
1
 40
1
 40
1
 10
240.106932
 20
78.987030
 30
0.0
 10
240.194914
 20
78.426510
 30
0.0
 10
240.240229
 20
77.739120
 30
0.0
 10
240.240229
 20
76.924530
 30
0.0
  0
LWPOLYLINE
  5
17c
100
AcDbEntity
  8
Ebene_1
 62
7
100
AcDbPolyline
 90
6
 70
0
 10
235.095702
 20
81.935759
 30
0.0
 10
235.095702
 20
84.774629
 30
0.0
 10
230.859372
 20
84.774629
 30
0.0
 10
230.859372
 20
61.823460
 30
0.0
 10
235.095702
 20
61.823460
 30
0.0
 10
235.095702
 20
76.924530
 30
0.0
  0
SPLINE
  5
17d
100
AcDbEntity
  8
Ebene_1
 62
7
100
AcDbSpline
 70
8
 71
3
 72
8
 73
4
 74
0
 40
0
 40
0
 40
0
 40
0
 40
1
 40
1
 40
1
 40
1
 10
244.630369
 20
76.924530
 30
0.0
 10
244.630369
 20
78.626115
 30
0.0
 10
244.807332
 20
79.778452
 30
0.0
 10
245.162104
 20
80.383027
 30
0.0
  0
SPLINE
  5
17e
100
AcDbEntity
  8
Ebene_1
 62
7
100
AcDbSpline
 70
8
 71
3
 72
8
 73
4
 74
0
 40
0
 40
0
 40
0
 40
0
 40
1
 40
1
 40
1
 40
1
 10
245.162104
 20
80.383027
 30
0.0
 10
245.533924
 20
81.004724
 30
0.0
 10
246.226219
 20
81.316132
 30
0.0
 10
247.246579
 20
81.316132
 30
0.0
  0
SPLINE
  5
17f
100
AcDbEntity
  8
Ebene_1
 62
7
100
AcDbSpline
 70
8
 71
3
 72
8
 73
4
 74
0
 40
0
 40
0
 40
0
 40
0
 40
1
 40
1
 40
1
 40
1
 10
247.246579
 20
81.316132
 30
0.0
 10
248.150569
 20
81.316132
 30
0.0
 10
248.755077
 20
81.011039
 30
0.0
 10
249.064452
 20
80.406464
 30
0.0
  0
SPLINE
  5
180
100
AcDbEntity
  8
Ebene_1
 62
7
100
AcDbSpline
 70
8
 71
3
 72
8
 73
4
 74
0
 40
0
 40
0
 40
0
 40
0
 40
1
 40
1
 40
1
 40
1
 10
249.064452
 20
80.406464
 30
0.0
 10
249.392277
 20
79.813289
 30
0.0
 10
249.552244
 20
78.654457
 30
0.0
 10
249.552244
 20
76.924530
 30
0.0
  0
LWPOLYLINE
  5
181
100
AcDbEntity
  8
Ebene_1
 62
7
100
AcDbPolyline
 90
4
 70
0
 10
240.240229
 20
76.924530
 30
0.0
 10
240.240229
 20
61.823460
 30
0.0
 10
244.630369
 20
61.823460
 30
0.0
 10
244.630369
 20
76.924530
 30
0.0
  0
SPLINE
  5
182
100
AcDbEntity
  8
Ebene_1
 62
7
100
AcDbSpline
 70
8
 71
3
 72
8
 73
4
 74
0
 40
0
 40
0
 40
0
 40
0
 40
1
 40
1
 40
1
 40
1
 10
253.809079
 20
80.117887
 30
0.0
 10
253.809079
 20
81.775477
 30
0.0
 10
253.382989
 20
83.023409
 30
0.0
 10
252.524412
 20
83.864962
 30
0.0
  0
SPLINE
  5
183
100
AcDbEntity
  8
Ebene_1
 62
7
100
AcDbSpline
 70
8
 71
3
 72
8
 73
4
 74
0
 40
0
 40
0
 40
0
 40
0
 40
1
 40
1
 40
1
 40
1
 10
252.524412
 20
83.864962
 30
0.0
 10
251.681442
 20
84.725159
 30
0.0
 10
250.456819
 20
85.151092
 30
0.0
 10
248.843262
 20
85.151092
 30
0.0
  0
SPLINE
  5
184
100
AcDbEntity
  8
Ebene_1
 62
7
100
AcDbSpline
 70
8
 71
3
 72
8
 73
4
 74
0
 40
0
 40
0
 40
0
 40
0
 40
1
 40
1
 40
1
 40
1
 10
248.843262
 20
85.151092
 30
0.0
 10
246.775572
 20
85.151092
 30
0.0
 10
245.178597
 20
84.081472
 30
0.0
 10
244.053222
 20
81.935759
 30
0.0
  0
SPLINE
  5
185
100
AcDbEntity
  8
Ebene_1
 62
7
100
AcDbSpline
 70
8
 71
3
 72
8
 73
4
 74
0
 40
0
 40
0
 40
0
 40
0
 40
1
 40
1
 40
1
 40
1
 10
244.053222
 20
81.935759
 30
0.0
 10
243.299659
 20
84.081472
 30
0.0
 10
241.869792
 20
85.151092
 30
0.0
 10
239.752437
 20
85.151092
 30
0.0
  0
LWPOLYLINE
  5
186
100
AcDbEntity
  8
Ebene_1
 62
7
100
AcDbPolyline
 90
4
 70
0
 10
249.552244
 20
76.924530
 30
0.0
 10
249.552244
 20
61.823460
 30
0.0
 10
253.809079
 20
61.823460
 30
0.0
 10
253.809079
 20
80.117887
 30
0.0
  0
SPLINE
  5
187
100
AcDbEntity
  8
Ebene_1
 62
7
100
AcDbSpline
 70
8
 71
3
 72
8
 73
4
 74
0
 40
0
 40
0
 40
0
 40
0
 40
1
 40
1
 40
1
 40
1
 10
258.096679
 20
77.466525
 30
0.0
 10
257.915427
 20
76.179247
 30
0.0
 10
257.758294
 20
74.847780
 30
0.0
 10
257.758294
 20
73.221405
 30
0.0
  0
SPLINE
  5
188
100
AcDbEntity
  8
Ebene_1
 62
7
100
AcDbSpline
 70
8
 71
3
 72
8
 73
4
 74
0
 40
0
 40
0
 40
0
 40
0
 40
1
 40
1
 40
1
 40
1
 10
257.758294
 20
73.221405
 30
0.0
 10
257.758294
 20
71.182080
 30
0.0
 10
257.889942
 20
69.425175
 30
0.0
 10
258.156732
 20
67.945035
 30
0.0
  0
SPLINE
  5
189
100
AcDbEntity
  8
Ebene_1
 62
7
100
AcDbSpline
 70
8
 71
3
 72
8
 73
4
 74
0
 40
0
 40
0
 40
0
 40
0
 40
1
 40
1
 40
1
 40
1
 10
258.156732
 20
67.945035
 30
0.0
 10
258.439144
 20
66.464872
 30
0.0
 10
258.866697
 20
65.243745
 30
0.0
 10
259.442869
 20
64.285860
 30
0.0
  0
SPLINE
  5
18a
100
AcDbEntity
  8
Ebene_1
 62
7
100
AcDbSpline
 70
8
 71
3
 72
8
 73
4
 74
0
 40
0
 40
0
 40
0
 40
0
 40
1
 40
1
 40
1
 40
1
 10
259.442869
 20
64.285860
 30
0.0
 10
260.019034
 20
63.326527
 30
0.0
 10
260.745297
 20
62.617222
 30
0.0
 10
261.615229
 20
62.157442
 30
0.0
  0
SPLINE
  5
18b
100
AcDbEntity
  8
Ebene_1
 62
7
100
AcDbSpline
 70
8
 71
3
 72
8
 73
4
 74
0
 40
0
 40
0
 40
0
 40
0
 40
1
 40
1
 40
1
 40
1
 10
261.615229
 20
62.157442
 30
0.0
 10
262.502194
 20
61.696185
 30
0.0
 10
263.560482
 20
61.468965
 30
0.0
 10
264.786619
 20
61.468965
 30
0.0
  0
SPLINE
  5
18c
100
AcDbEntity
  8
Ebene_1
 62
7
100
AcDbSpline
 70
8
 71
3
 72
8
 73
4
 74
0
 40
0
 40
0
 40
0
 40
0
 40
1
 40
1
 40
1
 40
1
 10
264.786619
 20
61.468965
 30
0.0
 10
268.910637
 20
61.468965
 30
0.0
 10
271.127682
 20
64.168065
 30
0.0
 10
271.438474
 20
69.562230
 30
0.0
  0
LWPOLYLINE
  5
18d
100
AcDbEntity
  8
Ebene_1
 62
7
100
AcDbPolyline
 90
1
 70
1
 10
239.752437
 20
85.151092
 30
0.0
  0
SPLINE
  5
18e
100
AcDbEntity
  8
Ebene_1
 62
7
100
AcDbSpline
 70
8
 71
3
 72
8
 73
4
 74
0
 40
0
 40
0
 40
0
 40
0
 40
1
 40
1
 40
1
 40
1
 10
267.492184
 20
69.562230
 30
0.0
 10
267.492184
 20
66.591967
 30
0.0
 10
266.604484
 20
65.106172
 30
0.0
 10
264.830562
 20
65.106172
 30
0.0
  0
SPLINE
  5
18f
100
AcDbEntity
  8
Ebene_1
 62
7
100
AcDbSpline
 70
8
 71
3
 72
8
 73
4
 74
0
 40
0
 40
0
 40
0
 40
0
 40
1
 40
1
 40
1
 40
1
 10
264.830562
 20
65.106172
 30
0.0
 10
262.879249
 20
65.106172
 30
0.0
 10
261.903807
 20
67.561065
 30
0.0
 10
261.903807
 20
72.467010
 30
0.0
  0
LWPOLYLINE
  5
190
100
AcDbEntity
  8
Ebene_1
 62
7
100
AcDbPolyline
 90
2
 70
0
 10
271.438474
 20
69.562230
 30
0.0
 10
267.492184
 20
69.562230
 30
0.0
  0
SPLINE
  5
191
100
AcDbEntity
  8
Ebene_1
 62
7
100
AcDbSpline
 70
8
 71
3
 72
8
 73
4
 74
0
 40
0
 40
0
 40
0
 40
0
 40
1
 40
1
 40
1
 40
1
 10
271.593747
 20
73.000215
 30
0.0
 10
271.593747
 20
74.701837
 30
0.0
 10
271.434724
 20
76.122172
 30
0.0
 10
271.231932
 20
77.466525
 30
0.0
  0
LWPOLYLINE
  5
192
100
AcDbEntity
  8
Ebene_1
 62
7
100
AcDbPolyline
 90
3
 70
0
 10
261.903807
 20
72.467010
 30
0.0
 10
271.593747
 20
72.467010
 30
0.0
 10
271.593747
 20
73.000215
 30
0.0
  0
SPLINE
  5
193
100
AcDbEntity
  8
Ebene_1
 62
7
100
AcDbSpline
 70
8
 71
3
 72
8
 73
4
 74
0
 40
0
 40
0
 40
0
 40
0
 40
1
 40
1
 40
1
 40
1
 10
266.935542
 20
77.466525
 30
0.0
 10
267.040077
 20
76.758405
 30
0.0
 10
267.198507
 20
76.512900
 30
0.0
 10
267.270994
 20
75.527070
 30
0.0
  0
LWPOLYLINE
  5
194
100
AcDbEntity
  8
Ebene_1
 62
7
100
AcDbPolyline
 90
2
 70
0
 10
271.231932
 20
77.466525
 30
0.0
 10
266.935542
 20
77.466525
 30
0.0
  0
SPLINE
  5
195
100
AcDbEntity
  8
Ebene_1
 62
7
100
AcDbSpline
 70
8
 71
3
 72
8
 73
4
 74
0
 40
0
 40
0
 40
0
 40
0
 40
1
 40
1
 40
1
 40
1
 10
261.903807
 20
75.527070
 30
0.0
 10
261.976294
 20
76.512952
 30
0.0
 10
262.133982
 20
76.758382
 30
0.0
 10
262.239252
 20
77.466525
 30
0.0
  0
LWPOLYLINE
  5
196
100
AcDbEntity
  8
Ebene_1
 62
7
100
AcDbPolyline
 90
2
 70
0
 10
267.270994
 20
75.527070
 30
0.0
 10
261.903807
 20
75.527070
 30
0.0
  0
SPLINE
  5
197
100
AcDbEntity
  8
Ebene_1
 62
7
100
AcDbSpline
 70
8
 71
3
 72
8
 73
4
 74
0
 40
0
 40
0
 40
0
 40
0
 40
1
 40
1
 40
1
 40
1
 10
262.239252
 20
77.466525
 30
0.0
 10
262.391592
 20
78.491257
 30
0.0
 10
262.507594
 20
79.827562
 30
0.0
 10
262.724119
 20
80.273159
 30
0.0
  0
SPLINE
  5
198
100
AcDbEntity
  8
Ebene_1
 62
7
100
AcDbSpline
 70
8
 71
3
 72
8
 73
4
 74
0
 40
0
 40
0
 40
0
 40
0
 40
1
 40
1
 40
1
 40
1
 10
262.724119
 20
80.273159
 30
0.0
 10
263.094507
 20
81.116242
 30
0.0
 10
263.717464
 20
81.537322
 30
0.0
 10
264.587397
 20
81.537322
 30
0.0
  0
SPLINE
  5
199
100
AcDbEntity
  8
Ebene_1
 62
7
100
AcDbSpline
 70
8
 71
3
 72
8
 73
4
 74
0
 40
0
 40
0
 40
0
 40
0
 40
1
 40
1
 40
1
 40
1
 10
264.587397
 20
81.537322
 30
0.0
 10
265.445974
 20
81.537322
 30
0.0
 10
266.067454
 20
81.116159
 30
0.0
 10
266.449212
 20
80.273159
 30
0.0
  0
SPLINE
  5
19a
100
AcDbEntity
  8
Ebene_1
 62
7
100
AcDbSpline
 70
8
 71
3
 72
8
 73
4
 74
0
 40
0
 40
0
 40
0
 40
0
 40
1
 40
1
 40
1
 40
1
 10
266.449212
 20
80.273159
 30
0.0
 10
266.669097
 20
79.827547
 30
0.0
 10
266.784267
 20
78.491317
 30
0.0
 10
266.935542
 20
77.466525
 30
0.0
  0
LWPOLYLINE
  5
19b
100
AcDbEntity
  8
Ebene_1
 62
7
100
AcDbPolyline
 90
3
 70
1
 10
262.239252
 20
77.466525
 30
0.0
 10
258.096679
 20
77.466525
 30
0.0
 10
258.096679
 20
77.466525
 30
0.0
  0
SPLINE
  5
19c
100
AcDbEntity
  8
Ebene_1
 62
7
100
AcDbSpline
 70
8
 71
3
 72
8
 73
4
 74
0
 40
0
 40
0
 40
0
 40
0
 40
1
 40
1
 40
1
 40
1
 10
271.231932
 20
77.466525
 30
0.0
 10
270.469497
 20
82.520752
 30
0.0
 10
268.331464
 20
85.151092
 30
0.0
 10
264.697264
 20
85.151092
 30
0.0
  0
SPLINE
  5
19d
100
AcDbEntity
  8
Ebene_1
 62
7
100
AcDbSpline
 70
8
 71
3
 72
8
 73
4
 74
0
 40
0
 40
0
 40
0
 40
0
 40
1
 40
1
 40
1
 40
1
 10
264.697264
 20
85.151092
 30
0.0
 10
262.335822
 20
85.151092
 30
0.0
 10
260.585277
 20
84.175619
 30
0.0
 10
259.442869
 20
82.224337
 30
0.0
  0
SPLINE
  5
19e
100
AcDbEntity
  8
Ebene_1
 62
7
100
AcDbSpline
 70
8
 71
3
 72
8
 73
4
 74
0
 40
0
 40
0
 40
0
 40
0
 40
1
 40
1
 40
1
 40
1
 10
259.442869
 20
82.224337
 30
0.0
 10
258.772474
 20
81.056009
 30
0.0
 10
258.367114
 20
79.387230
 30
0.0
 10
258.096679
 20
77.466525
 30
0.0
  0
LWPOLYLINE
  5
19f
100
AcDbEntity
  8
Ebene_1
 62
7
100
AcDbPolyline
 90
2
 70
0
 10
266.935542
 20
77.466525
 30
0.0
 10
271.231932
 20
77.466525
 30
0.0
  0
LWPOLYLINE
  5
1a0
100
AcDbEntity
  8
Ebene_1
 62
7
100
AcDbPolyline
 90
1
 70
1
 10
258.096679
 20
77.466525
 30
0.0
  0
SPLINE
  5
1a1
100
AcDbEntity
  8
Ebene_1
 62
7
100
AcDbSpline
 70
8
 71
3
 72
8
 73
4
 74
0
 40
0
 40
0
 40
0
 40
0
 40
1
 40
1
 40
1
 40
1
 10
284.351074
 20
72.467010
 30
0.0
 10
284.308579
 20
70.160542
 30
0.0
 10
284.128264
 20
68.325112
 30
0.0
 10
283.744624
 20
67.145235
 30
0.0
  0
SPLINE
  5
1a2
100
AcDbEntity
  8
Ebene_1
 62
7
100
AcDbSpline
 70
8
 71
3
 72
8
 73
4
 74
0
 40
0
 40
0
 40
0
 40
0
 40
1
 40
1
 40
1
 40
1
 10
283.744624
 20
67.145235
 30
0.0
 10
283.317446
 20
65.903490
 30
0.0
 10
282.631579
 20
65.283420
 30
0.0
 10
281.683586
 20
65.283420
 30
0.0
  0
SPLINE
  5
1a3
100
AcDbEntity
  8
Ebene_1
 62
7
100
AcDbSpline
 70
8
 71
3
 72
8
 73
4
 74
0
 40
0
 40
0
 40
0
 40
0
 40
1
 40
1
 40
1
 40
1
 10
281.683586
 20
65.283420
 30
0.0
 10
280.651901
 20
65.283420
 30
0.0
 10
279.925579
 20
65.882955
 30
0.0
 10
279.509764
 20
67.079317
 30
0.0
  0
SPLINE
  5
1a4
100
AcDbEntity
  8
Ebene_1
 62
7
100
AcDbSpline
 70
8
 71
3
 72
8
 73
4
 74
0
 40
0
 40
0
 40
0
 40
0
 40
1
 40
1
 40
1
 40
1
 10
279.509764
 20
67.079317
 30
0.0
 10
279.158126
 20
68.131770
 30
0.0
 10
278.990891
 20
70.010977
 30
0.0
 10
278.948726
 20
72.467010
 30
0.0
  0
LWPOLYLINE
  5
1a5
100
AcDbEntity
  8
Ebene_1
 62
7
100
AcDbPolyline
 90
2
 70
0
 10
288.490721
 20
72.467010
 30
0.0
 10
284.351074
 20
72.467010
 30
0.0
  0
SPLINE
  5
1a6
100
AcDbEntity
  8
Ebene_1
 62
7
100
AcDbSpline
 70
8
 71
3
 72
8
 73
4
 74
0
 40
0
 40
0
 40
0
 40
0
 40
1
 40
1
 40
1
 40
1
 10
274.587889
 20
72.467010
 30
0.0
 10
274.667854
 20
68.915782
 30
0.0
 10
275.052732
 20
66.129450
 30
0.0
 10
275.852044
 20
64.373752
 30
0.0
  0
SPLINE
  5
1a7
100
AcDbEntity
  8
Ebene_1
 62
7
100
AcDbSpline
 70
8
 71
3
 72
8
 73
4
 74
0
 40
0
 40
0
 40
0
 40
0
 40
1
 40
1
 40
1
 40
1
 10
275.852044
 20
64.373752
 30
0.0
 10
276.737592
 20
62.439442
 30
0.0
 10
278.129217
 20
61.468965
 30
0.0
 10
280.019531
 20
61.468965
 30
0.0
  0
SPLINE
  5
1a8
100
AcDbEntity
  8
Ebene_1
 62
7
100
AcDbSpline
 70
8
 71
3
 72
8
 73
4
 74
0
 40
0
 40
0
 40
0
 40
0
 40
1
 40
1
 40
1
 40
1
 10
280.019531
 20
61.468965
 30
0.0
 10
281.028514
 20
61.468965
 30
0.0
 10
281.831944
 20
61.706805
 30
0.0
 10
282.436519
 20
62.177947
 30
0.0
  0
SPLINE
  5
1a9
100
AcDbEntity
  8
Ebene_1
 62
7
100
AcDbSpline
 70
8
 71
3
 72
8
 73
4
 74
0
 40
0
 40
0
 40
0
 40
0
 40
1
 40
1
 40
1
 40
1
 10
282.436519
 20
62.177947
 30
0.0
 10
283.046734
 20
62.649097
 30
0.0
 10
283.651264
 20
63.514792
 30
0.0
 10
284.254391
 20
64.772190
 30
0.0
  0
LWPOLYLINE
  5
1aa
100
AcDbEntity
  8
Ebene_1
 62
7
100
AcDbPolyline
 90
2
 70
0
 10
278.948726
 20
72.467010
 30
0.0
 10
274.587889
 20
72.467010
 30
0.0
  0
LWPOLYLINE
  5
1ab
100
AcDbEntity
  8
Ebene_1
 62
7
100
AcDbPolyline
 90
5
 70
0
 10
284.254391
 20
64.772190
 30
0.0
 10
284.254391
 20
61.823460
 30
0.0
 10
288.490721
 20
61.823460
 30
0.0
 10
288.490721
 20
72.467010
 30
0.0
 10
288.490721
 20
72.467010
 30
0.0
  0
SPLINE
  5
1ac
100
AcDbEntity
  8
Ebene_1
 62
7
100
AcDbSpline
 70
8
 71
3
 72
8
 73
4
 74
0
 40
0
 40
0
 40
0
 40
0
 40
1
 40
1
 40
1
 40
1
 10
284.254391
 20
82.180387
 30
0.0
 10
283.960609
 20
82.739527
 30
0.0
 10
283.656979
 20
83.215169
 30
0.0
 10
283.346186
 20
83.598359
 30
0.0
  0
SPLINE
  5
1ad
100
AcDbEntity
  8
Ebene_1
 62
7
100
AcDbSpline
 70
8
 71
3
 72
8
 73
4
 74
0
 40
0
 40
0
 40
0
 40
0
 40
1
 40
1
 40
1
 40
1
 10
283.346186
 20
83.598359
 30
0.0
 10
283.035371
 20
83.980132
 30
0.0
 10
282.735911
 20
84.279974
 30
0.0
 10
282.436519
 20
84.486052
 30
0.0
  0
SPLINE
  5
1ae
100
AcDbEntity
  8
Ebene_1
 62
7
100
AcDbSpline
 70
8
 71
3
 72
8
 73
4
 74
0
 40
0
 40
0
 40
0
 40
0
 40
1
 40
1
 40
1
 40
1
 10
282.436519
 20
84.486052
 30
0.0
 10
281.831944
 20
84.928799
 30
0.0
 10
281.061806
 20
85.151092
 30
0.0
 10
280.130854
 20
85.151092
 30
0.0
  0
SPLINE
  5
1af
100
AcDbEntity
  8
Ebene_1
 62
7
100
AcDbSpline
 70
8
 71
3
 72
8
 73
4
 74
0
 40
0
 40
0
 40
0
 40
0
 40
1
 40
1
 40
1
 40
1
 10
280.130854
 20
85.151092
 30
0.0
 10
279.155906
 20
85.151092
 30
0.0
 10
278.312104
 20
84.922394
 30
0.0
 10
277.602537
 20
84.462614
 30
0.0
  0
SPLINE
  5
1b0
100
AcDbEntity
  8
Ebene_1
 62
7
100
AcDbSpline
 70
8
 71
3
 72
8
 73
4
 74
0
 40
0
 40
0
 40
0
 40
0
 40
1
 40
1
 40
1
 40
1
 10
277.602537
 20
84.462614
 30
0.0
 10
276.892969
 20
84.019814
 30
0.0
 10
276.311854
 20
83.326154
 30
0.0
 10
275.852044
 20
82.379609
 30
0.0
  0
SPLINE
  5
1b1
100
AcDbEntity
  8
Ebene_1
 62
7
100
AcDbSpline
 70
8
 71
3
 72
8
 73
4
 74
0
 40
0
 40
0
 40
0
 40
0
 40
1
 40
1
 40
1
 40
1
 10
275.852044
 20
82.379609
 30
0.0
 10
275.407857
 20
81.431617
 30
0.0
 10
275.075802
 20
80.228969
 30
0.0
 10
274.853022
 20
78.765840
 30
0.0
  0
SPLINE
  5
1b2
100
AcDbEntity
  8
Ebene_1
 62
7
100
AcDbSpline
 70
8
 71
3
 72
8
 73
4
 74
0
 40
0
 40
0
 40
0
 40
0
 40
1
 40
1
 40
1
 40
1
 10
274.853022
 20
78.765840
 30
0.0
 10
274.631667
 20
77.301292
 30
0.0
 10
274.520502
 20
75.566272
 30
0.0
 10
274.520502
 20
73.553925
 30
0.0
  0
SPLINE
  5
1b3
100
AcDbEntity
  8
Ebene_1
 62
7
100
AcDbSpline
 70
8
 71
3
 72
8
 73
4
 74
0
 40
0
 40
0
 40
0
 40
0
 40
1
 40
1
 40
1
 40
1
 10
274.520502
 20
73.553925
 30
0.0
 10
274.520502
 20
73.135950
 30
0.0
 10
274.578979
 20
72.862680
 30
0.0
 10
274.587889
 20
72.467010
 30
0.0
  0
LWPOLYLINE
  5
1b4
100
AcDbEntity
  8
Ebene_1
 62
7
100
AcDbPolyline
 90
2
 70
0
 10
284.254391
 20
99.497774
 30
0.0
 10
284.254391
 20
82.180387
 30
0.0
  0
SPLINE
  5
1b5
100
AcDbEntity
  8
Ebene_1
 62
7
100
AcDbSpline
 70
8
 71
3
 72
8
 73
4
 74
0
 40
0
 40
0
 40
0
 40
0
 40
1
 40
1
 40
1
 40
1
 10
278.948726
 20
72.467010
 30
0.0
 10
278.942906
 20
72.806002
 30
0.0
 10
278.912104
 20
73.032900
 30
0.0
 10
278.912104
 20
73.398652
 30
0.0
  0
SPLINE
  5
1b6
100
AcDbEntity
  8
Ebene_1
 62
7
100
AcDbSpline
 70
8
 71
3
 72
8
 73
4
 74
0
 40
0
 40
0
 40
0
 40
0
 40
1
 40
1
 40
1
 40
1
 10
278.912104
 20
73.398652
 30
0.0
 10
278.912104
 20
76.398697
 30
0.0
 10
279.121616
 20
78.449482
 30
0.0
 10
279.531731
 20
79.542209
 30
0.0
  0
SPLINE
  5
1b7
100
AcDbEntity
  8
Ebene_1
 62
7
100
AcDbSpline
 70
8
 71
3
 72
8
 73
4
 74
0
 40
0
 40
0
 40
0
 40
0
 40
1
 40
1
 40
1
 40
1
 10
279.531731
 20
79.542209
 30
0.0
 10
279.964586
 20
80.722949
 30
0.0
 10
280.680274
 20
81.316132
 30
0.0
 10
281.683586
 20
81.316132
 30
0.0
  0
SPLINE
  5
1b8
100
AcDbEntity
  8
Ebene_1
 62
7
100
AcDbSpline
 70
8
 71
3
 72
8
 73
4
 74
0
 40
0
 40
0
 40
0
 40
0
 40
1
 40
1
 40
1
 40
1
 10
281.683586
 20
81.316132
 30
0.0
 10
282.631579
 20
81.316132
 30
0.0
 10
283.317446
 20
80.694614
 30
0.0
 10
283.744624
 20
79.452855
 30
0.0
  0
SPLINE
  5
1b9
100
AcDbEntity
  8
Ebene_1
 62
7
100
AcDbSpline
 70
8
 71
3
 72
8
 73
4
 74
0
 40
0
 40
0
 40
0
 40
0
 40
1
 40
1
 40
1
 40
1
 10
283.744624
 20
79.452855
 30
0.0
 10
284.177449
 20
78.123150
 30
0.0
 10
284.387689
 20
76.064542
 30
0.0
 10
284.387689
 20
73.287322
 30
0.0
  0
SPLINE
  5
1ba
100
AcDbEntity
  8
Ebene_1
 62
7
100
AcDbSpline
 70
8
 71
3
 72
8
 73
4
 74
0
 40
0
 40
0
 40
0
 40
0
 40
1
 40
1
 40
1
 40
1
 10
284.387689
 20
73.287322
 30
0.0
 10
284.387689
 20
72.973005
 30
0.0
 10
284.356519
 20
72.762720
 30
0.0
 10
284.351074
 20
72.467010
 30
0.0
  0
LWPOLYLINE
  5
1bb
100
AcDbEntity
  8
Ebene_1
 62
7
100
AcDbPolyline
 90
2
 70
0
 10
274.587889
 20
72.467010
 30
0.0
 10
278.948726
 20
72.467010
 30
0.0
  0
SPLINE
  5
1bc
100
AcDbEntity
  8
Ebene_1
 62
7
100
AcDbSpline
 70
8
 71
3
 72
8
 73
4
 74
0
 40
0
 40
0
 40
0
 40
0
 40
1
 40
1
 40
1
 40
1
 10
165.075258
 20
49.800274
 30
0.0
 10
132.700447
 20
52.516573
 30
0.0
 10
111.935610
 20
65.206205
 30
0.0
 10
118.726188
 20
78.132699
 30
0.0
  0
SPLINE
  5
1bd
100
AcDbEntity
  8
Ebene_1
 62
7
100
AcDbSpline
 70
8
 71
3
 72
8
 73
4
 74
0
 40
0
 40
0
 40
0
 40
0
 40
1
 40
1
 40
1
 40
1
 10
118.726188
 20
78.132699
 30
0.0
 10
123.742842
 20
87.685115
 30
0.0
 10
141.327390
 20
94.680935
 30
0.0
 10
165.264003
 20
96.654217
 30
0.0
  0
LWPOLYLINE
  5
1be
100
AcDbEntity
  8
Ebene_1
 62
7
100
AcDbPolyline
 90
5
 70
0
 10
284.351074
 20
72.467010
 30
0.0
 10
288.490721
 20
72.467010
 30
0.0
 10
288.490721
 20
99.497774
 30
0.0
 10
284.254391
 20
99.497774
 30
0.0
 10
284.254391
 20
99.497774
 30
0.0
  0
LWPOLYLINE
  5
1bf
100
AcDbEntity
  8
Ebene_1
 62
7
100
AcDbPolyline
 90
6
 70
1
 10
185.161347
 20
247.412154
 30
0.0
 10
181.962144
 20
247.412154
 30
0.0
 10
176.870071
 20
237.316677
 30
0.0
 10
171.712887
 20
247.412154
 30
0.0
 10
168.491241
 20
247.412154
 30
0.0
 10
176.848460
 20
231.395641
 30
0.0
  0
LWPOLYLINE
  5
1c0
100
AcDbEntity
  8
Ebene_1
 62
7
100
AcDbPolyline
 90
12
 70
1
 10
197.686371
 20
234.397843
 30
0.0
 10
189.374589
 20
234.397843
 30
0.0
 10
189.374589
 20
238.447899
 30
0.0
 10
194.531496
 20
238.447899
 30
0.0
 10
194.531496
 20
241.036469
 30
0.0
 10
189.374589
 20
241.036469
 30
0.0
 10
189.374589
 20
244.801701
 30
0.0
 10
197.382160
 20
244.801701
 30
0.0
 10
197.382160
 20
247.390554
 30
0.0
 10
186.480427
 20
247.390554
 30
0.0
 10
186.480427
 20
231.810123
 30
0.0
 10
197.686371
 20
231.810123
 30
0.0
  0
SPLINE
  5
1c1
100
AcDbEntity
  8
Ebene_1
 62
7
100
AcDbSpline
 70
8
 71
3
 72
8
 73
4
 74
0
 40
0
 40
0
 40
0
 40
0
 40
1
 40
1
 40
1
 40
1
 10
209.812497
 20
237.967986
 30
0.0
 10
211.208015
 20
238.665573
 30
0.0
 10
212.163635
 20
239.774341
 30
0.0
 10
212.541500
 20
241.071989
 30
0.0
  0
LWPOLYLINE
  5
1c2
100
AcDbEntity
  8
Ebene_1
 62
7
100
AcDbPolyline
 90
8
 70
0
 10
200.629392
 20
241.071989
 30
0.0
 10
200.629392
 20
231.809782
 30
0.0
 10
203.523920
 20
231.809782
 30
0.0
 10
203.523920
 20
237.272185
 30
0.0
 10
207.070310
 20
237.272185
 30
0.0
 10
209.616207
 20
231.809782
 30
0.0
 10
212.815430
 20
231.809782
 30
0.0
 10
209.812497
 20
237.967986
 30
0.0
  0
SPLINE
  5
1c3
100
AcDbEntity
  8
Ebene_1
 62
7
100
AcDbSpline
 70
8
 71
3
 72
8
 73
4
 74
0
 40
0
 40
0
 40
0
 40
0
 40
1
 40
1
 40
1
 40
1
 10
209.402337
 20
241.071989
 30
0.0
 10
208.892172
 20
240.362196
 30
0.0
 10
207.953555
 20
239.860563
 30
0.0
 10
206.526852
 20
239.860563
 30
0.0
  0
LWPOLYLINE
  5
1c4
100
AcDbEntity
  8
Ebene_1
 62
7
100
AcDbPolyline
 90
2
 70
0
 10
212.541500
 20
241.071989
 30
0.0
 10
209.402337
 20
241.071989
 30
0.0
  0
SPLINE
  5
1c5
100
AcDbEntity
  8
Ebene_1
 62
7
100
AcDbSpline
 70
8
 71
3
 72
8
 73
4
 74
0
 40
0
 40
0
 40
0
 40
0
 40
1
 40
1
 40
1
 40
1
 10
206.526852
 20
244.801482
 30
0.0
 10
208.723662
 20
244.801482
 30
0.0
 10
209.854977
 20
243.670197
 30
0.0
 10
209.854977
 20
242.321501
 30
0.0
  0
SPLINE
  5
1c6
100
AcDbEntity
  8
Ebene_1
 62
7
100
AcDbSpline
 70
8
 71
3
 72
8
 73
4
 74
0
 40
0
 40
0
 40
0
 40
0
 40
1
 40
1
 40
1
 40
1
 10
209.854977
 20
242.321501
 30
0.0
 10
209.854977
 20
241.856442
 30
0.0
 10
209.669990
 20
241.444371
 30
0.0
 10
209.402337
 20
241.071989
 30
0.0
  0
LWPOLYLINE
  5
1c7
100
AcDbEntity
  8
Ebene_1
 62
7
100
AcDbPolyline
 90
8
 70
0
 10
206.526852
 20
239.860563
 30
0.0
 10
203.523920
 20
239.860563
 30
0.0
 10
203.523920
 20
241.071989
 30
0.0
 10
200.629392
 20
241.071989
 30
0.0
 10
200.629392
 20
241.071989
 30
0.0
 10
203.523920
 20
241.071989
 30
0.0
 10
203.523920
 20
244.801482
 30
0.0
 10
206.526852
 20
244.801482
 30
0.0
  0
SPLINE
  5
1c8
100
AcDbEntity
  8
Ebene_1
 62
7
100
AcDbSpline
 70
8
 71
3
 72
8
 73
4
 74
0
 40
0
 40
0
 40
0
 40
0
 40
1
 40
1
 40
1
 40
1
 10
212.541500
 20
241.071989
 30
0.0
 10
212.658312
 20
241.473141
 30
0.0
 10
212.729000
 20
241.889892
 30
0.0
 10
212.729000
 20
242.321501
 30
0.0
  0
SPLINE
  5
1c9
100
AcDbEntity
  8
Ebene_1
 62
7
100
AcDbSpline
 70
8
 71
3
 72
8
 73
4
 74
0
 40
0
 40
0
 40
0
 40
0
 40
1
 40
1
 40
1
 40
1
 10
212.729000
 20
242.321501
 30
0.0
 10
212.729000
 20
245.128934
 30
0.0
 10
210.203517
 20
247.389861
 30
0.0
 10
206.548827
 20
247.389861
 30
0.0
  0
LWPOLYLINE
  5
1ca
100
AcDbEntity
  8
Ebene_1
 62
7
100
AcDbPolyline
 90
2
 70
0
 10
209.402337
 20
241.071989
 30
0.0
 10
212.541500
 20
241.071989
 30
0.0
  0
LWPOLYLINE
  5
1cb
100
AcDbEntity
  8
Ebene_1
 62
7
100
AcDbPolyline
 90
4
 70
0
 10
206.548827
 20
247.389861
 30
0.0
 10
200.629392
 20
247.389861
 30
0.0
 10
200.629392
 20
241.071989
 30
0.0
 10
200.629392
 20
241.071989
 30
0.0
  0
SPLINE
  5
1cc
100
AcDbEntity
  8
Ebene_1
 62
7
100
AcDbSpline
 70
8
 71
3
 72
8
 73
4
 74
0
 40
0
 40
0
 40
0
 40
0
 40
1
 40
1
 40
1
 40
1
 10
223.070272
 20
238.121717
 30
0.0
 10
224.613490
 20
237.707036
 30
0.0
 10
225.745553
 20
237.251707
 30
0.0
 10
225.745553
 20
236.054523
 30
0.0
  0
SPLINE
  5
1cd
100
AcDbEntity
  8
Ebene_1
 62
7
100
AcDbSpline
 70
8
 71
3
 72
8
 73
4
 74
0
 40
0
 40
0
 40
0
 40
0
 40
1
 40
1
 40
1
 40
1
 10
225.745553
 20
236.054523
 30
0.0
 10
225.745553
 20
234.923584
 30
0.0
 10
224.702424
 20
234.009298
 30
0.0
 10
222.351578
 20
234.009298
 30
0.0
  0
SPLINE
  5
1ce
100
AcDbEntity
  8
Ebene_1
 62
7
100
AcDbSpline
 70
8
 71
3
 72
8
 73
4
 74
0
 40
0
 40
0
 40
0
 40
0
 40
1
 40
1
 40
1
 40
1
 10
222.351578
 20
234.009298
 30
0.0
 10
220.350656
 20
234.009298
 30
0.0
 10
218.499896
 20
234.681449
 30
0.0
 10
216.367930
 20
236.489811
 30
0.0
  0
LWPOLYLINE
  5
1cf
100
AcDbEntity
  8
Ebene_1
 62
7
100
AcDbPolyline
 90
2
 70
0
 10
221.199014
 20
238.623024
 30
0.0
 10
223.070272
 20
238.121717
 30
0.0
  0
SPLINE
  5
1d0
100
AcDbEntity
  8
Ebene_1
 62
7
100
AcDbSpline
 70
8
 71
3
 72
8
 73
4
 74
0
 40
0
 40
0
 40
0
 40
0
 40
1
 40
1
 40
1
 40
1
 10
216.367930
 20
233.201934
 30
0.0
 10
217.825534
 20
232.116378
 30
0.0
 10
220.176388
 20
231.395471
 30
0.0
 10
222.328856
 20
231.395471
 30
0.0
  0
SPLINE
  5
1d1
100
AcDbEntity
  8
Ebene_1
 62
7
100
AcDbSpline
 70
8
 71
3
 72
8
 73
4
 74
0
 40
0
 40
0
 40
0
 40
0
 40
1
 40
1
 40
1
 40
1
 10
222.328856
 20
231.395471
 30
0.0
 10
225.593999
 20
231.395471
 30
0.0
 10
228.748880
 20
233.073099
 30
0.0
 10
228.748880
 20
236.293937
 30
0.0
  0
SPLINE
  5
1d2
100
AcDbEntity
  8
Ebene_1
 62
7
100
AcDbSpline
 70
8
 71
3
 72
8
 73
4
 74
0
 40
0
 40
0
 40
0
 40
0
 40
1
 40
1
 40
1
 40
1
 10
228.748880
 20
236.293937
 30
0.0
 10
228.748880
 20
239.426929
 30
0.0
 10
225.745553
 20
240.491934
 30
0.0
 10
223.852685
 20
241.014728
 30
0.0
  0
LWPOLYLINE
  5
1d3
100
AcDbEntity
  8
Ebene_1
 62
7
100
AcDbPolyline
 90
2
 70
0
 10
216.367930
 20
236.489811
 30
0.0
 10
216.367930
 20
233.201934
 30
0.0
  0
SPLINE
  5
1d4
100
AcDbEntity
  8
Ebene_1
 62
7
100
AcDbSpline
 70
8
 71
3
 72
8
 73
4
 74
0
 40
0
 40
0
 40
0
 40
0
 40
1
 40
1
 40
1
 40
1
 10
221.980319
 20
241.538485
 30
0.0
 10
220.413273
 20
241.974028
 30
0.0
 10
219.305032
 20
242.366570
 30
0.0
 10
219.305032
 20
243.386957
 30
0.0
  0
SPLINE
  5
1d5
100
AcDbEntity
  8
Ebene_1
 62
7
100
AcDbSpline
 70
8
 71
3
 72
8
 73
4
 74
0
 40
0
 40
0
 40
0
 40
0
 40
1
 40
1
 40
1
 40
1
 10
219.305032
 20
243.386957
 30
0.0
 10
219.305032
 20
244.409924
 30
0.0
 10
220.392773
 20
244.976995
 30
0.0
 10
222.090862
 20
244.976995
 30
0.0
  0
SPLINE
  5
1d6
100
AcDbEntity
  8
Ebene_1
 62
7
100
AcDbSpline
 70
8
 71
3
 72
8
 73
4
 74
0
 40
0
 40
0
 40
0
 40
0
 40
1
 40
1
 40
1
 40
1
 10
222.090862
 20
244.976995
 30
0.0
 10
223.983736
 20
244.976995
 30
0.0
 10
226.137319
 20
244.279984
 30
0.0
 10
227.923236
 20
242.952009
 30
0.0
  0
LWPOLYLINE
  5
1d7
100
AcDbEntity
  8
Ebene_1
 62
7
100
AcDbPolyline
 90
2
 70
0
 10
223.852685
 20
241.014728
 30
0.0
 10
221.980319
 20
241.538485
 30
0.0
  0
SPLINE
  5
1d8
100
AcDbEntity
  8
Ebene_1
 62
7
100
AcDbSpline
 70
8
 71
3
 72
8
 73
4
 74
0
 40
0
 40
0
 40
0
 40
0
 40
1
 40
1
 40
1
 40
1
 10
227.923236
 20
246.195524
 30
0.0
 10
227.160220
 20
246.630246
 30
0.0
 10
225.006363
 20
247.609899
 30
0.0
 10
222.351578
 20
247.609899
 30
0.0
  0
SPLINE
  5
1d9
100
AcDbEntity
  8
Ebene_1
 62
7
100
AcDbSpline
 70
8
 71
3
 72
8
 73
4
 74
0
 40
0
 40
0
 40
0
 40
0
 40
1
 40
1
 40
1
 40
1
 10
222.351578
 20
247.609899
 30
0.0
 10
219.284531
 20
247.609899
 30
0.0
 10
216.345208
 20
246.285269
 30
0.0
 10
216.345208
 20
243.213789
 30
0.0
  0
SPLINE
  5
1da
100
AcDbEntity
  8
Ebene_1
 62
7
100
AcDbSpline
 70
8
 71
3
 72
8
 73
4
 74
0
 40
0
 40
0
 40
0
 40
0
 40
1
 40
1
 40
1
 40
1
 10
216.345208
 20
243.213789
 30
0.0
 10
216.345208
 20
240.362079
 30
0.0
 10
218.847333
 20
239.253846
 30
0.0
 10
221.199014
 20
238.622939
 30
0.0
  0
SPLINE
  5
1db
100
AcDbEntity
  8
Ebene_1
 62
7
100
AcDbSpline
 70
8
 71
3
 72
8
 73
4
 74
0
 40
0
 40
0
 40
0
 40
0
 40
1
 40
1
 40
1
 40
1
 10
240.275097
 20
231.395641
 30
0.0
 10
242.690504
 20
231.395641
 30
0.0
 10
244.561761
 20
232.224661
 30
0.0
 10
245.541165
 20
232.769027
 30
0.0
  0
LWPOLYLINE
  5
1dc
100
AcDbEntity
  8
Ebene_1
 62
7
100
AcDbPolyline
 90
2
 70
0
 10
227.923236
 20
242.952009
 30
0.0
 10
227.923236
 20
246.195524
 30
0.0
  0
SPLINE
  5
1dd
100
AcDbEntity
  8
Ebene_1
 62
7
100
AcDbSpline
 70
8
 71
3
 72
8
 73
4
 74
0
 40
0
 40
0
 40
0
 40
0
 40
1
 40
1
 40
1
 40
1
 10
245.541165
 20
235.903408
 30
0.0
 10
244.278331
 20
234.814592
 30
0.0
 10
242.211188
 20
234.009468
 30
0.0
 10
240.230774
 20
234.009468
 30
0.0
  0
SPLINE
  5
1de
100
AcDbEntity
  8
Ebene_1
 62
7
100
AcDbSpline
 70
8
 71
3
 72
8
 73
4
 74
0
 40
0
 40
0
 40
0
 40
0
 40
1
 40
1
 40
1
 40
1
 10
240.230774
 20
234.009468
 30
0.0
 10
236.836791
 20
234.009468
 30
0.0
 10
234.400614
 20
236.379430
 30
0.0
 10
234.400614
 20
239.493260
 30
0.0
  0
SPLINE
  5
1df
100
AcDbEntity
  8
Ebene_1
 62
7
100
AcDbSpline
 70
8
 71
3
 72
8
 73
4
 74
0
 40
0
 40
0
 40
0
 40
0
 40
1
 40
1
 40
1
 40
1
 10
234.400614
 20
239.493260
 30
0.0
 10
234.400614
 20
242.605729
 30
0.0
 10
236.836791
 20
244.977080
 30
0.0
 10
240.230774
 20
244.977080
 30
0.0
  0
SPLINE
  5
1e0
100
AcDbEntity
  8
Ebene_1
 62
7
100
AcDbSpline
 70
8
 71
3
 72
8
 73
4
 74
0
 40
0
 40
0
 40
0
 40
0
 40
1
 40
1
 40
1
 40
1
 10
240.230774
 20
244.977080
 30
0.0
 10
242.211188
 20
244.977080
 30
0.0
 10
244.278331
 20
244.170595
 30
0.0
 10
245.541165
 20
243.085068
 30
0.0
  0
LWPOLYLINE
  5
1e1
100
AcDbEntity
  8
Ebene_1
 62
7
100
AcDbPolyline
 90
2
 70
0
 10
245.541165
 20
232.769027
 30
0.0
 10
245.541165
 20
235.903408
 30
0.0
  0
SPLINE
  5
1e2
100
AcDbEntity
  8
Ebene_1
 62
7
100
AcDbSpline
 70
8
 71
3
 72
8
 73
4
 74
0
 40
0
 40
0
 40
0
 40
0
 40
1
 40
1
 40
1
 40
1
 10
245.541165
 20
246.217266
 30
0.0
 10
244.561761
 20
246.761858
 30
0.0
 10
242.690504
 20
247.588413
 30
0.0
 10
240.275097
 20
247.588413
 30
0.0
  0
SPLINE
  5
1e3
100
AcDbEntity
  8
Ebene_1
 62
7
100
AcDbSpline
 70
8
 71
3
 72
8
 73
4
 74
0
 40
0
 40
0
 40
0
 40
0
 40
1
 40
1
 40
1
 40
1
 10
240.275097
 20
247.588413
 30
0.0
 10
235.357301
 20
247.588413
 30
0.0
 10
231.505338
 20
244.105795
 30
0.0
 10
231.505338
 20
239.493260
 30
0.0
  0
SPLINE
  5
1e4
100
AcDbEntity
  8
Ebene_1
 62
7
100
AcDbSpline
 70
8
 71
3
 72
8
 73
4
 74
0
 40
0
 40
0
 40
0
 40
0
 40
1
 40
1
 40
1
 40
1
 10
231.505338
 20
239.493260
 30
0.0
 10
231.505338
 20
234.879392
 30
0.0
 10
235.357301
 20
231.395641
 30
0.0
 10
240.275097
 20
231.395641
 30
0.0
  0
LWPOLYLINE
  5
1e5
100
AcDbEntity
  8
Ebene_1
 62
7
100
AcDbPolyline
 90
2
 70
0
 10
245.541165
 20
243.085068
 30
0.0
 10
245.541165
 20
246.217266
 30
0.0
  0
LWPOLYLINE
  5
1e6
100
AcDbEntity
  8
Ebene_1
 62
7
100
AcDbPolyline
 90
12
 70
1
 10
251.359415
 20
238.294970
 30
0.0
 10
259.665933
 20
238.294970
 30
0.0
 10
259.665933
 20
231.701783
 30
0.0
 10
262.559817
 20
231.701783
 30
0.0
 10
262.559817
 20
247.284510
 30
0.0
 10
259.665933
 20
247.284510
 30
0.0
 10
259.665933
 20
240.971669
 30
0.0
 10
251.359415
 20
240.971669
 30
0.0
 10
251.359415
 20
247.284510
 30
0.0
 10
248.464422
 20
247.284510
 30
0.0
 10
248.464422
 20
231.701783
 30
0.0
 10
251.359415
 20
231.701783
 30
0.0
  0
LWPOLYLINE
  5
1e7
100
AcDbEntity
  8
Ebene_1
 62
7
100
AcDbPolyline
 90
10
 70
1
 10
280.808889
 20
247.283376
 30
0.0
 10
277.675896
 20
238.623024
 30
0.0
 10
274.193262
 20
247.609984
 30
0.0
 10
270.711453
 20
238.623024
 30
0.0
 10
267.577361
 20
247.283376
 30
0.0
 10
264.422488
 20
247.283376
 30
0.0
 10
270.689844
 20
231.375175
 30
0.0
 10
274.172481
 20
240.187861
 30
0.0
 10
277.652057
 20
231.375175
 30
0.0
 10
283.963764
 20
247.283376
 30
0.0
  0
SPLINE
  5
1e8
100
AcDbEntity
  8
Ebene_1
 62
7
100
AcDbSpline
 70
8
 71
3
 72
8
 73
4
 74
0
 40
0
 40
0
 40
0
 40
0
 40
1
 40
1
 40
1
 40
1
 10
297.120116
 20
236.785857
 30
0.0
 10
296.179511
 20
235.125368
 30
0.0
 10
294.465589
 20
233.986540
 30
0.0
 10
292.354976
 20
233.986540
 30
0.0
  0
SPLINE
  5
1e9
100
AcDbEntity
  8
Ebene_1
 62
7
100
AcDbSpline
 70
8
 71
3
 72
8
 73
4
 74
0
 40
0
 40
0
 40
0
 40
0
 40
1
 40
1
 40
1
 40
1
 10
292.354976
 20
233.986540
 30
0.0
 10
290.243629
 20
233.986540
 30
0.0
 10
288.520819
 20
235.125155
 30
0.0
 10
287.573726
 20
236.785857
 30
0.0
  0
LWPOLYLINE
  5
1ea
100
AcDbEntity
  8
Ebene_1
 62
7
100
AcDbPolyline
 90
2
 70
0
 10
300.269531
 20
236.785857
 30
0.0
 10
297.120116
 20
236.785857
 30
0.0
  0
SPLINE
  5
1eb
100
AcDbEntity
  8
Ebene_1
 62
7
100
AcDbSpline
 70
8
 71
3
 72
8
 73
4
 74
0
 40
0
 40
0
 40
0
 40
0
 40
1
 40
1
 40
1
 40
1
 10
284.437496
 20
236.785857
 30
0.0
 10
285.609049
 20
233.655346
 30
0.0
 10
288.661414
 20
231.395232
 30
0.0
 10
292.354976
 20
231.395232
 30
0.0
  0
SPLINE
  5
1ec
100
AcDbEntity
  8
Ebene_1
 62
7
100
AcDbSpline
 70
8
 71
3
 72
8
 73
4
 74
0
 40
0
 40
0
 40
0
 40
0
 40
1
 40
1
 40
1
 40
1
 10
292.354976
 20
231.395232
 30
0.0
 10
296.029766
 20
231.395232
 30
0.0
 10
299.092496
 20
233.655408
 30
0.0
 10
300.269531
 20
236.785857
 30
0.0
  0
LWPOLYLINE
  5
1ed
100
AcDbEntity
  8
Ebene_1
 62
7
100
AcDbPolyline
 90
2
 70
0
 10
287.573726
 20
236.785857
 30
0.0
 10
284.437496
 20
236.785857
 30
0.0
  0
SPLINE
  5
1ee
100
AcDbEntity
  8
Ebene_1
 62
7
100
AcDbSpline
 70
8
 71
3
 72
8
 73
4
 74
0
 40
0
 40
0
 40
0
 40
0
 40
1
 40
1
 40
1
 40
1
 10
292.354976
 20
247.589079
 30
0.0
 10
287.653549
 20
247.589079
 30
0.0
 10
283.869139
 20
243.953826
 30
0.0
 10
283.869139
 20
239.492888
 30
0.0
  0
SPLINE
  5
1ef
100
AcDbEntity
  8
Ebene_1
 62
7
100
AcDbSpline
 70
8
 71
3
 72
8
 73
4
 74
0
 40
0
 40
0
 40
0
 40
0
 40
1
 40
1
 40
1
 40
1
 10
283.869139
 20
239.492888
 30
0.0
 10
283.869139
 20
238.531649
 30
0.0
 10
284.117816
 20
237.640081
 30
0.0
 10
284.437496
 20
236.785857
 30
0.0
  0
LWPOLYLINE
  5
1f0
100
AcDbEntity
  8
Ebene_1
 62
7
100
AcDbPolyline
 90
1
 70
1
 10
300.269531
 20
236.785857
 30
0.0
  0
SPLINE
  5
1f1
100
AcDbEntity
  8
Ebene_1
 62
7
100
AcDbSpline
 70
8
 71
3
 72
8
 73
4
 74
0
 40
0
 40
0
 40
0
 40
0
 40
1
 40
1
 40
1
 40
1
 10
287.573726
 20
236.785857
 30
0.0
 10
287.114951
 20
237.590311
 30
0.0
 10
286.782709
 20
238.476752
 30
0.0
 10
286.782709
 20
239.492888
 30
0.0
  0
SPLINE
  5
1f2
100
AcDbEntity
  8
Ebene_1
 62
7
100
AcDbSpline
 70
8
 71
3
 72
8
 73
4
 74
0
 40
0
 40
0
 40
0
 40
0
 40
1
 40
1
 40
1
 40
1
 10
286.782709
 20
239.492888
 30
0.0
 10
286.782709
 20
242.605357
 30
0.0
 10
289.220876
 20
244.999236
 30
0.0
 10
292.354976
 20
244.999236
 30
0.0
  0
SPLINE
  5
1f3
100
AcDbEntity
  8
Ebene_1
 62
7
100
AcDbSpline
 70
8
 71
3
 72
8
 73
4
 74
0
 40
0
 40
0
 40
0
 40
0
 40
1
 40
1
 40
1
 40
1
 10
292.354976
 20
244.999236
 30
0.0
 10
295.488221
 20
244.999236
 30
0.0
 10
297.905269
 20
242.605357
 30
0.0
 10
297.905269
 20
239.492888
 30
0.0
  0
SPLINE
  5
1f4
100
AcDbEntity
  8
Ebene_1
 62
7
100
AcDbSpline
 70
8
 71
3
 72
8
 73
4
 74
0
 40
0
 40
0
 40
0
 40
0
 40
1
 40
1
 40
1
 40
1
 10
297.905269
 20
239.492888
 30
0.0
 10
297.905269
 20
238.476593
 30
0.0
 10
297.575854
 20
237.590395
 30
0.0
 10
297.120116
 20
236.785857
 30
0.0
  0
LWPOLYLINE
  5
1f5
100
AcDbEntity
  8
Ebene_1
 62
7
100
AcDbPolyline
 90
2
 70
0
 10
284.437496
 20
236.785857
 30
0.0
 10
287.573726
 20
236.785857
 30
0.0
  0
SPLINE
  5
1f6
100
AcDbEntity
  8
Ebene_1
 62
7
100
AcDbSpline
 70
8
 71
3
 72
8
 73
4
 74
0
 40
0
 40
0
 40
0
 40
0
 40
1
 40
1
 40
1
 40
1
 10
300.269531
 20
236.785857
 30
0.0
 10
300.590726
 20
237.640115
 30
0.0
 10
300.842284
 20
238.531605
 30
0.0
 10
300.842284
 20
239.492888
 30
0.0
  0
SPLINE
  5
1f7
100
AcDbEntity
  8
Ebene_1
 62
7
100
AcDbSpline
 70
8
 71
3
 72
8
 73
4
 74
0
 40
0
 40
0
 40
0
 40
0
 40
1
 40
1
 40
1
 40
1
 10
300.842284
 20
239.492888
 30
0.0
 10
300.842284
 20
243.953826
 30
0.0
 10
297.032569
 20
247.589079
 30
0.0
 10
292.354976
 20
247.589079
 30
0.0
  0
LWPOLYLINE
  5
1f8
100
AcDbEntity
  8
Ebene_1
 62
7
100
AcDbPolyline
 90
2
 70
0
 10
297.120116
 20
236.785857
 30
0.0
 10
300.269531
 20
236.785857
 30
0.0
  0
SPLINE
  5
1f9
100
AcDbEntity
  8
Ebene_1
 62
7
100
AcDbSpline
 70
8
 71
3
 72
8
 73
4
 74
0
 40
0
 40
0
 40
0
 40
0
 40
1
 40
1
 40
1
 40
1
 10
294.726970
 20
248.351443
 30
0.0
 10
295.596101
 20
248.351443
 30
0.0
 10
296.445559
 20
248.961005
 30
0.0
 10
296.445559
 20
249.874186
 30
0.0
  0
SPLINE
  5
1fa
100
AcDbEntity
  8
Ebene_1
 62
7
100
AcDbSpline
 70
8
 71
3
 72
8
 73
4
 74
0
 40
0
 40
0
 40
0
 40
0
 40
1
 40
1
 40
1
 40
1
 10
296.445559
 20
249.874186
 30
0.0
 10
296.445559
 20
250.766022
 30
0.0
 10
295.596101
 20
251.376406
 30
0.0
 10
294.726970
 20
251.376406
 30
0.0
  0
SPLINE
  5
1fb
100
AcDbEntity
  8
Ebene_1
 62
7
100
AcDbSpline
 70
8
 71
3
 72
8
 73
4
 74
0
 40
0
 40
0
 40
0
 40
0
 40
1
 40
1
 40
1
 40
1
 10
294.726970
 20
251.376406
 30
0.0
 10
293.856706
 20
251.376406
 30
0.0
 10
293.007248
 20
250.766022
 30
0.0
 10
293.007248
 20
249.874186
 30
0.0
  0
SPLINE
  5
1fc
100
AcDbEntity
  8
Ebene_1
 62
7
100
AcDbSpline
 70
8
 71
3
 72
8
 73
4
 74
0
 40
0
 40
0
 40
0
 40
0
 40
1
 40
1
 40
1
 40
1
 10
293.007248
 20
249.874186
 30
0.0
 10
293.007248
 20
248.960693
 30
0.0
 10
293.856706
 20
248.351443
 30
0.0
 10
294.726970
 20
248.351443
 30
0.0
  0
SPLINE
  5
1fd
100
AcDbEntity
  8
Ebene_1
 62
7
100
AcDbSpline
 70
8
 71
3
 72
8
 73
4
 74
0
 40
0
 40
0
 40
0
 40
0
 40
1
 40
1
 40
1
 40
1
 10
289.961818
 20
248.351443
 30
0.0
 10
290.831770
 20
248.351443
 30
0.0
 10
291.680407
 20
248.961005
 30
0.0
 10
291.680407
 20
249.874186
 30
0.0
  0
SPLINE
  5
1fe
100
AcDbEntity
  8
Ebene_1
 62
7
100
AcDbSpline
 70
8
 71
3
 72
8
 73
4
 74
0
 40
0
 40
0
 40
0
 40
0
 40
1
 40
1
 40
1
 40
1
 10
291.680407
 20
249.874186
 30
0.0
 10
291.680407
 20
250.766022
 30
0.0
 10
290.831770
 20
251.376406
 30
0.0
 10
289.961818
 20
251.376406
 30
0.0
  0
SPLINE
  5
1ff
100
AcDbEntity
  8
Ebene_1
 62
7
100
AcDbSpline
 70
8
 71
3
 72
8
 73
4
 74
0
 40
0
 40
0
 40
0
 40
0
 40
1
 40
1
 40
1
 40
1
 10
289.961818
 20
251.376406
 30
0.0
 10
289.090476
 20
251.376406
 30
0.0
 10
288.242095
 20
250.766022
 30
0.0
 10
288.242095
 20
249.874186
 30
0.0
  0
SPLINE
  5
200
100
AcDbEntity
  8
Ebene_1
 62
7
100
AcDbSpline
 70
8
 71
3
 72
8
 73
4
 74
0
 40
0
 40
0
 40
0
 40
0
 40
1
 40
1
 40
1
 40
1
 10
288.242095
 20
249.874186
 30
0.0
 10
288.242095
 20
248.960693
 30
0.0
 10
289.090476
 20
248.351443
 30
0.0
 10
289.961818
 20
248.351443
 30
0.0
  0
LWPOLYLINE
  5
201
100
AcDbEntity
  8
Ebene_1
 62
7
100
AcDbPolyline
 90
1
 70
1
 10
292.354976
 20
247.589079
 30
0.0
  0
SPLINE
  5
202
100
AcDbEntity
  8
Ebene_1
 62
7
100
AcDbSpline
 70
8
 71
3
 72
8
 73
4
 74
0
 40
0
 40
0
 40
0
 40
0
 40
1
 40
1
 40
1
 40
1
 10
312.451166
 20
237.859587
 30
0.0
 10
314.023661
 20
238.646357
 30
0.0
 10
315.000581
 20
239.961294
 30
0.0
 10
315.256346
 20
241.473357
 30
0.0
  0
LWPOLYLINE
  5
203
100
AcDbEntity
  8
Ebene_1
 62
7
100
AcDbPolyline
 90
8
 70
0
 10
303.268061
 20
241.473357
 30
0.0
 10
303.268061
 20
231.702849
 30
0.0
 10
306.162596
 20
231.702849
 30
0.0
 10
306.162596
 20
237.163786
 30
0.0
 10
309.710449
 20
237.163786
 30
0.0
 10
312.254876
 20
231.702849
 30
0.0
 10
315.454099
 20
231.702849
 30
0.0
 10
312.451166
 20
237.859587
 30
0.0
  0
SPLINE
  5
204
100
AcDbEntity
  8
Ebene_1
 62
7
100
AcDbSpline
 70
8
 71
3
 72
8
 73
4
 74
0
 40
0
 40
0
 40
0
 40
0
 40
1
 40
1
 40
1
 40
1
 10
312.329584
 20
241.473357
 30
0.0
 10
311.973281
 20
240.485255
 30
0.0
 10
310.920656
 20
239.752165
 30
0.0
 10
309.165521
 20
239.752165
 30
0.0
  0
LWPOLYLINE
  5
205
100
AcDbEntity
  8
Ebene_1
 62
7
100
AcDbPolyline
 90
2
 70
0
 10
315.256346
 20
241.473357
 30
0.0
 10
312.329584
 20
241.473357
 30
0.0
  0
SPLINE
  5
206
100
AcDbEntity
  8
Ebene_1
 62
7
100
AcDbSpline
 70
8
 71
3
 72
8
 73
4
 74
0
 40
0
 40
0
 40
0
 40
0
 40
1
 40
1
 40
1
 40
1
 10
309.165521
 20
244.693083
 30
0.0
 10
311.363704
 20
244.693083
 30
0.0
 10
312.495116
 20
243.562677
 30
0.0
 10
312.495116
 20
242.213103
 30
0.0
  0
SPLINE
  5
207
100
AcDbEntity
  8
Ebene_1
 62
7
100
AcDbSpline
 70
8
 71
3
 72
8
 73
4
 74
0
 40
0
 40
0
 40
0
 40
0
 40
1
 40
1
 40
1
 40
1
 10
312.495116
 20
242.213103
 30
0.0
 10
312.495116
 20
241.951370
 30
0.0
 10
312.415144
 20
241.710622
 30
0.0
 10
312.329584
 20
241.473357
 30
0.0
  0
LWPOLYLINE
  5
208
100
AcDbEntity
  8
Ebene_1
 62
7
100
AcDbPolyline
 90
8
 70
0
 10
309.165521
 20
239.752165
 30
0.0
 10
306.162596
 20
239.752165
 30
0.0
 10
306.162596
 20
241.473357
 30
0.0
 10
303.268061
 20
241.473357
 30
0.0
 10
303.268061
 20
241.473357
 30
0.0
 10
306.162596
 20
241.473357
 30
0.0
 10
306.162596
 20
244.693083
 30
0.0
 10
309.165521
 20
244.693083
 30
0.0
  0
SPLINE
  5
209
100
AcDbEntity
  8
Ebene_1
 62
7
100
AcDbSpline
 70
8
 71
3
 72
8
 73
4
 74
0
 40
0
 40
0
 40
0
 40
0
 40
1
 40
1
 40
1
 40
1
 10
315.256346
 20
241.473357
 30
0.0
 10
315.297904
 20
241.719080
 30
0.0
 10
315.366206
 20
241.957563
 30
0.0
 10
315.366206
 20
242.213103
 30
0.0
  0
SPLINE
  5
20a
100
AcDbEntity
  8
Ebene_1
 62
7
100
AcDbSpline
 70
8
 71
3
 72
8
 73
4
 74
0
 40
0
 40
0
 40
0
 40
0
 40
1
 40
1
 40
1
 40
1
 10
315.366206
 20
242.213103
 30
0.0
 10
315.366206
 20
245.019430
 30
0.0
 10
312.843596
 20
247.282926
 30
0.0
 10
309.187496
 20
247.282926
 30
0.0
  0
LWPOLYLINE
  5
20b
100
AcDbEntity
  8
Ebene_1
 62
7
100
AcDbPolyline
 90
2
 70
0
 10
312.329584
 20
241.473357
 30
0.0
 10
315.256346
 20
241.473357
 30
0.0
  0
LWPOLYLINE
  5
20c
100
AcDbEntity
  8
Ebene_1
 62
7
100
AcDbPolyline
 90
4
 70
0
 10
309.187496
 20
247.282926
 30
0.0
 10
303.268061
 20
247.282926
 30
0.0
 10
303.268061
 20
241.473357
 30
0.0
 10
303.268061
 20
241.473357
 30
0.0
  0
LWPOLYLINE
  5
20d
100
AcDbEntity
  8
Ebene_1
 62
7
100
AcDbPolyline
 90
12
 70
1
 10
181.908776
 20
218.068668
 30
0.0
 10
173.529943
 20
218.068668
 30
0.0
 10
173.529943
 20
224.380403
 30
0.0
 10
170.634951
 20
224.380403
 30
0.0
 10
170.634951
 20
208.796967
 30
0.0
 10
173.529943
 20
208.796967
 30
0.0
 10
173.529943
 20
215.392280
 30
0.0
 10
181.908776
 20
215.392280
 30
0.0
 10
181.908776
 20
208.796967
 30
0.0
 10
184.802663
 20
208.796967
 30
0.0
 10
184.802663
 20
224.380403
 30
0.0
 10
181.908776
 20
224.380403
 30
0.0
  0
SPLINE
  5
20e
100
AcDbEntity
  8
Ebene_1
 62
7
100
AcDbSpline
 70
8
 71
3
 72
8
 73
4
 74
0
 40
0
 40
0
 40
0
 40
0
 40
1
 40
1
 40
1
 40
1
 10
213.992523
 20
215.848913
 30
0.0
 10
213.992523
 20
212.821795
 30
0.0
 10
212.186097
 20
211.170217
 30
0.0
 10
209.836629
 20
211.170217
 30
0.0
  0
SPLINE
  5
20f
100
AcDbEntity
  8
Ebene_1
 62
7
100
AcDbSpline
 70
8
 71
3
 72
8
 73
4
 74
0
 40
0
 40
0
 40
0
 40
0
 40
1
 40
1
 40
1
 40
1
 10
209.836629
 20
211.170217
 30
0.0
 10
207.485784
 20
211.170217
 30
0.0
 10
205.658021
 20
212.868312
 30
0.0
 10
205.658021
 20
215.848913
 30
0.0
  0
LWPOLYLINE
  5
210
100
AcDbEntity
  8
Ebene_1
 62
7
100
AcDbPolyline
 90
20
 70
1
 10
190.444333
 20
217.231658
 30
0.0
 10
186.055663
 20
208.797087
 30
0.0
 10
189.276853
 20
208.797087
 30
0.0
 10
190.472165
 20
211.192107
 30
0.0
 10
198.284180
 20
211.192107
 30
0.0
 10
199.502930
 20
208.797087
 30
0.0
 10
202.725582
 20
208.797087
 30
0.0
 10
198.335450
 20
217.231658
 30
0.0
 10
195.231440
 20
217.231658
 30
0.0
 10
196.979000
 20
213.780486
 30
0.0
 10
191.756833
 20
213.780486
 30
0.0
 10
193.502930
 20
217.231658
 30
0.0
 10
190.444333
 20
217.231658
 30
0.0
 10
190.444333
 20
217.231658
 30
0.0
 10
193.502930
 20
217.231658
 30
0.0
 10
194.367185
 20
218.938201
 30
0.0
 10
195.231440
 20
217.231658
 30
0.0
 10
198.335450
 20
217.231658
 30
0.0
 10
194.389160
 20
224.813689
 30
0.0
 10
190.444333
 20
217.231658
 30
0.0
  0
SPLINE
  5
211
100
AcDbEntity
  8
Ebene_1
 62
7
100
AcDbSpline
 70
8
 71
3
 72
8
 73
4
 74
0
 40
0
 40
0
 40
0
 40
0
 40
1
 40
1
 40
1
 40
1
 10
202.763862
 20
215.672457
 30
0.0
 10
202.763862
 20
211.234224
 30
0.0
 10
205.855012
 20
208.558658
 30
0.0
 10
209.836629
 20
208.558658
 30
0.0
  0
SPLINE
  5
212
100
AcDbEntity
  8
Ebene_1
 62
7
100
AcDbSpline
 70
8
 71
3
 72
8
 73
4
 74
0
 40
0
 40
0
 40
0
 40
0
 40
1
 40
1
 40
1
 40
1
 10
209.836629
 20
208.558658
 30
0.0
 10
213.818255
 20
208.558658
 30
0.0
 10
216.887515
 20
211.300157
 30
0.0
 10
216.887515
 20
215.672457
 30
0.0
  0
LWPOLYLINE
  5
213
100
AcDbEntity
  8
Ebene_1
 62
7
100
AcDbPolyline
 90
4
 70
0
 10
205.658021
 20
215.848913
 30
0.0
 10
205.658021
 20
224.422498
 30
0.0
 10
202.763862
 20
224.422498
 30
0.0
 10
202.763862
 20
215.672457
 30
0.0
  0
LWPOLYLINE
  5
214
100
AcDbEntity
  8
Ebene_1
 62
7
100
AcDbPolyline
 90
4
 70
0
 10
216.887515
 20
215.672457
 30
0.0
 10
216.887515
 20
224.422498
 30
0.0
 10
213.992523
 20
224.422498
 30
0.0
 10
213.992523
 20
215.848913
 30
0.0
  0
SPLINE
  5
215
100
AcDbEntity
  8
Ebene_1
 62
7
100
AcDbSpline
 70
8
 71
3
 72
8
 73
4
 74
0
 40
0
 40
0
 40
0
 40
0
 40
1
 40
1
 40
1
 40
1
 10
225.090966
 20
218.676501
 30
0.0
 10
223.525025
 20
219.111222
 30
0.0
 10
222.415678
 20
219.502063
 30
0.0
 10
222.415678
 20
220.526079
 30
0.0
  0
SPLINE
  5
216
100
AcDbEntity
  8
Ebene_1
 62
7
100
AcDbSpline
 70
8
 71
3
 72
8
 73
4
 74
0
 40
0
 40
0
 40
0
 40
0
 40
1
 40
1
 40
1
 40
1
 10
222.415678
 20
220.526079
 30
0.0
 10
222.415678
 20
221.547600
 30
0.0
 10
223.502303
 20
222.113650
 30
0.0
 10
225.201508
 20
222.113650
 30
0.0
  0
SPLINE
  5
217
100
AcDbEntity
  8
Ebene_1
 62
7
100
AcDbSpline
 70
8
 71
3
 72
8
 73
4
 74
0
 40
0
 40
0
 40
0
 40
0
 40
1
 40
1
 40
1
 40
1
 10
225.201508
 20
222.113650
 30
0.0
 10
227.094383
 20
222.113650
 30
0.0
 10
229.249073
 20
221.418227
 30
0.0
 10
231.032777
 20
220.090876
 30
0.0
  0
LWPOLYLINE
  5
218
100
AcDbEntity
  8
Ebene_1
 62
7
100
AcDbPolyline
 90
2
 70
0
 10
226.964440
 20
218.155124
 30
0.0
 10
225.090966
 20
218.676501
 30
0.0
  0
SPLINE
  5
219
100
AcDbEntity
  8
Ebene_1
 62
7
100
AcDbSpline
 70
8
 71
3
 72
8
 73
4
 74
0
 40
0
 40
0
 40
0
 40
0
 40
1
 40
1
 40
1
 40
1
 10
231.032777
 20
223.331357
 30
0.0
 10
230.272004
 20
223.767694
 30
0.0
 10
228.117010
 20
224.747915
 30
0.0
 10
225.461117
 20
224.747915
 30
0.0
  0
SPLINE
  5
21a
100
AcDbEntity
  8
Ebene_1
 62
7
100
AcDbSpline
 70
8
 71
3
 72
8
 73
4
 74
0
 40
0
 40
0
 40
0
 40
0
 40
1
 40
1
 40
1
 40
1
 10
225.461117
 20
224.747915
 30
0.0
 10
222.392964
 20
224.747915
 30
0.0
 10
219.455855
 20
223.419997
 30
0.0
 10
219.455855
 20
220.351776
 30
0.0
  0
SPLINE
  5
21b
100
AcDbEntity
  8
Ebene_1
 62
7
100
AcDbSpline
 70
8
 71
3
 72
8
 73
4
 74
0
 40
0
 40
0
 40
0
 40
0
 40
1
 40
1
 40
1
 40
1
 10
219.455855
 20
220.351776
 30
0.0
 10
219.455855
 20
217.500066
 30
0.0
 10
221.957979
 20
216.391833
 30
0.0
 10
224.308553
 20
215.760926
 30
0.0
  0
LWPOLYLINE
  5
21c
100
AcDbEntity
  8
Ebene_1
 62
7
100
AcDbPolyline
 90
2
 70
0
 10
231.032777
 20
220.090876
 30
0.0
 10
231.032777
 20
223.331357
 30
0.0
  0
SPLINE
  5
21d
100
AcDbEntity
  8
Ebene_1
 62
7
100
AcDbSpline
 70
8
 71
3
 72
8
 73
4
 74
0
 40
0
 40
0
 40
0
 40
0
 40
1
 40
1
 40
1
 40
1
 10
226.180918
 20
215.261235
 30
0.0
 10
227.725242
 20
214.846554
 30
0.0
 10
228.856197
 20
214.391055
 30
0.0
 10
228.856197
 20
213.191858
 30
0.0
  0
SPLINE
  5
21e
100
AcDbEntity
  8
Ebene_1
 62
7
100
AcDbSpline
 70
8
 71
3
 72
8
 73
4
 74
0
 40
0
 40
0
 40
0
 40
0
 40
1
 40
1
 40
1
 40
1
 10
228.856197
 20
213.191858
 30
0.0
 10
228.856197
 20
212.060948
 30
0.0
 10
227.813070
 20
211.147455
 30
0.0
 10
225.461117
 20
211.147455
 30
0.0
  0
SPLINE
  5
21f
100
AcDbEntity
  8
Ebene_1
 62
7
100
AcDbSpline
 70
8
 71
3
 72
8
 73
4
 74
0
 40
0
 40
0
 40
0
 40
0
 40
1
 40
1
 40
1
 40
1
 10
225.461117
 20
211.147455
 30
0.0
 10
223.459089
 20
211.147455
 30
0.0
 10
221.609437
 20
211.822809
 30
0.0
 10
219.476355
 20
213.629074
 30
0.0
  0
LWPOLYLINE
  5
220
100
AcDbEntity
  8
Ebene_1
 62
7
100
AcDbPolyline
 90
2
 70
0
 10
224.308553
 20
215.760926
 30
0.0
 10
226.180918
 20
215.261235
 30
0.0
  0
SPLINE
  5
221
100
AcDbEntity
  8
Ebene_1
 62
7
100
AcDbSpline
 70
8
 71
3
 72
8
 73
4
 74
0
 40
0
 40
0
 40
0
 40
0
 40
1
 40
1
 40
1
 40
1
 10
219.476355
 20
210.341282
 30
0.0
 10
220.935072
 20
209.255754
 30
0.0
 10
223.285926
 20
208.537002
 30
0.0
 10
225.439511
 20
208.537002
 30
0.0
  0
SPLINE
  5
222
100
AcDbEntity
  8
Ebene_1
 62
7
100
AcDbSpline
 70
8
 71
3
 72
8
 73
4
 74
0
 40
0
 40
0
 40
0
 40
0
 40
1
 40
1
 40
1
 40
1
 10
225.439511
 20
208.537002
 30
0.0
 10
228.704654
 20
208.537002
 30
0.0
 10
231.859527
 20
210.211342
 30
0.0
 10
231.859527
 20
213.432094
 30
0.0
  0
SPLINE
  5
223
100
AcDbEntity
  8
Ebene_1
 62
7
100
AcDbSpline
 70
8
 71
3
 72
8
 73
4
 74
0
 40
0
 40
0
 40
0
 40
0
 40
1
 40
1
 40
1
 40
1
 10
231.859527
 20
213.432094
 30
0.0
 10
231.859527
 20
216.565427
 30
0.0
 10
228.856197
 20
217.631537
 30
0.0
 10
226.964440
 20
218.155124
 30
0.0
  0
LWPOLYLINE
  5
224
100
AcDbEntity
  8
Ebene_1
 62
7
100
AcDbPolyline
 90
2
 70
0
 10
219.476355
 20
213.629074
 30
0.0
 10
219.476355
 20
210.341282
 30
0.0
  0
LWPOLYLINE
  5
225
100
AcDbEntity
  8
Ebene_1
 62
7
100
AcDbPolyline
 90
5
 70
1
 10
141.138560
 20
235.893883
 30
0.0
 10
141.138560
 20
235.895471
 30
0.0
 10
137.491913
 20
235.895471
 30
0.0
 10
137.491913
 20
232.246488
 30
0.0
 10
141.138560
 20
232.246488
 30
0.0
  0
LWPOLYLINE
  5
226
100
AcDbEntity
  8
Ebene_1
 62
7
100
AcDbPolyline
 90
20
 70
1
 10
159.373535
 20
225.267790
 30
0.0
 10
152.078608
 20
225.267790
 30
0.0
 10
152.078608
 20
217.656462
 30
0.0
 10
148.432618
 20
217.656462
 30
0.0
 10
148.432618
 20
214.011931
 30
0.0
 10
152.078608
 20
214.011931
 30
0.0
 10
152.078608
 20
206.715545
 30
0.0
 10
144.786621
 20
206.715545
 30
0.0
 10
144.786621
 20
217.656462
 30
0.0
 10
130.198243
 20
217.656462
 30
0.0
 10
130.198243
 20
210.363005
 30
0.0
 10
137.491701
 20
210.363005
 30
0.0
 10
137.491701
 20
206.712613
 30
0.0
 10
126.552246
 20
206.712613
 30
0.0
 10
126.552246
 20
210.363005
 30
0.0
 10
126.552246
 20
225.267790
 30
0.0
 10
124.485351
 20
225.267790
 30
0.0
 10
124.485351
 20
204.648650
 30
0.0
 10
159.373535
 20
204.648650
 30
0.0
 10
159.373535
 20
225.267790
 30
0.0
  0
LWPOLYLINE
  5
227
100
AcDbEntity
  8
Ebene_1
 62
7
100
AcDbPolyline
 90
21
 70
1
 10
124.485351
 20
254.134001
 30
0.0
 10
124.485351
 20
225.267790
 30
0.0
 10
126.552246
 20
225.267790
 30
0.0
 10
126.552246
 20
235.895232
 30
0.0
 10
130.198243
 20
235.895232
 30
0.0
 10
130.198243
 20
239.544157
 30
0.0
 10
133.845703
 20
239.544157
 30
0.0
 10
133.845703
 20
243.191618
 30
0.0
 10
137.491701
 20
243.191618
 30
0.0
 10
137.491701
 20
246.837614
 30
0.0
 10
141.139161
 20
246.837614
 30
0.0
 10
141.139161
 20
243.191618
 30
0.0
 10
144.786621
 20
243.191618
 30
0.0
 10
144.786621
 20
239.544157
 30
0.0
 10
148.432618
 20
239.544157
 30
0.0
 10
148.432618
 20
235.895232
 30
0.0
 10
152.078608
 20
235.895232
 30
0.0
 10
152.078608
 20
225.267790
 30
0.0
 10
159.373535
 20
225.267790
 30
0.0
 10
159.373535
 20
254.134001
 30
0.0
 10
124.485351
 20
254.134001
 30
0.0
  0
ENDSEC
  0
SECTION
  2
OBJECTS
  0
DICTIONARY
  5
C
330
0
100
AcDbDictionary
  3
ACAD_GROUP
350
D
  3
ACAD_MLINESTYLE
350
17
  0
DICTIONARY
  5
D
330
C
100
AcDbDictionary
  0
DICTIONARY
  5
1A
330
C
100
AcDbDictionary
  0
DICTIONARY
  5
17
330
C
100
AcDbDictionary
  3
STANDARD
350
18
  0
DICTIONARY
  5
19
330
C
100
AcDbDictionary
  0
ENDSEC
  0
EOF
