<?xml version="1.0" encoding="UTF-8" standalone="no"?>
<svg
   xmlns:dc="http://purl.org/dc/elements/1.1/"
   xmlns:cc="http://creativecommons.org/ns#"
   xmlns:rdf="http://www.w3.org/1999/02/22-rdf-syntax-ns#"
   xmlns:svg="http://www.w3.org/2000/svg"
   xmlns="http://www.w3.org/2000/svg"
   xmlns:xlink="http://www.w3.org/1999/xlink"
   id="svg8"
   version="1.1"
   viewBox="0 0 50 50"
   height="50mm"
   width="50mm">
  <defs
     id="defs2">
    <clipPath
       clipPathUnits="userSpaceOnUse"
       id="clipPath4532">
      <path
         d="M 0,362.164 H 596 V 69.039 H 0 Z"
         id="path4530" />
    </clipPath>
    <clipPath
       clipPathUnits="userSpaceOnUse"
       id="clipPath4542">
      <path
         d="M 11,89 H 587 V 344 H 11 Z"
         id="path4540" />
    </clipPath>
    <rect
       y="0"
       x="0"
       id="SVGID_1_"
       width="150.7"
       height="39.299999" />
    <rect
       y="0"
       x="0"
       id="SVGID_3_"
       width="150.7"
       height="39.299999" />
    <rect
       y="0"
       x="0"
       id="SVGID_5_"
       width="150.7"
       height="39.299999" />
    <rect
       y="0"
       x="0"
       id="SVGID_7_"
       width="150.7"
       height="39.299999" />
    <rect
       y="0"
       x="0"
       id="SVGID_9_"
       width="150.7"
       height="39.299999" />
    <rect
       y="0"
       x="0"
       id="SVGID_11_"
       width="150.7"
       height="39.299999" />
    <rect
       y="0"
       x="0"
       id="SVGID_13_"
       width="150.7"
       height="39.299999" />
    <rect
       y="0"
       x="0"
       id="SVGID_15_"
       width="150.7"
       height="39.299999" />
    <rect
       y="0"
       x="0"
       id="SVGID_17_"
       width="150.7"
       height="39.299999" />
    <rect
       y="0"
       x="0"
       id="SVGID_19_"
       width="150.7"
       height="39.299999" />
    <rect
       y="0"
       x="0"
       id="SVGID_21_"
       width="150.7"
       height="39.299999" />
    <defs
       id="defs4740">
      <rect
         y="0"
         x="0"
         id="rect4854"
         width="150.7"
         height="39.299999" />
    </defs>
    <clipPath
       id="SVGID_22_">
      <use
         height="100%"
         width="100%"
         y="0"
         x="0"
         xlink:href="#SVGID_21_"
         style="overflow:visible"
         id="use4742" />
    </clipPath>
    <defs
       id="defs4728">
      <rect
         y="0"
         x="0"
         id="rect4846"
         width="150.7"
         height="39.299999" />
    </defs>
    <clipPath
       id="SVGID_20_">
      <use
         height="100%"
         width="100%"
         y="0"
         x="0"
         xlink:href="#SVGID_19_"
         style="overflow:visible"
         id="use4730" />
    </clipPath>
    <defs
       id="defs4712">
      <rect
         y="0"
         x="0"
         id="rect4836"
         width="150.7"
         height="39.299999" />
    </defs>
    <clipPath
       id="SVGID_18_">
      <use
         height="100%"
         width="100%"
         y="0"
         x="0"
         xlink:href="#SVGID_17_"
         style="overflow:visible"
         id="use4714" />
    </clipPath>
    <defs
       id="defs4700">
      <rect
         y="0"
         x="0"
         id="rect4828"
         width="150.7"
         height="39.299999" />
    </defs>
    <clipPath
       id="SVGID_16_">
      <use
         height="100%"
         width="100%"
         y="0"
         x="0"
         xlink:href="#SVGID_15_"
         style="overflow:visible"
         id="use4702" />
    </clipPath>
    <defs
       id="defs4688">
      <rect
         y="0"
         x="0"
         id="rect4820"
         width="150.7"
         height="39.299999" />
    </defs>
    <clipPath
       id="SVGID_14_">
      <use
         height="100%"
         width="100%"
         y="0"
         x="0"
         xlink:href="#SVGID_13_"
         style="overflow:visible"
         id="use4690" />
    </clipPath>
    <defs
       id="defs4670">
      <rect
         y="0"
         x="0"
         id="rect4809"
         width="150.7"
         height="39.299999" />
    </defs>
    <clipPath
       id="SVGID_12_">
      <use
         height="100%"
         width="100%"
         y="0"
         x="0"
         xlink:href="#SVGID_11_"
         style="overflow:visible"
         id="use4672" />
    </clipPath>
    <defs
       id="defs4656">
      <rect
         y="0"
         x="0"
         id="rect4800"
         width="150.7"
         height="39.299999" />
    </defs>
    <clipPath
       id="SVGID_10_">
      <use
         height="100%"
         width="100%"
         y="0"
         x="0"
         xlink:href="#SVGID_9_"
         style="overflow:visible"
         id="use4658" />
    </clipPath>
    <defs
       id="defs4644">
      <rect
         y="0"
         x="0"
         id="rect4792"
         width="150.7"
         height="39.299999" />
    </defs>
    <clipPath
       id="SVGID_8_">
      <use
         height="100%"
         width="100%"
         y="0"
         x="0"
         xlink:href="#SVGID_7_"
         style="overflow:visible"
         id="use4646" />
    </clipPath>
    <defs
       id="defs4632">
      <rect
         y="0"
         x="0"
         id="rect4784"
         width="150.7"
         height="39.299999" />
    </defs>
    <clipPath
       id="SVGID_6_">
      <use
         height="100%"
         width="100%"
         y="0"
         x="0"
         xlink:href="#SVGID_5_"
         style="overflow:visible"
         id="use4634" />
    </clipPath>
    <defs
       id="defs4620">
      <rect
         y="0"
         x="0"
         id="rect4776"
         width="150.7"
         height="39.299999" />
    </defs>
    <clipPath
       id="SVGID_4_">
      <use
         height="100%"
         width="100%"
         y="0"
         x="0"
         xlink:href="#SVGID_3_"
         style="overflow:visible"
         id="use4622" />
    </clipPath>
    <defs
       id="defs4608">
      <rect
         y="0"
         x="0"
         id="rect4768"
         width="150.7"
         height="39.299999" />
    </defs>
    <clipPath
       id="SVGID_2_">
      <use
         height="100%"
         width="100%"
         y="0"
         x="0"
         xlink:href="#SVGID_1_"
         style="overflow:visible"
         id="use4610" />
    </clipPath>
  </defs>
  <metadata
     id="metadata5">
    <rdf:RDF>
      <cc:Work
         rdf:about="">
        <dc:format>image/svg+xml</dc:format>
        <dc:type
           rdf:resource="http://purl.org/dc/dcmitype/StillImage" />
        <dc:title></dc:title>
      </cc:Work>
    </rdf:RDF>
  </metadata>
  <g
     style="opacity:0.43999999"
     id="layer2" />
  <g
     style="opacity:1"
     transform="translate(0,-247)"
     id="layer1">
    <path
       d="m 2.5000771,293.99324 0,-1.7883 H 2.740782 v 0.75043 h 1.8732503 v 0.28743 H 2.740782 l 0,0.75044 z"
       style="font-style:normal;font-weight:normal;font-size:medium;line-height:1.25;font-family:sans-serif;letter-spacing:0px;word-spacing:0px;fill:#000000;fill-opacity:1;stroke:none;stroke-width:0.07249465"
       id="path944" />
    <path
       d="m 2.5000771,292.27149 v -1.7883 H 2.740782 v 0.75044 h 1.8732503 v 0.28743 H 2.740782 v 0.75043 z"
       style="font-style:normal;font-weight:normal;font-size:medium;line-height:1.25;font-family:sans-serif;letter-spacing:0px;word-spacing:0px;fill:#000000;fill-opacity:1;stroke:none;stroke-width:0.07249465"
       id="path946" />
    <path
       d="m 2.5000771,290.20567 v -0.38512 L 4.26855,288.88321 H 2.5000771 v -0.27751 h 2.1139552 v 0.38512 l -1.7684729,0.93734 h 1.7684729 v 0.27751 z"
       style="font-style:normal;font-weight:normal;font-size:medium;line-height:1.25;font-family:sans-serif;letter-spacing:0px;word-spacing:0px;fill:#000000;fill-opacity:1;stroke:none;stroke-width:0.07249465"
       id="path948" />
    <path
       d="m 2.5000771,287.14589 v -0.28743 h 1.2842313 q 0.3398187,0 0.4899052,-0.12318 0.1486707,-0.12319 0.1486707,-0.39929 0,-0.27469 -0.1486707,-0.39787 -0.1500865,-0.12319 -0.4899052,-0.12319 H 2.5000771 v -0.28742 h 1.3196291 q 0.413446,0 0.6244167,0.2053 0.2109708,0.20389 0.2109708,0.60318 0,0.4007 -0.2109708,0.60601 -0.2109707,0.20389 -0.6244167,0.20389 z"
       style="font-style:normal;font-weight:normal;font-size:medium;line-height:1.25;font-family:sans-serif;letter-spacing:0px;word-spacing:0px;fill:#000000;fill-opacity:1;stroke:none;stroke-width:0.07249465"
       id="path950" />
    <path
       d="m 2.4108747,285.00079 v -0.26053 h 2.2031576 v 0.26053 z"
       style="font-style:normal;font-weight:normal;font-size:medium;line-height:1.25;font-family:sans-serif;letter-spacing:0px;word-spacing:0px;fill:#000000;fill-opacity:1;stroke:none;stroke-width:0.07249465"
       id="path952" />
    <path
       d="m 3.3326328,282.96187 q -0.175573,-0.0977 -0.2591117,-0.23362 -0.083539,-0.13593 -0.083539,-0.32 0,-0.24778 0.1741571,-0.38229 0.1727411,-0.13451 0.492737,-0.13451 h 0.9571559 v 0.26194 H 3.6653719 q -0.2279617,0 -0.3384027,0.0807 -0.1104411,0.0807 -0.1104411,0.24636 0,0.20248 0.1345115,0.32 0.1345116,0.11752 0.366721,0.11752 h 0.8962717 v 0.26194 H 3.6653719 q -0.2293776,0 -0.3384027,0.0807 -0.1104411,0.0807 -0.1104411,0.2492 0,0.19964 0.1359275,0.31717 0.1345115,0.11752 0.365305,0.11752 h 0.8962717 v 0.26194 H 3.0282119 v -0.26194 h 0.2463685 q -0.1458388,-0.0892 -0.2152184,-0.21381 -0.06938,-0.1246 -0.06938,-0.29592 0,-0.17274 0.087786,-0.2931 0.087786,-0.12176 0.254864,-0.17982 z"
       style="font-style:normal;font-weight:normal;font-size:medium;line-height:1.25;font-family:sans-serif;letter-spacing:0px;word-spacing:0px;fill:#000000;fill-opacity:1;stroke:none;stroke-width:0.07249465"
       id="path954" />
    <path
       d="m 2.5000771,280.43589 v -0.42619 l 1.4385656,-0.53946 -1.4385656,-0.5423 v -0.42619 h 2.1139552 v 0.27894 H 2.7577729 l 1.4498929,0.54512 v 0.28743 l -1.4498929,0.54513 h 1.8562594 v 0.27752 z"
       style="font-style:normal;font-weight:normal;font-size:medium;line-height:1.25;font-family:sans-serif;letter-spacing:0px;word-spacing:0px;fill:#000000;fill-opacity:1;stroke:none;stroke-width:0.07249465"
       id="path956" />
    <path
       d="m 3.0282119,277.94389 v -0.26053 h 1.5858204 v 0.26053 z m -0.6173372,0 v -0.26053 H 2.740782 v 0.26053 z"
       style="font-style:normal;font-weight:normal;font-size:medium;line-height:1.25;font-family:sans-serif;letter-spacing:0px;word-spacing:0px;fill:#000000;fill-opacity:1;stroke:none;stroke-width:0.07249465"
       id="path958" />
    <path
       d="m 3.6568764,275.82143 h 0.9571559 v 0.26053 H 3.6653719 q -0.2251299,0 -0.3369868,0.0878 -0.111857,0.0878 -0.111857,0.26336 0,0.21097 0.1345115,0.33274 0.1345116,0.12177 0.366721,0.12177 h 0.8962717 v 0.26194 H 3.0282119 v -0.26194 h 0.2463685 q -0.143007,-0.0935 -0.2138025,-0.21947 -0.070796,-0.12743 -0.070796,-0.29309 0,-0.27328 0.1699094,-0.41345 0.1684934,-0.14018 0.4969847,-0.14018 z"
       style="font-style:normal;font-weight:normal;font-size:medium;line-height:1.25;font-family:sans-serif;letter-spacing:0px;word-spacing:0px;fill:#000000;fill-opacity:1;stroke:none;stroke-width:0.07249465"
       id="path960" />
    <path
       d="m 3.0282119,275.29896 v -0.26052 h 1.5858204 v 0.26052 z m -0.6173372,0 v -0.26052 H 2.740782 v 0.26052 z"
       style="font-style:normal;font-weight:normal;font-size:medium;line-height:1.25;font-family:sans-serif;letter-spacing:0px;word-spacing:0px;fill:#000000;fill-opacity:1;stroke:none;stroke-width:0.07249465"
       id="path962" />
    <path
       d="M 2.5000771,273.56023 V 273.1751 L 4.26855,272.23776 H 2.5000771 l 0,-0.27751 h 2.1139552 v 0.38512 l -1.7684729,0.93734 h 1.7684729 v 0.27752 z"
       style="font-style:normal;font-weight:normal;font-size:medium;line-height:1.25;font-family:sans-serif;letter-spacing:0px;word-spacing:0px;fill:#000000;fill-opacity:1;stroke:none;stroke-width:0.07249465"
       id="path964" />
    <path
       d="m 3.2108645,270.78787 q 0,0.20956 0.1642456,0.33132 0.1628298,0.12177 0.4474279,0.12177 0.2845981,0 0.4488438,-0.12035 0.1628298,-0.12177 0.1628298,-0.33274 0,-0.20814 -0.1642457,-0.32991 -0.1642457,-0.12176 -0.4474279,-0.12176 -0.2817663,0 -0.446012,0.12176 -0.1656615,0.12177 -0.1656615,0.32991 z m -0.2208822,0 q 0,-0.33982 0.2208822,-0.5338 0.2208821,-0.19398 0.6116735,-0.19398 0.3893755,0 0.6116736,0.19398 0.2208821,0.19398 0.2208821,0.5338 0,0.34124 -0.2208821,0.53522 -0.2222981,0.19256 -0.6116736,0.19256 -0.3907914,0 -0.6116735,-0.19256 -0.2208822,-0.19398 -0.2208822,-0.53522 z"
       style="font-style:normal;font-weight:normal;font-size:medium;line-height:1.25;font-family:sans-serif;letter-spacing:0px;word-spacing:0px;fill:#000000;fill-opacity:1;stroke:none;stroke-width:0.07249465"
       id="path966" />
    <path
       d="M 3.2689168,268.58613 H 2.4108747 v -0.26053 h 2.2031576 l 0,0.26053 H 4.3761592 q 0.1415911,0.0821 0.2109708,0.20814 0.067964,0.1246 0.067964,0.30017 0,0.28743 -0.2293776,0.46867 -0.2293776,0.17982 -0.6031781,0.17982 -0.3738005,0 -0.6031781,-0.17982 -0.2293776,-0.18124 -0.2293776,-0.46867 0,-0.17557 0.06938,-0.30017 0.067964,-0.12602 0.2095542,-0.20814 z m 0.5536212,0.88778 q 0.2874299,0 0.4516756,-0.11752 0.1628298,-0.11894 0.1628298,-0.32566 0,-0.20673 -0.1628298,-0.32566 -0.1642457,-0.11894 -0.4516756,-0.11894 -0.2874299,0 -0.4502597,0.11894 -0.1642457,0.11893 -0.1642457,0.32566 0,0.20672 0.1642457,0.32566 0.1628298,0.11752 0.4502597,0.11752 z"
       style="font-style:normal;font-weight:normal;font-size:medium;line-height:1.25;font-family:sans-serif;letter-spacing:0px;word-spacing:0px;fill:#000000;fill-opacity:1;stroke:none;stroke-width:0.07249465"
       id="path968" />
    <path
       d="m 3.7559902,266.43253 h 0.127432 v 1.19786 q 0.2690231,-0.017 0.4106142,-0.16141 0.1401752,-0.14584 0.1401752,-0.40495 0,-0.15009 -0.036814,-0.29027 -0.036814,-0.14159 -0.1104411,-0.28035 H 4.533325 q 0.059468,0.14018 0.090618,0.28743 0.03115,0.14726 0.03115,0.29876 0,0.37946 -0.2208821,0.60176 -0.2208821,0.22088 -0.5975145,0.22088 -0.3893755,0 -0.6173372,-0.20955 -0.2293776,-0.21097 -0.2293776,-0.56778 0,-0.32 0.206723,-0.50548 0.2053071,-0.1869 0.5592856,-0.1869 z m -0.076459,0.26053 q -0.2138026,0.003 -0.3412346,0.12035 -0.1274319,0.1161 -0.1274319,0.30867 0,0.21805 0.1231842,0.34973 0.1231843,0.13026 0.3468982,0.15008 z"
       style="font-style:normal;font-weight:normal;font-size:medium;line-height:1.25;font-family:sans-serif;letter-spacing:0px;word-spacing:0px;fill:#000000;fill-opacity:1;stroke:none;stroke-width:0.07249465"
       id="path970" />
    <path
       d="m 3.0282119,265.26865 v -0.2761 l 1.3309564,-0.49557 -1.3309564,-0.49557 v -0.2761 l 1.5858204,0.59468 v 0.35398 z"
       style="font-style:normal;font-weight:normal;font-size:medium;line-height:1.25;font-family:sans-serif;letter-spacing:0px;word-spacing:0px;fill:#000000;fill-opacity:1;stroke:none;stroke-width:0.07249465"
       id="path972" />
    <path
       d="m 4.3733274,263.2793 v -0.46726 H 2.7606048 l 0.1019455,0.50832 H 2.6020227 l -0.1019456,-0.50548 v -0.28602 h 1.8732503 v -0.46725 h 0.2407049 v 1.21769 z"
       style="font-style:normal;font-weight:normal;font-size:medium;line-height:1.25;font-family:sans-serif;letter-spacing:0px;word-spacing:0px;fill:#000000;fill-opacity:1;stroke:none;stroke-width:0.07249465"
       id="path974" />
    <path
       d="m 4.2543909,261.4825 v -0.29875 h 0.3596414 v 0.29875 z"
       style="font-style:normal;font-weight:normal;font-size:medium;line-height:1.25;font-family:sans-serif;letter-spacing:0px;word-spacing:0px;fill:#000000;fill-opacity:1;stroke:none;stroke-width:0.07249465"
       id="path976" />
    <path
       d="m 2.6883933,259.94766 q 0,0.22088 0.2180503,0.33274 0.2166344,0.11044 0.652735,0.11044 0.4346846,0 0.6527349,-0.11044 0.2166344,-0.11186 0.2166344,-0.33274 0,-0.2223 -0.2166344,-0.33274 -0.2180503,-0.11186 -0.6527349,-0.11186 -0.4361006,0 -0.652735,0.11186 -0.2180503,0.11044 -0.2180503,0.33274 z m -0.2265458,0 q 0,-0.3554 0.2817663,-0.5423 0.2803504,-0.18831 0.8155648,-0.18831 0.5337984,0 0.8155647,0.18831 0.2803504,0.1869 0.2803504,0.5423 0,0.35539 -0.2803504,0.54371 -0.2817663,0.1869 -0.8155647,0.1869 -0.5352144,0 -0.8155648,-0.1869 -0.2817663,-0.18832 -0.2817663,-0.54371 z"
       style="font-style:normal;font-weight:normal;font-size:medium;line-height:1.25;font-family:sans-serif;letter-spacing:0px;word-spacing:0px;fill:#000000;fill-opacity:1;stroke:none;stroke-width:0.07249465"
       id="path978" />
    <path
       d="m 7.2816086,292.39326 h 0.9571559 v 0.26052 H 7.2901041 q -0.2251299,0 -0.3369868,0.0878 -0.111857,0.0878 -0.111857,0.26336 0,0.21097 0.1345115,0.33274 0.1345116,0.12177 0.366721,0.12177 h 0.8962717 v 0.26194 H 6.0356069 v -0.26194 h 0.8637057 q -0.143007,-0.0934 -0.2138025,-0.21947 -0.070796,-0.12743 -0.070796,-0.29309 0,-0.27327 0.1699094,-0.41345 0.1684934,-0.14017 0.4969847,-0.14017 z"
       style="font-style:normal;font-weight:normal;font-size:medium;line-height:1.25;font-family:sans-serif;letter-spacing:0px;word-spacing:0px;fill:#000000;fill-opacity:1;stroke:none;stroke-width:0.07249465"
       id="path980" />
    <path
       d="m 6.2026844,291.61309 h 0.4502597 v -0.53663 h 0.2024753 v 0.53663 h 0.8608739 q 0.1939798,0 0.2492003,-0.0524 0.055221,-0.0538 0.055221,-0.21663 v -0.26761 h 0.2180503 v 0.26761 q 0,0.30159 -0.111857,0.41628 -0.1132729,0.11468 -0.4106142,0.11468 H 6.8554194 v 0.19115 H 6.6529441 v -0.19115 H 6.2026844 Z"
       style="font-style:normal;font-weight:normal;font-size:medium;line-height:1.25;font-family:sans-serif;letter-spacing:0px;word-spacing:0px;fill:#000000;fill-opacity:1;stroke:none;stroke-width:0.07249465"
       id="path982" />
    <path
       d="m 6.2026844,290.4747 h 0.4502597 v -0.53663 h 0.2024753 v 0.53663 h 0.8608739 q 0.1939798,0 0.2492003,-0.0524 0.055221,-0.0538 0.055221,-0.21664 v -0.2676 h 0.2180503 v 0.2676 q 0,0.30159 -0.111857,0.41628 -0.1132729,0.11469 -0.4106142,0.11469 H 6.8554194 v 0.19115 H 6.6529441 v -0.19115 H 6.2026844 Z"
       style="font-style:normal;font-weight:normal;font-size:medium;line-height:1.25;font-family:sans-serif;letter-spacing:0px;word-spacing:0px;fill:#000000;fill-opacity:1;stroke:none;stroke-width:0.07249465"
       id="path984" />
    <path
       d="m 8.0008914,289.34197 h 0.8410512 v 0.26194 H 6.6529441 v -0.26194 H 6.893649 q -0.1415911,-0.0821 -0.2095548,-0.20672 -0.06938,-0.12602 -0.06938,-0.30018 0,-0.28884 0.2293776,-0.46866 0.2293776,-0.18124 0.6031781,-0.18124 0.3738005,0 0.6031781,0.18124 0.2293776,0.17982 0.2293776,0.46866 0,0.17416 -0.067964,0.30018 -0.06938,0.1246 -0.2109702,0.20672 z m -0.5536212,-0.88636 q -0.2874299,0 -0.4502597,0.11894 -0.1642457,0.11752 -0.1642457,0.32424 0,0.20672 0.1642457,0.32566 0.1628298,0.11752 0.4502597,0.11752 0.2874299,0 0.4516756,-0.11752 0.1628298,-0.11894 0.1628298,-0.32566 0,-0.20672 -0.1628298,-0.32424 -0.1642457,-0.11894 -0.4516756,-0.11894 z"
       style="font-style:normal;font-weight:normal;font-size:medium;line-height:1.25;font-family:sans-serif;letter-spacing:0px;word-spacing:0px;fill:#000000;fill-opacity:1;stroke:none;stroke-width:0.07249465"
       id="path986" />
    <path
       d="m 6.6996692,286.74236 h 0.2463685 q -0.056636,0.11044 -0.084955,0.22937 -0.028318,0.11894 -0.028318,0.24637 0,0.19398 0.059468,0.29168 0.059468,0.0963 0.1784048,0.0963 0.090618,0 0.143007,-0.0694 0.050973,-0.0694 0.097698,-0.27893 l 0.019823,-0.0892 q 0.059468,-0.27752 0.1684934,-0.39363 0.1076093,-0.11752 0.3015891,-0.11752 0.2208821,0 0.34973,0.17557 0.1288479,0.17416 0.1288479,0.48 0,0.12743 -0.025486,0.26619 -0.024071,0.13734 -0.073627,0.29026 H 7.911689 q 0.075043,-0.14442 0.1132729,-0.2846 0.036814,-0.14017 0.036814,-0.27752 0,-0.18406 -0.0623,-0.28318 -0.063716,-0.0991 -0.1784048,-0.0991 -0.1061933,0 -0.1628298,0.0722 -0.056636,0.0708 -0.1090251,0.31292 l -0.021239,0.0906 q -0.050973,0.24213 -0.1557502,0.34973 -0.1061933,0.10761 -0.2902617,0.10761 -0.223714,0 -0.3454823,-0.15858 -0.1217684,-0.15858 -0.1217684,-0.45026 0,-0.14442 0.021239,-0.27185 0.021239,-0.12743 0.063716,-0.23504 z"
       style="font-style:normal;font-weight:normal;font-size:medium;line-height:1.25;font-family:sans-serif;letter-spacing:0px;word-spacing:0px;fill:#000000;fill-opacity:1;stroke:none;stroke-width:0.07249465"
       id="path988" />
    <path
       d="m 7.8791231,286.17458 v -0.29876 h 0.3596414 v 0.29876 z m -1.1398084,0 v -0.29876 h 0.3596414 v 0.29876 z"
       style="font-style:normal;font-weight:normal;font-size:medium;line-height:1.25;font-family:sans-serif;letter-spacing:0px;word-spacing:0px;fill:#000000;fill-opacity:1;stroke:none;stroke-width:0.07249465"
       id="path990" />
    <path
       d="m 6.1248093,284.79831 v -0.2407 l 2.3829783,0.73627 v 0.2407 z"
       style="font-style:normal;font-weight:normal;font-size:medium;line-height:1.25;font-family:sans-serif;letter-spacing:0px;word-spacing:0px;fill:#000000;fill-opacity:1;stroke:none;stroke-width:0.07249465"
       id="path992" />
    <path
       d="m 6.1248093,283.8185 v -0.2407 l 2.3829783,0.73627 v 0.2407 z"
       style="font-style:normal;font-weight:normal;font-size:medium;line-height:1.25;font-family:sans-serif;letter-spacing:0px;word-spacing:0px;fill:#000000;fill-opacity:1;stroke:none;stroke-width:0.07249465"
       id="path994" />
    <path
       d="m 6.0356069,283.30169 v -0.26052 h 2.2031576 v 0.26052 z"
       style="font-style:normal;font-weight:normal;font-size:medium;line-height:1.25;font-family:sans-serif;letter-spacing:0px;word-spacing:0px;fill:#000000;fill-opacity:1;stroke:none;stroke-width:0.07249465"
       id="path996" />
    <path
       d="m 6.8355966,281.88295 q 0,0.20955 0.1642457,0.33132 0.1628298,0.12177 0.4474279,0.12177 0.2845981,0 0.4488438,-0.12035 0.1628298,-0.12177 0.1628298,-0.33274 0,-0.20814 -0.1642457,-0.32991 -0.1642457,-0.12177 -0.4474279,-0.12177 -0.2817663,0 -0.446012,0.12177 -0.1656616,0.12177 -0.1656616,0.32991 z m -0.2208821,0 q 0,-0.33982 0.2208821,-0.5338 0.2208822,-0.19398 0.6116736,-0.19398 0.3893755,0 0.6116736,0.19398 0.2208821,0.19398 0.2208821,0.5338 0,0.34123 -0.2208821,0.53521 -0.2222981,0.19257 -0.6116736,0.19257 -0.3907914,0 -0.6116736,-0.19257 -0.2208821,-0.19398 -0.2208821,-0.53521 z"
       style="font-style:normal;font-weight:normal;font-size:medium;line-height:1.25;font-family:sans-serif;letter-spacing:0px;word-spacing:0px;fill:#000000;fill-opacity:1;stroke:none;stroke-width:0.07249465"
       id="path998" />
    <path
       d="m 6.8964808,279.80581 q -0.025486,0.0439 -0.036814,0.0963 -0.012743,0.051 -0.012743,0.11327 0,0.22089 0.144423,0.33982 0.143007,0.11752 0.4120301,0.11752 h 0.8353875 v 0.26195 H 6.6529441 v -0.26195 h 0.2463685 q -0.1444229,-0.0821 -0.2138025,-0.2138 -0.070796,-0.13168 -0.070796,-0.32 0,-0.0269 0.00425,-0.0595 0.00283,-0.0326 0.00991,-0.0722 z"
       style="font-style:normal;font-weight:normal;font-size:medium;line-height:1.25;font-family:sans-serif;letter-spacing:0px;word-spacing:0px;fill:#000000;fill-opacity:1;stroke:none;stroke-width:0.07249465"
       id="path1000" />
    <path
       d="m 7.4416066,278.80901 q 0,0.31575 0.072211,0.43751 0.072212,0.12177 0.2463685,0.12177 0.1387593,0 0.2208822,-0.0906 0.080707,-0.092 0.080707,-0.2492 0,-0.21663 -0.1529184,-0.34689 -0.1543343,-0.13168 -0.4091983,-0.13168 h -0.058052 z m -0.1076093,-0.51964 h 0.9047672 v 0.26053 H 7.9980596 q 0.1444229,0.0892 0.2138026,0.22229 0.067964,0.1331 0.067964,0.32566 0,0.24354 -0.1359275,0.38796 -0.1373433,0.14301 -0.3667209,0.14301 -0.2676072,0 -0.4035347,-0.17841 -0.1359274,-0.17982 -0.1359274,-0.53521 v -0.3653 H 7.212229 q -0.1798207,0 -0.2775186,0.11893 -0.099114,0.11752 -0.099114,0.33133 0,0.13592 0.032566,0.26477 0.032566,0.12885 0.097698,0.24778 H 6.7251556 q -0.05522,-0.143 -0.082123,-0.27751 -0.028318,-0.13452 -0.028318,-0.26195 0,-0.34406 0.1784048,-0.51397 0.1784048,-0.16991 0.5408779,-0.16991 z"
       style="font-style:normal;font-weight:normal;font-size:medium;line-height:1.25;font-family:sans-serif;letter-spacing:0px;word-spacing:0px;fill:#000000;fill-opacity:1;stroke:none;stroke-width:0.07249465"
       id="path1002" />
    <path
       d="m 7.8791231,277.71451 v -0.29876 h 0.3596414 v 0.29876 z"
       style="font-style:normal;font-weight:normal;font-size:medium;line-height:1.25;font-family:sans-serif;letter-spacing:0px;word-spacing:0px;fill:#000000;fill-opacity:1;stroke:none;stroke-width:0.07249465"
       id="path1004" />
    <path
       d="M 7.6129318,276.85505 H 6.6529441 v -0.26053 h 0.9500763 q 0.2251299,0 0.3384028,-0.0878 0.1118569,-0.0878 0.1118569,-0.26335 0,-0.21098 -0.1345115,-0.33274 -0.1345116,-0.12319 -0.366721,-0.12319 H 6.6529441 v -0.26053 h 1.5858204 l 0,0.26053 H 7.9952278 q 0.1444229,0.0949 0.2152184,0.22088 0.06938,0.1246 0.06938,0.29027 0,0.27327 -0.1699093,0.41486 -0.1699094,0.14159 -0.4969848,0.14159 z m -0.9982173,-0.65557 z"
       style="font-style:normal;font-weight:normal;font-size:medium;line-height:1.25;font-family:sans-serif;letter-spacing:0px;word-spacing:0px;fill:#000000;fill-opacity:1;stroke:none;stroke-width:0.07249465"
       id="path1006" />
    <path
       d="m 6.0356069,274.98746 v -0.26052 h 2.2031576 v 0.26052 z"
       style="font-style:normal;font-weight:normal;font-size:medium;line-height:1.25;font-family:sans-serif;letter-spacing:0px;word-spacing:0px;fill:#000000;fill-opacity:1;stroke:none;stroke-width:0.07249465"
       id="path1008" />
    <path
       d="m 6.957365,272.94855 q -0.175573,-0.0977 -0.2591117,-0.23362 -0.083539,-0.13593 -0.083539,-0.32 0,-0.24778 0.1741571,-0.3823 0.1727411,-0.13451 0.492737,-0.13451 h 0.9571559 v 0.26195 H 7.2901041 q -0.2279617,0 -0.3384027,0.0807 -0.1104411,0.0807 -0.1104411,0.24637 0,0.20248 0.1345115,0.32 0.1345116,0.11752 0.366721,0.11752 h 0.8962717 v 0.26194 H 7.2901041 q -0.2293776,0 -0.3384027,0.0807 -0.1104411,0.0807 -0.1104411,0.2492 0,0.19964 0.1359275,0.31716 0.1345115,0.11752 0.365305,0.11752 h 0.8962717 v 0.26195 H 6.6529441 v -0.26195 h 0.2463685 q -0.1458388,-0.0892 -0.2152184,-0.2138 -0.06938,-0.1246 -0.06938,-0.29592 0,-0.17274 0.087786,-0.2931 0.087786,-0.12177 0.254864,-0.17982 z"
       style="font-style:normal;font-weight:normal;font-size:medium;line-height:1.25;font-family:sans-serif;letter-spacing:0px;word-spacing:0px;fill:#000000;fill-opacity:1;stroke:none;stroke-width:0.07249465"
       id="path1010" />
    <path
       d="m 7.3283337,271.48875 v -0.76318 h 0.2322094 v 0.76318 z"
       style="font-style:normal;font-weight:normal;font-size:medium;line-height:1.25;font-family:sans-serif;letter-spacing:0px;word-spacing:0px;fill:#000000;fill-opacity:1;stroke:none;stroke-width:0.07249465"
       id="path1012" />
    <path
       d="M 6.893649,269.26577 H 6.0356069 v -0.26053 h 2.2031576 v 0.26053 H 8.0008914 q 0.1415911,0.0821 0.2109708,0.20814 0.067964,0.1246 0.067964,0.30017 0,0.28743 -0.2293776,0.46866 -0.2293776,0.17983 -0.6031781,0.17983 -0.3738005,0 -0.6031781,-0.17983 -0.2293776,-0.18123 -0.2293776,-0.46866 0,-0.17557 0.06938,-0.30017 0.067964,-0.12602 0.2095542,-0.20814 z m 0.5536212,0.88777 q 0.2874299,0 0.4516756,-0.11752 0.1628298,-0.11893 0.1628298,-0.32566 0,-0.20672 -0.1628298,-0.32566 -0.1642457,-0.11893 -0.4516756,-0.11893 -0.2874299,0 -0.4502597,0.11893 -0.1642457,0.11894 -0.1642457,0.32566 0,0.20673 0.1642457,0.32566 0.1628298,0.11752 0.4502597,0.11752 z"
       style="font-style:normal;font-weight:normal;font-size:medium;line-height:1.25;font-family:sans-serif;letter-spacing:0px;word-spacing:0px;fill:#000000;fill-opacity:1;stroke:none;stroke-width:0.07249465"
       id="path1014" />
    <path
       d="m 6.6529441,268.46861 0,-0.26053 h 1.5858204 v 0.26053 z m -0.6173372,0 0,-0.26053 h 0.3299073 l 0,0.26053 z"
       style="font-style:normal;font-weight:normal;font-size:medium;line-height:1.25;font-family:sans-serif;letter-spacing:0px;word-spacing:0px;fill:#000000;fill-opacity:1;stroke:none;stroke-width:0.07249465"
       id="path1016" />
    <path
       d="m 7.4274475,266.62085 q -0.2831822,0 -0.4389325,0.11752 -0.1557502,0.1161 -0.1557502,0.32707 0,0.20956 0.1557502,0.32708 0.1557503,0.1161 0.4389325,0.1161 0.2817662,0 0.4375165,-0.1161 0.1557502,-0.11752 0.1557502,-0.32708 0,-0.21097 -0.1557502,-0.32707 -0.1557503,-0.11752 -0.4375165,-0.11752 z m 0.6145053,-0.26053 q 0.4049506,0 0.6017622,0.17982 0.1982276,0.17982 0.1982276,0.55079 0,0.13734 -0.021239,0.25911 -0.019823,0.12177 -0.0623,0.23646 H 8.5049557 q 0.0623,-0.11469 0.092034,-0.22655 0.029734,-0.11186 0.029734,-0.22796 0,-0.25628 -0.1345116,-0.38371 -0.1330956,-0.12743 -0.4035346,-0.12743 H 7.95983 q 0.1401752,0.0807 0.2095548,0.20672 0.06938,0.12601 0.06938,0.30159 0,0.29168 -0.2222981,0.47008 -0.222298,0.17841 -0.5890189,0.17841 -0.3681369,0 -0.5904349,-0.17841 -0.2222981,-0.1784 -0.2222981,-0.47008 0,-0.17558 0.06938,-0.30159 0.06938,-0.12602 0.2095548,-0.20672 H 6.6529441 v -0.26053 z"
       style="font-style:normal;font-weight:normal;font-size:medium;line-height:1.25;font-family:sans-serif;letter-spacing:0px;word-spacing:0px;fill:#000000;fill-opacity:1;stroke:none;stroke-width:0.07249465"
       id="path1018" />
    <path
       d="m 6.6529441,265.82369 v -0.26053 h 1.5858204 v 0.26053 z m -0.6173372,0 v -0.26053 h 0.3299073 v 0.26053 z"
       style="font-style:normal;font-weight:normal;font-size:medium;line-height:1.25;font-family:sans-serif;letter-spacing:0px;word-spacing:0px;fill:#000000;fill-opacity:1;stroke:none;stroke-width:0.07249465"
       id="path1020" />
    <path
       d="m 6.2026844,264.76175 h 0.4502597 v -0.53663 h 0.2024753 v 0.53663 h 0.8608739 q 0.1939798,0 0.2492003,-0.0524 0.055221,-0.0538 0.055221,-0.21664 v -0.26761 h 0.2180503 v 0.26761 q 0,0.30159 -0.111857,0.41628 -0.1132729,0.11469 -0.4106142,0.11469 H 6.8554194 v 0.19115 H 6.6529441 v -0.19115 H 6.2026844 Z"
       style="font-style:normal;font-weight:normal;font-size:medium;line-height:1.25;font-family:sans-serif;letter-spacing:0px;word-spacing:0px;fill:#000000;fill-opacity:1;stroke:none;stroke-width:0.07249465"
       id="path1022" />
    <path
       d="m 7.4416066,263.16036 q 0,0.31575 0.072211,0.43751 0.072212,0.12177 0.2463685,0.12177 0.1387593,0 0.2208822,-0.0906 0.080707,-0.092 0.080707,-0.2492 0,-0.21663 -0.1529184,-0.34689 -0.1543343,-0.13168 -0.4091983,-0.13168 h -0.058052 z m -0.1076093,-0.51964 h 0.9047672 v 0.26053 H 7.9980596 q 0.1444229,0.0892 0.2138026,0.22229 0.067964,0.1331 0.067964,0.32566 0,0.24354 -0.1359275,0.38796 -0.1373433,0.14301 -0.3667209,0.14301 -0.2676072,0 -0.4035347,-0.1784 -0.1359274,-0.17983 -0.1359274,-0.53522 v -0.3653 H 7.212229 q -0.1798207,0 -0.2775186,0.11893 -0.099114,0.11752 -0.099114,0.33133 0,0.13592 0.032566,0.26477 0.032566,0.12885 0.097698,0.24779 H 6.7251556 q -0.05522,-0.14301 -0.082123,-0.27752 -0.028318,-0.13451 -0.028318,-0.26195 0,-0.34406 0.1784048,-0.51397 0.1784048,-0.16991 0.5408779,-0.16991 z"
       style="font-style:normal;font-weight:normal;font-size:medium;line-height:1.25;font-family:sans-serif;letter-spacing:0px;word-spacing:0px;fill:#000000;fill-opacity:1;stroke:none;stroke-width:0.07249465"
       id="path1024" />
    <path
       d="m 6.0356069,262.10267 v -0.26052 h 2.2031576 v 0.26052 z"
       style="font-style:normal;font-weight:normal;font-size:medium;line-height:1.25;font-family:sans-serif;letter-spacing:0px;word-spacing:0px;fill:#000000;fill-opacity:1;stroke:none;stroke-width:0.07249465"
       id="path1026" />
    <path
       d="m 7.8791231,261.26162 v -0.29876 h 0.3596414 v 0.29876 z"
       style="font-style:normal;font-weight:normal;font-size:medium;line-height:1.25;font-family:sans-serif;letter-spacing:0px;word-spacing:0px;fill:#000000;fill-opacity:1;stroke:none;stroke-width:0.07249465"
       id="path1028" />
    <path
       d="M 6.7138283,259.23404 H 6.957365 q -0.060884,0.11044 -0.090618,0.2223 -0.03115,0.11044 -0.03115,0.22371 0,0.25345 0.1614139,0.39362 0.159998,0.14018 0.4502597,0.14018 0.2902618,0 0.4516756,-0.14018 0.159998,-0.14017 0.159998,-0.39362 0,-0.11327 -0.029734,-0.22371 -0.03115,-0.11186 -0.092034,-0.2223 h 0.2407049 q 0.050973,0.10902 0.076459,0.22654 0.025486,0.11611 0.025486,0.24779 0,0.35822 -0.2251299,0.56919 -0.2251298,0.21097 -0.6074258,0.21097 -0.3879596,0 -0.6102576,-0.21238 -0.2222981,-0.2138 -0.2222981,-0.58477 0,-0.12036 0.025486,-0.23504 0.02407,-0.11469 0.073628,-0.2223 z"
       style="font-style:normal;font-weight:normal;font-size:medium;line-height:1.25;font-family:sans-serif;letter-spacing:0px;word-spacing:0px;fill:#000000;fill-opacity:1;stroke:none;stroke-width:0.07249465"
       id="path1030" />
    <path
       d="m 6.8355966,258.16361 q 0,0.20955 0.1642457,0.33132 0.1628298,0.12177 0.4474279,0.12177 0.2845981,0 0.4488438,-0.12035 0.1628298,-0.12177 0.1628298,-0.33274 0,-0.20814 -0.1642457,-0.32991 -0.1642457,-0.12177 -0.4474279,-0.12177 -0.2817663,0 -0.446012,0.12177 -0.1656616,0.12177 -0.1656616,0.32991 z m -0.2208821,0 q 0,-0.33982 0.2208821,-0.5338 0.2208822,-0.19398 0.6116736,-0.19398 0.3893755,0 0.6116736,0.19398 0.2208821,0.19398 0.2208821,0.5338 0,0.34123 -0.2208821,0.53521 -0.2222981,0.19257 -0.6116736,0.19257 -0.3907914,0 -0.6116736,-0.19257 -0.2208821,-0.19398 -0.2208821,-0.53521 z"
       style="font-style:normal;font-weight:normal;font-size:medium;line-height:1.25;font-family:sans-serif;letter-spacing:0px;word-spacing:0px;fill:#000000;fill-opacity:1;stroke:none;stroke-width:0.07249465"
       id="path1032" />
    <path
       d="m 6.957365,255.77072 q -0.175573,-0.0977 -0.2591117,-0.23363 -0.083539,-0.13592 -0.083539,-0.31999 0,-0.24779 0.1741571,-0.3823 0.1727411,-0.13451 0.492737,-0.13451 h 0.9571559 v 0.26194 H 7.2901041 q -0.2279617,0 -0.3384027,0.0807 -0.1104411,0.0807 -0.1104411,0.24637 0,0.20247 0.1345115,0.31999 0.1345116,0.11753 0.366721,0.11753 h 0.8962717 v 0.26194 H 7.2901041 q -0.2293776,0 -0.3384027,0.0807 -0.1104411,0.0807 -0.1104411,0.2492 0,0.19964 0.1359275,0.31716 0.1345115,0.11752 0.365305,0.11752 h 0.8962717 v 0.26194 H 6.6529441 v -0.26194 h 0.2463685 q -0.1458388,-0.0892 -0.2152184,-0.2138 -0.06938,-0.1246 -0.06938,-0.29593 0,-0.17274 0.087786,-0.29309 0.087786,-0.12177 0.254864,-0.17982 z"
       style="font-style:normal;font-weight:normal;font-size:medium;line-height:1.25;font-family:sans-serif;letter-spacing:0px;word-spacing:0px;fill:#000000;fill-opacity:1;stroke:none;stroke-width:0.07249465"
       id="path1034" />
    <path
       d="m 22.43154,282.3036 v 0.59939 c -0.08144,-0.10072 -0.179799,-0.15069 -0.295074,-0.15069 -0.323402,0 -0.485497,0.35036 -0.485497,1.05126 0,0.74378 0.161308,1.11577 0.482546,1.11577 0.09069,0 0.189831,-0.0399 0.298025,-0.11999 v 0.55021 c -0.155209,0.0814 -0.313369,0.12295 -0.473299,0.12295 -0.63087,0 -0.9466,-0.53704 -0.9466,-1.61052 0,-0.57166 0.07829,-0.99283 0.233502,-1.26331 0.155997,-0.27285 0.398154,-0.40878 0.725491,-0.40878 0.15816,0 0.311992,0.0376 0.460906,0.11371 m 2.372991,1.55523 c 0,1.07585 -0.332845,1.61367 -0.998926,1.61367 -0.665492,0 -0.998926,-0.54628 -0.998926,-1.63826 0,-1.0965 0.33186,-1.64435 0.995778,-1.64435 0.172127,0 0.321238,0.0322 0.44576,0.0984 0.127472,0.0653 0.231928,0.16682 0.313369,0.30432 0.08223,0.13672 0.143013,0.31042 0.181372,0.51933 0.04151,0.20911 0.06157,0.45796 0.06157,0.74693 m -0.608641,-0.0153 c 0,-0.41803 -0.02774,-0.70917 -0.08301,-0.87283 -0.05528,-0.16603 -0.153636,-0.24904 -0.295075,-0.24904 -0.139079,0 -0.238224,0.0814 -0.298025,0.24589 -0.05548,0.16367 -0.08301,0.4495 -0.08301,0.85749 0,0.4074 0.02754,0.69244 0.08301,0.85453 0.0598,0.16367 0.158946,0.2459 0.298025,0.2459 0.139865,0 0.23665,-0.0814 0.292124,-0.24275 0.05764,-0.15226 0.08596,-0.43199 0.08596,-0.83919 m 1.152562,-1.60147 h 0.587198 v 0.39658 c 0.100719,-0.16819 0.199667,-0.28583 0.298026,-0.3535 0.09836,-0.0677 0.229174,-0.10682 0.390482,-0.11685 v 0.61474 c -0.04072,-0.006 -0.07534,-0.009 -0.104457,-0.009 -0.210683,0 -0.361171,0.0537 -0.451857,0.16288 -0.08774,0.10603 -0.132194,0.29271 -0.132194,0.55927 v 1.92723 h -0.587198 v -3.1813 m 1.755104,-0.89133 h 0.587199 v 0.89133 h 0.319663 v 0.4672 h -0.319663 v 1.39255 1.32155 h -0.587199 v -2.7141 h -0.322615 v -0.4672 h 0.322615 v -0.89133 m 2.548068,2.99993 h 0.547265 c -0.04308,0.74772 -0.350549,1.12187 -0.922207,1.12187 -0.169766,0 -0.316516,-0.0322 -0.439464,-0.0952 -0.120588,-0.0637 -0.221306,-0.16209 -0.301173,-0.29507 -0.08006,-0.13377 -0.139079,-0.30275 -0.178422,-0.50713 -0.03679,-0.20518 -0.05528,-0.44872 -0.05528,-0.7316 0,-0.56162 0.07849,-0.97748 0.233699,-1.24796 0.15816,-0.27049 0.401105,-0.40564 0.728441,-0.40564 0.637755,0 0.955845,0.56084 0.955845,1.68429 v 0.0738 h -1.34318 c 0,0.68005 0.135145,1.02056 0.40563,1.02056 0.245895,0 0.368843,-0.20596 0.368843,-0.61788 m -0.03069,-0.8268 c -0.02459,-0.33422 -0.06216,-0.55316 -0.113702,-0.65782 -0.05292,-0.11665 -0.139079,-0.17508 -0.258092,-0.17508 -0.120784,0 -0.206749,0.0584 -0.258289,0.17508 -0.05075,0.10466 -0.08911,0.3236 -0.113702,0.65782 h 0.743785 m 0.817554,-1.2818 h 0.694802 l 0.279731,0.61474 c 0.03305,0.0716 0.06374,0.14753 0.09206,0.2276 0.02931,0.0775 0.05468,0.16051 0.07692,0.24884 0.01692,-0.0783 0.03619,-0.15284 0.05843,-0.22425 0.02302,-0.0722 0.04839,-0.14302 0.07672,-0.21207 l 0.04013,-0.0923 0.230355,-0.5626 h 0.617886 l -0.719195,1.50311 0.86988,1.67819 H 32.055299 L 31.775568,284.815 c -0.136718,-0.28524 -0.218158,-0.51264 -0.242748,-0.68241 -0.01849,0.16367 -0.0838,0.37259 -0.196716,0.62694 l -0.282879,0.66392 h -0.614738 l 0.796111,-1.67819 -0.796111,-1.50311 m 12.915811,-1.35243 c 0.106817,0 0.19888,0.0385 0.276583,0.11685 0.07829,0.0777 0.11685,0.17055 0.11685,0.27973 0,0.11075 -0.03855,0.20439 -0.11685,0.28288 -0.0777,0.0775 -0.172127,0.11666 -0.282878,0.11666 -0.110554,0 -0.204388,-0.0391 -0.282681,-0.11666 -0.07534,-0.0761 -0.113703,-0.17134 -0.113703,-0.28603 0,-0.10661 0.03915,-0.19887 0.11685,-0.27658 0.08439,-0.0783 0.179799,-0.11685 0.285829,-0.11685"
       style="fill:#000000;fill-opacity:1;fill-rule:nonzero;stroke:none;stroke-width:0.19671643"
       id="path2416" />
    <path
       d="m 34.411867,282.24212 h 0.587198 v 0.39343 c 0.162094,-0.29743 0.377302,-0.44576 0.645427,-0.44576 0.293501,0 0.491791,0.14833 0.596247,0.44576 0.155996,-0.29743 0.377302,-0.44576 0.663918,-0.44576 0.223667,0 0.393433,0.0592 0.510283,0.17842 0.119013,0.11666 0.178225,0.28957 0.178225,0.51934 v 2.53586 h -0.59015 v -2.09325 c 0,-0.2398 -0.02223,-0.40032 -0.06767,-0.48255 -0.04288,-0.0838 -0.126685,-0.12609 -0.251994,-0.12609 -0.141439,0 -0.237437,0.0431 -0.288976,0.12924 -0.04918,0.0838 -0.07357,0.24353 -0.07357,0.4794 v 2.09325 h -0.608641 v -2.09325 c 0,-0.11292 -0.0063,-0.20813 -0.01849,-0.28583 -0.01003,-0.0775 -0.02853,-0.14065 -0.05527,-0.18747 -0.02616,-0.0468 -0.06157,-0.0807 -0.104456,-0.1015 -0.04308,-0.0222 -0.0962,-0.0338 -0.159931,-0.0338 -0.135144,0 -0.231338,0.0462 -0.288976,0.13849 -0.05685,0.0921 -0.08597,0.24885 -0.08597,0.47015 v 2.09326 h -0.587198 v -3.1813 m 5.077842,2.10861 h 0.547068 c -0.04308,0.74772 -0.350352,1.12187 -0.92201,1.12187 -0.169963,0 -0.316714,-0.0315 -0.439662,-0.0954 -0.120587,-0.0637 -0.221305,-0.16209 -0.301172,-0.29507 -0.07987,-0.13278 -0.139079,-0.30196 -0.178226,-0.50714 -0.03698,-0.20517 -0.05528,-0.4487 -0.05528,-0.73139 0,-0.56182 0.07829,-0.97748 0.233503,-1.24797 0.158357,-0.27048 0.401105,-0.40582 0.728441,-0.40582 0.637754,0 0.956042,0.56182 0.956042,1.68448 v 0.0738 h -1.343377 c 0,0.68005 0.135341,1.02037 0.405826,1.02037 0.245896,0 0.368844,-0.20597 0.368844,-0.61769 m -0.03069,-0.8268 c -0.02459,-0.33442 -0.06236,-0.55337 -0.113899,-0.65782 -0.05292,-0.11685 -0.139078,-0.17527 -0.258092,-0.17527 -0.120587,0 -0.206749,0.0584 -0.258091,0.17527 -0.05075,0.10445 -0.08931,0.3234 -0.1139,0.65782 h 0.743982 m 2.941501,-3.32274 v 5.22223 h -0.587198 v -0.40878 c -0.0836,0.1743 -0.167406,0.29429 -0.251994,0.3596 -0.0838,0.0653 -0.195143,0.0984 -0.335008,0.0984 -0.262027,0 -0.455006,-0.13455 -0.577757,-0.40268 -0.123144,-0.27048 -0.18452,-0.6946 -0.18452,-1.27256 0,-0.27894 0.01535,-0.51933 0.04603,-0.72234 0.03088,-0.20281 0.07692,-0.36963 0.138489,-0.50104 0.06374,-0.1312 0.14439,-0.2274 0.242748,-0.28878 0.09836,-0.0637 0.215208,-0.0954 0.350352,-0.0954 0.129046,0 0.235863,0.0309 0.319664,0.0923 0.04151,0.0285 0.08301,0.07 0.126095,0.12295 0.04308,0.0531 0.08518,0.11921 0.125899,0.19671 v -2.40052 h 0.587198 m -1.327836,3.61781 c 0,0.41802 0.02754,0.70995 0.08302,0.87597 0.05763,0.16584 0.15816,0.24885 0.301172,0.24885 0.131407,0 0.226618,-0.086 0.28583,-0.25809 0.06,-0.18452 0.08911,-0.46799 0.08911,-0.85139 0,-0.38497 -0.02911,-0.67021 -0.08911,-0.85453 -0.05921,-0.17213 -0.154423,-0.25829 -0.28583,-0.25829 -0.139078,0 -0.238223,0.0822 -0.298222,0.24589 -0.05685,0.15147 -0.08597,0.43573 -0.08597,0.85159 m 1.994705,-1.57688 h 0.59015 v 3.18129 h -0.59015 v -3.18129 m 3.070744,0 v 3.18129 h -0.587199 v -0.40877 c -0.0836,0.17429 -0.167406,0.29429 -0.251994,0.3596 -0.0838,0.0653 -0.194356,0.0984 -0.33186,0.0984 -0.264387,0 -0.458153,-0.13534 -0.580904,-0.40583 -0.123144,-0.27048 -0.18452,-0.6946 -0.18452,-1.27236 0,-0.55101 0.06138,-0.95605 0.18452,-1.21413 0.122751,-0.26046 0.316517,-0.39049 0.580904,-0.39049 0.241961,0 0.436317,0.1377 0.583854,0.41193 v -0.3596 h 0.587199 m -1.327836,1.57688 c 0,0.41802 0.02754,0.70995 0.08301,0.87597 0.05764,0.16584 0.15816,0.24885 0.301173,0.24885 0.131407,0 0.226617,-0.086 0.285829,-0.25809 0.06,-0.18452 0.08911,-0.46799 0.08911,-0.85139 0,-0.38497 -0.02912,-0.67021 -0.08911,-0.85453 -0.05921,-0.17213 -0.154422,-0.25829 -0.285829,-0.25829 -0.139079,0 -0.238223,0.0822 -0.298222,0.24589 -0.05685,0.15147 -0.08597,0.43573 -0.08597,0.85159"
       style="fill:#000000;fill-opacity:1;fill-rule:nonzero;stroke:none;stroke-width:0.19671643"
       id="path2418" />
    <path
       id="path2422"
       style="fill:none;stroke:#000000;stroke-width:0.12297042;stroke-linecap:butt;stroke-linejoin:miter;stroke-miterlimit:4;stroke-dasharray:none;stroke-opacity:1"
       d="m 25.293076,287.09008 c -4.487692,-0.37652 -7.366047,-2.13552 -6.424759,-3.92735 0.695393,-1.32412 3.132906,-2.29386 6.450923,-2.56739" />
    <path
       d="m 28.077348,259.69777 h -0.443463 l -0.705847,1.3994 -0.714872,-1.3994 h -0.446575 l 1.158451,2.22016 z"
       style="fill:#231f20;fill-opacity:1;fill-rule:nonzero;stroke:none;stroke-width:0.03840508"
       id="path4522" />
    <path
       d="m 29.813527,261.50177 h -1.152153 v -0.5614 h 0.714834 v -0.35882 h -0.714834 v -0.52193 h 1.109984 v -0.35886 h -1.511163 v 2.15971 h 1.553332 z"
       style="fill:#231f20;fill-opacity:1;fill-rule:nonzero;stroke:none;stroke-width:0.03840508"
       id="path4524" />
    <path
       id="path4546"
       style="fill:#231f20;fill-opacity:1;fill-rule:nonzero;stroke:none;stroke-width:0.03840508"
       d="m 30.62272,260.05961 h 0.416311 c 0.304514,0 0.461284,0.15692 0.461284,0.34387 0,0.18734 -0.159765,0.34112 -0.461284,0.34112 H 30.62272 Z m 0,1.04369 h 0.491624 l 0.352827,0.75731 h 0.443464 l -0.416157,-0.85378 c 0.253242,-0.12659 0.404174,-0.34999 0.404174,-0.60335 0,-0.38916 -0.350023,-0.7027 -0.856625,-0.7027 h -0.820602 v 2.15983 h 0.401295 z" />
    <path
       id="path4548"
       style="fill:#231f20;fill-opacity:1;fill-rule:nonzero;stroke:none;stroke-width:0.03840508"
       d="m 33.072773,260.9161 0.259388,0.0695 c 0.213916,0.0575 0.370839,0.1206 0.370839,0.28655 0,0.15677 -0.144595,0.28351 -0.470462,0.28351 -0.277361,0 -0.533908,-0.0932 -0.829434,-0.34385 v 0.45576 c 0.202048,0.15047 0.527916,0.2504 0.826284,0.2504 0.452604,0 0.889924,-0.23254 0.889924,-0.679 0,-0.43429 -0.416312,-0.58192 -0.678695,-0.65439 l -0.259542,-0.0726 c -0.217218,-0.0604 -0.370839,-0.11478 -0.370839,-0.25623 0,-0.1418 0.150779,-0.2204 0.386163,-0.2204 0.262384,0 0.560906,0.0966 0.808465,0.2807 v -0.44961 c -0.105767,-0.0603 -0.404328,-0.19606 -0.772326,-0.19606 -0.425144,0 -0.832584,0.18362 -0.832584,0.60938 0,0.39529 0.346837,0.54891 0.672819,0.63637" />
    <path
       id="path4550"
       style="fill:#231f20;fill-opacity:1;fill-rule:nonzero;stroke:none;stroke-width:0.03840508"
       d="m 35.717039,261.91793 c 0.334816,0 0.594203,-0.11492 0.729965,-0.19037 v -0.43448 c -0.17505,0.15093 -0.46159,0.26253 -0.736109,0.26253 -0.470463,0 -0.808158,-0.32852 -0.808158,-0.76015 0,-0.43144 0.337695,-0.76015 0.808158,-0.76015 0.274519,0 0.561059,0.1118 0.736109,0.26227 v -0.43417 c -0.135762,-0.0755 -0.395149,-0.19007 -0.729965,-0.19007 -0.681689,0 -1.215636,0.48275 -1.215636,1.12212 0,0.63957 0.533947,1.12247 1.215636,1.12247" />
    <path
       id="path4552"
       style="fill:#231f20;fill-opacity:1;fill-rule:nonzero;stroke:none;stroke-width:0.03840508"
       d="m 37.253511,260.96157 h 1.151423 v 0.91392 h 0.401141 v -2.16002 h -0.401141 v 0.87506 h -1.151423 v -0.87506 h -0.401294 v 2.16002 h 0.401294 z" />
    <path
       id="path4554"
       style="fill:#231f20;fill-opacity:1;fill-rule:nonzero;stroke:none;stroke-width:0.03840508"
       d="m 41.335702,259.71562 -0.434284,1.20048 -0.482752,-1.24575 -0.482637,1.24575 -0.434438,-1.20048 h -0.437319 l 0.868762,2.20515 0.482752,-1.22159 0.482329,1.22159 0.874906,-2.20515 z" />
    <path
       id="path4556"
       style="fill:#231f20;fill-opacity:1;fill-rule:nonzero;stroke:none;stroke-width:0.03840508"
       d="m 42.936272,261.55876 c -0.434439,0 -0.772441,-0.33167 -0.772441,-0.7633 0,-0.43144 0.338002,-0.76315 0.772441,-0.76315 0.434323,0 0.769292,0.33171 0.769292,0.76315 0,0.43163 -0.334969,0.7633 -0.769292,0.7633 m 0,-1.88542 c -0.651695,0 -1.176463,0.50376 -1.176463,1.12212 0,0.62155 0.524768,1.12247 1.176463,1.12247 0.648393,0 1.176462,-0.50092 1.176462,-1.12247 0,-0.61836 -0.528069,-1.12212 -1.176462,-1.12212" />
    <path
       id="path4558"
       style="fill:#231f20;fill-opacity:1;fill-rule:nonzero;stroke:none;stroke-width:0.03840508"
       d="m 43.264981,259.56757 c 0.120476,0 0.238227,-0.0845 0.238227,-0.21107 0,-0.12363 -0.117751,-0.20824 -0.238227,-0.20824 -0.12063,0 -0.23838,0.0846 -0.23838,0.20824 0,0.12662 0.11775,0.21107 0.23838,0.21107" />
    <path
       id="path4560"
       style="fill:#231f20;fill-opacity:1;fill-rule:nonzero;stroke:none;stroke-width:0.03840508"
       d="m 42.604452,259.56757 c 0.120592,0 0.238227,-0.0845 0.238227,-0.21107 0,-0.12363 -0.117635,-0.20824 -0.238227,-0.20824 -0.120783,0 -0.23838,0.0846 -0.23838,0.20824 0,0.12662 0.117597,0.21107 0.23838,0.21107" />
    <path
       id="path4562"
       style="fill:#231f20;fill-opacity:1;fill-rule:nonzero;stroke:none;stroke-width:0.03840508"
       d="m 45.266385,260.75963 h -0.416311 v -0.68499 h 0.416311 c 0.304706,0 0.461629,0.15677 0.461629,0.34384 0,0.18737 -0.159919,0.34115 -0.461629,0.34115 m 0.455446,0.26223 c 0.253396,-0.12678 0.404175,-0.34999 0.404175,-0.60338 0,-0.389 -0.349832,-0.70286 -0.856626,-0.70286 h -0.820447 v 2.15972 h 0.401141 v -0.757 h 0.491777 l 0.352712,0.757 h 0.443579 z" />
    <path
       id="path4564"
       style="fill:#231f20;fill-opacity:1;fill-rule:nonzero;stroke:none;stroke-width:0.03840508"
       d="M 27.626487,263.76527 H 26.46504 v -0.87491 h -0.401295 v 2.16013 h 0.401295 v -0.91423 h 1.161447 v 0.91423 h 0.401141 v -2.16013 h -0.401141 z" />
    <path
       id="path4566"
       style="fill:#231f20;fill-opacity:1;fill-rule:nonzero;stroke:none;stroke-width:0.03840508"
       d="m 28.991518,264.35966 0.362007,-0.71483 0.362006,0.71483 z m -0.790147,0.69083 h 0.44646 l 0.165757,-0.33197 h 1.08283 l 0.168944,0.33197 h 0.446613 l -1.155455,-2.22012 z" />
    <path
       id="path4568"
       style="fill:#231f20;fill-opacity:1;fill-rule:nonzero;stroke:none;stroke-width:0.03840508"
       d="m 32.073833,264.07297 c 0,0.41961 -0.250401,0.64854 -0.576077,0.64854 -0.325867,0 -0.579225,-0.23538 -0.579225,-0.64854 v -1.18845 h -0.401179 v 1.21291 c 0,0.61521 0.428485,0.98609 0.980404,0.98609 0.55192,0 0.977371,-0.38002 0.977371,-0.98609 v -1.21291 h -0.401294 z" />
    <path
       id="path4570"
       style="fill:#231f20;fill-opacity:1;fill-rule:nonzero;stroke:none;stroke-width:0.03840508"
       d="m 33.871958,263.75328 -0.259695,-0.0723 c -0.217065,-0.0603 -0.370839,-0.11444 -0.370839,-0.25639 0,-0.1416 0.150624,-0.22006 0.386162,-0.22006 0.262385,0 0.561061,0.0964 0.808312,0.28039 v -0.44919 c -0.105456,-0.0605 -0.404174,-0.19635 -0.772326,-0.19635 -0.425297,0 -0.83243,0.18407 -0.83243,0.60937 0,0.3953 0.346837,0.54892 0.672666,0.63637 l 0.259541,0.0693 c 0.214069,0.0575 0.370839,0.12062 0.370839,0.28685 0,0.15676 -0.144595,0.28339 -0.470616,0.28339 -0.277514,0 -0.533907,-0.0936 -0.829588,-0.344 v 0.45575 c 0.202203,0.15047 0.52807,0.2501 0.826593,0.2501 0.452604,0 0.889923,-0.23209 0.889923,-0.67854 0,-0.43433 -0.416312,-0.58212 -0.678542,-0.6547" />
    <path
       id="path4572"
       style="fill:#231f20;fill-opacity:1;fill-rule:nonzero;stroke:none;stroke-width:0.02696505"
       d="m 21.975048,261.29438 v -2.2e-4 h -0.505486 v 0.50581 h 0.505486 z" />
    <path
       id="path4574"
       style="fill:#231f20;fill-opacity:1;fill-rule:nonzero;stroke:none;stroke-width:0.02696505"
       d="m 19.953074,264.83343 v -3.53927 h 0.505487 v -0.5057 h 0.505514 v -0.5056 h 0.505487 v -0.50548 h 0.505595 v 0.50548 h 0.505486 v 0.5056 h 0.505487 v 0.5057 h 0.505487 v 2.5283 H 22.98613 v 0.50506 h 0.505487 v 1.01151 h -1.010974 v -1.51657 h -2.022082 v 1.01097 h 1.011001 v 0.50592 h -1.516488 z m -0.286504,0.7921 h 4.836128 v -6.85945 H 19.66657 Z" />
    <path
       transform="matrix(0.182828,0,0,0.182828,18.585954,269.64944)"
       style="fill:#000000"
       class="st0"
       d="m 57.5,31.1 h -1.9 v -1 0 c -0.6,0.7 -1.4,1.2 -2.5,1.2 -1.8,0 -2.6,-1.3 -2.6,-3 v -4.8 h 2 v 4 c 0,0.9 0,2.2 1.3,2.2 1.4,0 1.7,-1.5 1.7,-2.5 v -3.7 h 2 z"
       clip-path="url(#SVGID_2_)"
       id="path4613" />
    <path
       style="fill:#000000;stroke-width:0.18282799"
       d="m 29.482502,273.34257 h 0.365656 v 2.0111 h -0.365656 z"
       id="rect4617" />
    <path
       transform="matrix(0.182828,0,0,0.182828,18.585954,269.64944)"
       style="fill:#000000"
       class="st2"
       d="m 63.5,23.6 h 1.8 v 1.1 0 c 0.6,-0.9 1.5,-1.2 2.2,-1.2 1.1,0 1.8,0.4 2.2,1.3 0.5,-0.9 1.4,-1.3 2.4,-1.3 1.9,0 2.4,1.3 2.4,3 v 4.8 h -2 v -4.5 c 0,-0.7 0,-1.7 -1.1,-1.7 -1.3,0 -1.5,1.5 -1.5,2.5 v 3.7 h -2 v -4.5 c 0,-0.7 0,-1.7 -1.1,-1.7 -1.3,0 -1.5,1.5 -1.5,2.5 v 3.7 h -2 v -7.7 z"
       clip-path="url(#SVGID_4_)"
       id="path4625" />
    <path
       style="fill:#000000;stroke-width:0.18282799"
       d="m 32.590578,274.96973 h 0.365656 v 0.36566 h -0.365656 z"
       id="rect4629" />
    <path
       transform="matrix(0.182828,0,0,0.182828,18.585954,269.64944)"
       style="fill:#000000"
       class="st3"
       d="m 83.8,29.8 c 1.3,0 1.7,-1.4 1.7,-2.4 0,-1.1 -0.5,-2.4 -1.8,-2.4 -1.3,0 -1.6,1.4 -1.6,2.4 0.1,1 0.5,2.4 1.7,2.4 m 1.8,0.5 v 0 c -0.6,0.7 -1.4,1 -2.3,1 -2.3,0 -3.2,-1.9 -3.2,-4 0,-2.1 0.8,-3.9 3.2,-3.9 1,0 1.7,0.3 2.3,1.1 v 0 -4.3 h 2 v 11 h -1.9 v -0.9 z"
       clip-path="url(#SVGID_6_)"
       id="path4637" />
    <path
       id="path4641"
       d="m 34.967343,273.96418 h 0.365656 v 1.37121 h -0.365656 z m 0,-0.58505 h 0.365656 v 0.34737 h -0.365656 z"
       class="st1"
       style="fill:#000000;stroke-width:0.18282799" />
    <path
       transform="matrix(0.182828,0,0,0.182828,18.585954,269.64944)"
       style="fill:#000000"
       class="st4"
       d="M 98.6,27.3 C 98.6,26 98.1,25 97,25 c -1.3,0 -1.8,1.2 -1.8,2.4 0,1 0.5,2.3 1.7,2.3 1.2,-0.1 1.7,-1.2 1.7,-2.4 m 1.9,-3.7 v 6.8 c 0,2 -0.8,4 -4,4 -0.8,0 -1.7,-0.1 -2.6,-0.5 l 0.2,-1.7 c 0.6,0.3 1.6,0.7 2.2,0.7 2.2,0 2.3,-1.6 2.3,-2.9 v 0 c -0.4,0.6 -1.2,1.2 -2.3,1.2 -2.2,0 -3.1,-1.8 -3.1,-3.8 0,-1.8 0.9,-3.9 3.2,-3.9 1,0 1.8,0.3 2.3,1.2 v 0 -1 h 1.8 z"
       clip-path="url(#SVGID_8_)"
       id="path4649" />
    <path
       id="path4653"
       d="m 37.344107,273.96418 h 0.365656 v 1.37121 h -0.365656 z m 0,-0.58505 h 0.365656 v 0.34737 h -0.365656 z"
       class="st1"
       style="fill:#000000;stroke-width:0.18282799" />
    <path
       transform="matrix(0.182828,0,0,0.182828,18.585954,269.64944)"
       style="fill:#000000"
       class="st5"
       d="m 107.3,25 h -1.4 v -1.4 h 1.4 v -1.5 l 2,-0.6 v 2.1 H 111 V 25 h -1.7 v 3.5 c 0,0.6 0.2,1.2 0.9,1.2 0.4,0 0.7,-0.1 0.9,-0.2 l 0.1,1.5 c -0.4,0.1 -0.9,0.2 -1.4,0.2 -1.5,0 -2.4,-0.9 -2.4,-2.4 V 25 Z"
       clip-path="url(#SVGID_10_)"
       id="path4661" />
    <path
       transform="matrix(0.182828,0,0,0.182828,18.585954,269.64944)"
       style="fill:#000000"
       class="st5"
       d="m 114.9,29.9 c 0.6,0 1.1,-0.3 1.4,-0.7 0.3,-0.4 0.4,-1 0.4,-1.5 h -0.8 c -0.9,0 -2.2,0.1 -2.2,1.3 0,0.6 0.5,0.9 1.2,0.9 M 112.6,24 c 0.8,-0.4 1.8,-0.6 2.6,-0.6 2.3,0 3.2,0.9 3.2,3.2 v 1 c 0,0.8 0,1.3 0,1.9 0,0.6 0,1.1 0.1,1.7 h -1.7 c -0.1,-0.4 -0.1,-0.9 -0.1,-1.1 v 0 c -0.5,0.8 -1.4,1.3 -2.3,1.3 -1.3,0 -2.6,-0.8 -2.6,-2.2 0,-1.1 0.5,-1.8 1.3,-2.1 0.7,-0.4 1.7,-0.4 2.5,-0.4 h 1.1 c 0,-1.2 -0.5,-1.6 -1.7,-1.6 -0.8,0 -1.7,0.3 -2.3,0.8 z"
       clip-path="url(#SVGID_10_)"
       id="path4663" />
    <path
       style="fill:#000000;stroke-width:0.18282799"
       d="m 40.616728,273.34257 h 0.365656 v 2.0111 h -0.365656 z"
       id="rect4667" />
    <path
       transform="matrix(0.182828,0,0,0.182828,18.585954,269.64944)"
       style="fill:#000000"
       class="st6"
       d="m 133.3,26.6 c -0.1,-0.9 -0.5,-1.8 -1.6,-1.8 -1.1,0 -1.7,0.8 -1.7,1.8 z m 1.3,4.1 c -0.7,0.4 -1.5,0.6 -2.6,0.6 -2.5,0 -3.9,-1.4 -3.9,-3.9 0,-2.2 1.2,-4 3.5,-4 2.8,0 3.6,1.9 3.6,4.5 H 130 c 0.1,1.2 0.9,1.9 2.1,1.9 0.9,0 1.8,-0.4 2.5,-0.8 z"
       clip-path="url(#SVGID_12_)"
       id="path4675" />
    <path
       style="fill:#000000;stroke-width:0.18282799"
       d="m 43.578542,274.96973 h 0.365656 v 0.36566 h -0.365656 z"
       id="rect4679" />
    <path
       style="fill:#000000;stroke-width:0.18282799"
       d="m 45.260559,275.33539 h -0.45707 l -0.639898,-1.86484 h 0.402222 l 0.475353,1.46262 0.475352,-1.46262 h 0.365656 z"
       id="polygon4681" />
    <path
       style="fill:#000000;stroke-width:0.18282799"
       d="m 45.754197,274.96973 h 0.365656 v 0.36566 h -0.365656 z"
       id="rect4683" />
    <path
       id="path4685"
       d="m 27.837051,271.51429 h 0.201111 v 1.09696 h -0.201111 z m 0.219393,-0.23768 h -0.219393 v -0.23768 h 0.219393 z"
       class="st1"
       style="fill:#000000;stroke-width:0.18282799" />
    <path
       transform="matrix(0.182828,0,0,0.182828,18.585954,269.64944)"
       style="fill:#000000"
       class="st7"
       d="m 53.8,10.2 h 1.1 v 0.9 0 c 0.3,-0.7 1.1,-1.1 2,-1.1 1.5,0 2.2,1 2.2,2.6 v 3.5 H 58 V 13 c 0,-1.4 -0.3,-2.1 -1.3,-2.1 -1.3,0 -1.8,1 -1.8,2.5 v 2.8 h -1.1 z"
       clip-path="url(#SVGID_14_)"
       id="path4693" />
    <path
       id="path4697"
       d="m 29.738462,271.51429 h 0.201111 v 1.09696 h -0.201111 z m 0.219394,-0.23768 h -0.219394 v -0.23768 h 0.219394 z"
       class="st1"
       style="fill:#000000;stroke-width:0.18282799" />
    <path
       transform="matrix(0.182828,0,0,0.182828,18.585954,269.64944)"
       style="fill:#000000"
       class="st8"
       d="m 67.3,11.1 h -1.6 v 3.3 c 0,0.7 0.4,1.1 0.9,1.1 0.3,0 0.6,-0.1 0.7,-0.2 v 0.9 c -0.2,0.1 -0.6,0.2 -0.9,0.2 -1.1,0 -1.8,-0.5 -1.8,-1.7 v -3.5 h -1.3 v -0.9 h 1.3 V 8.8 l 1.1,-0.4 v 1.7 h 1.6 z"
       clip-path="url(#SVGID_16_)"
       id="path4705" />
    <path
       id="path4709"
       d="m 31.16452,271.51429 h 0.201111 v 1.09696 H 31.16452 Z m 0.219394,-0.23768 H 31.16452 v -0.23768 h 0.219394 z"
       class="st1"
       style="fill:#000000;stroke-width:0.18282799" />
    <path
       transform="matrix(0.182828,0,0,0.182828,18.585954,269.64944)"
       style="fill:#000000"
       class="st9"
       d="m 75.5,13.3 c -0.2,0 -0.5,0 -0.7,0 -0.6,0 -2.1,0.1 -2.1,1.1 0,0.6 0.6,1 1.1,1 1.1,0 1.7,-0.7 1.7,-1.6 z m -3.3,-2.7 c 0.5,-0.3 1.2,-0.6 2,-0.6 1.7,0 2.4,0.8 2.4,2.5 V 15 c 0,0.7 0,1 0,1.2 h -1 v -0.8 0 c -0.3,0.4 -0.8,0.9 -1.8,0.9 -1.3,0 -2.2,-0.6 -2.2,-1.9 0,-1.5 1.6,-2 2.8,-2 0.4,0 0.7,0 1.2,0 0,-1 -0.4,-1.6 -1.5,-1.6 -0.6,0 -1.3,0.2 -1.7,0.6 z"
       clip-path="url(#SVGID_18_)"
       id="path4717" />
    <path
       transform="matrix(0.182828,0,0,0.182828,18.585954,269.64944)"
       style="fill:#000000"
       class="st9"
       d="M 81.6,11.1 H 80 v 3.3 c 0,0.7 0.4,1.1 0.9,1.1 0.3,0 0.6,-0.1 0.7,-0.2 v 0.9 c -0.2,0.1 -0.6,0.2 -0.9,0.2 -1.1,0 -1.8,-0.5 -1.8,-1.7 v -3.5 h -1.3 v -0.9 h 1.3 V 8.8 L 80,8.5 v 1.7 h 1.6 z"
       clip-path="url(#SVGID_18_)"
       id="path4719" />
    <path
       id="path4723"
       d="m 33.778961,271.51429 h 0.201111 v 1.09696 h -0.201111 z m 0.219393,-0.23768 h -0.219393 v -0.23768 h 0.219393 z"
       class="st1"
       style="fill:#000000;stroke-width:0.18282799" />
    <path
       style="fill:#000000;stroke-width:0.18282799"
       d="m 35.022191,271.51429 h 0.201111 l -0.383939,1.09696 h -0.237676 l -0.402222,-1.09696 h 0.219394 l 0.310807,0.89585 z"
       id="polygon4725" />
    <path
       transform="matrix(0.182828,0,0,0.182828,18.585954,269.64944)"
       style="fill:#000000"
       class="st10"
       d="m 96,12.6 c 0,-0.9 -0.5,-1.7 -1.5,-1.7 -1.1,0 -1.5,0.9 -1.6,1.7 z m 0.7,3.3 c -0.4,0.2 -0.9,0.4 -1.9,0.4 -2.1,0 -3.1,-1.3 -3.1,-3.2 0,-1.8 1.1,-3 2.8,-3 2,0 2.6,1.5 2.6,3.4 h -4.3 c 0,1.2 0.9,2 2,2 0.7,0 1.6,-0.4 1.8,-0.6 v 1 z"
       clip-path="url(#SVGID_20_)"
       id="path4733" />
    <path
       style="fill:#000000;stroke-width:0.18282799"
       d="m 36.612794,272.37358 h 0.237677 v 0.23767 h -0.237677 z"
       id="rect4737" />
    <path
       transform="matrix(0.182828,0,0,0.182828,18.585954,269.64944)"
       style="fill:#000000"
       class="st11"
       d="M 4.1,26.6 C 5,26.1 5.5,25.3 5.6,24.3 l 10.1,-3.1 c 0,0 0,0 0,0 0.8,1.5 2.3,2.5 3.9,2.8 v 8.4 c -0.2,0.1 -0.4,0.1 -0.6,0.3 -1.7,0.9 -2.3,3 -1.5,4.6 0.9,1.7 3,2.3 4.6,1.5 1.7,-0.9 2.3,-3 1.5,-4.6 -0.4,-0.9 -1.2,-1.4 -2.1,-1.7 v -8.4 c 0.5,-0.1 1.1,-0.3 1.6,-0.5 1.4,-0.7 2.3,-1.9 2.7,-3.3 l 6,2.1 c 0,0.4 0.1,0.8 0.3,1.2 0.7,1.4 2.4,1.9 3.7,1.2 1.4,-0.7 1.9,-2.4 1.2,-3.7 -0.7,-1.4 -2.4,-1.9 -3.7,-1.2 -0.3,0.2 -0.6,0.4 -0.8,0.7 L 26.1,18.3 C 26,17.6 25.8,16.9 25.5,16.3 25.4,16.1 25.3,16 25.2,15.8 L 38.3,6.3 c 1,0.8 2.5,1 3.7,0.3 1.7,-0.9 2.3,-3 1.5,-4.6 -0.9,-1.7 -3,-2.3 -4.6,-1.5 -1.5,0.8 -2.2,2.6 -1.6,4.2 L 24,14.3 c -1,-0.7 -2.3,-1.1 -3.5,-1 L 18.8,6.4 C 20.4,5.5 21,3.5 20.1,1.8 19.2,0.1 17.1,-0.5 15.5,0.3 13.8,1.2 13.2,3.3 14,4.9 14.6,6 15.7,6.7 16.9,6.7 l 1.7,6.9 c -0.1,0 -0.2,0.1 -0.3,0.1 -2.1,1.1 -3.1,3.3 -2.9,5.5 L 5,22.4 C 4.2,21.4 2.7,21 1.5,21.6 0.1,22.3 -0.4,24 0.3,25.3 c 0.7,1.4 2.4,2 3.8,1.3"
       clip-path="url(#SVGID_22_)"
       id="path4745" />
  </g>
  <style
     type="text/css"
     id="style4605">
	.st0{clip-path:url(#SVGID_2_);fill:#575756;}
	.st1{fill:#575756;}
	.st2{clip-path:url(#SVGID_4_);fill:#575756;}
	.st3{clip-path:url(#SVGID_6_);fill:#575756;}
	.st4{clip-path:url(#SVGID_8_);fill:#575756;}
	.st5{clip-path:url(#SVGID_10_);fill:#575756;}
	.st6{clip-path:url(#SVGID_12_);fill:#575756;}
	.st7{clip-path:url(#SVGID_14_);fill:#575756;}
	.st8{clip-path:url(#SVGID_16_);fill:#575756;}
	.st9{clip-path:url(#SVGID_18_);fill:#575756;}
	.st10{clip-path:url(#SVGID_20_);fill:#575756;}
	.st11{clip-path:url(#SVGID_22_);fill:#0B3753;}
</style>
</svg>
