<?xml version="1.0" encoding="UTF-8" standalone="no"?>
<!-- Created with Inkscape (http://www.inkscape.org/) -->

<svg
   xmlns:dc="http://purl.org/dc/elements/1.1/"
   xmlns:cc="http://creativecommons.org/ns#"
   xmlns:rdf="http://www.w3.org/1999/02/22-rdf-syntax-ns#"
   xmlns:svg="http://www.w3.org/2000/svg"
   xmlns="http://www.w3.org/2000/svg"
   version="1.1"
   width="283.46457"
   height="602.36218"
   id="svg2">
  <defs
     id="defs4" />
  <metadata
     id="metadata7">
    <rdf:RDF>
      <cc:Work
         rdf:about="">
        <dc:format>image/svg+xml</dc:format>
        <dc:type
           rdf:resource="http://purl.org/dc/dcmitype/StillImage" />
        <dc:title></dc:title>
      </cc:Work>
    </rdf:RDF>
  </metadata>
  <text
     x="23.192356"
     y="666.62445"
     transform="scale(1.0101175,0.98998383)"
     id="text3026"
     xml:space="preserve"
     style="font-size:29.72988129px;font-style:normal;font-variant:normal;font-weight:normal;font-stretch:normal;line-height:125%;letter-spacing:0px;word-spacing:0px;fill:#000000;fill-opacity:1;stroke:none;font-family:Arial;-inkscape-font-specification:Arial"><tspan
       x="23.192356"
       y="666.62445"
       id="tspan3028">1cm = 1m</tspan></text>
  <path
     d="m 141.87382,22.549698 c -0.61676,-0.09927 -1.21361,0.259841 -1.49019,1.125979 -0.20714,0.648142 -0.69146,1.8656 -1.09482,2.706435 -0.54104,1.127925 -0.52532,1.755631 0.0607,2.341492 0.94933,0.94983 1.04375,3.645562 0.15207,4.197359 -0.35807,0.220914 -0.46179,2.381391 -0.24329,4.987589 l 0.36494,4.287867 c -0.0588,0.13722 -0.13898,0.252056 -0.21289,0.364946 l -2.15925,0.395114 c -2.42727,0.455452 -3.17815,1.599921 -2.61545,3.954063 0.32265,1.34884 2.53367,1.597975 2.98038,0.333804 0.16369,-0.462264 0.20381,3.501532 0.0911,8.820006 -0.16064,7.590866 -0.42508,9.918733 -1.2469,10.826718 -1.18101,1.305044 -1.38242,3.811004 -0.36494,4.439683 0.79564,0.492433 0.90694,6.387034 0.12165,6.387034 -0.2963,0 -0.92821,-0.388302 -1.39895,-0.851539 -0.6867,-0.675392 -1.10892,-0.525522 -2.15926,0.760059 -0.84738,1.037419 -1.0738,1.884092 -0.66909,2.372633 1.20029,1.448105 1.03787,7.380659 -0.24328,9.335795 -1.26431,1.929832 -0.95365,4.233368 0.48659,3.680597 0.61396,-0.235512 0.88472,0.861271 0.97318,4.04457 0.10702,3.850898 -0.0327,4.404648 -1.21649,4.714128 -0.87202,0.22773 -1.19312,0.73281 -1.15564,1.73323 l -0.45619,0.36495 0.4866,0.21314 c 0.1485,0.87392 0.60013,1.48508 1.03401,1.39847 0.52498,-0.10511 0.82112,0.61505 0.82112,1.88604 0,1.49773 -0.39555,2.18772 -1.5206,2.61495 -0.84121,0.32019 -1.95847,1.40237 -2.49379,2.40281 -0.87846,1.64177 -0.86411,1.8909 0.21288,2.49332 0.96845,0.54205 1.03854,0.86126 0.36494,1.6729 -0.62808,0.75713 -0.65045,1.51038 -0.0911,3.13268 0.40647,1.1795 0.93718,3.71564 1.18607,5.65618 0.43088,3.35945 0.35446,3.56576 -1.30772,4.19736 -1.77796,0.67637 -2.42602,3.04316 -0.9732,3.52782 0.50423,0.16835 0.59326,1.21063 0.27372,3.10153 -0.26364,1.561 -0.72181,2.68699 -1.03402,2.4943 -0.31221,-0.1927 -0.9857,0.22285 -1.49019,0.94301 -0.91356,1.30407 -0.85194,3.11225 0.51701,12.40815 0.43328,2.94195 0.36463,3.24656 -0.94277,3.58814 -1.45141,0.37954 -2.08661,2.91956 -0.7299,2.91956 0.42136,0 0.60911,1.16589 0.4866,2.85923 -0.16922,2.33857 -0.45582,2.90205 -1.64226,3.07139 -1.39417,0.19852 -2.76297,2.93513 -2.2505,4.50099 0.12124,0.37078 0.29226,1.89383 0.39536,3.376 0.31045,4.46012 1.03456,8.69542 1.70308,9.94403 0.52167,0.97512 0.34534,1.15614 -1.03401,1.15614 -2.16451,0 -2.77876,1.08803 -1.7335,3.04121 0.5637,1.05299 0.67894,2.80863 0.36494,5.32237 -0.45666,3.6553 -0.51818,3.71563 -2.37214,3.34484 -1.07714,-0.21507 -2.23125,4.1273 -2.49697,4.55647 -0.30801,0.49828 -0.75086,-3.94336 -1.57826,-4.95157 -2.12737,-2.59354 -3.27129,-0.5917 -3.52779,6.20407 -0.11884,3.14827 -0.41724,6.07269 -0.66907,6.47754 -0.25184,0.40484 -0.34032,2.52639 -0.21289,4.71412 0.12745,2.18774 0.0671,4.21196 -0.12165,4.53117 -0.50918,0.8603 -0.44203,7.56362 0.12165,12.74293 0.27993,2.57212 0.21691,4.53115 -0.12165,4.53115 -0.32906,0 -1.15018,0.42724 -1.85514,0.94303 -1.09523,0.80093 -1.17177,1.10165 -0.39535,2.03786 0.74181,0.89337 0.82777,5.27662 0.48659,23.96476 -0.36067,19.75474 -0.55293,23.12586 -1.52061,24.60316 -0.84428,1.2885 -0.94734,1.91135 -0.36494,2.49331 0.87199,0.87197 1.12524,22.14003 0.2737,22.99157 -0.27529,0.27541 -0.41097,3.44314 -0.30412,7.02545 0.17525,5.8761 0.0253,6.83566 -1.52061,9.82336 -1.73101,3.34581 -2.2789,8.0502 -1.03401,8.81903 0.37037,0.22966 0.66907,1.25736 0.66907,2.28115 0,1.63788 -0.38025,1.98336 -3.19327,2.82808 -2.92853,0.87977 -3.16615,1.11042 -2.98039,2.85923 0.1116,1.05007 -0.0915,2.27532 -0.42577,2.70643 -0.33421,0.43113 -0.54036,2.28407 -0.45619,4.13606 0.0842,1.85197 -0.0419,3.67475 -0.2737,4.04456 -0.2319,0.37079 -0.47307,2.19357 -0.54741,4.04554 -0.40823,10.16788 -0.68308,13.6081 -1.12526,14.32339 -0.27007,0.43697 -0.192,1.32159 0.15206,1.97753 0.86501,1.64857 0.88343,7.66969 0.0304,8.69738 -0.38526,0.4642 -0.59696,1.39847 -0.48659,2.06801 0.11037,0.67053 -0.0808,1.62718 -0.39535,2.12935 -0.31443,0.50118 -0.71914,7.55291 -0.91237,15.66151 -0.19324,8.10958 -0.53648,14.71947 -0.76031,14.71947 -0.22382,0 -0.39535,5.62698 -0.39535,12.49963 0,12.05683 -0.069,12.5551 -1.4902,13.6548 -1.15654,0.89534 -1.47067,1.81304 -1.45979,4.34918 0.019,4.4066 -1.98117,9.85257 -3.80151,10.30996 -0.85906,0.21507 -1.65334,1.18923 -2.03761,2.4933 -0.48547,1.64762 -1.07306,2.20914 -2.4938,2.37264 -1.54878,0.17809 -1.85513,0.54498 -1.85513,2.18968 0,1.6184 -0.42168,2.12251 -2.40256,2.94972 -1.86936,0.78147 -2.31914,1.29823 -2.0072,2.28116 0.46735,1.47244 -0.56397,2.51083 -3.16286,3.16285 -1.48216,0.37177 -1.85515,0.84084 -1.85515,2.40281 0,1.73034 -0.23295,1.94637 -2.09842,1.94637 -1.87406,0 -2.08097,0.17323 -1.79432,1.67194 0.36499,1.90939 -0.3464,2.72979 -3.04122,3.40617 -1.60703,0.40386 -1.84408,0.78049 -1.67267,2.52445 0.12727,1.29531 -0.1584,2.16533 -0.7603,2.37263 -0.78668,0.27054 -0.86606,-0.61312 -0.517,-5.14039 0.34159,-4.42897 0.23041,-5.56857 -0.57784,-6.02111 -0.80309,-0.44962 -1.07724,-3.09181 -1.39895,-13.6548 -0.21943,-7.20548 -0.39424,-13.70541 -0.36495,-14.446 0.0914,-2.3123 -1.8555,-5.71749 -3.28451,-5.71749 -0.87304,0 -1.33813,0.46032 -1.33813,1.3683 0,0.75229 -0.44805,1.52012 -1.00361,1.73325 -1.13104,0.43405 -1.37948,2.72396 -0.33453,3.07235 0.44594,0.14794 0.44135,1.02673 -0.0304,2.5848 -0.39246,1.29628 -0.83196,7.30572 -0.97319,13.38133 -0.18725,8.05508 -0.49285,11.19654 -1.12524,11.58678 -0.65516,0.40485 -0.82185,2.77748 -0.66907,9.67154 l 0.21289,9.12365 -3.07163,0 c -2.52533,0 -3.25736,-0.28515 -4.16646,-1.67292 -1.3676,-2.08748 -2.66191,-2.15756 -3.86235,-0.18296 -0.73795,1.21454 -0.80418,3.26408 -0.33452,10.2798 0.62126,9.28032 0.20899,18.2424 -0.88196,18.91585 -0.57593,0.35619 -0.6749,7.98792 -0.66907,56.17145 6.5e-4,5.57442 0.0898,14.13458 0.0898,14.13458 62.66564,0 157.5369,-0.80093 213.64812,-0.80093 0,0 0.10598,-33.88057 -0.42723,-34.74379 -0.75974,-1.22915 -0.5563,-33.43972 0.21288,-33.69664 1.08647,-0.36203 0.83013,-2.00381 -0.42576,-2.70644 -1.29923,-0.72698 -2.1428,-6.84248 -0.94278,-6.84248 0.94588,0 0.92003,-2.48455 -0.0304,-3.07235 -0.41813,-0.2579 -0.55027,-1.29337 -0.33452,-2.37167 0.21036,-1.05202 0.0845,-2.09041 -0.27371,-2.31133 -0.35825,-0.22188 -0.66907,-1.72448 -0.66907,-3.31467 0,-2.13712 -0.4223,-3.33706 -1.64226,-4.65379 -1.64264,-1.77218 -3.74069,-2.4096 -3.74069,-1.125 0,0.37078 -0.70906,0.66955 -1.58142,0.66955 -1.46687,0 -1.61019,-0.32796 -2.00722,-4.53214 -0.2361,-2.49915 -0.42284,-6.67217 -0.42576,-9.27545 -0.003,-2.92541 -0.3682,-5.23088 -0.94277,-6.05226 -0.66152,-0.94497 -1.05753,-4.74917 -1.33814,-13.13804 -0.2168,-6.48143 -0.58111,-12.7546 -0.82113,-13.95844 -0.34799,-1.7459 -0.22777,-2.18967 0.63866,-2.18967 1.5538,0 1.37755,-2.50888 -0.2433,-3.37598 -0.74074,-0.3961 -1.33813,-1.30993 -1.33813,-2.03786 0,-2.00575 -2.46114,-1.70406 -2.9804,0.36495 -0.23239,0.92647 -0.88086,1.67291 -1.42937,1.67291 -0.61482,0 -1.00359,0.66468 -1.00359,1.70306 0,0.92551 0.34724,1.67292 0.7603,1.67292 0.52337,0 0.59224,1.16393 0.24329,3.86161 -0.27538,2.13031 -0.57398,8.52123 -0.66906,14.17255 -0.12323,7.32421 -0.42839,10.57756 -1.06442,11.34347 -0.55575,0.66956 -0.89562,2.93902 -0.91237,6.02208 -0.0267,4.93212 -0.0255,4.96035 -1.70308,4.56135 -2.5224,-0.59852 -3.37575,-1.53376 -3.37575,-3.67964 0,-1.57266 -0.29368,-1.94637 -1.55101,-1.94637 -1.85053,0 -3.16286,-1.15419 -3.16286,-2.79791 0,-0.6569 -0.8906,-1.65831 -1.97679,-2.21984 -1.32968,-0.68805 -2.04581,-1.64081 -2.18967,-2.88941 -0.16918,-1.46853 -0.62047,-1.91814 -2.22008,-2.18967 -1.69966,-0.28806 -2.07296,-0.68512 -2.2505,-2.52445 -0.16905,-1.75076 -0.49653,-2.18968 -1.70308,-2.18968 -1.94011,0 -3.13246,-1.21356 -3.13246,-3.19302 0,-0.90799 -0.50484,-1.70503 -1.18607,-1.9162 -2.40291,-0.74255 -3.19278,-1.48217 -3.13245,-2.94975 0.0446,-1.08315 -0.5348,-1.76244 -2.06802,-2.40279 -2.62495,-1.09678 -3.70189,-4.2976 -3.34534,-9.8837 0.20656,-3.23586 0.0436,-3.99884 -1.06442,-4.77445 -0.98011,-0.68708 -1.49668,-2.23154 -1.9768,-5.93062 -0.91967,-7.08481 -0.87494,-16.97727 0.0911,-17.94365 0.60729,-0.60726 0.54834,-1.09191 -0.33453,-2.06802 -0.96531,-1.06661 -1.13965,-2.60717 -1.06443,-9.45744 0.0493,-4.49515 0.33242,-8.32661 0.63865,-8.5154 0.66119,-0.40873 0.02,-7.7602 -0.7603,-8.75869 -0.493,-0.63159 -0.76932,-4.37059 -1.61185,-20.19366 -0.15776,-2.96336 -0.47581,-7.80302 -0.69948,-10.76637 -0.22366,-2.96239 -0.49701,-6.75685 -0.60824,-8.42393 -0.11122,-1.66707 -0.55923,-4.77445 -1.00359,-6.90378 -0.79821,-3.82463 -0.83879,-3.85772 -3.52781,-4.28787 l -2.73708,-0.42626 0.517,-4.13604 c 0.68465,-5.6046 0.43427,-8.56017 -0.79072,-9.91387 -0.82058,-0.90702 -0.98884,-2.65682 -0.85155,-8.60689 0.11664,-5.05377 -0.0721,-7.73587 -0.60823,-8.2721 -0.54043,-0.54011 -0.82113,-4.10977 -0.82113,-11.19166 0,-8.95333 0.18294,-10.51043 1.15566,-11.22184 1.0359,-0.75712 1.02032,-1.04326 0.0607,-3.13268 -1.12192,-2.44368 -1.88886,-15.39876 -2.25049,-37.77138 -0.10606,-6.56123 -0.41707,-12.2865 -0.69948,-12.74293 -0.80402,-1.30115 -0.93212,-7.41861 -0.18248,-8.82001 0.46896,-0.87586 0.44876,-1.5386 -0.0911,-2.18967 -0.48951,-0.58975 -0.72996,-3.01688 -0.60824,-6.53788 0.10642,-3.07917 -0.0227,-5.99192 -0.30413,-6.44737 -0.28148,-0.45545 -0.37921,-1.06077 -0.21288,-1.33813 0.16633,-0.27833 0.077,-2.01059 -0.21289,-3.86258 -0.30743,-1.96389 -0.27843,-3.6806 0.0911,-4.13605 0.40573,-0.50022 0.3652,-0.94595 -0.12164,-1.24666 -0.41844,-0.25887 -0.57658,-1.16393 -0.36495,-2.00768 0.45033,-1.79358 -1.08786,-3.40714 -2.67627,-2.79793 -0.66954,0.25693 -1.00385,1.11138 -0.91237,2.28116 0.0797,1.02088 0.0863,2.55754 0.0304,3.43633 -0.0851,1.34008 -0.24744,1.46367 -1.09485,0.76005 -0.55555,-0.46031 -1.03401,-1.67679 -1.03401,-2.70644 0,-1.47436 -0.41594,-1.99988 -2.0072,-2.55461 -1.71468,-0.59753 -2.00719,-1.08218 -2.00719,-3.04121 0,-1.26904 -0.1943,-3.2524 -0.42579,-4.40951 -0.36908,-1.84517 -0.23158,-2.0982 1.06443,-2.0982 2.15468,0 1.61958,-2.82517 -0.63864,-3.37599 -1.15283,-0.28124 -1.65094,-0.81261 -1.55103,-1.70308 0.0801,-0.71528 0.19809,-3.57841 0.2737,-6.35588 0.0875,-3.21445 0.484,-5.48197 1.09485,-6.20409 0.83801,-0.99071 0.81168,-1.33909 -0.27371,-2.82905 -0.68368,-0.93815 -1.73989,-1.72157 -2.34175,-1.73325 -0.68709,-0.01 -1.24745,-0.82332 -1.52059,-2.18967 -0.35001,-1.74979 -0.13896,-2.39988 1.03401,-3.28452 1.63153,-1.2301 1.25738,-2.4135 -1.03401,-3.2845 -1.46956,-0.55862 -1.48255,-0.63647 -0.7603,-7.17727 0.4027,-3.64653 0.95541,-7.01474 1.24689,-7.48089 0.34894,-0.55861 -0.13684,-1.2486 -1.45979,-2.00768 -2.30831,-1.32452 -3.30459,-4.74917 -1.73348,-5.99096 1.55919,-1.23302 1.14583,-3.42172 -0.7299,-3.89274 -1.59629,-0.40096 -1.6427,-0.59949 -1.42936,-4.80561 0.1228,-2.42032 0.54572,-4.74235 0.94277,-5.13941 0.51358,-0.51384 0.49447,-1.18924 -0.0304,-2.34149 -0.53857,-1.18243 -0.52105,-1.82083 0.0304,-2.37263 0.94093,-0.94009 -0.74993,-4.5915 -2.12885,-4.5915 -1.37805,0 -2.02921,-4.18666 -0.76031,-4.89708 1.43639,-0.80387 1.25998,-2.71424 -0.33453,-3.7098 -1.92581,-1.20286 -1.56148,-8.241933 0.42579,-8.241933 1.27586,0 1.17567,-3.136584 -0.12167,-3.862582 -0.78198,-0.436962 -0.87561,-0.987786 -0.42577,-2.219844 0.65951,-1.806236 0.48969,-8.272098 -0.2433,-9.458415 -0.25496,-0.411659 -1.18552,-0.593644 -2.06801,-0.425282 -1.49273,0.285144 -1.61185,0.09732 -1.61185,-2.6461 0,-1.620357 0.37267,-3.539486 0.82113,-4.257697 0.67296,-1.077319 0.58192,-1.744928 -0.60824,-3.862584 -1.23624,-2.199406 -1.42198,-3.463577 -1.27731,-8.94068 0.0928,-3.514182 0.39364,-6.978732 0.69948,-7.663857 0.3696,-0.828182 0.27726,-1.415989 -0.33453,-1.794559 -0.50622,-0.312392 -0.71295,-0.807746 -0.42578,-1.094836 0.2872,-0.28709 0.78199,-0.110944 1.09484,0.395113 0.69513,1.125007 2.73709,0.468104 2.73709,-0.881707 0,-2.084569 -0.89798,-3.078194 -3.13244,-3.497638 L 145.006,42.561365 c -0.0757,-0.133327 -0.14164,-0.280278 -0.2129,-0.456425 l 0.0609,-4.014401 c 0.0413,-2.455353 -0.13874,-5.605564 -0.39536,-6.994303 -0.31493,-1.705026 -0.20987,-2.52445 0.30411,-2.52445 0.41884,0 0.76031,-0.627707 0.76031,-1.368303 0,-0.740596 -0.31995,-1.338134 -0.69948,-1.338134 -0.37953,0 -0.98611,-0.747408 -1.33813,-1.67291 -0.3688,-0.970269 -0.99502,-1.542502 -1.61182,-1.642741 z m 56.93152,456.578032 3.49739,2.15853 c 4.34821,2.65778 12.60533,10.98924 15.7839,15.93597 1.31931,2.05439 3.27881,5.64935 4.34893,7.99862 1.07013,2.34928 1.85449,4.56425 1.73349,4.92726 -0.12098,0.36301 -1.74582,-0.43016 -3.58863,-1.76439 -1.84279,-1.33327 -6.08307,-4.14578 -9.42776,-6.26442 -3.34469,-2.1196 -6.93028,-4.53505 -7.96797,-5.35253 -1.03772,-0.81845 -2.45337,-1.66025 -3.16287,-1.88603 -1.1754,-0.37275 -1.29069,-1.10749 -1.24689,-8.08915 z m -114.5625,0.60824 c 0.2596,0 0.48753,3.15411 0.51701,6.9943 l 0.0607,6.96414 -4.34893,2.61593 c -2.39284,1.4374 -6.98699,4.19055 -10.21847,6.1126 -10.02371,5.96369 -9.57982,5.75446 -9.57982,4.68397 0,-2.93613 6.91156,-13.96623 11.83031,-18.88667 3.0067,-3.00716 10.57443,-8.48427 11.73908,-8.48427 z"
     id="path7090"
     style="fill:#000000;fill-opacity:1" />
</svg>
