%MOIN*%
%OFA0B0*%
%FSLAX44Y44*%
%IPPOS*%
%LPD*%
%ADD10C,0*%
D10*
X00015483Y00025864D02*
X00015483Y00025864D01*
X00015498Y00025864D01*
X00015513Y00025863D01*
X00015529Y00025862D01*
X00015544Y00025860D01*
X00015559Y00025858D01*
X00015574Y00025856D01*
X00015589Y00025853D01*
X00015604Y00025850D01*
X00015619Y00025846D01*
X00015634Y00025842D01*
X00015649Y00025838D01*
X00015663Y00025833D01*
X00015678Y00025828D01*
X00015692Y00025823D01*
X00015706Y00025817D01*
X00015720Y00025811D01*
X00015734Y00025804D01*
X00015748Y00025797D01*
X00015761Y00025790D01*
X00015775Y00025782D01*
X00015788Y00025774D01*
X00015801Y00025766D01*
X00015814Y00025758D01*
X00015826Y00025749D01*
X00015838Y00025739D01*
X00015850Y00025730D01*
X00015862Y00025720D01*
X00015873Y00025710D01*
X00015884Y00025699D01*
X00015895Y00025688D01*
X00015906Y00025677D01*
X00015916Y00025666D01*
X00015926Y00025654D01*
X00015936Y00025643D01*
X00015946Y00025631D01*
X00015955Y00025618D01*
X00015963Y00025606D01*
X00015972Y00025593D01*
X00015980Y00025580D01*
X00015988Y00025567D01*
X00015995Y00025553D01*
X00016002Y00025540D01*
X00016009Y00025526D01*
X00016015Y00025512D01*
X00016022Y00025498D01*
X00016027Y00025484D01*
X00016032Y00025469D01*
X00016037Y00025455D01*
X00016042Y00025440D01*
X00016046Y00025425D01*
X00016050Y00025410D01*
X00016053Y00025395D01*
X00016056Y00025380D01*
X00016058Y00025365D01*
X00016061Y00025350D01*
X00016062Y00025335D01*
X00016064Y00025320D01*
X00016065Y00025304D01*
X00016065Y00025289D01*
X00016066Y00025274D01*
X00016065Y00025258D01*
X00016065Y00025243D01*
X00016064Y00025228D01*
X00016062Y00025212D01*
X00016061Y00025197D01*
X00016058Y00025182D01*
X00016056Y00025167D01*
X00016053Y00025152D01*
X00016050Y00025137D01*
X00016046Y00025122D01*
X00016042Y00025107D01*
X00016037Y00025093D01*
X00016032Y00025078D01*
X00016027Y00025064D01*
X00016022Y00025049D01*
X00016015Y00025035D01*
X00016009Y00025021D01*
X00016002Y00025007D01*
X00015995Y00024994D01*
X00015988Y00024980D01*
X00015980Y00024967D01*
X00015972Y00024954D01*
X00015963Y00024941D01*
X00015955Y00024929D01*
X00015946Y00024917D01*
X00015936Y00024904D01*
X00015926Y00024893D01*
X00015916Y00024881D01*
X00015906Y00024870D01*
X00015895Y00024859D01*
X00015884Y00024848D01*
X00015873Y00024837D01*
X00015862Y00024827D01*
X00015850Y00024817D01*
X00015838Y00024808D01*
X00015826Y00024798D01*
X00015814Y00024790D01*
X00015801Y00024781D01*
X00015788Y00024773D01*
X00015775Y00024765D01*
X00015761Y00024757D01*
X00015748Y00024750D01*
X00015734Y00024743D01*
X00015720Y00024736D01*
X00015706Y00024730D01*
X00015692Y00024724D01*
X00015678Y00024719D01*
X00015663Y00024714D01*
X00015649Y00024709D01*
X00015634Y00024705D01*
X00015619Y00024701D01*
X00015604Y00024697D01*
X00015589Y00024694D01*
X00015574Y00024691D01*
X00015559Y00024689D01*
X00015544Y00024687D01*
X00015529Y00024685D01*
X00015513Y00024684D01*
X00015498Y00024683D01*
X00015483Y00024683D01*
X00015467Y00024683D01*
X00015452Y00024683D01*
X00015437Y00024684D01*
X00015422Y00024685D01*
X00015406Y00024687D01*
X00015391Y00024689D01*
X00015376Y00024691D01*
X00015361Y00024694D01*
X00015346Y00024697D01*
X00015331Y00024701D01*
X00015316Y00024705D01*
X00015301Y00024709D01*
X00015287Y00024714D01*
X00015272Y00024719D01*
X00015258Y00024724D01*
X00015244Y00024730D01*
X00015230Y00024736D01*
X00015216Y00024743D01*
X00015202Y00024750D01*
X00015189Y00024757D01*
X00015175Y00024765D01*
X00015162Y00024773D01*
X00015149Y00024781D01*
X00015137Y00024790D01*
X00015124Y00024798D01*
X00015112Y00024808D01*
X00015100Y00024817D01*
X00015088Y00024827D01*
X00015077Y00024837D01*
X00015066Y00024848D01*
X00015055Y00024859D01*
X00015044Y00024870D01*
X00015034Y00024881D01*
X00015024Y00024893D01*
X00015014Y00024904D01*
X00015005Y00024917D01*
X00014995Y00024929D01*
X00014987Y00024941D01*
X00014978Y00024954D01*
X00014970Y00024967D01*
X00014962Y00024980D01*
X00014955Y00024994D01*
X00014948Y00025007D01*
X00014941Y00025021D01*
X00014935Y00025035D01*
X00014929Y00025049D01*
X00014923Y00025064D01*
X00014918Y00025078D01*
X00014913Y00025093D01*
X00014908Y00025107D01*
X00014904Y00025122D01*
X00014901Y00025137D01*
X00014897Y00025152D01*
X00014894Y00025167D01*
X00014892Y00025182D01*
X00014889Y00025197D01*
X00014888Y00025212D01*
X00014886Y00025228D01*
X00014885Y00025243D01*
X00014885Y00025258D01*
X00014884Y00025274D01*
X00014885Y00025289D01*
X00014885Y00025304D01*
X00014886Y00025320D01*
X00014888Y00025335D01*
X00014889Y00025350D01*
X00014892Y00025365D01*
X00014894Y00025380D01*
X00014897Y00025395D01*
X00014901Y00025410D01*
X00014904Y00025425D01*
X00014908Y00025440D01*
X00014913Y00025455D01*
X00014918Y00025469D01*
X00014923Y00025484D01*
X00014929Y00025498D01*
X00014935Y00025512D01*
X00014941Y00025526D01*
X00014948Y00025540D01*
X00014955Y00025553D01*
X00014962Y00025567D01*
X00014970Y00025580D01*
X00014978Y00025593D01*
X00014987Y00025606D01*
X00014995Y00025618D01*
X00015005Y00025631D01*
X00015014Y00025643D01*
X00015024Y00025654D01*
X00015034Y00025666D01*
X00015044Y00025677D01*
X00015055Y00025688D01*
X00015066Y00025699D01*
X00015077Y00025710D01*
X00015088Y00025720D01*
X00015100Y00025730D01*
X00015112Y00025739D01*
X00015124Y00025749D01*
X00015137Y00025758D01*
X00015149Y00025766D01*
X00015162Y00025774D01*
X00015175Y00025782D01*
X00015189Y00025790D01*
X00015202Y00025797D01*
X00015216Y00025804D01*
X00015230Y00025811D01*
X00015244Y00025817D01*
X00015258Y00025823D01*
X00015272Y00025828D01*
X00015287Y00025833D01*
X00015301Y00025838D01*
X00015316Y00025842D01*
X00015331Y00025846D01*
X00015346Y00025850D01*
X00015361Y00025853D01*
X00015376Y00025856D01*
X00015391Y00025858D01*
X00015406Y00025860D01*
X00015422Y00025862D01*
X00015437Y00025863D01*
X00015452Y00025864D01*
X00015467Y00025864D01*
X00015483Y00025864D01*
X00015911Y00024260D02*
X00015911Y00024260D01*
X00015911Y00024260D01*
X00015909Y00024259D01*
X00015911Y00024260D01*
X00001284Y00013299D02*
X00001284Y00013299D01*
X00001299Y00013298D01*
X00001315Y00013298D01*
X00001330Y00013296D01*
X00001345Y00013295D01*
X00001361Y00013293D01*
X00001376Y00013290D01*
X00001391Y00013288D01*
X00001406Y00013284D01*
X00001421Y00013281D01*
X00001436Y00013277D01*
X00001450Y00013273D01*
X00001465Y00013268D01*
X00001479Y00013263D01*
X00001494Y00013257D01*
X00001508Y00013252D01*
X00001522Y00013245D01*
X00001536Y00013239D01*
X00001549Y00013232D01*
X00001563Y00013225D01*
X00001576Y00013217D01*
X00001589Y00013209D01*
X00001602Y00013201D01*
X00001615Y00013192D01*
X00001627Y00013183D01*
X00001640Y00013174D01*
X00001651Y00013164D01*
X00001663Y00013154D01*
X00001675Y00013144D01*
X00001686Y00013134D01*
X00001697Y00013123D01*
X00001707Y00013112D01*
X00001718Y00013101D01*
X00001728Y00013089D01*
X00001738Y00013077D01*
X00001747Y00013065D01*
X00001756Y00013053D01*
X00001765Y00013040D01*
X00001773Y00013027D01*
X00001781Y00013014D01*
X00001789Y00013001D01*
X00001797Y00012988D01*
X00001804Y00012974D01*
X00001810Y00012960D01*
X00001817Y00012946D01*
X00001823Y00012932D01*
X00001828Y00012918D01*
X00001834Y00012904D01*
X00001839Y00012889D01*
X00001843Y00012875D01*
X00001847Y00012860D01*
X00001851Y00012845D01*
X00001854Y00012830D01*
X00001857Y00012815D01*
X00001860Y00012800D01*
X00001862Y00012785D01*
X00001864Y00012769D01*
X00001865Y00012754D01*
X00001866Y00012739D01*
X00001867Y00012723D01*
X00001867Y00012708D01*
X00001867Y00012693D01*
X00001866Y00012677D01*
X00001865Y00012662D01*
X00001864Y00012647D01*
X00001862Y00012632D01*
X00001860Y00012617D01*
X00001857Y00012601D01*
X00001854Y00012586D01*
X00001851Y00012571D01*
X00001847Y00012557D01*
X00001843Y00012542D01*
X00001839Y00012527D01*
X00001834Y00012513D01*
X00001828Y00012498D01*
X00001823Y00012484D01*
X00001817Y00012470D01*
X00001810Y00012456D01*
X00001804Y00012442D01*
X00001797Y00012428D01*
X00001789Y00012415D01*
X00001781Y00012402D01*
X00001773Y00012389D01*
X00001765Y00012376D01*
X00001756Y00012363D01*
X00001747Y00012351D01*
X00001738Y00012339D01*
X00001728Y00012327D01*
X00001718Y00012316D01*
X00001707Y00012304D01*
X00001697Y00012293D01*
X00001686Y00012282D01*
X00001675Y00012272D01*
X00001663Y00012262D01*
X00001651Y00012252D01*
X00001640Y00012242D01*
X00001627Y00012233D01*
X00001615Y00012224D01*
X00001602Y00012215D01*
X00001589Y00012207D01*
X00001576Y00012199D01*
X00001563Y00012192D01*
X00001549Y00012184D01*
X00001536Y00012177D01*
X00001522Y00012171D01*
X00001508Y00012165D01*
X00001494Y00012159D01*
X00001479Y00012153D01*
X00001465Y00012148D01*
X00001450Y00012144D01*
X00001436Y00012139D01*
X00001421Y00012135D01*
X00001406Y00012132D01*
X00001391Y00012129D01*
X00001376Y00012126D01*
X00001361Y00012124D01*
X00001345Y00012122D01*
X00001330Y00012120D01*
X00001315Y00012119D01*
X00001299Y00012118D01*
X00001284Y00012118D01*
X00001269Y00012118D01*
X00001253Y00012118D01*
X00001238Y00012119D01*
X00001223Y00012120D01*
X00001208Y00012122D01*
X00001192Y00012124D01*
X00001177Y00012126D01*
X00001162Y00012129D01*
X00001147Y00012132D01*
X00001132Y00012135D01*
X00001117Y00012139D01*
X00001103Y00012144D01*
X00001088Y00012148D01*
X00001074Y00012153D01*
X00001059Y00012159D01*
X00001045Y00012165D01*
X00001031Y00012171D01*
X00001017Y00012177D01*
X00001004Y00012184D01*
X00000990Y00012192D01*
X00000977Y00012199D01*
X00000964Y00012207D01*
X00000951Y00012215D01*
X00000938Y00012224D01*
X00000926Y00012233D01*
X00000913Y00012242D01*
X00000901Y00012252D01*
X00000890Y00012262D01*
X00000878Y00012272D01*
X00000867Y00012282D01*
X00000856Y00012293D01*
X00000846Y00012304D01*
X00000835Y00012316D01*
X00000825Y00012327D01*
X00000815Y00012339D01*
X00000806Y00012351D01*
X00000797Y00012363D01*
X00000788Y00012376D01*
X00000780Y00012389D01*
X00000771Y00012402D01*
X00000764Y00012415D01*
X00000756Y00012428D01*
X00000749Y00012442D01*
X00000742Y00012456D01*
X00000736Y00012470D01*
X00000730Y00012484D01*
X00000724Y00012498D01*
X00000719Y00012513D01*
X00000714Y00012527D01*
X00000710Y00012542D01*
X00000706Y00012557D01*
X00000702Y00012571D01*
X00000699Y00012586D01*
X00000696Y00012601D01*
X00000693Y00012617D01*
X00000691Y00012632D01*
X00000689Y00012647D01*
X00000688Y00012662D01*
X00000687Y00012677D01*
X00000686Y00012693D01*
X00000686Y00012708D01*
X00000686Y00012723D01*
X00000687Y00012739D01*
X00000688Y00012754D01*
X00000689Y00012769D01*
X00000691Y00012785D01*
X00000693Y00012800D01*
X00000696Y00012815D01*
X00000699Y00012830D01*
X00000702Y00012845D01*
X00000706Y00012860D01*
X00000710Y00012875D01*
X00000714Y00012889D01*
X00000719Y00012904D01*
X00000724Y00012918D01*
X00000730Y00012932D01*
X00000736Y00012946D01*
X00000742Y00012960D01*
X00000749Y00012974D01*
X00000756Y00012988D01*
X00000764Y00013001D01*
X00000771Y00013014D01*
X00000780Y00013027D01*
X00000788Y00013040D01*
X00000797Y00013053D01*
X00000806Y00013065D01*
X00000815Y00013077D01*
X00000825Y00013089D01*
X00000835Y00013101D01*
X00000846Y00013112D01*
X00000856Y00013123D01*
X00000867Y00013134D01*
X00000878Y00013144D01*
X00000890Y00013154D01*
X00000901Y00013164D01*
X00000913Y00013174D01*
X00000926Y00013183D01*
X00000938Y00013192D01*
X00000951Y00013201D01*
X00000964Y00013209D01*
X00000977Y00013217D01*
X00000990Y00013225D01*
X00001004Y00013232D01*
X00001017Y00013239D01*
X00001031Y00013245D01*
X00001045Y00013252D01*
X00001059Y00013257D01*
X00001074Y00013263D01*
X00001088Y00013268D01*
X00001103Y00013273D01*
X00001117Y00013277D01*
X00001132Y00013281D01*
X00001147Y00013284D01*
X00001162Y00013288D01*
X00001177Y00013290D01*
X00001192Y00013293D01*
X00001208Y00013295D01*
X00001223Y00013296D01*
X00001238Y00013298D01*
X00001253Y00013298D01*
X00001269Y00013299D01*
X00001284Y00013299D01*
X00024083Y00021064D02*
X00024083Y00021064D01*
X00024068Y00021064D01*
X00024053Y00021065D01*
X00024037Y00021066D01*
X00024022Y00021068D01*
X00024007Y00021070D01*
X00023992Y00021072D01*
X00023977Y00021075D01*
X00023962Y00021078D01*
X00023947Y00021082D01*
X00023932Y00021086D01*
X00023917Y00021090D01*
X00023903Y00021095D01*
X00023888Y00021100D01*
X00023874Y00021105D01*
X00023860Y00021111D01*
X00023846Y00021117D01*
X00023832Y00021124D01*
X00023818Y00021131D01*
X00023804Y00021138D01*
X00023791Y00021146D01*
X00023778Y00021154D01*
X00023765Y00021162D01*
X00023752Y00021171D01*
X00023740Y00021179D01*
X00023728Y00021189D01*
X00023716Y00021198D01*
X00023704Y00021208D01*
X00023693Y00021218D01*
X00023681Y00021229D01*
X00023671Y00021240D01*
X00023660Y00021251D01*
X00023650Y00021262D01*
X00023640Y00021274D01*
X00023630Y00021285D01*
X00023620Y00021298D01*
X00023611Y00021310D01*
X00023602Y00021322D01*
X00023594Y00021335D01*
X00023586Y00021348D01*
X00023578Y00021361D01*
X00023571Y00021375D01*
X00023564Y00021388D01*
X00023557Y00021402D01*
X00023550Y00021416D01*
X00023544Y00021430D01*
X00023539Y00021445D01*
X00023534Y00021459D01*
X00023529Y00021474D01*
X00023524Y00021488D01*
X00023520Y00021503D01*
X00023516Y00021518D01*
X00023513Y00021533D01*
X00023510Y00021548D01*
X00023507Y00021563D01*
X00023505Y00021578D01*
X00023503Y00021593D01*
X00023502Y00021609D01*
X00023501Y00021624D01*
X00023500Y00021639D01*
X00023500Y00021655D01*
X00023500Y00021670D01*
X00023501Y00021685D01*
X00023502Y00021701D01*
X00023503Y00021716D01*
X00023505Y00021731D01*
X00023507Y00021746D01*
X00023510Y00021761D01*
X00023513Y00021776D01*
X00023516Y00021791D01*
X00023520Y00021806D01*
X00023524Y00021821D01*
X00023529Y00021836D01*
X00023534Y00021850D01*
X00023539Y00021865D01*
X00023544Y00021879D01*
X00023550Y00021893D01*
X00023557Y00021907D01*
X00023564Y00021921D01*
X00023571Y00021934D01*
X00023578Y00021948D01*
X00023586Y00021961D01*
X00023594Y00021974D01*
X00023602Y00021987D01*
X00023611Y00021999D01*
X00023620Y00022012D01*
X00023630Y00022024D01*
X00023640Y00022035D01*
X00023650Y00022047D01*
X00023660Y00022058D01*
X00023671Y00022069D01*
X00023681Y00022080D01*
X00023693Y00022091D01*
X00023704Y00022101D01*
X00023716Y00022111D01*
X00023728Y00022120D01*
X00023740Y00022130D01*
X00023752Y00022139D01*
X00023765Y00022147D01*
X00023778Y00022155D01*
X00023791Y00022163D01*
X00023804Y00022171D01*
X00023818Y00022178D01*
X00023832Y00022185D01*
X00023846Y00022192D01*
X00023860Y00022198D01*
X00023874Y00022204D01*
X00023888Y00022209D01*
X00023903Y00022214D01*
X00023917Y00022219D01*
X00023932Y00022223D01*
X00023947Y00022227D01*
X00023962Y00022231D01*
X00023977Y00022234D01*
X00023992Y00022237D01*
X00024007Y00022239D01*
X00024022Y00022241D01*
X00024037Y00022243D01*
X00024053Y00022244D01*
X00024068Y00022245D01*
X00024083Y00022245D01*
X00024099Y00022245D01*
X00024114Y00022245D01*
X00024129Y00022244D01*
X00024144Y00022243D01*
X00024160Y00022241D01*
X00024175Y00022239D01*
X00024190Y00022237D01*
X00024205Y00022234D01*
X00024220Y00022231D01*
X00024235Y00022227D01*
X00024250Y00022223D01*
X00024265Y00022219D01*
X00024279Y00022214D01*
X00024294Y00022209D01*
X00024308Y00022204D01*
X00024322Y00022198D01*
X00024336Y00022192D01*
X00024350Y00022185D01*
X00024364Y00022178D01*
X00024377Y00022171D01*
X00024391Y00022163D01*
X00024404Y00022155D01*
X00024417Y00022147D01*
X00024429Y00022139D01*
X00024442Y00022130D01*
X00024454Y00022120D01*
X00024466Y00022111D01*
X00024478Y00022101D01*
X00024489Y00022091D01*
X00024500Y00022080D01*
X00024511Y00022069D01*
X00024522Y00022058D01*
X00024532Y00022047D01*
X00024542Y00022035D01*
X00024552Y00022024D01*
X00024561Y00022012D01*
X00024570Y00021999D01*
X00024579Y00021987D01*
X00024588Y00021974D01*
X00024596Y00021961D01*
X00024604Y00021948D01*
X00024611Y00021934D01*
X00024618Y00021921D01*
X00024625Y00021907D01*
X00024631Y00021893D01*
X00024637Y00021879D01*
X00024643Y00021865D01*
X00024648Y00021850D01*
X00024653Y00021836D01*
X00024658Y00021821D01*
X00024662Y00021806D01*
X00024665Y00021791D01*
X00024669Y00021776D01*
X00024672Y00021761D01*
X00024674Y00021746D01*
X00024676Y00021731D01*
X00024678Y00021716D01*
X00024680Y00021701D01*
X00024681Y00021685D01*
X00024681Y00021670D01*
X00024681Y00021655D01*
X00024681Y00021639D01*
X00024681Y00021624D01*
X00024680Y00021609D01*
X00024678Y00021593D01*
X00024676Y00021578D01*
X00024674Y00021563D01*
X00024672Y00021548D01*
X00024669Y00021533D01*
X00024665Y00021518D01*
X00024662Y00021503D01*
X00024658Y00021488D01*
X00024653Y00021474D01*
X00024648Y00021459D01*
X00024643Y00021445D01*
X00024637Y00021430D01*
X00024631Y00021416D01*
X00024625Y00021402D01*
X00024618Y00021388D01*
X00024611Y00021375D01*
X00024604Y00021361D01*
X00024596Y00021348D01*
X00024588Y00021335D01*
X00024579Y00021322D01*
X00024570Y00021310D01*
X00024561Y00021298D01*
X00024552Y00021285D01*
X00024542Y00021274D01*
X00024532Y00021262D01*
X00024522Y00021251D01*
X00024511Y00021240D01*
X00024500Y00021229D01*
X00024489Y00021218D01*
X00024478Y00021208D01*
X00024466Y00021198D01*
X00024454Y00021189D01*
X00024442Y00021179D01*
X00024429Y00021171D01*
X00024417Y00021162D01*
X00024404Y00021154D01*
X00024391Y00021146D01*
X00024377Y00021138D01*
X00024364Y00021131D01*
X00024350Y00021124D01*
X00024336Y00021117D01*
X00024322Y00021111D01*
X00024308Y00021105D01*
X00024294Y00021100D01*
X00024279Y00021095D01*
X00024265Y00021090D01*
X00024250Y00021086D01*
X00024235Y00021082D01*
X00024220Y00021078D01*
X00024205Y00021075D01*
X00024190Y00021072D01*
X00024175Y00021070D01*
X00024160Y00021068D01*
X00024144Y00021066D01*
X00024129Y00021065D01*
X00024114Y00021064D01*
X00024099Y00021064D01*
X00024083Y00021064D01*
X00023655Y00022668D02*
X00023655Y00022668D01*
X00023655Y00022669D01*
X00023657Y00022669D01*
X00023655Y00022668D01*
X00038282Y00033629D02*
X00038282Y00033629D01*
X00038266Y00033630D01*
X00038251Y00033631D01*
X00038236Y00033632D01*
X00038221Y00033633D01*
X00038205Y00033635D01*
X00038190Y00033638D01*
X00038175Y00033641D01*
X00038160Y00033644D01*
X00038145Y00033647D01*
X00038130Y00033651D01*
X00038116Y00033655D01*
X00038101Y00033660D01*
X00038087Y00033665D01*
X00038072Y00033671D01*
X00038058Y00033677D01*
X00038044Y00033683D01*
X00038030Y00033689D01*
X00038017Y00033696D01*
X00038003Y00033703D01*
X00037990Y00033711D01*
X00037977Y00033719D01*
X00037964Y00033727D01*
X00037951Y00033736D01*
X00037939Y00033745D01*
X00037926Y00033754D01*
X00037914Y00033764D01*
X00037903Y00033774D01*
X00037891Y00033784D01*
X00037880Y00033794D01*
X00037869Y00033805D01*
X00037859Y00033816D01*
X00037848Y00033827D01*
X00037838Y00033839D01*
X00037828Y00033851D01*
X00037819Y00033863D01*
X00037810Y00033875D01*
X00037801Y00033888D01*
X00037793Y00033901D01*
X00037784Y00033914D01*
X00037777Y00033927D01*
X00037769Y00033940D01*
X00037762Y00033954D01*
X00037755Y00033968D01*
X00037749Y00033982D01*
X00037743Y00033996D01*
X00037737Y00034010D01*
X00037732Y00034024D01*
X00037727Y00034039D01*
X00037723Y00034054D01*
X00037719Y00034068D01*
X00037715Y00034083D01*
X00037712Y00034098D01*
X00037709Y00034113D01*
X00037706Y00034128D01*
X00037704Y00034143D01*
X00037702Y00034159D01*
X00037701Y00034174D01*
X00037700Y00034189D01*
X00037699Y00034205D01*
X00037699Y00034220D01*
X00037699Y00034235D01*
X00037700Y00034251D01*
X00037701Y00034266D01*
X00037702Y00034281D01*
X00037704Y00034296D01*
X00037706Y00034312D01*
X00037709Y00034327D01*
X00037712Y00034342D01*
X00037715Y00034357D01*
X00037719Y00034372D01*
X00037723Y00034386D01*
X00037727Y00034401D01*
X00037732Y00034416D01*
X00037737Y00034430D01*
X00037743Y00034444D01*
X00037749Y00034458D01*
X00037755Y00034472D01*
X00037762Y00034486D01*
X00037769Y00034500D01*
X00037777Y00034513D01*
X00037784Y00034526D01*
X00037793Y00034539D01*
X00037801Y00034552D01*
X00037810Y00034565D01*
X00037819Y00034577D01*
X00037828Y00034589D01*
X00037838Y00034601D01*
X00037848Y00034612D01*
X00037859Y00034624D01*
X00037869Y00034635D01*
X00037880Y00034646D01*
X00037891Y00034656D01*
X00037903Y00034666D01*
X00037914Y00034676D01*
X00037926Y00034686D01*
X00037939Y00034695D01*
X00037951Y00034704D01*
X00037964Y00034713D01*
X00037977Y00034721D01*
X00037990Y00034729D01*
X00038003Y00034736D01*
X00038017Y00034744D01*
X00038030Y00034751D01*
X00038044Y00034757D01*
X00038058Y00034763D01*
X00038072Y00034769D01*
X00038087Y00034775D01*
X00038101Y00034780D01*
X00038116Y00034784D01*
X00038130Y00034789D01*
X00038145Y00034793D01*
X00038160Y00034796D01*
X00038175Y00034799D01*
X00038190Y00034802D01*
X00038205Y00034805D01*
X00038221Y00034807D01*
X00038236Y00034808D01*
X00038251Y00034809D01*
X00038266Y00034810D01*
X00038282Y00034811D01*
X00038297Y00034811D01*
X00038312Y00034810D01*
X00038328Y00034809D01*
X00038343Y00034808D01*
X00038358Y00034807D01*
X00038374Y00034805D01*
X00038389Y00034802D01*
X00038404Y00034799D01*
X00038419Y00034796D01*
X00038434Y00034793D01*
X00038448Y00034789D01*
X00038463Y00034784D01*
X00038478Y00034780D01*
X00038492Y00034775D01*
X00038507Y00034769D01*
X00038521Y00034763D01*
X00038535Y00034757D01*
X00038549Y00034751D01*
X00038562Y00034744D01*
X00038576Y00034736D01*
X00038589Y00034729D01*
X00038602Y00034721D01*
X00038615Y00034713D01*
X00038628Y00034704D01*
X00038640Y00034695D01*
X00038653Y00034686D01*
X00038664Y00034676D01*
X00038676Y00034666D01*
X00038688Y00034656D01*
X00038699Y00034646D01*
X00038710Y00034635D01*
X00038720Y00034624D01*
X00038731Y00034612D01*
X00038741Y00034601D01*
X00038751Y00034589D01*
X00038760Y00034577D01*
X00038769Y00034565D01*
X00038778Y00034552D01*
X00038786Y00034539D01*
X00038794Y00034526D01*
X00038802Y00034513D01*
X00038810Y00034500D01*
X00038817Y00034486D01*
X00038823Y00034472D01*
X00038830Y00034458D01*
X00038836Y00034444D01*
X00038841Y00034430D01*
X00038847Y00034416D01*
X00038852Y00034401D01*
X00038856Y00034386D01*
X00038860Y00034372D01*
X00038864Y00034357D01*
X00038867Y00034342D01*
X00038870Y00034327D01*
X00038873Y00034312D01*
X00038875Y00034296D01*
X00038877Y00034281D01*
X00038878Y00034266D01*
X00038879Y00034251D01*
X00038880Y00034235D01*
X00038880Y00034220D01*
X00038880Y00034205D01*
X00038879Y00034189D01*
X00038878Y00034174D01*
X00038877Y00034159D01*
X00038875Y00034143D01*
X00038873Y00034128D01*
X00038870Y00034113D01*
X00038867Y00034098D01*
X00038864Y00034083D01*
X00038860Y00034068D01*
X00038856Y00034054D01*
X00038852Y00034039D01*
X00038847Y00034024D01*
X00038841Y00034010D01*
X00038836Y00033996D01*
X00038830Y00033982D01*
X00038823Y00033968D01*
X00038817Y00033954D01*
X00038810Y00033940D01*
X00038802Y00033927D01*
X00038794Y00033914D01*
X00038786Y00033901D01*
X00038778Y00033888D01*
X00038769Y00033875D01*
X00038760Y00033863D01*
X00038751Y00033851D01*
X00038741Y00033839D01*
X00038731Y00033827D01*
X00038720Y00033816D01*
X00038710Y00033805D01*
X00038699Y00033794D01*
X00038688Y00033784D01*
X00038676Y00033774D01*
X00038664Y00033764D01*
X00038653Y00033754D01*
X00038640Y00033745D01*
X00038628Y00033736D01*
X00038615Y00033727D01*
X00038602Y00033719D01*
X00038589Y00033711D01*
X00038576Y00033703D01*
X00038562Y00033696D01*
X00038549Y00033689D01*
X00038535Y00033683D01*
X00038521Y00033677D01*
X00038507Y00033671D01*
X00038492Y00033665D01*
X00038478Y00033660D01*
X00038463Y00033655D01*
X00038448Y00033651D01*
X00038434Y00033647D01*
X00038419Y00033644D01*
X00038404Y00033641D01*
X00038389Y00033638D01*
X00038374Y00033635D01*
X00038358Y00033633D01*
X00038343Y00033632D01*
X00038328Y00033631D01*
X00038312Y00033630D01*
X00038297Y00033629D01*
X00038282Y00033629D01*
X00024083Y00001143D02*
X00024083Y00001143D01*
X00024068Y00001143D01*
X00024053Y00001144D01*
X00024037Y00001145D01*
X00024022Y00001147D01*
X00024007Y00001149D01*
X00023992Y00001151D01*
X00023977Y00001154D01*
X00023962Y00001157D01*
X00023947Y00001161D01*
X00023932Y00001165D01*
X00023917Y00001169D01*
X00023903Y00001174D01*
X00023888Y00001179D01*
X00023874Y00001184D01*
X00023860Y00001190D01*
X00023846Y00001196D01*
X00023832Y00001203D01*
X00023818Y00001210D01*
X00023804Y00001217D01*
X00023791Y00001224D01*
X00023778Y00001232D01*
X00023765Y00001241D01*
X00023752Y00001249D01*
X00023740Y00001258D01*
X00023728Y00001268D01*
X00023716Y00001277D01*
X00023704Y00001287D01*
X00023693Y00001297D01*
X00023681Y00001308D01*
X00023671Y00001318D01*
X00023660Y00001330D01*
X00023650Y00001341D01*
X00023640Y00001352D01*
X00023630Y00001364D01*
X00023620Y00001376D01*
X00023611Y00001389D01*
X00023602Y00001401D01*
X00023594Y00001414D01*
X00023586Y00001427D01*
X00023578Y00001440D01*
X00023571Y00001454D01*
X00023564Y00001467D01*
X00023557Y00001481D01*
X00023550Y00001495D01*
X00023544Y00001509D01*
X00023539Y00001523D01*
X00023534Y00001538D01*
X00023529Y00001552D01*
X00023524Y00001567D01*
X00023520Y00001582D01*
X00023516Y00001597D01*
X00023513Y00001612D01*
X00023510Y00001627D01*
X00023507Y00001642D01*
X00023505Y00001657D01*
X00023503Y00001672D01*
X00023502Y00001687D01*
X00023501Y00001703D01*
X00023500Y00001718D01*
X00023500Y00001733D01*
X00023500Y00001749D01*
X00023501Y00001764D01*
X00023502Y00001779D01*
X00023503Y00001795D01*
X00023505Y00001810D01*
X00023507Y00001825D01*
X00023510Y00001840D01*
X00023513Y00001855D01*
X00023516Y00001870D01*
X00023520Y00001885D01*
X00023524Y00001900D01*
X00023529Y00001914D01*
X00023534Y00001929D01*
X00023539Y00001943D01*
X00023544Y00001958D01*
X00023550Y00001972D01*
X00023557Y00001986D01*
X00023564Y00001999D01*
X00023571Y00002013D01*
X00023578Y00002026D01*
X00023586Y00002040D01*
X00023594Y00002053D01*
X00023602Y00002065D01*
X00023611Y00002078D01*
X00023620Y00002090D01*
X00023630Y00002102D01*
X00023640Y00002114D01*
X00023650Y00002126D01*
X00023660Y00002137D01*
X00023671Y00002148D01*
X00023681Y00002159D01*
X00023693Y00002170D01*
X00023704Y00002180D01*
X00023716Y00002190D01*
X00023728Y00002199D01*
X00023740Y00002208D01*
X00023752Y00002217D01*
X00023765Y00002226D01*
X00023778Y00002234D01*
X00023791Y00002242D01*
X00023804Y00002250D01*
X00023818Y00002257D01*
X00023832Y00002264D01*
X00023846Y00002271D01*
X00023860Y00002277D01*
X00023874Y00002283D01*
X00023888Y00002288D01*
X00023903Y00002293D01*
X00023917Y00002298D01*
X00023932Y00002302D01*
X00023947Y00002306D01*
X00023962Y00002310D01*
X00023977Y00002313D01*
X00023992Y00002316D01*
X00024007Y00002318D01*
X00024022Y00002320D01*
X00024037Y00002322D01*
X00024053Y00002323D01*
X00024068Y00002324D01*
X00024083Y00002324D01*
X00024099Y00002324D01*
X00024114Y00002324D01*
X00024129Y00002323D01*
X00024144Y00002322D01*
X00024160Y00002320D01*
X00024175Y00002318D01*
X00024190Y00002316D01*
X00024205Y00002313D01*
X00024220Y00002310D01*
X00024235Y00002306D01*
X00024250Y00002302D01*
X00024265Y00002298D01*
X00024279Y00002293D01*
X00024294Y00002288D01*
X00024308Y00002283D01*
X00024322Y00002277D01*
X00024336Y00002271D01*
X00024350Y00002264D01*
X00024364Y00002257D01*
X00024377Y00002250D01*
X00024391Y00002242D01*
X00024404Y00002234D01*
X00024417Y00002226D01*
X00024429Y00002217D01*
X00024442Y00002208D01*
X00024454Y00002199D01*
X00024466Y00002190D01*
X00024478Y00002180D01*
X00024489Y00002170D01*
X00024500Y00002159D01*
X00024511Y00002148D01*
X00024522Y00002137D01*
X00024532Y00002126D01*
X00024542Y00002114D01*
X00024552Y00002102D01*
X00024561Y00002090D01*
X00024570Y00002078D01*
X00024579Y00002065D01*
X00024588Y00002053D01*
X00024596Y00002040D01*
X00024604Y00002026D01*
X00024611Y00002013D01*
X00024618Y00001999D01*
X00024625Y00001986D01*
X00024631Y00001972D01*
X00024637Y00001958D01*
X00024643Y00001943D01*
X00024648Y00001929D01*
X00024653Y00001914D01*
X00024658Y00001900D01*
X00024662Y00001885D01*
X00024665Y00001870D01*
X00024669Y00001855D01*
X00024672Y00001840D01*
X00024674Y00001825D01*
X00024676Y00001810D01*
X00024678Y00001795D01*
X00024680Y00001779D01*
X00024681Y00001764D01*
X00024681Y00001749D01*
X00024681Y00001733D01*
X00024681Y00001718D01*
X00024681Y00001703D01*
X00024680Y00001687D01*
X00024678Y00001672D01*
X00024676Y00001657D01*
X00024674Y00001642D01*
X00024672Y00001627D01*
X00024669Y00001612D01*
X00024665Y00001597D01*
X00024662Y00001582D01*
X00024658Y00001567D01*
X00024653Y00001552D01*
X00024648Y00001538D01*
X00024643Y00001523D01*
X00024637Y00001509D01*
X00024631Y00001495D01*
X00024625Y00001481D01*
X00024618Y00001467D01*
X00024611Y00001454D01*
X00024604Y00001440D01*
X00024596Y00001427D01*
X00024588Y00001414D01*
X00024579Y00001401D01*
X00024570Y00001389D01*
X00024561Y00001376D01*
X00024552Y00001364D01*
X00024542Y00001352D01*
X00024532Y00001341D01*
X00024522Y00001330D01*
X00024511Y00001318D01*
X00024500Y00001308D01*
X00024489Y00001297D01*
X00024478Y00001287D01*
X00024466Y00001277D01*
X00024454Y00001268D01*
X00024442Y00001258D01*
X00024429Y00001249D01*
X00024417Y00001241D01*
X00024404Y00001232D01*
X00024391Y00001224D01*
X00024377Y00001217D01*
X00024364Y00001210D01*
X00024350Y00001203D01*
X00024336Y00001196D01*
X00024322Y00001190D01*
X00024308Y00001184D01*
X00024294Y00001179D01*
X00024279Y00001174D01*
X00024265Y00001169D01*
X00024250Y00001165D01*
X00024235Y00001161D01*
X00024220Y00001157D01*
X00024205Y00001154D01*
X00024190Y00001151D01*
X00024175Y00001149D01*
X00024160Y00001147D01*
X00024144Y00001145D01*
X00024129Y00001144D01*
X00024114Y00001143D01*
X00024099Y00001143D01*
X00024083Y00001143D01*
X00023655Y00002747D02*
X00023655Y00002747D01*
X00023655Y00002747D01*
X00023657Y00002747D01*
X00023655Y00002747D01*
X00038282Y00013708D02*
X00038282Y00013708D01*
X00038266Y00013709D01*
X00038251Y00013709D01*
X00038236Y00013711D01*
X00038221Y00013712D01*
X00038205Y00013714D01*
X00038190Y00013717D01*
X00038175Y00013719D01*
X00038160Y00013722D01*
X00038145Y00013726D01*
X00038130Y00013730D01*
X00038116Y00013734D01*
X00038101Y00013739D01*
X00038087Y00013744D01*
X00038072Y00013750D01*
X00038058Y00013755D01*
X00038044Y00013762D01*
X00038030Y00013768D01*
X00038017Y00013775D01*
X00038003Y00013782D01*
X00037990Y00013790D01*
X00037977Y00013798D01*
X00037964Y00013806D01*
X00037951Y00013815D01*
X00037939Y00013824D01*
X00037926Y00013833D01*
X00037914Y00013843D01*
X00037903Y00013852D01*
X00037891Y00013863D01*
X00037880Y00013873D01*
X00037869Y00013884D01*
X00037859Y00013895D01*
X00037848Y00013906D01*
X00037838Y00013918D01*
X00037828Y00013930D01*
X00037819Y00013942D01*
X00037810Y00013954D01*
X00037801Y00013967D01*
X00037793Y00013979D01*
X00037784Y00013992D01*
X00037777Y00014006D01*
X00037769Y00014019D01*
X00037762Y00014033D01*
X00037755Y00014046D01*
X00037749Y00014060D01*
X00037743Y00014075D01*
X00037737Y00014089D01*
X00037732Y00014103D01*
X00037727Y00014118D01*
X00037723Y00014132D01*
X00037719Y00014147D01*
X00037715Y00014162D01*
X00037712Y00014177D01*
X00037709Y00014192D01*
X00037706Y00014207D01*
X00037704Y00014222D01*
X00037702Y00014238D01*
X00037701Y00014253D01*
X00037700Y00014268D01*
X00037699Y00014283D01*
X00037699Y00014299D01*
X00037699Y00014314D01*
X00037700Y00014329D01*
X00037701Y00014345D01*
X00037702Y00014360D01*
X00037704Y00014375D01*
X00037706Y00014390D01*
X00037709Y00014405D01*
X00037712Y00014421D01*
X00037715Y00014436D01*
X00037719Y00014450D01*
X00037723Y00014465D01*
X00037727Y00014480D01*
X00037732Y00014494D01*
X00037737Y00014509D01*
X00037743Y00014523D01*
X00037749Y00014537D01*
X00037755Y00014551D01*
X00037762Y00014565D01*
X00037769Y00014578D01*
X00037777Y00014592D01*
X00037784Y00014605D01*
X00037793Y00014618D01*
X00037801Y00014631D01*
X00037810Y00014643D01*
X00037819Y00014656D01*
X00037828Y00014668D01*
X00037838Y00014680D01*
X00037848Y00014691D01*
X00037859Y00014703D01*
X00037869Y00014714D01*
X00037880Y00014724D01*
X00037891Y00014735D01*
X00037903Y00014745D01*
X00037914Y00014755D01*
X00037926Y00014765D01*
X00037939Y00014774D01*
X00037951Y00014783D01*
X00037964Y00014791D01*
X00037977Y00014800D01*
X00037990Y00014808D01*
X00038003Y00014815D01*
X00038017Y00014823D01*
X00038030Y00014829D01*
X00038044Y00014836D01*
X00038058Y00014842D01*
X00038072Y00014848D01*
X00038087Y00014853D01*
X00038101Y00014859D01*
X00038116Y00014863D01*
X00038130Y00014868D01*
X00038145Y00014871D01*
X00038160Y00014875D01*
X00038175Y00014878D01*
X00038190Y00014881D01*
X00038205Y00014883D01*
X00038221Y00014885D01*
X00038236Y00014887D01*
X00038251Y00014888D01*
X00038266Y00014889D01*
X00038282Y00014889D01*
X00038297Y00014889D01*
X00038312Y00014889D01*
X00038328Y00014888D01*
X00038343Y00014887D01*
X00038358Y00014885D01*
X00038374Y00014883D01*
X00038389Y00014881D01*
X00038404Y00014878D01*
X00038419Y00014875D01*
X00038434Y00014871D01*
X00038448Y00014868D01*
X00038463Y00014863D01*
X00038478Y00014859D01*
X00038492Y00014853D01*
X00038507Y00014848D01*
X00038521Y00014842D01*
X00038535Y00014836D01*
X00038549Y00014829D01*
X00038562Y00014823D01*
X00038576Y00014815D01*
X00038589Y00014808D01*
X00038602Y00014800D01*
X00038615Y00014791D01*
X00038628Y00014783D01*
X00038640Y00014774D01*
X00038653Y00014765D01*
X00038664Y00014755D01*
X00038676Y00014745D01*
X00038688Y00014735D01*
X00038699Y00014724D01*
X00038710Y00014714D01*
X00038720Y00014703D01*
X00038731Y00014691D01*
X00038741Y00014680D01*
X00038751Y00014668D01*
X00038760Y00014656D01*
X00038769Y00014643D01*
X00038778Y00014631D01*
X00038786Y00014618D01*
X00038794Y00014605D01*
X00038802Y00014592D01*
X00038810Y00014578D01*
X00038817Y00014565D01*
X00038823Y00014551D01*
X00038830Y00014537D01*
X00038836Y00014523D01*
X00038841Y00014509D01*
X00038847Y00014494D01*
X00038852Y00014480D01*
X00038856Y00014465D01*
X00038860Y00014450D01*
X00038864Y00014436D01*
X00038867Y00014421D01*
X00038870Y00014405D01*
X00038873Y00014390D01*
X00038875Y00014375D01*
X00038877Y00014360D01*
X00038878Y00014345D01*
X00038879Y00014329D01*
X00038880Y00014314D01*
X00038880Y00014299D01*
X00038880Y00014283D01*
X00038879Y00014268D01*
X00038878Y00014253D01*
X00038877Y00014238D01*
X00038875Y00014222D01*
X00038873Y00014207D01*
X00038870Y00014192D01*
X00038867Y00014177D01*
X00038864Y00014162D01*
X00038860Y00014147D01*
X00038856Y00014132D01*
X00038852Y00014118D01*
X00038847Y00014103D01*
X00038841Y00014089D01*
X00038836Y00014075D01*
X00038830Y00014060D01*
X00038823Y00014046D01*
X00038817Y00014033D01*
X00038810Y00014019D01*
X00038802Y00014006D01*
X00038794Y00013992D01*
X00038786Y00013979D01*
X00038778Y00013967D01*
X00038769Y00013954D01*
X00038760Y00013942D01*
X00038751Y00013930D01*
X00038741Y00013918D01*
X00038731Y00013906D01*
X00038720Y00013895D01*
X00038710Y00013884D01*
X00038699Y00013873D01*
X00038688Y00013863D01*
X00038676Y00013852D01*
X00038664Y00013843D01*
X00038653Y00013833D01*
X00038640Y00013824D01*
X00038628Y00013815D01*
X00038615Y00013806D01*
X00038602Y00013798D01*
X00038589Y00013790D01*
X00038576Y00013782D01*
X00038562Y00013775D01*
X00038549Y00013768D01*
X00038535Y00013762D01*
X00038521Y00013755D01*
X00038507Y00013750D01*
X00038492Y00013744D01*
X00038478Y00013739D01*
X00038463Y00013734D01*
X00038448Y00013730D01*
X00038434Y00013726D01*
X00038419Y00013722D01*
X00038404Y00013719D01*
X00038389Y00013717D01*
X00038374Y00013714D01*
X00038358Y00013712D01*
X00038343Y00013711D01*
X00038328Y00013709D01*
X00038312Y00013709D01*
X00038297Y00013708D01*
X00038282Y00013708D01*
X00021928Y00020706D02*
X00021928Y00020706D01*
X00021957Y00020704D01*
X00021985Y00020700D01*
X00022014Y00020693D01*
X00022041Y00020685D01*
X00022068Y00020674D01*
X00022094Y00020662D01*
X00022119Y00020648D01*
X00022143Y00020632D01*
X00022166Y00020614D01*
X00022188Y00020594D01*
X00022207Y00020574D01*
X00022226Y00020551D01*
X00022242Y00020528D01*
X00022257Y00020503D01*
X00022270Y00020477D01*
X00022281Y00020450D01*
X00022290Y00020423D01*
X00022298Y00020395D01*
X00022303Y00020367D01*
X00022305Y00020338D01*
X00022337Y00019847D01*
X00022338Y00019815D01*
X00022336Y00019783D01*
X00022331Y00019751D01*
X00022324Y00019719D01*
X00022315Y00019689D01*
X00022302Y00019659D01*
X00022288Y00019630D01*
X00022271Y00019603D01*
X00022252Y00019577D01*
X00022231Y00019552D01*
X00022208Y00019530D01*
X00022183Y00019509D01*
X00022157Y00019491D01*
X00022129Y00019474D01*
X00022100Y00019460D01*
X00022070Y00019449D01*
X00022040Y00019440D01*
X00022008Y00019433D01*
X00021976Y00019429D01*
X00021944Y00019428D01*
X00021657Y00019428D01*
X00021657Y00015760D01*
X00021656Y00015729D01*
X00021653Y00015699D01*
X00021647Y00015669D01*
X00021638Y00015639D01*
X00021628Y00015610D01*
X00021615Y00015583D01*
X00021600Y00015556D01*
X00021584Y00015530D01*
X00021565Y00015506D01*
X00021544Y00015484D01*
X00021522Y00015463D01*
X00021498Y00015443D01*
X00021473Y00015426D01*
X00021446Y00015411D01*
X00021419Y00015398D01*
X00021390Y00015387D01*
X00021361Y00015378D01*
X00021331Y00015372D01*
X00021300Y00015368D01*
X00021270Y00015366D01*
X00018309Y00015319D01*
X00018277Y00015320D01*
X00018246Y00015323D01*
X00018216Y00015328D01*
X00018185Y00015337D01*
X00018156Y00015347D01*
X00018127Y00015360D01*
X00018100Y00015375D01*
X00018074Y00015392D01*
X00018049Y00015411D01*
X00018026Y00015432D01*
X00018005Y00015455D01*
X00017985Y00015479D01*
X00017968Y00015505D01*
X00017952Y00015532D01*
X00017939Y00015560D01*
X00017928Y00015590D01*
X00017920Y00015620D01*
X00017914Y00015650D01*
X00017910Y00015681D01*
X00017909Y00015712D01*
X00017909Y00018690D01*
X00015909Y00019065D01*
X00015909Y00021662D01*
X00015911Y00024260D01*
X00017152Y00024308D01*
X00018428Y00024357D01*
X00018435Y00024373D01*
X00018442Y00024557D01*
X00020492Y00024919D01*
X00022575Y00025315D01*
X00018450Y00025968D01*
X00018450Y00026190D01*
X00017040Y00026246D01*
X00015631Y00026301D01*
X00015631Y00026617D01*
X00012395Y00026954D01*
X00006339Y00026919D01*
X00000284Y00026884D01*
X00000284Y00007579D01*
X00017909Y00007579D01*
X00017909Y00012633D01*
X00017910Y00012664D01*
X00017914Y00012695D01*
X00017920Y00012726D01*
X00017928Y00012756D01*
X00017939Y00012785D01*
X00017952Y00012813D01*
X00017968Y00012841D01*
X00017985Y00012866D01*
X00018005Y00012891D01*
X00018026Y00012914D01*
X00018049Y00012935D01*
X00018074Y00012954D01*
X00018100Y00012971D01*
X00018127Y00012986D01*
X00018156Y00012999D01*
X00018185Y00013009D01*
X00018216Y00013017D01*
X00018246Y00013023D01*
X00018277Y00013026D01*
X00018309Y00013027D01*
X00021270Y00012979D01*
X00021300Y00012978D01*
X00021331Y00012974D01*
X00021361Y00012967D01*
X00021390Y00012959D01*
X00021419Y00012948D01*
X00021446Y00012935D01*
X00021473Y00012919D01*
X00021498Y00012902D01*
X00021522Y00012883D01*
X00021544Y00012862D01*
X00021565Y00012839D01*
X00021584Y00012815D01*
X00021600Y00012790D01*
X00021615Y00012763D01*
X00021628Y00012735D01*
X00021638Y00012706D01*
X00021647Y00012677D01*
X00021653Y00012647D01*
X00021656Y00012616D01*
X00021657Y00012586D01*
X00021657Y00008317D01*
X00023657Y00007942D01*
X00023657Y00005345D01*
X00023655Y00002747D01*
X00022414Y00002699D01*
X00021138Y00002650D01*
X00021131Y00002634D01*
X00021124Y00002450D01*
X00019074Y00002088D01*
X00016991Y00001692D01*
X00021116Y00001039D01*
X00021116Y00000817D01*
X00022525Y00000761D01*
X00023935Y00000706D01*
X00023935Y00000390D01*
X00027171Y00000053D01*
X00033227Y00000088D01*
X00039282Y00000122D01*
X00039282Y00019428D01*
X00023724Y00019428D01*
X00023691Y00019429D01*
X00023658Y00019434D01*
X00023626Y00019440D01*
X00023594Y00019450D01*
X00023564Y00019462D01*
X00023534Y00019477D01*
X00023506Y00019494D01*
X00023479Y00019514D01*
X00023454Y00019536D01*
X00023431Y00019559D01*
X00023410Y00019585D01*
X00023391Y00019612D01*
X00023375Y00019641D01*
X00023361Y00019671D01*
X00023349Y00019702D01*
X00023340Y00019734D01*
X00023334Y00019767D01*
X00023331Y00019800D01*
X00023331Y00019833D01*
X00023333Y00019866D01*
X00023380Y00020283D01*
X00023384Y00020313D01*
X00023391Y00020341D01*
X00023400Y00020370D01*
X00023411Y00020397D01*
X00023423Y00020424D01*
X00023438Y00020449D01*
X00023455Y00020473D01*
X00023473Y00020496D01*
X00023493Y00020518D01*
X00023515Y00020538D01*
X00023538Y00020556D01*
X00023562Y00020573D01*
X00023588Y00020588D01*
X00023614Y00020600D01*
X00023642Y00020611D01*
X00023670Y00020620D01*
X00023699Y00020626D01*
X00023728Y00020631D01*
X00023757Y00020633D01*
X00023787Y00020633D01*
X00023935Y00020627D01*
X00023935Y00020311D01*
X00027171Y00019974D01*
X00033227Y00020009D01*
X00039282Y00020044D01*
X00039282Y00039349D01*
X00021657Y00039349D01*
X00021657Y00028238D01*
X00023657Y00027863D01*
X00023657Y00025266D01*
X00023655Y00022669D01*
X00022414Y00022620D01*
X00021138Y00022571D01*
X00021131Y00022555D01*
X00021124Y00022371D01*
X00019074Y00022009D01*
X00016991Y00021613D01*
X00021116Y00020960D01*
X00021116Y00020738D01*
X00021928Y00020706D01*
M02*