%MOIN*%
%OFA0B0*%
%FSLAX25Y25*%
%IPPOS*%
%LPD*%
%AMOC8*
5,1,8,0,0,$1,22.5*%
%AMOC80*
5,1,8,0,0,$1,22.5*%
%AMOC81*
5,1,8,0,0,$1,202.5*%
%ADD10C,0*%
%ADD11C,0.12210999999999998*%
%ADD12C,0.06337*%
%ADD13C,0.054*%
%ADD14C,0.0049*%
%ADD15R,0.064X0.17399999999999996*%
%ADD16C,0.05124*%
%ADD17C,0.04534*%
%ADD28C,0*%
%ADD29C,0.12210999999999998*%
%ADD30C,0.06337*%
%ADD31C,0.054*%
%ADD32C,0.0049*%
%ADD33R,0.064X0.17399999999999996*%
%ADD34C,0.05124*%
%ADD35C,0.04534*%
%ADD36C,0*%
%ADD37C,0.12210999999999998*%
%ADD38C,0.06337*%
%ADD39C,0.054*%
%ADD40C,0.0049*%
%ADD41R,0.064X0.17399999999999996*%
%ADD42C,0.05124*%
%ADD43C,0.04534*%
G75*
D10*
X0169911Y0016923D02*
X0190745Y0020882D01*
X0211245Y0024507D01*
X0211314Y0026340D01*
X0211384Y0026506D01*
X0224148Y0026993D01*
X0236578Y0027478D01*
X0236554Y0027472D02*
X0236579Y0053478D01*
X0236578Y0053451D02*
X0236578Y0079423D01*
X0216577Y0083173D01*
X0216577Y0194285D01*
X0392828Y0194285D01*
X0392828Y0001229D01*
X0332273Y0000882D01*
X0271717Y0000535D01*
X0239356Y0003907D01*
X0239356Y0007062D01*
X0225259Y0007618D01*
X0211161Y0008173D01*
X0211161Y0010396D01*
X0169911Y0016923D01*
X0235007Y0017338D02*
X0235008Y0017491D01*
X0235015Y0017645D01*
X0235025Y0017798D01*
X0235039Y0017950D01*
X0235056Y0018103D01*
X0235079Y0018254D01*
X0235103Y0018405D01*
X0235134Y0018555D01*
X0235168Y0018705D01*
X0235205Y0018854D01*
X0235246Y0019002D01*
X0235291Y0019148D01*
X0235340Y0019294D01*
X0235393Y0019438D01*
X0235449Y0019580D01*
X0235509Y0019721D01*
X0235573Y0019861D01*
X0235639Y0019999D01*
X0235711Y0020135D01*
X0235786Y0020269D01*
X0235862Y0020401D01*
X0235944Y0020530D01*
X0236029Y0020659D01*
X0236117Y0020785D01*
X0236208Y0020908D01*
X0236302Y0021029D01*
X0236400Y0021147D01*
X0236500Y0021263D01*
X0236604Y0021376D01*
X0236710Y0021487D01*
X0236818Y0021595D01*
X0236931Y0021700D01*
X0237045Y0021801D01*
X0237163Y0021900D01*
X0237282Y0021996D01*
X0237404Y0022089D01*
X0237529Y0022177D01*
X0237656Y0022265D01*
X0237785Y0022347D01*
X0237916Y0022427D01*
X0238049Y0022503D01*
X0238184Y0022575D01*
X0238321Y0022645D01*
X0238459Y0022710D01*
X0238600Y0022772D01*
X0238742Y0022830D01*
X0238885Y0022885D01*
X0239030Y0022936D01*
X0239176Y0022983D01*
X0239323Y0023026D01*
X0239471Y0023065D01*
X0239620Y0023101D01*
X0239770Y0023131D01*
X0239921Y0023160D01*
X0240072Y0023184D01*
X0240225Y0023204D01*
X0240377Y0023220D01*
X0240530Y0023232D01*
X0240682Y0023240D01*
X0240836Y0023244D01*
X0240990Y0023244D01*
X0241143Y0023240D01*
X0241296Y0023232D01*
X0241448Y0023220D01*
X0241601Y0023204D01*
X0241753Y0023184D01*
X0241905Y0023160D01*
X0242056Y0023131D01*
X0242206Y0023101D01*
X0242355Y0023065D01*
X0242503Y0023026D01*
X0242650Y0022983D01*
X0242796Y0022936D01*
X0242940Y0022885D01*
X0243084Y0022830D01*
X0243226Y0022772D01*
X0243366Y0022710D01*
X0243505Y0022645D01*
X0243642Y0022575D01*
X0243777Y0022503D01*
X0243909Y0022427D01*
X0244041Y0022347D01*
X0244170Y0022265D01*
X0244297Y0022177D01*
X0244422Y0022089D01*
X0244544Y0021996D01*
X0244663Y0021900D01*
X0244781Y0021801D01*
X0244895Y0021700D01*
X0245007Y0021595D01*
X0245115Y0021487D01*
X0245222Y0021376D01*
X0245326Y0021263D01*
X0245426Y0021147D01*
X0245524Y0021029D01*
X0245617Y0020908D01*
X0245709Y0020785D01*
X0245797Y0020659D01*
X0245881Y0020530D01*
X0245963Y0020401D01*
X0246040Y0020269D01*
X0246115Y0020135D01*
X0246186Y0019999D01*
X0246253Y0019861D01*
X0246317Y0019721D01*
X0246376Y0019580D01*
X0246433Y0019438D01*
X0246485Y0019294D01*
X0246535Y0019148D01*
X0246580Y0019002D01*
X0246620Y0018854D01*
X0246658Y0018705D01*
X0246692Y0018555D01*
X0246722Y0018405D01*
X0246747Y0018254D01*
X0246769Y0018103D01*
X0246787Y0017950D01*
X0246801Y0017798D01*
X0246810Y0017645D01*
X0246817Y0017491D01*
X0246819Y0017338D01*
X0246817Y0017185D01*
X0246810Y0017031D01*
X0246801Y0016878D01*
X0246787Y0016726D01*
X0246769Y0016573D01*
X0246747Y0016422D01*
X0246722Y0016271D01*
X0246692Y0016120D01*
X0246658Y0015970D01*
X0246620Y0015822D01*
X0246580Y0015673D01*
X0246535Y0015528D01*
X0246485Y0015382D01*
X0246433Y0015237D01*
X0246376Y0015096D01*
X0246317Y0014954D01*
X0246253Y0014815D01*
X0246186Y0014677D01*
X0246115Y0014541D01*
X0246040Y0014407D01*
X0245963Y0014274D01*
X0245881Y0014145D01*
X0245797Y0014016D01*
X0245709Y0013891D01*
X0245617Y0013768D01*
X0245524Y0013647D01*
X0245426Y0013529D01*
X0245326Y0013413D01*
X0245222Y0013300D01*
X0245115Y0013189D01*
X0245007Y0013081D01*
X0244895Y0012975D01*
X0244781Y0012875D01*
X0244663Y0012776D01*
X0244544Y0012680D01*
X0244422Y0012587D01*
X0244297Y0012498D01*
X0244170Y0012411D01*
X0244041Y0012329D01*
X0243909Y0012249D01*
X0243777Y0012173D01*
X0243642Y0012100D01*
X0243505Y0012031D01*
X0243366Y0011966D01*
X0243226Y0011904D01*
X0243084Y0011846D01*
X0242940Y0011791D01*
X0242796Y0011740D01*
X0242650Y0011693D01*
X0242503Y0011650D01*
X0242355Y0011611D01*
X0242206Y0011575D01*
X0242056Y0011543D01*
X0241905Y0011516D01*
X0241753Y0011492D01*
X0241601Y0011472D01*
X0241448Y0011455D01*
X0241296Y0011444D01*
X0241143Y0011436D01*
X0240990Y0011432D01*
X0240836Y0011432D01*
X0240682Y0011436D01*
X0240530Y0011444D01*
X0240377Y0011455D01*
X0240225Y0011472D01*
X0240072Y0011492D01*
X0239921Y0011516D01*
X0239770Y0011543D01*
X0239620Y0011575D01*
X0239471Y0011611D01*
X0239323Y0011650D01*
X0239176Y0011693D01*
X0239030Y0011740D01*
X0238885Y0011791D01*
X0238742Y0011846D01*
X0238600Y0011904D01*
X0238459Y0011966D01*
X0238321Y0012031D01*
X0238184Y0012100D01*
X0238049Y0012173D01*
X0237916Y0012249D01*
X0237785Y0012329D01*
X0237656Y0012411D01*
X0237529Y0012498D01*
X0237404Y0012587D01*
X0237282Y0012680D01*
X0237163Y0012776D01*
X0237045Y0012875D01*
X0236931Y0012975D01*
X0236818Y0013081D01*
X0236710Y0013189D01*
X0236604Y0013300D01*
X0236500Y0013413D01*
X0236400Y0013529D01*
X0236302Y0013647D01*
X0236208Y0013768D01*
X0236117Y0013891D01*
X0236029Y0014016D01*
X0235944Y0014145D01*
X0235862Y0014274D01*
X0235786Y0014407D01*
X0235711Y0014541D01*
X0235639Y0014677D01*
X0235573Y0014815D01*
X0235509Y0014954D01*
X0235449Y0015096D01*
X0235393Y0015237D01*
X0235340Y0015382D01*
X0235291Y0015528D01*
X0235246Y0015673D01*
X0235205Y0015822D01*
X0235168Y0015970D01*
X0235134Y0016120D01*
X0235103Y0016271D01*
X0235079Y0016422D01*
X0235056Y0016573D01*
X0235039Y0016726D01*
X0235025Y0016878D01*
X0235015Y0017031D01*
X0235008Y0017185D01*
X0235007Y0017338D01*
X0376993Y0142992D02*
X0376995Y0143145D01*
X0377001Y0143299D01*
X0377011Y0143452D01*
X0377025Y0143604D01*
X0377043Y0143757D01*
X0377065Y0143908D01*
X0377090Y0144059D01*
X0377120Y0144210D01*
X0377154Y0144360D01*
X0377191Y0144508D01*
X0377232Y0144656D01*
X0377277Y0144802D01*
X0377326Y0144948D01*
X0377379Y0145092D01*
X0377435Y0145234D01*
X0377495Y0145375D01*
X0377559Y0145515D01*
X0377626Y0145653D01*
X0377697Y0145788D01*
X0377772Y0145923D01*
X0377849Y0146055D01*
X0377931Y0146185D01*
X0378015Y0146313D01*
X0378102Y0146439D01*
X0378194Y0146562D01*
X0378288Y0146683D01*
X0378386Y0146801D01*
X0378486Y0146917D01*
X0378590Y0147030D01*
X0378696Y0147141D01*
X0378805Y0147249D01*
X0378917Y0147353D01*
X0379031Y0147455D01*
X0379149Y0147554D01*
X0379268Y0147650D01*
X0379390Y0147743D01*
X0379515Y0147832D01*
X0379642Y0147919D01*
X0379771Y0148001D01*
X0379902Y0148081D01*
X0380035Y0148157D01*
X0380170Y0148230D01*
X0380307Y0148299D01*
X0380446Y0148364D01*
X0380586Y0148425D01*
X0380728Y0148484D01*
X0380871Y0148539D01*
X0381016Y0148590D01*
X0381162Y0148637D01*
X0381308Y0148680D01*
X0381457Y0148719D01*
X0381606Y0148755D01*
X0381756Y0148786D01*
X0381907Y0148814D01*
X0382058Y0148838D01*
X0382211Y0148858D01*
X0382363Y0148874D01*
X0382516Y0148886D01*
X0382669Y0148894D01*
X0382822Y0148898D01*
X0382976Y0148898D01*
X0383129Y0148894D01*
X0383282Y0148886D01*
X0383435Y0148874D01*
X0383587Y0148858D01*
X0383740Y0148838D01*
X0383890Y0148814D01*
X0384042Y0148786D01*
X0384192Y0148755D01*
X0384341Y0148719D01*
X0384489Y0148680D01*
X0384636Y0148637D01*
X0384782Y0148590D01*
X0384927Y0148539D01*
X0385070Y0148484D01*
X0385212Y0148425D01*
X0385352Y0148364D01*
X0385491Y0148299D01*
X0385628Y0148230D01*
X0385763Y0148157D01*
X0385896Y0148081D01*
X0386027Y0148001D01*
X0386156Y0147919D01*
X0386283Y0147832D01*
X0386407Y0147743D01*
X0386530Y0147650D01*
X0386649Y0147554D01*
X0386767Y0147455D01*
X0386881Y0147353D01*
X0386993Y0147249D01*
X0387102Y0147141D01*
X0387208Y0147030D01*
X0387312Y0146917D01*
X0387412Y0146801D01*
X0387510Y0146683D01*
X0387604Y0146562D01*
X0387695Y0146439D01*
X0387782Y0146313D01*
X0387866Y0146185D01*
X0387949Y0146055D01*
X0388026Y0145923D01*
X0388101Y0145788D01*
X0388172Y0145653D01*
X0388238Y0145515D01*
X0388303Y0145375D01*
X0388363Y0145234D01*
X0388419Y0145092D01*
X0388472Y0144948D01*
X0388521Y0144802D01*
X0388566Y0144656D01*
X0388607Y0144508D01*
X0388644Y0144360D01*
X0388678Y0144210D01*
X0388708Y0144059D01*
X0388733Y0143908D01*
X0388755Y0143757D01*
X0388773Y0143604D01*
X0388787Y0143452D01*
X0388797Y0143299D01*
X0388803Y0143145D01*
X0388805Y0142992D01*
X0388803Y0142839D01*
X0388797Y0142685D01*
X0388787Y0142531D01*
X0388773Y0142380D01*
X0388755Y0142227D01*
X0388733Y0142076D01*
X0388708Y0141925D01*
X0388678Y0141774D01*
X0388644Y0141624D01*
X0388607Y0141476D01*
X0388566Y0141328D01*
X0388521Y0141182D01*
X0388472Y0141036D01*
X0388419Y0140892D01*
X0388363Y0140750D01*
X0388303Y0140609D01*
X0388238Y0140469D01*
X0388172Y0140330D01*
X0388101Y0140195D01*
X0388026Y0140061D01*
X0387949Y0139929D01*
X0387866Y0139799D01*
X0387782Y0139671D01*
X0387695Y0139545D01*
X0387604Y0139422D01*
X0387510Y0139301D01*
X0387412Y0139183D01*
X0387312Y0139067D01*
X0387208Y0138953D01*
X0387102Y0138843D01*
X0386993Y0138735D01*
X0386881Y0138630D01*
X0386767Y0138528D01*
X0386649Y0138430D01*
X0386530Y0138333D01*
X0386407Y0138241D01*
X0386283Y0138152D01*
X0386156Y0138065D01*
X0386027Y0137983D01*
X0385896Y0137903D01*
X0385763Y0137827D01*
X0385628Y0137753D01*
X0385491Y0137685D01*
X0385352Y0137620D01*
X0385212Y0137558D01*
X0385070Y0137500D01*
X0384927Y0137445D01*
X0384782Y0137394D01*
X0384636Y0137347D01*
X0384489Y0137304D01*
X0384341Y0137265D01*
X0384192Y0137229D01*
X0384042Y0137198D01*
X0383890Y0137170D01*
X0383740Y0137146D01*
X0383587Y0137126D01*
X0383435Y0137110D01*
X0383282Y0137098D01*
X0383129Y0137090D01*
X0382976Y0137086D01*
X0382822Y0137086D01*
X0382669Y0137090D01*
X0382516Y0137098D01*
X0382363Y0137110D01*
X0382211Y0137126D01*
X0382058Y0137146D01*
X0381907Y0137170D01*
X0381756Y0137198D01*
X0381606Y0137229D01*
X0381457Y0137265D01*
X0381308Y0137304D01*
X0381162Y0137347D01*
X0381016Y0137394D01*
X0380871Y0137445D01*
X0380728Y0137500D01*
X0380586Y0137558D01*
X0380446Y0137620D01*
X0380307Y0137685D01*
X0380170Y0137753D01*
X0380035Y0137827D01*
X0379902Y0137903D01*
X0379771Y0137983D01*
X0379642Y0138065D01*
X0379515Y0138152D01*
X0379390Y0138241D01*
X0379268Y0138333D01*
X0379149Y0138430D01*
X0379031Y0138528D01*
X0378917Y0138630D01*
X0378805Y0138735D01*
X0378696Y0138843D01*
X0378590Y0138953D01*
X0378486Y0139067D01*
X0378386Y0139183D01*
X0378288Y0139301D01*
X0378194Y0139422D01*
X0378102Y0139545D01*
X0378015Y0139671D01*
X0377931Y0139799D01*
X0377849Y0139929D01*
X0377772Y0140061D01*
X0377697Y0140195D01*
X0377626Y0140330D01*
X0377559Y0140469D01*
X0377495Y0140609D01*
X0377435Y0140750D01*
X0377379Y0140892D01*
X0377326Y0141036D01*
X0377277Y0141182D01*
X0377232Y0141328D01*
X0377191Y0141476D01*
X0377154Y0141624D01*
X0377120Y0141774D01*
X0377090Y0141925D01*
X0377065Y0142076D01*
X0377043Y0142227D01*
X0377025Y0142380D01*
X0377011Y0142531D01*
X0377001Y0142685D01*
X0376995Y0142839D01*
X0376993Y0142992D01*
D11*
X0382899Y0142992D03*
X0240913Y0017338D03*
D12*
X0321803Y0019988D03*
X0321803Y0009988D03*
X0321803Y0029987D03*
X0321803Y0039988D03*
X0321803Y0049988D03*
X0321803Y0059988D03*
X0321803Y0069988D03*
X0321803Y0079988D03*
X0321803Y0089988D03*
X0321803Y0099988D03*
X0321803Y0109988D03*
X0321803Y0119988D03*
X0326803Y0129987D03*
X0336803Y0129987D03*
X0346803Y0129987D03*
X0356803Y0129987D03*
X0366803Y0129987D03*
X0376803Y0129987D03*
X0381803Y0119988D03*
X0381803Y0109988D03*
X0381803Y0099988D03*
X0381803Y0089988D03*
X0371803Y0084987D03*
X0381803Y0079988D03*
X0371803Y0074988D03*
X0381803Y0069988D03*
X0381803Y0059988D03*
X0381803Y0049988D03*
X0381803Y0039988D03*
X0381803Y0029987D03*
X0381803Y0019988D03*
X0381803Y0009988D03*
X0371803Y0009988D03*
X0361803Y0009988D03*
X0351803Y0009988D03*
D13*
X0264954Y0023472D03*
D14*
X0262749Y0021557D02*
X0262749Y0013647D01*
X0262749Y0021557D02*
X0267159Y0021557D01*
X0267159Y0013647D01*
X0262749Y0013647D01*
X0262749Y0014136D02*
X0267159Y0014136D01*
X0267159Y0014625D02*
X0262749Y0014625D01*
X0262749Y0015114D02*
X0267159Y0015114D01*
X0267159Y0015603D02*
X0262749Y0015603D01*
X0262749Y0016092D02*
X0267159Y0016092D01*
X0267159Y0016581D02*
X0262749Y0016581D01*
X0262749Y0017070D02*
X0267159Y0017070D01*
X0267159Y0017559D02*
X0262749Y0017559D01*
X0262749Y0018048D02*
X0267159Y0018048D01*
X0267159Y0018537D02*
X0262749Y0018537D01*
X0262749Y0019026D02*
X0267159Y0019026D01*
X0267159Y0019514D02*
X0262749Y0019514D01*
X0262749Y0020004D02*
X0267159Y0020004D01*
X0267159Y0020493D02*
X0262749Y0020493D01*
X0262749Y0020982D02*
X0267159Y0020982D01*
X0267159Y0021471D02*
X0262749Y0021471D01*
D15*
X0254954Y0012723D03*
X0274953Y0012723D03*
D16*
X0271910Y0028337D03*
D17*
X0287254Y0019673D03*
X0303254Y0041673D03*
X0279254Y0076673D03*
X0286254Y0155673D03*
G04 next file*
G75*
D28*
X0169911Y0216135D02*
X0190745Y0220094D01*
X0211245Y0223719D01*
X0211314Y0225552D01*
X0211384Y0225719D01*
X0224148Y0226205D01*
X0236578Y0226691D01*
X0236554Y0226684D02*
X0236579Y0252690D01*
X0236578Y0252663D02*
X0236578Y0278635D01*
X0216577Y0282385D01*
X0216577Y0393497D01*
X0392828Y0393497D01*
X0392828Y0200441D01*
X0332273Y0200094D01*
X0271717Y0199747D01*
X0239356Y0203119D01*
X0239356Y0206273D01*
X0225259Y0206829D01*
X0211161Y0207385D01*
X0211161Y0209608D01*
X0169911Y0216135D01*
X0235007Y0216550D02*
X0235008Y0216703D01*
X0235015Y0216857D01*
X0235025Y0217010D01*
X0235039Y0217162D01*
X0235056Y0217315D01*
X0235079Y0217465D01*
X0235103Y0217617D01*
X0235134Y0217768D01*
X0235168Y0217918D01*
X0235205Y0218066D01*
X0235246Y0218214D01*
X0235291Y0218360D01*
X0235340Y0218506D01*
X0235393Y0218650D01*
X0235449Y0218792D01*
X0235509Y0218933D01*
X0235573Y0219072D01*
X0235639Y0219211D01*
X0235711Y0219347D01*
X0235786Y0219481D01*
X0235862Y0219613D01*
X0235944Y0219743D01*
X0236029Y0219871D01*
X0236117Y0219997D01*
X0236208Y0220120D01*
X0236302Y0220241D01*
X0236400Y0220359D01*
X0236500Y0220475D01*
X0236604Y0220588D01*
X0236710Y0220698D01*
X0236818Y0220807D01*
X0236931Y0220912D01*
X0237045Y0221013D01*
X0237163Y0221112D01*
X0237282Y0221207D01*
X0237404Y0221301D01*
X0237529Y0221390D01*
X0237656Y0221477D01*
X0237785Y0221559D01*
X0237916Y0221639D01*
X0238049Y0221715D01*
X0238184Y0221788D01*
X0238321Y0221857D01*
X0238459Y0221922D01*
X0238600Y0221984D01*
X0238742Y0222041D01*
X0238885Y0222097D01*
X0239030Y0222148D01*
X0239176Y0222195D01*
X0239323Y0222237D01*
X0239471Y0222277D01*
X0239620Y0222312D01*
X0239770Y0222344D01*
X0239921Y0222372D01*
X0240072Y0222396D01*
X0240225Y0222416D01*
X0240377Y0222432D01*
X0240530Y0222444D01*
X0240682Y0222452D01*
X0240836Y0222456D01*
X0240990Y0222456D01*
X0241143Y0222452D01*
X0241296Y0222444D01*
X0241448Y0222432D01*
X0241601Y0222416D01*
X0241753Y0222396D01*
X0241905Y0222372D01*
X0242056Y0222344D01*
X0242206Y0222312D01*
X0242355Y0222277D01*
X0242503Y0222237D01*
X0242650Y0222195D01*
X0242796Y0222148D01*
X0242940Y0222097D01*
X0243084Y0222041D01*
X0243226Y0221984D01*
X0243366Y0221922D01*
X0243505Y0221857D01*
X0243642Y0221788D01*
X0243777Y0221715D01*
X0243909Y0221639D01*
X0244041Y0221559D01*
X0244170Y0221477D01*
X0244297Y0221390D01*
X0244422Y0221301D01*
X0244544Y0221207D01*
X0244663Y0221112D01*
X0244781Y0221013D01*
X0244895Y0220912D01*
X0245007Y0220807D01*
X0245115Y0220698D01*
X0245222Y0220588D01*
X0245326Y0220475D01*
X0245426Y0220359D01*
X0245524Y0220241D01*
X0245617Y0220120D01*
X0245709Y0219997D01*
X0245797Y0219871D01*
X0245881Y0219743D01*
X0245963Y0219613D01*
X0246040Y0219481D01*
X0246115Y0219347D01*
X0246186Y0219211D01*
X0246253Y0219072D01*
X0246317Y0218933D01*
X0246376Y0218792D01*
X0246433Y0218650D01*
X0246485Y0218506D01*
X0246535Y0218360D01*
X0246580Y0218214D01*
X0246620Y0218066D01*
X0246658Y0217918D01*
X0246692Y0217768D01*
X0246722Y0217617D01*
X0246747Y0217465D01*
X0246769Y0217315D01*
X0246787Y0217162D01*
X0246801Y0217010D01*
X0246810Y0216857D01*
X0246817Y0216703D01*
X0246819Y0216550D01*
X0246817Y0216397D01*
X0246810Y0216243D01*
X0246801Y0216089D01*
X0246787Y0215938D01*
X0246769Y0215784D01*
X0246747Y0215634D01*
X0246722Y0215483D01*
X0246692Y0215332D01*
X0246658Y0215181D01*
X0246620Y0215034D01*
X0246580Y0214886D01*
X0246535Y0214740D01*
X0246485Y0214594D01*
X0246433Y0214449D01*
X0246376Y0214308D01*
X0246317Y0214167D01*
X0246253Y0214027D01*
X0246186Y0213889D01*
X0246115Y0213753D01*
X0246040Y0213619D01*
X0245963Y0213486D01*
X0245881Y0213357D01*
X0245797Y0213228D01*
X0245709Y0213103D01*
X0245617Y0212980D01*
X0245524Y0212859D01*
X0245426Y0212740D01*
X0245326Y0212625D01*
X0245222Y0212512D01*
X0245115Y0212401D01*
X0245007Y0212293D01*
X0244895Y0212188D01*
X0244781Y0212087D01*
X0244663Y0211988D01*
X0244544Y0211892D01*
X0244422Y0211798D01*
X0244297Y0211710D01*
X0244170Y0211622D01*
X0244041Y0211540D01*
X0243909Y0211461D01*
X0243777Y0211384D01*
X0243642Y0211312D01*
X0243505Y0211242D01*
X0243366Y0211178D01*
X0243226Y0211116D01*
X0243084Y0211058D01*
X0242940Y0211003D01*
X0242796Y0210951D01*
X0242650Y0210905D01*
X0242503Y0210862D01*
X0242355Y0210822D01*
X0242206Y0210787D01*
X0242056Y0210756D01*
X0241905Y0210727D01*
X0241753Y0210704D01*
X0241601Y0210684D01*
X0241448Y0210668D01*
X0241296Y0210656D01*
X0241143Y0210648D01*
X0240990Y0210644D01*
X0240836Y0210644D01*
X0240682Y0210648D01*
X0240530Y0210656D01*
X0240377Y0210668D01*
X0240225Y0210684D01*
X0240072Y0210704D01*
X0239921Y0210727D01*
X0239770Y0210756D01*
X0239620Y0210787D01*
X0239471Y0210822D01*
X0239323Y0210862D01*
X0239176Y0210905D01*
X0239030Y0210951D01*
X0238885Y0211003D01*
X0238742Y0211058D01*
X0238600Y0211116D01*
X0238459Y0211178D01*
X0238321Y0211242D01*
X0238184Y0211312D01*
X0238049Y0211384D01*
X0237916Y0211461D01*
X0237785Y0211540D01*
X0237656Y0211622D01*
X0237529Y0211710D01*
X0237404Y0211798D01*
X0237282Y0211892D01*
X0237163Y0211988D01*
X0237045Y0212087D01*
X0236931Y0212188D01*
X0236818Y0212293D01*
X0236710Y0212401D01*
X0236604Y0212512D01*
X0236500Y0212625D01*
X0236400Y0212740D01*
X0236302Y0212859D01*
X0236208Y0212980D01*
X0236117Y0213103D01*
X0236029Y0213228D01*
X0235944Y0213357D01*
X0235862Y0213486D01*
X0235786Y0213619D01*
X0235711Y0213753D01*
X0235639Y0213889D01*
X0235573Y0214027D01*
X0235509Y0214167D01*
X0235449Y0214308D01*
X0235393Y0214449D01*
X0235340Y0214594D01*
X0235291Y0214740D01*
X0235246Y0214886D01*
X0235205Y0215034D01*
X0235168Y0215181D01*
X0235134Y0215332D01*
X0235103Y0215483D01*
X0235079Y0215634D01*
X0235056Y0215784D01*
X0235039Y0215938D01*
X0235025Y0216089D01*
X0235015Y0216243D01*
X0235008Y0216397D01*
X0235007Y0216550D01*
X0376993Y0342204D02*
X0376995Y0342357D01*
X0377001Y0342511D01*
X0377011Y0342664D01*
X0377025Y0342816D01*
X0377043Y0342969D01*
X0377065Y0343120D01*
X0377090Y0343271D01*
X0377120Y0343422D01*
X0377154Y0343572D01*
X0377191Y0343720D01*
X0377232Y0343868D01*
X0377277Y0344014D01*
X0377326Y0344160D01*
X0377379Y0344304D01*
X0377435Y0344446D01*
X0377495Y0344587D01*
X0377559Y0344726D01*
X0377626Y0344865D01*
X0377697Y0345001D01*
X0377772Y0345135D01*
X0377849Y0345267D01*
X0377931Y0345397D01*
X0378015Y0345525D01*
X0378102Y0345651D01*
X0378194Y0345774D01*
X0378288Y0345895D01*
X0378386Y0346013D01*
X0378486Y0346129D01*
X0378590Y0346242D01*
X0378696Y0346353D01*
X0378805Y0346461D01*
X0378917Y0346566D01*
X0379031Y0346667D01*
X0379149Y0346766D01*
X0379268Y0346862D01*
X0379390Y0346954D01*
X0379515Y0347044D01*
X0379642Y0347131D01*
X0379771Y0347213D01*
X0379902Y0347293D01*
X0380035Y0347369D01*
X0380170Y0347442D01*
X0380307Y0347511D01*
X0380446Y0347576D01*
X0380586Y0347638D01*
X0380728Y0347696D01*
X0380871Y0347751D01*
X0381016Y0347802D01*
X0381162Y0347849D01*
X0381308Y0347892D01*
X0381457Y0347931D01*
X0381606Y0347967D01*
X0381756Y0347997D01*
X0381907Y0348026D01*
X0382058Y0348050D01*
X0382211Y0348070D01*
X0382363Y0348086D01*
X0382516Y0348098D01*
X0382669Y0348106D01*
X0382822Y0348110D01*
X0382976Y0348110D01*
X0383129Y0348106D01*
X0383282Y0348098D01*
X0383435Y0348086D01*
X0383587Y0348070D01*
X0383740Y0348050D01*
X0383890Y0348026D01*
X0384042Y0347997D01*
X0384192Y0347967D01*
X0384341Y0347931D01*
X0384489Y0347892D01*
X0384636Y0347849D01*
X0384782Y0347802D01*
X0384927Y0347751D01*
X0385070Y0347696D01*
X0385212Y0347638D01*
X0385352Y0347576D01*
X0385491Y0347511D01*
X0385628Y0347442D01*
X0385763Y0347369D01*
X0385896Y0347293D01*
X0386027Y0347213D01*
X0386156Y0347131D01*
X0386283Y0347044D01*
X0386407Y0346954D01*
X0386530Y0346862D01*
X0386649Y0346766D01*
X0386767Y0346667D01*
X0386881Y0346566D01*
X0386993Y0346461D01*
X0387102Y0346353D01*
X0387208Y0346242D01*
X0387312Y0346129D01*
X0387412Y0346013D01*
X0387510Y0345895D01*
X0387604Y0345774D01*
X0387695Y0345651D01*
X0387782Y0345525D01*
X0387866Y0345397D01*
X0387949Y0345267D01*
X0388026Y0345135D01*
X0388101Y0345001D01*
X0388172Y0344865D01*
X0388238Y0344726D01*
X0388303Y0344587D01*
X0388363Y0344446D01*
X0388419Y0344304D01*
X0388472Y0344160D01*
X0388521Y0344014D01*
X0388566Y0343868D01*
X0388607Y0343720D01*
X0388644Y0343572D01*
X0388678Y0343422D01*
X0388708Y0343271D01*
X0388733Y0343120D01*
X0388755Y0342969D01*
X0388773Y0342816D01*
X0388787Y0342664D01*
X0388797Y0342511D01*
X0388803Y0342357D01*
X0388805Y0342204D01*
X0388803Y0342051D01*
X0388797Y0341897D01*
X0388787Y0341744D01*
X0388773Y0341592D01*
X0388755Y0341439D01*
X0388733Y0341288D01*
X0388708Y0341137D01*
X0388678Y0340986D01*
X0388644Y0340836D01*
X0388607Y0340688D01*
X0388566Y0340540D01*
X0388521Y0340394D01*
X0388472Y0340248D01*
X0388419Y0340104D01*
X0388363Y0339962D01*
X0388303Y0339821D01*
X0388238Y0339681D01*
X0388172Y0339543D01*
X0388101Y0339407D01*
X0388026Y0339273D01*
X0387949Y0339141D01*
X0387866Y0339011D01*
X0387782Y0338883D01*
X0387695Y0338757D01*
X0387604Y0338634D01*
X0387510Y0338513D01*
X0387412Y0338394D01*
X0387312Y0338279D01*
X0387208Y0338166D01*
X0387102Y0338055D01*
X0386993Y0337947D01*
X0386881Y0337842D01*
X0386767Y0337741D01*
X0386649Y0337642D01*
X0386530Y0337546D01*
X0386407Y0337453D01*
X0386283Y0337364D01*
X0386156Y0337277D01*
X0386027Y0337194D01*
X0385896Y0337114D01*
X0385763Y0337039D01*
X0385628Y0336966D01*
X0385491Y0336897D01*
X0385352Y0336832D01*
X0385212Y0336770D01*
X0385070Y0336712D01*
X0384927Y0336657D01*
X0384782Y0336606D01*
X0384636Y0336559D01*
X0384489Y0336516D01*
X0384341Y0336477D01*
X0384192Y0336441D01*
X0384042Y0336410D01*
X0383890Y0336382D01*
X0383740Y0336358D01*
X0383587Y0336338D01*
X0383435Y0336322D01*
X0383282Y0336310D01*
X0383129Y0336302D01*
X0382976Y0336298D01*
X0382822Y0336298D01*
X0382669Y0336302D01*
X0382516Y0336310D01*
X0382363Y0336322D01*
X0382211Y0336338D01*
X0382058Y0336358D01*
X0381907Y0336382D01*
X0381756Y0336410D01*
X0381606Y0336441D01*
X0381457Y0336477D01*
X0381308Y0336516D01*
X0381162Y0336559D01*
X0381016Y0336606D01*
X0380871Y0336657D01*
X0380728Y0336712D01*
X0380586Y0336770D01*
X0380446Y0336832D01*
X0380307Y0336897D01*
X0380170Y0336966D01*
X0380035Y0337039D01*
X0379902Y0337114D01*
X0379771Y0337194D01*
X0379642Y0337277D01*
X0379515Y0337364D01*
X0379390Y0337453D01*
X0379268Y0337546D01*
X0379149Y0337642D01*
X0379031Y0337741D01*
X0378917Y0337842D01*
X0378805Y0337947D01*
X0378696Y0338055D01*
X0378590Y0338166D01*
X0378486Y0338279D01*
X0378386Y0338394D01*
X0378288Y0338513D01*
X0378194Y0338634D01*
X0378102Y0338757D01*
X0378015Y0338883D01*
X0377931Y0339011D01*
X0377849Y0339141D01*
X0377772Y0339273D01*
X0377697Y0339407D01*
X0377626Y0339543D01*
X0377559Y0339681D01*
X0377495Y0339821D01*
X0377435Y0339962D01*
X0377379Y0340104D01*
X0377326Y0340248D01*
X0377277Y0340394D01*
X0377232Y0340540D01*
X0377191Y0340688D01*
X0377154Y0340836D01*
X0377120Y0340986D01*
X0377090Y0341137D01*
X0377065Y0341288D01*
X0377043Y0341439D01*
X0377025Y0341592D01*
X0377011Y0341744D01*
X0377001Y0341897D01*
X0376995Y0342051D01*
X0376993Y0342204D01*
D29*
X0382899Y0342204D03*
X0240913Y0216550D03*
D30*
X0321803Y0219200D03*
X0321803Y0209200D03*
X0321803Y0229199D03*
X0321803Y0239200D03*
X0321803Y0249200D03*
X0321803Y0259200D03*
X0321803Y0269200D03*
X0321803Y0279200D03*
X0321803Y0289199D03*
X0321803Y0299200D03*
X0321803Y0309200D03*
X0321803Y0319200D03*
X0326803Y0329199D03*
X0336803Y0329199D03*
X0346803Y0329199D03*
X0356803Y0329199D03*
X0366803Y0329199D03*
X0376803Y0329199D03*
X0381803Y0319200D03*
X0381803Y0309200D03*
X0381803Y0299200D03*
X0381803Y0289199D03*
X0371803Y0284199D03*
X0381803Y0279200D03*
X0371803Y0274200D03*
X0381803Y0269200D03*
X0381803Y0259200D03*
X0381803Y0249200D03*
X0381803Y0239200D03*
X0381803Y0229199D03*
X0381803Y0219200D03*
X0381803Y0209200D03*
X0371803Y0209200D03*
X0361803Y0209200D03*
X0351803Y0209200D03*
D31*
X0264954Y0222685D03*
D32*
X0262749Y0220769D02*
X0262749Y0212859D01*
X0262749Y0220769D02*
X0267159Y0220769D01*
X0267159Y0212859D01*
X0262749Y0212859D01*
X0262749Y0213348D02*
X0267159Y0213348D01*
X0267159Y0213837D02*
X0262749Y0213837D01*
X0262749Y0214326D02*
X0267159Y0214326D01*
X0267159Y0214814D02*
X0262749Y0214814D01*
X0262749Y0215303D02*
X0267159Y0215303D01*
X0267159Y0215793D02*
X0262749Y0215793D01*
X0262749Y0216282D02*
X0267159Y0216282D01*
X0267159Y0216771D02*
X0262749Y0216771D01*
X0262749Y0217260D02*
X0267159Y0217260D01*
X0267159Y0217749D02*
X0262749Y0217749D01*
X0262749Y0218238D02*
X0267159Y0218238D01*
X0267159Y0218726D02*
X0262749Y0218726D01*
X0262749Y0219216D02*
X0267159Y0219216D01*
X0267159Y0219705D02*
X0262749Y0219705D01*
X0262749Y0220194D02*
X0267159Y0220194D01*
X0267159Y0220683D02*
X0262749Y0220683D01*
D33*
X0254954Y0211934D03*
X0274953Y0211934D03*
D34*
X0271910Y0227549D03*
D35*
X0287254Y0218885D03*
X0303254Y0240885D03*
X0279254Y0275885D03*
X0286254Y0354885D03*
G04 next file*
G75*
D36*
X0225757Y0253155D02*
X0204923Y0249196D01*
X0184423Y0245570D01*
X0184354Y0243738D01*
X0184284Y0243570D01*
X0171520Y0243085D01*
X0159090Y0242599D01*
X0159114Y0242605D02*
X0159089Y0216600D01*
X0159090Y0216627D02*
X0159090Y0190655D01*
X0179090Y0186905D01*
X0179090Y0075793D01*
X0002840Y0075793D01*
X0002840Y0268849D01*
X0063395Y0269196D01*
X0123950Y0269543D01*
X0156312Y0266171D01*
X0156312Y0263016D01*
X0170409Y0262460D01*
X0184506Y0261905D01*
X0184506Y0259682D01*
X0225757Y0253155D01*
X0160661Y0252740D02*
X0160658Y0252586D01*
X0160653Y0252433D01*
X0160643Y0252280D01*
X0160629Y0252128D01*
X0160611Y0251975D01*
X0160589Y0251824D01*
X0160564Y0251673D01*
X0160534Y0251521D01*
X0160500Y0251372D01*
X0160463Y0251223D01*
X0160421Y0251076D01*
X0160377Y0250930D01*
X0160328Y0250783D01*
X0160275Y0250640D01*
X0160219Y0250498D01*
X0160159Y0250356D01*
X0160095Y0250217D01*
X0160027Y0250078D01*
X0159956Y0249942D01*
X0159882Y0249809D01*
X0159805Y0249677D01*
X0159723Y0249547D01*
X0159639Y0249419D01*
X0159551Y0249293D01*
X0159460Y0249169D01*
X0159366Y0249049D01*
X0159268Y0248931D01*
X0159168Y0248815D01*
X0159064Y0248701D01*
X0158958Y0248591D01*
X0158849Y0248483D01*
X0158736Y0248378D01*
X0158623Y0248277D01*
X0158505Y0248178D01*
X0158386Y0248082D01*
X0158264Y0247989D01*
X0158138Y0247900D01*
X0158012Y0247813D01*
X0157883Y0247731D01*
X0157752Y0247651D01*
X0157618Y0247575D01*
X0157484Y0247502D01*
X0157347Y0247433D01*
X0157208Y0247368D01*
X0157068Y0247305D01*
X0156926Y0247248D01*
X0156783Y0247193D01*
X0156638Y0247142D01*
X0156492Y0247095D01*
X0156345Y0247052D01*
X0156197Y0247013D01*
X0156048Y0246977D01*
X0155898Y0246946D01*
X0155747Y0246918D01*
X0155596Y0246894D01*
X0155443Y0246874D01*
X0155291Y0246858D01*
X0155138Y0246846D01*
X0154985Y0246837D01*
X0154832Y0246834D01*
X0154678Y0246834D01*
X0154525Y0246837D01*
X0154372Y0246846D01*
X0154219Y0246858D01*
X0154067Y0246874D01*
X0153914Y0246894D01*
X0153763Y0246918D01*
X0153612Y0246946D01*
X0153462Y0246977D01*
X0153313Y0247013D01*
X0153165Y0247052D01*
X0153018Y0247095D01*
X0152872Y0247142D01*
X0152727Y0247193D01*
X0152584Y0247248D01*
X0152442Y0247305D01*
X0152302Y0247368D01*
X0152163Y0247433D01*
X0152026Y0247502D01*
X0151890Y0247575D01*
X0151758Y0247651D01*
X0151627Y0247731D01*
X0151498Y0247813D01*
X0151371Y0247900D01*
X0151246Y0247989D01*
X0151124Y0248082D01*
X0151005Y0248178D01*
X0150887Y0248277D01*
X0150773Y0248378D01*
X0150661Y0248483D01*
X0150552Y0248591D01*
X0150446Y0248701D01*
X0150342Y0248815D01*
X0150242Y0248931D01*
X0150144Y0249049D01*
X0150050Y0249169D01*
X0149959Y0249293D01*
X0149871Y0249419D01*
X0149787Y0249547D01*
X0149705Y0249677D01*
X0149627Y0249809D01*
X0149553Y0249942D01*
X0149481Y0250078D01*
X0149415Y0250217D01*
X0149351Y0250356D01*
X0149291Y0250498D01*
X0149235Y0250640D01*
X0149182Y0250783D01*
X0149133Y0250930D01*
X0149087Y0251076D01*
X0149047Y0251223D01*
X0149010Y0251372D01*
X0148976Y0251521D01*
X0148946Y0251673D01*
X0148921Y0251824D01*
X0148899Y0251975D01*
X0148881Y0252128D01*
X0148867Y0252280D01*
X0148857Y0252433D01*
X0148850Y0252586D01*
X0148849Y0252740D01*
X0148850Y0252893D01*
X0148857Y0253047D01*
X0148867Y0253200D01*
X0148881Y0253352D01*
X0148899Y0253505D01*
X0148921Y0253656D01*
X0148946Y0253806D01*
X0148976Y0253958D01*
X0149010Y0254108D01*
X0149047Y0254256D01*
X0149087Y0254404D01*
X0149133Y0254550D01*
X0149182Y0254696D01*
X0149235Y0254840D01*
X0149291Y0254982D01*
X0149351Y0255122D01*
X0149415Y0255263D01*
X0149481Y0255401D01*
X0149553Y0255537D01*
X0149627Y0255670D01*
X0149705Y0255803D01*
X0149787Y0255933D01*
X0149871Y0256061D01*
X0149959Y0256187D01*
X0150050Y0256310D01*
X0150144Y0256431D01*
X0150242Y0256549D01*
X0150342Y0256665D01*
X0150446Y0256778D01*
X0150552Y0256888D01*
X0150661Y0256997D01*
X0150773Y0257102D01*
X0150887Y0257202D01*
X0151005Y0257302D01*
X0151124Y0257398D01*
X0151246Y0257491D01*
X0151371Y0257580D01*
X0151498Y0257667D01*
X0151627Y0257749D01*
X0151758Y0257829D01*
X0151890Y0257905D01*
X0152026Y0257978D01*
X0152163Y0258047D01*
X0152302Y0258112D01*
X0152442Y0258174D01*
X0152584Y0258232D01*
X0152727Y0258287D01*
X0152872Y0258338D01*
X0153018Y0258385D01*
X0153165Y0258427D01*
X0153313Y0258467D01*
X0153462Y0258503D01*
X0153612Y0258534D01*
X0153763Y0258562D01*
X0153914Y0258585D01*
X0154067Y0258605D01*
X0154219Y0258622D01*
X0154372Y0258634D01*
X0154525Y0258642D01*
X0154678Y0258646D01*
X0154832Y0258646D01*
X0154985Y0258642D01*
X0155138Y0258634D01*
X0155291Y0258622D01*
X0155443Y0258605D01*
X0155596Y0258585D01*
X0155747Y0258562D01*
X0155898Y0258534D01*
X0156048Y0258503D01*
X0156197Y0258467D01*
X0156345Y0258427D01*
X0156492Y0258385D01*
X0156638Y0258338D01*
X0156783Y0258287D01*
X0156926Y0258232D01*
X0157068Y0258174D01*
X0157208Y0258112D01*
X0157347Y0258047D01*
X0157484Y0257978D01*
X0157618Y0257905D01*
X0157752Y0257829D01*
X0157883Y0257749D01*
X0158012Y0257667D01*
X0158138Y0257580D01*
X0158264Y0257491D01*
X0158386Y0257398D01*
X0158505Y0257302D01*
X0158623Y0257202D01*
X0158736Y0257102D01*
X0158849Y0256997D01*
X0158958Y0256888D01*
X0159064Y0256778D01*
X0159168Y0256665D01*
X0159268Y0256549D01*
X0159366Y0256431D01*
X0159460Y0256310D01*
X0159551Y0256187D01*
X0159639Y0256061D01*
X0159723Y0255933D01*
X0159805Y0255803D01*
X0159882Y0255670D01*
X0159956Y0255537D01*
X0160027Y0255401D01*
X0160095Y0255263D01*
X0160159Y0255122D01*
X0160219Y0254982D01*
X0160275Y0254840D01*
X0160328Y0254696D01*
X0160377Y0254550D01*
X0160421Y0254404D01*
X0160463Y0254256D01*
X0160500Y0254108D01*
X0160534Y0253958D01*
X0160564Y0253806D01*
X0160589Y0253656D01*
X0160611Y0253505D01*
X0160629Y0253352D01*
X0160643Y0253200D01*
X0160653Y0253047D01*
X0160658Y0252893D01*
X0160661Y0252740D01*
X0018674Y0127086D02*
X0018673Y0126933D01*
X0018667Y0126779D01*
X0018657Y0126625D01*
X0018643Y0126474D01*
X0018625Y0126321D01*
X0018603Y0126170D01*
X0018578Y0126019D01*
X0018548Y0125868D01*
X0018514Y0125718D01*
X0018477Y0125570D01*
X0018436Y0125421D01*
X0018391Y0125276D01*
X0018342Y0125130D01*
X0018289Y0124986D01*
X0018233Y0124844D01*
X0018173Y0124703D01*
X0018109Y0124563D01*
X0018042Y0124425D01*
X0017971Y0124289D01*
X0017896Y0124155D01*
X0017818Y0124023D01*
X0017737Y0123893D01*
X0017653Y0123764D01*
X0017565Y0123639D01*
X0017474Y0123516D01*
X0017380Y0123395D01*
X0017282Y0123276D01*
X0017182Y0123161D01*
X0017078Y0123048D01*
X0016972Y0122937D01*
X0016863Y0122829D01*
X0016751Y0122724D01*
X0016637Y0122623D01*
X0016519Y0122524D01*
X0016399Y0122428D01*
X0016278Y0122335D01*
X0016153Y0122246D01*
X0016026Y0122159D01*
X0015897Y0122076D01*
X0015766Y0121997D01*
X0015633Y0121920D01*
X0015498Y0121848D01*
X0015361Y0121779D01*
X0015222Y0121714D01*
X0015082Y0121652D01*
X0014940Y0121594D01*
X0014796Y0121539D01*
X0014652Y0121488D01*
X0014506Y0121441D01*
X0014359Y0121398D01*
X0014210Y0121359D01*
X0014062Y0121323D01*
X0013912Y0121292D01*
X0013761Y0121264D01*
X0013610Y0121239D01*
X0013457Y0121220D01*
X0013305Y0121204D01*
X0013152Y0121192D01*
X0012999Y0121184D01*
X0012845Y0121180D01*
X0012692Y0121180D01*
X0012539Y0121184D01*
X0012386Y0121192D01*
X0012233Y0121204D01*
X0012081Y0121220D01*
X0011928Y0121239D01*
X0011777Y0121264D01*
X0011626Y0121292D01*
X0011476Y0121323D01*
X0011327Y0121359D01*
X0011179Y0121398D01*
X0011032Y0121441D01*
X0010885Y0121488D01*
X0010741Y0121539D01*
X0010598Y0121594D01*
X0010456Y0121652D01*
X0010315Y0121714D01*
X0010177Y0121779D01*
X0010040Y0121848D01*
X0009905Y0121920D01*
X0009772Y0121997D01*
X0009641Y0122076D01*
X0009512Y0122159D01*
X0009385Y0122246D01*
X0009260Y0122335D01*
X0009138Y0122428D01*
X0009019Y0122524D01*
X0008901Y0122623D01*
X0008787Y0122724D01*
X0008675Y0122829D01*
X0008566Y0122937D01*
X0008460Y0123048D01*
X0008356Y0123161D01*
X0008256Y0123276D01*
X0008158Y0123395D01*
X0008064Y0123516D01*
X0007972Y0123639D01*
X0007885Y0123764D01*
X0007801Y0123893D01*
X0007718Y0124023D01*
X0007642Y0124155D01*
X0007567Y0124289D01*
X0007496Y0124425D01*
X0007428Y0124563D01*
X0007364Y0124703D01*
X0007305Y0124844D01*
X0007249Y0124986D01*
X0007196Y0125130D01*
X0007147Y0125276D01*
X0007102Y0125421D01*
X0007061Y0125570D01*
X0007024Y0125718D01*
X0006990Y0125868D01*
X0006959Y0126019D01*
X0006934Y0126170D01*
X0006913Y0126321D01*
X0006895Y0126474D01*
X0006881Y0126625D01*
X0006870Y0126779D01*
X0006865Y0126933D01*
X0006863Y0127086D01*
X0006865Y0127239D01*
X0006870Y0127393D01*
X0006881Y0127546D01*
X0006895Y0127698D01*
X0006913Y0127851D01*
X0006934Y0128002D01*
X0006959Y0128153D01*
X0006990Y0128304D01*
X0007024Y0128454D01*
X0007061Y0128602D01*
X0007102Y0128750D01*
X0007147Y0128896D01*
X0007196Y0129041D01*
X0007249Y0129186D01*
X0007305Y0129328D01*
X0007364Y0129468D01*
X0007428Y0129609D01*
X0007496Y0129746D01*
X0007567Y0129882D01*
X0007642Y0130017D01*
X0007718Y0130149D01*
X0007801Y0130279D01*
X0007885Y0130407D01*
X0007972Y0130533D01*
X0008064Y0130656D01*
X0008158Y0130776D01*
X0008256Y0130895D01*
X0008356Y0131011D01*
X0008460Y0131124D01*
X0008566Y0131235D01*
X0008675Y0131343D01*
X0008787Y0131448D01*
X0008901Y0131549D01*
X0009019Y0131648D01*
X0009138Y0131744D01*
X0009260Y0131837D01*
X0009385Y0131926D01*
X0009512Y0132013D01*
X0009641Y0132095D01*
X0009772Y0132175D01*
X0009905Y0132251D01*
X0010040Y0132324D01*
X0010177Y0132393D01*
X0010315Y0132458D01*
X0010456Y0132519D01*
X0010598Y0132578D01*
X0010741Y0132633D01*
X0010885Y0132684D01*
X0011032Y0132731D01*
X0011179Y0132774D01*
X0011327Y0132813D01*
X0011476Y0132849D01*
X0011626Y0132880D01*
X0011777Y0132908D01*
X0011928Y0132932D01*
X0012081Y0132952D01*
X0012233Y0132968D01*
X0012386Y0132980D01*
X0012539Y0132988D01*
X0012692Y0132992D01*
X0012845Y0132992D01*
X0012999Y0132988D01*
X0013152Y0132980D01*
X0013305Y0132968D01*
X0013457Y0132952D01*
X0013610Y0132932D01*
X0013761Y0132908D01*
X0013912Y0132880D01*
X0014062Y0132849D01*
X0014210Y0132813D01*
X0014359Y0132774D01*
X0014506Y0132731D01*
X0014652Y0132684D01*
X0014796Y0132633D01*
X0014940Y0132578D01*
X0015082Y0132519D01*
X0015222Y0132458D01*
X0015361Y0132393D01*
X0015498Y0132324D01*
X0015633Y0132251D01*
X0015766Y0132175D01*
X0015897Y0132095D01*
X0016026Y0132013D01*
X0016153Y0131926D01*
X0016278Y0131837D01*
X0016399Y0131744D01*
X0016519Y0131648D01*
X0016637Y0131549D01*
X0016751Y0131448D01*
X0016863Y0131343D01*
X0016972Y0131235D01*
X0017078Y0131124D01*
X0017182Y0131011D01*
X0017282Y0130895D01*
X0017380Y0130776D01*
X0017474Y0130656D01*
X0017565Y0130533D01*
X0017653Y0130407D01*
X0017737Y0130279D01*
X0017818Y0130149D01*
X0017896Y0130017D01*
X0017971Y0129882D01*
X0018042Y0129746D01*
X0018109Y0129609D01*
X0018173Y0129468D01*
X0018233Y0129328D01*
X0018289Y0129186D01*
X0018342Y0129041D01*
X0018391Y0128896D01*
X0018436Y0128750D01*
X0018477Y0128602D01*
X0018514Y0128454D01*
X0018548Y0128304D01*
X0018578Y0128153D01*
X0018603Y0128002D01*
X0018625Y0127851D01*
X0018643Y0127698D01*
X0018657Y0127546D01*
X0018667Y0127393D01*
X0018673Y0127239D01*
X0018674Y0127086D01*
D37*
X0012769Y0127086D03*
X0154755Y0252740D03*
D38*
X0073865Y0250090D03*
X0073865Y0260090D03*
X0073865Y0240090D03*
X0073865Y0230090D03*
X0073865Y0220090D03*
X0073865Y0210090D03*
X0073865Y0200090D03*
X0073865Y0190090D03*
X0073865Y0180089D03*
X0073865Y0170090D03*
X0073865Y0160090D03*
X0073865Y0150090D03*
X0068865Y0140090D03*
X0058865Y0140090D03*
X0048865Y0140090D03*
X0038865Y0140090D03*
X0028865Y0140090D03*
X0018865Y0140090D03*
X0013865Y0150090D03*
X0013865Y0160090D03*
X0013865Y0170090D03*
X0013865Y0180089D03*
X0023865Y0185090D03*
X0013865Y0190090D03*
X0023865Y0195090D03*
X0013865Y0200090D03*
X0013865Y0210090D03*
X0013865Y0220090D03*
X0013865Y0230090D03*
X0013865Y0240090D03*
X0013865Y0250090D03*
X0013865Y0260090D03*
X0023865Y0260090D03*
X0033864Y0260090D03*
X0043865Y0260090D03*
D39*
X0130714Y0246605D03*
D40*
X0132919Y0248521D02*
X0132919Y0256431D01*
X0132919Y0248521D02*
X0128509Y0248521D01*
X0128509Y0256431D01*
X0132919Y0256431D01*
X0132919Y0255941D02*
X0128509Y0255941D01*
X0128509Y0255453D02*
X0132919Y0255453D01*
X0132919Y0254964D02*
X0128509Y0254964D01*
X0128509Y0254475D02*
X0132919Y0254475D01*
X0132919Y0253986D02*
X0128509Y0253986D01*
X0128509Y0253497D02*
X0132919Y0253497D01*
X0132919Y0253008D02*
X0128509Y0253008D01*
X0128509Y0252518D02*
X0132919Y0252518D01*
X0132919Y0252030D02*
X0128509Y0252030D01*
X0128509Y0251541D02*
X0132919Y0251541D01*
X0132919Y0251052D02*
X0128509Y0251052D01*
X0128509Y0250563D02*
X0132919Y0250563D01*
X0132919Y0250074D02*
X0128509Y0250074D01*
X0128509Y0249585D02*
X0132919Y0249585D01*
X0132919Y0249095D02*
X0128509Y0249095D01*
X0128509Y0248606D02*
X0132919Y0248606D01*
D41*
X0140713Y0257355D03*
X0120714Y0257355D03*
D42*
X0123757Y0241740D03*
D43*
X0108414Y0250405D03*
X0092414Y0228405D03*
X0116414Y0193405D03*
X0109413Y0114405D03*
M02*