%
M48
METRIC,000.000
T01C0.56
T02C0.60
T03C0.70
T04C0.80
T05C0.90
T06C1.00
T07C3.00
T10C0.50
%
T01
X068162Y056593
X068162Y005493
X033837Y062806
T02
X067735Y082685
X079312Y082568
X069428Y093143
X082843Y095674
X082843Y096944
X067735Y031585
X079312Y031468
X069428Y042043
X082843Y044574
X082843Y045844
X034264Y036714
X022687Y036831
X032570Y026256
X019156Y023725
X019156Y022455
T03
X073140Y062020
X067177Y071712
X069124Y072643
X073140Y010920
X067177Y020612
X069124Y021543
X028859Y057379
X034822Y047687
X032875Y046756
T04
X063585Y053046
X066084Y060286
X070190Y060201
X089765Y060976
X063585Y001946
X066084Y009186
X070190Y009101
X089765Y009876
X038414Y066353
X035915Y059113
X031809Y059198
X012234Y058423
T05
X061626Y092181
X061626Y096581
X061626Y041081
X061626Y045481
X040373Y027218
X040373Y022818
T06
X081966Y055877
X081966Y053337
X081966Y058417
X081966Y060957
X081966Y063497
X081966Y066037
X081966Y068577
X081966Y071117
X081966Y073657
X081966Y076197
X081966Y078737
X081966Y081277
X083236Y083817
X085776Y083817
X088316Y083817
X090856Y083817
X093396Y083817
X095936Y083817
X097206Y081277
X097206Y078737
X097206Y076197
X097206Y073657
X094666Y072387
X094666Y069847
X097206Y068577
X097206Y066037
X097206Y063497
X097206Y060957
X097206Y058417
X097206Y055877
X097206Y053337
X094666Y053337
X092126Y053337
X089586Y053337
X097206Y071117
X081966Y004776
X081966Y002236
X081966Y007316
X081966Y009856
X081966Y012396
X081966Y014936
X081966Y017476
X081966Y020016
X081966Y022556
X081966Y025096
X081966Y027636
X081966Y030176
X083236Y032716
X085776Y032716
X088316Y032716
X090856Y032716
X093396Y032716
X095936Y032716
X097206Y030176
X097206Y027636
X097206Y025096
X097206Y022556
X094666Y021286
X094666Y018746
X097206Y017476
X097206Y014936
X097206Y012396
X097206Y009856
X097206Y007316
X097206Y004776
X097206Y002236
X094666Y002236
X092126Y002236
X089586Y002236
X097206Y020016
X020033Y063523
X020033Y066063
X020033Y060983
X020033Y058443
X020033Y055903
X020033Y053363
X020033Y050823
X020033Y048283
X020033Y045743
X020033Y043203
X020033Y040663
X020033Y038123
X018763Y035583
X016222Y035583
X013683Y035583
X011143Y035583
X008603Y035583
X006063Y035583
X004793Y038123
X004793Y040663
X004793Y043203
X004793Y045743
X007333Y047013
X007333Y049553
X004793Y050823
X004793Y053363
X004793Y055903
X004793Y058443
X004793Y060983
X004793Y063523
X004793Y066063
X007333Y066063
X009873Y066063
X012413Y066063
X004793Y048283
T07
X061420Y055203
X097485Y087120
X061420Y004103
X097485Y036020
X040579Y064196
X004514Y032279
T10
X054989Y038791
X054989Y037791
X054989Y036791
X054989Y035791
X054989Y034791
X054989Y033791
X054989Y032791
X054989Y031791
X054989Y030791
X047010Y030858
X047010Y031858
X047010Y032858
X047010Y033858
X047010Y034858
X047010Y035858
X047010Y036858
X047010Y037858
X047010Y038858
X089245Y050800
X090245Y050806
X091245Y050811
X092245Y050817
X093245Y050823
X094245Y050829
X095245Y050834
X095589Y049298
X094589Y049298
X093589Y049298
X092589Y049298
X091589Y049298
X090589Y049298
X089589Y049298
M30