%
M48
METRIC,000.000
T01C0.56
T02C0.60
T03C0.70
T04C0.80
T05C0.90
T06C1.00
T07C3.00
T10C0.50
%
T01
X067298Y005963
X067298Y056563
X033201Y062636
T02
X079084Y031769
X068644Y032912
X082614Y044876
X082614Y046146
X079084Y082369
X068644Y083512
X082614Y095476
X082614Y096746
X021415Y036830
X031855Y035687
X017885Y023723
X017885Y022453
T03
X072962Y004998
X077026Y010586
X070930Y019476
X072708Y039542
X072962Y055598
X077026Y061186
X070930Y070076
X072708Y090142
X027537Y063601
X023473Y058013
X029569Y049123
X027791Y029057
T04
X069066Y007197
X069066Y057797
X031433Y061402
T05
X061397Y041381
X061397Y045783
X061397Y091981
X061397Y096383
X039102Y027218
X039102Y022816
T06
X081738Y005077
X081738Y002537
X081738Y007617
X081738Y010157
X081738Y012697
X081738Y015237
X081738Y017777
X081738Y020317
X081738Y022857
X081738Y025397
X081738Y027937
X081738Y030477
X083008Y033017
X085548Y033017
X088088Y033017
X090628Y033017
X093168Y033017
X095708Y033017
X096978Y030477
X096978Y027937
X096978Y025397
X096978Y022857
X094438Y021587
X096978Y020317
X094438Y019047
X096978Y017777
X096978Y015237
X096978Y012697
X096978Y010157
X096978Y007617
X096978Y005077
X096978Y002537
X094438Y002537
X091898Y002537
X089358Y002537
X081738Y055677
X081738Y053137
X081738Y058217
X081738Y060757
X081738Y063297
X081738Y065837
X081738Y068377
X081738Y070917
X081738Y073457
X081738Y075997
X081738Y078537
X081738Y081077
X083008Y083617
X085548Y083617
X088088Y083617
X090628Y083617
X093168Y083617
X095708Y083617
X096978Y081077
X096978Y078537
X096978Y075997
X096978Y073457
X094438Y072187
X096978Y070917
X094438Y069647
X096978Y068377
X096978Y065837
X096978Y063297
X096978Y060757
X096978Y058217
X096978Y055677
X096978Y053137
X094438Y053137
X091898Y053137
X089358Y053137
X018761Y063523
X018761Y066063
X018761Y060983
X018761Y058443
X018761Y055903
X018761Y053363
X018761Y050823
X018761Y048283
X018761Y045743
X018761Y043203
X018761Y040663
X018761Y038123
X017491Y035583
X014951Y035583
X012411Y035583
X009871Y035583
X007331Y035583
X004791Y035583
X003521Y038123
X003521Y040663
X003521Y043203
X003521Y045743
X006061Y047013
X003521Y048283
X006061Y049553
X003521Y050823
X003521Y053363
X003521Y055903
X003521Y058443
X003521Y060983
X003521Y063523
X003521Y066063
X006061Y066063
X008601Y066063
X011141Y066063
T07
X061192Y004403
X097257Y036319
X061192Y055003
X097257Y086919
X039307Y064196
X003242Y032281
T10
X060361Y049598
X059361Y049598
X058361Y049598
X057361Y049598
X056361Y049598
X056459Y052314
X057458Y052275
X058457Y052235
X059457Y052196
X060456Y052157
X060752Y051346
X054760Y040091
X054760Y039091
X054760Y038091
X054760Y037091
X054760Y036091
X054760Y035091
X054760Y034091
X054760Y033091
X054760Y032091
X045739Y031858
X045739Y032858
X045739Y033858
X045739Y034858
X045739Y035858
X045739Y036858
X045739Y037858
X045739Y038858
X045739Y039858
M30