G75*
%MOIN*%
%OFA0B0*%
%FSLAX25Y25*%
%IPPOS*%
%LPD*%
%AMOC8*
5,1,8,0,0,1.08239X$1,22.5*
%
%ADD10C,0.00000*%
%ADD11C,0.00400*%
%ADD12C,0.00800*%
%ADD13C,0.00500*%
%ADD14C,0.00100*%
%ADD15C,0.00300*%
%ADD16C,0.00200*%
%ADD17C,0.00600*%
%ADD18C,0.00900*%
%ADD19C,0.00700*%
%ADD20R,0.03937X0.00787*%
%ADD21C,0.01000*%
D10*
X0004557Y0022435D02*
X0025391Y0026394D01*
X0045891Y0030019D01*
X0045960Y0031852D01*
X0046030Y0032019D01*
X0058794Y0032505D01*
X0071224Y0032991D01*
X0071200Y0032985D02*
X0071225Y0058990D01*
X0071224Y0058963D02*
X0071224Y0084935D01*
X0051224Y0088685D01*
X0051224Y0199797D01*
X0227474Y0199797D01*
X0227474Y0006741D01*
X0166919Y0006394D01*
X0106363Y0006047D01*
X0074002Y0009419D01*
X0074002Y0012574D01*
X0059905Y0013130D01*
X0045807Y0013685D01*
X0045807Y0015908D01*
X0004557Y0022435D01*
X0069653Y0022850D02*
X0069655Y0023003D01*
X0069661Y0023157D01*
X0069671Y0023310D01*
X0069685Y0023462D01*
X0069703Y0023615D01*
X0069725Y0023766D01*
X0069750Y0023917D01*
X0069780Y0024068D01*
X0069814Y0024218D01*
X0069851Y0024366D01*
X0069892Y0024514D01*
X0069937Y0024660D01*
X0069986Y0024806D01*
X0070039Y0024950D01*
X0070095Y0025092D01*
X0070155Y0025233D01*
X0070219Y0025373D01*
X0070286Y0025511D01*
X0070357Y0025647D01*
X0070432Y0025781D01*
X0070509Y0025913D01*
X0070591Y0026043D01*
X0070675Y0026171D01*
X0070763Y0026297D01*
X0070854Y0026420D01*
X0070948Y0026541D01*
X0071046Y0026659D01*
X0071146Y0026775D01*
X0071250Y0026888D01*
X0071356Y0026999D01*
X0071465Y0027107D01*
X0071577Y0027212D01*
X0071691Y0027313D01*
X0071809Y0027412D01*
X0071928Y0027508D01*
X0072050Y0027601D01*
X0072175Y0027690D01*
X0072302Y0027777D01*
X0072431Y0027859D01*
X0072562Y0027939D01*
X0072695Y0028015D01*
X0072830Y0028088D01*
X0072967Y0028157D01*
X0073106Y0028222D01*
X0073246Y0028284D01*
X0073388Y0028342D01*
X0073531Y0028397D01*
X0073676Y0028448D01*
X0073822Y0028495D01*
X0073969Y0028538D01*
X0074117Y0028577D01*
X0074266Y0028613D01*
X0074416Y0028644D01*
X0074567Y0028672D01*
X0074718Y0028696D01*
X0074871Y0028716D01*
X0075023Y0028732D01*
X0075176Y0028744D01*
X0075329Y0028752D01*
X0075482Y0028756D01*
X0075636Y0028756D01*
X0075789Y0028752D01*
X0075942Y0028744D01*
X0076095Y0028732D01*
X0076247Y0028716D01*
X0076400Y0028696D01*
X0076551Y0028672D01*
X0076702Y0028644D01*
X0076852Y0028613D01*
X0077001Y0028577D01*
X0077149Y0028538D01*
X0077296Y0028495D01*
X0077442Y0028448D01*
X0077587Y0028397D01*
X0077730Y0028342D01*
X0077872Y0028284D01*
X0078012Y0028222D01*
X0078151Y0028157D01*
X0078288Y0028088D01*
X0078423Y0028015D01*
X0078556Y0027939D01*
X0078687Y0027859D01*
X0078816Y0027777D01*
X0078943Y0027690D01*
X0079068Y0027601D01*
X0079190Y0027508D01*
X0079309Y0027412D01*
X0079427Y0027313D01*
X0079541Y0027212D01*
X0079653Y0027107D01*
X0079762Y0026999D01*
X0079868Y0026888D01*
X0079972Y0026775D01*
X0080072Y0026659D01*
X0080170Y0026541D01*
X0080264Y0026420D01*
X0080355Y0026297D01*
X0080443Y0026171D01*
X0080527Y0026043D01*
X0080609Y0025913D01*
X0080686Y0025781D01*
X0080761Y0025647D01*
X0080832Y0025511D01*
X0080899Y0025373D01*
X0080963Y0025233D01*
X0081023Y0025092D01*
X0081079Y0024950D01*
X0081132Y0024806D01*
X0081181Y0024660D01*
X0081226Y0024514D01*
X0081267Y0024366D01*
X0081304Y0024218D01*
X0081338Y0024068D01*
X0081368Y0023917D01*
X0081393Y0023766D01*
X0081415Y0023615D01*
X0081433Y0023462D01*
X0081447Y0023310D01*
X0081457Y0023157D01*
X0081463Y0023003D01*
X0081465Y0022850D01*
X0081463Y0022697D01*
X0081457Y0022543D01*
X0081447Y0022390D01*
X0081433Y0022238D01*
X0081415Y0022085D01*
X0081393Y0021934D01*
X0081368Y0021783D01*
X0081338Y0021632D01*
X0081304Y0021482D01*
X0081267Y0021334D01*
X0081226Y0021186D01*
X0081181Y0021040D01*
X0081132Y0020894D01*
X0081079Y0020750D01*
X0081023Y0020608D01*
X0080963Y0020467D01*
X0080899Y0020327D01*
X0080832Y0020189D01*
X0080761Y0020053D01*
X0080686Y0019919D01*
X0080609Y0019787D01*
X0080527Y0019657D01*
X0080443Y0019529D01*
X0080355Y0019403D01*
X0080264Y0019280D01*
X0080170Y0019159D01*
X0080072Y0019041D01*
X0079972Y0018925D01*
X0079868Y0018812D01*
X0079762Y0018701D01*
X0079653Y0018593D01*
X0079541Y0018488D01*
X0079427Y0018387D01*
X0079309Y0018288D01*
X0079190Y0018192D01*
X0079068Y0018099D01*
X0078943Y0018010D01*
X0078816Y0017923D01*
X0078687Y0017841D01*
X0078556Y0017761D01*
X0078423Y0017685D01*
X0078288Y0017612D01*
X0078151Y0017543D01*
X0078012Y0017478D01*
X0077872Y0017416D01*
X0077730Y0017358D01*
X0077587Y0017303D01*
X0077442Y0017252D01*
X0077296Y0017205D01*
X0077149Y0017162D01*
X0077001Y0017123D01*
X0076852Y0017087D01*
X0076702Y0017056D01*
X0076551Y0017028D01*
X0076400Y0017004D01*
X0076247Y0016984D01*
X0076095Y0016968D01*
X0075942Y0016956D01*
X0075789Y0016948D01*
X0075636Y0016944D01*
X0075482Y0016944D01*
X0075329Y0016948D01*
X0075176Y0016956D01*
X0075023Y0016968D01*
X0074871Y0016984D01*
X0074718Y0017004D01*
X0074567Y0017028D01*
X0074416Y0017056D01*
X0074266Y0017087D01*
X0074117Y0017123D01*
X0073969Y0017162D01*
X0073822Y0017205D01*
X0073676Y0017252D01*
X0073531Y0017303D01*
X0073388Y0017358D01*
X0073246Y0017416D01*
X0073106Y0017478D01*
X0072967Y0017543D01*
X0072830Y0017612D01*
X0072695Y0017685D01*
X0072562Y0017761D01*
X0072431Y0017841D01*
X0072302Y0017923D01*
X0072175Y0018010D01*
X0072050Y0018099D01*
X0071928Y0018192D01*
X0071809Y0018288D01*
X0071691Y0018387D01*
X0071577Y0018488D01*
X0071465Y0018593D01*
X0071356Y0018701D01*
X0071250Y0018812D01*
X0071146Y0018925D01*
X0071046Y0019041D01*
X0070948Y0019159D01*
X0070854Y0019280D01*
X0070763Y0019403D01*
X0070675Y0019529D01*
X0070591Y0019657D01*
X0070509Y0019787D01*
X0070432Y0019919D01*
X0070357Y0020053D01*
X0070286Y0020189D01*
X0070219Y0020327D01*
X0070155Y0020467D01*
X0070095Y0020608D01*
X0070039Y0020750D01*
X0069986Y0020894D01*
X0069937Y0021040D01*
X0069892Y0021186D01*
X0069851Y0021334D01*
X0069814Y0021482D01*
X0069780Y0021632D01*
X0069750Y0021783D01*
X0069725Y0021934D01*
X0069703Y0022085D01*
X0069685Y0022238D01*
X0069671Y0022390D01*
X0069661Y0022543D01*
X0069655Y0022697D01*
X0069653Y0022850D01*
X0211639Y0148504D02*
X0211641Y0148657D01*
X0211647Y0148811D01*
X0211657Y0148964D01*
X0211671Y0149116D01*
X0211689Y0149269D01*
X0211711Y0149420D01*
X0211736Y0149571D01*
X0211766Y0149722D01*
X0211800Y0149872D01*
X0211837Y0150020D01*
X0211878Y0150168D01*
X0211923Y0150314D01*
X0211972Y0150460D01*
X0212025Y0150604D01*
X0212081Y0150746D01*
X0212141Y0150887D01*
X0212205Y0151027D01*
X0212272Y0151165D01*
X0212343Y0151301D01*
X0212418Y0151435D01*
X0212495Y0151567D01*
X0212577Y0151697D01*
X0212661Y0151825D01*
X0212749Y0151951D01*
X0212840Y0152074D01*
X0212934Y0152195D01*
X0213032Y0152313D01*
X0213132Y0152429D01*
X0213236Y0152542D01*
X0213342Y0152653D01*
X0213451Y0152761D01*
X0213563Y0152866D01*
X0213677Y0152967D01*
X0213795Y0153066D01*
X0213914Y0153162D01*
X0214036Y0153255D01*
X0214161Y0153344D01*
X0214288Y0153431D01*
X0214417Y0153513D01*
X0214548Y0153593D01*
X0214681Y0153669D01*
X0214816Y0153742D01*
X0214953Y0153811D01*
X0215092Y0153876D01*
X0215232Y0153938D01*
X0215374Y0153996D01*
X0215517Y0154051D01*
X0215662Y0154102D01*
X0215808Y0154149D01*
X0215955Y0154192D01*
X0216103Y0154231D01*
X0216252Y0154267D01*
X0216402Y0154298D01*
X0216553Y0154326D01*
X0216704Y0154350D01*
X0216857Y0154370D01*
X0217009Y0154386D01*
X0217162Y0154398D01*
X0217315Y0154406D01*
X0217468Y0154410D01*
X0217622Y0154410D01*
X0217775Y0154406D01*
X0217928Y0154398D01*
X0218081Y0154386D01*
X0218233Y0154370D01*
X0218386Y0154350D01*
X0218537Y0154326D01*
X0218688Y0154298D01*
X0218838Y0154267D01*
X0218987Y0154231D01*
X0219135Y0154192D01*
X0219282Y0154149D01*
X0219428Y0154102D01*
X0219573Y0154051D01*
X0219716Y0153996D01*
X0219858Y0153938D01*
X0219998Y0153876D01*
X0220137Y0153811D01*
X0220274Y0153742D01*
X0220409Y0153669D01*
X0220542Y0153593D01*
X0220673Y0153513D01*
X0220802Y0153431D01*
X0220929Y0153344D01*
X0221054Y0153255D01*
X0221176Y0153162D01*
X0221295Y0153066D01*
X0221413Y0152967D01*
X0221527Y0152866D01*
X0221639Y0152761D01*
X0221748Y0152653D01*
X0221854Y0152542D01*
X0221958Y0152429D01*
X0222058Y0152313D01*
X0222156Y0152195D01*
X0222250Y0152074D01*
X0222341Y0151951D01*
X0222429Y0151825D01*
X0222513Y0151697D01*
X0222595Y0151567D01*
X0222672Y0151435D01*
X0222747Y0151301D01*
X0222818Y0151165D01*
X0222885Y0151027D01*
X0222949Y0150887D01*
X0223009Y0150746D01*
X0223065Y0150604D01*
X0223118Y0150460D01*
X0223167Y0150314D01*
X0223212Y0150168D01*
X0223253Y0150020D01*
X0223290Y0149872D01*
X0223324Y0149722D01*
X0223354Y0149571D01*
X0223379Y0149420D01*
X0223401Y0149269D01*
X0223419Y0149116D01*
X0223433Y0148964D01*
X0223443Y0148811D01*
X0223449Y0148657D01*
X0223451Y0148504D01*
X0223449Y0148351D01*
X0223443Y0148197D01*
X0223433Y0148044D01*
X0223419Y0147892D01*
X0223401Y0147739D01*
X0223379Y0147588D01*
X0223354Y0147437D01*
X0223324Y0147286D01*
X0223290Y0147136D01*
X0223253Y0146988D01*
X0223212Y0146840D01*
X0223167Y0146694D01*
X0223118Y0146548D01*
X0223065Y0146404D01*
X0223009Y0146262D01*
X0222949Y0146121D01*
X0222885Y0145981D01*
X0222818Y0145843D01*
X0222747Y0145707D01*
X0222672Y0145573D01*
X0222595Y0145441D01*
X0222513Y0145311D01*
X0222429Y0145183D01*
X0222341Y0145057D01*
X0222250Y0144934D01*
X0222156Y0144813D01*
X0222058Y0144695D01*
X0221958Y0144579D01*
X0221854Y0144466D01*
X0221748Y0144355D01*
X0221639Y0144247D01*
X0221527Y0144142D01*
X0221413Y0144041D01*
X0221295Y0143942D01*
X0221176Y0143846D01*
X0221054Y0143753D01*
X0220929Y0143664D01*
X0220802Y0143577D01*
X0220673Y0143495D01*
X0220542Y0143415D01*
X0220409Y0143339D01*
X0220274Y0143266D01*
X0220137Y0143197D01*
X0219998Y0143132D01*
X0219858Y0143070D01*
X0219716Y0143012D01*
X0219573Y0142957D01*
X0219428Y0142906D01*
X0219282Y0142859D01*
X0219135Y0142816D01*
X0218987Y0142777D01*
X0218838Y0142741D01*
X0218688Y0142710D01*
X0218537Y0142682D01*
X0218386Y0142658D01*
X0218233Y0142638D01*
X0218081Y0142622D01*
X0217928Y0142610D01*
X0217775Y0142602D01*
X0217622Y0142598D01*
X0217468Y0142598D01*
X0217315Y0142602D01*
X0217162Y0142610D01*
X0217009Y0142622D01*
X0216857Y0142638D01*
X0216704Y0142658D01*
X0216553Y0142682D01*
X0216402Y0142710D01*
X0216252Y0142741D01*
X0216103Y0142777D01*
X0215955Y0142816D01*
X0215808Y0142859D01*
X0215662Y0142906D01*
X0215517Y0142957D01*
X0215374Y0143012D01*
X0215232Y0143070D01*
X0215092Y0143132D01*
X0214953Y0143197D01*
X0214816Y0143266D01*
X0214681Y0143339D01*
X0214548Y0143415D01*
X0214417Y0143495D01*
X0214288Y0143577D01*
X0214161Y0143664D01*
X0214036Y0143753D01*
X0213914Y0143846D01*
X0213795Y0143942D01*
X0213677Y0144041D01*
X0213563Y0144142D01*
X0213451Y0144247D01*
X0213342Y0144355D01*
X0213236Y0144466D01*
X0213132Y0144579D01*
X0213032Y0144695D01*
X0212934Y0144813D01*
X0212840Y0144934D01*
X0212749Y0145057D01*
X0212661Y0145183D01*
X0212577Y0145311D01*
X0212495Y0145441D01*
X0212418Y0145573D01*
X0212343Y0145707D01*
X0212272Y0145843D01*
X0212205Y0145981D01*
X0212141Y0146121D01*
X0212081Y0146262D01*
X0212025Y0146404D01*
X0211972Y0146548D01*
X0211923Y0146694D01*
X0211878Y0146840D01*
X0211837Y0146988D01*
X0211800Y0147136D01*
X0211766Y0147286D01*
X0211736Y0147437D01*
X0211711Y0147588D01*
X0211689Y0147739D01*
X0211671Y0147892D01*
X0211657Y0148044D01*
X0211647Y0148197D01*
X0211641Y0148351D01*
X0211639Y0148504D01*
D11*
X0202193Y0157285D02*
X0199124Y0157285D01*
X0202193Y0160355D01*
X0202193Y0161122D01*
X0201426Y0161889D01*
X0199891Y0161889D01*
X0199124Y0161122D01*
X0198402Y0160989D02*
X0196867Y0160989D01*
X0196100Y0160222D01*
X0196100Y0157153D01*
X0196867Y0156385D01*
X0198402Y0156385D01*
X0199169Y0157153D01*
X0200704Y0157153D02*
X0200704Y0156385D01*
X0200704Y0157153D02*
X0203773Y0160222D01*
X0203773Y0160989D01*
X0200704Y0160989D01*
X0199169Y0160222D02*
X0198402Y0160989D01*
X0197589Y0161122D02*
X0196822Y0161889D01*
X0195287Y0161889D01*
X0194520Y0161122D01*
X0194520Y0158053D01*
X0195287Y0157285D01*
X0196822Y0157285D01*
X0197589Y0158053D01*
X0197589Y0159587D01*
X0196054Y0159587D01*
X0192985Y0158053D02*
X0192218Y0157285D01*
X0190683Y0157285D01*
X0189916Y0158053D01*
X0189916Y0161122D01*
X0190683Y0161889D01*
X0192218Y0161889D01*
X0192985Y0161122D01*
X0192985Y0158053D01*
X0192392Y0154989D02*
X0194694Y0154989D01*
X0195461Y0154222D01*
X0195461Y0152687D01*
X0194694Y0151920D01*
X0192392Y0151920D01*
X0192392Y0150385D02*
X0192392Y0154989D01*
X0193927Y0151920D02*
X0195461Y0150385D01*
X0196996Y0151153D02*
X0197763Y0150385D01*
X0199298Y0150385D01*
X0200065Y0151153D01*
X0200065Y0151920D01*
X0199298Y0152687D01*
X0198531Y0152687D01*
X0199298Y0152687D02*
X0200065Y0153455D01*
X0200065Y0154222D01*
X0199298Y0154989D01*
X0197763Y0154989D01*
X0196996Y0154222D01*
X0188381Y0157285D02*
X0186846Y0158820D01*
X0187614Y0158820D02*
X0185312Y0158820D01*
X0185312Y0157285D02*
X0185312Y0161889D01*
X0187614Y0161889D01*
X0188381Y0161122D01*
X0188381Y0159587D01*
X0187614Y0158820D01*
X0183777Y0159587D02*
X0183010Y0158820D01*
X0180708Y0158820D01*
X0180708Y0157285D02*
X0180708Y0161889D01*
X0183010Y0161889D01*
X0183777Y0161122D01*
X0183777Y0159587D01*
X0179173Y0159587D02*
X0176104Y0159587D01*
X0174569Y0159587D02*
X0173802Y0158820D01*
X0171500Y0158820D01*
X0171500Y0157285D02*
X0171500Y0161889D01*
X0173802Y0161889D01*
X0174569Y0161122D01*
X0174569Y0159587D01*
X0173035Y0158820D02*
X0174569Y0157285D01*
X0167385Y0158945D02*
X0167385Y0160480D01*
X0166618Y0161247D01*
X0166618Y0162781D02*
X0165850Y0162781D01*
X0165083Y0163549D01*
X0165083Y0165083D01*
X0165850Y0165851D01*
X0166618Y0165851D01*
X0167385Y0165083D01*
X0167385Y0163549D01*
X0166618Y0162781D01*
X0165083Y0163549D02*
X0164316Y0162781D01*
X0163548Y0162781D01*
X0162781Y0163549D01*
X0162781Y0165083D01*
X0163548Y0165851D01*
X0164316Y0165851D01*
X0165083Y0165083D01*
X0163548Y0161247D02*
X0162781Y0160480D01*
X0162781Y0158945D01*
X0163548Y0158178D01*
X0166618Y0158178D01*
X0167385Y0158945D01*
X0152650Y0156605D02*
X0151883Y0157372D01*
X0150348Y0157372D01*
X0149581Y0156605D01*
X0148046Y0156605D02*
X0148046Y0155070D01*
X0147279Y0154303D01*
X0144977Y0154303D01*
X0146512Y0154303D02*
X0148046Y0152768D01*
X0149581Y0152768D02*
X0152650Y0155838D01*
X0152650Y0156605D01*
X0152650Y0152768D02*
X0149581Y0152768D01*
X0148046Y0156605D02*
X0147279Y0157372D01*
X0144977Y0157372D01*
X0144977Y0152768D01*
X0145079Y0148160D02*
X0142777Y0148160D01*
X0142777Y0143556D01*
X0142777Y0145090D02*
X0145079Y0145090D01*
X0145847Y0145858D01*
X0145847Y0147392D01*
X0145079Y0148160D01*
X0147381Y0146625D02*
X0148916Y0148160D01*
X0148916Y0143556D01*
X0147381Y0143556D02*
X0150451Y0143556D01*
X0145847Y0143556D02*
X0144312Y0145090D01*
X0135164Y0172924D02*
X0132095Y0172924D01*
X0135164Y0175993D01*
X0135164Y0176760D01*
X0134397Y0177527D01*
X0132863Y0177527D01*
X0132095Y0176760D01*
X0130561Y0176760D02*
X0129793Y0177527D01*
X0128259Y0177527D01*
X0127491Y0176760D01*
X0127491Y0173691D01*
X0128259Y0172924D01*
X0129793Y0172924D01*
X0130561Y0173691D01*
X0142096Y0182341D02*
X0142863Y0181574D01*
X0145933Y0181574D01*
X0146700Y0182341D01*
X0146700Y0183876D01*
X0145933Y0184643D01*
X0146700Y0186178D02*
X0146700Y0189247D01*
X0146700Y0187712D02*
X0142096Y0187712D01*
X0143631Y0186178D01*
X0142863Y0184643D02*
X0142096Y0183876D01*
X0142096Y0182341D01*
X0142863Y0190781D02*
X0142096Y0191549D01*
X0142096Y0193083D01*
X0142863Y0193851D01*
X0145933Y0190781D01*
X0146700Y0191549D01*
X0146700Y0193083D01*
X0145933Y0193851D01*
X0142863Y0193851D01*
X0142863Y0190781D02*
X0145933Y0190781D01*
X0155096Y0190549D02*
X0155863Y0189781D01*
X0156631Y0189781D01*
X0157398Y0190549D01*
X0157398Y0192851D01*
X0158933Y0192851D02*
X0155863Y0192851D01*
X0155096Y0192083D01*
X0155096Y0190549D01*
X0158933Y0189781D02*
X0159700Y0190549D01*
X0159700Y0192083D01*
X0158933Y0192851D01*
X0158933Y0188247D02*
X0159700Y0187480D01*
X0159700Y0185945D01*
X0158933Y0185178D01*
X0155863Y0185178D01*
X0155096Y0185945D01*
X0155096Y0187480D01*
X0155863Y0188247D01*
X0160096Y0187291D02*
X0162398Y0184989D01*
X0162398Y0188059D01*
X0164700Y0187291D02*
X0160096Y0187291D01*
X0160863Y0183455D02*
X0160096Y0182687D01*
X0160096Y0181153D01*
X0160863Y0180385D01*
X0163933Y0180385D01*
X0164700Y0181153D01*
X0164700Y0182687D01*
X0163933Y0183455D01*
X0084031Y0130989D02*
X0084031Y0126385D01*
X0085565Y0126385D02*
X0082496Y0126385D01*
X0080961Y0127153D02*
X0080194Y0126385D01*
X0078659Y0126385D01*
X0077892Y0127153D01*
X0077892Y0130222D01*
X0078659Y0130989D01*
X0080194Y0130989D01*
X0080961Y0130222D01*
X0082496Y0129455D02*
X0084031Y0130989D01*
X0128867Y0034989D02*
X0128100Y0034222D01*
X0128100Y0031153D01*
X0128867Y0030385D01*
X0130402Y0030385D01*
X0131169Y0031153D01*
X0132704Y0031153D02*
X0133471Y0030385D01*
X0135006Y0030385D01*
X0135773Y0031153D01*
X0135773Y0031920D01*
X0135006Y0032687D01*
X0132704Y0032687D01*
X0132704Y0031153D01*
X0132704Y0032687D02*
X0134239Y0034222D01*
X0135773Y0034989D01*
X0131169Y0034222D02*
X0130402Y0034989D01*
X0128867Y0034989D01*
D12*
X0107868Y0022391D02*
X0107868Y0021604D01*
X0102356Y0021604D01*
X0102356Y0022391D01*
X0107868Y0022391D01*
X0107474Y0021997D02*
X0102356Y0021997D01*
X0096844Y0021997D02*
X0091726Y0021997D01*
X0091332Y0021604D02*
X0091332Y0022391D01*
X0096844Y0022391D01*
X0096844Y0021604D01*
X0091332Y0021604D01*
X0091332Y0011367D01*
X0096844Y0011367D01*
X0102356Y0011367D02*
X0107868Y0011367D01*
X0107868Y0021604D01*
X0149981Y0058490D02*
X0153484Y0058490D01*
X0154185Y0059191D01*
X0154185Y0060592D01*
X0153484Y0061293D01*
X0149981Y0061293D01*
X0150682Y0063094D02*
X0149981Y0063795D01*
X0149981Y0065196D01*
X0150682Y0065896D01*
X0152083Y0065196D02*
X0152083Y0063795D01*
X0151383Y0063094D01*
X0150682Y0063094D01*
X0149281Y0064495D02*
X0154886Y0064495D01*
X0154185Y0063795D02*
X0154185Y0065196D01*
X0153484Y0065896D01*
X0152784Y0065896D01*
X0152083Y0065196D01*
X0152083Y0067698D02*
X0152083Y0069800D01*
X0152784Y0070500D01*
X0153484Y0070500D01*
X0154185Y0069800D01*
X0154185Y0068399D01*
X0153484Y0067698D01*
X0152083Y0067698D01*
X0150682Y0069099D01*
X0149981Y0070500D01*
X0154185Y0063795D02*
X0153484Y0063094D01*
X0086624Y0109343D02*
X0077176Y0109343D01*
X0077176Y0115248D01*
X0077176Y0123122D02*
X0077176Y0127453D01*
X0078750Y0129028D01*
X0085050Y0129028D01*
X0086624Y0127453D01*
X0086624Y0123122D01*
X0086624Y0115248D02*
X0086624Y0109343D01*
X0130431Y0144774D02*
X0130431Y0146585D01*
X0131651Y0147506D01*
X0130431Y0148396D02*
X0130431Y0146585D01*
X0130491Y0146485D02*
X0131651Y0145726D01*
X0130231Y0149174D02*
X0130231Y0150985D01*
X0131451Y0151906D01*
X0130231Y0152796D02*
X0130231Y0150985D01*
X0130291Y0150885D02*
X0131451Y0150126D01*
X0146144Y0164748D02*
X0146144Y0171622D01*
X0147325Y0169367D02*
X0150475Y0169367D01*
X0148900Y0167004D01*
X0147325Y0169367D01*
X0148113Y0168973D02*
X0149687Y0168973D01*
X0148900Y0167792D01*
X0148113Y0168973D01*
X0148179Y0168873D02*
X0149621Y0168873D01*
X0149088Y0168074D02*
X0148712Y0168074D01*
X0151656Y0164748D02*
X0151656Y0171622D01*
X0168300Y0170876D02*
X0168300Y0167495D01*
X0172843Y0165995D02*
X0174957Y0165995D01*
X0179500Y0167495D02*
X0179500Y0170876D01*
X0191183Y0168587D02*
X0191183Y0165437D01*
X0204963Y0165437D01*
X0201026Y0168587D02*
X0191183Y0168587D01*
X0201026Y0168587D02*
X0201026Y0173311D01*
X0215231Y0161996D02*
X0215231Y0160185D01*
X0216451Y0161106D01*
X0215231Y0160185D02*
X0215231Y0158374D01*
X0216451Y0159326D02*
X0215291Y0160085D01*
X0220711Y0173311D02*
X0220711Y0189059D01*
X0204963Y0196933D02*
X0191183Y0196933D01*
X0191183Y0193784D01*
X0201026Y0193784D01*
X0201026Y0189059D01*
X0131396Y0187335D02*
X0131396Y0181036D01*
X0126475Y0188319D02*
X0123325Y0188319D01*
X0118404Y0187335D02*
X0118404Y0181036D01*
X0089363Y0185755D02*
X0089363Y0189299D01*
X0079521Y0192054D02*
X0071253Y0192054D01*
X0089363Y0168432D02*
X0089363Y0164889D01*
X0079521Y0162133D02*
X0071253Y0162133D01*
D13*
X0077900Y0120685D02*
X0085900Y0120685D01*
X0078404Y0099461D02*
X0078404Y0036439D01*
X0097900Y0018869D02*
X0097900Y0017368D01*
X0099902Y0017368D01*
X0099401Y0016147D02*
X0099401Y0015146D01*
X0097900Y0016147D02*
X0100903Y0016147D01*
X0100903Y0014145D01*
X0100903Y0012924D02*
X0097900Y0012924D01*
X0097900Y0010922D01*
X0097900Y0018869D02*
X0098400Y0019370D01*
X0099902Y0019370D01*
X0118650Y0045435D02*
X0131150Y0045435D01*
X0131150Y0054185D01*
X0118650Y0054185D01*
X0118650Y0045435D01*
X0141396Y0036439D02*
X0141396Y0099461D01*
X0151449Y0098000D02*
X0151449Y0093000D01*
X0153949Y0090500D01*
X0151449Y0088000D01*
X0151449Y0083000D01*
X0153949Y0080500D01*
X0151449Y0078000D01*
X0151449Y0073000D01*
X0153949Y0070500D01*
X0151449Y0068000D01*
X0151449Y0063000D01*
X0153949Y0060500D01*
X0151449Y0058000D01*
X0151449Y0053000D01*
X0153949Y0050500D01*
X0151449Y0048000D01*
X0151449Y0043000D01*
X0153949Y0040500D01*
X0151449Y0038000D01*
X0151449Y0033000D01*
X0153949Y0030500D01*
X0151449Y0028000D01*
X0151449Y0023000D01*
X0153949Y0020500D01*
X0151449Y0018000D01*
X0151449Y0013000D01*
X0153949Y0010500D01*
X0158949Y0010500D01*
X0161449Y0013000D01*
X0161449Y0018000D01*
X0158949Y0020500D01*
X0161449Y0023000D01*
X0161449Y0028000D01*
X0158949Y0030500D01*
X0161449Y0033000D01*
X0161449Y0038000D01*
X0158949Y0040500D01*
X0161449Y0043000D01*
X0161449Y0048000D01*
X0158949Y0050500D01*
X0161449Y0053000D01*
X0161449Y0058000D01*
X0158949Y0060500D01*
X0161449Y0063000D01*
X0161449Y0068000D01*
X0158949Y0070500D01*
X0161449Y0073000D01*
X0161449Y0078000D01*
X0158949Y0080500D01*
X0161449Y0083000D01*
X0161449Y0088000D01*
X0158949Y0090500D01*
X0161449Y0093000D01*
X0161449Y0098000D01*
X0158949Y0100500D01*
X0161449Y0103000D01*
X0161449Y0108000D01*
X0158949Y0110500D01*
X0161449Y0113000D01*
X0161449Y0118000D01*
X0158949Y0120500D01*
X0161449Y0123000D01*
X0161449Y0128000D01*
X0158949Y0130500D01*
X0156449Y0133000D01*
X0156449Y0138000D01*
X0158949Y0140500D01*
X0163949Y0140500D01*
X0166449Y0138000D01*
X0168949Y0140500D01*
X0173949Y0140500D01*
X0176449Y0138000D01*
X0178949Y0140500D01*
X0183949Y0140500D01*
X0186449Y0138000D01*
X0188949Y0140500D01*
X0193949Y0140500D01*
X0196449Y0138000D01*
X0198949Y0140500D01*
X0203949Y0140500D01*
X0206449Y0138000D01*
X0208949Y0140500D01*
X0213949Y0140500D01*
X0216449Y0138000D01*
X0216449Y0133000D01*
X0213949Y0130500D01*
X0208949Y0130500D01*
X0206449Y0133000D01*
X0203949Y0130500D01*
X0198949Y0130500D01*
X0196449Y0133000D01*
X0193949Y0130500D01*
X0188949Y0130500D01*
X0186449Y0133000D01*
X0183949Y0130500D01*
X0178949Y0130500D01*
X0176449Y0133000D01*
X0173949Y0130500D01*
X0168949Y0130500D01*
X0166449Y0133000D01*
X0163949Y0130500D01*
X0158949Y0130500D01*
X0153949Y0130500D01*
X0151449Y0128000D01*
X0151449Y0123000D01*
X0153949Y0120500D01*
X0151449Y0118000D01*
X0151449Y0113000D01*
X0153949Y0110500D01*
X0151449Y0108000D01*
X0151449Y0103000D01*
X0153949Y0100500D01*
X0151449Y0098000D01*
X0133650Y0087935D02*
X0113650Y0087935D01*
X0113650Y0066685D01*
X0133650Y0066685D01*
X0133650Y0087935D01*
X0201449Y0088000D02*
X0201449Y0093000D01*
X0203949Y0095500D01*
X0208949Y0095500D01*
X0211449Y0093000D01*
X0211449Y0098000D01*
X0213949Y0100500D01*
X0211449Y0103000D01*
X0211449Y0108000D01*
X0213949Y0110500D01*
X0211449Y0113000D01*
X0211449Y0118000D01*
X0213949Y0120500D01*
X0211449Y0123000D01*
X0211449Y0128000D01*
X0213949Y0130500D01*
X0218949Y0130500D01*
X0221449Y0128000D01*
X0221449Y0123000D01*
X0218949Y0120500D01*
X0221449Y0118000D01*
X0221449Y0113000D01*
X0218949Y0110500D01*
X0221449Y0108000D01*
X0221449Y0103000D01*
X0218949Y0100500D01*
X0221449Y0098000D01*
X0221449Y0093000D01*
X0218949Y0090500D01*
X0221449Y0088000D01*
X0221449Y0083000D01*
X0218949Y0080500D01*
X0221449Y0078000D01*
X0221449Y0073000D01*
X0218949Y0070500D01*
X0221449Y0068000D01*
X0221449Y0063000D01*
X0218949Y0060500D01*
X0221449Y0058000D01*
X0221449Y0053000D01*
X0218949Y0050500D01*
X0221449Y0048000D01*
X0221449Y0043000D01*
X0218949Y0040500D01*
X0221449Y0038000D01*
X0221449Y0033000D01*
X0218949Y0030500D01*
X0221449Y0028000D01*
X0221449Y0023000D01*
X0218949Y0020500D01*
X0221449Y0018000D01*
X0221449Y0013000D01*
X0218949Y0010500D01*
X0213949Y0010500D01*
X0211449Y0013000D01*
X0208949Y0010500D01*
X0203949Y0010500D01*
X0201449Y0013000D01*
X0198949Y0010500D01*
X0193949Y0010500D01*
X0191449Y0013000D01*
X0188949Y0010500D01*
X0183949Y0010500D01*
X0181449Y0013000D01*
X0181449Y0018000D01*
X0183949Y0020500D01*
X0188949Y0020500D01*
X0191449Y0018000D01*
X0193949Y0020500D01*
X0198949Y0020500D01*
X0201449Y0018000D01*
X0203949Y0020500D01*
X0208949Y0020500D01*
X0211449Y0018000D01*
X0211449Y0013000D01*
X0211449Y0018000D02*
X0213949Y0020500D01*
X0211449Y0023000D01*
X0211449Y0028000D01*
X0213949Y0030500D01*
X0211449Y0033000D01*
X0211449Y0038000D01*
X0213949Y0040500D01*
X0211449Y0043000D01*
X0211449Y0048000D01*
X0213949Y0050500D01*
X0211449Y0053000D01*
X0211449Y0058000D01*
X0213949Y0060500D01*
X0211449Y0063000D01*
X0211449Y0068000D01*
X0213949Y0070500D01*
X0211449Y0073000D01*
X0211449Y0078000D01*
X0208949Y0075500D01*
X0203949Y0075500D01*
X0201449Y0078000D01*
X0201449Y0083000D01*
X0203949Y0085500D01*
X0201449Y0088000D01*
D14*
X0134178Y0142285D02*
X0133177Y0142285D01*
X0133677Y0142285D02*
X0133677Y0143787D01*
X0133177Y0143286D01*
X0132704Y0143536D02*
X0132454Y0143787D01*
X0131703Y0143787D01*
X0131703Y0142285D01*
X0132454Y0142285D01*
X0132704Y0142536D01*
X0132704Y0143536D01*
X0131231Y0143787D02*
X0130230Y0143787D01*
X0130230Y0142285D01*
X0131231Y0142285D01*
X0130731Y0143036D02*
X0130230Y0143036D01*
X0129758Y0142285D02*
X0128757Y0142285D01*
X0128757Y0143787D01*
X0128557Y0146685D02*
X0129558Y0146685D01*
X0130030Y0146685D02*
X0130030Y0148187D01*
X0131031Y0148187D01*
X0131503Y0148187D02*
X0132254Y0148187D01*
X0132504Y0147936D01*
X0132504Y0146936D01*
X0132254Y0146685D01*
X0131503Y0146685D01*
X0131503Y0148187D01*
X0130531Y0147436D02*
X0130030Y0147436D01*
X0130030Y0146685D02*
X0131031Y0146685D01*
X0132977Y0146685D02*
X0133978Y0147686D01*
X0133978Y0147936D01*
X0133727Y0148187D01*
X0133227Y0148187D01*
X0132977Y0147936D01*
X0132977Y0146685D02*
X0133978Y0146685D01*
X0128557Y0146685D02*
X0128557Y0148187D01*
X0102850Y0114710D02*
X0102850Y0113709D01*
X0102850Y0114209D02*
X0101349Y0114209D01*
X0101849Y0113709D01*
X0101349Y0113236D02*
X0102600Y0113236D01*
X0102850Y0112986D01*
X0102850Y0112486D01*
X0102600Y0112235D01*
X0101349Y0112235D01*
X0076413Y0111459D02*
X0076413Y0110959D01*
X0076163Y0110709D01*
X0076163Y0110236D02*
X0076413Y0109986D01*
X0076413Y0109486D01*
X0076163Y0109235D01*
X0075162Y0109235D01*
X0074912Y0109486D01*
X0074912Y0109986D01*
X0075162Y0110236D01*
X0074912Y0110709D02*
X0075662Y0110709D01*
X0075412Y0111209D01*
X0075412Y0111459D01*
X0075662Y0111710D01*
X0076163Y0111710D01*
X0076413Y0111459D01*
X0074912Y0111710D02*
X0074912Y0110709D01*
X0063895Y0182144D02*
X0062894Y0182144D01*
X0063895Y0183145D01*
X0063895Y0183395D01*
X0063645Y0183645D01*
X0063144Y0183645D01*
X0062894Y0183395D01*
X0062422Y0183645D02*
X0061421Y0182144D01*
X0062422Y0182144D02*
X0061421Y0183645D01*
X0174503Y0160637D02*
X0174503Y0159386D01*
X0174754Y0159135D01*
X0175254Y0159135D01*
X0175504Y0159386D01*
X0175504Y0160637D01*
X0175977Y0160386D02*
X0176227Y0160637D01*
X0176727Y0160637D01*
X0176978Y0160386D01*
X0176978Y0160136D01*
X0175977Y0159135D01*
X0176978Y0159135D01*
X0213557Y0157387D02*
X0213557Y0155885D01*
X0214558Y0155885D01*
X0215030Y0155885D02*
X0216031Y0155885D01*
X0216503Y0155885D02*
X0217254Y0155885D01*
X0217504Y0156136D01*
X0217504Y0157136D01*
X0217254Y0157387D01*
X0216503Y0157387D01*
X0216503Y0155885D01*
X0215531Y0156636D02*
X0215030Y0156636D01*
X0215030Y0157387D02*
X0215030Y0155885D01*
X0215030Y0157387D02*
X0216031Y0157387D01*
X0217977Y0157387D02*
X0217977Y0156636D01*
X0218477Y0156886D01*
X0218727Y0156886D01*
X0218978Y0156636D01*
X0218978Y0156136D01*
X0218727Y0155885D01*
X0218227Y0155885D01*
X0217977Y0156136D01*
X0217977Y0157387D02*
X0218978Y0157387D01*
X0215200Y0183289D02*
X0215450Y0183539D01*
X0215450Y0183789D01*
X0215200Y0184040D01*
X0213949Y0184040D01*
X0213949Y0184290D02*
X0213949Y0183789D01*
X0214199Y0184762D02*
X0213949Y0185012D01*
X0213949Y0185513D01*
X0214199Y0185763D01*
X0214449Y0185763D01*
X0215450Y0184762D01*
X0215450Y0185763D01*
D15*
X0203934Y0126853D02*
X0203934Y0123150D01*
X0202700Y0124384D01*
X0201465Y0123150D01*
X0201465Y0126853D01*
X0200251Y0125619D02*
X0200251Y0123150D01*
X0200251Y0125002D02*
X0197782Y0125002D01*
X0197782Y0125619D02*
X0199017Y0126853D01*
X0200251Y0125619D01*
X0197782Y0125619D02*
X0197782Y0123150D01*
X0196568Y0123150D02*
X0195333Y0124384D01*
X0195951Y0124384D02*
X0194099Y0124384D01*
X0194099Y0123150D02*
X0194099Y0126853D01*
X0195951Y0126853D01*
X0196568Y0126236D01*
X0196568Y0125002D01*
X0195951Y0124384D01*
X0195951Y0116853D02*
X0194716Y0116853D01*
X0194099Y0116236D01*
X0194099Y0113767D01*
X0194716Y0113150D01*
X0195951Y0113150D01*
X0196568Y0113767D01*
X0196568Y0115002D01*
X0195333Y0115002D01*
X0196568Y0116236D02*
X0195951Y0116853D01*
X0197782Y0116853D02*
X0200251Y0113150D01*
X0200251Y0116853D01*
X0201465Y0116853D02*
X0203317Y0116853D01*
X0203934Y0116236D01*
X0203934Y0113767D01*
X0203317Y0113150D01*
X0201465Y0113150D01*
X0201465Y0116853D01*
X0197782Y0116853D02*
X0197782Y0113150D01*
X0198399Y0106853D02*
X0197782Y0106236D01*
X0197782Y0105619D01*
X0198399Y0105002D01*
X0199634Y0105002D01*
X0200251Y0104384D01*
X0200251Y0103767D01*
X0199634Y0103150D01*
X0198399Y0103150D01*
X0197782Y0103767D01*
X0196568Y0103150D02*
X0195333Y0104384D01*
X0195951Y0104384D02*
X0194099Y0104384D01*
X0194099Y0103150D02*
X0194099Y0106853D01*
X0195951Y0106853D01*
X0196568Y0106236D01*
X0196568Y0105002D01*
X0195951Y0104384D01*
X0198399Y0106853D02*
X0199634Y0106853D01*
X0200251Y0106236D01*
X0201465Y0106853D02*
X0203934Y0106853D01*
X0202700Y0106853D02*
X0202700Y0103150D01*
X0204099Y0101052D02*
X0204099Y0099117D01*
X0205067Y0098150D01*
X0206034Y0099117D01*
X0206034Y0101052D01*
X0207046Y0100569D02*
X0207046Y0098634D01*
X0207529Y0098150D01*
X0208497Y0098150D01*
X0208981Y0098634D01*
X0209992Y0098634D02*
X0210476Y0098150D01*
X0211443Y0098150D01*
X0211927Y0098634D01*
X0211927Y0100569D02*
X0211443Y0101052D01*
X0210476Y0101052D01*
X0209992Y0100569D01*
X0209992Y0098634D01*
X0208981Y0100569D02*
X0208497Y0101052D01*
X0207529Y0101052D01*
X0207046Y0100569D01*
X0210067Y0091052D02*
X0211034Y0090085D01*
X0211034Y0088150D01*
X0212046Y0088634D02*
X0212529Y0088150D01*
X0213497Y0088150D01*
X0213981Y0088634D01*
X0213981Y0089117D01*
X0213497Y0089601D01*
X0213013Y0089601D01*
X0213497Y0089601D02*
X0213981Y0090085D01*
X0213981Y0090569D01*
X0213497Y0091052D01*
X0212529Y0091052D01*
X0212046Y0090569D01*
X0211034Y0089601D02*
X0209099Y0089601D01*
X0209099Y0090085D02*
X0210067Y0091052D01*
X0209099Y0090085D02*
X0209099Y0088150D01*
X0210067Y0081052D02*
X0211034Y0080085D01*
X0211034Y0078150D01*
X0212046Y0078150D02*
X0213981Y0080085D01*
X0213981Y0080569D01*
X0213497Y0081052D01*
X0212529Y0081052D01*
X0212046Y0080569D01*
X0211034Y0079601D02*
X0209099Y0079601D01*
X0209099Y0080085D02*
X0210067Y0081052D01*
X0209099Y0080085D02*
X0209099Y0078150D01*
X0212046Y0078150D02*
X0213981Y0078150D01*
X0204017Y0066853D02*
X0204017Y0063150D01*
X0205251Y0063150D02*
X0202782Y0063150D01*
X0201568Y0063150D02*
X0201568Y0065619D01*
X0200333Y0066853D01*
X0199099Y0065619D01*
X0199099Y0063150D01*
X0199099Y0065002D02*
X0201568Y0065002D01*
X0202782Y0065619D02*
X0204017Y0066853D01*
X0199634Y0073150D02*
X0199634Y0076853D01*
X0197782Y0075002D01*
X0200251Y0075002D01*
X0196568Y0075002D02*
X0194099Y0075002D01*
X0194099Y0075619D02*
X0195333Y0076853D01*
X0196568Y0075619D01*
X0196568Y0073150D01*
X0194099Y0073150D02*
X0194099Y0075619D01*
X0194099Y0083150D02*
X0194099Y0085619D01*
X0195333Y0086853D01*
X0196568Y0085619D01*
X0196568Y0083150D01*
X0197782Y0083767D02*
X0198399Y0083150D01*
X0199634Y0083150D01*
X0200251Y0083767D01*
X0200251Y0085002D01*
X0199634Y0085619D01*
X0199017Y0085619D01*
X0197782Y0085002D01*
X0197782Y0086853D01*
X0200251Y0086853D01*
X0196568Y0085002D02*
X0194099Y0085002D01*
X0173934Y0093767D02*
X0173934Y0096236D01*
X0173317Y0096853D01*
X0171465Y0096853D01*
X0171465Y0093150D01*
X0173317Y0093150D01*
X0173934Y0093767D01*
X0170251Y0093150D02*
X0170251Y0096853D01*
X0167782Y0096853D02*
X0167782Y0093150D01*
X0166568Y0093767D02*
X0166568Y0095002D01*
X0165333Y0095002D01*
X0164099Y0096236D02*
X0164099Y0093767D01*
X0164716Y0093150D01*
X0165951Y0093150D01*
X0166568Y0093767D01*
X0166568Y0096236D02*
X0165951Y0096853D01*
X0164716Y0096853D01*
X0164099Y0096236D01*
X0167782Y0096853D02*
X0170251Y0093150D01*
X0169634Y0086853D02*
X0168399Y0086853D01*
X0167782Y0086236D01*
X0166568Y0086236D02*
X0165951Y0086853D01*
X0164099Y0086853D01*
X0164099Y0083150D01*
X0165951Y0083150D01*
X0166568Y0083767D01*
X0166568Y0086236D01*
X0169634Y0086853D02*
X0170251Y0086236D01*
X0170251Y0085619D01*
X0167782Y0083150D01*
X0170251Y0083150D01*
X0169634Y0076853D02*
X0168399Y0076853D01*
X0167782Y0076236D01*
X0166568Y0076236D02*
X0165951Y0076853D01*
X0164099Y0076853D01*
X0164099Y0073150D01*
X0165951Y0073150D01*
X0166568Y0073767D01*
X0166568Y0076236D01*
X0169017Y0075002D02*
X0169634Y0075002D01*
X0170251Y0074384D01*
X0170251Y0073767D01*
X0169634Y0073150D01*
X0168399Y0073150D01*
X0167782Y0073767D01*
X0169634Y0075002D02*
X0170251Y0075619D01*
X0170251Y0076236D01*
X0169634Y0076853D01*
X0169634Y0066853D02*
X0167782Y0065002D01*
X0170251Y0065002D01*
X0169634Y0066853D02*
X0169634Y0063150D01*
X0166568Y0063767D02*
X0166568Y0066236D01*
X0165951Y0066853D01*
X0164099Y0066853D01*
X0164099Y0063150D01*
X0165951Y0063150D01*
X0166568Y0063767D01*
X0165951Y0056853D02*
X0164099Y0056853D01*
X0164099Y0053150D01*
X0165951Y0053150D01*
X0166568Y0053767D01*
X0166568Y0056236D01*
X0165951Y0056853D01*
X0167782Y0056853D02*
X0167782Y0055002D01*
X0169017Y0055619D01*
X0169634Y0055619D01*
X0170251Y0055002D01*
X0170251Y0053767D01*
X0169634Y0053150D01*
X0168399Y0053150D01*
X0167782Y0053767D01*
X0167782Y0056853D02*
X0170251Y0056853D01*
X0170251Y0046853D02*
X0169017Y0046236D01*
X0167782Y0045002D01*
X0169634Y0045002D01*
X0170251Y0044384D01*
X0170251Y0043767D01*
X0169634Y0043150D01*
X0168399Y0043150D01*
X0167782Y0043767D01*
X0167782Y0045002D01*
X0166568Y0043767D02*
X0166568Y0046236D01*
X0165951Y0046853D01*
X0164099Y0046853D01*
X0164099Y0043150D01*
X0165951Y0043150D01*
X0166568Y0043767D01*
X0165951Y0036853D02*
X0164099Y0036853D01*
X0164099Y0033150D01*
X0165951Y0033150D01*
X0166568Y0033767D01*
X0166568Y0036236D01*
X0165951Y0036853D01*
X0167782Y0036853D02*
X0170251Y0036853D01*
X0170251Y0036236D01*
X0167782Y0033767D01*
X0167782Y0033150D01*
X0168399Y0026853D02*
X0169634Y0026853D01*
X0170251Y0026236D01*
X0170251Y0025619D01*
X0169634Y0025002D01*
X0168399Y0025002D01*
X0167782Y0025619D01*
X0167782Y0026236D01*
X0168399Y0026853D01*
X0168399Y0025002D02*
X0167782Y0024384D01*
X0167782Y0023767D01*
X0168399Y0023150D01*
X0169634Y0023150D01*
X0170251Y0023767D01*
X0170251Y0024384D01*
X0169634Y0025002D01*
X0166568Y0023767D02*
X0166568Y0026236D01*
X0165951Y0026853D01*
X0164099Y0026853D01*
X0164099Y0023150D01*
X0165951Y0023150D01*
X0166568Y0023767D01*
X0165951Y0016853D02*
X0164099Y0016853D01*
X0164099Y0013150D01*
X0165951Y0013150D01*
X0166568Y0013767D01*
X0166568Y0016236D01*
X0165951Y0016853D01*
X0167782Y0016236D02*
X0167782Y0015619D01*
X0168399Y0015002D01*
X0170251Y0015002D01*
X0170251Y0016236D02*
X0169634Y0016853D01*
X0168399Y0016853D01*
X0167782Y0016236D01*
X0167782Y0013767D02*
X0168399Y0013150D01*
X0169634Y0013150D01*
X0170251Y0013767D01*
X0170251Y0016236D01*
X0194099Y0005085D02*
X0194099Y0003150D01*
X0194099Y0004601D02*
X0196034Y0004601D01*
X0196034Y0005085D02*
X0196034Y0003150D01*
X0197046Y0003634D02*
X0197529Y0003150D01*
X0198497Y0003150D01*
X0198981Y0003634D01*
X0198981Y0004117D01*
X0198497Y0004601D01*
X0197046Y0004601D01*
X0197046Y0003634D01*
X0197046Y0004601D02*
X0198013Y0005569D01*
X0198981Y0006052D01*
X0196034Y0005085D02*
X0195067Y0006052D01*
X0194099Y0005085D01*
X0204099Y0005002D02*
X0206568Y0005002D01*
X0206568Y0005619D02*
X0206568Y0003150D01*
X0207782Y0003150D02*
X0207782Y0003767D01*
X0210251Y0006236D01*
X0210251Y0006853D01*
X0207782Y0006853D01*
X0206568Y0005619D02*
X0205333Y0006853D01*
X0204099Y0005619D01*
X0204099Y0003150D01*
X0214099Y0003150D02*
X0215951Y0003150D01*
X0216568Y0003767D01*
X0216568Y0006236D01*
X0215951Y0006853D01*
X0214099Y0006853D01*
X0214099Y0003150D01*
X0217782Y0003150D02*
X0220251Y0003150D01*
X0219017Y0003150D02*
X0219017Y0006853D01*
X0217782Y0005619D01*
X0221465Y0006236D02*
X0221465Y0003767D01*
X0223934Y0006236D01*
X0223934Y0003767D01*
X0223317Y0003150D01*
X0222083Y0003150D01*
X0221465Y0003767D01*
X0221465Y0006236D02*
X0222083Y0006853D01*
X0223317Y0006853D01*
X0223934Y0006236D01*
X0208934Y0023150D02*
X0206465Y0023150D01*
X0205251Y0023150D02*
X0202782Y0023150D01*
X0204017Y0023150D02*
X0204017Y0026853D01*
X0202782Y0025619D01*
X0201568Y0026236D02*
X0200951Y0026853D01*
X0199099Y0026853D01*
X0199099Y0023150D01*
X0200951Y0023150D01*
X0201568Y0023767D01*
X0201568Y0026236D01*
X0206465Y0025619D02*
X0207700Y0026853D01*
X0207700Y0023150D01*
X0208934Y0033150D02*
X0206465Y0033150D01*
X0208934Y0035619D01*
X0208934Y0036236D01*
X0208317Y0036853D01*
X0207083Y0036853D01*
X0206465Y0036236D01*
X0204017Y0036853D02*
X0204017Y0033150D01*
X0205251Y0033150D02*
X0202782Y0033150D01*
X0201568Y0033767D02*
X0201568Y0036236D01*
X0200951Y0036853D01*
X0199099Y0036853D01*
X0199099Y0033150D01*
X0200951Y0033150D01*
X0201568Y0033767D01*
X0202782Y0035619D02*
X0204017Y0036853D01*
X0204017Y0043150D02*
X0204017Y0046853D01*
X0202782Y0045619D01*
X0201568Y0046236D02*
X0200951Y0046853D01*
X0199099Y0046853D01*
X0199099Y0043150D01*
X0200951Y0043150D01*
X0201568Y0043767D01*
X0201568Y0046236D01*
X0202782Y0043150D02*
X0205251Y0043150D01*
X0206465Y0043767D02*
X0207083Y0043150D01*
X0208317Y0043150D01*
X0208934Y0043767D01*
X0208934Y0044384D01*
X0208317Y0045002D01*
X0207700Y0045002D01*
X0208317Y0045002D02*
X0208934Y0045619D01*
X0208934Y0046236D01*
X0208317Y0046853D01*
X0207083Y0046853D01*
X0206465Y0046236D01*
X0204634Y0053150D02*
X0203399Y0053150D01*
X0202782Y0053767D01*
X0205251Y0056236D01*
X0205251Y0053767D01*
X0204634Y0053150D01*
X0202782Y0053767D02*
X0202782Y0056236D01*
X0203399Y0056853D01*
X0204634Y0056853D01*
X0205251Y0056236D01*
X0201568Y0055619D02*
X0201568Y0053150D01*
X0201568Y0055002D02*
X0199099Y0055002D01*
X0199099Y0055619D02*
X0200333Y0056853D01*
X0201568Y0055619D01*
X0199099Y0055619D02*
X0199099Y0053150D01*
X0172700Y0103150D02*
X0172700Y0106853D01*
X0173934Y0106853D02*
X0171465Y0106853D01*
X0170251Y0106236D02*
X0169634Y0106853D01*
X0168399Y0106853D01*
X0167782Y0106236D01*
X0167782Y0105619D01*
X0168399Y0105002D01*
X0169634Y0105002D01*
X0170251Y0104384D01*
X0170251Y0103767D01*
X0169634Y0103150D01*
X0168399Y0103150D01*
X0167782Y0103767D01*
X0166568Y0103150D02*
X0165333Y0104384D01*
X0165951Y0104384D02*
X0164099Y0104384D01*
X0164099Y0103150D02*
X0164099Y0106853D01*
X0165951Y0106853D01*
X0166568Y0106236D01*
X0166568Y0105002D01*
X0165951Y0104384D01*
X0166568Y0113150D02*
X0165333Y0114384D01*
X0165951Y0114384D02*
X0164099Y0114384D01*
X0164099Y0113150D02*
X0164099Y0116853D01*
X0165951Y0116853D01*
X0166568Y0116236D01*
X0166568Y0115002D01*
X0165951Y0114384D01*
X0167782Y0113150D02*
X0170251Y0116853D01*
X0167782Y0116853D02*
X0170251Y0113150D01*
X0170251Y0123150D02*
X0167782Y0126853D01*
X0166568Y0126853D02*
X0164099Y0126853D01*
X0165333Y0126853D02*
X0165333Y0123150D01*
X0167782Y0123150D02*
X0170251Y0126853D01*
D16*
X0173042Y0143100D02*
X0173042Y0145302D01*
X0172308Y0145302D02*
X0173776Y0145302D01*
X0174518Y0145302D02*
X0175986Y0143100D01*
X0174518Y0143100D02*
X0175986Y0145302D01*
X0164937Y0144935D02*
X0164937Y0144201D01*
X0164570Y0143834D01*
X0163469Y0143834D01*
X0164203Y0143834D02*
X0164937Y0143100D01*
X0163469Y0143100D02*
X0163469Y0145302D01*
X0164570Y0145302D01*
X0164937Y0144935D01*
X0162727Y0145302D02*
X0161259Y0145302D01*
X0161993Y0145302D02*
X0161993Y0143100D01*
X0160517Y0143467D02*
X0160517Y0144935D01*
X0160150Y0145302D01*
X0159049Y0145302D01*
X0159049Y0143100D01*
X0160150Y0143100D01*
X0160517Y0143467D01*
X0189987Y0143834D02*
X0191088Y0143834D01*
X0191455Y0144201D01*
X0191455Y0144935D01*
X0191088Y0145302D01*
X0189987Y0145302D01*
X0189987Y0143100D01*
X0190721Y0143834D02*
X0191455Y0143100D01*
X0192197Y0143100D02*
X0193665Y0145302D01*
X0192197Y0145302D02*
X0193665Y0143100D01*
X0203247Y0143834D02*
X0203981Y0143100D01*
X0204715Y0143834D01*
X0204715Y0145302D01*
X0205457Y0144935D02*
X0205457Y0143467D01*
X0205824Y0143100D01*
X0206557Y0143100D01*
X0206924Y0143467D01*
X0207666Y0143467D02*
X0208033Y0143100D01*
X0208767Y0143100D01*
X0209134Y0143467D01*
X0207666Y0143467D02*
X0207666Y0144935D01*
X0208033Y0145302D01*
X0208767Y0145302D01*
X0209134Y0144935D01*
X0206924Y0144935D02*
X0206557Y0145302D01*
X0205824Y0145302D01*
X0205457Y0144935D01*
X0203247Y0145302D02*
X0203247Y0143834D01*
X0214296Y0143467D02*
X0214663Y0143100D01*
X0215397Y0143100D01*
X0215764Y0143467D01*
X0215764Y0144201D01*
X0215030Y0144201D01*
X0214296Y0144935D02*
X0214296Y0143467D01*
X0214296Y0144935D02*
X0214663Y0145302D01*
X0215397Y0145302D01*
X0215764Y0144935D01*
X0216506Y0145302D02*
X0217974Y0143100D01*
X0217974Y0145302D01*
X0218716Y0145302D02*
X0219817Y0145302D01*
X0220184Y0144935D01*
X0220184Y0143467D01*
X0219817Y0143100D01*
X0218716Y0143100D01*
X0218716Y0145302D01*
X0216506Y0145302D02*
X0216506Y0143100D01*
X0225345Y0143467D02*
X0225712Y0143100D01*
X0226446Y0143100D01*
X0226813Y0143467D01*
X0226813Y0144201D01*
X0226079Y0144201D01*
X0225345Y0144935D02*
X0225345Y0143467D01*
X0225345Y0144935D02*
X0225712Y0145302D01*
X0226446Y0145302D01*
X0226813Y0144935D01*
X0227555Y0145302D02*
X0229023Y0143100D01*
X0229023Y0145302D01*
X0229765Y0145302D02*
X0230866Y0145302D01*
X0231233Y0144935D01*
X0231233Y0143467D01*
X0230866Y0143100D01*
X0229765Y0143100D01*
X0229765Y0145302D01*
X0227555Y0145302D02*
X0227555Y0143100D01*
X0236395Y0143100D02*
X0237496Y0143100D01*
X0237863Y0143467D01*
X0237863Y0143834D01*
X0237496Y0144201D01*
X0236395Y0144201D01*
X0237496Y0144201D02*
X0237863Y0144568D01*
X0237863Y0144935D01*
X0237496Y0145302D01*
X0236395Y0145302D01*
X0236395Y0143100D01*
X0238605Y0143100D02*
X0238605Y0145302D01*
X0238605Y0143100D02*
X0240073Y0143100D01*
X0240815Y0143100D02*
X0240815Y0145302D01*
X0241182Y0144201D02*
X0242283Y0143100D01*
X0240815Y0143834D02*
X0242283Y0145302D01*
D17*
X0144600Y0163485D02*
X0144600Y0164787D01*
X0144166Y0165220D01*
X0142431Y0165220D01*
X0141998Y0164787D01*
X0141998Y0163485D01*
X0144600Y0163485D01*
X0144600Y0166432D02*
X0142865Y0168167D01*
X0142431Y0168167D01*
X0141998Y0167733D01*
X0141998Y0166866D01*
X0142431Y0166432D01*
X0144600Y0166432D02*
X0144600Y0168167D01*
X0130555Y0176785D02*
X0130555Y0179388D01*
X0129253Y0178087D01*
X0130988Y0178087D01*
X0128042Y0178087D02*
X0127608Y0177653D01*
X0126307Y0177653D01*
X0127174Y0177653D02*
X0128042Y0176785D01*
X0128042Y0178087D02*
X0128042Y0178954D01*
X0127608Y0179388D01*
X0126307Y0179388D01*
X0126307Y0176785D01*
X0133421Y0184485D02*
X0134289Y0184485D01*
X0134722Y0184919D01*
X0134722Y0187088D01*
X0135934Y0186654D02*
X0136368Y0187088D01*
X0137235Y0187088D01*
X0137669Y0186654D01*
X0137669Y0186220D01*
X0137235Y0185787D01*
X0137669Y0185353D01*
X0137669Y0184919D01*
X0137235Y0184485D01*
X0136368Y0184485D01*
X0135934Y0184919D01*
X0136801Y0185787D02*
X0137235Y0185787D01*
X0133421Y0184485D02*
X0132987Y0184919D01*
X0132987Y0187088D01*
X0119416Y0147658D02*
X0096384Y0147658D01*
X0096384Y0106713D01*
X0119416Y0106713D01*
X0119416Y0147658D01*
X0113768Y0110552D02*
X0113770Y0110637D01*
X0113776Y0110721D01*
X0113786Y0110806D01*
X0113800Y0110889D01*
X0113817Y0110972D01*
X0113839Y0111054D01*
X0113865Y0111135D01*
X0113894Y0111215D01*
X0113927Y0111293D01*
X0113963Y0111369D01*
X0114003Y0111444D01*
X0114047Y0111517D01*
X0114094Y0111588D01*
X0114144Y0111656D01*
X0114197Y0111722D01*
X0114254Y0111785D01*
X0114313Y0111846D01*
X0114375Y0111904D01*
X0114440Y0111959D01*
X0114507Y0112011D01*
X0114576Y0112059D01*
X0114648Y0112104D01*
X0114722Y0112146D01*
X0114798Y0112184D01*
X0114875Y0112219D01*
X0114954Y0112250D01*
X0115034Y0112278D01*
X0115116Y0112301D01*
X0115198Y0112321D01*
X0115281Y0112337D01*
X0115365Y0112349D01*
X0115450Y0112357D01*
X0115535Y0112361D01*
X0115619Y0112361D01*
X0115704Y0112357D01*
X0115789Y0112349D01*
X0115873Y0112337D01*
X0115956Y0112321D01*
X0116038Y0112301D01*
X0116120Y0112278D01*
X0116200Y0112250D01*
X0116279Y0112219D01*
X0116356Y0112184D01*
X0116432Y0112146D01*
X0116506Y0112104D01*
X0116578Y0112059D01*
X0116647Y0112011D01*
X0116714Y0111959D01*
X0116779Y0111904D01*
X0116841Y0111846D01*
X0116900Y0111785D01*
X0116957Y0111722D01*
X0117010Y0111656D01*
X0117060Y0111588D01*
X0117107Y0111517D01*
X0117151Y0111444D01*
X0117191Y0111369D01*
X0117227Y0111293D01*
X0117260Y0111215D01*
X0117289Y0111135D01*
X0117315Y0111054D01*
X0117337Y0110972D01*
X0117354Y0110889D01*
X0117368Y0110806D01*
X0117378Y0110721D01*
X0117384Y0110637D01*
X0117386Y0110552D01*
X0117384Y0110467D01*
X0117378Y0110383D01*
X0117368Y0110298D01*
X0117354Y0110215D01*
X0117337Y0110132D01*
X0117315Y0110050D01*
X0117289Y0109969D01*
X0117260Y0109889D01*
X0117227Y0109811D01*
X0117191Y0109735D01*
X0117151Y0109660D01*
X0117107Y0109587D01*
X0117060Y0109516D01*
X0117010Y0109448D01*
X0116957Y0109382D01*
X0116900Y0109319D01*
X0116841Y0109258D01*
X0116779Y0109200D01*
X0116714Y0109145D01*
X0116647Y0109093D01*
X0116578Y0109045D01*
X0116506Y0109000D01*
X0116432Y0108958D01*
X0116356Y0108920D01*
X0116279Y0108885D01*
X0116200Y0108854D01*
X0116120Y0108826D01*
X0116038Y0108803D01*
X0115956Y0108783D01*
X0115873Y0108767D01*
X0115789Y0108755D01*
X0115704Y0108747D01*
X0115619Y0108743D01*
X0115535Y0108743D01*
X0115450Y0108747D01*
X0115365Y0108755D01*
X0115281Y0108767D01*
X0115198Y0108783D01*
X0115116Y0108803D01*
X0115034Y0108826D01*
X0114954Y0108854D01*
X0114875Y0108885D01*
X0114798Y0108920D01*
X0114722Y0108958D01*
X0114648Y0109000D01*
X0114576Y0109045D01*
X0114507Y0109093D01*
X0114440Y0109145D01*
X0114375Y0109200D01*
X0114313Y0109258D01*
X0114254Y0109319D01*
X0114197Y0109382D01*
X0114144Y0109448D01*
X0114094Y0109516D01*
X0114047Y0109587D01*
X0114003Y0109660D01*
X0113963Y0109735D01*
X0113927Y0109811D01*
X0113894Y0109889D01*
X0113865Y0109969D01*
X0113839Y0110050D01*
X0113817Y0110132D01*
X0113800Y0110215D01*
X0113786Y0110298D01*
X0113776Y0110383D01*
X0113770Y0110467D01*
X0113768Y0110552D01*
D18*
X0137650Y0092896D02*
X0137650Y0089556D01*
X0113900Y0044146D02*
X0113900Y0040806D01*
X0112230Y0042476D02*
X0115570Y0042476D01*
X0090650Y0043896D02*
X0090650Y0040556D01*
X0082650Y0089556D02*
X0082650Y0092896D01*
D19*
X0082109Y0043490D02*
X0082109Y0041622D01*
X0081642Y0041622D02*
X0080708Y0042556D01*
X0081642Y0043490D01*
X0083511Y0043490D01*
X0083511Y0041622D02*
X0081642Y0041622D01*
D20*
X0148900Y0166611D03*
D21*
X0107350Y0026485D02*
X0102850Y0026485D01*
X0096350Y0026485D02*
X0091850Y0026485D01*
M02*
