G75*
%MOIN*%
%OFA0B0*%
%FSLAX25Y25*%
%IPPOS*%
%LPD*%
%AMOC8*
5,1,8,0,0,1.08239X$1,22.5*
%
%ADD10C,0.00000*%
%ADD11C,0.00600*%
%ADD12R,0.05118X0.05906*%
%ADD13R,0.06299X0.05512*%
%ADD14R,0.03150X0.03150*%
%ADD15C,0.05937*%
%ADD16R,0.05500X0.01370*%
%ADD17C,0.05543*%
%ADD18R,0.09843X0.01969*%
%ADD19R,0.09843X0.07874*%
%ADD20R,0.02165X0.04724*%
%ADD21R,0.05906X0.05118*%
%ADD22R,0.18110X0.03937*%
%ADD23R,0.13386X0.06299*%
%ADD24R,0.05000X0.07874*%
%ADD25R,0.05512X0.05512*%
%ADD26R,0.04331X0.03937*%
%ADD27C,0.00800*%
%ADD28C,0.05000*%
%ADD29R,0.06000X0.17000*%
%ADD30C,0.01600*%
%ADD31C,0.01000*%
%ADD32C,0.04724*%
%ADD33C,0.01200*%
%ADD34C,0.04134*%
%ADD35C,0.03562*%
D10*
X0004557Y0022435D02*
X0025391Y0026394D01*
X0045891Y0030019D01*
X0045960Y0031852D01*
X0046030Y0032019D01*
X0058794Y0032505D01*
X0071224Y0032991D01*
X0071200Y0032985D02*
X0071225Y0058990D01*
X0071224Y0058963D02*
X0071224Y0084935D01*
X0051224Y0088685D01*
X0051224Y0199797D01*
X0227474Y0199797D01*
X0227474Y0006741D01*
X0166919Y0006394D01*
X0106363Y0006047D01*
X0074002Y0009419D01*
X0074002Y0012574D01*
X0059905Y0013130D01*
X0045807Y0013685D01*
X0045807Y0015908D01*
X0004557Y0022435D01*
X0069653Y0022850D02*
X0069655Y0023003D01*
X0069661Y0023157D01*
X0069671Y0023310D01*
X0069685Y0023462D01*
X0069703Y0023615D01*
X0069725Y0023766D01*
X0069750Y0023917D01*
X0069780Y0024068D01*
X0069814Y0024218D01*
X0069851Y0024366D01*
X0069892Y0024514D01*
X0069937Y0024660D01*
X0069986Y0024806D01*
X0070039Y0024950D01*
X0070095Y0025092D01*
X0070155Y0025233D01*
X0070219Y0025373D01*
X0070286Y0025511D01*
X0070357Y0025647D01*
X0070432Y0025781D01*
X0070509Y0025913D01*
X0070591Y0026043D01*
X0070675Y0026171D01*
X0070763Y0026297D01*
X0070854Y0026420D01*
X0070948Y0026541D01*
X0071046Y0026659D01*
X0071146Y0026775D01*
X0071250Y0026888D01*
X0071356Y0026999D01*
X0071465Y0027107D01*
X0071577Y0027212D01*
X0071691Y0027313D01*
X0071809Y0027412D01*
X0071928Y0027508D01*
X0072050Y0027601D01*
X0072175Y0027690D01*
X0072302Y0027777D01*
X0072431Y0027859D01*
X0072562Y0027939D01*
X0072695Y0028015D01*
X0072830Y0028088D01*
X0072967Y0028157D01*
X0073106Y0028222D01*
X0073246Y0028284D01*
X0073388Y0028342D01*
X0073531Y0028397D01*
X0073676Y0028448D01*
X0073822Y0028495D01*
X0073969Y0028538D01*
X0074117Y0028577D01*
X0074266Y0028613D01*
X0074416Y0028644D01*
X0074567Y0028672D01*
X0074718Y0028696D01*
X0074871Y0028716D01*
X0075023Y0028732D01*
X0075176Y0028744D01*
X0075329Y0028752D01*
X0075482Y0028756D01*
X0075636Y0028756D01*
X0075789Y0028752D01*
X0075942Y0028744D01*
X0076095Y0028732D01*
X0076247Y0028716D01*
X0076400Y0028696D01*
X0076551Y0028672D01*
X0076702Y0028644D01*
X0076852Y0028613D01*
X0077001Y0028577D01*
X0077149Y0028538D01*
X0077296Y0028495D01*
X0077442Y0028448D01*
X0077587Y0028397D01*
X0077730Y0028342D01*
X0077872Y0028284D01*
X0078012Y0028222D01*
X0078151Y0028157D01*
X0078288Y0028088D01*
X0078423Y0028015D01*
X0078556Y0027939D01*
X0078687Y0027859D01*
X0078816Y0027777D01*
X0078943Y0027690D01*
X0079068Y0027601D01*
X0079190Y0027508D01*
X0079309Y0027412D01*
X0079427Y0027313D01*
X0079541Y0027212D01*
X0079653Y0027107D01*
X0079762Y0026999D01*
X0079868Y0026888D01*
X0079972Y0026775D01*
X0080072Y0026659D01*
X0080170Y0026541D01*
X0080264Y0026420D01*
X0080355Y0026297D01*
X0080443Y0026171D01*
X0080527Y0026043D01*
X0080609Y0025913D01*
X0080686Y0025781D01*
X0080761Y0025647D01*
X0080832Y0025511D01*
X0080899Y0025373D01*
X0080963Y0025233D01*
X0081023Y0025092D01*
X0081079Y0024950D01*
X0081132Y0024806D01*
X0081181Y0024660D01*
X0081226Y0024514D01*
X0081267Y0024366D01*
X0081304Y0024218D01*
X0081338Y0024068D01*
X0081368Y0023917D01*
X0081393Y0023766D01*
X0081415Y0023615D01*
X0081433Y0023462D01*
X0081447Y0023310D01*
X0081457Y0023157D01*
X0081463Y0023003D01*
X0081465Y0022850D01*
X0081463Y0022697D01*
X0081457Y0022543D01*
X0081447Y0022390D01*
X0081433Y0022238D01*
X0081415Y0022085D01*
X0081393Y0021934D01*
X0081368Y0021783D01*
X0081338Y0021632D01*
X0081304Y0021482D01*
X0081267Y0021334D01*
X0081226Y0021186D01*
X0081181Y0021040D01*
X0081132Y0020894D01*
X0081079Y0020750D01*
X0081023Y0020608D01*
X0080963Y0020467D01*
X0080899Y0020327D01*
X0080832Y0020189D01*
X0080761Y0020053D01*
X0080686Y0019919D01*
X0080609Y0019787D01*
X0080527Y0019657D01*
X0080443Y0019529D01*
X0080355Y0019403D01*
X0080264Y0019280D01*
X0080170Y0019159D01*
X0080072Y0019041D01*
X0079972Y0018925D01*
X0079868Y0018812D01*
X0079762Y0018701D01*
X0079653Y0018593D01*
X0079541Y0018488D01*
X0079427Y0018387D01*
X0079309Y0018288D01*
X0079190Y0018192D01*
X0079068Y0018099D01*
X0078943Y0018010D01*
X0078816Y0017923D01*
X0078687Y0017841D01*
X0078556Y0017761D01*
X0078423Y0017685D01*
X0078288Y0017612D01*
X0078151Y0017543D01*
X0078012Y0017478D01*
X0077872Y0017416D01*
X0077730Y0017358D01*
X0077587Y0017303D01*
X0077442Y0017252D01*
X0077296Y0017205D01*
X0077149Y0017162D01*
X0077001Y0017123D01*
X0076852Y0017087D01*
X0076702Y0017056D01*
X0076551Y0017028D01*
X0076400Y0017004D01*
X0076247Y0016984D01*
X0076095Y0016968D01*
X0075942Y0016956D01*
X0075789Y0016948D01*
X0075636Y0016944D01*
X0075482Y0016944D01*
X0075329Y0016948D01*
X0075176Y0016956D01*
X0075023Y0016968D01*
X0074871Y0016984D01*
X0074718Y0017004D01*
X0074567Y0017028D01*
X0074416Y0017056D01*
X0074266Y0017087D01*
X0074117Y0017123D01*
X0073969Y0017162D01*
X0073822Y0017205D01*
X0073676Y0017252D01*
X0073531Y0017303D01*
X0073388Y0017358D01*
X0073246Y0017416D01*
X0073106Y0017478D01*
X0072967Y0017543D01*
X0072830Y0017612D01*
X0072695Y0017685D01*
X0072562Y0017761D01*
X0072431Y0017841D01*
X0072302Y0017923D01*
X0072175Y0018010D01*
X0072050Y0018099D01*
X0071928Y0018192D01*
X0071809Y0018288D01*
X0071691Y0018387D01*
X0071577Y0018488D01*
X0071465Y0018593D01*
X0071356Y0018701D01*
X0071250Y0018812D01*
X0071146Y0018925D01*
X0071046Y0019041D01*
X0070948Y0019159D01*
X0070854Y0019280D01*
X0070763Y0019403D01*
X0070675Y0019529D01*
X0070591Y0019657D01*
X0070509Y0019787D01*
X0070432Y0019919D01*
X0070357Y0020053D01*
X0070286Y0020189D01*
X0070219Y0020327D01*
X0070155Y0020467D01*
X0070095Y0020608D01*
X0070039Y0020750D01*
X0069986Y0020894D01*
X0069937Y0021040D01*
X0069892Y0021186D01*
X0069851Y0021334D01*
X0069814Y0021482D01*
X0069780Y0021632D01*
X0069750Y0021783D01*
X0069725Y0021934D01*
X0069703Y0022085D01*
X0069685Y0022238D01*
X0069671Y0022390D01*
X0069661Y0022543D01*
X0069655Y0022697D01*
X0069653Y0022850D01*
X0211639Y0148504D02*
X0211641Y0148657D01*
X0211647Y0148811D01*
X0211657Y0148964D01*
X0211671Y0149116D01*
X0211689Y0149269D01*
X0211711Y0149420D01*
X0211736Y0149571D01*
X0211766Y0149722D01*
X0211800Y0149872D01*
X0211837Y0150020D01*
X0211878Y0150168D01*
X0211923Y0150314D01*
X0211972Y0150460D01*
X0212025Y0150604D01*
X0212081Y0150746D01*
X0212141Y0150887D01*
X0212205Y0151027D01*
X0212272Y0151165D01*
X0212343Y0151301D01*
X0212418Y0151435D01*
X0212495Y0151567D01*
X0212577Y0151697D01*
X0212661Y0151825D01*
X0212749Y0151951D01*
X0212840Y0152074D01*
X0212934Y0152195D01*
X0213032Y0152313D01*
X0213132Y0152429D01*
X0213236Y0152542D01*
X0213342Y0152653D01*
X0213451Y0152761D01*
X0213563Y0152866D01*
X0213677Y0152967D01*
X0213795Y0153066D01*
X0213914Y0153162D01*
X0214036Y0153255D01*
X0214161Y0153344D01*
X0214288Y0153431D01*
X0214417Y0153513D01*
X0214548Y0153593D01*
X0214681Y0153669D01*
X0214816Y0153742D01*
X0214953Y0153811D01*
X0215092Y0153876D01*
X0215232Y0153938D01*
X0215374Y0153996D01*
X0215517Y0154051D01*
X0215662Y0154102D01*
X0215808Y0154149D01*
X0215955Y0154192D01*
X0216103Y0154231D01*
X0216252Y0154267D01*
X0216402Y0154298D01*
X0216553Y0154326D01*
X0216704Y0154350D01*
X0216857Y0154370D01*
X0217009Y0154386D01*
X0217162Y0154398D01*
X0217315Y0154406D01*
X0217468Y0154410D01*
X0217622Y0154410D01*
X0217775Y0154406D01*
X0217928Y0154398D01*
X0218081Y0154386D01*
X0218233Y0154370D01*
X0218386Y0154350D01*
X0218537Y0154326D01*
X0218688Y0154298D01*
X0218838Y0154267D01*
X0218987Y0154231D01*
X0219135Y0154192D01*
X0219282Y0154149D01*
X0219428Y0154102D01*
X0219573Y0154051D01*
X0219716Y0153996D01*
X0219858Y0153938D01*
X0219998Y0153876D01*
X0220137Y0153811D01*
X0220274Y0153742D01*
X0220409Y0153669D01*
X0220542Y0153593D01*
X0220673Y0153513D01*
X0220802Y0153431D01*
X0220929Y0153344D01*
X0221054Y0153255D01*
X0221176Y0153162D01*
X0221295Y0153066D01*
X0221413Y0152967D01*
X0221527Y0152866D01*
X0221639Y0152761D01*
X0221748Y0152653D01*
X0221854Y0152542D01*
X0221958Y0152429D01*
X0222058Y0152313D01*
X0222156Y0152195D01*
X0222250Y0152074D01*
X0222341Y0151951D01*
X0222429Y0151825D01*
X0222513Y0151697D01*
X0222595Y0151567D01*
X0222672Y0151435D01*
X0222747Y0151301D01*
X0222818Y0151165D01*
X0222885Y0151027D01*
X0222949Y0150887D01*
X0223009Y0150746D01*
X0223065Y0150604D01*
X0223118Y0150460D01*
X0223167Y0150314D01*
X0223212Y0150168D01*
X0223253Y0150020D01*
X0223290Y0149872D01*
X0223324Y0149722D01*
X0223354Y0149571D01*
X0223379Y0149420D01*
X0223401Y0149269D01*
X0223419Y0149116D01*
X0223433Y0148964D01*
X0223443Y0148811D01*
X0223449Y0148657D01*
X0223451Y0148504D01*
X0223449Y0148351D01*
X0223443Y0148197D01*
X0223433Y0148044D01*
X0223419Y0147892D01*
X0223401Y0147739D01*
X0223379Y0147588D01*
X0223354Y0147437D01*
X0223324Y0147286D01*
X0223290Y0147136D01*
X0223253Y0146988D01*
X0223212Y0146840D01*
X0223167Y0146694D01*
X0223118Y0146548D01*
X0223065Y0146404D01*
X0223009Y0146262D01*
X0222949Y0146121D01*
X0222885Y0145981D01*
X0222818Y0145843D01*
X0222747Y0145707D01*
X0222672Y0145573D01*
X0222595Y0145441D01*
X0222513Y0145311D01*
X0222429Y0145183D01*
X0222341Y0145057D01*
X0222250Y0144934D01*
X0222156Y0144813D01*
X0222058Y0144695D01*
X0221958Y0144579D01*
X0221854Y0144466D01*
X0221748Y0144355D01*
X0221639Y0144247D01*
X0221527Y0144142D01*
X0221413Y0144041D01*
X0221295Y0143942D01*
X0221176Y0143846D01*
X0221054Y0143753D01*
X0220929Y0143664D01*
X0220802Y0143577D01*
X0220673Y0143495D01*
X0220542Y0143415D01*
X0220409Y0143339D01*
X0220274Y0143266D01*
X0220137Y0143197D01*
X0219998Y0143132D01*
X0219858Y0143070D01*
X0219716Y0143012D01*
X0219573Y0142957D01*
X0219428Y0142906D01*
X0219282Y0142859D01*
X0219135Y0142816D01*
X0218987Y0142777D01*
X0218838Y0142741D01*
X0218688Y0142710D01*
X0218537Y0142682D01*
X0218386Y0142658D01*
X0218233Y0142638D01*
X0218081Y0142622D01*
X0217928Y0142610D01*
X0217775Y0142602D01*
X0217622Y0142598D01*
X0217468Y0142598D01*
X0217315Y0142602D01*
X0217162Y0142610D01*
X0217009Y0142622D01*
X0216857Y0142638D01*
X0216704Y0142658D01*
X0216553Y0142682D01*
X0216402Y0142710D01*
X0216252Y0142741D01*
X0216103Y0142777D01*
X0215955Y0142816D01*
X0215808Y0142859D01*
X0215662Y0142906D01*
X0215517Y0142957D01*
X0215374Y0143012D01*
X0215232Y0143070D01*
X0215092Y0143132D01*
X0214953Y0143197D01*
X0214816Y0143266D01*
X0214681Y0143339D01*
X0214548Y0143415D01*
X0214417Y0143495D01*
X0214288Y0143577D01*
X0214161Y0143664D01*
X0214036Y0143753D01*
X0213914Y0143846D01*
X0213795Y0143942D01*
X0213677Y0144041D01*
X0213563Y0144142D01*
X0213451Y0144247D01*
X0213342Y0144355D01*
X0213236Y0144466D01*
X0213132Y0144579D01*
X0213032Y0144695D01*
X0212934Y0144813D01*
X0212840Y0144934D01*
X0212749Y0145057D01*
X0212661Y0145183D01*
X0212577Y0145311D01*
X0212495Y0145441D01*
X0212418Y0145573D01*
X0212343Y0145707D01*
X0212272Y0145843D01*
X0212205Y0145981D01*
X0212141Y0146121D01*
X0212081Y0146262D01*
X0212025Y0146404D01*
X0211972Y0146548D01*
X0211923Y0146694D01*
X0211878Y0146840D01*
X0211837Y0146988D01*
X0211800Y0147136D01*
X0211766Y0147286D01*
X0211736Y0147437D01*
X0211711Y0147588D01*
X0211689Y0147739D01*
X0211671Y0147892D01*
X0211657Y0148044D01*
X0211647Y0148197D01*
X0211641Y0148351D01*
X0211639Y0148504D01*
D11*
X0068394Y0145198D02*
X0068394Y0144630D01*
X0068394Y0145198D02*
X0067827Y0145765D01*
X0064991Y0145765D01*
X0063857Y0147179D02*
X0063857Y0148881D01*
X0064424Y0149448D01*
X0066693Y0149448D01*
X0067260Y0148881D01*
X0067260Y0147179D01*
X0063857Y0147179D01*
X0067260Y0145765D02*
X0067260Y0144063D01*
X0066693Y0143496D01*
X0064991Y0143496D01*
X0065559Y0142082D02*
X0067260Y0142082D01*
X0067260Y0140380D01*
X0066693Y0139813D01*
X0066126Y0140380D01*
X0066126Y0142082D01*
X0065559Y0142082D02*
X0064991Y0141514D01*
X0064991Y0140380D01*
X0063857Y0138398D02*
X0063857Y0137264D01*
X0063857Y0137831D02*
X0066693Y0137831D01*
X0067260Y0137264D01*
X0067260Y0136697D01*
X0066693Y0136130D01*
X0066693Y0134715D02*
X0067260Y0134148D01*
X0067260Y0133014D01*
X0066693Y0132447D01*
X0064424Y0132447D01*
X0063857Y0133014D01*
X0063857Y0134148D01*
X0064424Y0134715D01*
X0065559Y0134715D01*
X0066126Y0134148D01*
X0064991Y0134148D01*
X0064991Y0133014D01*
X0066126Y0133014D01*
X0066126Y0134148D01*
X0067260Y0127349D02*
X0067260Y0125647D01*
X0066693Y0125080D01*
X0064991Y0125080D01*
X0065559Y0123666D02*
X0064991Y0123099D01*
X0064991Y0121397D01*
X0063857Y0121397D02*
X0067260Y0121397D01*
X0067260Y0123099D01*
X0066693Y0123666D01*
X0065559Y0123666D01*
X0068394Y0126215D02*
X0068394Y0126782D01*
X0067827Y0127349D01*
X0064991Y0127349D01*
X0064991Y0116300D02*
X0064991Y0114598D01*
X0065559Y0114031D01*
X0066693Y0114031D01*
X0067260Y0114598D01*
X0067260Y0116300D01*
X0063857Y0116300D01*
X0065559Y0112616D02*
X0066126Y0112616D01*
X0066126Y0110348D01*
X0066693Y0110348D02*
X0065559Y0110348D01*
X0064991Y0110915D01*
X0064991Y0112049D01*
X0065559Y0112616D01*
X0067260Y0112049D02*
X0067260Y0110915D01*
X0066693Y0110348D01*
X0067260Y0108933D02*
X0065559Y0108933D01*
X0064991Y0108366D01*
X0064991Y0106665D01*
X0067260Y0106665D01*
X0067260Y0105250D02*
X0067260Y0103549D01*
X0066693Y0102981D01*
X0065559Y0102981D01*
X0064991Y0103549D01*
X0064991Y0105250D01*
X0067827Y0105250D01*
X0068394Y0104683D01*
X0068394Y0104116D01*
X0067260Y0101660D02*
X0067260Y0100526D01*
X0067260Y0101093D02*
X0064991Y0101093D01*
X0064991Y0100526D01*
X0063857Y0101093D02*
X0063290Y0101093D01*
X0064991Y0099112D02*
X0064991Y0097410D01*
X0065559Y0096843D01*
X0066126Y0097410D01*
X0066126Y0098544D01*
X0066693Y0099112D01*
X0067260Y0098544D01*
X0067260Y0096843D01*
X0066126Y0095428D02*
X0066126Y0093160D01*
X0066693Y0093160D02*
X0065559Y0093160D01*
X0064991Y0093727D01*
X0064991Y0094861D01*
X0065559Y0095428D01*
X0066126Y0095428D01*
X0067260Y0094861D02*
X0067260Y0093727D01*
X0066693Y0093160D01*
X0066693Y0091745D02*
X0064424Y0091745D01*
X0063857Y0091178D01*
X0063857Y0089477D01*
X0067260Y0089477D01*
X0067260Y0091178D01*
X0066693Y0091745D01*
X0067260Y0150862D02*
X0067260Y0151997D01*
X0067260Y0151430D02*
X0064991Y0151430D01*
X0064991Y0150862D01*
X0063857Y0151430D02*
X0063290Y0151430D01*
D12*
X0078160Y0136185D03*
X0085640Y0136185D03*
X0128551Y0167724D03*
X0136031Y0167724D03*
X0143537Y0147568D03*
X0151017Y0147568D03*
X0148818Y0138356D03*
X0141337Y0138356D03*
X0170060Y0152085D03*
X0177540Y0152085D03*
X0195160Y0160185D03*
X0202640Y0160185D03*
X0204640Y0151185D03*
X0197160Y0151185D03*
X0136640Y0025185D03*
X0129160Y0025185D03*
D13*
X0081900Y0113674D03*
X0081900Y0124697D03*
D14*
X0128147Y0146585D03*
X0127947Y0150985D03*
X0133853Y0150985D03*
X0134053Y0146585D03*
X0212947Y0160185D03*
X0218853Y0160185D03*
D15*
X0211449Y0135500D03*
X0201449Y0135500D03*
X0191449Y0135500D03*
X0181449Y0135500D03*
X0171449Y0135500D03*
X0161449Y0135500D03*
X0156449Y0125500D03*
X0156449Y0115500D03*
X0156449Y0105500D03*
X0156449Y0095500D03*
X0156449Y0085500D03*
X0156449Y0075500D03*
X0156449Y0065500D03*
X0156449Y0055500D03*
X0156449Y0045500D03*
X0156449Y0035500D03*
X0156449Y0025500D03*
X0156449Y0015500D03*
X0186449Y0015500D03*
X0196449Y0015500D03*
X0206449Y0015500D03*
X0216449Y0015500D03*
X0216449Y0025500D03*
X0216449Y0035500D03*
X0216449Y0045500D03*
X0216449Y0055500D03*
X0216449Y0065500D03*
X0216449Y0075500D03*
X0206449Y0080500D03*
X0216449Y0085500D03*
X0206449Y0090500D03*
X0216449Y0095500D03*
X0216449Y0105500D03*
X0216449Y0115500D03*
X0216449Y0125500D03*
D16*
X0122294Y0125906D03*
X0122294Y0123347D03*
X0122294Y0120788D03*
X0122294Y0118229D03*
X0122294Y0115670D03*
X0122294Y0113111D03*
X0122294Y0110552D03*
X0122294Y0128465D03*
X0122294Y0131024D03*
X0122294Y0133583D03*
X0122294Y0136142D03*
X0122294Y0138701D03*
X0122294Y0141260D03*
X0122294Y0143819D03*
X0093506Y0143819D03*
X0093506Y0141260D03*
X0093506Y0138701D03*
X0093506Y0136142D03*
X0093506Y0133583D03*
X0093506Y0131024D03*
X0093506Y0128465D03*
X0093506Y0125906D03*
X0093506Y0123347D03*
X0093506Y0120788D03*
X0093506Y0118229D03*
X0093506Y0115670D03*
X0093506Y0113111D03*
X0093506Y0110552D03*
D17*
X0076371Y0168432D03*
X0076371Y0185755D03*
D18*
X0086213Y0183393D03*
X0086213Y0180243D03*
X0086213Y0177094D03*
X0086213Y0173944D03*
X0086213Y0170795D03*
D19*
X0086213Y0159377D03*
X0064560Y0159377D03*
X0064560Y0194810D03*
X0086213Y0194810D03*
D20*
X0121160Y0189304D03*
X0128640Y0189304D03*
X0128640Y0179067D03*
X0124900Y0179067D03*
X0121160Y0179067D03*
X0170160Y0174304D03*
X0173900Y0174304D03*
X0177640Y0174304D03*
X0177640Y0164067D03*
X0170160Y0164067D03*
D21*
X0157585Y0165926D03*
X0157585Y0158445D03*
X0169900Y0181445D03*
X0169900Y0188926D03*
X0149900Y0185445D03*
X0149900Y0192926D03*
X0136900Y0193926D03*
X0136900Y0186445D03*
D22*
X0194333Y0185122D03*
X0194333Y0177248D03*
D23*
X0214806Y0167800D03*
X0214806Y0194571D03*
D24*
X0137459Y0099431D03*
X0129585Y0099461D03*
X0121711Y0099439D03*
X0113885Y0099461D03*
X0105963Y0099431D03*
X0082341Y0099461D03*
X0082341Y0036439D03*
X0090215Y0036439D03*
X0113837Y0036439D03*
X0121711Y0036439D03*
X0137459Y0036431D03*
D25*
X0148900Y0160902D03*
X0148900Y0175469D03*
D26*
X0142246Y0179185D03*
X0135554Y0179185D03*
D27*
X0101200Y0026714D02*
X0101200Y0021514D01*
X0098000Y0021514D01*
X0098000Y0026714D01*
X0101200Y0026714D01*
X0101200Y0022313D02*
X0098000Y0022313D01*
X0098000Y0023112D02*
X0101200Y0023112D01*
X0101200Y0023911D02*
X0098000Y0023911D01*
X0098000Y0024710D02*
X0101200Y0024710D01*
X0101200Y0025509D02*
X0098000Y0025509D01*
X0098000Y0026308D02*
X0101200Y0026308D01*
X0106988Y0021665D02*
X0106988Y0013805D01*
X0103788Y0013805D01*
X0103788Y0021665D01*
X0106988Y0021665D01*
X0106988Y0014604D02*
X0103788Y0014604D01*
X0103788Y0015403D02*
X0106988Y0015403D01*
X0106988Y0016202D02*
X0103788Y0016202D01*
X0103788Y0017001D02*
X0106988Y0017001D01*
X0106988Y0017800D02*
X0103788Y0017800D01*
X0103788Y0018599D02*
X0106988Y0018599D01*
X0106988Y0019398D02*
X0103788Y0019398D01*
X0103788Y0020197D02*
X0106988Y0020197D01*
X0106988Y0020996D02*
X0103788Y0020996D01*
X0095412Y0021665D02*
X0095412Y0013805D01*
X0092212Y0013805D01*
X0092212Y0021665D01*
X0095412Y0021665D01*
X0095412Y0014604D02*
X0092212Y0014604D01*
X0092212Y0015403D02*
X0095412Y0015403D01*
X0095412Y0016202D02*
X0092212Y0016202D01*
X0092212Y0017001D02*
X0095412Y0017001D01*
X0095412Y0017800D02*
X0092212Y0017800D01*
X0092212Y0018599D02*
X0095412Y0018599D01*
X0095412Y0019398D02*
X0092212Y0019398D01*
X0092212Y0020197D02*
X0095412Y0020197D01*
X0095412Y0020996D02*
X0092212Y0020996D01*
D28*
X0099600Y0028985D03*
D29*
X0089600Y0018235D03*
X0109600Y0018235D03*
D30*
X0111100Y0018735D01*
X0105388Y0017735D01*
X0099600Y0024114D02*
X0099600Y0028985D01*
X0084614Y0028985D01*
X0083907Y0029278D02*
X0082300Y0030885D01*
X0082300Y0036340D01*
X0082341Y0036439D02*
X0082900Y0035880D01*
X0082300Y0036340D02*
X0082302Y0036362D01*
X0082307Y0036383D01*
X0082315Y0036404D01*
X0082327Y0036422D01*
X0082341Y0036439D01*
X0083907Y0029278D02*
X0083951Y0029236D01*
X0083997Y0029198D01*
X0084046Y0029162D01*
X0084097Y0029129D01*
X0084149Y0029100D01*
X0084204Y0029073D01*
X0084259Y0029050D01*
X0084316Y0029030D01*
X0084375Y0029014D01*
X0084434Y0029001D01*
X0084493Y0028992D01*
X0084554Y0028987D01*
X0084614Y0028985D01*
X0089600Y0018235D02*
X0092100Y0018735D01*
X0093812Y0017735D01*
X0098600Y0028985D02*
X0099600Y0028985D01*
X0113837Y0030248D02*
X0118900Y0025185D01*
X0121900Y0025185D01*
X0129160Y0025185D01*
X0113837Y0030248D02*
X0113837Y0036439D01*
X0145900Y0130485D02*
X0146000Y0130585D01*
X0145900Y0130485D01*
X0146000Y0130585D02*
X0148818Y0133403D01*
X0148818Y0138356D01*
X0151017Y0140555D01*
X0151017Y0147568D01*
X0151984Y0160902D02*
X0148900Y0160902D01*
X0148617Y0161185D01*
X0120900Y0161185D01*
X0121160Y0161445D01*
X0121160Y0167186D01*
X0121698Y0167724D01*
X0128551Y0167724D01*
X0121160Y0167186D02*
X0121160Y0168926D01*
X0121160Y0174185D01*
X0121160Y0177233D01*
X0115293Y0183100D01*
X0114585Y0183393D02*
X0086213Y0183393D01*
X0114585Y0183393D02*
X0114645Y0183391D01*
X0114706Y0183386D01*
X0114765Y0183377D01*
X0114824Y0183364D01*
X0114883Y0183348D01*
X0114940Y0183328D01*
X0114995Y0183305D01*
X0115050Y0183278D01*
X0115102Y0183249D01*
X0115153Y0183216D01*
X0115202Y0183180D01*
X0115248Y0183142D01*
X0115292Y0183100D01*
X0121034Y0179193D02*
X0121160Y0179067D01*
X0121160Y0177233D01*
X0121160Y0189304D02*
X0121160Y0194445D01*
X0121900Y0195185D01*
X0136640Y0195185D01*
X0136900Y0193926D01*
X0148900Y0193926D01*
X0149900Y0192926D01*
X0154160Y0192926D01*
X0159900Y0187185D01*
X0159900Y0182185D01*
X0169900Y0181445D02*
X0169976Y0180451D01*
X0170711Y0181185D01*
X0180900Y0181185D01*
X0184837Y0177248D01*
X0194333Y0177248D01*
X0170160Y0177099D02*
X0170160Y0174304D01*
X0150065Y0174304D01*
X0148900Y0175469D01*
X0157585Y0165926D02*
X0157585Y0165892D01*
X0154498Y0162804D01*
X0153887Y0162804D01*
X0151984Y0160902D01*
X0157585Y0165892D02*
X0159410Y0164067D01*
X0170160Y0164067D01*
X0170160Y0177099D02*
X0169976Y0180451D01*
X0197160Y0151185D02*
X0191449Y0145475D01*
X0191449Y0135500D01*
X0196160Y0150185D02*
X0197160Y0151185D01*
X0093506Y0138701D02*
X0088570Y0138701D01*
X0087863Y0138408D02*
X0085640Y0136185D01*
X0087863Y0138408D02*
X0087907Y0138450D01*
X0087953Y0138488D01*
X0088002Y0138524D01*
X0088053Y0138557D01*
X0088105Y0138586D01*
X0088160Y0138613D01*
X0088215Y0138636D01*
X0088272Y0138656D01*
X0088331Y0138672D01*
X0088390Y0138685D01*
X0088449Y0138694D01*
X0088510Y0138699D01*
X0088570Y0138701D01*
D31*
X0087517Y0140628D02*
X0087697Y0140808D01*
X0089256Y0140808D01*
X0089256Y0145126D01*
X0090135Y0146004D01*
X0096878Y0146004D01*
X0096963Y0145919D01*
X0100064Y0145919D01*
X0102100Y0147955D01*
X0102100Y0170816D01*
X0097922Y0174994D01*
X0092635Y0174994D01*
X0092635Y0172339D01*
X0092558Y0172262D01*
X0092635Y0171976D01*
X0092635Y0170795D01*
X0086214Y0170795D01*
X0086214Y0170795D01*
X0092635Y0170795D01*
X0092635Y0169613D01*
X0092533Y0169231D01*
X0092335Y0168889D01*
X0092056Y0168610D01*
X0091714Y0168413D01*
X0091332Y0168310D01*
X0086214Y0168310D01*
X0086214Y0170795D01*
X0086213Y0170795D01*
X0086213Y0168310D01*
X0081095Y0168310D01*
X0080713Y0168413D01*
X0080643Y0168453D01*
X0080643Y0167583D01*
X0079992Y0166013D01*
X0078791Y0164811D01*
X0077221Y0164161D01*
X0075521Y0164161D01*
X0073951Y0164811D01*
X0072750Y0166013D01*
X0072099Y0167583D01*
X0072099Y0169282D01*
X0072750Y0170852D01*
X0073951Y0172054D01*
X0075521Y0172704D01*
X0077221Y0172704D01*
X0078791Y0172054D01*
X0079792Y0171052D01*
X0079792Y0171976D01*
X0079869Y0172262D01*
X0079792Y0172339D01*
X0079792Y0183136D01*
X0078791Y0182134D01*
X0077221Y0181484D01*
X0075521Y0181484D01*
X0073951Y0182134D01*
X0072750Y0183336D01*
X0072099Y0184906D01*
X0072099Y0186605D01*
X0072750Y0188175D01*
X0073951Y0189377D01*
X0075521Y0190027D01*
X0077221Y0190027D01*
X0078791Y0189377D01*
X0079992Y0188175D01*
X0080643Y0186605D01*
X0080643Y0185849D01*
X0080671Y0185877D01*
X0091756Y0185877D01*
X0091940Y0185693D01*
X0115538Y0185693D01*
X0115748Y0185484D01*
X0115949Y0185400D01*
X0116245Y0185400D01*
X0116455Y0185191D01*
X0116455Y0185191D01*
X0116919Y0184727D01*
X0117593Y0184053D01*
X0117593Y0184053D01*
X0119086Y0182559D01*
X0119456Y0182929D01*
X0122864Y0182929D01*
X0123066Y0182727D01*
X0123238Y0182827D01*
X0123620Y0182929D01*
X0124859Y0182929D01*
X0124859Y0179108D01*
X0124941Y0179108D01*
X0124941Y0182929D01*
X0126180Y0182929D01*
X0126562Y0182827D01*
X0126734Y0182727D01*
X0126936Y0182929D01*
X0130344Y0182929D01*
X0131223Y0182050D01*
X0131223Y0181185D01*
X0131888Y0181185D01*
X0131888Y0181775D01*
X0132767Y0182654D01*
X0133082Y0182654D01*
X0133026Y0182686D01*
X0132747Y0182965D01*
X0132549Y0183307D01*
X0132447Y0183689D01*
X0132447Y0185945D01*
X0136400Y0185945D01*
X0136400Y0186945D01*
X0132447Y0186945D01*
X0132447Y0189202D01*
X0132549Y0189583D01*
X0132747Y0189925D01*
X0133026Y0190205D01*
X0133175Y0190290D01*
X0132640Y0190825D01*
X0132640Y0193078D01*
X0130432Y0193078D01*
X0131223Y0192287D01*
X0131223Y0186320D01*
X0130344Y0185442D01*
X0126936Y0185442D01*
X0126057Y0186320D01*
X0126057Y0192287D01*
X0126848Y0193078D01*
X0123267Y0193078D01*
X0123267Y0192490D01*
X0123550Y0192208D01*
X0123550Y0186400D01*
X0122784Y0185635D01*
X0119536Y0185635D01*
X0118770Y0186400D01*
X0118770Y0192208D01*
X0119053Y0192490D01*
X0119053Y0195318D01*
X0119793Y0196058D01*
X0121027Y0197292D01*
X0132907Y0197292D01*
X0133406Y0197792D01*
X0140394Y0197792D01*
X0141160Y0197026D01*
X0141160Y0196033D01*
X0145647Y0196033D01*
X0146406Y0196792D01*
X0153394Y0196792D01*
X0154160Y0196026D01*
X0154160Y0195033D01*
X0155033Y0195033D01*
X0159792Y0190274D01*
X0160514Y0190274D01*
X0161649Y0189803D01*
X0162518Y0188935D01*
X0162988Y0187800D01*
X0162988Y0186571D01*
X0162518Y0185436D01*
X0162007Y0184925D01*
X0162007Y0184446D01*
X0162518Y0183935D01*
X0162988Y0182800D01*
X0162988Y0181571D01*
X0162518Y0180436D01*
X0161649Y0179567D01*
X0160514Y0179097D01*
X0159286Y0179097D01*
X0158151Y0179567D01*
X0157282Y0180436D01*
X0156812Y0181571D01*
X0156812Y0182800D01*
X0157282Y0183935D01*
X0157793Y0184446D01*
X0157793Y0184925D01*
X0157282Y0185436D01*
X0156812Y0186571D01*
X0156812Y0187294D01*
X0154160Y0189946D01*
X0154160Y0189825D01*
X0153625Y0189290D01*
X0153774Y0189205D01*
X0154053Y0188925D01*
X0154251Y0188583D01*
X0154353Y0188202D01*
X0154353Y0185945D01*
X0150400Y0185945D01*
X0150400Y0184945D01*
X0150400Y0181386D01*
X0153050Y0181386D01*
X0153432Y0181488D01*
X0153774Y0181686D01*
X0154053Y0181965D01*
X0154251Y0182307D01*
X0154353Y0182689D01*
X0154353Y0184945D01*
X0150400Y0184945D01*
X0149400Y0184945D01*
X0149400Y0181386D01*
X0146750Y0181386D01*
X0146368Y0181488D01*
X0146026Y0181686D01*
X0145747Y0181965D01*
X0145549Y0182307D01*
X0145447Y0182689D01*
X0145447Y0184945D01*
X0149400Y0184945D01*
X0149400Y0185945D01*
X0145447Y0185945D01*
X0145447Y0188202D01*
X0145549Y0188583D01*
X0145747Y0188925D01*
X0146026Y0189205D01*
X0146175Y0189290D01*
X0145640Y0189825D01*
X0145640Y0191818D01*
X0141160Y0191818D01*
X0141160Y0190825D01*
X0140625Y0190290D01*
X0140774Y0190205D01*
X0141053Y0189925D01*
X0141251Y0189583D01*
X0141353Y0189202D01*
X0141353Y0186945D01*
X0137400Y0186945D01*
X0137400Y0185945D01*
X0141353Y0185945D01*
X0141353Y0183689D01*
X0141251Y0183307D01*
X0141053Y0182965D01*
X0140774Y0182686D01*
X0140718Y0182654D01*
X0145033Y0182654D01*
X0145912Y0181775D01*
X0145912Y0179725D01*
X0152277Y0179725D01*
X0153156Y0178846D01*
X0153156Y0176604D01*
X0167577Y0176604D01*
X0167577Y0177287D01*
X0167676Y0177386D01*
X0166326Y0177386D01*
X0165447Y0178265D01*
X0165447Y0184626D01*
X0166007Y0185185D01*
X0165747Y0185445D01*
X0165549Y0185788D01*
X0165447Y0186169D01*
X0165447Y0188426D01*
X0169400Y0188426D01*
X0169400Y0189426D01*
X0169400Y0192985D01*
X0166750Y0192985D01*
X0166368Y0192882D01*
X0166026Y0192685D01*
X0165747Y0192406D01*
X0165549Y0192064D01*
X0165447Y0191682D01*
X0165447Y0189426D01*
X0169400Y0189426D01*
X0170400Y0189426D01*
X0170400Y0192985D01*
X0173050Y0192985D01*
X0173432Y0192882D01*
X0173774Y0192685D01*
X0174053Y0192406D01*
X0174251Y0192064D01*
X0174353Y0191682D01*
X0174353Y0189426D01*
X0170400Y0189426D01*
X0170400Y0188426D01*
X0174353Y0188426D01*
X0174353Y0186169D01*
X0174251Y0185788D01*
X0174053Y0185445D01*
X0173793Y0185185D01*
X0174353Y0184626D01*
X0174353Y0183485D01*
X0181853Y0183485D01*
X0183200Y0182138D01*
X0184639Y0180699D01*
X0184657Y0180717D01*
X0204010Y0180717D01*
X0204888Y0179838D01*
X0204888Y0174659D01*
X0204010Y0173780D01*
X0184657Y0173780D01*
X0183778Y0174659D01*
X0183778Y0175055D01*
X0179947Y0178885D01*
X0174353Y0178885D01*
X0174353Y0178265D01*
X0174254Y0178166D01*
X0175180Y0178166D01*
X0175562Y0178064D01*
X0175734Y0177964D01*
X0175936Y0178166D01*
X0179344Y0178166D01*
X0180223Y0177287D01*
X0180223Y0176304D01*
X0181610Y0176304D01*
X0188728Y0169185D01*
X0189900Y0168014D01*
X0189900Y0166014D01*
X0191628Y0164286D01*
X0191979Y0164638D01*
X0198340Y0164638D01*
X0198900Y0164078D01*
X0199460Y0164638D01*
X0205821Y0164638D01*
X0206699Y0163759D01*
X0206699Y0162185D01*
X0209872Y0162185D01*
X0209872Y0162382D01*
X0210641Y0163150D01*
X0207491Y0163150D01*
X0206613Y0164029D01*
X0206613Y0171571D01*
X0207491Y0172449D01*
X0222120Y0172449D01*
X0222998Y0171571D01*
X0222998Y0164029D01*
X0222120Y0163150D01*
X0221159Y0163150D01*
X0221928Y0162382D01*
X0221928Y0157989D01*
X0221049Y0157111D01*
X0216657Y0157111D01*
X0215900Y0157867D01*
X0215143Y0157111D01*
X0210751Y0157111D01*
X0209872Y0157989D01*
X0209872Y0158185D01*
X0206699Y0158185D01*
X0206699Y0156611D01*
X0205821Y0155733D01*
X0199460Y0155733D01*
X0198900Y0156292D01*
X0198340Y0155733D01*
X0191979Y0155733D01*
X0191101Y0156611D01*
X0191101Y0159156D01*
X0190900Y0159357D01*
X0185900Y0164357D01*
X0185900Y0166357D01*
X0180223Y0172034D01*
X0180223Y0171320D01*
X0179344Y0170442D01*
X0175936Y0170442D01*
X0175734Y0170644D01*
X0175562Y0170544D01*
X0175180Y0170442D01*
X0173941Y0170442D01*
X0173941Y0174262D01*
X0173859Y0174262D01*
X0173859Y0170442D01*
X0172620Y0170442D01*
X0172238Y0170544D01*
X0172066Y0170644D01*
X0171864Y0170442D01*
X0168456Y0170442D01*
X0167577Y0171320D01*
X0167577Y0172004D01*
X0153068Y0172004D01*
X0152277Y0171213D01*
X0145523Y0171213D01*
X0144644Y0172092D01*
X0144644Y0175717D01*
X0144246Y0175717D01*
X0144246Y0174703D01*
X0143075Y0173532D01*
X0143075Y0173532D01*
X0142900Y0173357D01*
X0142900Y0173357D01*
X0141728Y0172185D01*
X0123460Y0172185D01*
X0123460Y0170024D01*
X0124492Y0170024D01*
X0124492Y0171298D01*
X0125371Y0172176D01*
X0131732Y0172176D01*
X0132291Y0171617D01*
X0132551Y0171877D01*
X0132893Y0172074D01*
X0133275Y0172176D01*
X0135531Y0172176D01*
X0135531Y0168224D01*
X0136531Y0168224D01*
X0136531Y0172176D01*
X0138788Y0172176D01*
X0139169Y0172074D01*
X0139512Y0171877D01*
X0139791Y0171597D01*
X0139988Y0171255D01*
X0140090Y0170874D01*
X0140090Y0168224D01*
X0136531Y0168224D01*
X0136531Y0167224D01*
X0140090Y0167224D01*
X0140090Y0164573D01*
X0139988Y0164192D01*
X0139791Y0163850D01*
X0139512Y0163571D01*
X0139364Y0163485D01*
X0144644Y0163485D01*
X0144644Y0164279D01*
X0145523Y0165158D01*
X0152277Y0165158D01*
X0152632Y0164803D01*
X0152934Y0165104D01*
X0153132Y0165104D01*
X0153132Y0169106D01*
X0154011Y0169985D01*
X0161159Y0169985D01*
X0162038Y0169106D01*
X0162038Y0166367D01*
X0167577Y0166367D01*
X0167577Y0167050D01*
X0168456Y0167929D01*
X0171864Y0167929D01*
X0172743Y0167050D01*
X0172743Y0161083D01*
X0171864Y0160205D01*
X0168456Y0160205D01*
X0167577Y0161083D01*
X0167577Y0161767D01*
X0161830Y0161767D01*
X0161936Y0161583D01*
X0162038Y0161202D01*
X0162038Y0158945D01*
X0158085Y0158945D01*
X0158085Y0157945D01*
X0158085Y0154386D01*
X0160735Y0154386D01*
X0161117Y0154488D01*
X0161459Y0154686D01*
X0161738Y0154965D01*
X0161936Y0155307D01*
X0162038Y0155689D01*
X0162038Y0157945D01*
X0158085Y0157945D01*
X0157085Y0157945D01*
X0157085Y0154386D01*
X0154435Y0154386D01*
X0154053Y0154488D01*
X0153711Y0154686D01*
X0153432Y0154965D01*
X0153235Y0155307D01*
X0153132Y0155689D01*
X0153132Y0157501D01*
X0152277Y0156646D01*
X0145523Y0156646D01*
X0144644Y0157525D01*
X0144644Y0158885D01*
X0123644Y0158885D01*
X0122920Y0158162D01*
X0121609Y0157618D01*
X0120190Y0157618D01*
X0118879Y0158162D01*
X0117876Y0159165D01*
X0117333Y0160476D01*
X0117333Y0161895D01*
X0117876Y0163206D01*
X0118860Y0164190D01*
X0118860Y0167736D01*
X0118800Y0167796D01*
X0118800Y0169536D01*
X0118860Y0169595D01*
X0118860Y0175801D01*
X0118577Y0176083D01*
X0118577Y0176563D01*
X0114047Y0181093D01*
X0101862Y0181093D01*
X0102135Y0180820D01*
X0102135Y0180820D01*
X0107870Y0175085D01*
X0107870Y0175085D01*
X0109100Y0173855D01*
X0109100Y0145630D01*
X0108921Y0145451D01*
X0108807Y0145176D01*
X0108807Y0144923D01*
X0108105Y0144220D01*
X0107577Y0143693D01*
X0107577Y0143693D01*
X0104300Y0140416D01*
X0103070Y0139185D01*
X0097563Y0139185D01*
X0097563Y0137563D01*
X0097654Y0137406D01*
X0097756Y0137025D01*
X0097756Y0136142D01*
X0093506Y0136142D01*
X0093506Y0136142D01*
X0097756Y0136142D01*
X0097756Y0135260D01*
X0097678Y0134968D01*
X0097756Y0134889D01*
X0097756Y0133285D01*
X0100130Y0133285D01*
X0101619Y0134774D01*
X0101619Y0135738D01*
X0102118Y0136944D01*
X0103041Y0137867D01*
X0104247Y0138366D01*
X0105553Y0138366D01*
X0106759Y0137867D01*
X0107682Y0136944D01*
X0108181Y0135738D01*
X0108181Y0134433D01*
X0108084Y0134197D01*
X0109900Y0136014D01*
X0109900Y0142842D01*
X0111072Y0144014D01*
X0118872Y0151814D01*
X0118872Y0151814D01*
X0120043Y0152985D01*
X0124872Y0152985D01*
X0124872Y0153182D01*
X0125751Y0154060D01*
X0130143Y0154060D01*
X0130900Y0153304D01*
X0131657Y0154060D01*
X0136049Y0154060D01*
X0136928Y0153182D01*
X0136928Y0153085D01*
X0140990Y0153085D01*
X0142054Y0152021D01*
X0146717Y0152021D01*
X0147413Y0151325D01*
X0147917Y0151828D01*
X0154118Y0151828D01*
X0154883Y0151062D01*
X0154883Y0144074D01*
X0154118Y0143308D01*
X0153124Y0143308D01*
X0153124Y0139682D01*
X0152684Y0139242D01*
X0152684Y0134861D01*
X0151918Y0134096D01*
X0150925Y0134096D01*
X0150925Y0132530D01*
X0149088Y0130694D01*
X0149088Y0129971D01*
X0148618Y0128836D01*
X0147749Y0127967D01*
X0146621Y0127500D01*
X0152441Y0127500D01*
X0152661Y0128031D01*
X0153918Y0129288D01*
X0154349Y0129467D01*
X0154349Y0138510D01*
X0154172Y0138687D01*
X0154172Y0140427D01*
X0155402Y0141657D01*
X0157030Y0143285D01*
X0169770Y0143285D01*
X0171000Y0142055D01*
X0173549Y0139506D01*
X0173549Y0139467D01*
X0173980Y0139288D01*
X0175237Y0138031D01*
X0175918Y0136389D01*
X0175918Y0134611D01*
X0175237Y0132969D01*
X0173980Y0131712D01*
X0172338Y0131031D01*
X0170560Y0131031D01*
X0168918Y0131712D01*
X0167661Y0132969D01*
X0166981Y0134611D01*
X0166981Y0136389D01*
X0167661Y0138031D01*
X0168373Y0138743D01*
X0168030Y0139085D01*
X0164183Y0139085D01*
X0165237Y0138031D01*
X0165918Y0136389D01*
X0165918Y0134611D01*
X0165237Y0132969D01*
X0163980Y0131712D01*
X0163900Y0131679D01*
X0163900Y0121357D01*
X0162728Y0120185D01*
X0161683Y0119140D01*
X0160512Y0117969D01*
X0160263Y0117969D01*
X0160457Y0117500D01*
X0170386Y0117500D01*
X0179449Y0126563D01*
X0179449Y0131492D01*
X0178918Y0131712D01*
X0177661Y0132969D01*
X0176981Y0134611D01*
X0176981Y0136389D01*
X0177661Y0138031D01*
X0178918Y0139288D01*
X0180560Y0139968D01*
X0182338Y0139968D01*
X0183980Y0139288D01*
X0185237Y0138031D01*
X0185918Y0136389D01*
X0185918Y0134611D01*
X0185237Y0132969D01*
X0183980Y0131712D01*
X0183449Y0131492D01*
X0183449Y0124906D01*
X0172043Y0113500D01*
X0160457Y0113500D01*
X0160237Y0112969D01*
X0158980Y0111712D01*
X0157338Y0111031D01*
X0155560Y0111031D01*
X0153918Y0111712D01*
X0152661Y0112969D01*
X0152441Y0113500D01*
X0136043Y0113500D01*
X0131095Y0108552D01*
X0125850Y0108552D01*
X0125665Y0108367D01*
X0118922Y0108367D01*
X0118044Y0109245D01*
X0118044Y0124653D01*
X0118122Y0124731D01*
X0118044Y0125023D01*
X0118044Y0125906D01*
X0122294Y0125906D01*
X0126544Y0125906D01*
X0126544Y0126788D01*
X0126465Y0127080D01*
X0126544Y0127159D01*
X0126544Y0143511D01*
X0130343Y0143511D01*
X0131100Y0144267D01*
X0131857Y0143511D01*
X0131953Y0143511D01*
X0131953Y0140363D01*
X0134900Y0137416D01*
X0136130Y0136185D01*
X0137278Y0136185D01*
X0137278Y0134782D01*
X0138157Y0133903D01*
X0144518Y0133903D01*
X0145214Y0134599D01*
X0145717Y0134096D01*
X0146531Y0134096D01*
X0146108Y0133674D01*
X0145386Y0133674D01*
X0144251Y0133203D01*
X0143382Y0132335D01*
X0142912Y0131200D01*
X0142912Y0129971D01*
X0143382Y0128836D01*
X0144251Y0127967D01*
X0145379Y0127500D01*
X0133385Y0127500D01*
X0132214Y0126328D01*
X0128392Y0122507D01*
X0126544Y0122507D01*
X0126544Y0124653D01*
X0126465Y0124731D01*
X0126544Y0125023D01*
X0126544Y0125906D01*
X0122294Y0125906D01*
X0122294Y0125906D01*
X0122294Y0125906D01*
X0118044Y0125906D01*
X0118044Y0126788D01*
X0118122Y0127080D01*
X0118044Y0127159D01*
X0118044Y0142501D01*
X0115900Y0140357D01*
X0115900Y0133357D01*
X0114728Y0132185D01*
X0114728Y0132185D01*
X0104900Y0122357D01*
X0104900Y0122357D01*
X0103728Y0121185D01*
X0097756Y0121185D01*
X0097756Y0119481D01*
X0097678Y0119403D01*
X0097756Y0119111D01*
X0097756Y0118229D01*
X0093506Y0118229D01*
X0093506Y0118229D01*
X0089256Y0118229D01*
X0089256Y0119111D01*
X0089335Y0119403D01*
X0089256Y0119481D01*
X0089256Y0127212D01*
X0089335Y0127290D01*
X0089256Y0127582D01*
X0089256Y0128465D01*
X0093506Y0128465D01*
X0093506Y0128465D01*
X0089256Y0128465D01*
X0089256Y0128924D01*
X0085700Y0128924D01*
X0086550Y0128074D01*
X0086550Y0121320D01*
X0085671Y0120441D01*
X0078129Y0120441D01*
X0077250Y0121320D01*
X0077250Y0128074D01*
X0078129Y0128953D01*
X0079800Y0128953D01*
X0079800Y0129055D01*
X0081030Y0130285D01*
X0082639Y0131894D01*
X0082670Y0131926D01*
X0082540Y0131926D01*
X0082005Y0132460D01*
X0081919Y0132312D01*
X0081640Y0132032D01*
X0081298Y0131835D01*
X0080916Y0131733D01*
X0078660Y0131733D01*
X0078660Y0135685D01*
X0077660Y0135685D01*
X0077660Y0131733D01*
X0075403Y0131733D01*
X0075022Y0131835D01*
X0074680Y0132032D01*
X0074400Y0132312D01*
X0074203Y0132654D01*
X0074101Y0133035D01*
X0074101Y0135685D01*
X0077660Y0135685D01*
X0077660Y0136685D01*
X0074101Y0136685D01*
X0074101Y0139336D01*
X0074203Y0139717D01*
X0074400Y0140059D01*
X0074680Y0140338D01*
X0075022Y0140536D01*
X0075403Y0140638D01*
X0077660Y0140638D01*
X0077660Y0136685D01*
X0078660Y0136685D01*
X0078660Y0140638D01*
X0080916Y0140638D01*
X0081298Y0140536D01*
X0081640Y0140338D01*
X0081919Y0140059D01*
X0082005Y0139911D01*
X0082540Y0140445D01*
X0086920Y0140445D01*
X0086990Y0140515D01*
X0087245Y0140515D01*
X0087517Y0140628D01*
X0089256Y0140977D02*
X0069060Y0140977D01*
X0069060Y0141976D02*
X0089256Y0141976D01*
X0089256Y0142974D02*
X0069284Y0142974D01*
X0069140Y0142830D02*
X0070194Y0143885D01*
X0070194Y0145943D01*
X0069140Y0146998D01*
X0069060Y0147077D01*
X0069060Y0149626D01*
X0068815Y0149871D01*
X0069060Y0150117D01*
X0069060Y0152742D01*
X0068006Y0153797D01*
X0066514Y0153797D01*
X0065947Y0153229D01*
X0062544Y0153229D01*
X0061490Y0152175D01*
X0061490Y0150684D01*
X0062302Y0149871D01*
X0062057Y0149626D01*
X0062057Y0146434D01*
X0063112Y0145379D01*
X0063191Y0145379D01*
X0063191Y0145019D01*
X0063580Y0144630D01*
X0063191Y0144242D01*
X0063191Y0142750D01*
X0063437Y0142505D01*
X0063191Y0142260D01*
X0063191Y0140198D01*
X0063112Y0140198D01*
X0062057Y0139144D01*
X0062057Y0136518D01*
X0062870Y0135706D01*
X0062624Y0135461D01*
X0062057Y0134894D01*
X0062057Y0132268D01*
X0063112Y0131214D01*
X0063679Y0130647D01*
X0067438Y0130647D01*
X0068493Y0131701D01*
X0069060Y0132268D01*
X0069060Y0134894D01*
X0068531Y0135422D01*
X0069060Y0135951D01*
X0069060Y0138010D01*
X0068493Y0138577D01*
X0068248Y0138822D01*
X0068493Y0139067D01*
X0069060Y0139634D01*
X0069060Y0142827D01*
X0069057Y0142830D01*
X0069140Y0142830D01*
X0070194Y0143973D02*
X0089256Y0143973D01*
X0089256Y0144971D02*
X0070194Y0144971D01*
X0070168Y0145970D02*
X0090100Y0145970D01*
X0093506Y0141260D02*
X0093431Y0141185D01*
X0097563Y0138980D02*
X0109900Y0138980D01*
X0109900Y0139978D02*
X0103863Y0139978D01*
X0104861Y0140977D02*
X0109900Y0140977D01*
X0109900Y0141976D02*
X0105860Y0141976D01*
X0106858Y0142974D02*
X0110032Y0142974D01*
X0111030Y0143973D02*
X0107857Y0143973D01*
X0108807Y0144971D02*
X0112029Y0144971D01*
X0113027Y0145970D02*
X0109100Y0145970D01*
X0109100Y0146968D02*
X0114026Y0146968D01*
X0115024Y0147967D02*
X0109100Y0147967D01*
X0109100Y0148965D02*
X0116023Y0148965D01*
X0117021Y0149964D02*
X0109100Y0149964D01*
X0109100Y0150962D02*
X0118020Y0150962D01*
X0119018Y0151961D02*
X0109100Y0151961D01*
X0109100Y0152959D02*
X0120017Y0152959D01*
X0120872Y0150985D02*
X0127947Y0150985D01*
X0125649Y0153958D02*
X0109100Y0153958D01*
X0109100Y0154956D02*
X0153441Y0154956D01*
X0153132Y0155955D02*
X0109100Y0155955D01*
X0109100Y0156953D02*
X0145216Y0156953D01*
X0144644Y0157952D02*
X0122414Y0157952D01*
X0119386Y0157952D02*
X0109100Y0157952D01*
X0109100Y0158950D02*
X0118091Y0158950D01*
X0117551Y0159949D02*
X0109100Y0159949D01*
X0109100Y0160947D02*
X0117333Y0160947D01*
X0117354Y0161946D02*
X0109100Y0161946D01*
X0109100Y0162944D02*
X0117768Y0162944D01*
X0118613Y0163943D02*
X0109100Y0163943D01*
X0109100Y0164941D02*
X0118860Y0164941D01*
X0118860Y0165940D02*
X0109100Y0165940D01*
X0109100Y0166938D02*
X0118860Y0166938D01*
X0118800Y0167937D02*
X0109100Y0167937D01*
X0109100Y0168935D02*
X0118800Y0168935D01*
X0118860Y0169934D02*
X0109100Y0169934D01*
X0109100Y0170932D02*
X0118860Y0170932D01*
X0118860Y0171931D02*
X0109100Y0171931D01*
X0109100Y0172929D02*
X0118860Y0172929D01*
X0118860Y0173928D02*
X0109027Y0173928D01*
X0108029Y0174926D02*
X0118860Y0174926D01*
X0118736Y0175925D02*
X0107030Y0175925D01*
X0106032Y0176923D02*
X0118217Y0176923D01*
X0117218Y0177922D02*
X0105033Y0177922D01*
X0104035Y0178920D02*
X0116220Y0178920D01*
X0115221Y0179919D02*
X0103036Y0179919D01*
X0102038Y0180917D02*
X0114223Y0180917D01*
X0117732Y0183913D02*
X0132447Y0183913D01*
X0132447Y0184911D02*
X0116734Y0184911D01*
X0119260Y0185910D02*
X0080643Y0185910D01*
X0080517Y0186909D02*
X0118770Y0186909D01*
X0118770Y0187907D02*
X0080103Y0187907D01*
X0079262Y0188906D02*
X0118770Y0188906D01*
X0118770Y0189904D02*
X0092287Y0189904D01*
X0092635Y0190252D02*
X0092635Y0198297D01*
X0206613Y0198297D01*
X0206613Y0190800D01*
X0207491Y0189922D01*
X0222120Y0189922D01*
X0222998Y0190800D01*
X0222998Y0198297D01*
X0225974Y0198297D01*
X0225974Y0008232D01*
X0167531Y0007897D01*
X0167531Y0007897D01*
X0106437Y0007547D01*
X0093827Y0008861D01*
X0093998Y0009156D01*
X0094100Y0009538D01*
X0094100Y0017235D01*
X0094312Y0017235D01*
X0094312Y0011905D01*
X0095662Y0011905D01*
X0096145Y0012034D01*
X0096578Y0012284D01*
X0096932Y0012638D01*
X0097182Y0013071D01*
X0097312Y0013555D01*
X0097312Y0013735D01*
X0101888Y0013735D01*
X0101888Y0013555D01*
X0102018Y0013071D01*
X0102268Y0012638D01*
X0102622Y0012284D01*
X0103055Y0012034D01*
X0103538Y0011905D01*
X0104888Y0011905D01*
X0104888Y0017235D01*
X0105100Y0017235D01*
X0105100Y0009538D01*
X0105202Y0009156D01*
X0105400Y0008814D01*
X0105679Y0008535D01*
X0106021Y0008338D01*
X0106403Y0008235D01*
X0109100Y0008235D01*
X0109100Y0017735D01*
X0110100Y0017735D01*
X0110100Y0008235D01*
X0112797Y0008235D01*
X0113179Y0008338D01*
X0113521Y0008535D01*
X0113800Y0008814D01*
X0113998Y0009156D01*
X0114100Y0009538D01*
X0114100Y0017735D01*
X0110100Y0017735D01*
X0110100Y0018735D01*
X0114100Y0018735D01*
X0114100Y0026933D01*
X0114073Y0027032D01*
X0116793Y0024313D01*
X0118027Y0023078D01*
X0119235Y0023078D01*
X0119989Y0022325D01*
X0121229Y0021811D01*
X0122571Y0021811D01*
X0123811Y0022325D01*
X0124564Y0023078D01*
X0125294Y0023078D01*
X0125294Y0021691D01*
X0126059Y0020926D01*
X0132260Y0020926D01*
X0132795Y0021460D01*
X0132881Y0021312D01*
X0133160Y0021032D01*
X0133502Y0020835D01*
X0133884Y0020733D01*
X0136140Y0020733D01*
X0136140Y0024685D01*
X0137140Y0024685D01*
X0137140Y0020733D01*
X0139397Y0020733D01*
X0139778Y0020835D01*
X0140120Y0021032D01*
X0140399Y0021312D01*
X0140597Y0021654D01*
X0140699Y0022035D01*
X0140699Y0024685D01*
X0137140Y0024685D01*
X0137140Y0025685D01*
X0140699Y0025685D01*
X0140699Y0028336D01*
X0140597Y0028717D01*
X0140437Y0028994D01*
X0141409Y0028994D01*
X0142287Y0029873D01*
X0143459Y0031045D01*
X0143459Y0035682D01*
X0151277Y0043500D01*
X0152441Y0043500D01*
X0152661Y0042969D01*
X0153918Y0041712D01*
X0155560Y0041031D01*
X0157338Y0041031D01*
X0158980Y0041712D01*
X0160237Y0042969D01*
X0160918Y0044611D01*
X0160918Y0046389D01*
X0160237Y0048031D01*
X0159516Y0048752D01*
X0180368Y0048752D01*
X0212201Y0016920D01*
X0211981Y0016389D01*
X0211981Y0014611D01*
X0212661Y0012969D01*
X0213918Y0011712D01*
X0215560Y0011031D01*
X0217338Y0011031D01*
X0218980Y0011712D01*
X0220237Y0012969D01*
X0220918Y0014611D01*
X0220918Y0016389D01*
X0220237Y0018031D01*
X0218980Y0019288D01*
X0217338Y0019968D01*
X0215560Y0019968D01*
X0215098Y0019777D01*
X0213448Y0021485D01*
X0213289Y0021488D01*
X0183197Y0051581D01*
X0182025Y0052752D01*
X0160021Y0052752D01*
X0160237Y0052969D01*
X0160918Y0054611D01*
X0160918Y0056389D01*
X0160237Y0058031D01*
X0160083Y0058185D01*
X0180935Y0058185D01*
X0212201Y0026920D01*
X0211981Y0026389D01*
X0211981Y0024611D01*
X0212661Y0022969D01*
X0213918Y0021712D01*
X0215560Y0021031D01*
X0217338Y0021031D01*
X0218980Y0021712D01*
X0220237Y0022969D01*
X0220918Y0024611D01*
X0220918Y0026389D01*
X0220237Y0028031D01*
X0218980Y0029288D01*
X0217338Y0029968D01*
X0215560Y0029968D01*
X0215029Y0029748D01*
X0183764Y0061014D01*
X0182592Y0062185D01*
X0159454Y0062185D01*
X0160237Y0062969D01*
X0160918Y0064611D01*
X0160918Y0066389D01*
X0160237Y0068031D01*
X0160083Y0068185D01*
X0180935Y0068185D01*
X0212201Y0036920D01*
X0211981Y0036389D01*
X0211981Y0034611D01*
X0212661Y0032969D01*
X0213918Y0031712D01*
X0215560Y0031031D01*
X0217338Y0031031D01*
X0218980Y0031712D01*
X0220237Y0032969D01*
X0220918Y0034611D01*
X0220918Y0036389D01*
X0220237Y0038031D01*
X0218980Y0039288D01*
X0217338Y0039968D01*
X0215560Y0039968D01*
X0215029Y0039748D01*
X0182592Y0072185D01*
X0159454Y0072185D01*
X0160237Y0072969D01*
X0160918Y0074611D01*
X0160918Y0076389D01*
X0160237Y0078031D01*
X0158980Y0079288D01*
X0157338Y0079968D01*
X0155560Y0079968D01*
X0153918Y0079288D01*
X0152661Y0078031D01*
X0151981Y0076389D01*
X0151981Y0074611D01*
X0152661Y0072969D01*
X0153444Y0072185D01*
X0132728Y0072185D01*
X0131585Y0073329D01*
X0131585Y0094024D01*
X0132706Y0094024D01*
X0133575Y0094892D01*
X0133759Y0094573D01*
X0134038Y0094294D01*
X0134380Y0094097D01*
X0134762Y0093994D01*
X0136959Y0093994D01*
X0136959Y0098931D01*
X0137959Y0098931D01*
X0137959Y0093994D01*
X0140157Y0093994D01*
X0140538Y0094097D01*
X0140880Y0094294D01*
X0141159Y0094573D01*
X0141357Y0094915D01*
X0141459Y0095297D01*
X0141459Y0098931D01*
X0137959Y0098931D01*
X0137959Y0099931D01*
X0141459Y0099931D01*
X0141459Y0103566D01*
X0141357Y0103947D01*
X0141159Y0104289D01*
X0140880Y0104569D01*
X0140538Y0104766D01*
X0140157Y0104868D01*
X0137959Y0104868D01*
X0137959Y0099932D01*
X0136959Y0099932D01*
X0136959Y0104868D01*
X0134762Y0104868D01*
X0134380Y0104766D01*
X0134038Y0104569D01*
X0133759Y0104289D01*
X0133585Y0103989D01*
X0133585Y0104019D01*
X0132706Y0104898D01*
X0126464Y0104898D01*
X0125637Y0104071D01*
X0124832Y0104876D01*
X0118590Y0104876D01*
X0117809Y0104095D01*
X0117006Y0104898D01*
X0110764Y0104898D01*
X0109909Y0104044D01*
X0109084Y0104868D01*
X0102842Y0104868D01*
X0101963Y0103990D01*
X0101963Y0094873D01*
X0102842Y0093994D01*
X0103963Y0093994D01*
X0103963Y0076294D01*
X0130333Y0049924D01*
X0131505Y0048752D01*
X0134688Y0048752D01*
X0134333Y0047895D01*
X0134333Y0046476D01*
X0134876Y0045165D01*
X0135682Y0044359D01*
X0135580Y0041868D01*
X0134338Y0041868D01*
X0133459Y0040990D01*
X0133459Y0034702D01*
X0129721Y0038439D01*
X0125711Y0038439D01*
X0125711Y0040998D01*
X0124832Y0041876D01*
X0118590Y0041876D01*
X0117711Y0040998D01*
X0117711Y0031881D01*
X0118590Y0031002D01*
X0124832Y0031002D01*
X0125711Y0031881D01*
X0125711Y0034439D01*
X0128064Y0034439D01*
X0133163Y0029340D01*
X0133160Y0029338D01*
X0132881Y0029059D01*
X0132795Y0028911D01*
X0132260Y0029445D01*
X0126059Y0029445D01*
X0125294Y0028680D01*
X0125294Y0027292D01*
X0124564Y0027292D01*
X0123811Y0028046D01*
X0122571Y0028559D01*
X0121229Y0028559D01*
X0119989Y0028046D01*
X0119504Y0027561D01*
X0115944Y0031121D01*
X0115944Y0031195D01*
X0116878Y0031195D01*
X0117644Y0031961D01*
X0117644Y0040918D01*
X0116878Y0041683D01*
X0110796Y0041683D01*
X0110030Y0040918D01*
X0110030Y0031961D01*
X0110796Y0031195D01*
X0111730Y0031195D01*
X0111730Y0029376D01*
X0112897Y0028209D01*
X0112797Y0028235D01*
X0110100Y0028235D01*
X0110100Y0018735D01*
X0109100Y0018735D01*
X0109100Y0028235D01*
X0106403Y0028235D01*
X0106021Y0028133D01*
X0105679Y0027936D01*
X0105400Y0027656D01*
X0105202Y0027314D01*
X0105100Y0026933D01*
X0105100Y0018735D01*
X0105888Y0018735D01*
X0105888Y0018235D01*
X0104888Y0018235D01*
X0104888Y0023566D01*
X0103538Y0023566D01*
X0103100Y0023449D01*
X0103100Y0026983D01*
X0103600Y0028190D01*
X0103600Y0029781D01*
X0102991Y0031251D01*
X0101866Y0032376D01*
X0100396Y0032985D01*
X0098804Y0032985D01*
X0097334Y0032376D01*
X0096243Y0031285D01*
X0093607Y0031285D01*
X0093636Y0031302D01*
X0093915Y0031581D01*
X0094113Y0031923D01*
X0094215Y0032305D01*
X0094215Y0035939D01*
X0090715Y0035939D01*
X0090715Y0036939D01*
X0094215Y0036939D01*
X0094215Y0040574D01*
X0094113Y0040955D01*
X0093915Y0041297D01*
X0093636Y0041577D01*
X0093294Y0041774D01*
X0092912Y0041876D01*
X0090715Y0041876D01*
X0090715Y0036939D01*
X0089715Y0036939D01*
X0089715Y0041876D01*
X0087517Y0041876D01*
X0087136Y0041774D01*
X0086794Y0041577D01*
X0086515Y0041297D01*
X0086341Y0040996D01*
X0086341Y0040998D01*
X0085462Y0041876D01*
X0079220Y0041876D01*
X0078341Y0040998D01*
X0078341Y0031881D01*
X0079220Y0031002D01*
X0080000Y0031002D01*
X0080000Y0029933D01*
X0081347Y0028585D01*
X0081607Y0028326D01*
X0081607Y0028326D01*
X0082222Y0027711D01*
X0082954Y0026978D01*
X0083251Y0026978D01*
X0083452Y0026895D01*
X0083662Y0026685D01*
X0085100Y0026685D01*
X0085100Y0018735D01*
X0089100Y0018735D01*
X0089100Y0017735D01*
X0085100Y0017735D01*
X0085100Y0009770D01*
X0075502Y0010771D01*
X0075502Y0012545D01*
X0075525Y0013136D01*
X0075502Y0013161D01*
X0075502Y0013196D01*
X0075083Y0013614D01*
X0074682Y0014049D01*
X0074647Y0014050D01*
X0074623Y0014074D01*
X0074031Y0014074D01*
X0060585Y0014604D01*
X0047307Y0015127D01*
X0047307Y0015790D01*
X0047386Y0016287D01*
X0047307Y0016395D01*
X0047307Y0016529D01*
X0046951Y0016885D01*
X0046656Y0017292D01*
X0046523Y0017313D01*
X0046429Y0017408D01*
X0045925Y0017408D01*
X0013303Y0022570D01*
X0025661Y0024918D01*
X0045994Y0028514D01*
X0046455Y0028496D01*
X0046587Y0028619D01*
X0046764Y0028650D01*
X0047028Y0029028D01*
X0047366Y0029341D01*
X0047373Y0029521D01*
X0047476Y0029668D01*
X0047396Y0030122D01*
X0047413Y0030570D01*
X0058231Y0030982D01*
X0058845Y0031006D01*
X0059471Y0031030D01*
X0059472Y0031030D01*
X0071113Y0031485D01*
X0071820Y0031485D01*
X0071849Y0031514D01*
X0071904Y0031516D01*
X0072526Y0032190D01*
X0072699Y0032363D01*
X0072699Y0032377D01*
X0072747Y0032429D01*
X0072701Y0033620D01*
X0072726Y0059610D01*
X0072724Y0059612D01*
X0072724Y0084796D01*
X0072813Y0085270D01*
X0072724Y0085399D01*
X0072724Y0085557D01*
X0072383Y0085898D01*
X0072111Y0086295D01*
X0071957Y0086324D01*
X0071845Y0086435D01*
X0071363Y0086435D01*
X0064744Y0087677D01*
X0068006Y0087677D01*
X0069060Y0088731D01*
X0069060Y0091924D01*
X0068531Y0092452D01*
X0069060Y0092981D01*
X0069060Y0095607D01*
X0068815Y0095852D01*
X0069060Y0096097D01*
X0069060Y0099290D01*
X0068815Y0099535D01*
X0069060Y0099780D01*
X0069060Y0102316D01*
X0069140Y0102316D01*
X0070194Y0103370D01*
X0070194Y0105429D01*
X0069627Y0105996D01*
X0069060Y0106563D01*
X0069060Y0107410D01*
X0068671Y0107799D01*
X0069060Y0108188D01*
X0069060Y0109679D01*
X0068815Y0109924D01*
X0069060Y0110169D01*
X0069060Y0112795D01*
X0068531Y0113324D01*
X0069060Y0113852D01*
X0069060Y0117045D01*
X0068006Y0118099D01*
X0063112Y0118099D01*
X0062057Y0117045D01*
X0062057Y0115554D01*
X0063112Y0114500D01*
X0063191Y0114500D01*
X0063191Y0113852D01*
X0063720Y0113324D01*
X0063191Y0112795D01*
X0063191Y0110169D01*
X0063720Y0109640D01*
X0063191Y0109112D01*
X0063191Y0102893D01*
X0062544Y0102893D01*
X0061490Y0101839D01*
X0061490Y0100348D01*
X0062544Y0099293D01*
X0063191Y0099293D01*
X0063191Y0096664D01*
X0063720Y0096136D01*
X0063191Y0095607D01*
X0063191Y0093058D01*
X0063112Y0092978D01*
X0062057Y0091924D01*
X0062057Y0088731D01*
X0062735Y0088053D01*
X0052724Y0089930D01*
X0052724Y0198297D01*
X0058139Y0198297D01*
X0058139Y0190252D01*
X0059017Y0189373D01*
X0070103Y0189373D01*
X0070981Y0190252D01*
X0070981Y0198297D01*
X0079792Y0198297D01*
X0079792Y0190252D01*
X0080671Y0189373D01*
X0091756Y0189373D01*
X0092635Y0190252D01*
X0092635Y0190903D02*
X0118770Y0190903D01*
X0118770Y0191901D02*
X0092635Y0191901D01*
X0092635Y0192900D02*
X0119053Y0192900D01*
X0119053Y0193898D02*
X0092635Y0193898D01*
X0092635Y0194897D02*
X0119053Y0194897D01*
X0119630Y0195895D02*
X0092635Y0195895D01*
X0092635Y0196894D02*
X0120628Y0196894D01*
X0123267Y0192900D02*
X0126670Y0192900D01*
X0126057Y0191901D02*
X0123550Y0191901D01*
X0123550Y0190903D02*
X0126057Y0190903D01*
X0126057Y0189904D02*
X0123550Y0189904D01*
X0123550Y0188906D02*
X0126057Y0188906D01*
X0126057Y0187907D02*
X0123550Y0187907D01*
X0123550Y0186909D02*
X0126057Y0186909D01*
X0126468Y0185910D02*
X0123059Y0185910D01*
X0122878Y0182914D02*
X0123565Y0182914D01*
X0124859Y0182914D02*
X0124941Y0182914D01*
X0124941Y0181916D02*
X0124859Y0181916D01*
X0124859Y0180917D02*
X0124941Y0180917D01*
X0124941Y0179919D02*
X0124859Y0179919D01*
X0128640Y0179067D02*
X0128759Y0179185D01*
X0135554Y0179185D01*
X0132029Y0181916D02*
X0131223Y0181916D01*
X0130359Y0182914D02*
X0132798Y0182914D01*
X0132447Y0185910D02*
X0130812Y0185910D01*
X0131223Y0186909D02*
X0136400Y0186909D01*
X0137400Y0186909D02*
X0145447Y0186909D01*
X0145447Y0187907D02*
X0141353Y0187907D01*
X0141353Y0188906D02*
X0145736Y0188906D01*
X0145640Y0189904D02*
X0141065Y0189904D01*
X0141160Y0190903D02*
X0145640Y0190903D01*
X0145447Y0184911D02*
X0141353Y0184911D01*
X0141353Y0183913D02*
X0145447Y0183913D01*
X0145447Y0182914D02*
X0141002Y0182914D01*
X0141353Y0185910D02*
X0149400Y0185910D01*
X0149400Y0184911D02*
X0150400Y0184911D01*
X0150400Y0183913D02*
X0149400Y0183913D01*
X0149400Y0182914D02*
X0150400Y0182914D01*
X0150400Y0181916D02*
X0149400Y0181916D01*
X0154004Y0181916D02*
X0156812Y0181916D01*
X0156859Y0182914D02*
X0154353Y0182914D01*
X0154353Y0183913D02*
X0157273Y0183913D01*
X0157793Y0184911D02*
X0154353Y0184911D01*
X0154353Y0186909D02*
X0156812Y0186909D01*
X0157086Y0185910D02*
X0150400Y0185910D01*
X0154353Y0187907D02*
X0156199Y0187907D01*
X0155200Y0188906D02*
X0154064Y0188906D01*
X0154160Y0189904D02*
X0154201Y0189904D01*
X0158164Y0191901D02*
X0165506Y0191901D01*
X0165447Y0190903D02*
X0159163Y0190903D01*
X0161406Y0189904D02*
X0165447Y0189904D01*
X0165447Y0187907D02*
X0162944Y0187907D01*
X0162988Y0186909D02*
X0165447Y0186909D01*
X0165517Y0185910D02*
X0162714Y0185910D01*
X0162007Y0184911D02*
X0165733Y0184911D01*
X0165447Y0183913D02*
X0162527Y0183913D01*
X0162941Y0182914D02*
X0165447Y0182914D01*
X0165447Y0181916D02*
X0162988Y0181916D01*
X0162717Y0180917D02*
X0165447Y0180917D01*
X0165447Y0179919D02*
X0162001Y0179919D01*
X0165447Y0178920D02*
X0153082Y0178920D01*
X0153156Y0177922D02*
X0165790Y0177922D01*
X0167577Y0176923D02*
X0153156Y0176923D01*
X0152995Y0171931D02*
X0167577Y0171931D01*
X0167965Y0170932D02*
X0140075Y0170932D01*
X0140090Y0169934D02*
X0153960Y0169934D01*
X0153132Y0168935D02*
X0140090Y0168935D01*
X0140090Y0166938D02*
X0153132Y0166938D01*
X0153132Y0165940D02*
X0140090Y0165940D01*
X0140090Y0164941D02*
X0145306Y0164941D01*
X0144644Y0163943D02*
X0139844Y0163943D01*
X0136531Y0167937D02*
X0153132Y0167937D01*
X0152771Y0164941D02*
X0152494Y0164941D01*
X0158085Y0157952D02*
X0175640Y0157952D01*
X0175640Y0157291D02*
X0175626Y0156538D01*
X0174360Y0156538D01*
X0173800Y0155978D01*
X0173540Y0156238D01*
X0173198Y0156436D01*
X0172816Y0156538D01*
X0170560Y0156538D01*
X0170560Y0152585D01*
X0169560Y0152585D01*
X0169560Y0151585D01*
X0170560Y0151585D01*
X0170560Y0147633D01*
X0172816Y0147633D01*
X0173198Y0147735D01*
X0173540Y0147932D01*
X0173800Y0148192D01*
X0174360Y0147633D01*
X0180721Y0147633D01*
X0181599Y0148511D01*
X0181599Y0155659D01*
X0180721Y0156538D01*
X0179640Y0156538D01*
X0179640Y0157253D01*
X0179656Y0158062D01*
X0179640Y0158078D01*
X0179640Y0160501D01*
X0180223Y0161083D01*
X0180223Y0167050D01*
X0179344Y0167929D01*
X0175936Y0167929D01*
X0175057Y0167050D01*
X0175057Y0161083D01*
X0175640Y0160501D01*
X0175640Y0157291D01*
X0175634Y0156953D02*
X0162038Y0156953D01*
X0162038Y0155955D02*
X0166298Y0155955D01*
X0166300Y0155959D02*
X0166103Y0155617D01*
X0166001Y0155236D01*
X0166001Y0152585D01*
X0169560Y0152585D01*
X0169560Y0156538D01*
X0167303Y0156538D01*
X0166922Y0156436D01*
X0166580Y0156238D01*
X0166300Y0155959D01*
X0166001Y0154956D02*
X0161729Y0154956D01*
X0166001Y0153958D02*
X0136151Y0153958D01*
X0131554Y0153958D02*
X0130246Y0153958D01*
X0128147Y0146585D02*
X0119300Y0146585D01*
X0113900Y0141185D01*
X0113900Y0134185D01*
X0102900Y0123185D01*
X0093668Y0123185D01*
X0093506Y0123347D01*
X0093506Y0125906D02*
X0102620Y0125906D01*
X0111900Y0135185D01*
X0111900Y0142014D01*
X0120872Y0150985D01*
X0126544Y0142974D02*
X0131953Y0142974D01*
X0131953Y0141976D02*
X0126544Y0141976D01*
X0126544Y0140977D02*
X0131953Y0140977D01*
X0132337Y0139978D02*
X0126544Y0139978D01*
X0126544Y0138980D02*
X0133336Y0138980D01*
X0134334Y0137981D02*
X0126544Y0137981D01*
X0126544Y0136983D02*
X0135333Y0136983D01*
X0137278Y0135984D02*
X0126544Y0135984D01*
X0126544Y0134986D02*
X0137278Y0134986D01*
X0138072Y0133987D02*
X0126544Y0133987D01*
X0126544Y0132989D02*
X0144036Y0132989D01*
X0144602Y0133987D02*
X0146422Y0133987D01*
X0143239Y0131990D02*
X0126544Y0131990D01*
X0126544Y0130992D02*
X0142912Y0130992D01*
X0142912Y0129993D02*
X0126544Y0129993D01*
X0126544Y0128995D02*
X0143316Y0128995D01*
X0144222Y0127996D02*
X0126544Y0127996D01*
X0126488Y0126998D02*
X0132883Y0126998D01*
X0131885Y0125999D02*
X0126544Y0125999D01*
X0126538Y0125001D02*
X0130886Y0125001D01*
X0129888Y0124002D02*
X0126544Y0124002D01*
X0126544Y0123004D02*
X0128889Y0123004D01*
X0129220Y0120507D02*
X0122575Y0120507D01*
X0122294Y0120788D01*
X0118044Y0121007D02*
X0097756Y0121007D01*
X0097756Y0120008D02*
X0118044Y0120008D01*
X0118044Y0119010D02*
X0097756Y0119010D01*
X0097756Y0118229D02*
X0093506Y0118229D01*
X0089256Y0118229D01*
X0089256Y0117346D01*
X0089359Y0116965D01*
X0089367Y0116949D01*
X0089359Y0116934D01*
X0089256Y0116552D01*
X0089256Y0115670D01*
X0093506Y0115670D01*
X0093506Y0118229D01*
X0093506Y0118229D01*
X0093506Y0118229D01*
X0093506Y0116044D01*
X0093506Y0115670D01*
X0093506Y0115670D01*
X0093506Y0115670D01*
X0089256Y0115670D01*
X0089256Y0114787D01*
X0089335Y0114495D01*
X0089256Y0114417D01*
X0089256Y0109245D01*
X0090135Y0108367D01*
X0096878Y0108367D01*
X0097756Y0109245D01*
X0097756Y0114417D01*
X0097678Y0114495D01*
X0097756Y0114787D01*
X0097756Y0115670D01*
X0097756Y0116552D01*
X0097654Y0116934D01*
X0097645Y0116949D01*
X0097654Y0116965D01*
X0097756Y0117346D01*
X0097756Y0118229D01*
X0097756Y0118011D02*
X0118044Y0118011D01*
X0118044Y0117013D02*
X0097667Y0117013D01*
X0097756Y0116014D02*
X0118044Y0116014D01*
X0118044Y0115016D02*
X0097756Y0115016D01*
X0097756Y0115670D02*
X0093506Y0115670D01*
X0097756Y0115670D01*
X0097756Y0114017D02*
X0118044Y0114017D01*
X0118044Y0113019D02*
X0097756Y0113019D01*
X0097756Y0112020D02*
X0118044Y0112020D01*
X0118044Y0111022D02*
X0097756Y0111022D01*
X0097756Y0110023D02*
X0118044Y0110023D01*
X0118264Y0109025D02*
X0097536Y0109025D01*
X0102005Y0104032D02*
X0086207Y0104032D01*
X0086239Y0103977D02*
X0086041Y0104319D01*
X0085762Y0104598D01*
X0085420Y0104796D01*
X0085038Y0104898D01*
X0082841Y0104898D01*
X0082841Y0099961D01*
X0086341Y0099961D01*
X0086341Y0103595D01*
X0086239Y0103977D01*
X0086341Y0103034D02*
X0101963Y0103034D01*
X0101963Y0102035D02*
X0086341Y0102035D01*
X0086341Y0101037D02*
X0101963Y0101037D01*
X0101963Y0100038D02*
X0086341Y0100038D01*
X0086341Y0098961D02*
X0086341Y0095327D01*
X0086239Y0094945D01*
X0086041Y0094603D01*
X0085762Y0094324D01*
X0085420Y0094126D01*
X0085038Y0094024D01*
X0082841Y0094024D01*
X0082841Y0098961D01*
X0082841Y0099961D01*
X0081841Y0099961D01*
X0081841Y0104898D01*
X0079643Y0104898D01*
X0079262Y0104796D01*
X0078920Y0104598D01*
X0078641Y0104319D01*
X0078443Y0103977D01*
X0078341Y0103595D01*
X0078341Y0099961D01*
X0081841Y0099961D01*
X0081841Y0098961D01*
X0082841Y0098961D01*
X0086341Y0098961D01*
X0086341Y0098041D02*
X0101963Y0098041D01*
X0101963Y0097042D02*
X0086341Y0097042D01*
X0086341Y0096044D02*
X0101963Y0096044D01*
X0101963Y0095045D02*
X0086266Y0095045D01*
X0085124Y0094047D02*
X0102789Y0094047D01*
X0103963Y0093048D02*
X0069060Y0093048D01*
X0069060Y0094047D02*
X0079558Y0094047D01*
X0079643Y0094024D02*
X0081841Y0094024D01*
X0081841Y0098961D01*
X0078341Y0098961D01*
X0078341Y0095327D01*
X0078443Y0094945D01*
X0078641Y0094603D01*
X0078920Y0094324D01*
X0079262Y0094126D01*
X0079643Y0094024D01*
X0078416Y0095045D02*
X0069060Y0095045D01*
X0069007Y0096044D02*
X0078341Y0096044D01*
X0078341Y0097042D02*
X0069060Y0097042D01*
X0069060Y0098041D02*
X0078341Y0098041D01*
X0078341Y0100038D02*
X0069060Y0100038D01*
X0069060Y0099040D02*
X0081841Y0099040D01*
X0081841Y0100038D02*
X0082841Y0100038D01*
X0082841Y0099040D02*
X0101963Y0099040D01*
X0105963Y0099431D02*
X0105963Y0077122D01*
X0132333Y0050752D01*
X0181197Y0050752D01*
X0216449Y0015500D01*
X0212585Y0019500D01*
X0213767Y0021156D02*
X0215261Y0021156D01*
X0214731Y0020157D02*
X0225974Y0020157D01*
X0225974Y0019159D02*
X0219110Y0019159D01*
X0220108Y0018160D02*
X0225974Y0018160D01*
X0225974Y0017162D02*
X0220597Y0017162D01*
X0220918Y0016163D02*
X0225974Y0016163D01*
X0225974Y0015165D02*
X0220918Y0015165D01*
X0220733Y0014166D02*
X0225974Y0014166D01*
X0225974Y0013168D02*
X0220320Y0013168D01*
X0219438Y0012169D02*
X0225974Y0012169D01*
X0225974Y0011171D02*
X0217674Y0011171D01*
X0215225Y0011171D02*
X0207674Y0011171D01*
X0207338Y0011031D02*
X0208980Y0011712D01*
X0210237Y0012969D01*
X0210918Y0014611D01*
X0210918Y0016389D01*
X0210237Y0018031D01*
X0208980Y0019288D01*
X0207338Y0019968D01*
X0205560Y0019968D01*
X0203918Y0019288D01*
X0202661Y0018031D01*
X0201981Y0016389D01*
X0201981Y0014611D01*
X0202661Y0012969D01*
X0203918Y0011712D01*
X0205560Y0011031D01*
X0207338Y0011031D01*
X0205225Y0011171D02*
X0197674Y0011171D01*
X0197338Y0011031D02*
X0198980Y0011712D01*
X0200237Y0012969D01*
X0200918Y0014611D01*
X0200918Y0016389D01*
X0200237Y0018031D01*
X0198980Y0019288D01*
X0197338Y0019968D01*
X0195560Y0019968D01*
X0193918Y0019288D01*
X0192661Y0018031D01*
X0191981Y0016389D01*
X0191981Y0014611D01*
X0192661Y0012969D01*
X0193918Y0011712D01*
X0195560Y0011031D01*
X0197338Y0011031D01*
X0195225Y0011171D02*
X0187585Y0011171D01*
X0187495Y0011142D02*
X0188164Y0011359D01*
X0188791Y0011678D01*
X0189360Y0012092D01*
X0189857Y0012589D01*
X0190271Y0013158D01*
X0190590Y0013785D01*
X0190808Y0014454D01*
X0190897Y0015016D01*
X0186933Y0015016D01*
X0186933Y0011052D01*
X0187495Y0011142D01*
X0186933Y0011171D02*
X0185965Y0011171D01*
X0185965Y0011052D02*
X0185965Y0015016D01*
X0186933Y0015016D01*
X0186933Y0015984D01*
X0185965Y0015984D01*
X0185965Y0015016D01*
X0182002Y0015016D01*
X0182091Y0014454D01*
X0182308Y0013785D01*
X0182627Y0013158D01*
X0183041Y0012589D01*
X0183538Y0012092D01*
X0184107Y0011678D01*
X0184734Y0011359D01*
X0185403Y0011142D01*
X0185965Y0011052D01*
X0185313Y0011171D02*
X0157674Y0011171D01*
X0157338Y0011031D02*
X0158980Y0011712D01*
X0160237Y0012969D01*
X0160918Y0014611D01*
X0160918Y0016389D01*
X0160237Y0018031D01*
X0158980Y0019288D01*
X0157338Y0019968D01*
X0155560Y0019968D01*
X0153918Y0019288D01*
X0152661Y0018031D01*
X0151981Y0016389D01*
X0151981Y0014611D01*
X0152661Y0012969D01*
X0153918Y0011712D01*
X0155560Y0011031D01*
X0157338Y0011031D01*
X0155225Y0011171D02*
X0114100Y0011171D01*
X0114100Y0012169D02*
X0153461Y0012169D01*
X0152579Y0013168D02*
X0114100Y0013168D01*
X0114100Y0014166D02*
X0152165Y0014166D01*
X0151981Y0015165D02*
X0114100Y0015165D01*
X0114100Y0016163D02*
X0151981Y0016163D01*
X0152301Y0017162D02*
X0114100Y0017162D01*
X0114100Y0019159D02*
X0153788Y0019159D01*
X0152790Y0018160D02*
X0110100Y0018160D01*
X0110100Y0017162D02*
X0109100Y0017162D01*
X0109100Y0016163D02*
X0110100Y0016163D01*
X0110100Y0015165D02*
X0109100Y0015165D01*
X0109100Y0014166D02*
X0110100Y0014166D01*
X0110100Y0013168D02*
X0109100Y0013168D01*
X0109100Y0012169D02*
X0110100Y0012169D01*
X0110100Y0011171D02*
X0109100Y0011171D01*
X0109100Y0010172D02*
X0110100Y0010172D01*
X0110100Y0009173D02*
X0109100Y0009173D01*
X0105198Y0009173D02*
X0094002Y0009173D01*
X0094100Y0010172D02*
X0105100Y0010172D01*
X0105100Y0011171D02*
X0094100Y0011171D01*
X0094100Y0012169D02*
X0094312Y0012169D01*
X0094312Y0013168D02*
X0094100Y0013168D01*
X0094100Y0014166D02*
X0094312Y0014166D01*
X0094312Y0015165D02*
X0094100Y0015165D01*
X0094100Y0016163D02*
X0094312Y0016163D01*
X0094312Y0017162D02*
X0094100Y0017162D01*
X0094312Y0018235D02*
X0093312Y0018235D01*
X0093312Y0018735D01*
X0094100Y0018735D01*
X0094100Y0026685D01*
X0096100Y0026685D01*
X0096100Y0023449D01*
X0095662Y0023566D01*
X0094312Y0023566D01*
X0094312Y0018235D01*
X0094312Y0019159D02*
X0094100Y0019159D01*
X0094100Y0020157D02*
X0094312Y0020157D01*
X0094312Y0021156D02*
X0094100Y0021156D01*
X0094100Y0022154D02*
X0094312Y0022154D01*
X0094312Y0023153D02*
X0094100Y0023153D01*
X0094100Y0024151D02*
X0096100Y0024151D01*
X0096100Y0025150D02*
X0094100Y0025150D01*
X0094100Y0026148D02*
X0096100Y0026148D01*
X0097097Y0032139D02*
X0094171Y0032139D01*
X0094215Y0033138D02*
X0110030Y0033138D01*
X0110030Y0034136D02*
X0094215Y0034136D01*
X0094215Y0035135D02*
X0110030Y0035135D01*
X0110030Y0036133D02*
X0090715Y0036133D01*
X0090715Y0037132D02*
X0089715Y0037132D01*
X0089715Y0038130D02*
X0090715Y0038130D01*
X0090715Y0039129D02*
X0089715Y0039129D01*
X0089715Y0040127D02*
X0090715Y0040127D01*
X0090715Y0041126D02*
X0089715Y0041126D01*
X0086416Y0041126D02*
X0086213Y0041126D01*
X0078469Y0041126D02*
X0072708Y0041126D01*
X0072709Y0042124D02*
X0135591Y0042124D01*
X0135632Y0043123D02*
X0072710Y0043123D01*
X0072711Y0044121D02*
X0135673Y0044121D01*
X0134921Y0045120D02*
X0072712Y0045120D01*
X0072713Y0046118D02*
X0134481Y0046118D01*
X0134333Y0047117D02*
X0072714Y0047117D01*
X0072715Y0048115D02*
X0134424Y0048115D01*
X0131143Y0049114D02*
X0072716Y0049114D01*
X0072717Y0050112D02*
X0130145Y0050112D01*
X0129146Y0051111D02*
X0072718Y0051111D01*
X0072719Y0052109D02*
X0128147Y0052109D01*
X0127149Y0053108D02*
X0072720Y0053108D01*
X0072721Y0054107D02*
X0126150Y0054107D01*
X0125152Y0055105D02*
X0072722Y0055105D01*
X0072723Y0056104D02*
X0124153Y0056104D01*
X0123155Y0057102D02*
X0072724Y0057102D01*
X0072725Y0058101D02*
X0122156Y0058101D01*
X0121158Y0059099D02*
X0072726Y0059099D01*
X0072724Y0060098D02*
X0120159Y0060098D01*
X0119161Y0061096D02*
X0072724Y0061096D01*
X0072724Y0062095D02*
X0118162Y0062095D01*
X0117164Y0063093D02*
X0072724Y0063093D01*
X0072724Y0064092D02*
X0116165Y0064092D01*
X0115167Y0065090D02*
X0072724Y0065090D01*
X0072724Y0066089D02*
X0114168Y0066089D01*
X0113170Y0067087D02*
X0072724Y0067087D01*
X0072724Y0068086D02*
X0112171Y0068086D01*
X0111173Y0069084D02*
X0072724Y0069084D01*
X0072724Y0070083D02*
X0110174Y0070083D01*
X0109176Y0071081D02*
X0072724Y0071081D01*
X0072724Y0072080D02*
X0108177Y0072080D01*
X0107179Y0073078D02*
X0072724Y0073078D01*
X0072724Y0074077D02*
X0106180Y0074077D01*
X0105182Y0075075D02*
X0072724Y0075075D01*
X0072724Y0076074D02*
X0104183Y0076074D01*
X0103963Y0077072D02*
X0072724Y0077072D01*
X0072724Y0078071D02*
X0103963Y0078071D01*
X0103963Y0079069D02*
X0072724Y0079069D01*
X0072724Y0080068D02*
X0103963Y0080068D01*
X0103963Y0081066D02*
X0072724Y0081066D01*
X0072724Y0082065D02*
X0103963Y0082065D01*
X0103963Y0083063D02*
X0072724Y0083063D01*
X0072724Y0084062D02*
X0103963Y0084062D01*
X0103963Y0085060D02*
X0072774Y0085060D01*
X0072273Y0086059D02*
X0103963Y0086059D01*
X0103963Y0087057D02*
X0068046Y0087057D01*
X0068385Y0088056D02*
X0103963Y0088056D01*
X0103963Y0089054D02*
X0069060Y0089054D01*
X0069060Y0090053D02*
X0103963Y0090053D01*
X0103963Y0091051D02*
X0069060Y0091051D01*
X0068934Y0092050D02*
X0103963Y0092050D01*
X0113885Y0099461D02*
X0113900Y0099446D01*
X0113900Y0082185D01*
X0121711Y0070374D02*
X0121711Y0099439D01*
X0121900Y0099250D01*
X0129585Y0099461D02*
X0129585Y0072500D01*
X0131900Y0070185D01*
X0181764Y0070185D01*
X0216449Y0035500D01*
X0219140Y0039129D02*
X0225974Y0039129D01*
X0225974Y0040127D02*
X0214650Y0040127D01*
X0215332Y0041126D02*
X0213652Y0041126D01*
X0213918Y0041712D02*
X0212661Y0042969D01*
X0211981Y0044611D01*
X0211981Y0046389D01*
X0212661Y0048031D01*
X0213918Y0049288D01*
X0215560Y0049968D01*
X0217338Y0049968D01*
X0218980Y0049288D01*
X0220237Y0048031D01*
X0220918Y0046389D01*
X0220918Y0044611D01*
X0220237Y0042969D01*
X0218980Y0041712D01*
X0217338Y0041031D01*
X0215560Y0041031D01*
X0213918Y0041712D01*
X0213505Y0042124D02*
X0212653Y0042124D01*
X0212597Y0043123D02*
X0211655Y0043123D01*
X0212183Y0044121D02*
X0210656Y0044121D01*
X0209658Y0045120D02*
X0211981Y0045120D01*
X0211981Y0046118D02*
X0208659Y0046118D01*
X0207661Y0047117D02*
X0212282Y0047117D01*
X0212745Y0048115D02*
X0206662Y0048115D01*
X0205664Y0049114D02*
X0213744Y0049114D01*
X0215368Y0051111D02*
X0203666Y0051111D01*
X0202668Y0052109D02*
X0213520Y0052109D01*
X0213918Y0051712D02*
X0215560Y0051031D01*
X0217338Y0051031D01*
X0218980Y0051712D01*
X0220237Y0052969D01*
X0220918Y0054611D01*
X0220918Y0056389D01*
X0220237Y0058031D01*
X0218980Y0059288D01*
X0217338Y0059968D01*
X0215560Y0059968D01*
X0213918Y0059288D01*
X0212661Y0058031D01*
X0211981Y0056389D01*
X0211981Y0054611D01*
X0212661Y0052969D01*
X0213918Y0051712D01*
X0212603Y0053108D02*
X0201669Y0053108D01*
X0200671Y0054107D02*
X0212190Y0054107D01*
X0211981Y0055105D02*
X0199672Y0055105D01*
X0198674Y0056104D02*
X0211981Y0056104D01*
X0212276Y0057102D02*
X0197675Y0057102D01*
X0196677Y0058101D02*
X0212730Y0058101D01*
X0213729Y0059099D02*
X0195678Y0059099D01*
X0194680Y0060098D02*
X0225974Y0060098D01*
X0225974Y0061096D02*
X0217494Y0061096D01*
X0217338Y0061031D02*
X0218980Y0061712D01*
X0220237Y0062969D01*
X0220918Y0064611D01*
X0220918Y0066389D01*
X0220237Y0068031D01*
X0218980Y0069288D01*
X0217338Y0069968D01*
X0215560Y0069968D01*
X0213918Y0069288D01*
X0212661Y0068031D01*
X0211981Y0066389D01*
X0211981Y0064611D01*
X0212661Y0062969D01*
X0213918Y0061712D01*
X0215560Y0061031D01*
X0217338Y0061031D01*
X0215404Y0061096D02*
X0193681Y0061096D01*
X0192683Y0062095D02*
X0213535Y0062095D01*
X0212609Y0063093D02*
X0191684Y0063093D01*
X0190686Y0064092D02*
X0212196Y0064092D01*
X0211981Y0065090D02*
X0189687Y0065090D01*
X0188689Y0066089D02*
X0211981Y0066089D01*
X0212270Y0067087D02*
X0187690Y0067087D01*
X0186692Y0068086D02*
X0212715Y0068086D01*
X0213714Y0069084D02*
X0185693Y0069084D01*
X0184695Y0070083D02*
X0225974Y0070083D01*
X0225974Y0071081D02*
X0217458Y0071081D01*
X0217338Y0071031D02*
X0218980Y0071712D01*
X0220237Y0072969D01*
X0220918Y0074611D01*
X0220918Y0076389D01*
X0220237Y0078031D01*
X0218980Y0079288D01*
X0217338Y0079968D01*
X0215560Y0079968D01*
X0213918Y0079288D01*
X0212661Y0078031D01*
X0211981Y0076389D01*
X0211981Y0074611D01*
X0212661Y0072969D01*
X0213918Y0071712D01*
X0215560Y0071031D01*
X0217338Y0071031D01*
X0215440Y0071081D02*
X0183696Y0071081D01*
X0182698Y0072080D02*
X0213550Y0072080D01*
X0212616Y0073078D02*
X0160283Y0073078D01*
X0160696Y0074077D02*
X0212202Y0074077D01*
X0211981Y0075075D02*
X0160918Y0075075D01*
X0160918Y0076074D02*
X0205458Y0076074D01*
X0205560Y0076031D02*
X0207338Y0076031D01*
X0208980Y0076712D01*
X0210237Y0077969D01*
X0210918Y0079611D01*
X0210918Y0081389D01*
X0210237Y0083031D01*
X0208980Y0084288D01*
X0207338Y0084968D01*
X0205560Y0084968D01*
X0203918Y0084288D01*
X0202661Y0083031D01*
X0201981Y0081389D01*
X0201981Y0079611D01*
X0202661Y0077969D01*
X0203918Y0076712D01*
X0205560Y0076031D01*
X0207440Y0076074D02*
X0211981Y0076074D01*
X0212264Y0077072D02*
X0209341Y0077072D01*
X0210280Y0078071D02*
X0212700Y0078071D01*
X0213699Y0079069D02*
X0210693Y0079069D01*
X0210918Y0080068D02*
X0225974Y0080068D01*
X0225974Y0081066D02*
X0217422Y0081066D01*
X0217338Y0081031D02*
X0218980Y0081712D01*
X0220237Y0082969D01*
X0220918Y0084611D01*
X0220918Y0086389D01*
X0220237Y0088031D01*
X0218980Y0089288D01*
X0217338Y0089968D01*
X0215560Y0089968D01*
X0213918Y0089288D01*
X0212661Y0088031D01*
X0211981Y0086389D01*
X0211981Y0084611D01*
X0212661Y0082969D01*
X0213918Y0081712D01*
X0215560Y0081031D01*
X0217338Y0081031D01*
X0215476Y0081066D02*
X0210918Y0081066D01*
X0210638Y0082065D02*
X0213565Y0082065D01*
X0212622Y0083063D02*
X0210205Y0083063D01*
X0209207Y0084062D02*
X0212208Y0084062D01*
X0211981Y0085060D02*
X0160918Y0085060D01*
X0160918Y0084611D02*
X0160918Y0086389D01*
X0160237Y0088031D01*
X0158980Y0089288D01*
X0157338Y0089968D01*
X0155560Y0089968D01*
X0153918Y0089288D01*
X0152661Y0088031D01*
X0151981Y0086389D01*
X0151981Y0084611D01*
X0152661Y0082969D01*
X0153918Y0081712D01*
X0155560Y0081031D01*
X0157338Y0081031D01*
X0158980Y0081712D01*
X0160237Y0082969D01*
X0160918Y0084611D01*
X0160690Y0084062D02*
X0203691Y0084062D01*
X0202693Y0083063D02*
X0160276Y0083063D01*
X0159333Y0082065D02*
X0202261Y0082065D01*
X0201981Y0081066D02*
X0157422Y0081066D01*
X0155476Y0081066D02*
X0131585Y0081066D01*
X0131585Y0080068D02*
X0201981Y0080068D01*
X0202205Y0079069D02*
X0159199Y0079069D01*
X0160198Y0078071D02*
X0202619Y0078071D01*
X0203557Y0077072D02*
X0160634Y0077072D01*
X0153699Y0079069D02*
X0131585Y0079069D01*
X0131585Y0078071D02*
X0152700Y0078071D01*
X0152264Y0077072D02*
X0131585Y0077072D01*
X0131585Y0076074D02*
X0151981Y0076074D01*
X0151981Y0075075D02*
X0131585Y0075075D01*
X0131585Y0074077D02*
X0152202Y0074077D01*
X0152616Y0073078D02*
X0131836Y0073078D01*
X0131585Y0082065D02*
X0153565Y0082065D01*
X0152622Y0083063D02*
X0131585Y0083063D01*
X0131585Y0084062D02*
X0152208Y0084062D01*
X0151981Y0085060D02*
X0131585Y0085060D01*
X0131585Y0086059D02*
X0151981Y0086059D01*
X0152257Y0087057D02*
X0131585Y0087057D01*
X0131585Y0088056D02*
X0152686Y0088056D01*
X0153684Y0089054D02*
X0131585Y0089054D01*
X0131585Y0090053D02*
X0201981Y0090053D01*
X0201981Y0089611D02*
X0202661Y0087969D01*
X0203918Y0086712D01*
X0205560Y0086031D01*
X0207338Y0086031D01*
X0208980Y0086712D01*
X0210237Y0087969D01*
X0210918Y0089611D01*
X0210918Y0091389D01*
X0210237Y0093031D01*
X0208980Y0094288D01*
X0207338Y0094968D01*
X0205560Y0094968D01*
X0203918Y0094288D01*
X0202661Y0093031D01*
X0201981Y0091389D01*
X0201981Y0089611D01*
X0202211Y0089054D02*
X0159214Y0089054D01*
X0160213Y0088056D02*
X0202625Y0088056D01*
X0203572Y0087057D02*
X0160641Y0087057D01*
X0160918Y0086059D02*
X0205494Y0086059D01*
X0207404Y0086059D02*
X0211981Y0086059D01*
X0212257Y0087057D02*
X0209326Y0087057D01*
X0210273Y0088056D02*
X0212686Y0088056D01*
X0213684Y0089054D02*
X0210687Y0089054D01*
X0210918Y0090053D02*
X0225974Y0090053D01*
X0225974Y0091051D02*
X0210918Y0091051D01*
X0210644Y0092050D02*
X0213853Y0092050D01*
X0214027Y0091875D02*
X0215599Y0091224D01*
X0217300Y0091224D01*
X0218871Y0091875D01*
X0220074Y0093078D01*
X0220725Y0094650D01*
X0220725Y0096350D01*
X0220074Y0097922D01*
X0218871Y0099125D01*
X0217300Y0099776D01*
X0215599Y0099776D01*
X0214027Y0099125D01*
X0212824Y0097922D01*
X0212173Y0096350D01*
X0212173Y0094650D01*
X0212824Y0093078D01*
X0214027Y0091875D01*
X0212854Y0093048D02*
X0210220Y0093048D01*
X0209222Y0094047D02*
X0212423Y0094047D01*
X0212173Y0095045D02*
X0156933Y0095045D01*
X0156933Y0095016D02*
X0156933Y0095984D01*
X0155965Y0095984D01*
X0155965Y0095016D01*
X0156933Y0095016D01*
X0156933Y0091052D01*
X0157495Y0091142D01*
X0158164Y0091359D01*
X0158791Y0091678D01*
X0159360Y0092092D01*
X0159857Y0092589D01*
X0160271Y0093158D01*
X0160590Y0093785D01*
X0160808Y0094454D01*
X0160897Y0095016D01*
X0156933Y0095016D01*
X0155965Y0095016D02*
X0155965Y0091052D01*
X0155403Y0091142D01*
X0154734Y0091359D01*
X0154107Y0091678D01*
X0153538Y0092092D01*
X0153041Y0092589D01*
X0152627Y0093158D01*
X0152308Y0093785D01*
X0152091Y0094454D01*
X0152002Y0095016D01*
X0155965Y0095016D01*
X0155965Y0095045D02*
X0141392Y0095045D01*
X0141459Y0096044D02*
X0152011Y0096044D01*
X0152002Y0095984D02*
X0155965Y0095984D01*
X0155965Y0099947D01*
X0155403Y0099858D01*
X0154734Y0099641D01*
X0154107Y0099322D01*
X0153538Y0098908D01*
X0153041Y0098411D01*
X0152627Y0097842D01*
X0152308Y0097215D01*
X0152091Y0096546D01*
X0152002Y0095984D01*
X0152252Y0097042D02*
X0141459Y0097042D01*
X0141459Y0098041D02*
X0152772Y0098041D01*
X0153719Y0099040D02*
X0137959Y0099040D01*
X0137959Y0100038D02*
X0136959Y0100038D01*
X0136959Y0101037D02*
X0137959Y0101037D01*
X0137959Y0102035D02*
X0136959Y0102035D01*
X0136959Y0103034D02*
X0137959Y0103034D01*
X0137959Y0104032D02*
X0136959Y0104032D01*
X0133610Y0104032D02*
X0133572Y0104032D01*
X0131568Y0109025D02*
X0153654Y0109025D01*
X0153918Y0109288D02*
X0152661Y0108031D01*
X0151981Y0106389D01*
X0151981Y0104611D01*
X0152661Y0102969D01*
X0153918Y0101712D01*
X0155560Y0101031D01*
X0157338Y0101031D01*
X0158980Y0101712D01*
X0160237Y0102969D01*
X0160918Y0104611D01*
X0160918Y0106389D01*
X0160237Y0108031D01*
X0158980Y0109288D01*
X0157338Y0109968D01*
X0155560Y0109968D01*
X0153918Y0109288D01*
X0152659Y0108026D02*
X0068898Y0108026D01*
X0069060Y0107028D02*
X0152245Y0107028D01*
X0151981Y0106029D02*
X0069594Y0106029D01*
X0070194Y0105031D02*
X0151981Y0105031D01*
X0152220Y0104032D02*
X0141308Y0104032D01*
X0141459Y0103034D02*
X0152634Y0103034D01*
X0153595Y0102035D02*
X0141459Y0102035D01*
X0141459Y0101037D02*
X0155548Y0101037D01*
X0156933Y0099947D02*
X0157495Y0099858D01*
X0158164Y0099641D01*
X0158791Y0099322D01*
X0159360Y0098908D01*
X0159857Y0098411D01*
X0160271Y0097842D01*
X0160590Y0097215D01*
X0160808Y0096546D01*
X0160897Y0095984D01*
X0156933Y0095984D01*
X0156933Y0099947D01*
X0156933Y0099040D02*
X0155965Y0099040D01*
X0155965Y0098041D02*
X0156933Y0098041D01*
X0156933Y0097042D02*
X0155965Y0097042D01*
X0155965Y0096044D02*
X0156933Y0096044D01*
X0156933Y0094047D02*
X0155965Y0094047D01*
X0155965Y0093048D02*
X0156933Y0093048D01*
X0156933Y0092050D02*
X0155965Y0092050D01*
X0153595Y0092050D02*
X0131585Y0092050D01*
X0131585Y0093048D02*
X0152707Y0093048D01*
X0152223Y0094047D02*
X0140352Y0094047D01*
X0137959Y0094047D02*
X0136959Y0094047D01*
X0136959Y0095045D02*
X0137959Y0095045D01*
X0137959Y0096044D02*
X0136959Y0096044D01*
X0136959Y0097042D02*
X0137959Y0097042D01*
X0137959Y0098041D02*
X0136959Y0098041D01*
X0134566Y0094047D02*
X0132729Y0094047D01*
X0131585Y0091051D02*
X0201981Y0091051D01*
X0202254Y0092050D02*
X0159303Y0092050D01*
X0160191Y0093048D02*
X0202678Y0093048D01*
X0203677Y0094047D02*
X0160675Y0094047D01*
X0160887Y0096044D02*
X0212173Y0096044D01*
X0212460Y0097042D02*
X0160646Y0097042D01*
X0160126Y0098041D02*
X0212943Y0098041D01*
X0213942Y0099040D02*
X0159180Y0099040D01*
X0157350Y0101037D02*
X0215548Y0101037D01*
X0215560Y0101031D02*
X0217338Y0101031D01*
X0218980Y0101712D01*
X0220237Y0102969D01*
X0220918Y0104611D01*
X0220918Y0106389D01*
X0220237Y0108031D01*
X0218980Y0109288D01*
X0217338Y0109968D01*
X0215560Y0109968D01*
X0213918Y0109288D01*
X0212661Y0108031D01*
X0211981Y0106389D01*
X0211981Y0104611D01*
X0212661Y0102969D01*
X0213918Y0101712D01*
X0215560Y0101031D01*
X0217350Y0101037D02*
X0225974Y0101037D01*
X0225974Y0102035D02*
X0219304Y0102035D01*
X0220264Y0103034D02*
X0225974Y0103034D01*
X0225974Y0104032D02*
X0220678Y0104032D01*
X0220918Y0105031D02*
X0225974Y0105031D01*
X0225974Y0106029D02*
X0220918Y0106029D01*
X0220653Y0107028D02*
X0225974Y0107028D01*
X0225974Y0108026D02*
X0220239Y0108026D01*
X0219244Y0109025D02*
X0225974Y0109025D01*
X0225974Y0110023D02*
X0132566Y0110023D01*
X0133565Y0111022D02*
X0225974Y0111022D01*
X0225974Y0112020D02*
X0219262Y0112020D01*
X0219360Y0112092D02*
X0219857Y0112589D01*
X0220271Y0113158D01*
X0220590Y0113785D01*
X0220808Y0114454D01*
X0220897Y0115016D01*
X0216933Y0115016D01*
X0216933Y0111052D01*
X0217495Y0111142D01*
X0218164Y0111359D01*
X0218791Y0111678D01*
X0219360Y0112092D01*
X0220170Y0113019D02*
X0225974Y0113019D01*
X0225974Y0114017D02*
X0220666Y0114017D01*
X0220897Y0115016D02*
X0225974Y0115016D01*
X0225974Y0116014D02*
X0220892Y0116014D01*
X0220897Y0115984D02*
X0220808Y0116546D01*
X0220590Y0117215D01*
X0220271Y0117842D01*
X0219857Y0118411D01*
X0219360Y0118908D01*
X0218791Y0119322D01*
X0218164Y0119641D01*
X0217495Y0119858D01*
X0216933Y0119947D01*
X0216933Y0115984D01*
X0215965Y0115984D01*
X0215965Y0115016D01*
X0216933Y0115016D01*
X0216933Y0115984D01*
X0220897Y0115984D01*
X0220656Y0117013D02*
X0225974Y0117013D01*
X0225974Y0118011D02*
X0220148Y0118011D01*
X0219221Y0119010D02*
X0225974Y0119010D01*
X0225974Y0120008D02*
X0178551Y0120008D01*
X0177553Y0119010D02*
X0213678Y0119010D01*
X0213538Y0118908D02*
X0213041Y0118411D01*
X0212627Y0117842D01*
X0212308Y0117215D01*
X0212091Y0116546D01*
X0212002Y0115984D01*
X0215965Y0115984D01*
X0215965Y0119947D01*
X0215403Y0119858D01*
X0214734Y0119641D01*
X0214107Y0119322D01*
X0213538Y0118908D01*
X0212750Y0118011D02*
X0176554Y0118011D01*
X0175556Y0117013D02*
X0212242Y0117013D01*
X0212006Y0116014D02*
X0174557Y0116014D01*
X0173559Y0115016D02*
X0212002Y0115016D01*
X0212091Y0114454D01*
X0212308Y0113785D01*
X0212627Y0113158D01*
X0213041Y0112589D01*
X0213538Y0112092D01*
X0214107Y0111678D01*
X0214734Y0111359D01*
X0215403Y0111142D01*
X0215965Y0111052D01*
X0215965Y0115016D01*
X0212002Y0115016D01*
X0212232Y0114017D02*
X0172560Y0114017D01*
X0171215Y0115500D02*
X0181449Y0125734D01*
X0181449Y0135500D01*
X0185659Y0133987D02*
X0187448Y0133987D01*
X0187173Y0134650D02*
X0187824Y0133078D01*
X0189027Y0131875D01*
X0190599Y0131224D01*
X0192300Y0131224D01*
X0193871Y0131875D01*
X0195074Y0133078D01*
X0195725Y0134650D01*
X0195725Y0136350D01*
X0195074Y0137922D01*
X0193871Y0139125D01*
X0193556Y0139255D01*
X0193556Y0144602D01*
X0195880Y0146926D01*
X0200260Y0146926D01*
X0200795Y0147460D01*
X0200881Y0147312D01*
X0201160Y0147032D01*
X0201502Y0146835D01*
X0201884Y0146733D01*
X0204140Y0146733D01*
X0204140Y0150685D01*
X0205140Y0150685D01*
X0205140Y0146733D01*
X0207397Y0146733D01*
X0207778Y0146835D01*
X0208120Y0147032D01*
X0208399Y0147312D01*
X0208597Y0147654D01*
X0208699Y0148035D01*
X0208699Y0150685D01*
X0205140Y0150685D01*
X0205140Y0151685D01*
X0208699Y0151685D01*
X0208699Y0154336D01*
X0208597Y0154717D01*
X0208399Y0155059D01*
X0208120Y0155338D01*
X0207778Y0155536D01*
X0207397Y0155638D01*
X0205140Y0155638D01*
X0205140Y0151685D01*
X0204140Y0151685D01*
X0204140Y0155638D01*
X0201884Y0155638D01*
X0201502Y0155536D01*
X0201160Y0155338D01*
X0200881Y0155059D01*
X0200795Y0154911D01*
X0200260Y0155445D01*
X0194059Y0155445D01*
X0193294Y0154680D01*
X0193294Y0150299D01*
X0190576Y0147582D01*
X0189342Y0146347D01*
X0189342Y0139255D01*
X0189027Y0139125D01*
X0187824Y0137922D01*
X0187173Y0136350D01*
X0187173Y0134650D01*
X0187173Y0134986D02*
X0185918Y0134986D01*
X0185918Y0135984D02*
X0187173Y0135984D01*
X0187435Y0136983D02*
X0185671Y0136983D01*
X0185258Y0137981D02*
X0187884Y0137981D01*
X0188882Y0138980D02*
X0184288Y0138980D01*
X0189342Y0139978D02*
X0173077Y0139978D01*
X0172078Y0140977D02*
X0189342Y0140977D01*
X0189342Y0141976D02*
X0171080Y0141976D01*
X0170081Y0142974D02*
X0189342Y0142974D01*
X0189342Y0143973D02*
X0154782Y0143973D01*
X0154883Y0144971D02*
X0189342Y0144971D01*
X0189342Y0145970D02*
X0154883Y0145970D01*
X0154883Y0146968D02*
X0189963Y0146968D01*
X0190961Y0147967D02*
X0181054Y0147967D01*
X0181599Y0148965D02*
X0191960Y0148965D01*
X0192958Y0149964D02*
X0181599Y0149964D01*
X0181599Y0150962D02*
X0193294Y0150962D01*
X0193294Y0151961D02*
X0181599Y0151961D01*
X0181599Y0152959D02*
X0193294Y0152959D01*
X0193294Y0153958D02*
X0181599Y0153958D01*
X0181599Y0154956D02*
X0193570Y0154956D01*
X0191757Y0155955D02*
X0181304Y0155955D01*
X0179640Y0156953D02*
X0191101Y0156953D01*
X0191101Y0157952D02*
X0179654Y0157952D01*
X0179640Y0158950D02*
X0191101Y0158950D01*
X0190308Y0159949D02*
X0179640Y0159949D01*
X0180087Y0160947D02*
X0189310Y0160947D01*
X0188311Y0161946D02*
X0180223Y0161946D01*
X0180223Y0162944D02*
X0187313Y0162944D01*
X0186314Y0163943D02*
X0180223Y0163943D01*
X0180223Y0164941D02*
X0185900Y0164941D01*
X0185900Y0165940D02*
X0180223Y0165940D01*
X0180223Y0166938D02*
X0185319Y0166938D01*
X0184320Y0167937D02*
X0162038Y0167937D01*
X0162038Y0168935D02*
X0183322Y0168935D01*
X0182323Y0169934D02*
X0161210Y0169934D01*
X0162038Y0166938D02*
X0167577Y0166938D01*
X0172743Y0166938D02*
X0175057Y0166938D01*
X0175057Y0165940D02*
X0172743Y0165940D01*
X0172743Y0164941D02*
X0175057Y0164941D01*
X0175057Y0163943D02*
X0172743Y0163943D01*
X0172743Y0162944D02*
X0175057Y0162944D01*
X0175057Y0161946D02*
X0172743Y0161946D01*
X0172606Y0160947D02*
X0175194Y0160947D01*
X0175640Y0159949D02*
X0162038Y0159949D01*
X0162038Y0160947D02*
X0167713Y0160947D01*
X0169560Y0155955D02*
X0170560Y0155955D01*
X0170560Y0154956D02*
X0169560Y0154956D01*
X0169560Y0153958D02*
X0170560Y0153958D01*
X0170560Y0152959D02*
X0169560Y0152959D01*
X0169560Y0151961D02*
X0146778Y0151961D01*
X0141116Y0152959D02*
X0166001Y0152959D01*
X0166001Y0151585D02*
X0166001Y0148935D01*
X0166103Y0148554D01*
X0166300Y0148212D01*
X0166580Y0147932D01*
X0166922Y0147735D01*
X0167303Y0147633D01*
X0169560Y0147633D01*
X0169560Y0151585D01*
X0166001Y0151585D01*
X0166001Y0150962D02*
X0154883Y0150962D01*
X0154883Y0149964D02*
X0166001Y0149964D01*
X0166001Y0148965D02*
X0154883Y0148965D01*
X0154883Y0147967D02*
X0166546Y0147967D01*
X0169560Y0147967D02*
X0170560Y0147967D01*
X0170560Y0148965D02*
X0169560Y0148965D01*
X0169560Y0149964D02*
X0170560Y0149964D01*
X0170560Y0150962D02*
X0169560Y0150962D01*
X0173574Y0147967D02*
X0174026Y0147967D01*
X0177540Y0152085D02*
X0177640Y0157272D01*
X0177640Y0164067D01*
X0175640Y0158950D02*
X0162038Y0158950D01*
X0158085Y0156953D02*
X0157085Y0156953D01*
X0157085Y0155955D02*
X0158085Y0155955D01*
X0158085Y0154956D02*
X0157085Y0154956D01*
X0153132Y0156953D02*
X0152584Y0156953D01*
X0153124Y0142974D02*
X0156719Y0142974D01*
X0155720Y0141976D02*
X0153124Y0141976D01*
X0153124Y0140977D02*
X0154722Y0140977D01*
X0154172Y0139978D02*
X0153124Y0139978D01*
X0152684Y0138980D02*
X0154172Y0138980D01*
X0154349Y0137981D02*
X0152684Y0137981D01*
X0152684Y0136983D02*
X0154349Y0136983D01*
X0154349Y0135984D02*
X0152684Y0135984D01*
X0152684Y0134986D02*
X0154349Y0134986D01*
X0154349Y0133987D02*
X0150925Y0133987D01*
X0150925Y0132989D02*
X0154349Y0132989D01*
X0154349Y0131990D02*
X0150385Y0131990D01*
X0149386Y0130992D02*
X0154349Y0130992D01*
X0154349Y0129993D02*
X0149088Y0129993D01*
X0148684Y0128995D02*
X0153625Y0128995D01*
X0152646Y0127996D02*
X0147778Y0127996D01*
X0156449Y0125500D02*
X0134214Y0125500D01*
X0129220Y0120507D01*
X0134900Y0119185D02*
X0153815Y0119185D01*
X0154598Y0119969D01*
X0159683Y0119969D01*
X0161900Y0122185D01*
X0161900Y0135049D01*
X0161449Y0135500D01*
X0165659Y0133987D02*
X0167239Y0133987D01*
X0166981Y0134986D02*
X0165918Y0134986D01*
X0165918Y0135984D02*
X0166981Y0135984D01*
X0167227Y0136983D02*
X0165671Y0136983D01*
X0165258Y0137981D02*
X0167640Y0137981D01*
X0168136Y0138980D02*
X0164288Y0138980D01*
X0165246Y0132989D02*
X0167653Y0132989D01*
X0168639Y0131990D02*
X0164259Y0131990D01*
X0163900Y0130992D02*
X0179449Y0130992D01*
X0179449Y0129993D02*
X0163900Y0129993D01*
X0163900Y0128995D02*
X0179449Y0128995D01*
X0179449Y0127996D02*
X0163900Y0127996D01*
X0163900Y0126998D02*
X0179449Y0126998D01*
X0178885Y0125999D02*
X0163900Y0125999D01*
X0163900Y0125001D02*
X0177887Y0125001D01*
X0176888Y0124002D02*
X0163900Y0124002D01*
X0163900Y0123004D02*
X0175890Y0123004D01*
X0174891Y0122005D02*
X0163900Y0122005D01*
X0163550Y0121007D02*
X0173893Y0121007D01*
X0172894Y0120008D02*
X0162551Y0120008D01*
X0161553Y0119010D02*
X0171896Y0119010D01*
X0170897Y0118011D02*
X0160554Y0118011D01*
X0156449Y0115500D02*
X0171215Y0115500D01*
X0179550Y0121007D02*
X0225974Y0121007D01*
X0225974Y0122005D02*
X0219274Y0122005D01*
X0218980Y0121712D02*
X0220237Y0122969D01*
X0220918Y0124611D01*
X0220918Y0126389D01*
X0220237Y0128031D01*
X0218980Y0129288D01*
X0217338Y0129968D01*
X0215560Y0129968D01*
X0213918Y0129288D01*
X0212661Y0128031D01*
X0211981Y0126389D01*
X0211981Y0124611D01*
X0212661Y0122969D01*
X0213918Y0121712D01*
X0215560Y0121031D01*
X0217338Y0121031D01*
X0218980Y0121712D01*
X0220252Y0123004D02*
X0225974Y0123004D01*
X0225974Y0124002D02*
X0220665Y0124002D01*
X0220918Y0125001D02*
X0225974Y0125001D01*
X0225974Y0125999D02*
X0220918Y0125999D01*
X0220665Y0126998D02*
X0225974Y0126998D01*
X0225974Y0127996D02*
X0220252Y0127996D01*
X0219274Y0128995D02*
X0225974Y0128995D01*
X0225974Y0129993D02*
X0183449Y0129993D01*
X0183449Y0128995D02*
X0213625Y0128995D01*
X0212646Y0127996D02*
X0183449Y0127996D01*
X0183449Y0126998D02*
X0212233Y0126998D01*
X0211981Y0125999D02*
X0183449Y0125999D01*
X0183449Y0125001D02*
X0211981Y0125001D01*
X0212233Y0124002D02*
X0182545Y0124002D01*
X0181547Y0123004D02*
X0212646Y0123004D01*
X0213624Y0122005D02*
X0180548Y0122005D01*
X0183449Y0130992D02*
X0225974Y0130992D01*
X0225974Y0131990D02*
X0214259Y0131990D01*
X0213980Y0131712D02*
X0215237Y0132969D01*
X0215918Y0134611D01*
X0215918Y0136389D01*
X0215237Y0138031D01*
X0213980Y0139288D01*
X0212338Y0139968D01*
X0210560Y0139968D01*
X0208918Y0139288D01*
X0207661Y0138031D01*
X0206981Y0136389D01*
X0206981Y0134611D01*
X0207661Y0132969D01*
X0208918Y0131712D01*
X0210560Y0131031D01*
X0212338Y0131031D01*
X0213980Y0131712D01*
X0215246Y0132989D02*
X0225974Y0132989D01*
X0225974Y0133987D02*
X0215659Y0133987D01*
X0215918Y0134986D02*
X0225974Y0134986D01*
X0225974Y0135984D02*
X0215918Y0135984D01*
X0215671Y0136983D02*
X0225974Y0136983D01*
X0225974Y0137981D02*
X0215258Y0137981D01*
X0214288Y0138980D02*
X0225974Y0138980D01*
X0225974Y0139978D02*
X0193556Y0139978D01*
X0193556Y0140977D02*
X0225974Y0140977D01*
X0225974Y0141976D02*
X0221135Y0141976D01*
X0221740Y0142226D02*
X0223823Y0144309D01*
X0224951Y0147031D01*
X0224951Y0149977D01*
X0223823Y0152699D01*
X0221740Y0154782D01*
X0219018Y0155910D01*
X0216072Y0155910D01*
X0213350Y0154782D01*
X0211267Y0152699D01*
X0210139Y0149977D01*
X0210139Y0147031D01*
X0211267Y0144309D01*
X0213350Y0142226D01*
X0216072Y0141098D01*
X0219018Y0141098D01*
X0221740Y0142226D01*
X0222488Y0142974D02*
X0225974Y0142974D01*
X0225974Y0143973D02*
X0223486Y0143973D01*
X0224097Y0144971D02*
X0225974Y0144971D01*
X0225974Y0145970D02*
X0224511Y0145970D01*
X0224924Y0146968D02*
X0225974Y0146968D01*
X0225974Y0147967D02*
X0224951Y0147967D01*
X0224951Y0148965D02*
X0225974Y0148965D01*
X0225974Y0149964D02*
X0224951Y0149964D01*
X0224542Y0150962D02*
X0225974Y0150962D01*
X0225974Y0151961D02*
X0224129Y0151961D01*
X0223563Y0152959D02*
X0225974Y0152959D01*
X0225974Y0153958D02*
X0222564Y0153958D01*
X0221320Y0154956D02*
X0225974Y0154956D01*
X0225974Y0155955D02*
X0206043Y0155955D01*
X0206699Y0156953D02*
X0225974Y0156953D01*
X0225974Y0157952D02*
X0221890Y0157952D01*
X0221928Y0158950D02*
X0225974Y0158950D01*
X0225974Y0159949D02*
X0221928Y0159949D01*
X0221928Y0160947D02*
X0225974Y0160947D01*
X0225974Y0161946D02*
X0221928Y0161946D01*
X0221365Y0162944D02*
X0225974Y0162944D01*
X0225974Y0163943D02*
X0222913Y0163943D01*
X0222998Y0164941D02*
X0225974Y0164941D01*
X0225974Y0165940D02*
X0222998Y0165940D01*
X0222998Y0166938D02*
X0225974Y0166938D01*
X0225974Y0167937D02*
X0222998Y0167937D01*
X0222998Y0168935D02*
X0225974Y0168935D01*
X0225974Y0169934D02*
X0222998Y0169934D01*
X0222998Y0170932D02*
X0225974Y0170932D01*
X0225974Y0171931D02*
X0222638Y0171931D01*
X0225974Y0172929D02*
X0184984Y0172929D01*
X0184509Y0173928D02*
X0183986Y0173928D01*
X0183778Y0174926D02*
X0182987Y0174926D01*
X0182908Y0175925D02*
X0181989Y0175925D01*
X0181909Y0176923D02*
X0180223Y0176923D01*
X0179588Y0177922D02*
X0180911Y0177922D01*
X0180781Y0174304D02*
X0177640Y0174304D01*
X0180781Y0174304D02*
X0187900Y0167185D01*
X0187900Y0165185D01*
X0192900Y0160185D01*
X0195160Y0160185D01*
X0198562Y0155955D02*
X0199238Y0155955D01*
X0200749Y0154956D02*
X0200821Y0154956D01*
X0204140Y0154956D02*
X0205140Y0154956D01*
X0205140Y0153958D02*
X0204140Y0153958D01*
X0204140Y0152959D02*
X0205140Y0152959D01*
X0205140Y0151961D02*
X0204140Y0151961D01*
X0205140Y0150962D02*
X0210548Y0150962D01*
X0210139Y0149964D02*
X0208699Y0149964D01*
X0208699Y0148965D02*
X0210139Y0148965D01*
X0210139Y0147967D02*
X0208681Y0147967D01*
X0208009Y0146968D02*
X0210166Y0146968D01*
X0210579Y0145970D02*
X0194924Y0145970D01*
X0193925Y0144971D02*
X0210993Y0144971D01*
X0211604Y0143973D02*
X0193556Y0143973D01*
X0193556Y0142974D02*
X0212602Y0142974D01*
X0213955Y0141976D02*
X0193556Y0141976D01*
X0194016Y0138980D02*
X0198637Y0138980D01*
X0198538Y0138908D02*
X0198041Y0138411D01*
X0197627Y0137842D01*
X0197308Y0137215D01*
X0197091Y0136546D01*
X0197002Y0135984D01*
X0200965Y0135984D01*
X0200965Y0135016D01*
X0197002Y0135016D01*
X0197091Y0134454D01*
X0197308Y0133785D01*
X0197627Y0133158D01*
X0198041Y0132589D01*
X0198538Y0132092D01*
X0199107Y0131678D01*
X0199734Y0131359D01*
X0200403Y0131142D01*
X0200965Y0131052D01*
X0200965Y0135016D01*
X0201933Y0135016D01*
X0201933Y0131052D01*
X0202495Y0131142D01*
X0203164Y0131359D01*
X0203791Y0131678D01*
X0204360Y0132092D01*
X0204857Y0132589D01*
X0205271Y0133158D01*
X0205590Y0133785D01*
X0205808Y0134454D01*
X0205897Y0135016D01*
X0201933Y0135016D01*
X0201933Y0135984D01*
X0200965Y0135984D01*
X0200965Y0139947D01*
X0200403Y0139858D01*
X0199734Y0139641D01*
X0199107Y0139322D01*
X0198538Y0138908D01*
X0197729Y0137981D02*
X0195014Y0137981D01*
X0195463Y0136983D02*
X0197232Y0136983D01*
X0197002Y0135984D02*
X0195725Y0135984D01*
X0195725Y0134986D02*
X0197006Y0134986D01*
X0197242Y0133987D02*
X0195450Y0133987D01*
X0194985Y0132989D02*
X0197750Y0132989D01*
X0198677Y0131990D02*
X0193986Y0131990D01*
X0188912Y0131990D02*
X0184259Y0131990D01*
X0185246Y0132989D02*
X0187914Y0132989D01*
X0178639Y0131990D02*
X0174259Y0131990D01*
X0175246Y0132989D02*
X0177653Y0132989D01*
X0177239Y0133987D02*
X0175659Y0133987D01*
X0175918Y0134986D02*
X0176981Y0134986D01*
X0176981Y0135984D02*
X0175918Y0135984D01*
X0175671Y0136983D02*
X0177227Y0136983D01*
X0177640Y0137981D02*
X0175258Y0137981D01*
X0174288Y0138980D02*
X0178610Y0138980D01*
X0200303Y0146968D02*
X0201271Y0146968D01*
X0204140Y0146968D02*
X0205140Y0146968D01*
X0205140Y0147967D02*
X0204140Y0147967D01*
X0204140Y0148965D02*
X0205140Y0148965D01*
X0205140Y0149964D02*
X0204140Y0149964D01*
X0208699Y0151961D02*
X0210961Y0151961D01*
X0211527Y0152959D02*
X0208699Y0152959D01*
X0208699Y0153958D02*
X0212526Y0153958D01*
X0213770Y0154956D02*
X0208459Y0154956D01*
X0209910Y0157952D02*
X0206699Y0157952D01*
X0202640Y0160185D02*
X0212947Y0160185D01*
X0210435Y0162944D02*
X0206699Y0162944D01*
X0206698Y0163943D02*
X0206516Y0163943D01*
X0206613Y0164941D02*
X0190973Y0164941D01*
X0189974Y0165940D02*
X0206613Y0165940D01*
X0206613Y0166938D02*
X0189900Y0166938D01*
X0189900Y0167937D02*
X0206613Y0167937D01*
X0206613Y0168935D02*
X0188979Y0168935D01*
X0187980Y0169934D02*
X0206613Y0169934D01*
X0206613Y0170932D02*
X0186981Y0170932D01*
X0185983Y0171931D02*
X0206973Y0171931D01*
X0204157Y0173928D02*
X0225974Y0173928D01*
X0225974Y0174926D02*
X0204888Y0174926D01*
X0204888Y0175925D02*
X0225974Y0175925D01*
X0225974Y0176923D02*
X0204888Y0176923D01*
X0204888Y0177922D02*
X0225974Y0177922D01*
X0225974Y0178920D02*
X0204888Y0178920D01*
X0204807Y0179919D02*
X0225974Y0179919D01*
X0225974Y0180917D02*
X0184421Y0180917D01*
X0184699Y0181756D02*
X0185080Y0181654D01*
X0193849Y0181654D01*
X0193849Y0184638D01*
X0194817Y0184638D01*
X0194817Y0181654D01*
X0203586Y0181654D01*
X0203967Y0181756D01*
X0204309Y0181954D01*
X0204588Y0182233D01*
X0204786Y0182575D01*
X0204888Y0182956D01*
X0204888Y0184638D01*
X0194817Y0184638D01*
X0194817Y0185607D01*
X0193849Y0185607D01*
X0193849Y0188591D01*
X0185080Y0188591D01*
X0184699Y0188489D01*
X0184357Y0188291D01*
X0184078Y0188012D01*
X0183880Y0187670D01*
X0183778Y0187288D01*
X0183778Y0185607D01*
X0193849Y0185607D01*
X0193849Y0184638D01*
X0183778Y0184638D01*
X0183778Y0182956D01*
X0183880Y0182575D01*
X0184078Y0182233D01*
X0184357Y0181954D01*
X0184699Y0181756D01*
X0184422Y0181916D02*
X0183422Y0181916D01*
X0183789Y0182914D02*
X0182424Y0182914D01*
X0183778Y0183913D02*
X0174353Y0183913D01*
X0174067Y0184911D02*
X0193849Y0184911D01*
X0194817Y0184911D02*
X0225974Y0184911D01*
X0225974Y0183913D02*
X0204888Y0183913D01*
X0204877Y0182914D02*
X0225974Y0182914D01*
X0225974Y0181916D02*
X0204244Y0181916D01*
X0204888Y0185607D02*
X0204888Y0187288D01*
X0204786Y0187670D01*
X0204588Y0188012D01*
X0204309Y0188291D01*
X0203967Y0188489D01*
X0203586Y0188591D01*
X0194817Y0188591D01*
X0194817Y0185607D01*
X0204888Y0185607D01*
X0204888Y0185910D02*
X0225974Y0185910D01*
X0225974Y0186909D02*
X0204888Y0186909D01*
X0204649Y0187907D02*
X0225974Y0187907D01*
X0225974Y0188906D02*
X0170400Y0188906D01*
X0170400Y0189904D02*
X0169400Y0189904D01*
X0169400Y0188906D02*
X0162530Y0188906D01*
X0166432Y0192900D02*
X0157166Y0192900D01*
X0156167Y0193898D02*
X0206613Y0193898D01*
X0206613Y0192900D02*
X0173368Y0192900D01*
X0174294Y0191901D02*
X0206613Y0191901D01*
X0206613Y0190903D02*
X0174353Y0190903D01*
X0174353Y0189904D02*
X0225974Y0189904D01*
X0225974Y0190903D02*
X0222998Y0190903D01*
X0222998Y0191901D02*
X0225974Y0191901D01*
X0225974Y0192900D02*
X0222998Y0192900D01*
X0222998Y0193898D02*
X0225974Y0193898D01*
X0225974Y0194897D02*
X0222998Y0194897D01*
X0222998Y0195895D02*
X0225974Y0195895D01*
X0225974Y0196894D02*
X0222998Y0196894D01*
X0222998Y0197892D02*
X0225974Y0197892D01*
X0206613Y0197892D02*
X0092635Y0197892D01*
X0079792Y0197892D02*
X0070981Y0197892D01*
X0070981Y0196894D02*
X0079792Y0196894D01*
X0079792Y0195895D02*
X0070981Y0195895D01*
X0070981Y0194897D02*
X0079792Y0194897D01*
X0079792Y0193898D02*
X0070981Y0193898D01*
X0070981Y0192900D02*
X0079792Y0192900D01*
X0079792Y0191901D02*
X0070981Y0191901D01*
X0070981Y0190903D02*
X0079792Y0190903D01*
X0080140Y0189904D02*
X0077517Y0189904D01*
X0075225Y0189904D02*
X0070633Y0189904D01*
X0072639Y0187907D02*
X0052724Y0187907D01*
X0052724Y0186909D02*
X0072225Y0186909D01*
X0072099Y0185910D02*
X0052724Y0185910D01*
X0052724Y0184911D02*
X0072099Y0184911D01*
X0072510Y0183913D02*
X0052724Y0183913D01*
X0052724Y0182914D02*
X0073171Y0182914D01*
X0074478Y0181916D02*
X0052724Y0181916D01*
X0052724Y0180917D02*
X0079792Y0180917D01*
X0079792Y0179919D02*
X0052724Y0179919D01*
X0052724Y0178920D02*
X0079792Y0178920D01*
X0079792Y0177922D02*
X0052724Y0177922D01*
X0052724Y0176923D02*
X0079792Y0176923D01*
X0079792Y0175925D02*
X0052724Y0175925D01*
X0052724Y0174926D02*
X0079792Y0174926D01*
X0079792Y0173928D02*
X0052724Y0173928D01*
X0052724Y0172929D02*
X0079792Y0172929D01*
X0079792Y0171931D02*
X0078914Y0171931D01*
X0080643Y0167937D02*
X0102100Y0167937D01*
X0102100Y0168935D02*
X0092362Y0168935D01*
X0092635Y0169934D02*
X0102100Y0169934D01*
X0101983Y0170932D02*
X0092635Y0170932D01*
X0092635Y0171931D02*
X0100985Y0171931D01*
X0099986Y0172929D02*
X0092635Y0172929D01*
X0092635Y0173928D02*
X0098988Y0173928D01*
X0097989Y0174926D02*
X0092635Y0174926D01*
X0086214Y0169934D02*
X0086213Y0169934D01*
X0086213Y0168935D02*
X0086214Y0168935D01*
X0091756Y0164814D02*
X0080671Y0164814D01*
X0079792Y0163936D01*
X0079792Y0154819D01*
X0080671Y0153940D01*
X0091756Y0153940D01*
X0092635Y0154819D01*
X0092635Y0163936D01*
X0091756Y0164814D01*
X0092628Y0163943D02*
X0102100Y0163943D01*
X0102100Y0164941D02*
X0078921Y0164941D01*
X0079799Y0163943D02*
X0070974Y0163943D01*
X0070981Y0163936D02*
X0070103Y0164814D01*
X0059017Y0164814D01*
X0058139Y0163936D01*
X0058139Y0154819D01*
X0059017Y0153940D01*
X0070103Y0153940D01*
X0070981Y0154819D01*
X0070981Y0163936D01*
X0070981Y0162944D02*
X0079792Y0162944D01*
X0079792Y0161946D02*
X0070981Y0161946D01*
X0070981Y0160947D02*
X0079792Y0160947D01*
X0079792Y0159949D02*
X0070981Y0159949D01*
X0070981Y0158950D02*
X0079792Y0158950D01*
X0079792Y0157952D02*
X0070981Y0157952D01*
X0070981Y0156953D02*
X0079792Y0156953D01*
X0079792Y0155955D02*
X0070981Y0155955D01*
X0070981Y0154956D02*
X0079792Y0154956D01*
X0080654Y0153958D02*
X0070120Y0153958D01*
X0068843Y0152959D02*
X0102100Y0152959D01*
X0102100Y0151961D02*
X0069060Y0151961D01*
X0069060Y0150962D02*
X0102100Y0150962D01*
X0102100Y0149964D02*
X0068907Y0149964D01*
X0069060Y0148965D02*
X0102100Y0148965D01*
X0102100Y0147967D02*
X0069060Y0147967D01*
X0069169Y0146968D02*
X0101113Y0146968D01*
X0100114Y0145970D02*
X0096912Y0145970D01*
X0097563Y0137981D02*
X0103318Y0137981D01*
X0102157Y0136983D02*
X0097756Y0136983D01*
X0097756Y0135984D02*
X0101721Y0135984D01*
X0101619Y0134986D02*
X0097683Y0134986D01*
X0097756Y0133987D02*
X0100832Y0133987D01*
X0103776Y0130992D02*
X0104878Y0130992D01*
X0104589Y0131804D02*
X0105553Y0131804D01*
X0105788Y0131902D01*
X0101792Y0127906D01*
X0097756Y0127906D01*
X0097756Y0128465D01*
X0097756Y0129085D01*
X0101456Y0129085D01*
X0101635Y0129264D01*
X0101910Y0129378D01*
X0102163Y0129378D01*
X0102832Y0130047D01*
X0103393Y0130608D01*
X0103393Y0130608D01*
X0104589Y0131804D01*
X0103880Y0129993D02*
X0102778Y0129993D01*
X0102881Y0128995D02*
X0097756Y0128995D01*
X0097756Y0128465D02*
X0093506Y0128465D01*
X0093506Y0128465D01*
X0097756Y0128465D01*
X0097756Y0127996D02*
X0101883Y0127996D01*
X0106545Y0124002D02*
X0118044Y0124002D01*
X0118044Y0123004D02*
X0105547Y0123004D01*
X0104548Y0122005D02*
X0118044Y0122005D01*
X0118050Y0125001D02*
X0107544Y0125001D01*
X0108542Y0125999D02*
X0118044Y0125999D01*
X0118100Y0126998D02*
X0109541Y0126998D01*
X0110539Y0127996D02*
X0118044Y0127996D01*
X0118044Y0128995D02*
X0111538Y0128995D01*
X0112536Y0129993D02*
X0118044Y0129993D01*
X0118044Y0130992D02*
X0113535Y0130992D01*
X0114533Y0131990D02*
X0118044Y0131990D01*
X0118044Y0132989D02*
X0115532Y0132989D01*
X0115900Y0133987D02*
X0118044Y0133987D01*
X0118044Y0134986D02*
X0115900Y0134986D01*
X0115900Y0135984D02*
X0118044Y0135984D01*
X0118044Y0136983D02*
X0115900Y0136983D01*
X0115900Y0137981D02*
X0118044Y0137981D01*
X0118044Y0138980D02*
X0115900Y0138980D01*
X0115900Y0139978D02*
X0118044Y0139978D01*
X0118044Y0140977D02*
X0116520Y0140977D01*
X0117519Y0141976D02*
X0118044Y0141976D01*
X0109900Y0137981D02*
X0106482Y0137981D01*
X0107643Y0136983D02*
X0109900Y0136983D01*
X0109871Y0135984D02*
X0108079Y0135984D01*
X0108181Y0134986D02*
X0108872Y0134986D01*
X0089256Y0127996D02*
X0086550Y0127996D01*
X0086550Y0126998D02*
X0089256Y0126998D01*
X0089256Y0125999D02*
X0086550Y0125999D01*
X0086550Y0125001D02*
X0089256Y0125001D01*
X0089256Y0124002D02*
X0086550Y0124002D01*
X0086550Y0123004D02*
X0089256Y0123004D01*
X0089256Y0122005D02*
X0086550Y0122005D01*
X0086236Y0121007D02*
X0089256Y0121007D01*
X0089256Y0120008D02*
X0068417Y0120008D01*
X0068006Y0119597D02*
X0069060Y0120652D01*
X0069060Y0123844D01*
X0068531Y0124373D01*
X0068573Y0124415D01*
X0069140Y0124415D01*
X0070194Y0125469D01*
X0070194Y0127527D01*
X0069140Y0128582D01*
X0068573Y0129149D01*
X0064246Y0129149D01*
X0063191Y0128095D01*
X0063191Y0126603D01*
X0063580Y0126215D01*
X0063191Y0125826D01*
X0063191Y0124335D01*
X0063437Y0124089D01*
X0063191Y0123844D01*
X0063191Y0123197D01*
X0063112Y0123197D01*
X0062057Y0122143D01*
X0062057Y0120652D01*
X0063112Y0119597D01*
X0068006Y0119597D01*
X0068094Y0118011D02*
X0089256Y0118011D01*
X0089256Y0119010D02*
X0052724Y0119010D01*
X0052724Y0120008D02*
X0062700Y0120008D01*
X0062057Y0121007D02*
X0052724Y0121007D01*
X0052724Y0122005D02*
X0062057Y0122005D01*
X0062918Y0123004D02*
X0052724Y0123004D01*
X0052724Y0124002D02*
X0063349Y0124002D01*
X0063191Y0125001D02*
X0052724Y0125001D01*
X0052724Y0125999D02*
X0063365Y0125999D01*
X0063191Y0126998D02*
X0052724Y0126998D01*
X0052724Y0127996D02*
X0063191Y0127996D01*
X0064092Y0128995D02*
X0052724Y0128995D01*
X0052724Y0129993D02*
X0080738Y0129993D01*
X0079800Y0128995D02*
X0068727Y0128995D01*
X0069725Y0127996D02*
X0077250Y0127996D01*
X0077250Y0126998D02*
X0070194Y0126998D01*
X0070194Y0125999D02*
X0077250Y0125999D01*
X0077250Y0125001D02*
X0069726Y0125001D01*
X0068902Y0124002D02*
X0077250Y0124002D01*
X0077250Y0123004D02*
X0069060Y0123004D01*
X0069060Y0122005D02*
X0077250Y0122005D01*
X0077564Y0121007D02*
X0069060Y0121007D01*
X0069060Y0117013D02*
X0077355Y0117013D01*
X0077353Y0117008D02*
X0077250Y0116627D01*
X0077250Y0114174D01*
X0081400Y0114174D01*
X0081400Y0117929D01*
X0078553Y0117929D01*
X0078171Y0117827D01*
X0077829Y0117630D01*
X0077550Y0117351D01*
X0077353Y0117008D01*
X0077250Y0116014D02*
X0069060Y0116014D01*
X0069060Y0115016D02*
X0077250Y0115016D01*
X0077250Y0113174D02*
X0077250Y0110720D01*
X0077353Y0110339D01*
X0077550Y0109997D01*
X0077829Y0109717D01*
X0078171Y0109520D01*
X0078553Y0109418D01*
X0081400Y0109418D01*
X0081400Y0113174D01*
X0077250Y0113174D01*
X0077250Y0113019D02*
X0068836Y0113019D01*
X0069060Y0114017D02*
X0081400Y0114017D01*
X0081400Y0114174D02*
X0081400Y0113174D01*
X0082400Y0113174D01*
X0082400Y0114174D01*
X0081400Y0114174D01*
X0081400Y0115016D02*
X0082400Y0115016D01*
X0082400Y0114174D02*
X0082400Y0117929D01*
X0085247Y0117929D01*
X0085629Y0117827D01*
X0085971Y0117630D01*
X0086250Y0117351D01*
X0086447Y0117008D01*
X0086550Y0116627D01*
X0086550Y0114174D01*
X0082400Y0114174D01*
X0082400Y0114017D02*
X0089256Y0114017D01*
X0089256Y0113019D02*
X0086550Y0113019D01*
X0086550Y0113174D02*
X0082400Y0113174D01*
X0082400Y0109418D01*
X0085247Y0109418D01*
X0085629Y0109520D01*
X0085971Y0109717D01*
X0086250Y0109997D01*
X0086447Y0110339D01*
X0086550Y0110720D01*
X0086550Y0113174D01*
X0086550Y0112020D02*
X0089256Y0112020D01*
X0089256Y0111022D02*
X0086550Y0111022D01*
X0086265Y0110023D02*
X0089256Y0110023D01*
X0089477Y0109025D02*
X0069060Y0109025D01*
X0068914Y0110023D02*
X0077535Y0110023D01*
X0077250Y0111022D02*
X0069060Y0111022D01*
X0069060Y0112020D02*
X0077250Y0112020D01*
X0081400Y0112020D02*
X0082400Y0112020D01*
X0082400Y0111022D02*
X0081400Y0111022D01*
X0081400Y0110023D02*
X0082400Y0110023D01*
X0082400Y0113019D02*
X0081400Y0113019D01*
X0081400Y0116014D02*
X0082400Y0116014D01*
X0082400Y0117013D02*
X0081400Y0117013D01*
X0086445Y0117013D02*
X0089346Y0117013D01*
X0089256Y0116014D02*
X0086550Y0116014D01*
X0086550Y0115016D02*
X0089256Y0115016D01*
X0093506Y0115670D02*
X0093506Y0115670D01*
X0093506Y0116014D02*
X0093506Y0116014D01*
X0093506Y0117013D02*
X0093506Y0117013D01*
X0093506Y0118011D02*
X0093506Y0118011D01*
X0082227Y0125024D02*
X0081900Y0124697D01*
X0081737Y0130992D02*
X0067784Y0130992D01*
X0068782Y0131990D02*
X0074752Y0131990D01*
X0074113Y0132989D02*
X0069060Y0132989D01*
X0069060Y0133987D02*
X0074101Y0133987D01*
X0074101Y0134986D02*
X0068968Y0134986D01*
X0069060Y0135984D02*
X0077660Y0135984D01*
X0077660Y0134986D02*
X0078660Y0134986D01*
X0078660Y0133987D02*
X0077660Y0133987D01*
X0077660Y0132989D02*
X0078660Y0132989D01*
X0078660Y0131990D02*
X0077660Y0131990D01*
X0081567Y0131990D02*
X0082475Y0131990D01*
X0078660Y0136983D02*
X0077660Y0136983D01*
X0077660Y0137981D02*
X0078660Y0137981D01*
X0078660Y0138980D02*
X0077660Y0138980D01*
X0077660Y0139978D02*
X0078660Y0139978D01*
X0081966Y0139978D02*
X0082073Y0139978D01*
X0074354Y0139978D02*
X0069060Y0139978D01*
X0068405Y0138980D02*
X0074101Y0138980D01*
X0074101Y0137981D02*
X0069060Y0137981D01*
X0069060Y0136983D02*
X0074101Y0136983D01*
X0062591Y0135984D02*
X0052724Y0135984D01*
X0052724Y0134986D02*
X0062149Y0134986D01*
X0062057Y0133987D02*
X0052724Y0133987D01*
X0052724Y0132989D02*
X0062057Y0132989D01*
X0062335Y0131990D02*
X0052724Y0131990D01*
X0052724Y0130992D02*
X0063333Y0130992D01*
X0062057Y0136983D02*
X0052724Y0136983D01*
X0052724Y0137981D02*
X0062057Y0137981D01*
X0062057Y0138980D02*
X0052724Y0138980D01*
X0052724Y0139978D02*
X0062892Y0139978D01*
X0063191Y0140977D02*
X0052724Y0140977D01*
X0052724Y0141976D02*
X0063191Y0141976D01*
X0063191Y0142974D02*
X0052724Y0142974D01*
X0052724Y0143973D02*
X0063191Y0143973D01*
X0063239Y0144971D02*
X0052724Y0144971D01*
X0052724Y0145970D02*
X0062521Y0145970D01*
X0062057Y0146968D02*
X0052724Y0146968D01*
X0052724Y0147967D02*
X0062057Y0147967D01*
X0062057Y0148965D02*
X0052724Y0148965D01*
X0052724Y0149964D02*
X0062210Y0149964D01*
X0061490Y0150962D02*
X0052724Y0150962D01*
X0052724Y0151961D02*
X0061490Y0151961D01*
X0062274Y0152959D02*
X0052724Y0152959D01*
X0052724Y0153958D02*
X0059000Y0153958D01*
X0058139Y0154956D02*
X0052724Y0154956D01*
X0052724Y0155955D02*
X0058139Y0155955D01*
X0058139Y0156953D02*
X0052724Y0156953D01*
X0052724Y0157952D02*
X0058139Y0157952D01*
X0058139Y0158950D02*
X0052724Y0158950D01*
X0052724Y0159949D02*
X0058139Y0159949D01*
X0058139Y0160947D02*
X0052724Y0160947D01*
X0052724Y0161946D02*
X0058139Y0161946D01*
X0058139Y0162944D02*
X0052724Y0162944D01*
X0052724Y0163943D02*
X0058146Y0163943D01*
X0052724Y0164941D02*
X0073821Y0164941D01*
X0072823Y0165940D02*
X0052724Y0165940D01*
X0052724Y0166938D02*
X0072366Y0166938D01*
X0072099Y0167937D02*
X0052724Y0167937D01*
X0052724Y0168935D02*
X0072099Y0168935D01*
X0072369Y0169934D02*
X0052724Y0169934D01*
X0052724Y0170932D02*
X0072830Y0170932D01*
X0073828Y0171931D02*
X0052724Y0171931D01*
X0052724Y0188906D02*
X0073480Y0188906D01*
X0079571Y0182914D02*
X0079792Y0182914D01*
X0079792Y0181916D02*
X0078264Y0181916D01*
X0080376Y0166938D02*
X0102100Y0166938D01*
X0102100Y0165940D02*
X0079919Y0165940D01*
X0092635Y0162944D02*
X0102100Y0162944D01*
X0102100Y0161946D02*
X0092635Y0161946D01*
X0092635Y0160947D02*
X0102100Y0160947D01*
X0102100Y0159949D02*
X0092635Y0159949D01*
X0092635Y0158950D02*
X0102100Y0158950D01*
X0102100Y0157952D02*
X0092635Y0157952D01*
X0092635Y0156953D02*
X0102100Y0156953D01*
X0102100Y0155955D02*
X0092635Y0155955D01*
X0092635Y0154956D02*
X0102100Y0154956D01*
X0102100Y0153958D02*
X0091773Y0153958D01*
X0121160Y0174185D02*
X0140900Y0174185D01*
X0142246Y0175532D01*
X0142246Y0179185D01*
X0145912Y0179919D02*
X0157799Y0179919D01*
X0157083Y0180917D02*
X0145912Y0180917D01*
X0145796Y0181916D02*
X0145771Y0181916D01*
X0144644Y0174926D02*
X0144246Y0174926D01*
X0144644Y0173928D02*
X0143471Y0173928D01*
X0142472Y0172929D02*
X0144644Y0172929D01*
X0144805Y0171931D02*
X0139418Y0171931D01*
X0136531Y0171931D02*
X0135531Y0171931D01*
X0135531Y0170932D02*
X0136531Y0170932D01*
X0136531Y0169934D02*
X0135531Y0169934D01*
X0135531Y0168935D02*
X0136531Y0168935D01*
X0132645Y0171931D02*
X0131977Y0171931D01*
X0125125Y0171931D02*
X0123460Y0171931D01*
X0123460Y0170932D02*
X0124492Y0170932D01*
X0126235Y0182914D02*
X0126922Y0182914D01*
X0131223Y0187907D02*
X0132447Y0187907D01*
X0132447Y0188906D02*
X0131223Y0188906D01*
X0131223Y0189904D02*
X0132735Y0189904D01*
X0132640Y0190903D02*
X0131223Y0190903D01*
X0131223Y0191901D02*
X0132640Y0191901D01*
X0132640Y0192900D02*
X0130611Y0192900D01*
X0141160Y0196894D02*
X0206613Y0196894D01*
X0206613Y0195895D02*
X0154160Y0195895D01*
X0155169Y0194897D02*
X0206613Y0194897D01*
X0194817Y0187907D02*
X0193849Y0187907D01*
X0193849Y0186909D02*
X0194817Y0186909D01*
X0194817Y0185910D02*
X0193849Y0185910D01*
X0193849Y0183913D02*
X0194817Y0183913D01*
X0194817Y0182914D02*
X0193849Y0182914D01*
X0193849Y0181916D02*
X0194817Y0181916D01*
X0183778Y0185910D02*
X0174283Y0185910D01*
X0174353Y0186909D02*
X0183778Y0186909D01*
X0184017Y0187907D02*
X0174353Y0187907D01*
X0170400Y0190903D02*
X0169400Y0190903D01*
X0169400Y0191901D02*
X0170400Y0191901D01*
X0170400Y0192900D02*
X0169400Y0192900D01*
X0173859Y0173928D02*
X0173941Y0173928D01*
X0173941Y0172929D02*
X0173859Y0172929D01*
X0173859Y0171931D02*
X0173941Y0171931D01*
X0173941Y0170932D02*
X0173859Y0170932D01*
X0179835Y0170932D02*
X0181325Y0170932D01*
X0180326Y0171931D02*
X0180223Y0171931D01*
X0201933Y0139947D02*
X0201933Y0135984D01*
X0205897Y0135984D01*
X0205808Y0136546D01*
X0205590Y0137215D01*
X0205271Y0137842D01*
X0204857Y0138411D01*
X0204360Y0138908D01*
X0203791Y0139322D01*
X0203164Y0139641D01*
X0202495Y0139858D01*
X0201933Y0139947D01*
X0201933Y0138980D02*
X0200965Y0138980D01*
X0200965Y0137981D02*
X0201933Y0137981D01*
X0201933Y0136983D02*
X0200965Y0136983D01*
X0200965Y0135984D02*
X0201933Y0135984D01*
X0201933Y0134986D02*
X0200965Y0134986D01*
X0200965Y0133987D02*
X0201933Y0133987D01*
X0201933Y0132989D02*
X0200965Y0132989D01*
X0200965Y0131990D02*
X0201933Y0131990D01*
X0204221Y0131990D02*
X0208639Y0131990D01*
X0207653Y0132989D02*
X0205148Y0132989D01*
X0205656Y0133987D02*
X0207239Y0133987D01*
X0206981Y0134986D02*
X0205892Y0134986D01*
X0205897Y0135984D02*
X0206981Y0135984D01*
X0207227Y0136983D02*
X0205666Y0136983D01*
X0205170Y0137981D02*
X0207640Y0137981D01*
X0208610Y0138980D02*
X0204262Y0138980D01*
X0215965Y0119010D02*
X0216933Y0119010D01*
X0216933Y0118011D02*
X0215965Y0118011D01*
X0215965Y0117013D02*
X0216933Y0117013D01*
X0216933Y0116014D02*
X0215965Y0116014D01*
X0215965Y0114017D02*
X0216933Y0114017D01*
X0216933Y0113019D02*
X0215965Y0113019D01*
X0215965Y0112020D02*
X0216933Y0112020D01*
X0213636Y0112020D02*
X0159289Y0112020D01*
X0160258Y0113019D02*
X0212728Y0113019D01*
X0213654Y0109025D02*
X0159244Y0109025D01*
X0160239Y0108026D02*
X0212659Y0108026D01*
X0212245Y0107028D02*
X0160653Y0107028D01*
X0160918Y0106029D02*
X0211981Y0106029D01*
X0211981Y0105031D02*
X0160918Y0105031D01*
X0160678Y0104032D02*
X0212220Y0104032D01*
X0212634Y0103034D02*
X0160264Y0103034D01*
X0159304Y0102035D02*
X0213595Y0102035D01*
X0218956Y0099040D02*
X0225974Y0099040D01*
X0225974Y0100038D02*
X0141459Y0100038D01*
X0130266Y0110552D02*
X0135215Y0115500D01*
X0156449Y0115500D01*
X0153609Y0112020D02*
X0134563Y0112020D01*
X0135562Y0113019D02*
X0152640Y0113019D01*
X0134900Y0119185D02*
X0128825Y0113111D01*
X0122294Y0113111D01*
X0122294Y0110552D02*
X0130266Y0110552D01*
X0130805Y0143973D02*
X0131395Y0143973D01*
X0119441Y0182914D02*
X0118731Y0182914D01*
X0058487Y0189904D02*
X0052724Y0189904D01*
X0052724Y0190903D02*
X0058139Y0190903D01*
X0058139Y0191901D02*
X0052724Y0191901D01*
X0052724Y0192900D02*
X0058139Y0192900D01*
X0058139Y0193898D02*
X0052724Y0193898D01*
X0052724Y0194897D02*
X0058139Y0194897D01*
X0058139Y0195895D02*
X0052724Y0195895D01*
X0052724Y0196894D02*
X0058139Y0196894D01*
X0058139Y0197892D02*
X0052724Y0197892D01*
X0052724Y0118011D02*
X0063023Y0118011D01*
X0062057Y0117013D02*
X0052724Y0117013D01*
X0052724Y0116014D02*
X0062057Y0116014D01*
X0062595Y0115016D02*
X0052724Y0115016D01*
X0052724Y0114017D02*
X0063191Y0114017D01*
X0063415Y0113019D02*
X0052724Y0113019D01*
X0052724Y0112020D02*
X0063191Y0112020D01*
X0063191Y0111022D02*
X0052724Y0111022D01*
X0052724Y0110023D02*
X0063338Y0110023D01*
X0063191Y0109025D02*
X0052724Y0109025D01*
X0052724Y0108026D02*
X0063191Y0108026D01*
X0063191Y0107028D02*
X0052724Y0107028D01*
X0052724Y0106029D02*
X0063191Y0106029D01*
X0063191Y0105031D02*
X0052724Y0105031D01*
X0052724Y0104032D02*
X0063191Y0104032D01*
X0063191Y0103034D02*
X0052724Y0103034D01*
X0052724Y0102035D02*
X0061686Y0102035D01*
X0061490Y0101037D02*
X0052724Y0101037D01*
X0052724Y0100038D02*
X0061800Y0100038D01*
X0063191Y0099040D02*
X0052724Y0099040D01*
X0052724Y0098041D02*
X0063191Y0098041D01*
X0063191Y0097042D02*
X0052724Y0097042D01*
X0052724Y0096044D02*
X0063629Y0096044D01*
X0063191Y0095045D02*
X0052724Y0095045D01*
X0052724Y0094047D02*
X0063191Y0094047D01*
X0063182Y0093048D02*
X0052724Y0093048D01*
X0052724Y0092050D02*
X0062183Y0092050D01*
X0062057Y0091051D02*
X0052724Y0091051D01*
X0052724Y0090053D02*
X0062057Y0090053D01*
X0062057Y0089054D02*
X0057395Y0089054D01*
X0062721Y0088056D02*
X0062732Y0088056D01*
X0069060Y0101037D02*
X0078341Y0101037D01*
X0078341Y0102035D02*
X0069060Y0102035D01*
X0069858Y0103034D02*
X0078341Y0103034D01*
X0078475Y0104032D02*
X0070194Y0104032D01*
X0081841Y0104032D02*
X0082841Y0104032D01*
X0082841Y0103034D02*
X0081841Y0103034D01*
X0081841Y0102035D02*
X0082841Y0102035D01*
X0082841Y0101037D02*
X0081841Y0101037D01*
X0081841Y0098041D02*
X0082841Y0098041D01*
X0082841Y0097042D02*
X0081841Y0097042D01*
X0081841Y0096044D02*
X0082841Y0096044D01*
X0082841Y0095045D02*
X0081841Y0095045D01*
X0081841Y0094047D02*
X0082841Y0094047D01*
X0121711Y0070374D02*
X0131900Y0060185D01*
X0181764Y0060185D01*
X0216449Y0025500D01*
X0220123Y0028145D02*
X0225974Y0028145D01*
X0225974Y0027147D02*
X0220604Y0027147D01*
X0220918Y0026148D02*
X0225974Y0026148D01*
X0225974Y0025150D02*
X0220918Y0025150D01*
X0220727Y0024151D02*
X0225974Y0024151D01*
X0225974Y0023153D02*
X0220313Y0023153D01*
X0219423Y0022154D02*
X0225974Y0022154D01*
X0225974Y0021156D02*
X0217638Y0021156D01*
X0213475Y0022154D02*
X0212623Y0022154D01*
X0212585Y0023153D02*
X0211625Y0023153D01*
X0212171Y0024151D02*
X0210626Y0024151D01*
X0209628Y0025150D02*
X0211981Y0025150D01*
X0211981Y0026148D02*
X0208629Y0026148D01*
X0207631Y0027147D02*
X0211974Y0027147D01*
X0210975Y0028145D02*
X0206632Y0028145D01*
X0205634Y0029144D02*
X0209977Y0029144D01*
X0208978Y0030142D02*
X0204635Y0030142D01*
X0203637Y0031141D02*
X0207980Y0031141D01*
X0206981Y0032139D02*
X0202638Y0032139D01*
X0201640Y0033138D02*
X0205983Y0033138D01*
X0204984Y0034136D02*
X0200641Y0034136D01*
X0199643Y0035135D02*
X0203986Y0035135D01*
X0202987Y0036133D02*
X0198644Y0036133D01*
X0197646Y0037132D02*
X0201989Y0037132D01*
X0200990Y0038130D02*
X0196647Y0038130D01*
X0195649Y0039129D02*
X0199992Y0039129D01*
X0198993Y0040127D02*
X0194650Y0040127D01*
X0193652Y0041126D02*
X0197995Y0041126D01*
X0196996Y0042124D02*
X0192653Y0042124D01*
X0191655Y0043123D02*
X0195998Y0043123D01*
X0194999Y0044121D02*
X0190656Y0044121D01*
X0189658Y0045120D02*
X0194001Y0045120D01*
X0193002Y0046118D02*
X0188659Y0046118D01*
X0187661Y0047117D02*
X0192004Y0047117D01*
X0191005Y0048115D02*
X0186662Y0048115D01*
X0185664Y0049114D02*
X0190007Y0049114D01*
X0189008Y0050112D02*
X0184665Y0050112D01*
X0183666Y0051111D02*
X0188010Y0051111D01*
X0187011Y0052109D02*
X0182668Y0052109D01*
X0185014Y0054107D02*
X0160709Y0054107D01*
X0160918Y0055105D02*
X0184016Y0055105D01*
X0183017Y0056104D02*
X0160918Y0056104D01*
X0160622Y0057102D02*
X0182019Y0057102D01*
X0181020Y0058101D02*
X0160168Y0058101D01*
X0160289Y0063093D02*
X0186028Y0063093D01*
X0187026Y0062095D02*
X0182683Y0062095D01*
X0183681Y0061096D02*
X0188025Y0061096D01*
X0189023Y0060098D02*
X0184680Y0060098D01*
X0185678Y0059099D02*
X0190022Y0059099D01*
X0191020Y0058101D02*
X0186677Y0058101D01*
X0187675Y0057102D02*
X0192019Y0057102D01*
X0193017Y0056104D02*
X0188674Y0056104D01*
X0189672Y0055105D02*
X0194016Y0055105D01*
X0195014Y0054107D02*
X0190671Y0054107D01*
X0191669Y0053108D02*
X0196013Y0053108D01*
X0197011Y0052109D02*
X0192668Y0052109D01*
X0193666Y0051111D02*
X0198010Y0051111D01*
X0199008Y0050112D02*
X0194665Y0050112D01*
X0195664Y0049114D02*
X0200007Y0049114D01*
X0201005Y0048115D02*
X0196662Y0048115D01*
X0197661Y0047117D02*
X0202004Y0047117D01*
X0203002Y0046118D02*
X0198659Y0046118D01*
X0199658Y0045120D02*
X0204001Y0045120D01*
X0204999Y0044121D02*
X0200656Y0044121D01*
X0201655Y0043123D02*
X0205998Y0043123D01*
X0206996Y0042124D02*
X0202653Y0042124D01*
X0203652Y0041126D02*
X0207995Y0041126D01*
X0208993Y0040127D02*
X0204650Y0040127D01*
X0205649Y0039129D02*
X0209992Y0039129D01*
X0210990Y0038130D02*
X0206647Y0038130D01*
X0207646Y0037132D02*
X0211989Y0037132D01*
X0211981Y0036133D02*
X0208644Y0036133D01*
X0209643Y0035135D02*
X0211981Y0035135D01*
X0212177Y0034136D02*
X0210641Y0034136D01*
X0211640Y0033138D02*
X0212591Y0033138D01*
X0212638Y0032139D02*
X0213490Y0032139D01*
X0213637Y0031141D02*
X0215296Y0031141D01*
X0214635Y0030142D02*
X0225974Y0030142D01*
X0225974Y0029144D02*
X0219125Y0029144D01*
X0217602Y0031141D02*
X0225974Y0031141D01*
X0225974Y0032139D02*
X0219408Y0032139D01*
X0220307Y0033138D02*
X0225974Y0033138D01*
X0225974Y0034136D02*
X0220721Y0034136D01*
X0220918Y0035135D02*
X0225974Y0035135D01*
X0225974Y0036133D02*
X0220918Y0036133D01*
X0220610Y0037132D02*
X0225974Y0037132D01*
X0225974Y0038130D02*
X0220138Y0038130D01*
X0217566Y0041126D02*
X0225974Y0041126D01*
X0225974Y0042124D02*
X0219393Y0042124D01*
X0220301Y0043123D02*
X0225974Y0043123D01*
X0225974Y0044121D02*
X0220715Y0044121D01*
X0220918Y0045120D02*
X0225974Y0045120D01*
X0225974Y0046118D02*
X0220918Y0046118D01*
X0220616Y0047117D02*
X0225974Y0047117D01*
X0225974Y0048115D02*
X0220153Y0048115D01*
X0219155Y0049114D02*
X0225974Y0049114D01*
X0225974Y0050112D02*
X0204665Y0050112D01*
X0217530Y0051111D02*
X0225974Y0051111D01*
X0225974Y0052109D02*
X0219378Y0052109D01*
X0220295Y0053108D02*
X0225974Y0053108D01*
X0225974Y0054107D02*
X0220709Y0054107D01*
X0220918Y0055105D02*
X0225974Y0055105D01*
X0225974Y0056104D02*
X0220918Y0056104D01*
X0220622Y0057102D02*
X0225974Y0057102D01*
X0225974Y0058101D02*
X0220168Y0058101D01*
X0219169Y0059099D02*
X0225974Y0059099D01*
X0225974Y0062095D02*
X0219363Y0062095D01*
X0220289Y0063093D02*
X0225974Y0063093D01*
X0225974Y0064092D02*
X0220702Y0064092D01*
X0220918Y0065090D02*
X0225974Y0065090D01*
X0225974Y0066089D02*
X0220918Y0066089D01*
X0220628Y0067087D02*
X0225974Y0067087D01*
X0225974Y0068086D02*
X0220183Y0068086D01*
X0219184Y0069084D02*
X0225974Y0069084D01*
X0225974Y0072080D02*
X0219348Y0072080D01*
X0220283Y0073078D02*
X0225974Y0073078D01*
X0225974Y0074077D02*
X0220696Y0074077D01*
X0220918Y0075075D02*
X0225974Y0075075D01*
X0225974Y0076074D02*
X0220918Y0076074D01*
X0220634Y0077072D02*
X0225974Y0077072D01*
X0225974Y0078071D02*
X0220198Y0078071D01*
X0219199Y0079069D02*
X0225974Y0079069D01*
X0225974Y0082065D02*
X0219333Y0082065D01*
X0220276Y0083063D02*
X0225974Y0083063D01*
X0225974Y0084062D02*
X0220690Y0084062D01*
X0220918Y0085060D02*
X0225974Y0085060D01*
X0225974Y0086059D02*
X0220918Y0086059D01*
X0220641Y0087057D02*
X0225974Y0087057D01*
X0225974Y0088056D02*
X0220213Y0088056D01*
X0219214Y0089054D02*
X0225974Y0089054D01*
X0225974Y0092050D02*
X0219046Y0092050D01*
X0220044Y0093048D02*
X0225974Y0093048D01*
X0225974Y0094047D02*
X0220475Y0094047D01*
X0220725Y0095045D02*
X0225974Y0095045D01*
X0225974Y0096044D02*
X0220725Y0096044D01*
X0220438Y0097042D02*
X0225974Y0097042D01*
X0225974Y0098041D02*
X0219955Y0098041D01*
X0182033Y0067087D02*
X0160628Y0067087D01*
X0160918Y0066089D02*
X0183032Y0066089D01*
X0184030Y0065090D02*
X0160918Y0065090D01*
X0160702Y0064092D02*
X0185029Y0064092D01*
X0181035Y0068086D02*
X0160183Y0068086D01*
X0160295Y0053108D02*
X0186013Y0053108D01*
X0181005Y0048115D02*
X0160153Y0048115D01*
X0160616Y0047117D02*
X0182004Y0047117D01*
X0183002Y0046118D02*
X0160918Y0046118D01*
X0160918Y0045120D02*
X0184001Y0045120D01*
X0184999Y0044121D02*
X0160715Y0044121D01*
X0160301Y0043123D02*
X0185998Y0043123D01*
X0186996Y0042124D02*
X0159393Y0042124D01*
X0157566Y0041126D02*
X0187995Y0041126D01*
X0188993Y0040127D02*
X0147905Y0040127D01*
X0146906Y0039129D02*
X0153758Y0039129D01*
X0153918Y0039288D02*
X0152661Y0038031D01*
X0151981Y0036389D01*
X0151981Y0034611D01*
X0152661Y0032969D01*
X0153918Y0031712D01*
X0155560Y0031031D01*
X0157338Y0031031D01*
X0158980Y0031712D01*
X0160237Y0032969D01*
X0160918Y0034611D01*
X0160918Y0036389D01*
X0160237Y0038031D01*
X0158980Y0039288D01*
X0157338Y0039968D01*
X0155560Y0039968D01*
X0153918Y0039288D01*
X0152760Y0038130D02*
X0145908Y0038130D01*
X0144909Y0037132D02*
X0152288Y0037132D01*
X0151981Y0036133D02*
X0143911Y0036133D01*
X0143459Y0035135D02*
X0151981Y0035135D01*
X0152177Y0034136D02*
X0143459Y0034136D01*
X0143459Y0033138D02*
X0152591Y0033138D01*
X0153490Y0032139D02*
X0143459Y0032139D01*
X0143459Y0031141D02*
X0155296Y0031141D01*
X0155560Y0029968D02*
X0153918Y0029288D01*
X0152661Y0028031D01*
X0151981Y0026389D01*
X0151981Y0024611D01*
X0152661Y0022969D01*
X0153918Y0021712D01*
X0155560Y0021031D01*
X0157338Y0021031D01*
X0158980Y0021712D01*
X0160237Y0022969D01*
X0160918Y0024611D01*
X0160918Y0026389D01*
X0160237Y0028031D01*
X0158980Y0029288D01*
X0157338Y0029968D01*
X0155560Y0029968D01*
X0153773Y0029144D02*
X0141558Y0029144D01*
X0140699Y0028145D02*
X0152775Y0028145D01*
X0152294Y0027147D02*
X0140699Y0027147D01*
X0140699Y0026148D02*
X0151981Y0026148D01*
X0151981Y0025150D02*
X0137140Y0025150D01*
X0137140Y0024151D02*
X0136140Y0024151D01*
X0136140Y0023153D02*
X0137140Y0023153D01*
X0137140Y0022154D02*
X0136140Y0022154D01*
X0136140Y0021156D02*
X0137140Y0021156D01*
X0140244Y0021156D02*
X0155261Y0021156D01*
X0153475Y0022154D02*
X0140699Y0022154D01*
X0140699Y0023153D02*
X0152585Y0023153D01*
X0152171Y0024151D02*
X0140699Y0024151D01*
X0142557Y0030142D02*
X0198978Y0030142D01*
X0197980Y0031141D02*
X0157602Y0031141D01*
X0159408Y0032139D02*
X0196981Y0032139D01*
X0195983Y0033138D02*
X0160307Y0033138D01*
X0160721Y0034136D02*
X0194984Y0034136D01*
X0193986Y0035135D02*
X0160918Y0035135D01*
X0160918Y0036133D02*
X0192987Y0036133D01*
X0191989Y0037132D02*
X0160610Y0037132D01*
X0160138Y0038130D02*
X0190990Y0038130D01*
X0189992Y0039129D02*
X0159140Y0039129D01*
X0155332Y0041126D02*
X0148903Y0041126D01*
X0149902Y0042124D02*
X0153505Y0042124D01*
X0152597Y0043123D02*
X0150900Y0043123D01*
X0150449Y0045500D02*
X0141459Y0036510D01*
X0141459Y0031873D01*
X0140580Y0030994D01*
X0134338Y0030994D01*
X0128893Y0036439D01*
X0121711Y0036439D01*
X0117711Y0036133D02*
X0117644Y0036133D01*
X0117644Y0035135D02*
X0117711Y0035135D01*
X0117711Y0034136D02*
X0117644Y0034136D01*
X0117644Y0033138D02*
X0117711Y0033138D01*
X0117711Y0032139D02*
X0117644Y0032139D01*
X0118451Y0031141D02*
X0115944Y0031141D01*
X0116923Y0030142D02*
X0132362Y0030142D01*
X0132562Y0029144D02*
X0132965Y0029144D01*
X0131363Y0031141D02*
X0124971Y0031141D01*
X0125711Y0032139D02*
X0130365Y0032139D01*
X0129366Y0033138D02*
X0125711Y0033138D01*
X0125711Y0034136D02*
X0128367Y0034136D01*
X0131029Y0037132D02*
X0133459Y0037132D01*
X0133459Y0038130D02*
X0130030Y0038130D01*
X0132027Y0036133D02*
X0133459Y0036133D01*
X0133459Y0035135D02*
X0133026Y0035135D01*
X0133459Y0039129D02*
X0125711Y0039129D01*
X0125711Y0040127D02*
X0133459Y0040127D01*
X0133595Y0041126D02*
X0125583Y0041126D01*
X0117839Y0041126D02*
X0117436Y0041126D01*
X0117644Y0040127D02*
X0117711Y0040127D01*
X0117711Y0039129D02*
X0117644Y0039129D01*
X0117644Y0038130D02*
X0117711Y0038130D01*
X0117711Y0037132D02*
X0117644Y0037132D01*
X0117922Y0029144D02*
X0125758Y0029144D01*
X0125294Y0028145D02*
X0123571Y0028145D01*
X0120229Y0028145D02*
X0118920Y0028145D01*
X0115956Y0025150D02*
X0114100Y0025150D01*
X0114100Y0026148D02*
X0114957Y0026148D01*
X0114100Y0024151D02*
X0116954Y0024151D01*
X0117953Y0023153D02*
X0114100Y0023153D01*
X0114100Y0022154D02*
X0120401Y0022154D01*
X0123399Y0022154D02*
X0125294Y0022154D01*
X0125829Y0021156D02*
X0114100Y0021156D01*
X0114100Y0020157D02*
X0208964Y0020157D01*
X0209110Y0019159D02*
X0209962Y0019159D01*
X0210108Y0018160D02*
X0210961Y0018160D01*
X0210597Y0017162D02*
X0211959Y0017162D01*
X0211981Y0016163D02*
X0210918Y0016163D01*
X0210918Y0015165D02*
X0211981Y0015165D01*
X0212165Y0014166D02*
X0210733Y0014166D01*
X0210320Y0013168D02*
X0212579Y0013168D01*
X0213461Y0012169D02*
X0209438Y0012169D01*
X0203461Y0012169D02*
X0199438Y0012169D01*
X0200320Y0013168D02*
X0202579Y0013168D01*
X0202165Y0014166D02*
X0200733Y0014166D01*
X0200918Y0015165D02*
X0201981Y0015165D01*
X0201981Y0016163D02*
X0200918Y0016163D01*
X0200597Y0017162D02*
X0202301Y0017162D01*
X0202790Y0018160D02*
X0200108Y0018160D01*
X0199110Y0019159D02*
X0203788Y0019159D01*
X0206966Y0022154D02*
X0159423Y0022154D01*
X0160313Y0023153D02*
X0205968Y0023153D01*
X0204969Y0024151D02*
X0160727Y0024151D01*
X0160918Y0025150D02*
X0203971Y0025150D01*
X0202972Y0026148D02*
X0160918Y0026148D01*
X0160604Y0027147D02*
X0201974Y0027147D01*
X0200975Y0028145D02*
X0160123Y0028145D01*
X0159125Y0029144D02*
X0199977Y0029144D01*
X0207965Y0021156D02*
X0157638Y0021156D01*
X0159110Y0019159D02*
X0183882Y0019159D01*
X0184107Y0019322D02*
X0183538Y0018908D01*
X0183041Y0018411D01*
X0182627Y0017842D01*
X0182308Y0017215D01*
X0182091Y0016546D01*
X0182002Y0015984D01*
X0185965Y0015984D01*
X0185965Y0019947D01*
X0185403Y0019858D01*
X0184734Y0019641D01*
X0184107Y0019322D01*
X0182858Y0018160D02*
X0160108Y0018160D01*
X0160597Y0017162D02*
X0182290Y0017162D01*
X0182030Y0016163D02*
X0160918Y0016163D01*
X0160918Y0015165D02*
X0185965Y0015165D01*
X0186933Y0015165D02*
X0191981Y0015165D01*
X0191981Y0016163D02*
X0190868Y0016163D01*
X0190897Y0015984D02*
X0190808Y0016546D01*
X0190590Y0017215D01*
X0190271Y0017842D01*
X0189857Y0018411D01*
X0189360Y0018908D01*
X0188791Y0019322D01*
X0188164Y0019641D01*
X0187495Y0019858D01*
X0186933Y0019947D01*
X0186933Y0015984D01*
X0190897Y0015984D01*
X0190608Y0017162D02*
X0192301Y0017162D01*
X0192790Y0018160D02*
X0190040Y0018160D01*
X0189016Y0019159D02*
X0193788Y0019159D01*
X0192165Y0014166D02*
X0190714Y0014166D01*
X0190276Y0013168D02*
X0192579Y0013168D01*
X0193461Y0012169D02*
X0189438Y0012169D01*
X0186933Y0012169D02*
X0185965Y0012169D01*
X0185965Y0013168D02*
X0186933Y0013168D01*
X0186933Y0014166D02*
X0185965Y0014166D01*
X0185965Y0016163D02*
X0186933Y0016163D01*
X0186933Y0017162D02*
X0185965Y0017162D01*
X0185965Y0018160D02*
X0186933Y0018160D01*
X0186933Y0019159D02*
X0185965Y0019159D01*
X0182184Y0014166D02*
X0160733Y0014166D01*
X0160320Y0013168D02*
X0182622Y0013168D01*
X0183461Y0012169D02*
X0159438Y0012169D01*
X0133037Y0021156D02*
X0132490Y0021156D01*
X0137459Y0036431D02*
X0137386Y0036505D01*
X0150449Y0045500D02*
X0156449Y0045500D01*
X0114100Y0010172D02*
X0225974Y0010172D01*
X0225974Y0009173D02*
X0114002Y0009173D01*
X0105100Y0012169D02*
X0104888Y0012169D01*
X0104888Y0013168D02*
X0105100Y0013168D01*
X0105100Y0014166D02*
X0104888Y0014166D01*
X0104888Y0015165D02*
X0105100Y0015165D01*
X0105100Y0016163D02*
X0104888Y0016163D01*
X0104888Y0017162D02*
X0105100Y0017162D01*
X0105100Y0019159D02*
X0104888Y0019159D01*
X0104888Y0020157D02*
X0105100Y0020157D01*
X0105100Y0021156D02*
X0104888Y0021156D01*
X0104888Y0022154D02*
X0105100Y0022154D01*
X0105100Y0023153D02*
X0104888Y0023153D01*
X0105100Y0024151D02*
X0103100Y0024151D01*
X0103100Y0025150D02*
X0105100Y0025150D01*
X0105100Y0026148D02*
X0103100Y0026148D01*
X0103168Y0027147D02*
X0105157Y0027147D01*
X0106066Y0028145D02*
X0103582Y0028145D01*
X0103600Y0029144D02*
X0111962Y0029144D01*
X0111730Y0030142D02*
X0103450Y0030142D01*
X0103037Y0031141D02*
X0111730Y0031141D01*
X0110030Y0032139D02*
X0102103Y0032139D01*
X0109100Y0028145D02*
X0110100Y0028145D01*
X0110100Y0027147D02*
X0109100Y0027147D01*
X0109100Y0026148D02*
X0110100Y0026148D01*
X0110100Y0025150D02*
X0109100Y0025150D01*
X0109100Y0024151D02*
X0110100Y0024151D01*
X0110100Y0023153D02*
X0109100Y0023153D01*
X0109100Y0022154D02*
X0110100Y0022154D01*
X0110100Y0021156D02*
X0109100Y0021156D01*
X0109100Y0020157D02*
X0110100Y0020157D01*
X0110100Y0019159D02*
X0109100Y0019159D01*
X0101992Y0013168D02*
X0097208Y0013168D01*
X0096379Y0012169D02*
X0102821Y0012169D01*
X0100410Y0008175D02*
X0215965Y0008175D01*
X0110238Y0041126D02*
X0094014Y0041126D01*
X0094215Y0040127D02*
X0110030Y0040127D01*
X0110030Y0039129D02*
X0094215Y0039129D01*
X0094215Y0038130D02*
X0110030Y0038130D01*
X0110030Y0037132D02*
X0094215Y0037132D01*
X0085100Y0026148D02*
X0082209Y0026148D01*
X0081837Y0027045D02*
X0082965Y0024323D01*
X0082965Y0021377D01*
X0081837Y0018655D01*
X0079754Y0016572D01*
X0077032Y0015444D01*
X0074086Y0015444D01*
X0071364Y0016572D01*
X0069281Y0018655D01*
X0068154Y0021377D01*
X0068154Y0024323D01*
X0069281Y0027045D01*
X0071364Y0029128D01*
X0074086Y0030255D01*
X0077032Y0030255D01*
X0079754Y0029128D01*
X0081837Y0027045D01*
X0081735Y0027147D02*
X0082786Y0027147D01*
X0081787Y0028145D02*
X0080737Y0028145D01*
X0080789Y0029144D02*
X0079716Y0029144D01*
X0080000Y0030142D02*
X0077305Y0030142D01*
X0079081Y0031141D02*
X0062298Y0031141D01*
X0058231Y0030982D02*
X0058231Y0030982D01*
X0047396Y0030142D02*
X0073813Y0030142D01*
X0072479Y0032139D02*
X0078341Y0032139D01*
X0078341Y0033138D02*
X0072719Y0033138D01*
X0072701Y0034136D02*
X0078341Y0034136D01*
X0078341Y0035135D02*
X0072702Y0035135D01*
X0072703Y0036133D02*
X0078341Y0036133D01*
X0078341Y0037132D02*
X0072704Y0037132D01*
X0072705Y0038130D02*
X0078341Y0038130D01*
X0078341Y0039129D02*
X0072706Y0039129D01*
X0072707Y0040127D02*
X0078341Y0040127D01*
X0071402Y0029144D02*
X0047153Y0029144D01*
X0043910Y0028145D02*
X0070382Y0028145D01*
X0069383Y0027147D02*
X0038263Y0027147D01*
X0032616Y0026148D02*
X0068910Y0026148D01*
X0068496Y0025150D02*
X0026970Y0025150D01*
X0022241Y0021156D02*
X0068245Y0021156D01*
X0068154Y0022154D02*
X0015931Y0022154D01*
X0016368Y0023153D02*
X0068154Y0023153D01*
X0068154Y0024151D02*
X0021624Y0024151D01*
X0028551Y0020157D02*
X0068659Y0020157D01*
X0069073Y0019159D02*
X0034861Y0019159D01*
X0041170Y0018160D02*
X0069776Y0018160D01*
X0070775Y0017162D02*
X0046750Y0017162D01*
X0047366Y0016163D02*
X0072351Y0016163D01*
X0071703Y0014166D02*
X0085100Y0014166D01*
X0085100Y0013168D02*
X0075502Y0013168D01*
X0075502Y0012169D02*
X0085100Y0012169D01*
X0085100Y0011171D02*
X0075502Y0011171D01*
X0078767Y0016163D02*
X0085100Y0016163D01*
X0085100Y0015165D02*
X0047307Y0015165D01*
X0060585Y0014604D02*
X0060585Y0014604D01*
X0080344Y0017162D02*
X0085100Y0017162D01*
X0085100Y0019159D02*
X0082046Y0019159D01*
X0082459Y0020157D02*
X0085100Y0020157D01*
X0085100Y0021156D02*
X0082873Y0021156D01*
X0082965Y0022154D02*
X0085100Y0022154D01*
X0085100Y0023153D02*
X0082965Y0023153D01*
X0082965Y0024151D02*
X0085100Y0024151D01*
X0085100Y0025150D02*
X0082622Y0025150D01*
X0081342Y0018160D02*
X0089100Y0018160D01*
X0085100Y0010172D02*
X0081245Y0010172D01*
D32*
X0106556Y0033849D03*
D33*
X0137459Y0036431D02*
X0137900Y0047185D01*
X0156449Y0125500D02*
X0156449Y0139380D01*
X0156272Y0139557D01*
X0157900Y0141185D01*
X0168900Y0141185D01*
X0171449Y0138636D01*
X0171449Y0135500D01*
X0143537Y0147568D02*
X0140120Y0150985D01*
X0133853Y0150985D01*
X0134053Y0146585D02*
X0134053Y0141233D01*
X0137000Y0138285D01*
X0141267Y0138285D01*
X0141337Y0138356D01*
X0107000Y0146500D02*
X0107000Y0172985D01*
X0100035Y0179951D01*
X0099328Y0180243D02*
X0086213Y0180243D01*
X0086234Y0177285D02*
X0086240Y0177258D01*
X0086244Y0177230D01*
X0086244Y0177201D01*
X0086241Y0177173D01*
X0086235Y0177146D01*
X0086225Y0177119D01*
X0086213Y0177093D01*
X0086213Y0177094D02*
X0098377Y0177094D01*
X0099084Y0176801D02*
X0103907Y0171978D01*
X0104200Y0171271D02*
X0104200Y0147085D01*
X0101227Y0144112D01*
X0100520Y0143819D02*
X0093506Y0143819D01*
X0093567Y0141285D02*
X0102200Y0141285D01*
X0106707Y0145793D01*
X0106749Y0145837D01*
X0106787Y0145883D01*
X0106823Y0145932D01*
X0106856Y0145983D01*
X0106885Y0146035D01*
X0106912Y0146090D01*
X0106935Y0146145D01*
X0106955Y0146202D01*
X0106971Y0146261D01*
X0106984Y0146320D01*
X0106993Y0146379D01*
X0106998Y0146440D01*
X0107000Y0146500D01*
X0101227Y0144112D02*
X0101183Y0144070D01*
X0101137Y0144032D01*
X0101088Y0143996D01*
X0101037Y0143963D01*
X0100985Y0143934D01*
X0100930Y0143907D01*
X0100875Y0143884D01*
X0100818Y0143864D01*
X0100759Y0143848D01*
X0100700Y0143835D01*
X0100641Y0143826D01*
X0100580Y0143821D01*
X0100520Y0143819D01*
X0093567Y0141285D02*
X0093550Y0141283D01*
X0093534Y0141278D01*
X0093519Y0141271D01*
X0093506Y0141260D01*
X0101293Y0131478D02*
X0104900Y0135085D01*
X0101293Y0131478D02*
X0101249Y0131436D01*
X0101203Y0131398D01*
X0101154Y0131362D01*
X0101103Y0131329D01*
X0101051Y0131300D01*
X0100996Y0131273D01*
X0100941Y0131250D01*
X0100884Y0131230D01*
X0100825Y0131214D01*
X0100766Y0131201D01*
X0100707Y0131192D01*
X0100646Y0131187D01*
X0100586Y0131185D01*
X0093668Y0131185D01*
X0093506Y0131024D01*
X0084739Y0131024D01*
X0081900Y0128185D01*
X0081900Y0124697D01*
X0120900Y0168666D02*
X0121160Y0168926D01*
X0104200Y0171271D02*
X0104198Y0171331D01*
X0104193Y0171392D01*
X0104184Y0171451D01*
X0104171Y0171510D01*
X0104155Y0171569D01*
X0104135Y0171626D01*
X0104112Y0171681D01*
X0104085Y0171736D01*
X0104056Y0171788D01*
X0104023Y0171839D01*
X0103987Y0171888D01*
X0103949Y0171934D01*
X0103907Y0171978D01*
X0099084Y0176801D02*
X0099040Y0176843D01*
X0098994Y0176881D01*
X0098945Y0176917D01*
X0098894Y0176950D01*
X0098842Y0176979D01*
X0098787Y0177006D01*
X0098732Y0177029D01*
X0098675Y0177049D01*
X0098616Y0177065D01*
X0098557Y0177078D01*
X0098498Y0177087D01*
X0098437Y0177092D01*
X0098377Y0177094D01*
X0099328Y0180243D02*
X0099388Y0180241D01*
X0099449Y0180236D01*
X0099508Y0180227D01*
X0099567Y0180214D01*
X0099626Y0180198D01*
X0099683Y0180178D01*
X0099738Y0180155D01*
X0099793Y0180128D01*
X0099845Y0180099D01*
X0099896Y0180066D01*
X0099945Y0180030D01*
X0099991Y0179992D01*
X0100035Y0179950D01*
D34*
X0120900Y0161185D03*
X0113900Y0082185D03*
X0137900Y0047185D03*
X0121900Y0025185D03*
D35*
X0146000Y0130585D03*
X0104900Y0135085D03*
X0159900Y0182185D03*
X0159900Y0187185D03*
M02*
