G75*
%MOIN*%
%OFA0B0*%
%FSLAX25Y25*%
%IPPOS*%
%LPD*%
%AMOC8*
5,1,8,0,0,1.08239X$1,22.5*
%
%ADD10C,0.00000*%
%ADD11C,0.00450*%
D10*
X0004557Y0022435D02*
X0025391Y0026394D01*
X0045891Y0030019D01*
X0045960Y0031852D01*
X0046030Y0032019D01*
X0058794Y0032505D01*
X0071224Y0032991D01*
X0071200Y0032985D02*
X0071225Y0058990D01*
X0071224Y0058963D02*
X0071224Y0084935D01*
X0051224Y0088685D01*
X0051224Y0199797D01*
X0227474Y0199797D01*
X0227474Y0006741D01*
X0166919Y0006394D01*
X0106363Y0006047D01*
X0074002Y0009419D01*
X0074002Y0012574D01*
X0059905Y0013130D01*
X0045807Y0013685D01*
X0045807Y0015908D01*
X0004557Y0022435D01*
X0069653Y0022850D02*
X0069655Y0023003D01*
X0069661Y0023157D01*
X0069671Y0023310D01*
X0069685Y0023462D01*
X0069703Y0023615D01*
X0069725Y0023766D01*
X0069750Y0023917D01*
X0069780Y0024068D01*
X0069814Y0024218D01*
X0069851Y0024366D01*
X0069892Y0024514D01*
X0069937Y0024660D01*
X0069986Y0024806D01*
X0070039Y0024950D01*
X0070095Y0025092D01*
X0070155Y0025233D01*
X0070219Y0025373D01*
X0070286Y0025511D01*
X0070357Y0025647D01*
X0070432Y0025781D01*
X0070509Y0025913D01*
X0070591Y0026043D01*
X0070675Y0026171D01*
X0070763Y0026297D01*
X0070854Y0026420D01*
X0070948Y0026541D01*
X0071046Y0026659D01*
X0071146Y0026775D01*
X0071250Y0026888D01*
X0071356Y0026999D01*
X0071465Y0027107D01*
X0071577Y0027212D01*
X0071691Y0027313D01*
X0071809Y0027412D01*
X0071928Y0027508D01*
X0072050Y0027601D01*
X0072175Y0027690D01*
X0072302Y0027777D01*
X0072431Y0027859D01*
X0072562Y0027939D01*
X0072695Y0028015D01*
X0072830Y0028088D01*
X0072967Y0028157D01*
X0073106Y0028222D01*
X0073246Y0028284D01*
X0073388Y0028342D01*
X0073531Y0028397D01*
X0073676Y0028448D01*
X0073822Y0028495D01*
X0073969Y0028538D01*
X0074117Y0028577D01*
X0074266Y0028613D01*
X0074416Y0028644D01*
X0074567Y0028672D01*
X0074718Y0028696D01*
X0074871Y0028716D01*
X0075023Y0028732D01*
X0075176Y0028744D01*
X0075329Y0028752D01*
X0075482Y0028756D01*
X0075636Y0028756D01*
X0075789Y0028752D01*
X0075942Y0028744D01*
X0076095Y0028732D01*
X0076247Y0028716D01*
X0076400Y0028696D01*
X0076551Y0028672D01*
X0076702Y0028644D01*
X0076852Y0028613D01*
X0077001Y0028577D01*
X0077149Y0028538D01*
X0077296Y0028495D01*
X0077442Y0028448D01*
X0077587Y0028397D01*
X0077730Y0028342D01*
X0077872Y0028284D01*
X0078012Y0028222D01*
X0078151Y0028157D01*
X0078288Y0028088D01*
X0078423Y0028015D01*
X0078556Y0027939D01*
X0078687Y0027859D01*
X0078816Y0027777D01*
X0078943Y0027690D01*
X0079068Y0027601D01*
X0079190Y0027508D01*
X0079309Y0027412D01*
X0079427Y0027313D01*
X0079541Y0027212D01*
X0079653Y0027107D01*
X0079762Y0026999D01*
X0079868Y0026888D01*
X0079972Y0026775D01*
X0080072Y0026659D01*
X0080170Y0026541D01*
X0080264Y0026420D01*
X0080355Y0026297D01*
X0080443Y0026171D01*
X0080527Y0026043D01*
X0080609Y0025913D01*
X0080686Y0025781D01*
X0080761Y0025647D01*
X0080832Y0025511D01*
X0080899Y0025373D01*
X0080963Y0025233D01*
X0081023Y0025092D01*
X0081079Y0024950D01*
X0081132Y0024806D01*
X0081181Y0024660D01*
X0081226Y0024514D01*
X0081267Y0024366D01*
X0081304Y0024218D01*
X0081338Y0024068D01*
X0081368Y0023917D01*
X0081393Y0023766D01*
X0081415Y0023615D01*
X0081433Y0023462D01*
X0081447Y0023310D01*
X0081457Y0023157D01*
X0081463Y0023003D01*
X0081465Y0022850D01*
X0081463Y0022697D01*
X0081457Y0022543D01*
X0081447Y0022390D01*
X0081433Y0022238D01*
X0081415Y0022085D01*
X0081393Y0021934D01*
X0081368Y0021783D01*
X0081338Y0021632D01*
X0081304Y0021482D01*
X0081267Y0021334D01*
X0081226Y0021186D01*
X0081181Y0021040D01*
X0081132Y0020894D01*
X0081079Y0020750D01*
X0081023Y0020608D01*
X0080963Y0020467D01*
X0080899Y0020327D01*
X0080832Y0020189D01*
X0080761Y0020053D01*
X0080686Y0019919D01*
X0080609Y0019787D01*
X0080527Y0019657D01*
X0080443Y0019529D01*
X0080355Y0019403D01*
X0080264Y0019280D01*
X0080170Y0019159D01*
X0080072Y0019041D01*
X0079972Y0018925D01*
X0079868Y0018812D01*
X0079762Y0018701D01*
X0079653Y0018593D01*
X0079541Y0018488D01*
X0079427Y0018387D01*
X0079309Y0018288D01*
X0079190Y0018192D01*
X0079068Y0018099D01*
X0078943Y0018010D01*
X0078816Y0017923D01*
X0078687Y0017841D01*
X0078556Y0017761D01*
X0078423Y0017685D01*
X0078288Y0017612D01*
X0078151Y0017543D01*
X0078012Y0017478D01*
X0077872Y0017416D01*
X0077730Y0017358D01*
X0077587Y0017303D01*
X0077442Y0017252D01*
X0077296Y0017205D01*
X0077149Y0017162D01*
X0077001Y0017123D01*
X0076852Y0017087D01*
X0076702Y0017056D01*
X0076551Y0017028D01*
X0076400Y0017004D01*
X0076247Y0016984D01*
X0076095Y0016968D01*
X0075942Y0016956D01*
X0075789Y0016948D01*
X0075636Y0016944D01*
X0075482Y0016944D01*
X0075329Y0016948D01*
X0075176Y0016956D01*
X0075023Y0016968D01*
X0074871Y0016984D01*
X0074718Y0017004D01*
X0074567Y0017028D01*
X0074416Y0017056D01*
X0074266Y0017087D01*
X0074117Y0017123D01*
X0073969Y0017162D01*
X0073822Y0017205D01*
X0073676Y0017252D01*
X0073531Y0017303D01*
X0073388Y0017358D01*
X0073246Y0017416D01*
X0073106Y0017478D01*
X0072967Y0017543D01*
X0072830Y0017612D01*
X0072695Y0017685D01*
X0072562Y0017761D01*
X0072431Y0017841D01*
X0072302Y0017923D01*
X0072175Y0018010D01*
X0072050Y0018099D01*
X0071928Y0018192D01*
X0071809Y0018288D01*
X0071691Y0018387D01*
X0071577Y0018488D01*
X0071465Y0018593D01*
X0071356Y0018701D01*
X0071250Y0018812D01*
X0071146Y0018925D01*
X0071046Y0019041D01*
X0070948Y0019159D01*
X0070854Y0019280D01*
X0070763Y0019403D01*
X0070675Y0019529D01*
X0070591Y0019657D01*
X0070509Y0019787D01*
X0070432Y0019919D01*
X0070357Y0020053D01*
X0070286Y0020189D01*
X0070219Y0020327D01*
X0070155Y0020467D01*
X0070095Y0020608D01*
X0070039Y0020750D01*
X0069986Y0020894D01*
X0069937Y0021040D01*
X0069892Y0021186D01*
X0069851Y0021334D01*
X0069814Y0021482D01*
X0069780Y0021632D01*
X0069750Y0021783D01*
X0069725Y0021934D01*
X0069703Y0022085D01*
X0069685Y0022238D01*
X0069671Y0022390D01*
X0069661Y0022543D01*
X0069655Y0022697D01*
X0069653Y0022850D01*
X0211639Y0148504D02*
X0211641Y0148657D01*
X0211647Y0148811D01*
X0211657Y0148964D01*
X0211671Y0149116D01*
X0211689Y0149269D01*
X0211711Y0149420D01*
X0211736Y0149571D01*
X0211766Y0149722D01*
X0211800Y0149872D01*
X0211837Y0150020D01*
X0211878Y0150168D01*
X0211923Y0150314D01*
X0211972Y0150460D01*
X0212025Y0150604D01*
X0212081Y0150746D01*
X0212141Y0150887D01*
X0212205Y0151027D01*
X0212272Y0151165D01*
X0212343Y0151301D01*
X0212418Y0151435D01*
X0212495Y0151567D01*
X0212577Y0151697D01*
X0212661Y0151825D01*
X0212749Y0151951D01*
X0212840Y0152074D01*
X0212934Y0152195D01*
X0213032Y0152313D01*
X0213132Y0152429D01*
X0213236Y0152542D01*
X0213342Y0152653D01*
X0213451Y0152761D01*
X0213563Y0152866D01*
X0213677Y0152967D01*
X0213795Y0153066D01*
X0213914Y0153162D01*
X0214036Y0153255D01*
X0214161Y0153344D01*
X0214288Y0153431D01*
X0214417Y0153513D01*
X0214548Y0153593D01*
X0214681Y0153669D01*
X0214816Y0153742D01*
X0214953Y0153811D01*
X0215092Y0153876D01*
X0215232Y0153938D01*
X0215374Y0153996D01*
X0215517Y0154051D01*
X0215662Y0154102D01*
X0215808Y0154149D01*
X0215955Y0154192D01*
X0216103Y0154231D01*
X0216252Y0154267D01*
X0216402Y0154298D01*
X0216553Y0154326D01*
X0216704Y0154350D01*
X0216857Y0154370D01*
X0217009Y0154386D01*
X0217162Y0154398D01*
X0217315Y0154406D01*
X0217468Y0154410D01*
X0217622Y0154410D01*
X0217775Y0154406D01*
X0217928Y0154398D01*
X0218081Y0154386D01*
X0218233Y0154370D01*
X0218386Y0154350D01*
X0218537Y0154326D01*
X0218688Y0154298D01*
X0218838Y0154267D01*
X0218987Y0154231D01*
X0219135Y0154192D01*
X0219282Y0154149D01*
X0219428Y0154102D01*
X0219573Y0154051D01*
X0219716Y0153996D01*
X0219858Y0153938D01*
X0219998Y0153876D01*
X0220137Y0153811D01*
X0220274Y0153742D01*
X0220409Y0153669D01*
X0220542Y0153593D01*
X0220673Y0153513D01*
X0220802Y0153431D01*
X0220929Y0153344D01*
X0221054Y0153255D01*
X0221176Y0153162D01*
X0221295Y0153066D01*
X0221413Y0152967D01*
X0221527Y0152866D01*
X0221639Y0152761D01*
X0221748Y0152653D01*
X0221854Y0152542D01*
X0221958Y0152429D01*
X0222058Y0152313D01*
X0222156Y0152195D01*
X0222250Y0152074D01*
X0222341Y0151951D01*
X0222429Y0151825D01*
X0222513Y0151697D01*
X0222595Y0151567D01*
X0222672Y0151435D01*
X0222747Y0151301D01*
X0222818Y0151165D01*
X0222885Y0151027D01*
X0222949Y0150887D01*
X0223009Y0150746D01*
X0223065Y0150604D01*
X0223118Y0150460D01*
X0223167Y0150314D01*
X0223212Y0150168D01*
X0223253Y0150020D01*
X0223290Y0149872D01*
X0223324Y0149722D01*
X0223354Y0149571D01*
X0223379Y0149420D01*
X0223401Y0149269D01*
X0223419Y0149116D01*
X0223433Y0148964D01*
X0223443Y0148811D01*
X0223449Y0148657D01*
X0223451Y0148504D01*
X0223449Y0148351D01*
X0223443Y0148197D01*
X0223433Y0148044D01*
X0223419Y0147892D01*
X0223401Y0147739D01*
X0223379Y0147588D01*
X0223354Y0147437D01*
X0223324Y0147286D01*
X0223290Y0147136D01*
X0223253Y0146988D01*
X0223212Y0146840D01*
X0223167Y0146694D01*
X0223118Y0146548D01*
X0223065Y0146404D01*
X0223009Y0146262D01*
X0222949Y0146121D01*
X0222885Y0145981D01*
X0222818Y0145843D01*
X0222747Y0145707D01*
X0222672Y0145573D01*
X0222595Y0145441D01*
X0222513Y0145311D01*
X0222429Y0145183D01*
X0222341Y0145057D01*
X0222250Y0144934D01*
X0222156Y0144813D01*
X0222058Y0144695D01*
X0221958Y0144579D01*
X0221854Y0144466D01*
X0221748Y0144355D01*
X0221639Y0144247D01*
X0221527Y0144142D01*
X0221413Y0144041D01*
X0221295Y0143942D01*
X0221176Y0143846D01*
X0221054Y0143753D01*
X0220929Y0143664D01*
X0220802Y0143577D01*
X0220673Y0143495D01*
X0220542Y0143415D01*
X0220409Y0143339D01*
X0220274Y0143266D01*
X0220137Y0143197D01*
X0219998Y0143132D01*
X0219858Y0143070D01*
X0219716Y0143012D01*
X0219573Y0142957D01*
X0219428Y0142906D01*
X0219282Y0142859D01*
X0219135Y0142816D01*
X0218987Y0142777D01*
X0218838Y0142741D01*
X0218688Y0142710D01*
X0218537Y0142682D01*
X0218386Y0142658D01*
X0218233Y0142638D01*
X0218081Y0142622D01*
X0217928Y0142610D01*
X0217775Y0142602D01*
X0217622Y0142598D01*
X0217468Y0142598D01*
X0217315Y0142602D01*
X0217162Y0142610D01*
X0217009Y0142622D01*
X0216857Y0142638D01*
X0216704Y0142658D01*
X0216553Y0142682D01*
X0216402Y0142710D01*
X0216252Y0142741D01*
X0216103Y0142777D01*
X0215955Y0142816D01*
X0215808Y0142859D01*
X0215662Y0142906D01*
X0215517Y0142957D01*
X0215374Y0143012D01*
X0215232Y0143070D01*
X0215092Y0143132D01*
X0214953Y0143197D01*
X0214816Y0143266D01*
X0214681Y0143339D01*
X0214548Y0143415D01*
X0214417Y0143495D01*
X0214288Y0143577D01*
X0214161Y0143664D01*
X0214036Y0143753D01*
X0213914Y0143846D01*
X0213795Y0143942D01*
X0213677Y0144041D01*
X0213563Y0144142D01*
X0213451Y0144247D01*
X0213342Y0144355D01*
X0213236Y0144466D01*
X0213132Y0144579D01*
X0213032Y0144695D01*
X0212934Y0144813D01*
X0212840Y0144934D01*
X0212749Y0145057D01*
X0212661Y0145183D01*
X0212577Y0145311D01*
X0212495Y0145441D01*
X0212418Y0145573D01*
X0212343Y0145707D01*
X0212272Y0145843D01*
X0212205Y0145981D01*
X0212141Y0146121D01*
X0212081Y0146262D01*
X0212025Y0146404D01*
X0211972Y0146548D01*
X0211923Y0146694D01*
X0211878Y0146840D01*
X0211837Y0146988D01*
X0211800Y0147136D01*
X0211766Y0147286D01*
X0211736Y0147437D01*
X0211711Y0147588D01*
X0211689Y0147739D01*
X0211671Y0147892D01*
X0211657Y0148044D01*
X0211647Y0148197D01*
X0211641Y0148351D01*
X0211639Y0148504D01*
D11*
X0097575Y0026889D02*
X0097575Y0019339D01*
X0097575Y0026889D02*
X0101625Y0026889D01*
X0101625Y0019339D01*
X0097575Y0019339D01*
X0097575Y0019788D02*
X0101625Y0019788D01*
X0101625Y0020237D02*
X0097575Y0020237D01*
X0097575Y0020686D02*
X0101625Y0020686D01*
X0101625Y0021135D02*
X0097575Y0021135D01*
X0097575Y0021584D02*
X0101625Y0021584D01*
X0101625Y0022033D02*
X0097575Y0022033D01*
X0097575Y0022482D02*
X0101625Y0022482D01*
X0101625Y0022931D02*
X0097575Y0022931D01*
X0097575Y0023380D02*
X0101625Y0023380D01*
X0101625Y0023829D02*
X0097575Y0023829D01*
X0097575Y0024278D02*
X0101625Y0024278D01*
X0101625Y0024727D02*
X0097575Y0024727D01*
X0097575Y0025176D02*
X0101625Y0025176D01*
X0101625Y0025625D02*
X0097575Y0025625D01*
X0097575Y0026074D02*
X0101625Y0026074D01*
X0101625Y0026523D02*
X0097575Y0026523D01*
M02*
