G75*
%MOIN*%
%OFA0B0*%
%FSLAX25Y25*%
%IPPOS*%
%LPD*%
%AMOC8*
5,1,8,0,0,1.08239X$1,22.5*
%
%ADD10C,0.00000*%
%ADD11C,0.05937*%
%ADD12C,0.05543*%
%ADD13C,0.05000*%
%ADD14C,0.00450*%
%ADD15R,0.06000X0.17000*%
%ADD16C,0.01200*%
%ADD17C,0.04724*%
%ADD18C,0.04134*%
%ADD19C,0.03562*%
%ADD20C,0.01600*%
%ADD21C,0.01000*%
D10*
X0004557Y0022435D02*
X0025391Y0026394D01*
X0045891Y0030019D01*
X0045960Y0031852D01*
X0046030Y0032019D01*
X0058794Y0032505D01*
X0071224Y0032991D01*
X0071200Y0032985D02*
X0071225Y0058990D01*
X0071224Y0058963D02*
X0071224Y0084935D01*
X0051224Y0088685D01*
X0051224Y0199797D01*
X0227474Y0199797D01*
X0227474Y0006741D01*
X0166919Y0006394D01*
X0106363Y0006047D01*
X0074002Y0009419D01*
X0074002Y0012574D01*
X0059905Y0013130D01*
X0045807Y0013685D01*
X0045807Y0015908D01*
X0004557Y0022435D01*
X0069653Y0022850D02*
X0069655Y0023003D01*
X0069661Y0023157D01*
X0069671Y0023310D01*
X0069685Y0023462D01*
X0069703Y0023615D01*
X0069725Y0023766D01*
X0069750Y0023917D01*
X0069780Y0024068D01*
X0069814Y0024218D01*
X0069851Y0024366D01*
X0069892Y0024514D01*
X0069937Y0024660D01*
X0069986Y0024806D01*
X0070039Y0024950D01*
X0070095Y0025092D01*
X0070155Y0025233D01*
X0070219Y0025373D01*
X0070286Y0025511D01*
X0070357Y0025647D01*
X0070432Y0025781D01*
X0070509Y0025913D01*
X0070591Y0026043D01*
X0070675Y0026171D01*
X0070763Y0026297D01*
X0070854Y0026420D01*
X0070948Y0026541D01*
X0071046Y0026659D01*
X0071146Y0026775D01*
X0071250Y0026888D01*
X0071356Y0026999D01*
X0071465Y0027107D01*
X0071577Y0027212D01*
X0071691Y0027313D01*
X0071809Y0027412D01*
X0071928Y0027508D01*
X0072050Y0027601D01*
X0072175Y0027690D01*
X0072302Y0027777D01*
X0072431Y0027859D01*
X0072562Y0027939D01*
X0072695Y0028015D01*
X0072830Y0028088D01*
X0072967Y0028157D01*
X0073106Y0028222D01*
X0073246Y0028284D01*
X0073388Y0028342D01*
X0073531Y0028397D01*
X0073676Y0028448D01*
X0073822Y0028495D01*
X0073969Y0028538D01*
X0074117Y0028577D01*
X0074266Y0028613D01*
X0074416Y0028644D01*
X0074567Y0028672D01*
X0074718Y0028696D01*
X0074871Y0028716D01*
X0075023Y0028732D01*
X0075176Y0028744D01*
X0075329Y0028752D01*
X0075482Y0028756D01*
X0075636Y0028756D01*
X0075789Y0028752D01*
X0075942Y0028744D01*
X0076095Y0028732D01*
X0076247Y0028716D01*
X0076400Y0028696D01*
X0076551Y0028672D01*
X0076702Y0028644D01*
X0076852Y0028613D01*
X0077001Y0028577D01*
X0077149Y0028538D01*
X0077296Y0028495D01*
X0077442Y0028448D01*
X0077587Y0028397D01*
X0077730Y0028342D01*
X0077872Y0028284D01*
X0078012Y0028222D01*
X0078151Y0028157D01*
X0078288Y0028088D01*
X0078423Y0028015D01*
X0078556Y0027939D01*
X0078687Y0027859D01*
X0078816Y0027777D01*
X0078943Y0027690D01*
X0079068Y0027601D01*
X0079190Y0027508D01*
X0079309Y0027412D01*
X0079427Y0027313D01*
X0079541Y0027212D01*
X0079653Y0027107D01*
X0079762Y0026999D01*
X0079868Y0026888D01*
X0079972Y0026775D01*
X0080072Y0026659D01*
X0080170Y0026541D01*
X0080264Y0026420D01*
X0080355Y0026297D01*
X0080443Y0026171D01*
X0080527Y0026043D01*
X0080609Y0025913D01*
X0080686Y0025781D01*
X0080761Y0025647D01*
X0080832Y0025511D01*
X0080899Y0025373D01*
X0080963Y0025233D01*
X0081023Y0025092D01*
X0081079Y0024950D01*
X0081132Y0024806D01*
X0081181Y0024660D01*
X0081226Y0024514D01*
X0081267Y0024366D01*
X0081304Y0024218D01*
X0081338Y0024068D01*
X0081368Y0023917D01*
X0081393Y0023766D01*
X0081415Y0023615D01*
X0081433Y0023462D01*
X0081447Y0023310D01*
X0081457Y0023157D01*
X0081463Y0023003D01*
X0081465Y0022850D01*
X0081463Y0022697D01*
X0081457Y0022543D01*
X0081447Y0022390D01*
X0081433Y0022238D01*
X0081415Y0022085D01*
X0081393Y0021934D01*
X0081368Y0021783D01*
X0081338Y0021632D01*
X0081304Y0021482D01*
X0081267Y0021334D01*
X0081226Y0021186D01*
X0081181Y0021040D01*
X0081132Y0020894D01*
X0081079Y0020750D01*
X0081023Y0020608D01*
X0080963Y0020467D01*
X0080899Y0020327D01*
X0080832Y0020189D01*
X0080761Y0020053D01*
X0080686Y0019919D01*
X0080609Y0019787D01*
X0080527Y0019657D01*
X0080443Y0019529D01*
X0080355Y0019403D01*
X0080264Y0019280D01*
X0080170Y0019159D01*
X0080072Y0019041D01*
X0079972Y0018925D01*
X0079868Y0018812D01*
X0079762Y0018701D01*
X0079653Y0018593D01*
X0079541Y0018488D01*
X0079427Y0018387D01*
X0079309Y0018288D01*
X0079190Y0018192D01*
X0079068Y0018099D01*
X0078943Y0018010D01*
X0078816Y0017923D01*
X0078687Y0017841D01*
X0078556Y0017761D01*
X0078423Y0017685D01*
X0078288Y0017612D01*
X0078151Y0017543D01*
X0078012Y0017478D01*
X0077872Y0017416D01*
X0077730Y0017358D01*
X0077587Y0017303D01*
X0077442Y0017252D01*
X0077296Y0017205D01*
X0077149Y0017162D01*
X0077001Y0017123D01*
X0076852Y0017087D01*
X0076702Y0017056D01*
X0076551Y0017028D01*
X0076400Y0017004D01*
X0076247Y0016984D01*
X0076095Y0016968D01*
X0075942Y0016956D01*
X0075789Y0016948D01*
X0075636Y0016944D01*
X0075482Y0016944D01*
X0075329Y0016948D01*
X0075176Y0016956D01*
X0075023Y0016968D01*
X0074871Y0016984D01*
X0074718Y0017004D01*
X0074567Y0017028D01*
X0074416Y0017056D01*
X0074266Y0017087D01*
X0074117Y0017123D01*
X0073969Y0017162D01*
X0073822Y0017205D01*
X0073676Y0017252D01*
X0073531Y0017303D01*
X0073388Y0017358D01*
X0073246Y0017416D01*
X0073106Y0017478D01*
X0072967Y0017543D01*
X0072830Y0017612D01*
X0072695Y0017685D01*
X0072562Y0017761D01*
X0072431Y0017841D01*
X0072302Y0017923D01*
X0072175Y0018010D01*
X0072050Y0018099D01*
X0071928Y0018192D01*
X0071809Y0018288D01*
X0071691Y0018387D01*
X0071577Y0018488D01*
X0071465Y0018593D01*
X0071356Y0018701D01*
X0071250Y0018812D01*
X0071146Y0018925D01*
X0071046Y0019041D01*
X0070948Y0019159D01*
X0070854Y0019280D01*
X0070763Y0019403D01*
X0070675Y0019529D01*
X0070591Y0019657D01*
X0070509Y0019787D01*
X0070432Y0019919D01*
X0070357Y0020053D01*
X0070286Y0020189D01*
X0070219Y0020327D01*
X0070155Y0020467D01*
X0070095Y0020608D01*
X0070039Y0020750D01*
X0069986Y0020894D01*
X0069937Y0021040D01*
X0069892Y0021186D01*
X0069851Y0021334D01*
X0069814Y0021482D01*
X0069780Y0021632D01*
X0069750Y0021783D01*
X0069725Y0021934D01*
X0069703Y0022085D01*
X0069685Y0022238D01*
X0069671Y0022390D01*
X0069661Y0022543D01*
X0069655Y0022697D01*
X0069653Y0022850D01*
X0211639Y0148504D02*
X0211641Y0148657D01*
X0211647Y0148811D01*
X0211657Y0148964D01*
X0211671Y0149116D01*
X0211689Y0149269D01*
X0211711Y0149420D01*
X0211736Y0149571D01*
X0211766Y0149722D01*
X0211800Y0149872D01*
X0211837Y0150020D01*
X0211878Y0150168D01*
X0211923Y0150314D01*
X0211972Y0150460D01*
X0212025Y0150604D01*
X0212081Y0150746D01*
X0212141Y0150887D01*
X0212205Y0151027D01*
X0212272Y0151165D01*
X0212343Y0151301D01*
X0212418Y0151435D01*
X0212495Y0151567D01*
X0212577Y0151697D01*
X0212661Y0151825D01*
X0212749Y0151951D01*
X0212840Y0152074D01*
X0212934Y0152195D01*
X0213032Y0152313D01*
X0213132Y0152429D01*
X0213236Y0152542D01*
X0213342Y0152653D01*
X0213451Y0152761D01*
X0213563Y0152866D01*
X0213677Y0152967D01*
X0213795Y0153066D01*
X0213914Y0153162D01*
X0214036Y0153255D01*
X0214161Y0153344D01*
X0214288Y0153431D01*
X0214417Y0153513D01*
X0214548Y0153593D01*
X0214681Y0153669D01*
X0214816Y0153742D01*
X0214953Y0153811D01*
X0215092Y0153876D01*
X0215232Y0153938D01*
X0215374Y0153996D01*
X0215517Y0154051D01*
X0215662Y0154102D01*
X0215808Y0154149D01*
X0215955Y0154192D01*
X0216103Y0154231D01*
X0216252Y0154267D01*
X0216402Y0154298D01*
X0216553Y0154326D01*
X0216704Y0154350D01*
X0216857Y0154370D01*
X0217009Y0154386D01*
X0217162Y0154398D01*
X0217315Y0154406D01*
X0217468Y0154410D01*
X0217622Y0154410D01*
X0217775Y0154406D01*
X0217928Y0154398D01*
X0218081Y0154386D01*
X0218233Y0154370D01*
X0218386Y0154350D01*
X0218537Y0154326D01*
X0218688Y0154298D01*
X0218838Y0154267D01*
X0218987Y0154231D01*
X0219135Y0154192D01*
X0219282Y0154149D01*
X0219428Y0154102D01*
X0219573Y0154051D01*
X0219716Y0153996D01*
X0219858Y0153938D01*
X0219998Y0153876D01*
X0220137Y0153811D01*
X0220274Y0153742D01*
X0220409Y0153669D01*
X0220542Y0153593D01*
X0220673Y0153513D01*
X0220802Y0153431D01*
X0220929Y0153344D01*
X0221054Y0153255D01*
X0221176Y0153162D01*
X0221295Y0153066D01*
X0221413Y0152967D01*
X0221527Y0152866D01*
X0221639Y0152761D01*
X0221748Y0152653D01*
X0221854Y0152542D01*
X0221958Y0152429D01*
X0222058Y0152313D01*
X0222156Y0152195D01*
X0222250Y0152074D01*
X0222341Y0151951D01*
X0222429Y0151825D01*
X0222513Y0151697D01*
X0222595Y0151567D01*
X0222672Y0151435D01*
X0222747Y0151301D01*
X0222818Y0151165D01*
X0222885Y0151027D01*
X0222949Y0150887D01*
X0223009Y0150746D01*
X0223065Y0150604D01*
X0223118Y0150460D01*
X0223167Y0150314D01*
X0223212Y0150168D01*
X0223253Y0150020D01*
X0223290Y0149872D01*
X0223324Y0149722D01*
X0223354Y0149571D01*
X0223379Y0149420D01*
X0223401Y0149269D01*
X0223419Y0149116D01*
X0223433Y0148964D01*
X0223443Y0148811D01*
X0223449Y0148657D01*
X0223451Y0148504D01*
X0223449Y0148351D01*
X0223443Y0148197D01*
X0223433Y0148044D01*
X0223419Y0147892D01*
X0223401Y0147739D01*
X0223379Y0147588D01*
X0223354Y0147437D01*
X0223324Y0147286D01*
X0223290Y0147136D01*
X0223253Y0146988D01*
X0223212Y0146840D01*
X0223167Y0146694D01*
X0223118Y0146548D01*
X0223065Y0146404D01*
X0223009Y0146262D01*
X0222949Y0146121D01*
X0222885Y0145981D01*
X0222818Y0145843D01*
X0222747Y0145707D01*
X0222672Y0145573D01*
X0222595Y0145441D01*
X0222513Y0145311D01*
X0222429Y0145183D01*
X0222341Y0145057D01*
X0222250Y0144934D01*
X0222156Y0144813D01*
X0222058Y0144695D01*
X0221958Y0144579D01*
X0221854Y0144466D01*
X0221748Y0144355D01*
X0221639Y0144247D01*
X0221527Y0144142D01*
X0221413Y0144041D01*
X0221295Y0143942D01*
X0221176Y0143846D01*
X0221054Y0143753D01*
X0220929Y0143664D01*
X0220802Y0143577D01*
X0220673Y0143495D01*
X0220542Y0143415D01*
X0220409Y0143339D01*
X0220274Y0143266D01*
X0220137Y0143197D01*
X0219998Y0143132D01*
X0219858Y0143070D01*
X0219716Y0143012D01*
X0219573Y0142957D01*
X0219428Y0142906D01*
X0219282Y0142859D01*
X0219135Y0142816D01*
X0218987Y0142777D01*
X0218838Y0142741D01*
X0218688Y0142710D01*
X0218537Y0142682D01*
X0218386Y0142658D01*
X0218233Y0142638D01*
X0218081Y0142622D01*
X0217928Y0142610D01*
X0217775Y0142602D01*
X0217622Y0142598D01*
X0217468Y0142598D01*
X0217315Y0142602D01*
X0217162Y0142610D01*
X0217009Y0142622D01*
X0216857Y0142638D01*
X0216704Y0142658D01*
X0216553Y0142682D01*
X0216402Y0142710D01*
X0216252Y0142741D01*
X0216103Y0142777D01*
X0215955Y0142816D01*
X0215808Y0142859D01*
X0215662Y0142906D01*
X0215517Y0142957D01*
X0215374Y0143012D01*
X0215232Y0143070D01*
X0215092Y0143132D01*
X0214953Y0143197D01*
X0214816Y0143266D01*
X0214681Y0143339D01*
X0214548Y0143415D01*
X0214417Y0143495D01*
X0214288Y0143577D01*
X0214161Y0143664D01*
X0214036Y0143753D01*
X0213914Y0143846D01*
X0213795Y0143942D01*
X0213677Y0144041D01*
X0213563Y0144142D01*
X0213451Y0144247D01*
X0213342Y0144355D01*
X0213236Y0144466D01*
X0213132Y0144579D01*
X0213032Y0144695D01*
X0212934Y0144813D01*
X0212840Y0144934D01*
X0212749Y0145057D01*
X0212661Y0145183D01*
X0212577Y0145311D01*
X0212495Y0145441D01*
X0212418Y0145573D01*
X0212343Y0145707D01*
X0212272Y0145843D01*
X0212205Y0145981D01*
X0212141Y0146121D01*
X0212081Y0146262D01*
X0212025Y0146404D01*
X0211972Y0146548D01*
X0211923Y0146694D01*
X0211878Y0146840D01*
X0211837Y0146988D01*
X0211800Y0147136D01*
X0211766Y0147286D01*
X0211736Y0147437D01*
X0211711Y0147588D01*
X0211689Y0147739D01*
X0211671Y0147892D01*
X0211657Y0148044D01*
X0211647Y0148197D01*
X0211641Y0148351D01*
X0211639Y0148504D01*
D11*
X0211449Y0135500D03*
X0201449Y0135500D03*
X0191449Y0135500D03*
X0181449Y0135500D03*
X0171449Y0135500D03*
X0161449Y0135500D03*
X0156449Y0125500D03*
X0156449Y0115500D03*
X0156449Y0105500D03*
X0156449Y0095500D03*
X0156449Y0085500D03*
X0156449Y0075500D03*
X0156449Y0065500D03*
X0156449Y0055500D03*
X0156449Y0045500D03*
X0156449Y0035500D03*
X0156449Y0025500D03*
X0156449Y0015500D03*
X0186449Y0015500D03*
X0196449Y0015500D03*
X0206449Y0015500D03*
X0216449Y0015500D03*
X0216449Y0025500D03*
X0216449Y0035500D03*
X0216449Y0045500D03*
X0216449Y0055500D03*
X0216449Y0065500D03*
X0216449Y0075500D03*
X0206449Y0080500D03*
X0216449Y0085500D03*
X0206449Y0090500D03*
X0216449Y0095500D03*
X0216449Y0105500D03*
X0216449Y0115500D03*
X0216449Y0125500D03*
D12*
X0076371Y0168432D03*
X0076371Y0185755D03*
D13*
X0099600Y0028985D03*
D14*
X0097575Y0026889D02*
X0097575Y0019339D01*
X0097575Y0026889D02*
X0101625Y0026889D01*
X0101625Y0019339D01*
X0097575Y0019339D01*
X0097575Y0019788D02*
X0101625Y0019788D01*
X0101625Y0020237D02*
X0097575Y0020237D01*
X0097575Y0020686D02*
X0101625Y0020686D01*
X0101625Y0021135D02*
X0097575Y0021135D01*
X0097575Y0021584D02*
X0101625Y0021584D01*
X0101625Y0022033D02*
X0097575Y0022033D01*
X0097575Y0022482D02*
X0101625Y0022482D01*
X0101625Y0022931D02*
X0097575Y0022931D01*
X0097575Y0023380D02*
X0101625Y0023380D01*
X0101625Y0023829D02*
X0097575Y0023829D01*
X0097575Y0024278D02*
X0101625Y0024278D01*
X0101625Y0024727D02*
X0097575Y0024727D01*
X0097575Y0025176D02*
X0101625Y0025176D01*
X0101625Y0025625D02*
X0097575Y0025625D01*
X0097575Y0026074D02*
X0101625Y0026074D01*
X0101625Y0026523D02*
X0097575Y0026523D01*
D15*
X0089600Y0018235D03*
X0109600Y0018235D03*
D16*
X0114200Y0017965D02*
X0116013Y0017965D01*
X0116030Y0019163D02*
X0114200Y0019163D01*
X0114200Y0020362D02*
X0116046Y0020362D01*
X0116063Y0021560D02*
X0114200Y0021560D01*
X0114200Y0022759D02*
X0116079Y0022759D01*
X0116095Y0023957D02*
X0114200Y0023957D01*
X0114200Y0025156D02*
X0116112Y0025156D01*
X0116128Y0026354D02*
X0114200Y0026354D01*
X0114200Y0027398D02*
X0113263Y0028335D01*
X0105937Y0028335D01*
X0105000Y0027398D01*
X0105000Y0009073D01*
X0105555Y0008518D01*
X0098083Y0008518D01*
X0094064Y0008937D01*
X0094200Y0009073D01*
X0094200Y0027398D01*
X0093263Y0028335D01*
X0085937Y0028335D01*
X0085000Y0027398D01*
X0085000Y0010076D01*
X0084558Y0010518D01*
X0084558Y0034182D01*
X0086558Y0036182D01*
X0113222Y0036182D01*
X0116222Y0033182D01*
X0115888Y0008851D01*
X0114889Y0008518D01*
X0113645Y0008518D01*
X0114200Y0009073D01*
X0114200Y0027398D01*
X0114045Y0027553D02*
X0116145Y0027553D01*
X0116161Y0028751D02*
X0103700Y0028751D01*
X0103700Y0028170D02*
X0103450Y0027566D01*
X0103450Y0018583D01*
X0102381Y0017514D01*
X0096819Y0017514D01*
X0095750Y0018583D01*
X0095750Y0027566D01*
X0095500Y0028170D01*
X0095500Y0029801D01*
X0096124Y0031308D01*
X0097278Y0032461D01*
X0098784Y0033085D01*
X0100416Y0033085D01*
X0101922Y0032461D01*
X0103076Y0031308D01*
X0103700Y0029801D01*
X0103700Y0028170D01*
X0103450Y0027553D02*
X0105155Y0027553D01*
X0105000Y0026354D02*
X0103450Y0026354D01*
X0103450Y0025156D02*
X0105000Y0025156D01*
X0105000Y0023957D02*
X0103450Y0023957D01*
X0103450Y0022759D02*
X0105000Y0022759D01*
X0105000Y0021560D02*
X0103450Y0021560D01*
X0103450Y0020362D02*
X0105000Y0020362D01*
X0105000Y0019163D02*
X0103450Y0019163D01*
X0102831Y0017965D02*
X0105000Y0017965D01*
X0105000Y0016766D02*
X0094200Y0016766D01*
X0094200Y0015568D02*
X0105000Y0015568D01*
X0105000Y0014369D02*
X0094200Y0014369D01*
X0094200Y0013171D02*
X0105000Y0013171D01*
X0105000Y0011972D02*
X0094200Y0011972D01*
X0094200Y0010773D02*
X0105000Y0010773D01*
X0105000Y0009575D02*
X0094200Y0009575D01*
X0094200Y0017965D02*
X0096369Y0017965D01*
X0095750Y0019163D02*
X0094200Y0019163D01*
X0094200Y0020362D02*
X0095750Y0020362D01*
X0095750Y0021560D02*
X0094200Y0021560D01*
X0094200Y0022759D02*
X0095750Y0022759D01*
X0095750Y0023957D02*
X0094200Y0023957D01*
X0094200Y0025156D02*
X0095750Y0025156D01*
X0095750Y0026354D02*
X0094200Y0026354D01*
X0094045Y0027553D02*
X0095750Y0027553D01*
X0095500Y0028751D02*
X0084558Y0028751D01*
X0084558Y0027553D02*
X0085155Y0027553D01*
X0085000Y0026354D02*
X0084558Y0026354D01*
X0084558Y0025156D02*
X0085000Y0025156D01*
X0085000Y0023957D02*
X0084558Y0023957D01*
X0084558Y0022759D02*
X0085000Y0022759D01*
X0085000Y0021560D02*
X0084558Y0021560D01*
X0084558Y0020362D02*
X0085000Y0020362D01*
X0085000Y0019163D02*
X0084558Y0019163D01*
X0084558Y0017965D02*
X0085000Y0017965D01*
X0085000Y0016766D02*
X0084558Y0016766D01*
X0084558Y0015568D02*
X0085000Y0015568D01*
X0085000Y0014369D02*
X0084558Y0014369D01*
X0084558Y0013171D02*
X0085000Y0013171D01*
X0085000Y0011972D02*
X0084558Y0011972D01*
X0084558Y0010773D02*
X0085000Y0010773D01*
X0084558Y0029950D02*
X0095562Y0029950D01*
X0096058Y0031148D02*
X0084558Y0031148D01*
X0084558Y0032347D02*
X0097163Y0032347D01*
X0102037Y0032347D02*
X0116210Y0032347D01*
X0116194Y0031148D02*
X0103142Y0031148D01*
X0103638Y0029950D02*
X0116178Y0029950D01*
X0115859Y0033545D02*
X0084558Y0033545D01*
X0085120Y0034744D02*
X0114660Y0034744D01*
X0113462Y0035942D02*
X0086318Y0035942D01*
X0114200Y0016766D02*
X0115997Y0016766D01*
X0115980Y0015568D02*
X0114200Y0015568D01*
X0114200Y0014369D02*
X0115964Y0014369D01*
X0115948Y0013171D02*
X0114200Y0013171D01*
X0114200Y0011972D02*
X0115931Y0011972D01*
X0115915Y0010773D02*
X0114200Y0010773D01*
X0114200Y0009575D02*
X0115898Y0009575D01*
X0137900Y0047185D02*
X0137900Y0059185D01*
X0144215Y0065500D01*
X0156449Y0065500D01*
X0161900Y0070185D02*
X0163900Y0068185D01*
X0163900Y0047185D01*
X0165585Y0045500D01*
X0168900Y0045500D01*
X0216449Y0045500D01*
X0161900Y0070185D02*
X0119900Y0070185D01*
X0104900Y0135085D02*
X0104902Y0135112D01*
X0104906Y0135139D01*
X0104914Y0135165D01*
X0104924Y0135190D01*
X0104937Y0135213D01*
X0104953Y0135235D01*
X0104971Y0135255D01*
X0104971Y0135256D02*
X0120900Y0151185D01*
X0120900Y0161185D01*
D17*
X0106556Y0033849D03*
D18*
X0121900Y0025185D03*
X0137900Y0047185D03*
X0113900Y0082185D03*
X0120900Y0161185D03*
D19*
X0104900Y0135085D03*
X0146000Y0130585D03*
X0159900Y0182185D03*
X0159900Y0187185D03*
D20*
X0124015Y0163267D02*
X0122981Y0164300D01*
X0121631Y0164859D01*
X0120169Y0164859D01*
X0118819Y0164300D01*
X0117785Y0163267D01*
X0117226Y0161916D01*
X0117226Y0160455D01*
X0117785Y0159104D01*
X0118693Y0158197D01*
X0118693Y0152100D01*
X0105067Y0138474D01*
X0104226Y0138474D01*
X0102981Y0137958D01*
X0102028Y0137005D01*
X0101512Y0135759D01*
X0101512Y0134411D01*
X0102028Y0133166D01*
X0102981Y0132213D01*
X0104226Y0131697D01*
X0105574Y0131697D01*
X0106819Y0132213D01*
X0107772Y0133166D01*
X0108288Y0134411D01*
X0108288Y0135452D01*
X0123107Y0150271D01*
X0123107Y0158197D01*
X0124015Y0159104D01*
X0124574Y0160455D01*
X0124574Y0161916D01*
X0124015Y0163267D01*
X0124276Y0162635D02*
X0225674Y0162635D01*
X0225674Y0161037D02*
X0124574Y0161037D01*
X0124153Y0159438D02*
X0225674Y0159438D01*
X0225674Y0157840D02*
X0123107Y0157840D01*
X0123107Y0156241D02*
X0225674Y0156241D01*
X0225674Y0154642D02*
X0222304Y0154642D01*
X0221910Y0155036D02*
X0219078Y0156210D01*
X0216012Y0156210D01*
X0213180Y0155036D01*
X0211013Y0152869D01*
X0209839Y0150037D01*
X0209839Y0146971D01*
X0211013Y0144139D01*
X0213180Y0141972D01*
X0216012Y0140798D01*
X0219078Y0140798D01*
X0221910Y0141972D01*
X0224077Y0144139D01*
X0225251Y0146971D01*
X0225251Y0150037D01*
X0224077Y0152869D01*
X0221910Y0155036D01*
X0223902Y0153044D02*
X0225674Y0153044D01*
X0225674Y0151445D02*
X0224667Y0151445D01*
X0225251Y0149847D02*
X0225674Y0149847D01*
X0225674Y0148248D02*
X0225251Y0148248D01*
X0225117Y0146650D02*
X0225674Y0146650D01*
X0225674Y0145051D02*
X0224455Y0145051D01*
X0223391Y0143453D02*
X0225674Y0143453D01*
X0225674Y0141854D02*
X0221627Y0141854D01*
X0225674Y0140256D02*
X0191904Y0140256D01*
X0191824Y0140268D02*
X0191633Y0140268D01*
X0191633Y0135684D01*
X0191265Y0135684D01*
X0191265Y0135316D01*
X0186681Y0135316D01*
X0186681Y0135125D01*
X0186798Y0134383D01*
X0187030Y0133670D01*
X0187371Y0133001D01*
X0187812Y0132394D01*
X0188343Y0131863D01*
X0188950Y0131422D01*
X0189619Y0131081D01*
X0190332Y0130849D01*
X0191074Y0130731D01*
X0191265Y0130731D01*
X0191265Y0135316D01*
X0191633Y0135316D01*
X0191633Y0130731D01*
X0191824Y0130731D01*
X0192566Y0130849D01*
X0193280Y0131081D01*
X0193948Y0131422D01*
X0194556Y0131863D01*
X0195086Y0132394D01*
X0195527Y0133001D01*
X0195868Y0133670D01*
X0196100Y0134383D01*
X0196218Y0135125D01*
X0196218Y0135316D01*
X0191633Y0135316D01*
X0191633Y0135684D01*
X0196218Y0135684D01*
X0196218Y0135875D01*
X0196100Y0136617D01*
X0195868Y0137330D01*
X0195527Y0137999D01*
X0195086Y0138606D01*
X0194556Y0139137D01*
X0193948Y0139578D01*
X0193280Y0139919D01*
X0192566Y0140151D01*
X0191824Y0140268D01*
X0191633Y0140256D02*
X0191265Y0140256D01*
X0191265Y0140268D02*
X0191074Y0140268D01*
X0190332Y0140151D01*
X0189619Y0139919D01*
X0188950Y0139578D01*
X0188343Y0139137D01*
X0187812Y0138606D01*
X0187371Y0137999D01*
X0187030Y0137330D01*
X0186798Y0136617D01*
X0186681Y0135875D01*
X0186681Y0135684D01*
X0191265Y0135684D01*
X0191265Y0140268D01*
X0190994Y0140256D02*
X0113092Y0140256D01*
X0114690Y0141854D02*
X0213463Y0141854D01*
X0212359Y0140076D02*
X0210539Y0140076D01*
X0208857Y0139379D01*
X0207570Y0138092D01*
X0206873Y0136410D01*
X0206873Y0134590D01*
X0207570Y0132908D01*
X0208857Y0131621D01*
X0210539Y0130924D01*
X0212359Y0130924D01*
X0214041Y0131621D01*
X0215328Y0132908D01*
X0216025Y0134590D01*
X0216025Y0136410D01*
X0215328Y0138092D01*
X0214041Y0139379D01*
X0212359Y0140076D01*
X0214763Y0138657D02*
X0225674Y0138657D01*
X0225674Y0137059D02*
X0215756Y0137059D01*
X0216025Y0135460D02*
X0225674Y0135460D01*
X0225674Y0133862D02*
X0215723Y0133862D01*
X0214683Y0132263D02*
X0225674Y0132263D01*
X0225674Y0130665D02*
X0053024Y0130665D01*
X0053024Y0132263D02*
X0102930Y0132263D01*
X0101739Y0133862D02*
X0053024Y0133862D01*
X0053024Y0135460D02*
X0101512Y0135460D01*
X0102082Y0137059D02*
X0053024Y0137059D01*
X0053024Y0138657D02*
X0105251Y0138657D01*
X0106849Y0140256D02*
X0053024Y0140256D01*
X0053024Y0141854D02*
X0108448Y0141854D01*
X0110046Y0143453D02*
X0053024Y0143453D01*
X0053024Y0145051D02*
X0111645Y0145051D01*
X0113243Y0146650D02*
X0053024Y0146650D01*
X0053024Y0148248D02*
X0114842Y0148248D01*
X0116440Y0149847D02*
X0053024Y0149847D01*
X0053024Y0151445D02*
X0118039Y0151445D01*
X0118693Y0153044D02*
X0053024Y0153044D01*
X0053024Y0154642D02*
X0118693Y0154642D01*
X0118693Y0156241D02*
X0053024Y0156241D01*
X0053024Y0157840D02*
X0118693Y0157840D01*
X0117647Y0159438D02*
X0053024Y0159438D01*
X0053024Y0161037D02*
X0117226Y0161037D01*
X0117524Y0162635D02*
X0053024Y0162635D01*
X0053024Y0164234D02*
X0075066Y0164234D01*
X0075500Y0164054D02*
X0077242Y0164054D01*
X0078851Y0164720D01*
X0080083Y0165952D01*
X0080750Y0167561D01*
X0080750Y0169303D01*
X0080083Y0170913D01*
X0078851Y0172145D01*
X0077242Y0172811D01*
X0075500Y0172811D01*
X0073891Y0172145D01*
X0072659Y0170913D01*
X0071992Y0169303D01*
X0071992Y0167561D01*
X0072659Y0165952D01*
X0073891Y0164720D01*
X0075500Y0164054D01*
X0077676Y0164234D02*
X0118752Y0164234D01*
X0123048Y0164234D02*
X0225674Y0164234D01*
X0225674Y0165832D02*
X0079963Y0165832D01*
X0080695Y0167431D02*
X0225674Y0167431D01*
X0225674Y0169029D02*
X0080750Y0169029D01*
X0080201Y0170628D02*
X0225674Y0170628D01*
X0225674Y0172226D02*
X0078654Y0172226D01*
X0074088Y0172226D02*
X0053024Y0172226D01*
X0053024Y0170628D02*
X0072541Y0170628D01*
X0071992Y0169029D02*
X0053024Y0169029D01*
X0053024Y0167431D02*
X0072046Y0167431D01*
X0072779Y0165832D02*
X0053024Y0165832D01*
X0053024Y0173825D02*
X0225674Y0173825D01*
X0225674Y0175423D02*
X0053024Y0175423D01*
X0053024Y0177022D02*
X0225674Y0177022D01*
X0225674Y0178620D02*
X0053024Y0178620D01*
X0053024Y0180219D02*
X0225674Y0180219D01*
X0225674Y0181817D02*
X0078306Y0181817D01*
X0078851Y0182043D02*
X0077242Y0181377D01*
X0075500Y0181377D01*
X0073891Y0182043D01*
X0072659Y0183275D01*
X0071992Y0184884D01*
X0071992Y0186626D01*
X0072659Y0188236D01*
X0073891Y0189467D01*
X0075500Y0190134D01*
X0077242Y0190134D01*
X0078851Y0189467D01*
X0080083Y0188236D01*
X0080750Y0186626D01*
X0080750Y0184884D01*
X0080083Y0183275D01*
X0078851Y0182043D01*
X0080141Y0183416D02*
X0225674Y0183416D01*
X0225674Y0185014D02*
X0080750Y0185014D01*
X0080750Y0186613D02*
X0225674Y0186613D01*
X0225674Y0188211D02*
X0080093Y0188211D01*
X0078025Y0189810D02*
X0225674Y0189810D01*
X0225674Y0191408D02*
X0053024Y0191408D01*
X0053024Y0189810D02*
X0074717Y0189810D01*
X0072649Y0188211D02*
X0053024Y0188211D01*
X0053024Y0186613D02*
X0071992Y0186613D01*
X0071992Y0185014D02*
X0053024Y0185014D01*
X0053024Y0183416D02*
X0072601Y0183416D01*
X0074436Y0181817D02*
X0053024Y0181817D01*
X0053024Y0193007D02*
X0225674Y0193007D01*
X0225674Y0194605D02*
X0053024Y0194605D01*
X0053024Y0196204D02*
X0225674Y0196204D01*
X0225674Y0197802D02*
X0053024Y0197802D01*
X0053024Y0197997D02*
X0225674Y0197997D01*
X0225674Y0008531D01*
X0167654Y0008198D01*
X0119888Y0007924D01*
X0119888Y0021183D01*
X0118555Y0022517D01*
X0118555Y0026850D01*
X0119555Y0027849D01*
X0119555Y0034182D01*
X0114889Y0038848D01*
X0085225Y0040182D01*
X0080225Y0035515D01*
X0080467Y0028840D01*
X0079924Y0029382D01*
X0077092Y0030555D01*
X0074026Y0030555D01*
X0071194Y0029382D01*
X0069027Y0027215D01*
X0067854Y0024383D01*
X0067854Y0021317D01*
X0069027Y0018485D01*
X0071194Y0016317D01*
X0074026Y0015144D01*
X0077092Y0015144D01*
X0079924Y0016317D01*
X0080885Y0017278D01*
X0081130Y0010486D01*
X0075802Y0011041D01*
X0075802Y0012539D01*
X0075830Y0013248D01*
X0075802Y0013279D01*
X0075802Y0013320D01*
X0075300Y0013822D01*
X0074818Y0014344D01*
X0074777Y0014345D01*
X0074747Y0014374D01*
X0074037Y0014374D01*
X0059230Y0014958D01*
X0047607Y0015416D01*
X0047607Y0015766D01*
X0047702Y0016363D01*
X0047607Y0016493D01*
X0047607Y0016653D01*
X0047180Y0017080D01*
X0046825Y0017569D01*
X0046667Y0017594D01*
X0046553Y0017708D01*
X0045949Y0017708D01*
X0015052Y0022597D01*
X0025716Y0024623D01*
X0046015Y0028213D01*
X0046568Y0028192D01*
X0046726Y0028339D01*
X0046938Y0028376D01*
X0047256Y0028829D01*
X0047661Y0029206D01*
X0047669Y0029421D01*
X0047793Y0029598D01*
X0047697Y0030143D01*
X0047702Y0030281D01*
X0058118Y0030678D01*
X0058119Y0030677D01*
X0058856Y0030706D01*
X0059607Y0030735D01*
X0059608Y0030735D01*
X0071119Y0031185D01*
X0071944Y0031185D01*
X0071978Y0031219D01*
X0072039Y0031221D01*
X0072743Y0031982D01*
X0072999Y0032238D01*
X0072999Y0032259D01*
X0073052Y0032316D01*
X0073001Y0033626D01*
X0073026Y0059734D01*
X0073024Y0059736D01*
X0073024Y0084768D01*
X0073131Y0085337D01*
X0073024Y0085492D01*
X0073024Y0085681D01*
X0072615Y0086090D01*
X0072289Y0086567D01*
X0072103Y0086602D01*
X0071970Y0086735D01*
X0071391Y0086735D01*
X0053024Y0090179D01*
X0053024Y0197997D01*
X0116289Y0143453D02*
X0211699Y0143453D01*
X0210635Y0145051D02*
X0117887Y0145051D01*
X0119486Y0146650D02*
X0209973Y0146650D01*
X0209839Y0148248D02*
X0121084Y0148248D01*
X0122683Y0149847D02*
X0209839Y0149847D01*
X0210423Y0151445D02*
X0123107Y0151445D01*
X0123107Y0153044D02*
X0211188Y0153044D01*
X0212786Y0154642D02*
X0123107Y0154642D01*
X0111493Y0138657D02*
X0158136Y0138657D01*
X0157570Y0138092D02*
X0156873Y0136410D01*
X0156873Y0134590D01*
X0157570Y0132908D01*
X0158857Y0131621D01*
X0160539Y0130924D01*
X0162359Y0130924D01*
X0164041Y0131621D01*
X0165328Y0132908D01*
X0166025Y0134590D01*
X0166025Y0136410D01*
X0165328Y0138092D01*
X0164041Y0139379D01*
X0162359Y0140076D01*
X0160539Y0140076D01*
X0158857Y0139379D01*
X0157570Y0138092D01*
X0157142Y0137059D02*
X0109895Y0137059D01*
X0108296Y0135460D02*
X0156873Y0135460D01*
X0157175Y0133862D02*
X0108061Y0133862D01*
X0106870Y0132263D02*
X0158215Y0132263D01*
X0157359Y0130076D02*
X0155539Y0130076D01*
X0153857Y0129379D01*
X0152570Y0128092D01*
X0151873Y0126410D01*
X0151873Y0124590D01*
X0152570Y0122908D01*
X0153857Y0121621D01*
X0155539Y0120924D01*
X0157359Y0120924D01*
X0159041Y0121621D01*
X0160328Y0122908D01*
X0161025Y0124590D01*
X0161025Y0126410D01*
X0160328Y0128092D01*
X0159041Y0129379D01*
X0157359Y0130076D01*
X0159354Y0129066D02*
X0213545Y0129066D01*
X0213857Y0129379D02*
X0212570Y0128092D01*
X0211873Y0126410D01*
X0211873Y0124590D01*
X0212570Y0122908D01*
X0213857Y0121621D01*
X0215539Y0120924D01*
X0217359Y0120924D01*
X0219041Y0121621D01*
X0220328Y0122908D01*
X0221025Y0124590D01*
X0221025Y0126410D01*
X0220328Y0128092D01*
X0219041Y0129379D01*
X0217359Y0130076D01*
X0215539Y0130076D01*
X0213857Y0129379D01*
X0212312Y0127468D02*
X0160587Y0127468D01*
X0161025Y0125869D02*
X0211873Y0125869D01*
X0212006Y0124271D02*
X0160892Y0124271D01*
X0160092Y0122672D02*
X0212806Y0122672D01*
X0215178Y0121074D02*
X0157720Y0121074D01*
X0157359Y0120076D02*
X0155539Y0120076D01*
X0153857Y0119379D01*
X0152570Y0118092D01*
X0151873Y0116410D01*
X0151873Y0114590D01*
X0152570Y0112908D01*
X0153857Y0111621D01*
X0155539Y0110924D01*
X0157359Y0110924D01*
X0159041Y0111621D01*
X0160328Y0112908D01*
X0161025Y0114590D01*
X0161025Y0116410D01*
X0160328Y0118092D01*
X0159041Y0119379D01*
X0157359Y0120076D01*
X0158809Y0119475D02*
X0214090Y0119475D01*
X0213857Y0119379D02*
X0212570Y0118092D01*
X0211873Y0116410D01*
X0211873Y0114590D01*
X0212570Y0112908D01*
X0213857Y0111621D01*
X0215539Y0110924D01*
X0217359Y0110924D01*
X0219041Y0111621D01*
X0220328Y0112908D01*
X0221025Y0114590D01*
X0221025Y0116410D01*
X0220328Y0118092D01*
X0219041Y0119379D01*
X0217359Y0120076D01*
X0215539Y0120076D01*
X0213857Y0119379D01*
X0212481Y0117877D02*
X0160417Y0117877D01*
X0161025Y0116278D02*
X0211873Y0116278D01*
X0211873Y0114680D02*
X0161025Y0114680D01*
X0160400Y0113081D02*
X0212498Y0113081D01*
X0214191Y0111483D02*
X0158707Y0111483D01*
X0157821Y0109884D02*
X0215077Y0109884D01*
X0215539Y0110076D02*
X0213857Y0109379D01*
X0212570Y0108092D01*
X0211873Y0106410D01*
X0211873Y0104590D01*
X0212570Y0102908D01*
X0213857Y0101621D01*
X0215539Y0100924D01*
X0217359Y0100924D01*
X0219041Y0101621D01*
X0220328Y0102908D01*
X0221025Y0104590D01*
X0221025Y0106410D01*
X0220328Y0108092D01*
X0219041Y0109379D01*
X0217359Y0110076D01*
X0215539Y0110076D01*
X0217821Y0109884D02*
X0225674Y0109884D01*
X0225674Y0108286D02*
X0220134Y0108286D01*
X0220910Y0106687D02*
X0225674Y0106687D01*
X0225674Y0105089D02*
X0221025Y0105089D01*
X0220569Y0103490D02*
X0225674Y0103490D01*
X0225674Y0101892D02*
X0219312Y0101892D01*
X0218280Y0099919D02*
X0217566Y0100151D01*
X0216824Y0100268D01*
X0216633Y0100268D01*
X0216633Y0095684D01*
X0216265Y0095684D01*
X0216265Y0095316D01*
X0216633Y0095316D01*
X0216633Y0090731D01*
X0216824Y0090731D01*
X0217566Y0090849D01*
X0218280Y0091081D01*
X0218948Y0091422D01*
X0219556Y0091863D01*
X0220086Y0092394D01*
X0220527Y0093001D01*
X0220868Y0093670D01*
X0221100Y0094383D01*
X0221218Y0095125D01*
X0221218Y0095316D01*
X0216633Y0095316D01*
X0216633Y0095684D01*
X0221218Y0095684D01*
X0221218Y0095875D01*
X0221100Y0096617D01*
X0220868Y0097330D01*
X0220527Y0097999D01*
X0220086Y0098606D01*
X0219556Y0099137D01*
X0218948Y0099578D01*
X0218280Y0099919D01*
X0216265Y0100268D02*
X0216074Y0100268D01*
X0215332Y0100151D01*
X0214619Y0099919D01*
X0213950Y0099578D01*
X0213343Y0099137D01*
X0212812Y0098606D01*
X0212371Y0097999D01*
X0212030Y0097330D01*
X0211798Y0096617D01*
X0211681Y0095875D01*
X0211681Y0095684D01*
X0216265Y0095684D01*
X0216265Y0100268D01*
X0216265Y0098695D02*
X0216633Y0098695D01*
X0216633Y0097096D02*
X0216265Y0097096D01*
X0216265Y0095498D02*
X0161025Y0095498D01*
X0161025Y0094590D02*
X0161025Y0096410D01*
X0160328Y0098092D01*
X0159041Y0099379D01*
X0157359Y0100076D01*
X0155539Y0100076D01*
X0153857Y0099379D01*
X0152570Y0098092D01*
X0151873Y0096410D01*
X0151873Y0094590D01*
X0152570Y0092908D01*
X0153857Y0091621D01*
X0155539Y0090924D01*
X0157359Y0090924D01*
X0159041Y0091621D01*
X0160328Y0092908D01*
X0161025Y0094590D01*
X0160739Y0093899D02*
X0203377Y0093899D01*
X0203857Y0094379D02*
X0202570Y0093092D01*
X0201873Y0091410D01*
X0201873Y0089590D01*
X0202570Y0087908D01*
X0203857Y0086621D01*
X0205539Y0085924D01*
X0207359Y0085924D01*
X0209041Y0086621D01*
X0210328Y0087908D01*
X0211025Y0089590D01*
X0211025Y0091410D01*
X0210328Y0093092D01*
X0209041Y0094379D01*
X0207359Y0095076D01*
X0205539Y0095076D01*
X0203857Y0094379D01*
X0202242Y0092301D02*
X0159720Y0092301D01*
X0159041Y0089379D02*
X0157359Y0090076D01*
X0155539Y0090076D01*
X0153857Y0089379D01*
X0152570Y0088092D01*
X0151873Y0086410D01*
X0151873Y0084590D01*
X0152570Y0082908D01*
X0153857Y0081621D01*
X0155539Y0080924D01*
X0157359Y0080924D01*
X0159041Y0081621D01*
X0160328Y0082908D01*
X0161025Y0084590D01*
X0161025Y0086410D01*
X0160328Y0088092D01*
X0159041Y0089379D01*
X0159316Y0089104D02*
X0202075Y0089104D01*
X0201873Y0090702D02*
X0053024Y0090702D01*
X0053024Y0092301D02*
X0153178Y0092301D01*
X0152160Y0093899D02*
X0053024Y0093899D01*
X0053024Y0095498D02*
X0151873Y0095498D01*
X0152158Y0097096D02*
X0053024Y0097096D01*
X0053024Y0098695D02*
X0153173Y0098695D01*
X0153857Y0101621D02*
X0155539Y0100924D01*
X0157359Y0100924D01*
X0159041Y0101621D01*
X0160328Y0102908D01*
X0161025Y0104590D01*
X0161025Y0106410D01*
X0160328Y0108092D01*
X0159041Y0109379D01*
X0157359Y0110076D01*
X0155539Y0110076D01*
X0153857Y0109379D01*
X0152570Y0108092D01*
X0151873Y0106410D01*
X0151873Y0104590D01*
X0152570Y0102908D01*
X0153857Y0101621D01*
X0153587Y0101892D02*
X0053024Y0101892D01*
X0053024Y0103490D02*
X0152329Y0103490D01*
X0151873Y0105089D02*
X0053024Y0105089D01*
X0053024Y0106687D02*
X0151988Y0106687D01*
X0152764Y0108286D02*
X0053024Y0108286D01*
X0053024Y0109884D02*
X0155077Y0109884D01*
X0154191Y0111483D02*
X0053024Y0111483D01*
X0053024Y0113081D02*
X0152498Y0113081D01*
X0151873Y0114680D02*
X0053024Y0114680D01*
X0053024Y0116278D02*
X0151873Y0116278D01*
X0152481Y0117877D02*
X0053024Y0117877D01*
X0053024Y0119475D02*
X0154090Y0119475D01*
X0155178Y0121074D02*
X0053024Y0121074D01*
X0053024Y0122672D02*
X0152806Y0122672D01*
X0152006Y0124271D02*
X0053024Y0124271D01*
X0053024Y0125869D02*
X0151873Y0125869D01*
X0152312Y0127468D02*
X0053024Y0127468D01*
X0053024Y0129066D02*
X0153545Y0129066D01*
X0164683Y0132263D02*
X0168215Y0132263D01*
X0168857Y0131621D02*
X0170539Y0130924D01*
X0172359Y0130924D01*
X0174041Y0131621D01*
X0175328Y0132908D01*
X0176025Y0134590D01*
X0176025Y0136410D01*
X0175328Y0138092D01*
X0174041Y0139379D01*
X0172359Y0140076D01*
X0170539Y0140076D01*
X0168857Y0139379D01*
X0167570Y0138092D01*
X0166873Y0136410D01*
X0166873Y0134590D01*
X0167570Y0132908D01*
X0168857Y0131621D01*
X0167175Y0133862D02*
X0165723Y0133862D01*
X0166025Y0135460D02*
X0166873Y0135460D01*
X0167142Y0137059D02*
X0165756Y0137059D01*
X0164763Y0138657D02*
X0168136Y0138657D01*
X0174763Y0138657D02*
X0178136Y0138657D01*
X0177570Y0138092D02*
X0176873Y0136410D01*
X0176873Y0134590D01*
X0177570Y0132908D01*
X0178857Y0131621D01*
X0180539Y0130924D01*
X0182359Y0130924D01*
X0184041Y0131621D01*
X0185328Y0132908D01*
X0186025Y0134590D01*
X0186025Y0136410D01*
X0185328Y0138092D01*
X0184041Y0139379D01*
X0182359Y0140076D01*
X0180539Y0140076D01*
X0178857Y0139379D01*
X0177570Y0138092D01*
X0177142Y0137059D02*
X0175756Y0137059D01*
X0176025Y0135460D02*
X0176873Y0135460D01*
X0177175Y0133862D02*
X0175723Y0133862D01*
X0174683Y0132263D02*
X0178215Y0132263D01*
X0184683Y0132263D02*
X0187942Y0132263D01*
X0186967Y0133862D02*
X0185723Y0133862D01*
X0186025Y0135460D02*
X0191265Y0135460D01*
X0191633Y0135460D02*
X0196873Y0135460D01*
X0196873Y0134590D02*
X0197570Y0132908D01*
X0198857Y0131621D01*
X0200539Y0130924D01*
X0202359Y0130924D01*
X0204041Y0131621D01*
X0205328Y0132908D01*
X0206025Y0134590D01*
X0206025Y0136410D01*
X0205328Y0138092D01*
X0204041Y0139379D01*
X0202359Y0140076D01*
X0200539Y0140076D01*
X0198857Y0139379D01*
X0197570Y0138092D01*
X0196873Y0136410D01*
X0196873Y0134590D01*
X0197175Y0133862D02*
X0195931Y0133862D01*
X0194956Y0132263D02*
X0198215Y0132263D01*
X0191633Y0132263D02*
X0191265Y0132263D01*
X0191265Y0133862D02*
X0191633Y0133862D01*
X0191633Y0137059D02*
X0191265Y0137059D01*
X0191265Y0138657D02*
X0191633Y0138657D01*
X0195035Y0138657D02*
X0198136Y0138657D01*
X0197142Y0137059D02*
X0195956Y0137059D01*
X0204763Y0138657D02*
X0208136Y0138657D01*
X0207142Y0137059D02*
X0205756Y0137059D01*
X0206025Y0135460D02*
X0206873Y0135460D01*
X0207175Y0133862D02*
X0205723Y0133862D01*
X0204683Y0132263D02*
X0208215Y0132263D01*
X0219354Y0129066D02*
X0225674Y0129066D01*
X0225674Y0127468D02*
X0220587Y0127468D01*
X0221025Y0125869D02*
X0225674Y0125869D01*
X0225674Y0124271D02*
X0220892Y0124271D01*
X0220092Y0122672D02*
X0225674Y0122672D01*
X0225674Y0121074D02*
X0217720Y0121074D01*
X0218809Y0119475D02*
X0225674Y0119475D01*
X0225674Y0117877D02*
X0220417Y0117877D01*
X0221025Y0116278D02*
X0225674Y0116278D01*
X0225674Y0114680D02*
X0221025Y0114680D01*
X0220400Y0113081D02*
X0225674Y0113081D01*
X0225674Y0111483D02*
X0218707Y0111483D01*
X0212764Y0108286D02*
X0160134Y0108286D01*
X0160910Y0106687D02*
X0211988Y0106687D01*
X0211873Y0105089D02*
X0161025Y0105089D01*
X0160569Y0103490D02*
X0212329Y0103490D01*
X0213587Y0101892D02*
X0159312Y0101892D01*
X0159725Y0098695D02*
X0212900Y0098695D01*
X0211954Y0097096D02*
X0160741Y0097096D01*
X0153582Y0089104D02*
X0058761Y0089104D01*
X0067287Y0087505D02*
X0152327Y0087505D01*
X0151873Y0085907D02*
X0072799Y0085907D01*
X0073024Y0084308D02*
X0110827Y0084308D01*
X0110785Y0084267D02*
X0110226Y0082916D01*
X0110226Y0081455D01*
X0110785Y0080104D01*
X0111793Y0079097D01*
X0111793Y0075313D01*
X0117693Y0069413D01*
X0117693Y0069271D01*
X0118986Y0067978D01*
X0152523Y0067978D01*
X0152411Y0067707D01*
X0143300Y0067707D01*
X0135693Y0060100D01*
X0135693Y0058271D01*
X0135693Y0050174D01*
X0134785Y0049267D01*
X0134226Y0047916D01*
X0134226Y0046455D01*
X0134785Y0045104D01*
X0135819Y0044071D01*
X0137169Y0043511D01*
X0138631Y0043511D01*
X0139981Y0044071D01*
X0141015Y0045104D01*
X0141574Y0046455D01*
X0141574Y0047916D01*
X0141015Y0049267D01*
X0140107Y0050174D01*
X0140107Y0058271D01*
X0145129Y0063293D01*
X0152411Y0063293D01*
X0152570Y0062908D01*
X0153857Y0061621D01*
X0155539Y0060924D01*
X0157359Y0060924D01*
X0159041Y0061621D01*
X0160328Y0062908D01*
X0161025Y0064590D01*
X0161025Y0066410D01*
X0160375Y0067978D01*
X0160986Y0067978D01*
X0161693Y0067271D01*
X0161693Y0046271D01*
X0162986Y0044978D01*
X0164671Y0043293D01*
X0212411Y0043293D01*
X0212570Y0042908D01*
X0213857Y0041621D01*
X0215539Y0040924D01*
X0217359Y0040924D01*
X0219041Y0041621D01*
X0220328Y0042908D01*
X0221025Y0044590D01*
X0221025Y0046410D01*
X0220328Y0048092D01*
X0219041Y0049379D01*
X0217359Y0050076D01*
X0215539Y0050076D01*
X0213857Y0049379D01*
X0212570Y0048092D01*
X0212411Y0047707D01*
X0166500Y0047707D01*
X0166107Y0048100D01*
X0166107Y0069100D01*
X0164814Y0070392D01*
X0162814Y0072392D01*
X0159812Y0072392D01*
X0160328Y0072908D01*
X0161025Y0074590D01*
X0161025Y0076410D01*
X0160328Y0078092D01*
X0159041Y0079379D01*
X0157359Y0080076D01*
X0155539Y0080076D01*
X0153857Y0079379D01*
X0152570Y0078092D01*
X0151873Y0076410D01*
X0151873Y0074590D01*
X0152570Y0072908D01*
X0153086Y0072392D01*
X0120673Y0072392D01*
X0116007Y0077058D01*
X0116007Y0079097D01*
X0117015Y0080104D01*
X0117574Y0081455D01*
X0117574Y0082916D01*
X0117015Y0084267D01*
X0115981Y0085300D01*
X0114631Y0085859D01*
X0113169Y0085859D01*
X0111819Y0085300D01*
X0110785Y0084267D01*
X0110226Y0082709D02*
X0073024Y0082709D01*
X0073024Y0081111D02*
X0110368Y0081111D01*
X0111377Y0079512D02*
X0073024Y0079512D01*
X0073024Y0077914D02*
X0111793Y0077914D01*
X0111793Y0076315D02*
X0073024Y0076315D01*
X0073024Y0074717D02*
X0112389Y0074717D01*
X0113987Y0073118D02*
X0073024Y0073118D01*
X0073024Y0071520D02*
X0115586Y0071520D01*
X0117184Y0069921D02*
X0073024Y0069921D01*
X0073024Y0068323D02*
X0118641Y0068323D01*
X0119947Y0073118D02*
X0152483Y0073118D01*
X0151873Y0074717D02*
X0118348Y0074717D01*
X0116750Y0076315D02*
X0151873Y0076315D01*
X0152496Y0077914D02*
X0116007Y0077914D01*
X0116423Y0079512D02*
X0154179Y0079512D01*
X0155088Y0081111D02*
X0117432Y0081111D01*
X0117574Y0082709D02*
X0152769Y0082709D01*
X0151990Y0084308D02*
X0116973Y0084308D01*
X0139121Y0063527D02*
X0073024Y0063527D01*
X0073024Y0061929D02*
X0137522Y0061929D01*
X0135924Y0060330D02*
X0073024Y0060330D01*
X0073025Y0058732D02*
X0135693Y0058732D01*
X0135693Y0057133D02*
X0073024Y0057133D01*
X0073022Y0055535D02*
X0135693Y0055535D01*
X0135693Y0053936D02*
X0073020Y0053936D01*
X0073019Y0052338D02*
X0135693Y0052338D01*
X0135693Y0050739D02*
X0073017Y0050739D01*
X0073016Y0049141D02*
X0134733Y0049141D01*
X0134226Y0047542D02*
X0073014Y0047542D01*
X0073013Y0045944D02*
X0134438Y0045944D01*
X0135544Y0044345D02*
X0073011Y0044345D01*
X0073010Y0042747D02*
X0152731Y0042747D01*
X0152570Y0042908D02*
X0153857Y0041621D01*
X0155539Y0040924D01*
X0157359Y0040924D01*
X0159041Y0041621D01*
X0160328Y0042908D01*
X0161025Y0044590D01*
X0161025Y0046410D01*
X0160328Y0048092D01*
X0159041Y0049379D01*
X0157359Y0050076D01*
X0155539Y0050076D01*
X0153857Y0049379D01*
X0152570Y0048092D01*
X0151873Y0046410D01*
X0151873Y0044590D01*
X0152570Y0042908D01*
X0151975Y0044345D02*
X0140256Y0044345D01*
X0141362Y0045944D02*
X0151873Y0045944D01*
X0152342Y0047542D02*
X0141574Y0047542D01*
X0141067Y0049141D02*
X0153619Y0049141D01*
X0153857Y0051621D02*
X0155539Y0050924D01*
X0157359Y0050924D01*
X0159041Y0051621D01*
X0160328Y0052908D01*
X0161025Y0054590D01*
X0161025Y0056410D01*
X0160328Y0058092D01*
X0159041Y0059379D01*
X0157359Y0060076D01*
X0155539Y0060076D01*
X0153857Y0059379D01*
X0152570Y0058092D01*
X0151873Y0056410D01*
X0151873Y0054590D01*
X0152570Y0052908D01*
X0153857Y0051621D01*
X0153140Y0052338D02*
X0140107Y0052338D01*
X0140107Y0053936D02*
X0152144Y0053936D01*
X0151873Y0055535D02*
X0140107Y0055535D01*
X0140107Y0057133D02*
X0152173Y0057133D01*
X0153210Y0058732D02*
X0140568Y0058732D01*
X0142166Y0060330D02*
X0161693Y0060330D01*
X0161693Y0058732D02*
X0159688Y0058732D01*
X0160725Y0057133D02*
X0161693Y0057133D01*
X0161693Y0055535D02*
X0161025Y0055535D01*
X0160754Y0053936D02*
X0161693Y0053936D01*
X0161693Y0052338D02*
X0159758Y0052338D01*
X0161693Y0050739D02*
X0140107Y0050739D01*
X0143765Y0061929D02*
X0153549Y0061929D01*
X0159349Y0061929D02*
X0161693Y0061929D01*
X0161693Y0063527D02*
X0160585Y0063527D01*
X0161025Y0065126D02*
X0161693Y0065126D01*
X0161693Y0066724D02*
X0160894Y0066724D01*
X0166107Y0066724D02*
X0212004Y0066724D01*
X0211873Y0066410D02*
X0211873Y0064590D01*
X0212570Y0062908D01*
X0213857Y0061621D01*
X0215539Y0060924D01*
X0217359Y0060924D01*
X0219041Y0061621D01*
X0220328Y0062908D01*
X0221025Y0064590D01*
X0221025Y0066410D01*
X0220328Y0068092D01*
X0219041Y0069379D01*
X0217359Y0070076D01*
X0215539Y0070076D01*
X0213857Y0069379D01*
X0212570Y0068092D01*
X0211873Y0066410D01*
X0211873Y0065126D02*
X0166107Y0065126D01*
X0166107Y0063527D02*
X0212314Y0063527D01*
X0213549Y0061929D02*
X0166107Y0061929D01*
X0166107Y0060330D02*
X0225674Y0060330D01*
X0225674Y0058732D02*
X0219688Y0058732D01*
X0220328Y0058092D02*
X0219041Y0059379D01*
X0217359Y0060076D01*
X0215539Y0060076D01*
X0213857Y0059379D01*
X0212570Y0058092D01*
X0211873Y0056410D01*
X0211873Y0054590D01*
X0212570Y0052908D01*
X0213857Y0051621D01*
X0215539Y0050924D01*
X0217359Y0050924D01*
X0219041Y0051621D01*
X0220328Y0052908D01*
X0221025Y0054590D01*
X0221025Y0056410D01*
X0220328Y0058092D01*
X0220725Y0057133D02*
X0225674Y0057133D01*
X0225674Y0055535D02*
X0221025Y0055535D01*
X0220754Y0053936D02*
X0225674Y0053936D01*
X0225674Y0052338D02*
X0219758Y0052338D01*
X0219279Y0049141D02*
X0225674Y0049141D01*
X0225674Y0050739D02*
X0166107Y0050739D01*
X0166107Y0049141D02*
X0213619Y0049141D01*
X0213140Y0052338D02*
X0166107Y0052338D01*
X0166107Y0053936D02*
X0212144Y0053936D01*
X0211873Y0055535D02*
X0166107Y0055535D01*
X0166107Y0057133D02*
X0212173Y0057133D01*
X0213210Y0058732D02*
X0166107Y0058732D01*
X0166107Y0068323D02*
X0212801Y0068323D01*
X0215167Y0069921D02*
X0165285Y0069921D01*
X0163687Y0071520D02*
X0214101Y0071520D01*
X0213857Y0071621D02*
X0215539Y0070924D01*
X0217359Y0070924D01*
X0219041Y0071621D01*
X0220328Y0072908D01*
X0221025Y0074590D01*
X0221025Y0076410D01*
X0220328Y0078092D01*
X0219041Y0079379D01*
X0217359Y0080076D01*
X0215539Y0080076D01*
X0213857Y0079379D01*
X0212570Y0078092D01*
X0211873Y0076410D01*
X0211873Y0074590D01*
X0212570Y0072908D01*
X0213857Y0071621D01*
X0212483Y0073118D02*
X0160415Y0073118D01*
X0161025Y0074717D02*
X0211873Y0074717D01*
X0211873Y0076315D02*
X0208303Y0076315D01*
X0209041Y0076621D02*
X0210328Y0077908D01*
X0211025Y0079590D01*
X0211025Y0081410D01*
X0210328Y0083092D01*
X0209041Y0084379D01*
X0207359Y0085076D01*
X0205539Y0085076D01*
X0203857Y0084379D01*
X0202570Y0083092D01*
X0201873Y0081410D01*
X0201873Y0079590D01*
X0202570Y0077908D01*
X0203857Y0076621D01*
X0205539Y0075924D01*
X0207359Y0075924D01*
X0209041Y0076621D01*
X0210330Y0077914D02*
X0212496Y0077914D01*
X0210993Y0079512D02*
X0214179Y0079512D01*
X0215088Y0081111D02*
X0211025Y0081111D01*
X0210486Y0082709D02*
X0212769Y0082709D01*
X0212570Y0082908D02*
X0213857Y0081621D01*
X0215539Y0080924D01*
X0217359Y0080924D01*
X0219041Y0081621D01*
X0220328Y0082908D01*
X0221025Y0084590D01*
X0221025Y0086410D01*
X0220328Y0088092D01*
X0219041Y0089379D01*
X0217359Y0090076D01*
X0215539Y0090076D01*
X0213857Y0089379D01*
X0212570Y0088092D01*
X0211873Y0086410D01*
X0211873Y0084590D01*
X0212570Y0082908D01*
X0211990Y0084308D02*
X0209112Y0084308D01*
X0211873Y0085907D02*
X0161025Y0085907D01*
X0160908Y0084308D02*
X0203786Y0084308D01*
X0202412Y0082709D02*
X0160129Y0082709D01*
X0157810Y0081111D02*
X0201873Y0081111D01*
X0201906Y0079512D02*
X0158719Y0079512D01*
X0160402Y0077914D02*
X0202568Y0077914D01*
X0204595Y0076315D02*
X0161025Y0076315D01*
X0160571Y0087505D02*
X0202973Y0087505D01*
X0209925Y0087505D02*
X0212327Y0087505D01*
X0213582Y0089104D02*
X0210823Y0089104D01*
X0211025Y0090702D02*
X0225674Y0090702D01*
X0225674Y0089104D02*
X0219316Y0089104D01*
X0220571Y0087505D02*
X0225674Y0087505D01*
X0225674Y0085907D02*
X0221025Y0085907D01*
X0220908Y0084308D02*
X0225674Y0084308D01*
X0225674Y0082709D02*
X0220129Y0082709D01*
X0217810Y0081111D02*
X0225674Y0081111D01*
X0225674Y0079512D02*
X0218719Y0079512D01*
X0220402Y0077914D02*
X0225674Y0077914D01*
X0225674Y0076315D02*
X0221025Y0076315D01*
X0221025Y0074717D02*
X0225674Y0074717D01*
X0225674Y0073118D02*
X0220415Y0073118D01*
X0218797Y0071520D02*
X0225674Y0071520D01*
X0225674Y0069921D02*
X0217731Y0069921D01*
X0220097Y0068323D02*
X0225674Y0068323D01*
X0225674Y0066724D02*
X0220894Y0066724D01*
X0221025Y0065126D02*
X0225674Y0065126D01*
X0225674Y0063527D02*
X0220585Y0063527D01*
X0219349Y0061929D02*
X0225674Y0061929D01*
X0225674Y0047542D02*
X0220556Y0047542D01*
X0221025Y0045944D02*
X0225674Y0045944D01*
X0225674Y0044345D02*
X0220923Y0044345D01*
X0220167Y0042747D02*
X0225674Y0042747D01*
X0225674Y0041148D02*
X0217899Y0041148D01*
X0217359Y0040076D02*
X0219041Y0039379D01*
X0220328Y0038092D01*
X0221025Y0036410D01*
X0221025Y0034590D01*
X0220328Y0032908D01*
X0219041Y0031621D01*
X0217359Y0030924D01*
X0215539Y0030924D01*
X0213857Y0031621D01*
X0212570Y0032908D01*
X0211873Y0034590D01*
X0211873Y0036410D01*
X0212570Y0038092D01*
X0213857Y0039379D01*
X0215539Y0040076D01*
X0217359Y0040076D01*
X0218629Y0039550D02*
X0225674Y0039550D01*
X0225674Y0037951D02*
X0220386Y0037951D01*
X0221025Y0036353D02*
X0225674Y0036353D01*
X0225674Y0034754D02*
X0221025Y0034754D01*
X0220431Y0033156D02*
X0225674Y0033156D01*
X0225674Y0031557D02*
X0218887Y0031557D01*
X0217642Y0029959D02*
X0225674Y0029959D01*
X0225674Y0028360D02*
X0220060Y0028360D01*
X0220328Y0028092D02*
X0219041Y0029379D01*
X0217359Y0030076D01*
X0215539Y0030076D01*
X0213857Y0029379D01*
X0212570Y0028092D01*
X0211873Y0026410D01*
X0211873Y0024590D01*
X0212570Y0022908D01*
X0213857Y0021621D01*
X0215539Y0020924D01*
X0217359Y0020924D01*
X0219041Y0021621D01*
X0220328Y0022908D01*
X0221025Y0024590D01*
X0221025Y0026410D01*
X0220328Y0028092D01*
X0220879Y0026762D02*
X0225674Y0026762D01*
X0225674Y0025163D02*
X0221025Y0025163D01*
X0220600Y0023565D02*
X0225674Y0023565D01*
X0225674Y0021966D02*
X0219386Y0021966D01*
X0219041Y0019379D02*
X0217359Y0020076D01*
X0215539Y0020076D01*
X0213857Y0019379D01*
X0212570Y0018092D01*
X0211873Y0016410D01*
X0211873Y0014590D01*
X0212570Y0012908D01*
X0213857Y0011621D01*
X0215539Y0010924D01*
X0217359Y0010924D01*
X0219041Y0011621D01*
X0220328Y0012908D01*
X0221025Y0014590D01*
X0221025Y0016410D01*
X0220328Y0018092D01*
X0219041Y0019379D01*
X0219651Y0018769D02*
X0225674Y0018769D01*
X0225674Y0017171D02*
X0220710Y0017171D01*
X0221025Y0015572D02*
X0225674Y0015572D01*
X0225674Y0013973D02*
X0220769Y0013973D01*
X0219795Y0012375D02*
X0225674Y0012375D01*
X0225674Y0010776D02*
X0119888Y0010776D01*
X0119888Y0009178D02*
X0225674Y0009178D01*
X0225674Y0020368D02*
X0119888Y0020368D01*
X0119888Y0018769D02*
X0153247Y0018769D01*
X0153857Y0019379D02*
X0152570Y0018092D01*
X0151873Y0016410D01*
X0151873Y0014590D01*
X0152570Y0012908D01*
X0153857Y0011621D01*
X0155539Y0010924D01*
X0157359Y0010924D01*
X0159041Y0011621D01*
X0160328Y0012908D01*
X0161025Y0014590D01*
X0161025Y0016410D01*
X0160328Y0018092D01*
X0159041Y0019379D01*
X0157359Y0020076D01*
X0155539Y0020076D01*
X0153857Y0019379D01*
X0153857Y0021621D02*
X0155539Y0020924D01*
X0157359Y0020924D01*
X0159041Y0021621D01*
X0160328Y0022908D01*
X0161025Y0024590D01*
X0161025Y0026410D01*
X0160328Y0028092D01*
X0159041Y0029379D01*
X0157359Y0030076D01*
X0155539Y0030076D01*
X0153857Y0029379D01*
X0152570Y0028092D01*
X0151873Y0026410D01*
X0151873Y0024590D01*
X0152570Y0022908D01*
X0153857Y0021621D01*
X0153512Y0021966D02*
X0119105Y0021966D01*
X0118555Y0023565D02*
X0152298Y0023565D01*
X0151873Y0025163D02*
X0118555Y0025163D01*
X0118555Y0026762D02*
X0152019Y0026762D01*
X0152838Y0028360D02*
X0119555Y0028360D01*
X0119555Y0029959D02*
X0155257Y0029959D01*
X0155539Y0030924D02*
X0157359Y0030924D01*
X0159041Y0031621D01*
X0160328Y0032908D01*
X0161025Y0034590D01*
X0161025Y0036410D01*
X0160328Y0038092D01*
X0159041Y0039379D01*
X0157359Y0040076D01*
X0155539Y0040076D01*
X0153857Y0039379D01*
X0152570Y0038092D01*
X0151873Y0036410D01*
X0151873Y0034590D01*
X0152570Y0032908D01*
X0153857Y0031621D01*
X0155539Y0030924D01*
X0154011Y0031557D02*
X0119555Y0031557D01*
X0119555Y0033156D02*
X0152468Y0033156D01*
X0151873Y0034754D02*
X0118983Y0034754D01*
X0117384Y0036353D02*
X0151873Y0036353D01*
X0152512Y0037951D02*
X0115786Y0037951D01*
X0099283Y0039550D02*
X0154269Y0039550D01*
X0154999Y0041148D02*
X0073008Y0041148D01*
X0073006Y0039550D02*
X0084548Y0039550D01*
X0082835Y0037951D02*
X0073005Y0037951D01*
X0073003Y0036353D02*
X0081123Y0036353D01*
X0080253Y0034754D02*
X0073002Y0034754D01*
X0073019Y0033156D02*
X0080311Y0033156D01*
X0080368Y0031557D02*
X0072350Y0031557D01*
X0072586Y0029959D02*
X0047729Y0029959D01*
X0046848Y0028360D02*
X0070172Y0028360D01*
X0068839Y0026762D02*
X0037808Y0026762D01*
X0039242Y0018769D02*
X0068909Y0018769D01*
X0068247Y0020368D02*
X0029140Y0020368D01*
X0028768Y0025163D02*
X0068177Y0025163D01*
X0067854Y0023565D02*
X0020144Y0023565D01*
X0019039Y0021966D02*
X0067854Y0021966D01*
X0070341Y0017171D02*
X0047115Y0017171D01*
X0047607Y0015572D02*
X0072994Y0015572D01*
X0075160Y0013973D02*
X0081004Y0013973D01*
X0081062Y0012375D02*
X0075802Y0012375D01*
X0078339Y0010776D02*
X0081120Y0010776D01*
X0080946Y0015572D02*
X0078124Y0015572D01*
X0080777Y0017171D02*
X0080888Y0017171D01*
X0080426Y0029959D02*
X0078533Y0029959D01*
X0099600Y0028985D02*
X0099600Y0023114D01*
X0119888Y0017171D02*
X0152188Y0017171D01*
X0151873Y0015572D02*
X0119888Y0015572D01*
X0119888Y0013973D02*
X0152129Y0013973D01*
X0153103Y0012375D02*
X0119888Y0012375D01*
X0157642Y0029959D02*
X0215257Y0029959D01*
X0214011Y0031557D02*
X0158887Y0031557D01*
X0160431Y0033156D02*
X0212468Y0033156D01*
X0211873Y0034754D02*
X0161025Y0034754D01*
X0161025Y0036353D02*
X0211873Y0036353D01*
X0212512Y0037951D02*
X0160386Y0037951D01*
X0158629Y0039550D02*
X0214269Y0039550D01*
X0214999Y0041148D02*
X0157899Y0041148D01*
X0160167Y0042747D02*
X0212731Y0042747D01*
X0212838Y0028360D02*
X0160060Y0028360D01*
X0160879Y0026762D02*
X0212019Y0026762D01*
X0211873Y0025163D02*
X0161025Y0025163D01*
X0160600Y0023565D02*
X0212298Y0023565D01*
X0213512Y0021966D02*
X0159386Y0021966D01*
X0159651Y0018769D02*
X0183247Y0018769D01*
X0183857Y0019379D02*
X0182570Y0018092D01*
X0181873Y0016410D01*
X0181873Y0014590D01*
X0182570Y0012908D01*
X0183857Y0011621D01*
X0185539Y0010924D01*
X0187359Y0010924D01*
X0189041Y0011621D01*
X0190328Y0012908D01*
X0191025Y0014590D01*
X0191025Y0016410D01*
X0190328Y0018092D01*
X0189041Y0019379D01*
X0187359Y0020076D01*
X0185539Y0020076D01*
X0183857Y0019379D01*
X0182188Y0017171D02*
X0160710Y0017171D01*
X0161025Y0015572D02*
X0181873Y0015572D01*
X0182129Y0013973D02*
X0160769Y0013973D01*
X0159795Y0012375D02*
X0183103Y0012375D01*
X0189795Y0012375D02*
X0193103Y0012375D01*
X0192570Y0012908D02*
X0193857Y0011621D01*
X0195539Y0010924D01*
X0197359Y0010924D01*
X0199041Y0011621D01*
X0200328Y0012908D01*
X0201025Y0014590D01*
X0201025Y0016410D01*
X0200328Y0018092D01*
X0199041Y0019379D01*
X0197359Y0020076D01*
X0195539Y0020076D01*
X0193857Y0019379D01*
X0192570Y0018092D01*
X0191873Y0016410D01*
X0191873Y0014590D01*
X0192570Y0012908D01*
X0192129Y0013973D02*
X0190769Y0013973D01*
X0191025Y0015572D02*
X0191873Y0015572D01*
X0192188Y0017171D02*
X0190710Y0017171D01*
X0189651Y0018769D02*
X0193247Y0018769D01*
X0199651Y0018769D02*
X0203247Y0018769D01*
X0203857Y0019379D02*
X0202570Y0018092D01*
X0201873Y0016410D01*
X0201873Y0014590D01*
X0202570Y0012908D01*
X0203857Y0011621D01*
X0205539Y0010924D01*
X0207359Y0010924D01*
X0209041Y0011621D01*
X0210328Y0012908D01*
X0211025Y0014590D01*
X0211025Y0016410D01*
X0210328Y0018092D01*
X0209041Y0019379D01*
X0207359Y0020076D01*
X0205539Y0020076D01*
X0203857Y0019379D01*
X0202188Y0017171D02*
X0200710Y0017171D01*
X0201025Y0015572D02*
X0201873Y0015572D01*
X0202129Y0013973D02*
X0200769Y0013973D01*
X0199795Y0012375D02*
X0203103Y0012375D01*
X0209795Y0012375D02*
X0213103Y0012375D01*
X0212129Y0013973D02*
X0210769Y0013973D01*
X0211025Y0015572D02*
X0211873Y0015572D01*
X0212188Y0017171D02*
X0210710Y0017171D01*
X0209651Y0018769D02*
X0213247Y0018769D01*
X0163619Y0044345D02*
X0160923Y0044345D01*
X0161025Y0045944D02*
X0162020Y0045944D01*
X0161693Y0047542D02*
X0160556Y0047542D01*
X0161693Y0049141D02*
X0159279Y0049141D01*
X0140719Y0065126D02*
X0073024Y0065126D01*
X0073024Y0066724D02*
X0142318Y0066724D01*
X0209521Y0093899D02*
X0211955Y0093899D01*
X0212030Y0093670D02*
X0212371Y0093001D01*
X0212812Y0092394D01*
X0213343Y0091863D01*
X0213950Y0091422D01*
X0214619Y0091081D01*
X0215332Y0090849D01*
X0216074Y0090731D01*
X0216265Y0090731D01*
X0216265Y0095316D01*
X0211681Y0095316D01*
X0211681Y0095125D01*
X0211798Y0094383D01*
X0212030Y0093670D01*
X0212905Y0092301D02*
X0210656Y0092301D01*
X0216265Y0092301D02*
X0216633Y0092301D01*
X0216633Y0093899D02*
X0216265Y0093899D01*
X0216633Y0095498D02*
X0225674Y0095498D01*
X0225674Y0097096D02*
X0220944Y0097096D01*
X0219998Y0098695D02*
X0225674Y0098695D01*
X0225674Y0100293D02*
X0053024Y0100293D01*
X0059230Y0014958D02*
X0059230Y0014958D01*
X0185756Y0137059D02*
X0186942Y0137059D01*
X0187863Y0138657D02*
X0184763Y0138657D01*
X0220943Y0093899D02*
X0225674Y0093899D01*
X0225674Y0092301D02*
X0219993Y0092301D01*
D21*
X0168900Y0045500D02*
X0168585Y0045500D01*
X0119900Y0070185D02*
X0113900Y0076185D01*
X0113900Y0082185D01*
M02*
