G75*
%MOIN*%
%OFA0B0*%
%FSLAX25Y25*%
%IPPOS*%
%LPD*%
%AMOC8*
5,1,8,0,0,1.08239X$1,22.5*
%
%ADD10C,0.00000*%
D10*
X0005457Y0022435D02*
X0026291Y0026394D01*
X0046791Y0030019D01*
X0046860Y0031852D01*
X0046930Y0032019D01*
X0059694Y0032505D01*
X0072124Y0032991D01*
X0072100Y0032985D02*
X0072125Y0058990D01*
X0072124Y0058963D02*
X0072124Y0084935D01*
X0052124Y0088685D01*
X0052124Y0199797D01*
X0228374Y0199797D01*
X0228374Y0006741D01*
X0167819Y0006394D01*
X0107263Y0006047D01*
X0074902Y0009419D01*
X0074902Y0012574D01*
X0060805Y0013130D01*
X0046707Y0013685D01*
X0046707Y0015908D01*
X0005457Y0022435D01*
X0070553Y0022850D02*
X0070555Y0023003D01*
X0070561Y0023157D01*
X0070571Y0023310D01*
X0070585Y0023462D01*
X0070603Y0023615D01*
X0070625Y0023766D01*
X0070650Y0023917D01*
X0070680Y0024068D01*
X0070714Y0024218D01*
X0070751Y0024366D01*
X0070792Y0024514D01*
X0070837Y0024660D01*
X0070886Y0024806D01*
X0070939Y0024950D01*
X0070995Y0025092D01*
X0071055Y0025233D01*
X0071119Y0025373D01*
X0071186Y0025511D01*
X0071257Y0025647D01*
X0071332Y0025781D01*
X0071409Y0025913D01*
X0071491Y0026043D01*
X0071575Y0026171D01*
X0071663Y0026297D01*
X0071754Y0026420D01*
X0071848Y0026541D01*
X0071946Y0026659D01*
X0072046Y0026775D01*
X0072150Y0026888D01*
X0072256Y0026999D01*
X0072365Y0027107D01*
X0072477Y0027212D01*
X0072591Y0027313D01*
X0072709Y0027412D01*
X0072828Y0027508D01*
X0072950Y0027601D01*
X0073075Y0027690D01*
X0073202Y0027777D01*
X0073331Y0027859D01*
X0073462Y0027939D01*
X0073595Y0028015D01*
X0073730Y0028088D01*
X0073867Y0028157D01*
X0074006Y0028222D01*
X0074146Y0028284D01*
X0074288Y0028342D01*
X0074431Y0028397D01*
X0074576Y0028448D01*
X0074722Y0028495D01*
X0074869Y0028538D01*
X0075017Y0028577D01*
X0075166Y0028613D01*
X0075316Y0028644D01*
X0075467Y0028672D01*
X0075618Y0028696D01*
X0075771Y0028716D01*
X0075923Y0028732D01*
X0076076Y0028744D01*
X0076229Y0028752D01*
X0076382Y0028756D01*
X0076536Y0028756D01*
X0076689Y0028752D01*
X0076842Y0028744D01*
X0076995Y0028732D01*
X0077147Y0028716D01*
X0077300Y0028696D01*
X0077451Y0028672D01*
X0077602Y0028644D01*
X0077752Y0028613D01*
X0077901Y0028577D01*
X0078049Y0028538D01*
X0078196Y0028495D01*
X0078342Y0028448D01*
X0078487Y0028397D01*
X0078630Y0028342D01*
X0078772Y0028284D01*
X0078912Y0028222D01*
X0079051Y0028157D01*
X0079188Y0028088D01*
X0079323Y0028015D01*
X0079456Y0027939D01*
X0079587Y0027859D01*
X0079716Y0027777D01*
X0079843Y0027690D01*
X0079968Y0027601D01*
X0080090Y0027508D01*
X0080209Y0027412D01*
X0080327Y0027313D01*
X0080441Y0027212D01*
X0080553Y0027107D01*
X0080662Y0026999D01*
X0080768Y0026888D01*
X0080872Y0026775D01*
X0080972Y0026659D01*
X0081070Y0026541D01*
X0081164Y0026420D01*
X0081255Y0026297D01*
X0081343Y0026171D01*
X0081427Y0026043D01*
X0081509Y0025913D01*
X0081586Y0025781D01*
X0081661Y0025647D01*
X0081732Y0025511D01*
X0081799Y0025373D01*
X0081863Y0025233D01*
X0081923Y0025092D01*
X0081979Y0024950D01*
X0082032Y0024806D01*
X0082081Y0024660D01*
X0082126Y0024514D01*
X0082167Y0024366D01*
X0082204Y0024218D01*
X0082238Y0024068D01*
X0082268Y0023917D01*
X0082293Y0023766D01*
X0082315Y0023615D01*
X0082333Y0023462D01*
X0082347Y0023310D01*
X0082357Y0023157D01*
X0082363Y0023003D01*
X0082365Y0022850D01*
X0082363Y0022697D01*
X0082357Y0022543D01*
X0082347Y0022390D01*
X0082333Y0022238D01*
X0082315Y0022085D01*
X0082293Y0021934D01*
X0082268Y0021783D01*
X0082238Y0021632D01*
X0082204Y0021482D01*
X0082167Y0021334D01*
X0082126Y0021186D01*
X0082081Y0021040D01*
X0082032Y0020894D01*
X0081979Y0020750D01*
X0081923Y0020608D01*
X0081863Y0020467D01*
X0081799Y0020327D01*
X0081732Y0020189D01*
X0081661Y0020053D01*
X0081586Y0019919D01*
X0081509Y0019787D01*
X0081427Y0019657D01*
X0081343Y0019529D01*
X0081255Y0019403D01*
X0081164Y0019280D01*
X0081070Y0019159D01*
X0080972Y0019041D01*
X0080872Y0018925D01*
X0080768Y0018812D01*
X0080662Y0018701D01*
X0080553Y0018593D01*
X0080441Y0018488D01*
X0080327Y0018387D01*
X0080209Y0018288D01*
X0080090Y0018192D01*
X0079968Y0018099D01*
X0079843Y0018010D01*
X0079716Y0017923D01*
X0079587Y0017841D01*
X0079456Y0017761D01*
X0079323Y0017685D01*
X0079188Y0017612D01*
X0079051Y0017543D01*
X0078912Y0017478D01*
X0078772Y0017416D01*
X0078630Y0017358D01*
X0078487Y0017303D01*
X0078342Y0017252D01*
X0078196Y0017205D01*
X0078049Y0017162D01*
X0077901Y0017123D01*
X0077752Y0017087D01*
X0077602Y0017056D01*
X0077451Y0017028D01*
X0077300Y0017004D01*
X0077147Y0016984D01*
X0076995Y0016968D01*
X0076842Y0016956D01*
X0076689Y0016948D01*
X0076536Y0016944D01*
X0076382Y0016944D01*
X0076229Y0016948D01*
X0076076Y0016956D01*
X0075923Y0016968D01*
X0075771Y0016984D01*
X0075618Y0017004D01*
X0075467Y0017028D01*
X0075316Y0017056D01*
X0075166Y0017087D01*
X0075017Y0017123D01*
X0074869Y0017162D01*
X0074722Y0017205D01*
X0074576Y0017252D01*
X0074431Y0017303D01*
X0074288Y0017358D01*
X0074146Y0017416D01*
X0074006Y0017478D01*
X0073867Y0017543D01*
X0073730Y0017612D01*
X0073595Y0017685D01*
X0073462Y0017761D01*
X0073331Y0017841D01*
X0073202Y0017923D01*
X0073075Y0018010D01*
X0072950Y0018099D01*
X0072828Y0018192D01*
X0072709Y0018288D01*
X0072591Y0018387D01*
X0072477Y0018488D01*
X0072365Y0018593D01*
X0072256Y0018701D01*
X0072150Y0018812D01*
X0072046Y0018925D01*
X0071946Y0019041D01*
X0071848Y0019159D01*
X0071754Y0019280D01*
X0071663Y0019403D01*
X0071575Y0019529D01*
X0071491Y0019657D01*
X0071409Y0019787D01*
X0071332Y0019919D01*
X0071257Y0020053D01*
X0071186Y0020189D01*
X0071119Y0020327D01*
X0071055Y0020467D01*
X0070995Y0020608D01*
X0070939Y0020750D01*
X0070886Y0020894D01*
X0070837Y0021040D01*
X0070792Y0021186D01*
X0070751Y0021334D01*
X0070714Y0021482D01*
X0070680Y0021632D01*
X0070650Y0021783D01*
X0070625Y0021934D01*
X0070603Y0022085D01*
X0070585Y0022238D01*
X0070571Y0022390D01*
X0070561Y0022543D01*
X0070555Y0022697D01*
X0070553Y0022850D01*
X0212539Y0148504D02*
X0212541Y0148657D01*
X0212547Y0148811D01*
X0212557Y0148964D01*
X0212571Y0149116D01*
X0212589Y0149269D01*
X0212611Y0149420D01*
X0212636Y0149571D01*
X0212666Y0149722D01*
X0212700Y0149872D01*
X0212737Y0150020D01*
X0212778Y0150168D01*
X0212823Y0150314D01*
X0212872Y0150460D01*
X0212925Y0150604D01*
X0212981Y0150746D01*
X0213041Y0150887D01*
X0213105Y0151027D01*
X0213172Y0151165D01*
X0213243Y0151301D01*
X0213318Y0151435D01*
X0213395Y0151567D01*
X0213477Y0151697D01*
X0213561Y0151825D01*
X0213649Y0151951D01*
X0213740Y0152074D01*
X0213834Y0152195D01*
X0213932Y0152313D01*
X0214032Y0152429D01*
X0214136Y0152542D01*
X0214242Y0152653D01*
X0214351Y0152761D01*
X0214463Y0152866D01*
X0214577Y0152967D01*
X0214695Y0153066D01*
X0214814Y0153162D01*
X0214936Y0153255D01*
X0215061Y0153344D01*
X0215188Y0153431D01*
X0215317Y0153513D01*
X0215448Y0153593D01*
X0215581Y0153669D01*
X0215716Y0153742D01*
X0215853Y0153811D01*
X0215992Y0153876D01*
X0216132Y0153938D01*
X0216274Y0153996D01*
X0216417Y0154051D01*
X0216562Y0154102D01*
X0216708Y0154149D01*
X0216855Y0154192D01*
X0217003Y0154231D01*
X0217152Y0154267D01*
X0217302Y0154298D01*
X0217453Y0154326D01*
X0217604Y0154350D01*
X0217757Y0154370D01*
X0217909Y0154386D01*
X0218062Y0154398D01*
X0218215Y0154406D01*
X0218368Y0154410D01*
X0218522Y0154410D01*
X0218675Y0154406D01*
X0218828Y0154398D01*
X0218981Y0154386D01*
X0219133Y0154370D01*
X0219286Y0154350D01*
X0219437Y0154326D01*
X0219588Y0154298D01*
X0219738Y0154267D01*
X0219887Y0154231D01*
X0220035Y0154192D01*
X0220182Y0154149D01*
X0220328Y0154102D01*
X0220473Y0154051D01*
X0220616Y0153996D01*
X0220758Y0153938D01*
X0220898Y0153876D01*
X0221037Y0153811D01*
X0221174Y0153742D01*
X0221309Y0153669D01*
X0221442Y0153593D01*
X0221573Y0153513D01*
X0221702Y0153431D01*
X0221829Y0153344D01*
X0221954Y0153255D01*
X0222076Y0153162D01*
X0222195Y0153066D01*
X0222313Y0152967D01*
X0222427Y0152866D01*
X0222539Y0152761D01*
X0222648Y0152653D01*
X0222754Y0152542D01*
X0222858Y0152429D01*
X0222958Y0152313D01*
X0223056Y0152195D01*
X0223150Y0152074D01*
X0223241Y0151951D01*
X0223329Y0151825D01*
X0223413Y0151697D01*
X0223495Y0151567D01*
X0223572Y0151435D01*
X0223647Y0151301D01*
X0223718Y0151165D01*
X0223785Y0151027D01*
X0223849Y0150887D01*
X0223909Y0150746D01*
X0223965Y0150604D01*
X0224018Y0150460D01*
X0224067Y0150314D01*
X0224112Y0150168D01*
X0224153Y0150020D01*
X0224190Y0149872D01*
X0224224Y0149722D01*
X0224254Y0149571D01*
X0224279Y0149420D01*
X0224301Y0149269D01*
X0224319Y0149116D01*
X0224333Y0148964D01*
X0224343Y0148811D01*
X0224349Y0148657D01*
X0224351Y0148504D01*
X0224349Y0148351D01*
X0224343Y0148197D01*
X0224333Y0148044D01*
X0224319Y0147892D01*
X0224301Y0147739D01*
X0224279Y0147588D01*
X0224254Y0147437D01*
X0224224Y0147286D01*
X0224190Y0147136D01*
X0224153Y0146988D01*
X0224112Y0146840D01*
X0224067Y0146694D01*
X0224018Y0146548D01*
X0223965Y0146404D01*
X0223909Y0146262D01*
X0223849Y0146121D01*
X0223785Y0145981D01*
X0223718Y0145843D01*
X0223647Y0145707D01*
X0223572Y0145573D01*
X0223495Y0145441D01*
X0223413Y0145311D01*
X0223329Y0145183D01*
X0223241Y0145057D01*
X0223150Y0144934D01*
X0223056Y0144813D01*
X0222958Y0144695D01*
X0222858Y0144579D01*
X0222754Y0144466D01*
X0222648Y0144355D01*
X0222539Y0144247D01*
X0222427Y0144142D01*
X0222313Y0144041D01*
X0222195Y0143942D01*
X0222076Y0143846D01*
X0221954Y0143753D01*
X0221829Y0143664D01*
X0221702Y0143577D01*
X0221573Y0143495D01*
X0221442Y0143415D01*
X0221309Y0143339D01*
X0221174Y0143266D01*
X0221037Y0143197D01*
X0220898Y0143132D01*
X0220758Y0143070D01*
X0220616Y0143012D01*
X0220473Y0142957D01*
X0220328Y0142906D01*
X0220182Y0142859D01*
X0220035Y0142816D01*
X0219887Y0142777D01*
X0219738Y0142741D01*
X0219588Y0142710D01*
X0219437Y0142682D01*
X0219286Y0142658D01*
X0219133Y0142638D01*
X0218981Y0142622D01*
X0218828Y0142610D01*
X0218675Y0142602D01*
X0218522Y0142598D01*
X0218368Y0142598D01*
X0218215Y0142602D01*
X0218062Y0142610D01*
X0217909Y0142622D01*
X0217757Y0142638D01*
X0217604Y0142658D01*
X0217453Y0142682D01*
X0217302Y0142710D01*
X0217152Y0142741D01*
X0217003Y0142777D01*
X0216855Y0142816D01*
X0216708Y0142859D01*
X0216562Y0142906D01*
X0216417Y0142957D01*
X0216274Y0143012D01*
X0216132Y0143070D01*
X0215992Y0143132D01*
X0215853Y0143197D01*
X0215716Y0143266D01*
X0215581Y0143339D01*
X0215448Y0143415D01*
X0215317Y0143495D01*
X0215188Y0143577D01*
X0215061Y0143664D01*
X0214936Y0143753D01*
X0214814Y0143846D01*
X0214695Y0143942D01*
X0214577Y0144041D01*
X0214463Y0144142D01*
X0214351Y0144247D01*
X0214242Y0144355D01*
X0214136Y0144466D01*
X0214032Y0144579D01*
X0213932Y0144695D01*
X0213834Y0144813D01*
X0213740Y0144934D01*
X0213649Y0145057D01*
X0213561Y0145183D01*
X0213477Y0145311D01*
X0213395Y0145441D01*
X0213318Y0145573D01*
X0213243Y0145707D01*
X0213172Y0145843D01*
X0213105Y0145981D01*
X0213041Y0146121D01*
X0212981Y0146262D01*
X0212925Y0146404D01*
X0212872Y0146548D01*
X0212823Y0146694D01*
X0212778Y0146840D01*
X0212737Y0146988D01*
X0212700Y0147136D01*
X0212666Y0147286D01*
X0212636Y0147437D01*
X0212611Y0147588D01*
X0212589Y0147739D01*
X0212571Y0147892D01*
X0212557Y0148044D01*
X0212547Y0148197D01*
X0212541Y0148351D01*
X0212539Y0148504D01*
X0070603Y0169543D02*
X0070605Y0169617D01*
X0070611Y0169691D01*
X0070621Y0169764D01*
X0070635Y0169837D01*
X0070652Y0169909D01*
X0070674Y0169979D01*
X0070699Y0170049D01*
X0070728Y0170117D01*
X0070761Y0170183D01*
X0070797Y0170248D01*
X0070837Y0170310D01*
X0070879Y0170371D01*
X0070925Y0170429D01*
X0070974Y0170484D01*
X0071026Y0170537D01*
X0071081Y0170587D01*
X0071138Y0170633D01*
X0071198Y0170677D01*
X0071260Y0170717D01*
X0071324Y0170754D01*
X0071390Y0170788D01*
X0071458Y0170818D01*
X0071527Y0170844D01*
X0071598Y0170867D01*
X0071669Y0170885D01*
X0071742Y0170900D01*
X0071815Y0170911D01*
X0071889Y0170918D01*
X0071963Y0170921D01*
X0072036Y0170920D01*
X0072110Y0170915D01*
X0072184Y0170906D01*
X0072257Y0170893D01*
X0072329Y0170876D01*
X0072400Y0170856D01*
X0072470Y0170831D01*
X0072538Y0170803D01*
X0072605Y0170772D01*
X0072670Y0170736D01*
X0072733Y0170698D01*
X0072794Y0170656D01*
X0072853Y0170610D01*
X0072909Y0170562D01*
X0072962Y0170511D01*
X0073012Y0170457D01*
X0073060Y0170400D01*
X0073104Y0170341D01*
X0073146Y0170279D01*
X0073184Y0170216D01*
X0073218Y0170150D01*
X0073249Y0170083D01*
X0073276Y0170014D01*
X0073299Y0169944D01*
X0073319Y0169873D01*
X0073335Y0169800D01*
X0073347Y0169727D01*
X0073355Y0169654D01*
X0073359Y0169580D01*
X0073359Y0169506D01*
X0073355Y0169432D01*
X0073347Y0169359D01*
X0073335Y0169286D01*
X0073319Y0169213D01*
X0073299Y0169142D01*
X0073276Y0169072D01*
X0073249Y0169003D01*
X0073218Y0168936D01*
X0073184Y0168870D01*
X0073146Y0168807D01*
X0073104Y0168745D01*
X0073060Y0168686D01*
X0073012Y0168629D01*
X0072962Y0168575D01*
X0072909Y0168524D01*
X0072853Y0168476D01*
X0072794Y0168430D01*
X0072733Y0168388D01*
X0072670Y0168350D01*
X0072605Y0168314D01*
X0072538Y0168283D01*
X0072470Y0168255D01*
X0072400Y0168230D01*
X0072329Y0168210D01*
X0072257Y0168193D01*
X0072184Y0168180D01*
X0072110Y0168171D01*
X0072036Y0168166D01*
X0071963Y0168165D01*
X0071889Y0168168D01*
X0071815Y0168175D01*
X0071742Y0168186D01*
X0071669Y0168201D01*
X0071598Y0168219D01*
X0071527Y0168242D01*
X0071458Y0168268D01*
X0071390Y0168298D01*
X0071324Y0168332D01*
X0071260Y0168369D01*
X0071198Y0168409D01*
X0071138Y0168453D01*
X0071081Y0168499D01*
X0071026Y0168549D01*
X0070974Y0168602D01*
X0070925Y0168657D01*
X0070879Y0168715D01*
X0070837Y0168776D01*
X0070797Y0168838D01*
X0070761Y0168903D01*
X0070728Y0168969D01*
X0070699Y0169037D01*
X0070674Y0169107D01*
X0070652Y0169177D01*
X0070635Y0169249D01*
X0070621Y0169322D01*
X0070611Y0169395D01*
X0070605Y0169469D01*
X0070603Y0169543D01*
X0065681Y0164819D02*
X0063319Y0164819D01*
X0063242Y0164807D01*
X0063166Y0164792D01*
X0063090Y0164773D01*
X0063016Y0164750D01*
X0062942Y0164724D01*
X0062871Y0164694D01*
X0062800Y0164660D01*
X0062732Y0164624D01*
X0062665Y0164583D01*
X0062600Y0164540D01*
X0062538Y0164494D01*
X0062477Y0164444D01*
X0062420Y0164392D01*
X0062365Y0164336D01*
X0062313Y0164279D01*
X0062263Y0164218D01*
X0062217Y0164156D01*
X0062174Y0164091D01*
X0062134Y0164024D01*
X0062097Y0163955D01*
X0062064Y0163885D01*
X0062034Y0163813D01*
X0062008Y0163739D01*
X0061986Y0163665D01*
X0061967Y0163589D01*
X0061952Y0163513D01*
X0061941Y0163436D01*
X0061933Y0163358D01*
X0061929Y0163280D01*
X0061930Y0163202D01*
X0061933Y0163125D01*
X0061941Y0163047D01*
X0061941Y0163048D02*
X0061933Y0162970D01*
X0061930Y0162893D01*
X0061929Y0162815D01*
X0061933Y0162737D01*
X0061941Y0162659D01*
X0061952Y0162582D01*
X0061967Y0162506D01*
X0061986Y0162430D01*
X0062008Y0162356D01*
X0062034Y0162282D01*
X0062064Y0162210D01*
X0062097Y0162140D01*
X0062134Y0162071D01*
X0062174Y0162004D01*
X0062217Y0161939D01*
X0062263Y0161877D01*
X0062313Y0161816D01*
X0062365Y0161759D01*
X0062420Y0161703D01*
X0062477Y0161651D01*
X0062538Y0161601D01*
X0062600Y0161555D01*
X0062665Y0161512D01*
X0062732Y0161471D01*
X0062800Y0161435D01*
X0062871Y0161401D01*
X0062942Y0161371D01*
X0063016Y0161345D01*
X0063090Y0161322D01*
X0063166Y0161303D01*
X0063242Y0161288D01*
X0063319Y0161276D01*
X0065681Y0161276D01*
X0065682Y0161276D02*
X0065759Y0161288D01*
X0065835Y0161303D01*
X0065911Y0161322D01*
X0065985Y0161345D01*
X0066059Y0161371D01*
X0066130Y0161401D01*
X0066201Y0161435D01*
X0066269Y0161471D01*
X0066336Y0161512D01*
X0066401Y0161555D01*
X0066463Y0161601D01*
X0066524Y0161651D01*
X0066581Y0161703D01*
X0066636Y0161759D01*
X0066688Y0161816D01*
X0066738Y0161877D01*
X0066784Y0161939D01*
X0066827Y0162004D01*
X0066867Y0162071D01*
X0066904Y0162140D01*
X0066937Y0162210D01*
X0066967Y0162282D01*
X0066993Y0162356D01*
X0067015Y0162430D01*
X0067034Y0162506D01*
X0067049Y0162582D01*
X0067060Y0162659D01*
X0067068Y0162737D01*
X0067072Y0162815D01*
X0067071Y0162893D01*
X0067068Y0162970D01*
X0067060Y0163048D01*
X0067060Y0163047D02*
X0067068Y0163125D01*
X0067071Y0163202D01*
X0067072Y0163280D01*
X0067068Y0163358D01*
X0067060Y0163436D01*
X0067049Y0163513D01*
X0067034Y0163589D01*
X0067015Y0163665D01*
X0066993Y0163739D01*
X0066967Y0163813D01*
X0066937Y0163885D01*
X0066904Y0163955D01*
X0066867Y0164024D01*
X0066827Y0164091D01*
X0066784Y0164156D01*
X0066738Y0164218D01*
X0066688Y0164279D01*
X0066636Y0164336D01*
X0066581Y0164392D01*
X0066524Y0164444D01*
X0066463Y0164494D01*
X0066401Y0164540D01*
X0066336Y0164583D01*
X0066269Y0164624D01*
X0066201Y0164660D01*
X0066130Y0164694D01*
X0066059Y0164724D01*
X0065985Y0164750D01*
X0065911Y0164773D01*
X0065835Y0164792D01*
X0065759Y0164807D01*
X0065682Y0164819D01*
X0070603Y0184898D02*
X0070605Y0184972D01*
X0070611Y0185046D01*
X0070621Y0185119D01*
X0070635Y0185192D01*
X0070652Y0185264D01*
X0070674Y0185334D01*
X0070699Y0185404D01*
X0070728Y0185472D01*
X0070761Y0185538D01*
X0070797Y0185603D01*
X0070837Y0185665D01*
X0070879Y0185726D01*
X0070925Y0185784D01*
X0070974Y0185839D01*
X0071026Y0185892D01*
X0071081Y0185942D01*
X0071138Y0185988D01*
X0071198Y0186032D01*
X0071260Y0186072D01*
X0071324Y0186109D01*
X0071390Y0186143D01*
X0071458Y0186173D01*
X0071527Y0186199D01*
X0071598Y0186222D01*
X0071669Y0186240D01*
X0071742Y0186255D01*
X0071815Y0186266D01*
X0071889Y0186273D01*
X0071963Y0186276D01*
X0072036Y0186275D01*
X0072110Y0186270D01*
X0072184Y0186261D01*
X0072257Y0186248D01*
X0072329Y0186231D01*
X0072400Y0186211D01*
X0072470Y0186186D01*
X0072538Y0186158D01*
X0072605Y0186127D01*
X0072670Y0186091D01*
X0072733Y0186053D01*
X0072794Y0186011D01*
X0072853Y0185965D01*
X0072909Y0185917D01*
X0072962Y0185866D01*
X0073012Y0185812D01*
X0073060Y0185755D01*
X0073104Y0185696D01*
X0073146Y0185634D01*
X0073184Y0185571D01*
X0073218Y0185505D01*
X0073249Y0185438D01*
X0073276Y0185369D01*
X0073299Y0185299D01*
X0073319Y0185228D01*
X0073335Y0185155D01*
X0073347Y0185082D01*
X0073355Y0185009D01*
X0073359Y0184935D01*
X0073359Y0184861D01*
X0073355Y0184787D01*
X0073347Y0184714D01*
X0073335Y0184641D01*
X0073319Y0184568D01*
X0073299Y0184497D01*
X0073276Y0184427D01*
X0073249Y0184358D01*
X0073218Y0184291D01*
X0073184Y0184225D01*
X0073146Y0184162D01*
X0073104Y0184100D01*
X0073060Y0184041D01*
X0073012Y0183984D01*
X0072962Y0183930D01*
X0072909Y0183879D01*
X0072853Y0183831D01*
X0072794Y0183785D01*
X0072733Y0183743D01*
X0072670Y0183705D01*
X0072605Y0183669D01*
X0072538Y0183638D01*
X0072470Y0183610D01*
X0072400Y0183585D01*
X0072329Y0183565D01*
X0072257Y0183548D01*
X0072184Y0183535D01*
X0072110Y0183526D01*
X0072036Y0183521D01*
X0071963Y0183520D01*
X0071889Y0183523D01*
X0071815Y0183530D01*
X0071742Y0183541D01*
X0071669Y0183556D01*
X0071598Y0183574D01*
X0071527Y0183597D01*
X0071458Y0183623D01*
X0071390Y0183653D01*
X0071324Y0183687D01*
X0071260Y0183724D01*
X0071198Y0183764D01*
X0071138Y0183808D01*
X0071081Y0183854D01*
X0071026Y0183904D01*
X0070974Y0183957D01*
X0070925Y0184012D01*
X0070879Y0184070D01*
X0070837Y0184131D01*
X0070797Y0184193D01*
X0070761Y0184258D01*
X0070728Y0184324D01*
X0070699Y0184392D01*
X0070674Y0184462D01*
X0070652Y0184532D01*
X0070635Y0184604D01*
X0070621Y0184677D01*
X0070611Y0184750D01*
X0070605Y0184824D01*
X0070603Y0184898D01*
X0065681Y0189622D02*
X0063516Y0189622D01*
X0063442Y0189619D01*
X0063367Y0189620D01*
X0063292Y0189624D01*
X0063217Y0189633D01*
X0063143Y0189645D01*
X0063070Y0189661D01*
X0062997Y0189680D01*
X0062926Y0189703D01*
X0062856Y0189730D01*
X0062787Y0189760D01*
X0062720Y0189794D01*
X0062655Y0189831D01*
X0062592Y0189871D01*
X0062531Y0189914D01*
X0062472Y0189961D01*
X0062416Y0190010D01*
X0062362Y0190062D01*
X0062311Y0190117D01*
X0062262Y0190175D01*
X0062217Y0190234D01*
X0062175Y0190296D01*
X0062136Y0190360D01*
X0062100Y0190426D01*
X0062067Y0190494D01*
X0062038Y0190563D01*
X0062013Y0190634D01*
X0061991Y0190705D01*
X0061973Y0190778D01*
X0061959Y0190852D01*
X0061948Y0190926D01*
X0061941Y0191001D01*
X0061941Y0191000D02*
X0061941Y0191788D01*
X0061941Y0191787D02*
X0061948Y0191862D01*
X0061959Y0191936D01*
X0061973Y0192010D01*
X0061991Y0192083D01*
X0062013Y0192154D01*
X0062038Y0192225D01*
X0062067Y0192294D01*
X0062100Y0192362D01*
X0062136Y0192428D01*
X0062175Y0192492D01*
X0062217Y0192554D01*
X0062262Y0192613D01*
X0062311Y0192671D01*
X0062362Y0192726D01*
X0062416Y0192778D01*
X0062472Y0192827D01*
X0062531Y0192874D01*
X0062592Y0192917D01*
X0062655Y0192957D01*
X0062720Y0192994D01*
X0062787Y0193028D01*
X0062856Y0193058D01*
X0062926Y0193085D01*
X0062997Y0193108D01*
X0063070Y0193127D01*
X0063143Y0193143D01*
X0063217Y0193155D01*
X0063292Y0193164D01*
X0063367Y0193168D01*
X0063442Y0193169D01*
X0063516Y0193166D01*
X0063516Y0193165D02*
X0065681Y0193165D01*
X0065681Y0193166D02*
X0065753Y0193164D01*
X0065825Y0193158D01*
X0065897Y0193149D01*
X0065968Y0193136D01*
X0066038Y0193119D01*
X0066107Y0193099D01*
X0066175Y0193074D01*
X0066241Y0193047D01*
X0066307Y0193016D01*
X0066370Y0192981D01*
X0066432Y0192944D01*
X0066491Y0192903D01*
X0066548Y0192859D01*
X0066603Y0192812D01*
X0066655Y0192762D01*
X0066705Y0192710D01*
X0066752Y0192655D01*
X0066796Y0192598D01*
X0066837Y0192539D01*
X0066874Y0192477D01*
X0066909Y0192414D01*
X0066940Y0192348D01*
X0066967Y0192282D01*
X0066992Y0192214D01*
X0067012Y0192145D01*
X0067029Y0192075D01*
X0067042Y0192004D01*
X0067051Y0191932D01*
X0067057Y0191860D01*
X0067059Y0191788D01*
X0067059Y0191000D01*
X0067057Y0190928D01*
X0067051Y0190856D01*
X0067042Y0190784D01*
X0067029Y0190713D01*
X0067012Y0190643D01*
X0066992Y0190574D01*
X0066967Y0190506D01*
X0066940Y0190440D01*
X0066909Y0190374D01*
X0066874Y0190311D01*
X0066837Y0190249D01*
X0066796Y0190190D01*
X0066752Y0190133D01*
X0066705Y0190078D01*
X0066655Y0190026D01*
X0066603Y0189976D01*
X0066548Y0189929D01*
X0066491Y0189885D01*
X0066432Y0189844D01*
X0066370Y0189807D01*
X0066307Y0189772D01*
X0066241Y0189741D01*
X0066175Y0189714D01*
X0066107Y0189689D01*
X0066038Y0189669D01*
X0065968Y0189652D01*
X0065897Y0189639D01*
X0065825Y0189630D01*
X0065753Y0189624D01*
X0065681Y0189622D01*
M02*
