%
M48
M72
T01C0.0138
T02C0.0220
T03C0.0236
T04C0.0276
T05C0.0315
T06C0.0354
T07C0.0394
T08C0.1181
%
T01
X16367Y14407
X18434Y14388
X14366Y16088
X14180Y17419
T02
X10300Y2832
T03
X8715Y4319
X10282Y4336
X12999Y1669
X14690Y13059
X10132Y13104
X10799Y17222
X16080Y18219
X16080Y18719
X16083Y19222
X22351Y16022
T04
X12260Y4969
X9912Y8784
X10679Y9151
X7198Y16954
X7198Y18490
T05
X8498Y1435
X9482Y4286
X11099Y4253
X18805Y4557
X7552Y16423
X7552Y19021
T06
X6450Y16305
X6450Y19139
T07
X15735Y2550
X15735Y1550
X15735Y3550
X15735Y4550
X15735Y5550
X15735Y6550
X15735Y7550
X15735Y8550
X15735Y9550
X15735Y10550
X15735Y11550
X15735Y12550
X16235Y13550
X17235Y13550
X18235Y13550
X19235Y13550
X20235Y13550
X21235Y13550
X21735Y12550
X21735Y11550
X21735Y10550
X21735Y9550
X20735Y9050
X20735Y8050
X21735Y7550
X21735Y6550
X21735Y5550
X21735Y4550
X21735Y3550
X21735Y2550
X21735Y1550
X20735Y1550
X19735Y1550
X18735Y1550
X21735Y8550
T08
X7646Y2285
X21845Y14850
M30
