G75*
%MOIN*%
%OFA0B0*%
%FSLAX25Y25*%
%IPPOS*%
%LPD*%
%AMOC8*
5,1,8,0,0,1.08239X$1,22.5*
%
%ADD10C,0.00000*%
%ADD11C,0.00400*%
%ADD12C,0.00800*%
%ADD13C,0.00500*%
%ADD14C,0.00100*%
%ADD15C,0.00300*%
%ADD16C,0.00200*%
%ADD17C,0.00600*%
%ADD18R,0.03937X0.00787*%
%ADD19C,0.01000*%
%ADD20C,0.02400*%
%ADD21R,0.00787X0.03937*%
D10*
X0005457Y0022435D02*
X0026291Y0026394D01*
X0046791Y0030019D01*
X0046860Y0031852D01*
X0046930Y0032019D01*
X0059694Y0032505D01*
X0072124Y0032991D01*
X0072100Y0032985D02*
X0072125Y0058990D01*
X0072124Y0058963D02*
X0072124Y0084935D01*
X0052124Y0088685D01*
X0052124Y0199797D01*
X0228374Y0199797D01*
X0228374Y0006741D01*
X0167819Y0006394D01*
X0107263Y0006047D01*
X0074902Y0009419D01*
X0074902Y0012574D01*
X0060805Y0013130D01*
X0046707Y0013685D01*
X0046707Y0015908D01*
X0005457Y0022435D01*
X0070553Y0022850D02*
X0070555Y0023003D01*
X0070561Y0023157D01*
X0070571Y0023310D01*
X0070585Y0023462D01*
X0070603Y0023615D01*
X0070625Y0023766D01*
X0070650Y0023917D01*
X0070680Y0024068D01*
X0070714Y0024218D01*
X0070751Y0024366D01*
X0070792Y0024514D01*
X0070837Y0024660D01*
X0070886Y0024806D01*
X0070939Y0024950D01*
X0070995Y0025092D01*
X0071055Y0025233D01*
X0071119Y0025373D01*
X0071186Y0025511D01*
X0071257Y0025647D01*
X0071332Y0025781D01*
X0071409Y0025913D01*
X0071491Y0026043D01*
X0071575Y0026171D01*
X0071663Y0026297D01*
X0071754Y0026420D01*
X0071848Y0026541D01*
X0071946Y0026659D01*
X0072046Y0026775D01*
X0072150Y0026888D01*
X0072256Y0026999D01*
X0072365Y0027107D01*
X0072477Y0027212D01*
X0072591Y0027313D01*
X0072709Y0027412D01*
X0072828Y0027508D01*
X0072950Y0027601D01*
X0073075Y0027690D01*
X0073202Y0027777D01*
X0073331Y0027859D01*
X0073462Y0027939D01*
X0073595Y0028015D01*
X0073730Y0028088D01*
X0073867Y0028157D01*
X0074006Y0028222D01*
X0074146Y0028284D01*
X0074288Y0028342D01*
X0074431Y0028397D01*
X0074576Y0028448D01*
X0074722Y0028495D01*
X0074869Y0028538D01*
X0075017Y0028577D01*
X0075166Y0028613D01*
X0075316Y0028644D01*
X0075467Y0028672D01*
X0075618Y0028696D01*
X0075771Y0028716D01*
X0075923Y0028732D01*
X0076076Y0028744D01*
X0076229Y0028752D01*
X0076382Y0028756D01*
X0076536Y0028756D01*
X0076689Y0028752D01*
X0076842Y0028744D01*
X0076995Y0028732D01*
X0077147Y0028716D01*
X0077300Y0028696D01*
X0077451Y0028672D01*
X0077602Y0028644D01*
X0077752Y0028613D01*
X0077901Y0028577D01*
X0078049Y0028538D01*
X0078196Y0028495D01*
X0078342Y0028448D01*
X0078487Y0028397D01*
X0078630Y0028342D01*
X0078772Y0028284D01*
X0078912Y0028222D01*
X0079051Y0028157D01*
X0079188Y0028088D01*
X0079323Y0028015D01*
X0079456Y0027939D01*
X0079587Y0027859D01*
X0079716Y0027777D01*
X0079843Y0027690D01*
X0079968Y0027601D01*
X0080090Y0027508D01*
X0080209Y0027412D01*
X0080327Y0027313D01*
X0080441Y0027212D01*
X0080553Y0027107D01*
X0080662Y0026999D01*
X0080768Y0026888D01*
X0080872Y0026775D01*
X0080972Y0026659D01*
X0081070Y0026541D01*
X0081164Y0026420D01*
X0081255Y0026297D01*
X0081343Y0026171D01*
X0081427Y0026043D01*
X0081509Y0025913D01*
X0081586Y0025781D01*
X0081661Y0025647D01*
X0081732Y0025511D01*
X0081799Y0025373D01*
X0081863Y0025233D01*
X0081923Y0025092D01*
X0081979Y0024950D01*
X0082032Y0024806D01*
X0082081Y0024660D01*
X0082126Y0024514D01*
X0082167Y0024366D01*
X0082204Y0024218D01*
X0082238Y0024068D01*
X0082268Y0023917D01*
X0082293Y0023766D01*
X0082315Y0023615D01*
X0082333Y0023462D01*
X0082347Y0023310D01*
X0082357Y0023157D01*
X0082363Y0023003D01*
X0082365Y0022850D01*
X0082363Y0022697D01*
X0082357Y0022543D01*
X0082347Y0022390D01*
X0082333Y0022238D01*
X0082315Y0022085D01*
X0082293Y0021934D01*
X0082268Y0021783D01*
X0082238Y0021632D01*
X0082204Y0021482D01*
X0082167Y0021334D01*
X0082126Y0021186D01*
X0082081Y0021040D01*
X0082032Y0020894D01*
X0081979Y0020750D01*
X0081923Y0020608D01*
X0081863Y0020467D01*
X0081799Y0020327D01*
X0081732Y0020189D01*
X0081661Y0020053D01*
X0081586Y0019919D01*
X0081509Y0019787D01*
X0081427Y0019657D01*
X0081343Y0019529D01*
X0081255Y0019403D01*
X0081164Y0019280D01*
X0081070Y0019159D01*
X0080972Y0019041D01*
X0080872Y0018925D01*
X0080768Y0018812D01*
X0080662Y0018701D01*
X0080553Y0018593D01*
X0080441Y0018488D01*
X0080327Y0018387D01*
X0080209Y0018288D01*
X0080090Y0018192D01*
X0079968Y0018099D01*
X0079843Y0018010D01*
X0079716Y0017923D01*
X0079587Y0017841D01*
X0079456Y0017761D01*
X0079323Y0017685D01*
X0079188Y0017612D01*
X0079051Y0017543D01*
X0078912Y0017478D01*
X0078772Y0017416D01*
X0078630Y0017358D01*
X0078487Y0017303D01*
X0078342Y0017252D01*
X0078196Y0017205D01*
X0078049Y0017162D01*
X0077901Y0017123D01*
X0077752Y0017087D01*
X0077602Y0017056D01*
X0077451Y0017028D01*
X0077300Y0017004D01*
X0077147Y0016984D01*
X0076995Y0016968D01*
X0076842Y0016956D01*
X0076689Y0016948D01*
X0076536Y0016944D01*
X0076382Y0016944D01*
X0076229Y0016948D01*
X0076076Y0016956D01*
X0075923Y0016968D01*
X0075771Y0016984D01*
X0075618Y0017004D01*
X0075467Y0017028D01*
X0075316Y0017056D01*
X0075166Y0017087D01*
X0075017Y0017123D01*
X0074869Y0017162D01*
X0074722Y0017205D01*
X0074576Y0017252D01*
X0074431Y0017303D01*
X0074288Y0017358D01*
X0074146Y0017416D01*
X0074006Y0017478D01*
X0073867Y0017543D01*
X0073730Y0017612D01*
X0073595Y0017685D01*
X0073462Y0017761D01*
X0073331Y0017841D01*
X0073202Y0017923D01*
X0073075Y0018010D01*
X0072950Y0018099D01*
X0072828Y0018192D01*
X0072709Y0018288D01*
X0072591Y0018387D01*
X0072477Y0018488D01*
X0072365Y0018593D01*
X0072256Y0018701D01*
X0072150Y0018812D01*
X0072046Y0018925D01*
X0071946Y0019041D01*
X0071848Y0019159D01*
X0071754Y0019280D01*
X0071663Y0019403D01*
X0071575Y0019529D01*
X0071491Y0019657D01*
X0071409Y0019787D01*
X0071332Y0019919D01*
X0071257Y0020053D01*
X0071186Y0020189D01*
X0071119Y0020327D01*
X0071055Y0020467D01*
X0070995Y0020608D01*
X0070939Y0020750D01*
X0070886Y0020894D01*
X0070837Y0021040D01*
X0070792Y0021186D01*
X0070751Y0021334D01*
X0070714Y0021482D01*
X0070680Y0021632D01*
X0070650Y0021783D01*
X0070625Y0021934D01*
X0070603Y0022085D01*
X0070585Y0022238D01*
X0070571Y0022390D01*
X0070561Y0022543D01*
X0070555Y0022697D01*
X0070553Y0022850D01*
X0212539Y0148504D02*
X0212541Y0148657D01*
X0212547Y0148811D01*
X0212557Y0148964D01*
X0212571Y0149116D01*
X0212589Y0149269D01*
X0212611Y0149420D01*
X0212636Y0149571D01*
X0212666Y0149722D01*
X0212700Y0149872D01*
X0212737Y0150020D01*
X0212778Y0150168D01*
X0212823Y0150314D01*
X0212872Y0150460D01*
X0212925Y0150604D01*
X0212981Y0150746D01*
X0213041Y0150887D01*
X0213105Y0151027D01*
X0213172Y0151165D01*
X0213243Y0151301D01*
X0213318Y0151435D01*
X0213395Y0151567D01*
X0213477Y0151697D01*
X0213561Y0151825D01*
X0213649Y0151951D01*
X0213740Y0152074D01*
X0213834Y0152195D01*
X0213932Y0152313D01*
X0214032Y0152429D01*
X0214136Y0152542D01*
X0214242Y0152653D01*
X0214351Y0152761D01*
X0214463Y0152866D01*
X0214577Y0152967D01*
X0214695Y0153066D01*
X0214814Y0153162D01*
X0214936Y0153255D01*
X0215061Y0153344D01*
X0215188Y0153431D01*
X0215317Y0153513D01*
X0215448Y0153593D01*
X0215581Y0153669D01*
X0215716Y0153742D01*
X0215853Y0153811D01*
X0215992Y0153876D01*
X0216132Y0153938D01*
X0216274Y0153996D01*
X0216417Y0154051D01*
X0216562Y0154102D01*
X0216708Y0154149D01*
X0216855Y0154192D01*
X0217003Y0154231D01*
X0217152Y0154267D01*
X0217302Y0154298D01*
X0217453Y0154326D01*
X0217604Y0154350D01*
X0217757Y0154370D01*
X0217909Y0154386D01*
X0218062Y0154398D01*
X0218215Y0154406D01*
X0218368Y0154410D01*
X0218522Y0154410D01*
X0218675Y0154406D01*
X0218828Y0154398D01*
X0218981Y0154386D01*
X0219133Y0154370D01*
X0219286Y0154350D01*
X0219437Y0154326D01*
X0219588Y0154298D01*
X0219738Y0154267D01*
X0219887Y0154231D01*
X0220035Y0154192D01*
X0220182Y0154149D01*
X0220328Y0154102D01*
X0220473Y0154051D01*
X0220616Y0153996D01*
X0220758Y0153938D01*
X0220898Y0153876D01*
X0221037Y0153811D01*
X0221174Y0153742D01*
X0221309Y0153669D01*
X0221442Y0153593D01*
X0221573Y0153513D01*
X0221702Y0153431D01*
X0221829Y0153344D01*
X0221954Y0153255D01*
X0222076Y0153162D01*
X0222195Y0153066D01*
X0222313Y0152967D01*
X0222427Y0152866D01*
X0222539Y0152761D01*
X0222648Y0152653D01*
X0222754Y0152542D01*
X0222858Y0152429D01*
X0222958Y0152313D01*
X0223056Y0152195D01*
X0223150Y0152074D01*
X0223241Y0151951D01*
X0223329Y0151825D01*
X0223413Y0151697D01*
X0223495Y0151567D01*
X0223572Y0151435D01*
X0223647Y0151301D01*
X0223718Y0151165D01*
X0223785Y0151027D01*
X0223849Y0150887D01*
X0223909Y0150746D01*
X0223965Y0150604D01*
X0224018Y0150460D01*
X0224067Y0150314D01*
X0224112Y0150168D01*
X0224153Y0150020D01*
X0224190Y0149872D01*
X0224224Y0149722D01*
X0224254Y0149571D01*
X0224279Y0149420D01*
X0224301Y0149269D01*
X0224319Y0149116D01*
X0224333Y0148964D01*
X0224343Y0148811D01*
X0224349Y0148657D01*
X0224351Y0148504D01*
X0224349Y0148351D01*
X0224343Y0148197D01*
X0224333Y0148044D01*
X0224319Y0147892D01*
X0224301Y0147739D01*
X0224279Y0147588D01*
X0224254Y0147437D01*
X0224224Y0147286D01*
X0224190Y0147136D01*
X0224153Y0146988D01*
X0224112Y0146840D01*
X0224067Y0146694D01*
X0224018Y0146548D01*
X0223965Y0146404D01*
X0223909Y0146262D01*
X0223849Y0146121D01*
X0223785Y0145981D01*
X0223718Y0145843D01*
X0223647Y0145707D01*
X0223572Y0145573D01*
X0223495Y0145441D01*
X0223413Y0145311D01*
X0223329Y0145183D01*
X0223241Y0145057D01*
X0223150Y0144934D01*
X0223056Y0144813D01*
X0222958Y0144695D01*
X0222858Y0144579D01*
X0222754Y0144466D01*
X0222648Y0144355D01*
X0222539Y0144247D01*
X0222427Y0144142D01*
X0222313Y0144041D01*
X0222195Y0143942D01*
X0222076Y0143846D01*
X0221954Y0143753D01*
X0221829Y0143664D01*
X0221702Y0143577D01*
X0221573Y0143495D01*
X0221442Y0143415D01*
X0221309Y0143339D01*
X0221174Y0143266D01*
X0221037Y0143197D01*
X0220898Y0143132D01*
X0220758Y0143070D01*
X0220616Y0143012D01*
X0220473Y0142957D01*
X0220328Y0142906D01*
X0220182Y0142859D01*
X0220035Y0142816D01*
X0219887Y0142777D01*
X0219738Y0142741D01*
X0219588Y0142710D01*
X0219437Y0142682D01*
X0219286Y0142658D01*
X0219133Y0142638D01*
X0218981Y0142622D01*
X0218828Y0142610D01*
X0218675Y0142602D01*
X0218522Y0142598D01*
X0218368Y0142598D01*
X0218215Y0142602D01*
X0218062Y0142610D01*
X0217909Y0142622D01*
X0217757Y0142638D01*
X0217604Y0142658D01*
X0217453Y0142682D01*
X0217302Y0142710D01*
X0217152Y0142741D01*
X0217003Y0142777D01*
X0216855Y0142816D01*
X0216708Y0142859D01*
X0216562Y0142906D01*
X0216417Y0142957D01*
X0216274Y0143012D01*
X0216132Y0143070D01*
X0215992Y0143132D01*
X0215853Y0143197D01*
X0215716Y0143266D01*
X0215581Y0143339D01*
X0215448Y0143415D01*
X0215317Y0143495D01*
X0215188Y0143577D01*
X0215061Y0143664D01*
X0214936Y0143753D01*
X0214814Y0143846D01*
X0214695Y0143942D01*
X0214577Y0144041D01*
X0214463Y0144142D01*
X0214351Y0144247D01*
X0214242Y0144355D01*
X0214136Y0144466D01*
X0214032Y0144579D01*
X0213932Y0144695D01*
X0213834Y0144813D01*
X0213740Y0144934D01*
X0213649Y0145057D01*
X0213561Y0145183D01*
X0213477Y0145311D01*
X0213395Y0145441D01*
X0213318Y0145573D01*
X0213243Y0145707D01*
X0213172Y0145843D01*
X0213105Y0145981D01*
X0213041Y0146121D01*
X0212981Y0146262D01*
X0212925Y0146404D01*
X0212872Y0146548D01*
X0212823Y0146694D01*
X0212778Y0146840D01*
X0212737Y0146988D01*
X0212700Y0147136D01*
X0212666Y0147286D01*
X0212636Y0147437D01*
X0212611Y0147588D01*
X0212589Y0147739D01*
X0212571Y0147892D01*
X0212557Y0148044D01*
X0212547Y0148197D01*
X0212541Y0148351D01*
X0212539Y0148504D01*
D11*
X0193504Y0153554D02*
X0190435Y0150485D01*
X0190435Y0149717D01*
X0188900Y0150485D02*
X0188133Y0149717D01*
X0186598Y0149717D01*
X0185831Y0150485D01*
X0185831Y0153554D01*
X0186598Y0154321D01*
X0188133Y0154321D01*
X0188900Y0153554D01*
X0190435Y0154321D02*
X0193504Y0154321D01*
X0193504Y0153554D01*
X0190630Y0156654D02*
X0189863Y0155887D01*
X0188328Y0155887D01*
X0187561Y0156654D01*
X0186026Y0155887D02*
X0184491Y0157421D01*
X0185259Y0157421D02*
X0182957Y0157421D01*
X0182957Y0155887D02*
X0182957Y0160490D01*
X0185259Y0160490D01*
X0186026Y0159723D01*
X0186026Y0158188D01*
X0185259Y0157421D01*
X0187561Y0159723D02*
X0188328Y0160490D01*
X0189863Y0160490D01*
X0190630Y0159723D01*
X0190630Y0158956D01*
X0189863Y0158188D01*
X0190630Y0157421D01*
X0190630Y0156654D01*
X0189863Y0158188D02*
X0189095Y0158188D01*
X0186322Y0151054D02*
X0184788Y0151054D01*
X0184020Y0150287D01*
X0182486Y0150287D02*
X0181718Y0151054D01*
X0180184Y0151054D01*
X0179416Y0150287D01*
X0179416Y0147217D01*
X0180184Y0146450D01*
X0181718Y0146450D01*
X0182486Y0147217D01*
X0182486Y0148752D01*
X0180951Y0148752D01*
X0177882Y0147217D02*
X0177882Y0150287D01*
X0177114Y0151054D01*
X0175580Y0151054D01*
X0174812Y0150287D01*
X0174812Y0147217D01*
X0175580Y0146450D01*
X0177114Y0146450D01*
X0177882Y0147217D01*
X0173278Y0146450D02*
X0171743Y0147985D01*
X0172511Y0147985D02*
X0170209Y0147985D01*
X0170209Y0146450D02*
X0170209Y0151054D01*
X0172511Y0151054D01*
X0173278Y0150287D01*
X0173278Y0148752D01*
X0172511Y0147985D01*
X0168674Y0148752D02*
X0167907Y0147985D01*
X0165605Y0147985D01*
X0165605Y0146450D02*
X0165605Y0151054D01*
X0167907Y0151054D01*
X0168674Y0150287D01*
X0168674Y0148752D01*
X0164070Y0148752D02*
X0161001Y0148752D01*
X0159466Y0148752D02*
X0158699Y0147985D01*
X0156397Y0147985D01*
X0157931Y0147985D02*
X0159466Y0146450D01*
X0156397Y0146450D02*
X0156397Y0151054D01*
X0158699Y0151054D01*
X0159466Y0150287D01*
X0159466Y0148752D01*
X0153550Y0152768D02*
X0150481Y0152768D01*
X0153550Y0155838D01*
X0153550Y0156605D01*
X0152783Y0157372D01*
X0151248Y0157372D01*
X0150481Y0156605D01*
X0148946Y0156605D02*
X0148179Y0157372D01*
X0145877Y0157372D01*
X0145877Y0152768D01*
X0145877Y0154303D02*
X0148179Y0154303D01*
X0148946Y0155070D01*
X0148946Y0156605D01*
X0147412Y0154303D02*
X0148946Y0152768D01*
X0163681Y0158945D02*
X0164448Y0158178D01*
X0167518Y0158178D01*
X0168285Y0158945D01*
X0168285Y0160480D01*
X0167518Y0161247D01*
X0167518Y0162781D02*
X0166750Y0162781D01*
X0165983Y0163549D01*
X0165983Y0165083D01*
X0166750Y0165851D01*
X0167518Y0165851D01*
X0168285Y0165083D01*
X0168285Y0163549D01*
X0167518Y0162781D01*
X0165983Y0163549D02*
X0165216Y0162781D01*
X0164448Y0162781D01*
X0163681Y0163549D01*
X0163681Y0165083D01*
X0164448Y0165851D01*
X0165216Y0165851D01*
X0165983Y0165083D01*
X0164448Y0161247D02*
X0163681Y0160480D01*
X0163681Y0158945D01*
X0184020Y0146450D02*
X0187090Y0149519D01*
X0187090Y0150287D01*
X0186322Y0151054D01*
X0187090Y0146450D02*
X0184020Y0146450D01*
X0142648Y0133823D02*
X0142648Y0129219D01*
X0144182Y0129219D02*
X0141113Y0129219D01*
X0139579Y0129219D02*
X0138044Y0130754D01*
X0138811Y0130754D02*
X0136509Y0130754D01*
X0136509Y0129219D02*
X0136509Y0133823D01*
X0138811Y0133823D01*
X0139579Y0133056D01*
X0139579Y0131521D01*
X0138811Y0130754D01*
X0141113Y0132289D02*
X0142648Y0133823D01*
X0110458Y0157945D02*
X0110458Y0159480D01*
X0109691Y0160247D01*
X0110458Y0161782D02*
X0107389Y0164851D01*
X0106621Y0164851D01*
X0105854Y0164084D01*
X0105854Y0162549D01*
X0106621Y0161782D01*
X0106621Y0160247D02*
X0105854Y0159480D01*
X0105854Y0157945D01*
X0106621Y0157178D01*
X0109691Y0157178D01*
X0110458Y0157945D01*
X0110458Y0161782D02*
X0110458Y0164851D01*
X0141996Y0182841D02*
X0142763Y0182074D01*
X0145832Y0182074D01*
X0146600Y0182841D01*
X0146600Y0184376D01*
X0145832Y0185143D01*
X0146600Y0186678D02*
X0146600Y0189747D01*
X0146600Y0188212D02*
X0141996Y0188212D01*
X0143531Y0186678D01*
X0142763Y0185143D02*
X0141996Y0184376D01*
X0141996Y0182841D01*
X0142763Y0191282D02*
X0141996Y0192049D01*
X0141996Y0193584D01*
X0142763Y0194351D01*
X0145832Y0191282D01*
X0146600Y0192049D01*
X0146600Y0193584D01*
X0145832Y0194351D01*
X0142763Y0194351D01*
X0142763Y0191282D02*
X0145832Y0191282D01*
X0155736Y0193327D02*
X0156503Y0192560D01*
X0158038Y0192560D01*
X0158805Y0193327D01*
X0160340Y0193327D02*
X0161107Y0192560D01*
X0162642Y0192560D01*
X0163409Y0193327D01*
X0163409Y0196396D01*
X0162642Y0197163D01*
X0161107Y0197163D01*
X0160340Y0196396D01*
X0160340Y0195629D01*
X0161107Y0194861D01*
X0163409Y0194861D01*
X0158805Y0196396D02*
X0158038Y0197163D01*
X0156503Y0197163D01*
X0155736Y0196396D01*
X0155736Y0193327D01*
X0175666Y0192292D02*
X0177968Y0189990D01*
X0177968Y0193060D01*
X0180270Y0192292D02*
X0175666Y0192292D01*
X0176433Y0188456D02*
X0175666Y0187688D01*
X0175666Y0186154D01*
X0176433Y0185386D01*
X0179502Y0185386D01*
X0180270Y0186154D01*
X0180270Y0187688D01*
X0179502Y0188456D01*
X0086465Y0126385D02*
X0083396Y0126385D01*
X0084931Y0126385D02*
X0084931Y0130989D01*
X0083396Y0129455D01*
X0081861Y0130222D02*
X0081094Y0130989D01*
X0079559Y0130989D01*
X0078792Y0130222D01*
X0078792Y0127153D01*
X0079559Y0126385D01*
X0081094Y0126385D01*
X0081861Y0127153D01*
X0129767Y0034989D02*
X0129000Y0034222D01*
X0129000Y0031153D01*
X0129767Y0030385D01*
X0131302Y0030385D01*
X0132069Y0031153D01*
X0133604Y0031153D02*
X0134371Y0030385D01*
X0135906Y0030385D01*
X0136673Y0031153D01*
X0136673Y0031920D01*
X0135906Y0032687D01*
X0133604Y0032687D01*
X0133604Y0031153D01*
X0133604Y0032687D02*
X0135139Y0034222D01*
X0136673Y0034989D01*
X0132069Y0034222D02*
X0131302Y0034989D01*
X0129767Y0034989D01*
D12*
X0111268Y0021724D02*
X0111268Y0020937D01*
X0105756Y0020937D01*
X0105756Y0021724D01*
X0111268Y0021724D01*
X0110875Y0021330D02*
X0105756Y0021330D01*
X0111268Y0020937D02*
X0111268Y0010701D01*
X0105756Y0010701D01*
X0100245Y0010701D02*
X0094733Y0010701D01*
X0094733Y0020937D01*
X0094733Y0021724D01*
X0100245Y0021724D01*
X0100245Y0020937D01*
X0094733Y0020937D01*
X0095126Y0021330D02*
X0100245Y0021330D01*
X0087524Y0109343D02*
X0078076Y0109343D01*
X0078076Y0115248D01*
X0078076Y0123122D02*
X0078076Y0127453D01*
X0079650Y0129028D01*
X0085950Y0129028D01*
X0087524Y0127453D01*
X0087524Y0123122D01*
X0087524Y0115248D02*
X0087524Y0109343D01*
X0131331Y0144774D02*
X0131331Y0146585D01*
X0132551Y0147506D01*
X0131331Y0148396D02*
X0131331Y0146585D01*
X0131391Y0146485D02*
X0132551Y0145726D01*
X0131131Y0149174D02*
X0131131Y0150985D01*
X0132351Y0151906D01*
X0131131Y0152796D02*
X0131131Y0150985D01*
X0131191Y0150885D02*
X0132351Y0150126D01*
X0147044Y0164748D02*
X0147044Y0171622D01*
X0148225Y0169367D02*
X0151375Y0169367D01*
X0149800Y0167004D01*
X0148225Y0169367D01*
X0149013Y0168973D02*
X0150587Y0168973D01*
X0149800Y0167792D01*
X0149013Y0168973D01*
X0149079Y0168873D02*
X0150521Y0168873D01*
X0149988Y0168074D02*
X0149612Y0168074D01*
X0152556Y0164748D02*
X0152556Y0171622D01*
X0169200Y0170876D02*
X0169200Y0167495D01*
X0173743Y0165995D02*
X0175857Y0165995D01*
X0180400Y0167495D02*
X0180400Y0170876D01*
X0192083Y0168587D02*
X0192083Y0165437D01*
X0205863Y0165437D01*
X0201926Y0168587D02*
X0192083Y0168587D01*
X0201926Y0168587D02*
X0201926Y0173311D01*
X0216131Y0161996D02*
X0216131Y0160185D01*
X0217351Y0161106D01*
X0216131Y0160185D02*
X0216131Y0158374D01*
X0217351Y0159326D02*
X0216191Y0160085D01*
X0221611Y0173311D02*
X0221611Y0189059D01*
X0205863Y0196933D02*
X0192083Y0196933D01*
X0192083Y0193784D01*
X0201926Y0193784D01*
X0201926Y0189059D01*
X0132296Y0187335D02*
X0132296Y0181036D01*
X0127375Y0188319D02*
X0124225Y0188319D01*
X0119304Y0187335D02*
X0119304Y0181036D01*
X0107591Y0185134D02*
X0100717Y0185134D01*
X0102973Y0186315D02*
X0102973Y0189464D01*
X0105335Y0187889D01*
X0102973Y0186315D01*
X0103366Y0187102D02*
X0103366Y0188677D01*
X0104548Y0187889D01*
X0103366Y0187102D01*
X0103366Y0187239D02*
X0103571Y0187239D01*
X0103366Y0188037D02*
X0104326Y0188037D01*
X0107591Y0190645D02*
X0100717Y0190645D01*
X0090263Y0189299D02*
X0090263Y0185755D01*
X0080421Y0192054D02*
X0072153Y0192054D01*
X0090263Y0168432D02*
X0090263Y0164889D01*
X0080421Y0162133D02*
X0072153Y0162133D01*
D13*
X0078800Y0120685D02*
X0086800Y0120685D01*
X0080474Y0099735D02*
X0078899Y0099735D01*
X0078899Y0035956D01*
X0080474Y0035956D01*
X0101301Y0018202D02*
X0101301Y0016701D01*
X0103302Y0016701D01*
X0102802Y0015480D02*
X0102802Y0014479D01*
X0104303Y0015480D02*
X0104303Y0013478D01*
X0104303Y0012257D02*
X0101301Y0012257D01*
X0101301Y0010256D01*
X0101301Y0015480D02*
X0104303Y0015480D01*
X0101301Y0018202D02*
X0101801Y0018703D01*
X0103302Y0018703D01*
X0141104Y0035956D02*
X0142679Y0035956D01*
X0142679Y0099735D01*
X0141104Y0099735D01*
X0152349Y0098000D02*
X0152349Y0093000D01*
X0154849Y0090500D01*
X0152349Y0088000D01*
X0152349Y0083000D01*
X0154849Y0080500D01*
X0152349Y0078000D01*
X0152349Y0073000D01*
X0154849Y0070500D01*
X0152349Y0068000D01*
X0152349Y0063000D01*
X0154849Y0060500D01*
X0152349Y0058000D01*
X0152349Y0053000D01*
X0154849Y0050500D01*
X0152349Y0048000D01*
X0152349Y0043000D01*
X0154849Y0040500D01*
X0152349Y0038000D01*
X0152349Y0033000D01*
X0154849Y0030500D01*
X0152349Y0028000D01*
X0152349Y0023000D01*
X0154849Y0020500D01*
X0152349Y0018000D01*
X0152349Y0013000D01*
X0154849Y0010500D01*
X0159849Y0010500D01*
X0162349Y0013000D01*
X0162349Y0018000D01*
X0159849Y0020500D01*
X0162349Y0023000D01*
X0162349Y0028000D01*
X0159849Y0030500D01*
X0162349Y0033000D01*
X0162349Y0038000D01*
X0159849Y0040500D01*
X0162349Y0043000D01*
X0162349Y0048000D01*
X0159849Y0050500D01*
X0162349Y0053000D01*
X0162349Y0058000D01*
X0159849Y0060500D01*
X0162349Y0063000D01*
X0162349Y0068000D01*
X0159849Y0070500D01*
X0162349Y0073000D01*
X0162349Y0078000D01*
X0159849Y0080500D01*
X0162349Y0083000D01*
X0162349Y0088000D01*
X0159849Y0090500D01*
X0162349Y0093000D01*
X0162349Y0098000D01*
X0159849Y0100500D01*
X0162349Y0103000D01*
X0162349Y0108000D01*
X0159849Y0110500D01*
X0162349Y0113000D01*
X0162349Y0118000D01*
X0159849Y0120500D01*
X0162349Y0123000D01*
X0162349Y0128000D01*
X0159849Y0130500D01*
X0157349Y0133000D01*
X0157349Y0138000D01*
X0159849Y0140500D01*
X0164849Y0140500D01*
X0167349Y0138000D01*
X0169849Y0140500D01*
X0174849Y0140500D01*
X0177349Y0138000D01*
X0179849Y0140500D01*
X0184849Y0140500D01*
X0187349Y0138000D01*
X0189849Y0140500D01*
X0194849Y0140500D01*
X0197349Y0138000D01*
X0199849Y0140500D01*
X0204849Y0140500D01*
X0207349Y0138000D01*
X0209849Y0140500D01*
X0214849Y0140500D01*
X0217349Y0138000D01*
X0217349Y0133000D01*
X0214849Y0130500D01*
X0209849Y0130500D01*
X0207349Y0133000D01*
X0204849Y0130500D01*
X0199849Y0130500D01*
X0197349Y0133000D01*
X0194849Y0130500D01*
X0189849Y0130500D01*
X0187349Y0133000D01*
X0184849Y0130500D01*
X0179849Y0130500D01*
X0177349Y0133000D01*
X0174849Y0130500D01*
X0169849Y0130500D01*
X0167349Y0133000D01*
X0164849Y0130500D01*
X0159849Y0130500D01*
X0154849Y0130500D01*
X0152349Y0128000D01*
X0152349Y0123000D01*
X0154849Y0120500D01*
X0152349Y0118000D01*
X0152349Y0113000D01*
X0154849Y0110500D01*
X0152349Y0108000D01*
X0152349Y0103000D01*
X0154849Y0100500D01*
X0152349Y0098000D01*
X0202349Y0093000D02*
X0202349Y0088000D01*
X0204849Y0085500D01*
X0202349Y0083000D01*
X0202349Y0078000D01*
X0204849Y0075500D01*
X0209849Y0075500D01*
X0212349Y0078000D01*
X0212349Y0073000D01*
X0214849Y0070500D01*
X0212349Y0068000D01*
X0212349Y0063000D01*
X0214849Y0060500D01*
X0212349Y0058000D01*
X0212349Y0053000D01*
X0214849Y0050500D01*
X0212349Y0048000D01*
X0212349Y0043000D01*
X0214849Y0040500D01*
X0212349Y0038000D01*
X0212349Y0033000D01*
X0214849Y0030500D01*
X0212349Y0028000D01*
X0212349Y0023000D01*
X0214849Y0020500D01*
X0212349Y0018000D01*
X0209849Y0020500D01*
X0204849Y0020500D01*
X0202349Y0018000D01*
X0199849Y0020500D01*
X0194849Y0020500D01*
X0192349Y0018000D01*
X0189849Y0020500D01*
X0184849Y0020500D01*
X0182349Y0018000D01*
X0182349Y0013000D01*
X0184849Y0010500D01*
X0189849Y0010500D01*
X0192349Y0013000D01*
X0194849Y0010500D01*
X0199849Y0010500D01*
X0202349Y0013000D01*
X0204849Y0010500D01*
X0209849Y0010500D01*
X0212349Y0013000D01*
X0214849Y0010500D01*
X0219849Y0010500D01*
X0222349Y0013000D01*
X0222349Y0018000D01*
X0219849Y0020500D01*
X0222349Y0023000D01*
X0222349Y0028000D01*
X0219849Y0030500D01*
X0222349Y0033000D01*
X0222349Y0038000D01*
X0219849Y0040500D01*
X0222349Y0043000D01*
X0222349Y0048000D01*
X0219849Y0050500D01*
X0222349Y0053000D01*
X0222349Y0058000D01*
X0219849Y0060500D01*
X0222349Y0063000D01*
X0222349Y0068000D01*
X0219849Y0070500D01*
X0222349Y0073000D01*
X0222349Y0078000D01*
X0219849Y0080500D01*
X0222349Y0083000D01*
X0222349Y0088000D01*
X0219849Y0090500D01*
X0222349Y0093000D01*
X0222349Y0098000D01*
X0219849Y0100500D01*
X0222349Y0103000D01*
X0222349Y0108000D01*
X0219849Y0110500D01*
X0222349Y0113000D01*
X0222349Y0118000D01*
X0219849Y0120500D01*
X0222349Y0123000D01*
X0222349Y0128000D01*
X0219849Y0130500D01*
X0214849Y0130500D01*
X0212349Y0128000D01*
X0212349Y0123000D01*
X0214849Y0120500D01*
X0212349Y0118000D01*
X0212349Y0113000D01*
X0214849Y0110500D01*
X0212349Y0108000D01*
X0212349Y0103000D01*
X0214849Y0100500D01*
X0212349Y0098000D01*
X0212349Y0093000D01*
X0209849Y0095500D01*
X0204849Y0095500D01*
X0202349Y0093000D01*
X0212349Y0018000D02*
X0212349Y0013000D01*
D14*
X0103750Y0112486D02*
X0103750Y0112986D01*
X0103500Y0113236D01*
X0102249Y0113236D01*
X0102749Y0113709D02*
X0102249Y0114209D01*
X0103750Y0114209D01*
X0103750Y0113709D02*
X0103750Y0114710D01*
X0103750Y0112486D02*
X0103500Y0112235D01*
X0102249Y0112235D01*
X0077313Y0111459D02*
X0077313Y0110959D01*
X0077063Y0110709D01*
X0077063Y0110236D02*
X0077313Y0109986D01*
X0077313Y0109486D01*
X0077063Y0109235D01*
X0076062Y0109235D01*
X0075812Y0109486D01*
X0075812Y0109986D01*
X0076062Y0110236D01*
X0075812Y0110709D02*
X0076562Y0110709D01*
X0076312Y0111209D01*
X0076312Y0111459D01*
X0076562Y0111710D01*
X0077063Y0111710D01*
X0077313Y0111459D01*
X0075812Y0111710D02*
X0075812Y0110709D01*
X0129657Y0142285D02*
X0130658Y0142285D01*
X0131130Y0142285D02*
X0132131Y0142285D01*
X0132603Y0142285D02*
X0133354Y0142285D01*
X0133604Y0142536D01*
X0133604Y0143536D01*
X0133354Y0143787D01*
X0132603Y0143787D01*
X0132603Y0142285D01*
X0131631Y0143036D02*
X0131130Y0143036D01*
X0131130Y0143787D02*
X0131130Y0142285D01*
X0129657Y0142285D02*
X0129657Y0143787D01*
X0131130Y0143787D02*
X0132131Y0143787D01*
X0134077Y0143286D02*
X0134577Y0143787D01*
X0134577Y0142285D01*
X0134077Y0142285D02*
X0135078Y0142285D01*
X0134878Y0146685D02*
X0133877Y0146685D01*
X0134878Y0147686D01*
X0134878Y0147936D01*
X0134627Y0148187D01*
X0134127Y0148187D01*
X0133877Y0147936D01*
X0133404Y0147936D02*
X0133154Y0148187D01*
X0132403Y0148187D01*
X0132403Y0146685D01*
X0133154Y0146685D01*
X0133404Y0146936D01*
X0133404Y0147936D01*
X0131931Y0148187D02*
X0130930Y0148187D01*
X0130930Y0146685D01*
X0131931Y0146685D01*
X0131431Y0147436D02*
X0130930Y0147436D01*
X0130458Y0146685D02*
X0129457Y0146685D01*
X0129457Y0148187D01*
X0175403Y0159386D02*
X0175654Y0159135D01*
X0176154Y0159135D01*
X0176404Y0159386D01*
X0176404Y0160637D01*
X0176877Y0160386D02*
X0177127Y0160637D01*
X0177627Y0160637D01*
X0177878Y0160386D01*
X0177878Y0160136D01*
X0176877Y0159135D01*
X0177878Y0159135D01*
X0175403Y0159386D02*
X0175403Y0160637D01*
X0214457Y0157387D02*
X0214457Y0155885D01*
X0215458Y0155885D01*
X0215930Y0155885D02*
X0216931Y0155885D01*
X0217403Y0155885D02*
X0218154Y0155885D01*
X0218404Y0156136D01*
X0218404Y0157136D01*
X0218154Y0157387D01*
X0217403Y0157387D01*
X0217403Y0155885D01*
X0216431Y0156636D02*
X0215930Y0156636D01*
X0215930Y0157387D02*
X0215930Y0155885D01*
X0215930Y0157387D02*
X0216931Y0157387D01*
X0218877Y0157387D02*
X0218877Y0156636D01*
X0219377Y0156886D01*
X0219627Y0156886D01*
X0219878Y0156636D01*
X0219878Y0156136D01*
X0219627Y0155885D01*
X0219127Y0155885D01*
X0218877Y0156136D01*
X0218877Y0157387D02*
X0219878Y0157387D01*
X0216100Y0183289D02*
X0216350Y0183539D01*
X0216350Y0183789D01*
X0216100Y0184040D01*
X0214849Y0184040D01*
X0214849Y0184290D02*
X0214849Y0183789D01*
X0215099Y0184762D02*
X0214849Y0185012D01*
X0214849Y0185513D01*
X0215099Y0185763D01*
X0215349Y0185763D01*
X0216350Y0184762D01*
X0216350Y0185763D01*
X0064795Y0183395D02*
X0064545Y0183645D01*
X0064044Y0183645D01*
X0063794Y0183395D01*
X0063322Y0183645D02*
X0062321Y0182144D01*
X0063322Y0182144D02*
X0062321Y0183645D01*
X0063794Y0182144D02*
X0064795Y0183145D01*
X0064795Y0183395D01*
X0064795Y0182144D02*
X0063794Y0182144D01*
D15*
X0164999Y0126853D02*
X0167468Y0126853D01*
X0168682Y0126853D02*
X0171151Y0123150D01*
X0168682Y0123150D02*
X0171151Y0126853D01*
X0166233Y0126853D02*
X0166233Y0123150D01*
X0166851Y0116853D02*
X0167468Y0116236D01*
X0167468Y0115002D01*
X0166851Y0114384D01*
X0164999Y0114384D01*
X0164999Y0113150D02*
X0164999Y0116853D01*
X0166851Y0116853D01*
X0168682Y0116853D02*
X0171151Y0113150D01*
X0168682Y0113150D02*
X0171151Y0116853D01*
X0167468Y0113150D02*
X0166233Y0114384D01*
X0166851Y0106853D02*
X0167468Y0106236D01*
X0167468Y0105002D01*
X0166851Y0104384D01*
X0164999Y0104384D01*
X0164999Y0103150D02*
X0164999Y0106853D01*
X0166851Y0106853D01*
X0168682Y0106236D02*
X0168682Y0105619D01*
X0169299Y0105002D01*
X0170534Y0105002D01*
X0171151Y0104384D01*
X0171151Y0103767D01*
X0170534Y0103150D01*
X0169299Y0103150D01*
X0168682Y0103767D01*
X0167468Y0103150D02*
X0166233Y0104384D01*
X0168682Y0106236D02*
X0169299Y0106853D01*
X0170534Y0106853D01*
X0171151Y0106236D01*
X0172365Y0106853D02*
X0174834Y0106853D01*
X0173600Y0106853D02*
X0173600Y0103150D01*
X0174217Y0096853D02*
X0172365Y0096853D01*
X0172365Y0093150D01*
X0174217Y0093150D01*
X0174834Y0093767D01*
X0174834Y0096236D01*
X0174217Y0096853D01*
X0171151Y0096853D02*
X0171151Y0093150D01*
X0168682Y0096853D01*
X0168682Y0093150D01*
X0167468Y0093767D02*
X0167468Y0095002D01*
X0166233Y0095002D01*
X0164999Y0096236D02*
X0164999Y0093767D01*
X0165616Y0093150D01*
X0166851Y0093150D01*
X0167468Y0093767D01*
X0167468Y0096236D02*
X0166851Y0096853D01*
X0165616Y0096853D01*
X0164999Y0096236D01*
X0164999Y0086853D02*
X0166851Y0086853D01*
X0167468Y0086236D01*
X0167468Y0083767D01*
X0166851Y0083150D01*
X0164999Y0083150D01*
X0164999Y0086853D01*
X0168682Y0086236D02*
X0169299Y0086853D01*
X0170534Y0086853D01*
X0171151Y0086236D01*
X0171151Y0085619D01*
X0168682Y0083150D01*
X0171151Y0083150D01*
X0170534Y0076853D02*
X0169299Y0076853D01*
X0168682Y0076236D01*
X0167468Y0076236D02*
X0166851Y0076853D01*
X0164999Y0076853D01*
X0164999Y0073150D01*
X0166851Y0073150D01*
X0167468Y0073767D01*
X0167468Y0076236D01*
X0169917Y0075002D02*
X0170534Y0075002D01*
X0171151Y0074384D01*
X0171151Y0073767D01*
X0170534Y0073150D01*
X0169299Y0073150D01*
X0168682Y0073767D01*
X0170534Y0075002D02*
X0171151Y0075619D01*
X0171151Y0076236D01*
X0170534Y0076853D01*
X0170534Y0066853D02*
X0168682Y0065002D01*
X0171151Y0065002D01*
X0170534Y0066853D02*
X0170534Y0063150D01*
X0167468Y0063767D02*
X0167468Y0066236D01*
X0166851Y0066853D01*
X0164999Y0066853D01*
X0164999Y0063150D01*
X0166851Y0063150D01*
X0167468Y0063767D01*
X0166851Y0056853D02*
X0164999Y0056853D01*
X0164999Y0053150D01*
X0166851Y0053150D01*
X0167468Y0053767D01*
X0167468Y0056236D01*
X0166851Y0056853D01*
X0168682Y0056853D02*
X0168682Y0055002D01*
X0169917Y0055619D01*
X0170534Y0055619D01*
X0171151Y0055002D01*
X0171151Y0053767D01*
X0170534Y0053150D01*
X0169299Y0053150D01*
X0168682Y0053767D01*
X0168682Y0056853D02*
X0171151Y0056853D01*
X0171151Y0046853D02*
X0169917Y0046236D01*
X0168682Y0045002D01*
X0170534Y0045002D01*
X0171151Y0044384D01*
X0171151Y0043767D01*
X0170534Y0043150D01*
X0169299Y0043150D01*
X0168682Y0043767D01*
X0168682Y0045002D01*
X0167468Y0043767D02*
X0167468Y0046236D01*
X0166851Y0046853D01*
X0164999Y0046853D01*
X0164999Y0043150D01*
X0166851Y0043150D01*
X0167468Y0043767D01*
X0166851Y0036853D02*
X0164999Y0036853D01*
X0164999Y0033150D01*
X0166851Y0033150D01*
X0167468Y0033767D01*
X0167468Y0036236D01*
X0166851Y0036853D01*
X0168682Y0036853D02*
X0171151Y0036853D01*
X0171151Y0036236D01*
X0168682Y0033767D01*
X0168682Y0033150D01*
X0169299Y0026853D02*
X0170534Y0026853D01*
X0171151Y0026236D01*
X0171151Y0025619D01*
X0170534Y0025002D01*
X0169299Y0025002D01*
X0168682Y0025619D01*
X0168682Y0026236D01*
X0169299Y0026853D01*
X0169299Y0025002D02*
X0168682Y0024384D01*
X0168682Y0023767D01*
X0169299Y0023150D01*
X0170534Y0023150D01*
X0171151Y0023767D01*
X0171151Y0024384D01*
X0170534Y0025002D01*
X0167468Y0023767D02*
X0167468Y0026236D01*
X0166851Y0026853D01*
X0164999Y0026853D01*
X0164999Y0023150D01*
X0166851Y0023150D01*
X0167468Y0023767D01*
X0166851Y0016853D02*
X0164999Y0016853D01*
X0164999Y0013150D01*
X0166851Y0013150D01*
X0167468Y0013767D01*
X0167468Y0016236D01*
X0166851Y0016853D01*
X0168682Y0016236D02*
X0168682Y0015619D01*
X0169299Y0015002D01*
X0171151Y0015002D01*
X0171151Y0016236D02*
X0170534Y0016853D01*
X0169299Y0016853D01*
X0168682Y0016236D01*
X0168682Y0013767D02*
X0169299Y0013150D01*
X0170534Y0013150D01*
X0171151Y0013767D01*
X0171151Y0016236D01*
X0194999Y0005085D02*
X0194999Y0003150D01*
X0194999Y0004601D02*
X0196934Y0004601D01*
X0196934Y0005085D02*
X0196934Y0003150D01*
X0197946Y0003634D02*
X0198429Y0003150D01*
X0199397Y0003150D01*
X0199881Y0003634D01*
X0199881Y0004117D01*
X0199397Y0004601D01*
X0197946Y0004601D01*
X0197946Y0003634D01*
X0197946Y0004601D02*
X0198913Y0005569D01*
X0199881Y0006052D01*
X0196934Y0005085D02*
X0195967Y0006052D01*
X0194999Y0005085D01*
X0204999Y0005002D02*
X0207468Y0005002D01*
X0207468Y0005619D02*
X0207468Y0003150D01*
X0208682Y0003150D02*
X0208682Y0003767D01*
X0211151Y0006236D01*
X0211151Y0006853D01*
X0208682Y0006853D01*
X0207468Y0005619D02*
X0206233Y0006853D01*
X0204999Y0005619D01*
X0204999Y0003150D01*
X0214999Y0003150D02*
X0216851Y0003150D01*
X0217468Y0003767D01*
X0217468Y0006236D01*
X0216851Y0006853D01*
X0214999Y0006853D01*
X0214999Y0003150D01*
X0218682Y0003150D02*
X0221151Y0003150D01*
X0219917Y0003150D02*
X0219917Y0006853D01*
X0218682Y0005619D01*
X0222365Y0006236D02*
X0222365Y0003767D01*
X0224834Y0006236D01*
X0224834Y0003767D01*
X0224217Y0003150D01*
X0222983Y0003150D01*
X0222365Y0003767D01*
X0222365Y0006236D02*
X0222983Y0006853D01*
X0224217Y0006853D01*
X0224834Y0006236D01*
X0209834Y0023150D02*
X0207365Y0023150D01*
X0206151Y0023150D02*
X0203682Y0023150D01*
X0204917Y0023150D02*
X0204917Y0026853D01*
X0203682Y0025619D01*
X0202468Y0026236D02*
X0201851Y0026853D01*
X0199999Y0026853D01*
X0199999Y0023150D01*
X0201851Y0023150D01*
X0202468Y0023767D01*
X0202468Y0026236D01*
X0207365Y0025619D02*
X0208600Y0026853D01*
X0208600Y0023150D01*
X0209834Y0033150D02*
X0207365Y0033150D01*
X0209834Y0035619D01*
X0209834Y0036236D01*
X0209217Y0036853D01*
X0207983Y0036853D01*
X0207365Y0036236D01*
X0204917Y0036853D02*
X0204917Y0033150D01*
X0206151Y0033150D02*
X0203682Y0033150D01*
X0202468Y0033767D02*
X0202468Y0036236D01*
X0201851Y0036853D01*
X0199999Y0036853D01*
X0199999Y0033150D01*
X0201851Y0033150D01*
X0202468Y0033767D01*
X0203682Y0035619D02*
X0204917Y0036853D01*
X0204917Y0043150D02*
X0204917Y0046853D01*
X0203682Y0045619D01*
X0202468Y0046236D02*
X0201851Y0046853D01*
X0199999Y0046853D01*
X0199999Y0043150D01*
X0201851Y0043150D01*
X0202468Y0043767D01*
X0202468Y0046236D01*
X0203682Y0043150D02*
X0206151Y0043150D01*
X0207365Y0043767D02*
X0207983Y0043150D01*
X0209217Y0043150D01*
X0209834Y0043767D01*
X0209834Y0044384D01*
X0209217Y0045002D01*
X0208600Y0045002D01*
X0209217Y0045002D02*
X0209834Y0045619D01*
X0209834Y0046236D01*
X0209217Y0046853D01*
X0207983Y0046853D01*
X0207365Y0046236D01*
X0205534Y0053150D02*
X0204299Y0053150D01*
X0203682Y0053767D01*
X0206151Y0056236D01*
X0206151Y0053767D01*
X0205534Y0053150D01*
X0203682Y0053767D02*
X0203682Y0056236D01*
X0204299Y0056853D01*
X0205534Y0056853D01*
X0206151Y0056236D01*
X0202468Y0055619D02*
X0202468Y0053150D01*
X0202468Y0055002D02*
X0199999Y0055002D01*
X0199999Y0055619D02*
X0201233Y0056853D01*
X0202468Y0055619D01*
X0199999Y0055619D02*
X0199999Y0053150D01*
X0199999Y0063150D02*
X0199999Y0065619D01*
X0201233Y0066853D01*
X0202468Y0065619D01*
X0202468Y0063150D01*
X0203682Y0063150D02*
X0206151Y0063150D01*
X0204917Y0063150D02*
X0204917Y0066853D01*
X0203682Y0065619D01*
X0202468Y0065002D02*
X0199999Y0065002D01*
X0200534Y0073150D02*
X0200534Y0076853D01*
X0198682Y0075002D01*
X0201151Y0075002D01*
X0197468Y0075002D02*
X0194999Y0075002D01*
X0194999Y0075619D02*
X0196233Y0076853D01*
X0197468Y0075619D01*
X0197468Y0073150D01*
X0194999Y0073150D02*
X0194999Y0075619D01*
X0194999Y0083150D02*
X0194999Y0085619D01*
X0196233Y0086853D01*
X0197468Y0085619D01*
X0197468Y0083150D01*
X0198682Y0083767D02*
X0199299Y0083150D01*
X0200534Y0083150D01*
X0201151Y0083767D01*
X0201151Y0085002D01*
X0200534Y0085619D01*
X0199917Y0085619D01*
X0198682Y0085002D01*
X0198682Y0086853D01*
X0201151Y0086853D01*
X0197468Y0085002D02*
X0194999Y0085002D01*
X0209999Y0088150D02*
X0209999Y0090085D01*
X0210967Y0091052D01*
X0211934Y0090085D01*
X0211934Y0088150D01*
X0212946Y0088634D02*
X0213429Y0088150D01*
X0214397Y0088150D01*
X0214881Y0088634D01*
X0214881Y0089117D01*
X0214397Y0089601D01*
X0213913Y0089601D01*
X0214397Y0089601D02*
X0214881Y0090085D01*
X0214881Y0090569D01*
X0214397Y0091052D01*
X0213429Y0091052D01*
X0212946Y0090569D01*
X0211934Y0089601D02*
X0209999Y0089601D01*
X0209397Y0098150D02*
X0208429Y0098150D01*
X0207946Y0098634D01*
X0207946Y0100569D01*
X0208429Y0101052D01*
X0209397Y0101052D01*
X0209881Y0100569D01*
X0210892Y0100569D02*
X0210892Y0098634D01*
X0211376Y0098150D01*
X0212343Y0098150D01*
X0212827Y0098634D01*
X0212827Y0100569D02*
X0212343Y0101052D01*
X0211376Y0101052D01*
X0210892Y0100569D01*
X0209881Y0098634D02*
X0209397Y0098150D01*
X0206934Y0099117D02*
X0206934Y0101052D01*
X0206934Y0099117D02*
X0205967Y0098150D01*
X0204999Y0099117D01*
X0204999Y0101052D01*
X0203600Y0103150D02*
X0203600Y0106853D01*
X0204834Y0106853D02*
X0202365Y0106853D01*
X0201151Y0106236D02*
X0200534Y0106853D01*
X0199299Y0106853D01*
X0198682Y0106236D01*
X0198682Y0105619D01*
X0199299Y0105002D01*
X0200534Y0105002D01*
X0201151Y0104384D01*
X0201151Y0103767D01*
X0200534Y0103150D01*
X0199299Y0103150D01*
X0198682Y0103767D01*
X0197468Y0103150D02*
X0196233Y0104384D01*
X0196851Y0104384D02*
X0194999Y0104384D01*
X0194999Y0103150D02*
X0194999Y0106853D01*
X0196851Y0106853D01*
X0197468Y0106236D01*
X0197468Y0105002D01*
X0196851Y0104384D01*
X0196851Y0113150D02*
X0195616Y0113150D01*
X0194999Y0113767D01*
X0194999Y0116236D01*
X0195616Y0116853D01*
X0196851Y0116853D01*
X0197468Y0116236D01*
X0197468Y0115002D02*
X0196233Y0115002D01*
X0197468Y0115002D02*
X0197468Y0113767D01*
X0196851Y0113150D01*
X0198682Y0113150D02*
X0198682Y0116853D01*
X0201151Y0113150D01*
X0201151Y0116853D01*
X0202365Y0116853D02*
X0204217Y0116853D01*
X0204834Y0116236D01*
X0204834Y0113767D01*
X0204217Y0113150D01*
X0202365Y0113150D01*
X0202365Y0116853D01*
X0202365Y0123150D02*
X0203600Y0124384D01*
X0204834Y0123150D01*
X0204834Y0126853D01*
X0202365Y0126853D02*
X0202365Y0123150D01*
X0201151Y0123150D02*
X0201151Y0125619D01*
X0199917Y0126853D01*
X0198682Y0125619D01*
X0198682Y0123150D01*
X0197468Y0123150D02*
X0196233Y0124384D01*
X0196851Y0124384D02*
X0194999Y0124384D01*
X0194999Y0123150D02*
X0194999Y0126853D01*
X0196851Y0126853D01*
X0197468Y0126236D01*
X0197468Y0125002D01*
X0196851Y0124384D01*
X0198682Y0125002D02*
X0201151Y0125002D01*
X0210967Y0081052D02*
X0211934Y0080085D01*
X0211934Y0078150D01*
X0212946Y0078150D02*
X0214881Y0080085D01*
X0214881Y0080569D01*
X0214397Y0081052D01*
X0213429Y0081052D01*
X0212946Y0080569D01*
X0211934Y0079601D02*
X0209999Y0079601D01*
X0209999Y0080085D02*
X0210967Y0081052D01*
X0209999Y0080085D02*
X0209999Y0078150D01*
X0212946Y0078150D02*
X0214881Y0078150D01*
D16*
X0215563Y0143100D02*
X0216297Y0143100D01*
X0216664Y0143467D01*
X0216664Y0144201D01*
X0215930Y0144201D01*
X0215196Y0144935D02*
X0215196Y0143467D01*
X0215563Y0143100D01*
X0217406Y0143100D02*
X0217406Y0145302D01*
X0218874Y0143100D01*
X0218874Y0145302D01*
X0219616Y0145302D02*
X0220717Y0145302D01*
X0221084Y0144935D01*
X0221084Y0143467D01*
X0220717Y0143100D01*
X0219616Y0143100D01*
X0219616Y0145302D01*
X0216664Y0144935D02*
X0216297Y0145302D01*
X0215563Y0145302D01*
X0215196Y0144935D01*
X0210034Y0144935D02*
X0209667Y0145302D01*
X0208933Y0145302D01*
X0208566Y0144935D01*
X0208566Y0143467D01*
X0208933Y0143100D01*
X0209667Y0143100D01*
X0210034Y0143467D01*
X0207824Y0143467D02*
X0207457Y0143100D01*
X0206724Y0143100D01*
X0206357Y0143467D01*
X0206357Y0144935D01*
X0206724Y0145302D01*
X0207457Y0145302D01*
X0207824Y0144935D01*
X0205615Y0145302D02*
X0205615Y0143834D01*
X0204881Y0143100D01*
X0204147Y0143834D01*
X0204147Y0145302D01*
X0194565Y0145302D02*
X0193097Y0143100D01*
X0192355Y0143100D02*
X0191621Y0143834D01*
X0191988Y0143834D02*
X0190887Y0143834D01*
X0190887Y0143100D02*
X0190887Y0145302D01*
X0191988Y0145302D01*
X0192355Y0144935D01*
X0192355Y0144201D01*
X0191988Y0143834D01*
X0193097Y0145302D02*
X0194565Y0143100D01*
X0176886Y0143100D02*
X0175418Y0145302D01*
X0174676Y0145302D02*
X0173208Y0145302D01*
X0173942Y0145302D02*
X0173942Y0143100D01*
X0175418Y0143100D02*
X0176886Y0145302D01*
X0165837Y0144935D02*
X0165837Y0144201D01*
X0165470Y0143834D01*
X0164369Y0143834D01*
X0165103Y0143834D02*
X0165837Y0143100D01*
X0164369Y0143100D02*
X0164369Y0145302D01*
X0165470Y0145302D01*
X0165837Y0144935D01*
X0163627Y0145302D02*
X0162159Y0145302D01*
X0162893Y0145302D02*
X0162893Y0143100D01*
X0161417Y0143467D02*
X0161417Y0144935D01*
X0161050Y0145302D01*
X0159949Y0145302D01*
X0159949Y0143100D01*
X0161050Y0143100D01*
X0161417Y0143467D01*
X0226245Y0143467D02*
X0226612Y0143100D01*
X0227346Y0143100D01*
X0227713Y0143467D01*
X0227713Y0144201D01*
X0226979Y0144201D01*
X0226245Y0144935D02*
X0226245Y0143467D01*
X0226245Y0144935D02*
X0226612Y0145302D01*
X0227346Y0145302D01*
X0227713Y0144935D01*
X0228455Y0145302D02*
X0229923Y0143100D01*
X0229923Y0145302D01*
X0230665Y0145302D02*
X0231766Y0145302D01*
X0232133Y0144935D01*
X0232133Y0143467D01*
X0231766Y0143100D01*
X0230665Y0143100D01*
X0230665Y0145302D01*
X0228455Y0145302D02*
X0228455Y0143100D01*
X0237295Y0143100D02*
X0238396Y0143100D01*
X0238763Y0143467D01*
X0238763Y0143834D01*
X0238396Y0144201D01*
X0237295Y0144201D01*
X0238396Y0144201D02*
X0238763Y0144568D01*
X0238763Y0144935D01*
X0238396Y0145302D01*
X0237295Y0145302D01*
X0237295Y0143100D01*
X0239505Y0143100D02*
X0239505Y0145302D01*
X0239505Y0143100D02*
X0240973Y0143100D01*
X0241715Y0143100D02*
X0241715Y0145302D01*
X0242082Y0144201D02*
X0243183Y0143100D01*
X0241715Y0143834D02*
X0243183Y0145302D01*
X0078037Y0099296D02*
X0077570Y0098829D01*
X0078037Y0098362D01*
X0076636Y0098362D01*
X0076869Y0097823D02*
X0076636Y0097589D01*
X0076636Y0097122D01*
X0076869Y0096889D01*
X0077804Y0096889D01*
X0078037Y0097122D01*
X0078037Y0097589D01*
X0077804Y0097823D01*
X0078037Y0099296D02*
X0076636Y0099296D01*
X0076636Y0096349D02*
X0078037Y0096349D01*
X0077337Y0096349D02*
X0077337Y0095415D01*
X0077337Y0094876D02*
X0077337Y0094176D01*
X0077103Y0093942D01*
X0076869Y0093942D01*
X0076636Y0094176D01*
X0076636Y0094643D01*
X0076869Y0094876D01*
X0077804Y0094876D01*
X0078037Y0094643D01*
X0078037Y0094176D01*
X0077804Y0093942D01*
X0077804Y0093403D02*
X0077570Y0093403D01*
X0077337Y0093169D01*
X0077337Y0092469D01*
X0077804Y0092469D01*
X0078037Y0092702D01*
X0078037Y0093169D01*
X0077804Y0093403D01*
X0077337Y0092469D02*
X0076869Y0092936D01*
X0076636Y0093403D01*
X0076636Y0091930D02*
X0078037Y0091930D01*
X0078037Y0090996D02*
X0076636Y0090996D01*
X0077103Y0091463D01*
X0076636Y0091930D01*
X0076636Y0090456D02*
X0076636Y0089522D01*
X0078037Y0089522D01*
X0078037Y0088983D02*
X0077570Y0088516D01*
X0077570Y0088750D02*
X0077570Y0088049D01*
X0078037Y0088049D02*
X0076636Y0088049D01*
X0076636Y0088750D01*
X0076869Y0088983D01*
X0077337Y0088983D01*
X0077570Y0088750D01*
X0077337Y0089522D02*
X0077337Y0089989D01*
X0078037Y0095415D02*
X0076636Y0095415D01*
D17*
X0097284Y0106713D02*
X0120316Y0106713D01*
X0120316Y0147658D01*
X0097284Y0147658D01*
X0097284Y0106713D01*
X0114668Y0110552D02*
X0114670Y0110637D01*
X0114676Y0110721D01*
X0114686Y0110806D01*
X0114700Y0110889D01*
X0114717Y0110972D01*
X0114739Y0111054D01*
X0114765Y0111135D01*
X0114794Y0111215D01*
X0114827Y0111293D01*
X0114863Y0111369D01*
X0114903Y0111444D01*
X0114947Y0111517D01*
X0114994Y0111588D01*
X0115044Y0111656D01*
X0115097Y0111722D01*
X0115154Y0111785D01*
X0115213Y0111846D01*
X0115275Y0111904D01*
X0115340Y0111959D01*
X0115407Y0112011D01*
X0115476Y0112059D01*
X0115548Y0112104D01*
X0115622Y0112146D01*
X0115698Y0112184D01*
X0115775Y0112219D01*
X0115854Y0112250D01*
X0115934Y0112278D01*
X0116016Y0112301D01*
X0116098Y0112321D01*
X0116181Y0112337D01*
X0116265Y0112349D01*
X0116350Y0112357D01*
X0116435Y0112361D01*
X0116519Y0112361D01*
X0116604Y0112357D01*
X0116689Y0112349D01*
X0116773Y0112337D01*
X0116856Y0112321D01*
X0116938Y0112301D01*
X0117020Y0112278D01*
X0117100Y0112250D01*
X0117179Y0112219D01*
X0117256Y0112184D01*
X0117332Y0112146D01*
X0117406Y0112104D01*
X0117478Y0112059D01*
X0117547Y0112011D01*
X0117614Y0111959D01*
X0117679Y0111904D01*
X0117741Y0111846D01*
X0117800Y0111785D01*
X0117857Y0111722D01*
X0117910Y0111656D01*
X0117960Y0111588D01*
X0118007Y0111517D01*
X0118051Y0111444D01*
X0118091Y0111369D01*
X0118127Y0111293D01*
X0118160Y0111215D01*
X0118189Y0111135D01*
X0118215Y0111054D01*
X0118237Y0110972D01*
X0118254Y0110889D01*
X0118268Y0110806D01*
X0118278Y0110721D01*
X0118284Y0110637D01*
X0118286Y0110552D01*
X0118284Y0110467D01*
X0118278Y0110383D01*
X0118268Y0110298D01*
X0118254Y0110215D01*
X0118237Y0110132D01*
X0118215Y0110050D01*
X0118189Y0109969D01*
X0118160Y0109889D01*
X0118127Y0109811D01*
X0118091Y0109735D01*
X0118051Y0109660D01*
X0118007Y0109587D01*
X0117960Y0109516D01*
X0117910Y0109448D01*
X0117857Y0109382D01*
X0117800Y0109319D01*
X0117741Y0109258D01*
X0117679Y0109200D01*
X0117614Y0109145D01*
X0117547Y0109093D01*
X0117478Y0109045D01*
X0117406Y0109000D01*
X0117332Y0108958D01*
X0117256Y0108920D01*
X0117179Y0108885D01*
X0117100Y0108854D01*
X0117020Y0108826D01*
X0116938Y0108803D01*
X0116856Y0108783D01*
X0116773Y0108767D01*
X0116689Y0108755D01*
X0116604Y0108747D01*
X0116519Y0108743D01*
X0116435Y0108743D01*
X0116350Y0108747D01*
X0116265Y0108755D01*
X0116181Y0108767D01*
X0116098Y0108783D01*
X0116016Y0108803D01*
X0115934Y0108826D01*
X0115854Y0108854D01*
X0115775Y0108885D01*
X0115698Y0108920D01*
X0115622Y0108958D01*
X0115548Y0109000D01*
X0115476Y0109045D01*
X0115407Y0109093D01*
X0115340Y0109145D01*
X0115275Y0109200D01*
X0115213Y0109258D01*
X0115154Y0109319D01*
X0115097Y0109382D01*
X0115044Y0109448D01*
X0114994Y0109516D01*
X0114947Y0109587D01*
X0114903Y0109660D01*
X0114863Y0109735D01*
X0114827Y0109811D01*
X0114794Y0109889D01*
X0114765Y0109969D01*
X0114739Y0110050D01*
X0114717Y0110132D01*
X0114700Y0110215D01*
X0114686Y0110298D01*
X0114676Y0110383D01*
X0114670Y0110467D01*
X0114668Y0110552D01*
X0144551Y0097996D02*
X0145853Y0096695D01*
X0145853Y0098430D01*
X0147154Y0097996D02*
X0144551Y0097996D01*
X0144551Y0095483D02*
X0146720Y0095483D01*
X0147154Y0095050D01*
X0147154Y0094182D01*
X0146720Y0093748D01*
X0144551Y0093748D01*
X0145500Y0163485D02*
X0142898Y0163485D01*
X0142898Y0164787D01*
X0143331Y0165220D01*
X0145066Y0165220D01*
X0145500Y0164787D01*
X0145500Y0163485D01*
X0145500Y0166432D02*
X0143765Y0168167D01*
X0143331Y0168167D01*
X0142898Y0167733D01*
X0142898Y0166866D01*
X0143331Y0166432D01*
X0145500Y0166432D02*
X0145500Y0168167D01*
X0147211Y0178286D02*
X0147211Y0180888D01*
X0148512Y0180888D01*
X0148946Y0180454D01*
X0148946Y0179587D01*
X0148512Y0179153D01*
X0147211Y0179153D01*
X0148078Y0179153D02*
X0148946Y0178286D01*
X0150157Y0179587D02*
X0151892Y0179587D01*
X0151459Y0180888D02*
X0150157Y0179587D01*
X0151459Y0178286D02*
X0151459Y0180888D01*
X0120232Y0189087D02*
X0119798Y0188653D01*
X0118931Y0188653D01*
X0118497Y0189087D01*
X0117285Y0189087D02*
X0117285Y0191255D01*
X0118497Y0190821D02*
X0118931Y0191255D01*
X0119798Y0191255D01*
X0120232Y0190821D01*
X0120232Y0190388D01*
X0119798Y0189954D01*
X0120232Y0189520D01*
X0120232Y0189087D01*
X0119798Y0189954D02*
X0119364Y0189954D01*
X0117285Y0189087D02*
X0116852Y0188653D01*
X0115984Y0188653D01*
X0115550Y0189087D01*
X0115550Y0191255D01*
X0107808Y0183592D02*
X0108242Y0183158D01*
X0108242Y0182724D01*
X0107808Y0182291D01*
X0108242Y0181857D01*
X0108242Y0181423D01*
X0107808Y0180989D01*
X0106941Y0180989D01*
X0106507Y0181423D01*
X0105296Y0181423D02*
X0105296Y0183158D01*
X0104862Y0183592D01*
X0103561Y0183592D01*
X0103561Y0180989D01*
X0104862Y0180989D01*
X0105296Y0181423D01*
X0106507Y0183158D02*
X0106941Y0183592D01*
X0107808Y0183592D01*
X0107808Y0182291D02*
X0107375Y0182291D01*
D18*
X0149800Y0166611D03*
D19*
X0110751Y0025819D02*
X0106251Y0025819D01*
X0099751Y0025819D02*
X0095251Y0025819D01*
D20*
X0082049Y0028082D02*
X0082051Y0028151D01*
X0082057Y0028219D01*
X0082067Y0028287D01*
X0082081Y0028354D01*
X0082099Y0028421D01*
X0082120Y0028486D01*
X0082146Y0028550D01*
X0082175Y0028612D01*
X0082207Y0028672D01*
X0082243Y0028731D01*
X0082283Y0028787D01*
X0082325Y0028841D01*
X0082371Y0028892D01*
X0082420Y0028941D01*
X0082471Y0028987D01*
X0082525Y0029029D01*
X0082581Y0029069D01*
X0082639Y0029105D01*
X0082700Y0029137D01*
X0082762Y0029166D01*
X0082826Y0029192D01*
X0082891Y0029213D01*
X0082958Y0029231D01*
X0083025Y0029245D01*
X0083093Y0029255D01*
X0083161Y0029261D01*
X0083230Y0029263D01*
X0083299Y0029261D01*
X0083367Y0029255D01*
X0083435Y0029245D01*
X0083502Y0029231D01*
X0083569Y0029213D01*
X0083634Y0029192D01*
X0083698Y0029166D01*
X0083760Y0029137D01*
X0083820Y0029105D01*
X0083879Y0029069D01*
X0083935Y0029029D01*
X0083989Y0028987D01*
X0084040Y0028941D01*
X0084089Y0028892D01*
X0084135Y0028841D01*
X0084177Y0028787D01*
X0084217Y0028731D01*
X0084253Y0028672D01*
X0084285Y0028612D01*
X0084314Y0028550D01*
X0084340Y0028486D01*
X0084361Y0028421D01*
X0084379Y0028354D01*
X0084393Y0028287D01*
X0084403Y0028219D01*
X0084409Y0028151D01*
X0084411Y0028082D01*
X0084409Y0028013D01*
X0084403Y0027945D01*
X0084393Y0027877D01*
X0084379Y0027810D01*
X0084361Y0027743D01*
X0084340Y0027678D01*
X0084314Y0027614D01*
X0084285Y0027552D01*
X0084253Y0027491D01*
X0084217Y0027433D01*
X0084177Y0027377D01*
X0084135Y0027323D01*
X0084089Y0027272D01*
X0084040Y0027223D01*
X0083989Y0027177D01*
X0083935Y0027135D01*
X0083879Y0027095D01*
X0083821Y0027059D01*
X0083760Y0027027D01*
X0083698Y0026998D01*
X0083634Y0026972D01*
X0083569Y0026951D01*
X0083502Y0026933D01*
X0083435Y0026919D01*
X0083367Y0026909D01*
X0083299Y0026903D01*
X0083230Y0026901D01*
X0083161Y0026903D01*
X0083093Y0026909D01*
X0083025Y0026919D01*
X0082958Y0026933D01*
X0082891Y0026951D01*
X0082826Y0026972D01*
X0082762Y0026998D01*
X0082700Y0027027D01*
X0082639Y0027059D01*
X0082581Y0027095D01*
X0082525Y0027135D01*
X0082471Y0027177D01*
X0082420Y0027223D01*
X0082371Y0027272D01*
X0082325Y0027323D01*
X0082283Y0027377D01*
X0082243Y0027433D01*
X0082207Y0027491D01*
X0082175Y0027552D01*
X0082146Y0027614D01*
X0082120Y0027678D01*
X0082099Y0027743D01*
X0082081Y0027810D01*
X0082067Y0027877D01*
X0082057Y0027945D01*
X0082051Y0028013D01*
X0082049Y0028082D01*
D21*
X0105729Y0187889D03*
M02*
