%
M48
M72
T01C0.02200
T02C0.02362
T03C0.02756
T04C0.03150
T05C0.03543
T06C0.03937
T07C0.11811
%
T01
X103001Y28319
T02
X101320Y131045
X146900Y130585
X107988Y172220
X160800Y182185
X160800Y187185
T03
X122600Y49688
X99124Y87843
X106790Y91510
T04
X84983Y14355
X94819Y42860
X110988Y42527
X188054Y45575
T05
X77271Y168432
X77271Y185755
T06
X157349Y25500
X157349Y15500
X157349Y35500
X157349Y45500
X157349Y55500
X157349Y65500
X157349Y75500
X157349Y85500
X157349Y95500
X157349Y105500
X157349Y115500
X157349Y125500
X162349Y135500
X172349Y135500
X182349Y135500
X192349Y135500
X202349Y135500
X212349Y135500
X217349Y125500
X217349Y115500
X217349Y105500
X217349Y95500
X207349Y90500
X207349Y80500
X217349Y75500
X217349Y65500
X217349Y55500
X217349Y45500
X217349Y35500
X217349Y25500
X217349Y15500
X207349Y15500
X197349Y15500
X187349Y15500
X217349Y85500
T07
X76459Y22850
X218445Y148504
M30
