G75*
%MOIN*%
%OFA0B0*%
%FSLAX25Y25*%
%IPPOS*%
%LPD*%
%AMOC8*
5,1,8,0,0,1.08239X$1,22.5*
%
%ADD10C,0.00000*%
%ADD11C,0.05937*%
%ADD12C,0.05000*%
%ADD13C,0.00450*%
%ADD14R,0.06000X0.17000*%
%ADD15R,0.09843X0.09843*%
%ADD16C,0.05150*%
%ADD17C,0.01600*%
%ADD18C,0.04724*%
%ADD19C,0.03562*%
%ADD20C,0.01200*%
%ADD21C,0.04134*%
D10*
X0005457Y0022435D02*
X0026291Y0026394D01*
X0046791Y0030019D01*
X0046860Y0031852D01*
X0046930Y0032019D01*
X0059694Y0032505D01*
X0072124Y0032991D01*
X0072100Y0032985D02*
X0072125Y0058990D01*
X0072124Y0058963D02*
X0072124Y0084935D01*
X0052124Y0088685D01*
X0052124Y0199797D01*
X0228374Y0199797D01*
X0228374Y0006741D01*
X0167819Y0006394D01*
X0107263Y0006047D01*
X0074902Y0009419D01*
X0074902Y0012574D01*
X0060805Y0013130D01*
X0046707Y0013685D01*
X0046707Y0015908D01*
X0005457Y0022435D01*
X0070553Y0022850D02*
X0070555Y0023003D01*
X0070561Y0023157D01*
X0070571Y0023310D01*
X0070585Y0023462D01*
X0070603Y0023615D01*
X0070625Y0023766D01*
X0070650Y0023917D01*
X0070680Y0024068D01*
X0070714Y0024218D01*
X0070751Y0024366D01*
X0070792Y0024514D01*
X0070837Y0024660D01*
X0070886Y0024806D01*
X0070939Y0024950D01*
X0070995Y0025092D01*
X0071055Y0025233D01*
X0071119Y0025373D01*
X0071186Y0025511D01*
X0071257Y0025647D01*
X0071332Y0025781D01*
X0071409Y0025913D01*
X0071491Y0026043D01*
X0071575Y0026171D01*
X0071663Y0026297D01*
X0071754Y0026420D01*
X0071848Y0026541D01*
X0071946Y0026659D01*
X0072046Y0026775D01*
X0072150Y0026888D01*
X0072256Y0026999D01*
X0072365Y0027107D01*
X0072477Y0027212D01*
X0072591Y0027313D01*
X0072709Y0027412D01*
X0072828Y0027508D01*
X0072950Y0027601D01*
X0073075Y0027690D01*
X0073202Y0027777D01*
X0073331Y0027859D01*
X0073462Y0027939D01*
X0073595Y0028015D01*
X0073730Y0028088D01*
X0073867Y0028157D01*
X0074006Y0028222D01*
X0074146Y0028284D01*
X0074288Y0028342D01*
X0074431Y0028397D01*
X0074576Y0028448D01*
X0074722Y0028495D01*
X0074869Y0028538D01*
X0075017Y0028577D01*
X0075166Y0028613D01*
X0075316Y0028644D01*
X0075467Y0028672D01*
X0075618Y0028696D01*
X0075771Y0028716D01*
X0075923Y0028732D01*
X0076076Y0028744D01*
X0076229Y0028752D01*
X0076382Y0028756D01*
X0076536Y0028756D01*
X0076689Y0028752D01*
X0076842Y0028744D01*
X0076995Y0028732D01*
X0077147Y0028716D01*
X0077300Y0028696D01*
X0077451Y0028672D01*
X0077602Y0028644D01*
X0077752Y0028613D01*
X0077901Y0028577D01*
X0078049Y0028538D01*
X0078196Y0028495D01*
X0078342Y0028448D01*
X0078487Y0028397D01*
X0078630Y0028342D01*
X0078772Y0028284D01*
X0078912Y0028222D01*
X0079051Y0028157D01*
X0079188Y0028088D01*
X0079323Y0028015D01*
X0079456Y0027939D01*
X0079587Y0027859D01*
X0079716Y0027777D01*
X0079843Y0027690D01*
X0079968Y0027601D01*
X0080090Y0027508D01*
X0080209Y0027412D01*
X0080327Y0027313D01*
X0080441Y0027212D01*
X0080553Y0027107D01*
X0080662Y0026999D01*
X0080768Y0026888D01*
X0080872Y0026775D01*
X0080972Y0026659D01*
X0081070Y0026541D01*
X0081164Y0026420D01*
X0081255Y0026297D01*
X0081343Y0026171D01*
X0081427Y0026043D01*
X0081509Y0025913D01*
X0081586Y0025781D01*
X0081661Y0025647D01*
X0081732Y0025511D01*
X0081799Y0025373D01*
X0081863Y0025233D01*
X0081923Y0025092D01*
X0081979Y0024950D01*
X0082032Y0024806D01*
X0082081Y0024660D01*
X0082126Y0024514D01*
X0082167Y0024366D01*
X0082204Y0024218D01*
X0082238Y0024068D01*
X0082268Y0023917D01*
X0082293Y0023766D01*
X0082315Y0023615D01*
X0082333Y0023462D01*
X0082347Y0023310D01*
X0082357Y0023157D01*
X0082363Y0023003D01*
X0082365Y0022850D01*
X0082363Y0022697D01*
X0082357Y0022543D01*
X0082347Y0022390D01*
X0082333Y0022238D01*
X0082315Y0022085D01*
X0082293Y0021934D01*
X0082268Y0021783D01*
X0082238Y0021632D01*
X0082204Y0021482D01*
X0082167Y0021334D01*
X0082126Y0021186D01*
X0082081Y0021040D01*
X0082032Y0020894D01*
X0081979Y0020750D01*
X0081923Y0020608D01*
X0081863Y0020467D01*
X0081799Y0020327D01*
X0081732Y0020189D01*
X0081661Y0020053D01*
X0081586Y0019919D01*
X0081509Y0019787D01*
X0081427Y0019657D01*
X0081343Y0019529D01*
X0081255Y0019403D01*
X0081164Y0019280D01*
X0081070Y0019159D01*
X0080972Y0019041D01*
X0080872Y0018925D01*
X0080768Y0018812D01*
X0080662Y0018701D01*
X0080553Y0018593D01*
X0080441Y0018488D01*
X0080327Y0018387D01*
X0080209Y0018288D01*
X0080090Y0018192D01*
X0079968Y0018099D01*
X0079843Y0018010D01*
X0079716Y0017923D01*
X0079587Y0017841D01*
X0079456Y0017761D01*
X0079323Y0017685D01*
X0079188Y0017612D01*
X0079051Y0017543D01*
X0078912Y0017478D01*
X0078772Y0017416D01*
X0078630Y0017358D01*
X0078487Y0017303D01*
X0078342Y0017252D01*
X0078196Y0017205D01*
X0078049Y0017162D01*
X0077901Y0017123D01*
X0077752Y0017087D01*
X0077602Y0017056D01*
X0077451Y0017028D01*
X0077300Y0017004D01*
X0077147Y0016984D01*
X0076995Y0016968D01*
X0076842Y0016956D01*
X0076689Y0016948D01*
X0076536Y0016944D01*
X0076382Y0016944D01*
X0076229Y0016948D01*
X0076076Y0016956D01*
X0075923Y0016968D01*
X0075771Y0016984D01*
X0075618Y0017004D01*
X0075467Y0017028D01*
X0075316Y0017056D01*
X0075166Y0017087D01*
X0075017Y0017123D01*
X0074869Y0017162D01*
X0074722Y0017205D01*
X0074576Y0017252D01*
X0074431Y0017303D01*
X0074288Y0017358D01*
X0074146Y0017416D01*
X0074006Y0017478D01*
X0073867Y0017543D01*
X0073730Y0017612D01*
X0073595Y0017685D01*
X0073462Y0017761D01*
X0073331Y0017841D01*
X0073202Y0017923D01*
X0073075Y0018010D01*
X0072950Y0018099D01*
X0072828Y0018192D01*
X0072709Y0018288D01*
X0072591Y0018387D01*
X0072477Y0018488D01*
X0072365Y0018593D01*
X0072256Y0018701D01*
X0072150Y0018812D01*
X0072046Y0018925D01*
X0071946Y0019041D01*
X0071848Y0019159D01*
X0071754Y0019280D01*
X0071663Y0019403D01*
X0071575Y0019529D01*
X0071491Y0019657D01*
X0071409Y0019787D01*
X0071332Y0019919D01*
X0071257Y0020053D01*
X0071186Y0020189D01*
X0071119Y0020327D01*
X0071055Y0020467D01*
X0070995Y0020608D01*
X0070939Y0020750D01*
X0070886Y0020894D01*
X0070837Y0021040D01*
X0070792Y0021186D01*
X0070751Y0021334D01*
X0070714Y0021482D01*
X0070680Y0021632D01*
X0070650Y0021783D01*
X0070625Y0021934D01*
X0070603Y0022085D01*
X0070585Y0022238D01*
X0070571Y0022390D01*
X0070561Y0022543D01*
X0070555Y0022697D01*
X0070553Y0022850D01*
X0212539Y0148504D02*
X0212541Y0148657D01*
X0212547Y0148811D01*
X0212557Y0148964D01*
X0212571Y0149116D01*
X0212589Y0149269D01*
X0212611Y0149420D01*
X0212636Y0149571D01*
X0212666Y0149722D01*
X0212700Y0149872D01*
X0212737Y0150020D01*
X0212778Y0150168D01*
X0212823Y0150314D01*
X0212872Y0150460D01*
X0212925Y0150604D01*
X0212981Y0150746D01*
X0213041Y0150887D01*
X0213105Y0151027D01*
X0213172Y0151165D01*
X0213243Y0151301D01*
X0213318Y0151435D01*
X0213395Y0151567D01*
X0213477Y0151697D01*
X0213561Y0151825D01*
X0213649Y0151951D01*
X0213740Y0152074D01*
X0213834Y0152195D01*
X0213932Y0152313D01*
X0214032Y0152429D01*
X0214136Y0152542D01*
X0214242Y0152653D01*
X0214351Y0152761D01*
X0214463Y0152866D01*
X0214577Y0152967D01*
X0214695Y0153066D01*
X0214814Y0153162D01*
X0214936Y0153255D01*
X0215061Y0153344D01*
X0215188Y0153431D01*
X0215317Y0153513D01*
X0215448Y0153593D01*
X0215581Y0153669D01*
X0215716Y0153742D01*
X0215853Y0153811D01*
X0215992Y0153876D01*
X0216132Y0153938D01*
X0216274Y0153996D01*
X0216417Y0154051D01*
X0216562Y0154102D01*
X0216708Y0154149D01*
X0216855Y0154192D01*
X0217003Y0154231D01*
X0217152Y0154267D01*
X0217302Y0154298D01*
X0217453Y0154326D01*
X0217604Y0154350D01*
X0217757Y0154370D01*
X0217909Y0154386D01*
X0218062Y0154398D01*
X0218215Y0154406D01*
X0218368Y0154410D01*
X0218522Y0154410D01*
X0218675Y0154406D01*
X0218828Y0154398D01*
X0218981Y0154386D01*
X0219133Y0154370D01*
X0219286Y0154350D01*
X0219437Y0154326D01*
X0219588Y0154298D01*
X0219738Y0154267D01*
X0219887Y0154231D01*
X0220035Y0154192D01*
X0220182Y0154149D01*
X0220328Y0154102D01*
X0220473Y0154051D01*
X0220616Y0153996D01*
X0220758Y0153938D01*
X0220898Y0153876D01*
X0221037Y0153811D01*
X0221174Y0153742D01*
X0221309Y0153669D01*
X0221442Y0153593D01*
X0221573Y0153513D01*
X0221702Y0153431D01*
X0221829Y0153344D01*
X0221954Y0153255D01*
X0222076Y0153162D01*
X0222195Y0153066D01*
X0222313Y0152967D01*
X0222427Y0152866D01*
X0222539Y0152761D01*
X0222648Y0152653D01*
X0222754Y0152542D01*
X0222858Y0152429D01*
X0222958Y0152313D01*
X0223056Y0152195D01*
X0223150Y0152074D01*
X0223241Y0151951D01*
X0223329Y0151825D01*
X0223413Y0151697D01*
X0223495Y0151567D01*
X0223572Y0151435D01*
X0223647Y0151301D01*
X0223718Y0151165D01*
X0223785Y0151027D01*
X0223849Y0150887D01*
X0223909Y0150746D01*
X0223965Y0150604D01*
X0224018Y0150460D01*
X0224067Y0150314D01*
X0224112Y0150168D01*
X0224153Y0150020D01*
X0224190Y0149872D01*
X0224224Y0149722D01*
X0224254Y0149571D01*
X0224279Y0149420D01*
X0224301Y0149269D01*
X0224319Y0149116D01*
X0224333Y0148964D01*
X0224343Y0148811D01*
X0224349Y0148657D01*
X0224351Y0148504D01*
X0224349Y0148351D01*
X0224343Y0148197D01*
X0224333Y0148044D01*
X0224319Y0147892D01*
X0224301Y0147739D01*
X0224279Y0147588D01*
X0224254Y0147437D01*
X0224224Y0147286D01*
X0224190Y0147136D01*
X0224153Y0146988D01*
X0224112Y0146840D01*
X0224067Y0146694D01*
X0224018Y0146548D01*
X0223965Y0146404D01*
X0223909Y0146262D01*
X0223849Y0146121D01*
X0223785Y0145981D01*
X0223718Y0145843D01*
X0223647Y0145707D01*
X0223572Y0145573D01*
X0223495Y0145441D01*
X0223413Y0145311D01*
X0223329Y0145183D01*
X0223241Y0145057D01*
X0223150Y0144934D01*
X0223056Y0144813D01*
X0222958Y0144695D01*
X0222858Y0144579D01*
X0222754Y0144466D01*
X0222648Y0144355D01*
X0222539Y0144247D01*
X0222427Y0144142D01*
X0222313Y0144041D01*
X0222195Y0143942D01*
X0222076Y0143846D01*
X0221954Y0143753D01*
X0221829Y0143664D01*
X0221702Y0143577D01*
X0221573Y0143495D01*
X0221442Y0143415D01*
X0221309Y0143339D01*
X0221174Y0143266D01*
X0221037Y0143197D01*
X0220898Y0143132D01*
X0220758Y0143070D01*
X0220616Y0143012D01*
X0220473Y0142957D01*
X0220328Y0142906D01*
X0220182Y0142859D01*
X0220035Y0142816D01*
X0219887Y0142777D01*
X0219738Y0142741D01*
X0219588Y0142710D01*
X0219437Y0142682D01*
X0219286Y0142658D01*
X0219133Y0142638D01*
X0218981Y0142622D01*
X0218828Y0142610D01*
X0218675Y0142602D01*
X0218522Y0142598D01*
X0218368Y0142598D01*
X0218215Y0142602D01*
X0218062Y0142610D01*
X0217909Y0142622D01*
X0217757Y0142638D01*
X0217604Y0142658D01*
X0217453Y0142682D01*
X0217302Y0142710D01*
X0217152Y0142741D01*
X0217003Y0142777D01*
X0216855Y0142816D01*
X0216708Y0142859D01*
X0216562Y0142906D01*
X0216417Y0142957D01*
X0216274Y0143012D01*
X0216132Y0143070D01*
X0215992Y0143132D01*
X0215853Y0143197D01*
X0215716Y0143266D01*
X0215581Y0143339D01*
X0215448Y0143415D01*
X0215317Y0143495D01*
X0215188Y0143577D01*
X0215061Y0143664D01*
X0214936Y0143753D01*
X0214814Y0143846D01*
X0214695Y0143942D01*
X0214577Y0144041D01*
X0214463Y0144142D01*
X0214351Y0144247D01*
X0214242Y0144355D01*
X0214136Y0144466D01*
X0214032Y0144579D01*
X0213932Y0144695D01*
X0213834Y0144813D01*
X0213740Y0144934D01*
X0213649Y0145057D01*
X0213561Y0145183D01*
X0213477Y0145311D01*
X0213395Y0145441D01*
X0213318Y0145573D01*
X0213243Y0145707D01*
X0213172Y0145843D01*
X0213105Y0145981D01*
X0213041Y0146121D01*
X0212981Y0146262D01*
X0212925Y0146404D01*
X0212872Y0146548D01*
X0212823Y0146694D01*
X0212778Y0146840D01*
X0212737Y0146988D01*
X0212700Y0147136D01*
X0212666Y0147286D01*
X0212636Y0147437D01*
X0212611Y0147588D01*
X0212589Y0147739D01*
X0212571Y0147892D01*
X0212557Y0148044D01*
X0212547Y0148197D01*
X0212541Y0148351D01*
X0212539Y0148504D01*
X0070603Y0169543D02*
X0070605Y0169617D01*
X0070611Y0169691D01*
X0070621Y0169764D01*
X0070635Y0169837D01*
X0070652Y0169909D01*
X0070674Y0169979D01*
X0070699Y0170049D01*
X0070728Y0170117D01*
X0070761Y0170183D01*
X0070797Y0170248D01*
X0070837Y0170310D01*
X0070879Y0170371D01*
X0070925Y0170429D01*
X0070974Y0170484D01*
X0071026Y0170537D01*
X0071081Y0170587D01*
X0071138Y0170633D01*
X0071198Y0170677D01*
X0071260Y0170717D01*
X0071324Y0170754D01*
X0071390Y0170788D01*
X0071458Y0170818D01*
X0071527Y0170844D01*
X0071598Y0170867D01*
X0071669Y0170885D01*
X0071742Y0170900D01*
X0071815Y0170911D01*
X0071889Y0170918D01*
X0071963Y0170921D01*
X0072036Y0170920D01*
X0072110Y0170915D01*
X0072184Y0170906D01*
X0072257Y0170893D01*
X0072329Y0170876D01*
X0072400Y0170856D01*
X0072470Y0170831D01*
X0072538Y0170803D01*
X0072605Y0170772D01*
X0072670Y0170736D01*
X0072733Y0170698D01*
X0072794Y0170656D01*
X0072853Y0170610D01*
X0072909Y0170562D01*
X0072962Y0170511D01*
X0073012Y0170457D01*
X0073060Y0170400D01*
X0073104Y0170341D01*
X0073146Y0170279D01*
X0073184Y0170216D01*
X0073218Y0170150D01*
X0073249Y0170083D01*
X0073276Y0170014D01*
X0073299Y0169944D01*
X0073319Y0169873D01*
X0073335Y0169800D01*
X0073347Y0169727D01*
X0073355Y0169654D01*
X0073359Y0169580D01*
X0073359Y0169506D01*
X0073355Y0169432D01*
X0073347Y0169359D01*
X0073335Y0169286D01*
X0073319Y0169213D01*
X0073299Y0169142D01*
X0073276Y0169072D01*
X0073249Y0169003D01*
X0073218Y0168936D01*
X0073184Y0168870D01*
X0073146Y0168807D01*
X0073104Y0168745D01*
X0073060Y0168686D01*
X0073012Y0168629D01*
X0072962Y0168575D01*
X0072909Y0168524D01*
X0072853Y0168476D01*
X0072794Y0168430D01*
X0072733Y0168388D01*
X0072670Y0168350D01*
X0072605Y0168314D01*
X0072538Y0168283D01*
X0072470Y0168255D01*
X0072400Y0168230D01*
X0072329Y0168210D01*
X0072257Y0168193D01*
X0072184Y0168180D01*
X0072110Y0168171D01*
X0072036Y0168166D01*
X0071963Y0168165D01*
X0071889Y0168168D01*
X0071815Y0168175D01*
X0071742Y0168186D01*
X0071669Y0168201D01*
X0071598Y0168219D01*
X0071527Y0168242D01*
X0071458Y0168268D01*
X0071390Y0168298D01*
X0071324Y0168332D01*
X0071260Y0168369D01*
X0071198Y0168409D01*
X0071138Y0168453D01*
X0071081Y0168499D01*
X0071026Y0168549D01*
X0070974Y0168602D01*
X0070925Y0168657D01*
X0070879Y0168715D01*
X0070837Y0168776D01*
X0070797Y0168838D01*
X0070761Y0168903D01*
X0070728Y0168969D01*
X0070699Y0169037D01*
X0070674Y0169107D01*
X0070652Y0169177D01*
X0070635Y0169249D01*
X0070621Y0169322D01*
X0070611Y0169395D01*
X0070605Y0169469D01*
X0070603Y0169543D01*
X0065681Y0164819D02*
X0063319Y0164819D01*
X0063242Y0164807D01*
X0063166Y0164792D01*
X0063090Y0164773D01*
X0063016Y0164750D01*
X0062942Y0164724D01*
X0062871Y0164694D01*
X0062800Y0164660D01*
X0062732Y0164624D01*
X0062665Y0164583D01*
X0062600Y0164540D01*
X0062538Y0164494D01*
X0062477Y0164444D01*
X0062420Y0164392D01*
X0062365Y0164336D01*
X0062313Y0164279D01*
X0062263Y0164218D01*
X0062217Y0164156D01*
X0062174Y0164091D01*
X0062134Y0164024D01*
X0062097Y0163955D01*
X0062064Y0163885D01*
X0062034Y0163813D01*
X0062008Y0163739D01*
X0061986Y0163665D01*
X0061967Y0163589D01*
X0061952Y0163513D01*
X0061941Y0163436D01*
X0061933Y0163358D01*
X0061929Y0163280D01*
X0061930Y0163202D01*
X0061933Y0163125D01*
X0061941Y0163047D01*
X0061941Y0163048D02*
X0061933Y0162970D01*
X0061930Y0162893D01*
X0061929Y0162815D01*
X0061933Y0162737D01*
X0061941Y0162659D01*
X0061952Y0162582D01*
X0061967Y0162506D01*
X0061986Y0162430D01*
X0062008Y0162356D01*
X0062034Y0162282D01*
X0062064Y0162210D01*
X0062097Y0162140D01*
X0062134Y0162071D01*
X0062174Y0162004D01*
X0062217Y0161939D01*
X0062263Y0161877D01*
X0062313Y0161816D01*
X0062365Y0161759D01*
X0062420Y0161703D01*
X0062477Y0161651D01*
X0062538Y0161601D01*
X0062600Y0161555D01*
X0062665Y0161512D01*
X0062732Y0161471D01*
X0062800Y0161435D01*
X0062871Y0161401D01*
X0062942Y0161371D01*
X0063016Y0161345D01*
X0063090Y0161322D01*
X0063166Y0161303D01*
X0063242Y0161288D01*
X0063319Y0161276D01*
X0065681Y0161276D01*
X0065682Y0161276D02*
X0065759Y0161288D01*
X0065835Y0161303D01*
X0065911Y0161322D01*
X0065985Y0161345D01*
X0066059Y0161371D01*
X0066130Y0161401D01*
X0066201Y0161435D01*
X0066269Y0161471D01*
X0066336Y0161512D01*
X0066401Y0161555D01*
X0066463Y0161601D01*
X0066524Y0161651D01*
X0066581Y0161703D01*
X0066636Y0161759D01*
X0066688Y0161816D01*
X0066738Y0161877D01*
X0066784Y0161939D01*
X0066827Y0162004D01*
X0066867Y0162071D01*
X0066904Y0162140D01*
X0066937Y0162210D01*
X0066967Y0162282D01*
X0066993Y0162356D01*
X0067015Y0162430D01*
X0067034Y0162506D01*
X0067049Y0162582D01*
X0067060Y0162659D01*
X0067068Y0162737D01*
X0067072Y0162815D01*
X0067071Y0162893D01*
X0067068Y0162970D01*
X0067060Y0163048D01*
X0067060Y0163047D02*
X0067068Y0163125D01*
X0067071Y0163202D01*
X0067072Y0163280D01*
X0067068Y0163358D01*
X0067060Y0163436D01*
X0067049Y0163513D01*
X0067034Y0163589D01*
X0067015Y0163665D01*
X0066993Y0163739D01*
X0066967Y0163813D01*
X0066937Y0163885D01*
X0066904Y0163955D01*
X0066867Y0164024D01*
X0066827Y0164091D01*
X0066784Y0164156D01*
X0066738Y0164218D01*
X0066688Y0164279D01*
X0066636Y0164336D01*
X0066581Y0164392D01*
X0066524Y0164444D01*
X0066463Y0164494D01*
X0066401Y0164540D01*
X0066336Y0164583D01*
X0066269Y0164624D01*
X0066201Y0164660D01*
X0066130Y0164694D01*
X0066059Y0164724D01*
X0065985Y0164750D01*
X0065911Y0164773D01*
X0065835Y0164792D01*
X0065759Y0164807D01*
X0065682Y0164819D01*
X0070603Y0184898D02*
X0070605Y0184972D01*
X0070611Y0185046D01*
X0070621Y0185119D01*
X0070635Y0185192D01*
X0070652Y0185264D01*
X0070674Y0185334D01*
X0070699Y0185404D01*
X0070728Y0185472D01*
X0070761Y0185538D01*
X0070797Y0185603D01*
X0070837Y0185665D01*
X0070879Y0185726D01*
X0070925Y0185784D01*
X0070974Y0185839D01*
X0071026Y0185892D01*
X0071081Y0185942D01*
X0071138Y0185988D01*
X0071198Y0186032D01*
X0071260Y0186072D01*
X0071324Y0186109D01*
X0071390Y0186143D01*
X0071458Y0186173D01*
X0071527Y0186199D01*
X0071598Y0186222D01*
X0071669Y0186240D01*
X0071742Y0186255D01*
X0071815Y0186266D01*
X0071889Y0186273D01*
X0071963Y0186276D01*
X0072036Y0186275D01*
X0072110Y0186270D01*
X0072184Y0186261D01*
X0072257Y0186248D01*
X0072329Y0186231D01*
X0072400Y0186211D01*
X0072470Y0186186D01*
X0072538Y0186158D01*
X0072605Y0186127D01*
X0072670Y0186091D01*
X0072733Y0186053D01*
X0072794Y0186011D01*
X0072853Y0185965D01*
X0072909Y0185917D01*
X0072962Y0185866D01*
X0073012Y0185812D01*
X0073060Y0185755D01*
X0073104Y0185696D01*
X0073146Y0185634D01*
X0073184Y0185571D01*
X0073218Y0185505D01*
X0073249Y0185438D01*
X0073276Y0185369D01*
X0073299Y0185299D01*
X0073319Y0185228D01*
X0073335Y0185155D01*
X0073347Y0185082D01*
X0073355Y0185009D01*
X0073359Y0184935D01*
X0073359Y0184861D01*
X0073355Y0184787D01*
X0073347Y0184714D01*
X0073335Y0184641D01*
X0073319Y0184568D01*
X0073299Y0184497D01*
X0073276Y0184427D01*
X0073249Y0184358D01*
X0073218Y0184291D01*
X0073184Y0184225D01*
X0073146Y0184162D01*
X0073104Y0184100D01*
X0073060Y0184041D01*
X0073012Y0183984D01*
X0072962Y0183930D01*
X0072909Y0183879D01*
X0072853Y0183831D01*
X0072794Y0183785D01*
X0072733Y0183743D01*
X0072670Y0183705D01*
X0072605Y0183669D01*
X0072538Y0183638D01*
X0072470Y0183610D01*
X0072400Y0183585D01*
X0072329Y0183565D01*
X0072257Y0183548D01*
X0072184Y0183535D01*
X0072110Y0183526D01*
X0072036Y0183521D01*
X0071963Y0183520D01*
X0071889Y0183523D01*
X0071815Y0183530D01*
X0071742Y0183541D01*
X0071669Y0183556D01*
X0071598Y0183574D01*
X0071527Y0183597D01*
X0071458Y0183623D01*
X0071390Y0183653D01*
X0071324Y0183687D01*
X0071260Y0183724D01*
X0071198Y0183764D01*
X0071138Y0183808D01*
X0071081Y0183854D01*
X0071026Y0183904D01*
X0070974Y0183957D01*
X0070925Y0184012D01*
X0070879Y0184070D01*
X0070837Y0184131D01*
X0070797Y0184193D01*
X0070761Y0184258D01*
X0070728Y0184324D01*
X0070699Y0184392D01*
X0070674Y0184462D01*
X0070652Y0184532D01*
X0070635Y0184604D01*
X0070621Y0184677D01*
X0070611Y0184750D01*
X0070605Y0184824D01*
X0070603Y0184898D01*
X0065681Y0189622D02*
X0063516Y0189622D01*
X0063442Y0189619D01*
X0063367Y0189620D01*
X0063292Y0189624D01*
X0063217Y0189633D01*
X0063143Y0189645D01*
X0063070Y0189661D01*
X0062997Y0189680D01*
X0062926Y0189703D01*
X0062856Y0189730D01*
X0062787Y0189760D01*
X0062720Y0189794D01*
X0062655Y0189831D01*
X0062592Y0189871D01*
X0062531Y0189914D01*
X0062472Y0189961D01*
X0062416Y0190010D01*
X0062362Y0190062D01*
X0062311Y0190117D01*
X0062262Y0190175D01*
X0062217Y0190234D01*
X0062175Y0190296D01*
X0062136Y0190360D01*
X0062100Y0190426D01*
X0062067Y0190494D01*
X0062038Y0190563D01*
X0062013Y0190634D01*
X0061991Y0190705D01*
X0061973Y0190778D01*
X0061959Y0190852D01*
X0061948Y0190926D01*
X0061941Y0191001D01*
X0061941Y0191000D02*
X0061941Y0191788D01*
X0061941Y0191787D02*
X0061948Y0191862D01*
X0061959Y0191936D01*
X0061973Y0192010D01*
X0061991Y0192083D01*
X0062013Y0192154D01*
X0062038Y0192225D01*
X0062067Y0192294D01*
X0062100Y0192362D01*
X0062136Y0192428D01*
X0062175Y0192492D01*
X0062217Y0192554D01*
X0062262Y0192613D01*
X0062311Y0192671D01*
X0062362Y0192726D01*
X0062416Y0192778D01*
X0062472Y0192827D01*
X0062531Y0192874D01*
X0062592Y0192917D01*
X0062655Y0192957D01*
X0062720Y0192994D01*
X0062787Y0193028D01*
X0062856Y0193058D01*
X0062926Y0193085D01*
X0062997Y0193108D01*
X0063070Y0193127D01*
X0063143Y0193143D01*
X0063217Y0193155D01*
X0063292Y0193164D01*
X0063367Y0193168D01*
X0063442Y0193169D01*
X0063516Y0193166D01*
X0063516Y0193165D02*
X0065681Y0193165D01*
X0065681Y0193166D02*
X0065753Y0193164D01*
X0065825Y0193158D01*
X0065897Y0193149D01*
X0065968Y0193136D01*
X0066038Y0193119D01*
X0066107Y0193099D01*
X0066175Y0193074D01*
X0066241Y0193047D01*
X0066307Y0193016D01*
X0066370Y0192981D01*
X0066432Y0192944D01*
X0066491Y0192903D01*
X0066548Y0192859D01*
X0066603Y0192812D01*
X0066655Y0192762D01*
X0066705Y0192710D01*
X0066752Y0192655D01*
X0066796Y0192598D01*
X0066837Y0192539D01*
X0066874Y0192477D01*
X0066909Y0192414D01*
X0066940Y0192348D01*
X0066967Y0192282D01*
X0066992Y0192214D01*
X0067012Y0192145D01*
X0067029Y0192075D01*
X0067042Y0192004D01*
X0067051Y0191932D01*
X0067057Y0191860D01*
X0067059Y0191788D01*
X0067059Y0191000D01*
X0067057Y0190928D01*
X0067051Y0190856D01*
X0067042Y0190784D01*
X0067029Y0190713D01*
X0067012Y0190643D01*
X0066992Y0190574D01*
X0066967Y0190506D01*
X0066940Y0190440D01*
X0066909Y0190374D01*
X0066874Y0190311D01*
X0066837Y0190249D01*
X0066796Y0190190D01*
X0066752Y0190133D01*
X0066705Y0190078D01*
X0066655Y0190026D01*
X0066603Y0189976D01*
X0066548Y0189929D01*
X0066491Y0189885D01*
X0066432Y0189844D01*
X0066370Y0189807D01*
X0066307Y0189772D01*
X0066241Y0189741D01*
X0066175Y0189714D01*
X0066107Y0189689D01*
X0066038Y0189669D01*
X0065968Y0189652D01*
X0065897Y0189639D01*
X0065825Y0189630D01*
X0065753Y0189624D01*
X0065681Y0189622D01*
D11*
X0157349Y0125500D03*
X0157349Y0115500D03*
X0157349Y0105500D03*
X0157349Y0095500D03*
X0157349Y0085500D03*
X0157349Y0075500D03*
X0157349Y0065500D03*
X0157349Y0055500D03*
X0157349Y0045500D03*
X0157349Y0035500D03*
X0157349Y0025500D03*
X0157349Y0015500D03*
X0187349Y0015500D03*
X0197349Y0015500D03*
X0207349Y0015500D03*
X0217349Y0015500D03*
X0217349Y0025500D03*
X0217349Y0035500D03*
X0217349Y0045500D03*
X0217349Y0055500D03*
X0217349Y0065500D03*
X0217349Y0075500D03*
X0207349Y0080500D03*
X0207349Y0090500D03*
X0217349Y0085500D03*
X0217349Y0095500D03*
X0217349Y0105500D03*
X0217349Y0115500D03*
X0217349Y0125500D03*
X0212349Y0135500D03*
X0202349Y0135500D03*
X0192349Y0135500D03*
X0182349Y0135500D03*
X0172349Y0135500D03*
X0162349Y0135500D03*
D12*
X0103001Y0028319D03*
D13*
X0100976Y0026223D02*
X0100976Y0018673D01*
X0100976Y0026223D02*
X0105026Y0026223D01*
X0105026Y0018673D01*
X0100976Y0018673D01*
X0100976Y0019122D02*
X0105026Y0019122D01*
X0105026Y0019571D02*
X0100976Y0019571D01*
X0100976Y0020020D02*
X0105026Y0020020D01*
X0105026Y0020469D02*
X0100976Y0020469D01*
X0100976Y0020918D02*
X0105026Y0020918D01*
X0105026Y0021367D02*
X0100976Y0021367D01*
X0100976Y0021816D02*
X0105026Y0021816D01*
X0105026Y0022265D02*
X0100976Y0022265D01*
X0100976Y0022714D02*
X0105026Y0022714D01*
X0105026Y0023163D02*
X0100976Y0023163D01*
X0100976Y0023612D02*
X0105026Y0023612D01*
X0105026Y0024061D02*
X0100976Y0024061D01*
X0100976Y0024510D02*
X0105026Y0024510D01*
X0105026Y0024959D02*
X0100976Y0024959D01*
X0100976Y0025408D02*
X0105026Y0025408D01*
X0105026Y0025857D02*
X0100976Y0025857D01*
D14*
X0093001Y0017569D03*
X0113001Y0017569D03*
D15*
X0064500Y0163047D03*
X0064500Y0191394D03*
D16*
X0075524Y0190213D02*
X0075524Y0195362D01*
X0075524Y0164228D02*
X0075524Y0159079D01*
D17*
X0071342Y0159438D02*
X0071029Y0159438D01*
X0071342Y0158247D02*
X0071979Y0156710D01*
X0073155Y0155534D01*
X0074692Y0154897D01*
X0076356Y0154897D01*
X0077893Y0155534D01*
X0079069Y0156710D01*
X0079706Y0158247D01*
X0079706Y0165060D01*
X0079069Y0166597D01*
X0077893Y0167774D01*
X0076356Y0168410D01*
X0074951Y0168410D01*
X0075159Y0168911D01*
X0075159Y0170176D01*
X0074675Y0171344D01*
X0073781Y0172238D01*
X0072613Y0172721D01*
X0071349Y0172721D01*
X0070181Y0172238D01*
X0069287Y0171344D01*
X0068803Y0170176D01*
X0068803Y0169576D01*
X0058913Y0169576D01*
X0057972Y0168634D01*
X0057972Y0157460D01*
X0058913Y0156519D01*
X0070087Y0156519D01*
X0071029Y0157460D01*
X0071029Y0166498D01*
X0071349Y0166365D01*
X0071883Y0166365D01*
X0071342Y0165060D01*
X0071342Y0158247D01*
X0071511Y0157840D02*
X0071029Y0157840D01*
X0072448Y0156241D02*
X0053924Y0156241D01*
X0053924Y0154642D02*
X0105581Y0154642D01*
X0105581Y0153044D02*
X0053924Y0153044D01*
X0053924Y0151445D02*
X0105581Y0151445D01*
X0105581Y0149847D02*
X0053924Y0149847D01*
X0053924Y0148248D02*
X0105581Y0148248D01*
X0105581Y0146650D02*
X0053924Y0146650D01*
X0053924Y0145051D02*
X0105581Y0145051D01*
X0105581Y0143453D02*
X0053924Y0143453D01*
X0053924Y0141854D02*
X0105581Y0141854D01*
X0105581Y0140256D02*
X0053924Y0140256D01*
X0053924Y0138657D02*
X0105362Y0138657D01*
X0105581Y0138876D02*
X0101137Y0134433D01*
X0100646Y0134433D01*
X0099401Y0133917D01*
X0098448Y0132964D01*
X0097932Y0131719D01*
X0097932Y0130371D01*
X0098448Y0129125D01*
X0099401Y0128172D01*
X0100646Y0127657D01*
X0101994Y0127657D01*
X0103239Y0128172D01*
X0104192Y0129125D01*
X0104708Y0130371D01*
X0104708Y0131195D01*
X0110029Y0136516D01*
X0110395Y0137401D01*
X0110395Y0169835D01*
X0110860Y0170300D01*
X0111376Y0171546D01*
X0111376Y0172894D01*
X0110860Y0174139D01*
X0109907Y0175092D01*
X0108662Y0175608D01*
X0107314Y0175608D01*
X0106069Y0175092D01*
X0105116Y0174139D01*
X0104600Y0172894D01*
X0104600Y0171546D01*
X0105116Y0170300D01*
X0105581Y0169835D01*
X0105581Y0138876D01*
X0103763Y0137059D02*
X0053924Y0137059D01*
X0053924Y0135460D02*
X0102165Y0135460D01*
X0099345Y0133862D02*
X0053924Y0133862D01*
X0053924Y0132263D02*
X0098157Y0132263D01*
X0097932Y0130665D02*
X0053924Y0130665D01*
X0053924Y0129066D02*
X0098507Y0129066D01*
X0101153Y0131045D02*
X0101320Y0131045D01*
X0101153Y0131045D02*
X0107988Y0137879D01*
X0107988Y0172220D01*
X0104600Y0172226D02*
X0073792Y0172226D01*
X0074971Y0170628D02*
X0104980Y0170628D01*
X0105581Y0169029D02*
X0075159Y0169029D01*
X0078236Y0167431D02*
X0105581Y0167431D01*
X0105581Y0165832D02*
X0079386Y0165832D01*
X0079706Y0164234D02*
X0105581Y0164234D01*
X0105581Y0162635D02*
X0079706Y0162635D01*
X0079706Y0161037D02*
X0105581Y0161037D01*
X0105581Y0159438D02*
X0079706Y0159438D01*
X0079537Y0157840D02*
X0105581Y0157840D01*
X0105581Y0156241D02*
X0078600Y0156241D01*
X0071342Y0161037D02*
X0071029Y0161037D01*
X0071029Y0162635D02*
X0071342Y0162635D01*
X0071342Y0164234D02*
X0071029Y0164234D01*
X0071029Y0165832D02*
X0071662Y0165832D01*
X0068990Y0170628D02*
X0053924Y0170628D01*
X0053924Y0172226D02*
X0070169Y0172226D01*
X0071349Y0181720D02*
X0070181Y0182204D01*
X0069287Y0183098D01*
X0068803Y0184266D01*
X0068803Y0184865D01*
X0058913Y0184865D01*
X0057972Y0185807D01*
X0057972Y0196981D01*
X0058913Y0197922D01*
X0070087Y0197922D01*
X0071029Y0196981D01*
X0071029Y0187943D01*
X0071349Y0188076D01*
X0071883Y0188076D01*
X0071342Y0189381D01*
X0071342Y0196194D01*
X0071979Y0197731D01*
X0072244Y0197997D01*
X0053924Y0197997D01*
X0053924Y0090179D01*
X0072291Y0086735D01*
X0072870Y0086735D01*
X0073003Y0086602D01*
X0073189Y0086567D01*
X0073515Y0086090D01*
X0073924Y0085681D01*
X0073924Y0085492D01*
X0074031Y0085337D01*
X0073924Y0084768D01*
X0073924Y0059736D01*
X0073926Y0059734D01*
X0073901Y0033626D01*
X0073952Y0032316D01*
X0073899Y0032259D01*
X0073899Y0032238D01*
X0073643Y0031982D01*
X0072939Y0031221D01*
X0072878Y0031219D01*
X0072844Y0031185D01*
X0072019Y0031185D01*
X0060508Y0030735D01*
X0060507Y0030735D01*
X0059756Y0030706D01*
X0059019Y0030677D01*
X0059018Y0030678D01*
X0048602Y0030281D01*
X0048597Y0030143D01*
X0048693Y0029598D01*
X0048569Y0029421D01*
X0048561Y0029206D01*
X0048156Y0028829D01*
X0047838Y0028376D01*
X0047626Y0028339D01*
X0047468Y0028192D01*
X0046915Y0028213D01*
X0026616Y0024623D01*
X0015952Y0022597D01*
X0046849Y0017708D01*
X0047453Y0017708D01*
X0047567Y0017594D01*
X0047725Y0017569D01*
X0048080Y0017080D01*
X0048507Y0016653D01*
X0048507Y0016493D01*
X0048602Y0016363D01*
X0048507Y0015766D01*
X0048507Y0015416D01*
X0060130Y0014958D01*
X0060130Y0014958D01*
X0074937Y0014374D01*
X0075647Y0014374D01*
X0075677Y0014345D01*
X0075718Y0014344D01*
X0076148Y0013878D01*
X0076148Y0015144D01*
X0074926Y0015144D01*
X0072094Y0016317D01*
X0069927Y0018485D01*
X0068754Y0021317D01*
X0068754Y0024383D01*
X0069927Y0027215D01*
X0072094Y0029382D01*
X0074926Y0030555D01*
X0076148Y0030555D01*
X0076148Y0048195D01*
X0119242Y0048195D01*
X0118926Y0048957D01*
X0118926Y0050419D01*
X0119485Y0051769D01*
X0120519Y0052803D01*
X0121869Y0053362D01*
X0123153Y0053362D01*
X0137498Y0067707D01*
X0153311Y0067707D01*
X0153470Y0068092D01*
X0154757Y0069379D01*
X0156439Y0070076D01*
X0158259Y0070076D01*
X0159941Y0069379D01*
X0161228Y0068092D01*
X0161925Y0066410D01*
X0161925Y0064590D01*
X0161228Y0062908D01*
X0159941Y0061621D01*
X0158259Y0060924D01*
X0156439Y0060924D01*
X0154757Y0061621D01*
X0153470Y0062908D01*
X0153311Y0063293D01*
X0139326Y0063293D01*
X0126274Y0050241D01*
X0126274Y0048957D01*
X0125715Y0047607D01*
X0124681Y0046573D01*
X0123991Y0046287D01*
X0123991Y0007942D01*
X0168554Y0008198D01*
X0226574Y0008531D01*
X0226574Y0197997D01*
X0078804Y0197997D01*
X0079069Y0197731D01*
X0079706Y0196194D01*
X0079706Y0189381D01*
X0079069Y0187844D01*
X0077893Y0186667D01*
X0076356Y0186031D01*
X0074951Y0186031D01*
X0075159Y0185530D01*
X0075159Y0184266D01*
X0074675Y0183098D01*
X0073781Y0182204D01*
X0072613Y0181720D01*
X0071349Y0181720D01*
X0071113Y0181817D02*
X0053924Y0181817D01*
X0053924Y0180219D02*
X0226574Y0180219D01*
X0226574Y0181817D02*
X0072848Y0181817D01*
X0074807Y0183416D02*
X0226574Y0183416D01*
X0226574Y0185014D02*
X0075159Y0185014D01*
X0077761Y0186613D02*
X0226574Y0186613D01*
X0226574Y0188211D02*
X0079221Y0188211D01*
X0079706Y0189810D02*
X0226574Y0189810D01*
X0226574Y0191408D02*
X0079706Y0191408D01*
X0079706Y0193007D02*
X0226574Y0193007D01*
X0226574Y0194605D02*
X0079706Y0194605D01*
X0079702Y0196204D02*
X0226574Y0196204D01*
X0226574Y0197802D02*
X0078998Y0197802D01*
X0072050Y0197802D02*
X0070207Y0197802D01*
X0071029Y0196204D02*
X0071346Y0196204D01*
X0071342Y0194605D02*
X0071029Y0194605D01*
X0071029Y0193007D02*
X0071342Y0193007D01*
X0071342Y0191408D02*
X0071029Y0191408D01*
X0071029Y0189810D02*
X0071342Y0189810D01*
X0071029Y0188211D02*
X0071827Y0188211D01*
X0069155Y0183416D02*
X0053924Y0183416D01*
X0053924Y0185014D02*
X0058765Y0185014D01*
X0057972Y0186613D02*
X0053924Y0186613D01*
X0053924Y0188211D02*
X0057972Y0188211D01*
X0057972Y0189810D02*
X0053924Y0189810D01*
X0053924Y0191408D02*
X0057972Y0191408D01*
X0057972Y0193007D02*
X0053924Y0193007D01*
X0053924Y0194605D02*
X0057972Y0194605D01*
X0057972Y0196204D02*
X0053924Y0196204D01*
X0053924Y0197802D02*
X0058794Y0197802D01*
X0053924Y0178620D02*
X0226574Y0178620D01*
X0226574Y0177022D02*
X0053924Y0177022D01*
X0053924Y0175423D02*
X0106868Y0175423D01*
X0109108Y0175423D02*
X0226574Y0175423D01*
X0226574Y0173825D02*
X0110990Y0173825D01*
X0111376Y0172226D02*
X0226574Y0172226D01*
X0226574Y0170628D02*
X0110996Y0170628D01*
X0110395Y0169029D02*
X0226574Y0169029D01*
X0226574Y0167431D02*
X0110395Y0167431D01*
X0110395Y0165832D02*
X0226574Y0165832D01*
X0226574Y0164234D02*
X0110395Y0164234D01*
X0110395Y0162635D02*
X0226574Y0162635D01*
X0226574Y0161037D02*
X0110395Y0161037D01*
X0110395Y0159438D02*
X0226574Y0159438D01*
X0226574Y0157840D02*
X0110395Y0157840D01*
X0110395Y0156241D02*
X0226574Y0156241D01*
X0226574Y0154642D02*
X0223204Y0154642D01*
X0222810Y0155036D02*
X0219978Y0156210D01*
X0216912Y0156210D01*
X0214080Y0155036D01*
X0211913Y0152869D01*
X0210739Y0150037D01*
X0210739Y0146971D01*
X0211913Y0144139D01*
X0214080Y0141972D01*
X0216912Y0140798D01*
X0219978Y0140798D01*
X0222810Y0141972D01*
X0224977Y0144139D01*
X0226151Y0146971D01*
X0226151Y0150037D01*
X0224977Y0152869D01*
X0222810Y0155036D01*
X0224802Y0153044D02*
X0226574Y0153044D01*
X0226574Y0151445D02*
X0225567Y0151445D01*
X0226151Y0149847D02*
X0226574Y0149847D01*
X0226574Y0148248D02*
X0226151Y0148248D01*
X0226017Y0146650D02*
X0226574Y0146650D01*
X0226574Y0145051D02*
X0225355Y0145051D01*
X0224291Y0143453D02*
X0226574Y0143453D01*
X0226574Y0141854D02*
X0222527Y0141854D01*
X0226574Y0140256D02*
X0192804Y0140256D01*
X0192724Y0140268D02*
X0192533Y0140268D01*
X0192533Y0135684D01*
X0192165Y0135684D01*
X0192165Y0135316D01*
X0187581Y0135316D01*
X0187581Y0135125D01*
X0187698Y0134383D01*
X0187930Y0133670D01*
X0188271Y0133001D01*
X0188712Y0132394D01*
X0189243Y0131863D01*
X0189850Y0131422D01*
X0190519Y0131081D01*
X0191232Y0130849D01*
X0191974Y0130731D01*
X0192165Y0130731D01*
X0192165Y0135316D01*
X0192533Y0135316D01*
X0192533Y0130731D01*
X0192724Y0130731D01*
X0193466Y0130849D01*
X0194180Y0131081D01*
X0194848Y0131422D01*
X0195456Y0131863D01*
X0195986Y0132394D01*
X0196427Y0133001D01*
X0196768Y0133670D01*
X0197000Y0134383D01*
X0197118Y0135125D01*
X0197118Y0135316D01*
X0192533Y0135316D01*
X0192533Y0135684D01*
X0197118Y0135684D01*
X0197118Y0135875D01*
X0197000Y0136617D01*
X0196768Y0137330D01*
X0196427Y0137999D01*
X0195986Y0138606D01*
X0195456Y0139137D01*
X0194848Y0139578D01*
X0194180Y0139919D01*
X0193466Y0140151D01*
X0192724Y0140268D01*
X0192533Y0140256D02*
X0192165Y0140256D01*
X0192165Y0140268D02*
X0191974Y0140268D01*
X0191232Y0140151D01*
X0190519Y0139919D01*
X0189850Y0139578D01*
X0189243Y0139137D01*
X0188712Y0138606D01*
X0188271Y0137999D01*
X0187930Y0137330D01*
X0187698Y0136617D01*
X0187581Y0135875D01*
X0187581Y0135684D01*
X0192165Y0135684D01*
X0192165Y0140268D01*
X0191894Y0140256D02*
X0110395Y0140256D01*
X0110395Y0141854D02*
X0214363Y0141854D01*
X0213259Y0140076D02*
X0211439Y0140076D01*
X0209757Y0139379D01*
X0208470Y0138092D01*
X0207773Y0136410D01*
X0207773Y0134590D01*
X0208470Y0132908D01*
X0209757Y0131621D01*
X0211439Y0130924D01*
X0213259Y0130924D01*
X0214941Y0131621D01*
X0216228Y0132908D01*
X0216925Y0134590D01*
X0216925Y0136410D01*
X0216228Y0138092D01*
X0214941Y0139379D01*
X0213259Y0140076D01*
X0215663Y0138657D02*
X0226574Y0138657D01*
X0226574Y0137059D02*
X0216656Y0137059D01*
X0216925Y0135460D02*
X0226574Y0135460D01*
X0226574Y0133862D02*
X0216623Y0133862D01*
X0215583Y0132263D02*
X0226574Y0132263D01*
X0226574Y0130665D02*
X0104708Y0130665D01*
X0104133Y0129066D02*
X0154445Y0129066D01*
X0154757Y0129379D02*
X0153470Y0128092D01*
X0152773Y0126410D01*
X0152773Y0124590D01*
X0153470Y0122908D01*
X0154757Y0121621D01*
X0156439Y0120924D01*
X0158259Y0120924D01*
X0159941Y0121621D01*
X0161228Y0122908D01*
X0161925Y0124590D01*
X0161925Y0126410D01*
X0161228Y0128092D01*
X0159941Y0129379D01*
X0158259Y0130076D01*
X0156439Y0130076D01*
X0154757Y0129379D01*
X0153212Y0127468D02*
X0053924Y0127468D01*
X0053924Y0125869D02*
X0152773Y0125869D01*
X0152906Y0124271D02*
X0053924Y0124271D01*
X0053924Y0122672D02*
X0153706Y0122672D01*
X0156078Y0121074D02*
X0053924Y0121074D01*
X0053924Y0119475D02*
X0154990Y0119475D01*
X0154757Y0119379D02*
X0153470Y0118092D01*
X0152773Y0116410D01*
X0152773Y0114590D01*
X0153470Y0112908D01*
X0154757Y0111621D01*
X0156439Y0110924D01*
X0158259Y0110924D01*
X0159941Y0111621D01*
X0161228Y0112908D01*
X0161925Y0114590D01*
X0161925Y0116410D01*
X0161228Y0118092D01*
X0159941Y0119379D01*
X0158259Y0120076D01*
X0156439Y0120076D01*
X0154757Y0119379D01*
X0153381Y0117877D02*
X0053924Y0117877D01*
X0053924Y0116278D02*
X0152773Y0116278D01*
X0152773Y0114680D02*
X0053924Y0114680D01*
X0053924Y0113081D02*
X0153398Y0113081D01*
X0155091Y0111483D02*
X0053924Y0111483D01*
X0053924Y0109884D02*
X0155977Y0109884D01*
X0156439Y0110076D02*
X0154757Y0109379D01*
X0153470Y0108092D01*
X0152773Y0106410D01*
X0152773Y0104590D01*
X0153470Y0102908D01*
X0154757Y0101621D01*
X0156439Y0100924D01*
X0158259Y0100924D01*
X0159941Y0101621D01*
X0161228Y0102908D01*
X0161925Y0104590D01*
X0161925Y0106410D01*
X0161228Y0108092D01*
X0159941Y0109379D01*
X0158259Y0110076D01*
X0156439Y0110076D01*
X0158721Y0109884D02*
X0215977Y0109884D01*
X0216439Y0110076D02*
X0214757Y0109379D01*
X0213470Y0108092D01*
X0212773Y0106410D01*
X0212773Y0104590D01*
X0213470Y0102908D01*
X0214757Y0101621D01*
X0216439Y0100924D01*
X0218259Y0100924D01*
X0219941Y0101621D01*
X0221228Y0102908D01*
X0221925Y0104590D01*
X0221925Y0106410D01*
X0221228Y0108092D01*
X0219941Y0109379D01*
X0218259Y0110076D01*
X0216439Y0110076D01*
X0216439Y0110924D02*
X0218259Y0110924D01*
X0219941Y0111621D01*
X0221228Y0112908D01*
X0221925Y0114590D01*
X0221925Y0116410D01*
X0221228Y0118092D01*
X0219941Y0119379D01*
X0218259Y0120076D01*
X0216439Y0120076D01*
X0214757Y0119379D01*
X0213470Y0118092D01*
X0212773Y0116410D01*
X0212773Y0114590D01*
X0213470Y0112908D01*
X0214757Y0111621D01*
X0216439Y0110924D01*
X0215091Y0111483D02*
X0159607Y0111483D01*
X0161300Y0113081D02*
X0213398Y0113081D01*
X0212773Y0114680D02*
X0161925Y0114680D01*
X0161925Y0116278D02*
X0212773Y0116278D01*
X0213381Y0117877D02*
X0161317Y0117877D01*
X0159709Y0119475D02*
X0214990Y0119475D01*
X0216078Y0121074D02*
X0158620Y0121074D01*
X0160992Y0122672D02*
X0213706Y0122672D01*
X0213470Y0122908D02*
X0212773Y0124590D01*
X0212773Y0126410D01*
X0213470Y0128092D01*
X0214757Y0129379D01*
X0216439Y0130076D01*
X0218259Y0130076D01*
X0219941Y0129379D01*
X0221228Y0128092D01*
X0221925Y0126410D01*
X0221925Y0124590D01*
X0221228Y0122908D01*
X0219941Y0121621D01*
X0218259Y0120924D01*
X0216439Y0120924D01*
X0214757Y0121621D01*
X0213470Y0122908D01*
X0212906Y0124271D02*
X0161792Y0124271D01*
X0161925Y0125869D02*
X0212773Y0125869D01*
X0213212Y0127468D02*
X0161487Y0127468D01*
X0160254Y0129066D02*
X0214445Y0129066D01*
X0220254Y0129066D02*
X0226574Y0129066D01*
X0226574Y0127468D02*
X0221487Y0127468D01*
X0221925Y0125869D02*
X0226574Y0125869D01*
X0226574Y0124271D02*
X0221792Y0124271D01*
X0220992Y0122672D02*
X0226574Y0122672D01*
X0226574Y0121074D02*
X0218620Y0121074D01*
X0219709Y0119475D02*
X0226574Y0119475D01*
X0226574Y0117877D02*
X0221317Y0117877D01*
X0221925Y0116278D02*
X0226574Y0116278D01*
X0226574Y0114680D02*
X0221925Y0114680D01*
X0221300Y0113081D02*
X0226574Y0113081D01*
X0226574Y0111483D02*
X0219607Y0111483D01*
X0218721Y0109884D02*
X0226574Y0109884D01*
X0226574Y0108286D02*
X0221034Y0108286D01*
X0221810Y0106687D02*
X0226574Y0106687D01*
X0226574Y0105089D02*
X0221925Y0105089D01*
X0221469Y0103490D02*
X0226574Y0103490D01*
X0226574Y0101892D02*
X0220212Y0101892D01*
X0219180Y0099919D02*
X0218466Y0100151D01*
X0217724Y0100268D01*
X0217533Y0100268D01*
X0217533Y0095684D01*
X0217165Y0095684D01*
X0217165Y0095316D01*
X0217533Y0095316D01*
X0217533Y0090731D01*
X0217724Y0090731D01*
X0218466Y0090849D01*
X0219180Y0091081D01*
X0219848Y0091422D01*
X0220456Y0091863D01*
X0220986Y0092394D01*
X0221427Y0093001D01*
X0221768Y0093670D01*
X0222000Y0094383D01*
X0222118Y0095125D01*
X0222118Y0095316D01*
X0217533Y0095316D01*
X0217533Y0095684D01*
X0222118Y0095684D01*
X0222118Y0095875D01*
X0222000Y0096617D01*
X0221768Y0097330D01*
X0221427Y0097999D01*
X0220986Y0098606D01*
X0220456Y0099137D01*
X0219848Y0099578D01*
X0219180Y0099919D01*
X0217165Y0100268D02*
X0216974Y0100268D01*
X0216232Y0100151D01*
X0215519Y0099919D01*
X0214850Y0099578D01*
X0214243Y0099137D01*
X0213712Y0098606D01*
X0213271Y0097999D01*
X0212930Y0097330D01*
X0212698Y0096617D01*
X0212581Y0095875D01*
X0212581Y0095684D01*
X0217165Y0095684D01*
X0217165Y0100268D01*
X0217165Y0098695D02*
X0217533Y0098695D01*
X0217533Y0097096D02*
X0217165Y0097096D01*
X0217165Y0095498D02*
X0161925Y0095498D01*
X0161925Y0094590D02*
X0161925Y0096410D01*
X0161228Y0098092D01*
X0159941Y0099379D01*
X0158259Y0100076D01*
X0156439Y0100076D01*
X0154757Y0099379D01*
X0153470Y0098092D01*
X0152773Y0096410D01*
X0152773Y0094590D01*
X0153470Y0092908D01*
X0153661Y0092717D01*
X0110266Y0092717D01*
X0109904Y0093591D01*
X0108871Y0094624D01*
X0107520Y0095184D01*
X0106059Y0095184D01*
X0104708Y0094624D01*
X0103675Y0093591D01*
X0103115Y0092241D01*
X0103115Y0090779D01*
X0103675Y0089429D01*
X0104708Y0088395D01*
X0106059Y0087836D01*
X0107520Y0087836D01*
X0108648Y0088303D01*
X0153681Y0088303D01*
X0153470Y0088092D01*
X0153311Y0087707D01*
X0102798Y0087707D01*
X0102798Y0088574D01*
X0102238Y0089925D01*
X0101205Y0090958D01*
X0099854Y0091517D01*
X0098393Y0091517D01*
X0097042Y0090958D01*
X0096009Y0089925D01*
X0095450Y0088574D01*
X0095450Y0087113D01*
X0096009Y0085762D01*
X0097042Y0084729D01*
X0098393Y0084169D01*
X0099010Y0084169D01*
X0099886Y0083293D01*
X0153311Y0083293D01*
X0153470Y0082908D01*
X0154757Y0081621D01*
X0156439Y0080924D01*
X0158259Y0080924D01*
X0159941Y0081621D01*
X0161228Y0082908D01*
X0161925Y0084590D01*
X0161925Y0085581D01*
X0167909Y0079597D01*
X0167909Y0053933D01*
X0188200Y0033642D01*
X0196086Y0033642D01*
X0212933Y0016795D01*
X0212773Y0016410D01*
X0212773Y0014590D01*
X0213470Y0012908D01*
X0214757Y0011621D01*
X0216439Y0010924D01*
X0218259Y0010924D01*
X0219941Y0011621D01*
X0221228Y0012908D01*
X0221925Y0014590D01*
X0221925Y0016410D01*
X0221228Y0018092D01*
X0219941Y0019379D01*
X0218259Y0020076D01*
X0216439Y0020076D01*
X0216054Y0019916D01*
X0197915Y0038056D01*
X0190029Y0038056D01*
X0185924Y0042161D01*
X0187265Y0041605D01*
X0188844Y0041605D01*
X0190303Y0042210D01*
X0191400Y0043307D01*
X0213305Y0043307D01*
X0213470Y0042908D01*
X0214757Y0041621D01*
X0216439Y0040924D01*
X0218259Y0040924D01*
X0219941Y0041621D01*
X0221228Y0042908D01*
X0221925Y0044590D01*
X0221925Y0046410D01*
X0221228Y0048092D01*
X0219941Y0049379D01*
X0218259Y0050076D01*
X0216439Y0050076D01*
X0214757Y0049379D01*
X0213470Y0048092D01*
X0213317Y0047721D01*
X0191462Y0047721D01*
X0191419Y0047823D01*
X0190303Y0048940D01*
X0188844Y0049544D01*
X0187265Y0049544D01*
X0185806Y0048940D01*
X0184689Y0047823D01*
X0184085Y0046364D01*
X0184085Y0044785D01*
X0184641Y0043444D01*
X0172324Y0055761D01*
X0172324Y0081425D01*
X0171031Y0082718D01*
X0161034Y0092714D01*
X0161228Y0092908D01*
X0161925Y0094590D01*
X0161639Y0093899D02*
X0204277Y0093899D01*
X0204757Y0094379D02*
X0203470Y0093092D01*
X0202773Y0091410D01*
X0202773Y0089590D01*
X0203470Y0087908D01*
X0204757Y0086621D01*
X0206439Y0085924D01*
X0208259Y0085924D01*
X0209941Y0086621D01*
X0211228Y0087908D01*
X0211925Y0089590D01*
X0211925Y0091410D01*
X0211228Y0093092D01*
X0209941Y0094379D01*
X0208259Y0095076D01*
X0206439Y0095076D01*
X0204757Y0094379D01*
X0203142Y0092301D02*
X0161448Y0092301D01*
X0163047Y0090702D02*
X0202773Y0090702D01*
X0202975Y0089104D02*
X0164645Y0089104D01*
X0166244Y0087505D02*
X0203873Y0087505D01*
X0204757Y0084379D02*
X0206439Y0085076D01*
X0208259Y0085076D01*
X0209941Y0084379D01*
X0211228Y0083092D01*
X0211925Y0081410D01*
X0211925Y0079590D01*
X0211228Y0077908D01*
X0209941Y0076621D01*
X0208259Y0075924D01*
X0206439Y0075924D01*
X0204757Y0076621D01*
X0203470Y0077908D01*
X0202773Y0079590D01*
X0202773Y0081410D01*
X0203470Y0083092D01*
X0204757Y0084379D01*
X0204686Y0084308D02*
X0169441Y0084308D01*
X0171039Y0082709D02*
X0203312Y0082709D01*
X0202773Y0081111D02*
X0172324Y0081111D01*
X0172324Y0079512D02*
X0202806Y0079512D01*
X0203468Y0077914D02*
X0172324Y0077914D01*
X0172324Y0076315D02*
X0205495Y0076315D01*
X0209203Y0076315D02*
X0212773Y0076315D01*
X0212773Y0076410D02*
X0212773Y0074590D01*
X0213470Y0072908D01*
X0214757Y0071621D01*
X0216439Y0070924D01*
X0218259Y0070924D01*
X0219941Y0071621D01*
X0221228Y0072908D01*
X0221925Y0074590D01*
X0221925Y0076410D01*
X0221228Y0078092D01*
X0219941Y0079379D01*
X0218259Y0080076D01*
X0216439Y0080076D01*
X0214757Y0079379D01*
X0213470Y0078092D01*
X0212773Y0076410D01*
X0213396Y0077914D02*
X0211230Y0077914D01*
X0211893Y0079512D02*
X0215079Y0079512D01*
X0215988Y0081111D02*
X0211925Y0081111D01*
X0211386Y0082709D02*
X0213669Y0082709D01*
X0213470Y0082908D02*
X0214757Y0081621D01*
X0216439Y0080924D01*
X0218259Y0080924D01*
X0219941Y0081621D01*
X0221228Y0082908D01*
X0221925Y0084590D01*
X0221925Y0086410D01*
X0221228Y0088092D01*
X0219941Y0089379D01*
X0218259Y0090076D01*
X0216439Y0090076D01*
X0214757Y0089379D01*
X0213470Y0088092D01*
X0212773Y0086410D01*
X0212773Y0084590D01*
X0213470Y0082908D01*
X0212890Y0084308D02*
X0210012Y0084308D01*
X0212773Y0085907D02*
X0167842Y0085907D01*
X0164797Y0082709D02*
X0161029Y0082709D01*
X0161808Y0084308D02*
X0163198Y0084308D01*
X0166395Y0081111D02*
X0158710Y0081111D01*
X0158259Y0080076D02*
X0156439Y0080076D01*
X0154757Y0079379D01*
X0153470Y0078092D01*
X0152773Y0076410D01*
X0152773Y0074590D01*
X0153470Y0072908D01*
X0154757Y0071621D01*
X0156439Y0070924D01*
X0158259Y0070924D01*
X0159941Y0071621D01*
X0161228Y0072908D01*
X0161925Y0074590D01*
X0161925Y0076410D01*
X0161228Y0078092D01*
X0159941Y0079379D01*
X0158259Y0080076D01*
X0159619Y0079512D02*
X0167909Y0079512D01*
X0167909Y0077914D02*
X0161302Y0077914D01*
X0161925Y0076315D02*
X0167909Y0076315D01*
X0167909Y0074717D02*
X0161925Y0074717D01*
X0161315Y0073118D02*
X0167909Y0073118D01*
X0167909Y0071520D02*
X0159697Y0071520D01*
X0158631Y0069921D02*
X0167909Y0069921D01*
X0167909Y0068323D02*
X0160997Y0068323D01*
X0161794Y0066724D02*
X0167909Y0066724D01*
X0167909Y0065126D02*
X0161925Y0065126D01*
X0161485Y0063527D02*
X0167909Y0063527D01*
X0167909Y0061929D02*
X0160249Y0061929D01*
X0159941Y0059379D02*
X0158259Y0060076D01*
X0156439Y0060076D01*
X0154757Y0059379D01*
X0153470Y0058092D01*
X0152773Y0056410D01*
X0152773Y0054590D01*
X0153470Y0052908D01*
X0154757Y0051621D01*
X0156439Y0050924D01*
X0158259Y0050924D01*
X0159941Y0051621D01*
X0161228Y0052908D01*
X0161925Y0054590D01*
X0161925Y0056410D01*
X0161228Y0058092D01*
X0159941Y0059379D01*
X0160588Y0058732D02*
X0167909Y0058732D01*
X0167909Y0060330D02*
X0136364Y0060330D01*
X0134765Y0058732D02*
X0154110Y0058732D01*
X0153073Y0057133D02*
X0133167Y0057133D01*
X0131568Y0055535D02*
X0152773Y0055535D01*
X0153044Y0053936D02*
X0129970Y0053936D01*
X0128371Y0052338D02*
X0154040Y0052338D01*
X0154757Y0049379D02*
X0156439Y0050076D01*
X0158259Y0050076D01*
X0159941Y0049379D01*
X0161228Y0048092D01*
X0161925Y0046410D01*
X0161925Y0044590D01*
X0161228Y0042908D01*
X0159941Y0041621D01*
X0158259Y0040924D01*
X0156439Y0040924D01*
X0154757Y0041621D01*
X0153470Y0042908D01*
X0152773Y0044590D01*
X0152773Y0046410D01*
X0153470Y0048092D01*
X0154757Y0049379D01*
X0154519Y0049141D02*
X0126274Y0049141D01*
X0126773Y0050739D02*
X0171103Y0050739D01*
X0172701Y0049141D02*
X0160179Y0049141D01*
X0161456Y0047542D02*
X0174300Y0047542D01*
X0175898Y0045944D02*
X0161925Y0045944D01*
X0161823Y0044345D02*
X0177497Y0044345D01*
X0179095Y0042747D02*
X0161067Y0042747D01*
X0158799Y0041148D02*
X0180694Y0041148D01*
X0182292Y0039550D02*
X0159529Y0039550D01*
X0159941Y0039379D02*
X0158259Y0040076D01*
X0156439Y0040076D01*
X0154757Y0039379D01*
X0153470Y0038092D01*
X0152773Y0036410D01*
X0152773Y0034590D01*
X0153470Y0032908D01*
X0154757Y0031621D01*
X0156439Y0030924D01*
X0158259Y0030924D01*
X0159941Y0031621D01*
X0161228Y0032908D01*
X0161925Y0034590D01*
X0161925Y0036410D01*
X0161228Y0038092D01*
X0159941Y0039379D01*
X0161286Y0037951D02*
X0183891Y0037951D01*
X0185489Y0036353D02*
X0161925Y0036353D01*
X0161925Y0034754D02*
X0187088Y0034754D01*
X0188535Y0039550D02*
X0215169Y0039550D01*
X0214757Y0039379D02*
X0213470Y0038092D01*
X0212773Y0036410D01*
X0212773Y0034590D01*
X0213470Y0032908D01*
X0214757Y0031621D01*
X0216439Y0030924D01*
X0218259Y0030924D01*
X0219941Y0031621D01*
X0221228Y0032908D01*
X0221925Y0034590D01*
X0221925Y0036410D01*
X0221228Y0038092D01*
X0219941Y0039379D01*
X0218259Y0040076D01*
X0216439Y0040076D01*
X0214757Y0039379D01*
X0213412Y0037951D02*
X0198019Y0037951D01*
X0199618Y0036353D02*
X0212773Y0036353D01*
X0212773Y0034754D02*
X0201216Y0034754D01*
X0202815Y0033156D02*
X0213368Y0033156D01*
X0214911Y0031557D02*
X0204413Y0031557D01*
X0206012Y0029959D02*
X0216157Y0029959D01*
X0216439Y0030076D02*
X0214757Y0029379D01*
X0213470Y0028092D01*
X0212773Y0026410D01*
X0212773Y0024590D01*
X0213470Y0022908D01*
X0214757Y0021621D01*
X0216439Y0020924D01*
X0218259Y0020924D01*
X0219941Y0021621D01*
X0221228Y0022908D01*
X0221925Y0024590D01*
X0221925Y0026410D01*
X0221228Y0028092D01*
X0219941Y0029379D01*
X0218259Y0030076D01*
X0216439Y0030076D01*
X0218542Y0029959D02*
X0226574Y0029959D01*
X0226574Y0031557D02*
X0219787Y0031557D01*
X0221331Y0033156D02*
X0226574Y0033156D01*
X0226574Y0034754D02*
X0221925Y0034754D01*
X0221925Y0036353D02*
X0226574Y0036353D01*
X0226574Y0037951D02*
X0221286Y0037951D01*
X0219529Y0039550D02*
X0226574Y0039550D01*
X0226574Y0041148D02*
X0218799Y0041148D01*
X0221067Y0042747D02*
X0226574Y0042747D01*
X0226574Y0044345D02*
X0221823Y0044345D01*
X0221925Y0045944D02*
X0226574Y0045944D01*
X0226574Y0047542D02*
X0221456Y0047542D01*
X0220179Y0049141D02*
X0226574Y0049141D01*
X0226574Y0050739D02*
X0177345Y0050739D01*
X0178944Y0049141D02*
X0186292Y0049141D01*
X0184573Y0047542D02*
X0180542Y0047542D01*
X0182141Y0045944D02*
X0184085Y0045944D01*
X0184267Y0044345D02*
X0183739Y0044345D01*
X0186936Y0041148D02*
X0215899Y0041148D01*
X0213631Y0042747D02*
X0190840Y0042747D01*
X0189817Y0049141D02*
X0214519Y0049141D01*
X0214757Y0051621D02*
X0216439Y0050924D01*
X0218259Y0050924D01*
X0219941Y0051621D01*
X0221228Y0052908D01*
X0221925Y0054590D01*
X0221925Y0056410D01*
X0221228Y0058092D01*
X0219941Y0059379D01*
X0218259Y0060076D01*
X0216439Y0060076D01*
X0214757Y0059379D01*
X0213470Y0058092D01*
X0212773Y0056410D01*
X0212773Y0054590D01*
X0213470Y0052908D01*
X0214757Y0051621D01*
X0214040Y0052338D02*
X0175747Y0052338D01*
X0174148Y0053936D02*
X0213044Y0053936D01*
X0212773Y0055535D02*
X0172550Y0055535D01*
X0172324Y0057133D02*
X0213073Y0057133D01*
X0214110Y0058732D02*
X0172324Y0058732D01*
X0172324Y0060330D02*
X0226574Y0060330D01*
X0226574Y0058732D02*
X0220588Y0058732D01*
X0221625Y0057133D02*
X0226574Y0057133D01*
X0226574Y0055535D02*
X0221925Y0055535D01*
X0221654Y0053936D02*
X0226574Y0053936D01*
X0226574Y0052338D02*
X0220658Y0052338D01*
X0218259Y0060924D02*
X0219941Y0061621D01*
X0221228Y0062908D01*
X0221925Y0064590D01*
X0221925Y0066410D01*
X0221228Y0068092D01*
X0219941Y0069379D01*
X0218259Y0070076D01*
X0216439Y0070076D01*
X0214757Y0069379D01*
X0213470Y0068092D01*
X0212773Y0066410D01*
X0212773Y0064590D01*
X0213470Y0062908D01*
X0214757Y0061621D01*
X0216439Y0060924D01*
X0218259Y0060924D01*
X0220249Y0061929D02*
X0226574Y0061929D01*
X0226574Y0063527D02*
X0221485Y0063527D01*
X0221925Y0065126D02*
X0226574Y0065126D01*
X0226574Y0066724D02*
X0221794Y0066724D01*
X0220997Y0068323D02*
X0226574Y0068323D01*
X0226574Y0069921D02*
X0218631Y0069921D01*
X0219697Y0071520D02*
X0226574Y0071520D01*
X0226574Y0073118D02*
X0221315Y0073118D01*
X0221925Y0074717D02*
X0226574Y0074717D01*
X0226574Y0076315D02*
X0221925Y0076315D01*
X0221302Y0077914D02*
X0226574Y0077914D01*
X0226574Y0079512D02*
X0219619Y0079512D01*
X0218710Y0081111D02*
X0226574Y0081111D01*
X0226574Y0082709D02*
X0221029Y0082709D01*
X0221808Y0084308D02*
X0226574Y0084308D01*
X0226574Y0085907D02*
X0221925Y0085907D01*
X0221471Y0087505D02*
X0226574Y0087505D01*
X0226574Y0089104D02*
X0220216Y0089104D01*
X0220893Y0092301D02*
X0226574Y0092301D01*
X0226574Y0093899D02*
X0221843Y0093899D01*
X0221844Y0097096D02*
X0226574Y0097096D01*
X0226574Y0095498D02*
X0217533Y0095498D01*
X0217165Y0095316D02*
X0217165Y0090731D01*
X0216974Y0090731D01*
X0216232Y0090849D01*
X0215519Y0091081D01*
X0214850Y0091422D01*
X0214243Y0091863D01*
X0213712Y0092394D01*
X0213271Y0093001D01*
X0212930Y0093670D01*
X0212698Y0094383D01*
X0212581Y0095125D01*
X0212581Y0095316D01*
X0217165Y0095316D01*
X0217165Y0093899D02*
X0217533Y0093899D01*
X0217533Y0092301D02*
X0217165Y0092301D01*
X0213805Y0092301D02*
X0211556Y0092301D01*
X0211925Y0090702D02*
X0226574Y0090702D01*
X0226574Y0098695D02*
X0220898Y0098695D01*
X0213800Y0098695D02*
X0160625Y0098695D01*
X0161641Y0097096D02*
X0212854Y0097096D01*
X0212855Y0093899D02*
X0210421Y0093899D01*
X0211723Y0089104D02*
X0214482Y0089104D01*
X0213227Y0087505D02*
X0210825Y0087505D01*
X0212773Y0074717D02*
X0172324Y0074717D01*
X0172324Y0073118D02*
X0213383Y0073118D01*
X0215001Y0071520D02*
X0172324Y0071520D01*
X0172324Y0069921D02*
X0216067Y0069921D01*
X0213701Y0068323D02*
X0172324Y0068323D01*
X0172324Y0066724D02*
X0212904Y0066724D01*
X0212773Y0065126D02*
X0172324Y0065126D01*
X0172324Y0063527D02*
X0213214Y0063527D01*
X0214449Y0061929D02*
X0172324Y0061929D01*
X0167909Y0057133D02*
X0161625Y0057133D01*
X0161925Y0055535D02*
X0167909Y0055535D01*
X0167909Y0053936D02*
X0161654Y0053936D01*
X0160658Y0052338D02*
X0169504Y0052338D01*
X0155899Y0041148D02*
X0123991Y0041148D01*
X0123991Y0039550D02*
X0155169Y0039550D01*
X0153412Y0037951D02*
X0123991Y0037951D01*
X0123991Y0036353D02*
X0152773Y0036353D01*
X0152773Y0034754D02*
X0123991Y0034754D01*
X0123991Y0033156D02*
X0153368Y0033156D01*
X0154911Y0031557D02*
X0123991Y0031557D01*
X0123991Y0029959D02*
X0156157Y0029959D01*
X0156439Y0030076D02*
X0154757Y0029379D01*
X0153470Y0028092D01*
X0152773Y0026410D01*
X0152773Y0024590D01*
X0153470Y0022908D01*
X0154757Y0021621D01*
X0156439Y0020924D01*
X0158259Y0020924D01*
X0159941Y0021621D01*
X0161228Y0022908D01*
X0161925Y0024590D01*
X0161925Y0026410D01*
X0161228Y0028092D01*
X0159941Y0029379D01*
X0158259Y0030076D01*
X0156439Y0030076D01*
X0158542Y0029959D02*
X0199769Y0029959D01*
X0198171Y0031557D02*
X0159787Y0031557D01*
X0161331Y0033156D02*
X0196572Y0033156D01*
X0201368Y0028360D02*
X0160960Y0028360D01*
X0161779Y0026762D02*
X0202966Y0026762D01*
X0204565Y0025163D02*
X0161925Y0025163D01*
X0161500Y0023565D02*
X0206163Y0023565D01*
X0207762Y0021966D02*
X0160286Y0021966D01*
X0159941Y0019379D02*
X0158259Y0020076D01*
X0156439Y0020076D01*
X0154757Y0019379D01*
X0153470Y0018092D01*
X0152773Y0016410D01*
X0152773Y0014590D01*
X0153470Y0012908D01*
X0154757Y0011621D01*
X0156439Y0010924D01*
X0158259Y0010924D01*
X0159941Y0011621D01*
X0161228Y0012908D01*
X0161925Y0014590D01*
X0161925Y0016410D01*
X0161228Y0018092D01*
X0159941Y0019379D01*
X0160551Y0018769D02*
X0184147Y0018769D01*
X0184757Y0019379D02*
X0183470Y0018092D01*
X0182773Y0016410D01*
X0182773Y0014590D01*
X0183470Y0012908D01*
X0184757Y0011621D01*
X0186439Y0010924D01*
X0188259Y0010924D01*
X0189941Y0011621D01*
X0191228Y0012908D01*
X0191925Y0014590D01*
X0191925Y0016410D01*
X0191228Y0018092D01*
X0189941Y0019379D01*
X0188259Y0020076D01*
X0186439Y0020076D01*
X0184757Y0019379D01*
X0183088Y0017171D02*
X0161610Y0017171D01*
X0161925Y0015572D02*
X0182773Y0015572D01*
X0183029Y0013973D02*
X0161669Y0013973D01*
X0160695Y0012375D02*
X0184003Y0012375D01*
X0190695Y0012375D02*
X0194003Y0012375D01*
X0193470Y0012908D02*
X0194757Y0011621D01*
X0196439Y0010924D01*
X0198259Y0010924D01*
X0199941Y0011621D01*
X0201228Y0012908D01*
X0201925Y0014590D01*
X0201925Y0016410D01*
X0201228Y0018092D01*
X0199941Y0019379D01*
X0198259Y0020076D01*
X0196439Y0020076D01*
X0194757Y0019379D01*
X0193470Y0018092D01*
X0192773Y0016410D01*
X0192773Y0014590D01*
X0193470Y0012908D01*
X0193029Y0013973D02*
X0191669Y0013973D01*
X0191925Y0015572D02*
X0192773Y0015572D01*
X0193088Y0017171D02*
X0191610Y0017171D01*
X0190551Y0018769D02*
X0194147Y0018769D01*
X0200551Y0018769D02*
X0204147Y0018769D01*
X0204757Y0019379D02*
X0203470Y0018092D01*
X0202773Y0016410D01*
X0202773Y0014590D01*
X0203470Y0012908D01*
X0204757Y0011621D01*
X0206439Y0010924D01*
X0208259Y0010924D01*
X0209941Y0011621D01*
X0211228Y0012908D01*
X0211925Y0014590D01*
X0211925Y0016410D01*
X0211228Y0018092D01*
X0209941Y0019379D01*
X0208259Y0020076D01*
X0206439Y0020076D01*
X0204757Y0019379D01*
X0203088Y0017171D02*
X0201610Y0017171D01*
X0201925Y0015572D02*
X0202773Y0015572D01*
X0203029Y0013973D02*
X0201669Y0013973D01*
X0200695Y0012375D02*
X0204003Y0012375D01*
X0210695Y0012375D02*
X0214003Y0012375D01*
X0213029Y0013973D02*
X0211669Y0013973D01*
X0211925Y0015572D02*
X0212773Y0015572D01*
X0212557Y0017171D02*
X0211610Y0017171D01*
X0210959Y0018769D02*
X0210551Y0018769D01*
X0209360Y0020368D02*
X0123991Y0020368D01*
X0123991Y0021966D02*
X0154412Y0021966D01*
X0153198Y0023565D02*
X0123991Y0023565D01*
X0123991Y0025163D02*
X0152773Y0025163D01*
X0152919Y0026762D02*
X0123991Y0026762D01*
X0123991Y0028360D02*
X0153738Y0028360D01*
X0154147Y0018769D02*
X0123991Y0018769D01*
X0123991Y0017171D02*
X0153088Y0017171D01*
X0152773Y0015572D02*
X0123991Y0015572D01*
X0123991Y0013973D02*
X0153029Y0013973D01*
X0154003Y0012375D02*
X0123991Y0012375D01*
X0123991Y0010776D02*
X0226574Y0010776D01*
X0226574Y0009178D02*
X0123991Y0009178D01*
X0120978Y0009178D02*
X0117800Y0009178D01*
X0117800Y0008323D02*
X0117800Y0026814D01*
X0116746Y0027869D01*
X0109255Y0027869D01*
X0108201Y0026814D01*
X0108201Y0008323D01*
X0108669Y0007855D01*
X0107351Y0007847D01*
X0097800Y0008842D01*
X0097800Y0026814D01*
X0096746Y0027869D01*
X0089255Y0027869D01*
X0088201Y0026814D01*
X0088201Y0009843D01*
X0078958Y0010806D01*
X0078938Y0015536D01*
X0080824Y0016317D01*
X0082992Y0018485D01*
X0084165Y0021317D01*
X0084165Y0024383D01*
X0082992Y0027215D01*
X0080824Y0029382D01*
X0078877Y0030189D01*
X0078815Y0044694D01*
X0120824Y0045361D01*
X0120983Y0007925D01*
X0117382Y0007905D01*
X0117800Y0008323D01*
X0117800Y0010776D02*
X0120971Y0010776D01*
X0120964Y0012375D02*
X0117800Y0012375D01*
X0117800Y0013973D02*
X0120957Y0013973D01*
X0120951Y0015572D02*
X0117800Y0015572D01*
X0117800Y0017171D02*
X0120944Y0017171D01*
X0120937Y0018769D02*
X0117800Y0018769D01*
X0117800Y0020368D02*
X0120930Y0020368D01*
X0120923Y0021966D02*
X0117800Y0021966D01*
X0117800Y0023565D02*
X0120917Y0023565D01*
X0120910Y0025163D02*
X0117800Y0025163D01*
X0117800Y0026762D02*
X0120903Y0026762D01*
X0120896Y0028360D02*
X0107300Y0028360D01*
X0107300Y0029174D02*
X0107300Y0027463D01*
X0107050Y0026860D01*
X0107050Y0017834D01*
X0105864Y0016648D01*
X0100137Y0016648D01*
X0098951Y0017834D01*
X0098951Y0026860D01*
X0098701Y0027463D01*
X0098701Y0029174D01*
X0099355Y0030754D01*
X0100565Y0031964D01*
X0102145Y0032619D01*
X0103856Y0032619D01*
X0105436Y0031964D01*
X0106646Y0030754D01*
X0107300Y0029174D01*
X0106975Y0029959D02*
X0120889Y0029959D01*
X0120883Y0031557D02*
X0105843Y0031557D01*
X0103001Y0028319D02*
X0103001Y0022448D01*
X0098951Y0021966D02*
X0097800Y0021966D01*
X0097800Y0020368D02*
X0098951Y0020368D01*
X0098951Y0018769D02*
X0097800Y0018769D01*
X0097800Y0017171D02*
X0099614Y0017171D01*
X0097800Y0015572D02*
X0108201Y0015572D01*
X0108201Y0013973D02*
X0097800Y0013973D01*
X0097800Y0012375D02*
X0108201Y0012375D01*
X0108201Y0010776D02*
X0097800Y0010776D01*
X0097800Y0009178D02*
X0108201Y0009178D01*
X0108201Y0017171D02*
X0106387Y0017171D01*
X0107050Y0018769D02*
X0108201Y0018769D01*
X0108201Y0020368D02*
X0107050Y0020368D01*
X0107050Y0021966D02*
X0108201Y0021966D01*
X0108201Y0023565D02*
X0107050Y0023565D01*
X0107050Y0025163D02*
X0108201Y0025163D01*
X0108201Y0026762D02*
X0107050Y0026762D01*
X0098951Y0026762D02*
X0097800Y0026762D01*
X0097800Y0025163D02*
X0098951Y0025163D01*
X0098951Y0023565D02*
X0097800Y0023565D01*
X0098701Y0028360D02*
X0081846Y0028360D01*
X0083179Y0026762D02*
X0088201Y0026762D01*
X0088201Y0025163D02*
X0083841Y0025163D01*
X0084165Y0023565D02*
X0088201Y0023565D01*
X0088201Y0021966D02*
X0084165Y0021966D01*
X0083771Y0020368D02*
X0088201Y0020368D01*
X0088201Y0018769D02*
X0083109Y0018769D01*
X0081677Y0017171D02*
X0088201Y0017171D01*
X0088201Y0015572D02*
X0079024Y0015572D01*
X0078945Y0013973D02*
X0088201Y0013973D01*
X0088201Y0012375D02*
X0078952Y0012375D01*
X0079239Y0010776D02*
X0088201Y0010776D01*
X0076148Y0013973D02*
X0076060Y0013973D01*
X0073894Y0015572D02*
X0048507Y0015572D01*
X0048015Y0017171D02*
X0071241Y0017171D01*
X0069809Y0018769D02*
X0040142Y0018769D01*
X0038708Y0026762D02*
X0069739Y0026762D01*
X0069077Y0025163D02*
X0029668Y0025163D01*
X0030040Y0020368D02*
X0069147Y0020368D01*
X0068754Y0021966D02*
X0019939Y0021966D01*
X0021044Y0023565D02*
X0068754Y0023565D01*
X0071072Y0028360D02*
X0047748Y0028360D01*
X0048629Y0029959D02*
X0073486Y0029959D01*
X0073250Y0031557D02*
X0076148Y0031557D01*
X0076148Y0033156D02*
X0073919Y0033156D01*
X0073902Y0034754D02*
X0076148Y0034754D01*
X0076148Y0036353D02*
X0073903Y0036353D01*
X0073905Y0037951D02*
X0076148Y0037951D01*
X0076148Y0039550D02*
X0073906Y0039550D01*
X0073908Y0041148D02*
X0076148Y0041148D01*
X0076148Y0042747D02*
X0073910Y0042747D01*
X0073911Y0044345D02*
X0076148Y0044345D01*
X0076148Y0045944D02*
X0073913Y0045944D01*
X0073914Y0047542D02*
X0076148Y0047542D01*
X0073916Y0049141D02*
X0118926Y0049141D01*
X0119059Y0050739D02*
X0073917Y0050739D01*
X0073919Y0052338D02*
X0120054Y0052338D01*
X0123727Y0053936D02*
X0073920Y0053936D01*
X0073922Y0055535D02*
X0125326Y0055535D01*
X0126924Y0057133D02*
X0073924Y0057133D01*
X0073925Y0058732D02*
X0128523Y0058732D01*
X0130121Y0060330D02*
X0073924Y0060330D01*
X0073924Y0061929D02*
X0131720Y0061929D01*
X0133318Y0063527D02*
X0073924Y0063527D01*
X0073924Y0065126D02*
X0134917Y0065126D01*
X0136515Y0066724D02*
X0073924Y0066724D01*
X0073924Y0068323D02*
X0153701Y0068323D01*
X0156067Y0069921D02*
X0073924Y0069921D01*
X0073924Y0071520D02*
X0155001Y0071520D01*
X0153383Y0073118D02*
X0073924Y0073118D01*
X0073924Y0074717D02*
X0152773Y0074717D01*
X0152773Y0076315D02*
X0073924Y0076315D01*
X0073924Y0077914D02*
X0153396Y0077914D01*
X0155079Y0079512D02*
X0073924Y0079512D01*
X0073924Y0081111D02*
X0155988Y0081111D01*
X0153669Y0082709D02*
X0073924Y0082709D01*
X0073924Y0084308D02*
X0098058Y0084308D01*
X0095949Y0085907D02*
X0073699Y0085907D01*
X0068187Y0087505D02*
X0095450Y0087505D01*
X0095669Y0089104D02*
X0059661Y0089104D01*
X0053924Y0090702D02*
X0096786Y0090702D01*
X0101461Y0090702D02*
X0103147Y0090702D01*
X0103140Y0092301D02*
X0053924Y0092301D01*
X0053924Y0093899D02*
X0103983Y0093899D01*
X0104000Y0089104D02*
X0102578Y0089104D01*
X0109596Y0093899D02*
X0153060Y0093899D01*
X0152773Y0095498D02*
X0053924Y0095498D01*
X0053924Y0097096D02*
X0153058Y0097096D01*
X0154073Y0098695D02*
X0053924Y0098695D01*
X0053924Y0100293D02*
X0226574Y0100293D01*
X0214487Y0101892D02*
X0160212Y0101892D01*
X0161469Y0103490D02*
X0213229Y0103490D01*
X0212773Y0105089D02*
X0161925Y0105089D01*
X0161810Y0106687D02*
X0212888Y0106687D01*
X0213664Y0108286D02*
X0161034Y0108286D01*
X0153664Y0108286D02*
X0053924Y0108286D01*
X0053924Y0106687D02*
X0152888Y0106687D01*
X0152773Y0105089D02*
X0053924Y0105089D01*
X0053924Y0103490D02*
X0153229Y0103490D01*
X0154487Y0101892D02*
X0053924Y0101892D01*
X0105776Y0132263D02*
X0159115Y0132263D01*
X0159757Y0131621D02*
X0158470Y0132908D01*
X0157773Y0134590D01*
X0157773Y0136410D01*
X0158470Y0138092D01*
X0159757Y0139379D01*
X0161439Y0140076D01*
X0163259Y0140076D01*
X0164941Y0139379D01*
X0166228Y0138092D01*
X0166925Y0136410D01*
X0166925Y0134590D01*
X0166228Y0132908D01*
X0164941Y0131621D01*
X0163259Y0130924D01*
X0161439Y0130924D01*
X0159757Y0131621D01*
X0158075Y0133862D02*
X0107374Y0133862D01*
X0108973Y0135460D02*
X0157773Y0135460D01*
X0158042Y0137059D02*
X0110253Y0137059D01*
X0110395Y0138657D02*
X0159036Y0138657D01*
X0165663Y0138657D02*
X0169036Y0138657D01*
X0168470Y0138092D02*
X0167773Y0136410D01*
X0167773Y0134590D01*
X0168470Y0132908D01*
X0169757Y0131621D01*
X0171439Y0130924D01*
X0173259Y0130924D01*
X0174941Y0131621D01*
X0176228Y0132908D01*
X0176925Y0134590D01*
X0176925Y0136410D01*
X0176228Y0138092D01*
X0174941Y0139379D01*
X0173259Y0140076D01*
X0171439Y0140076D01*
X0169757Y0139379D01*
X0168470Y0138092D01*
X0168042Y0137059D02*
X0166656Y0137059D01*
X0166925Y0135460D02*
X0167773Y0135460D01*
X0168075Y0133862D02*
X0166623Y0133862D01*
X0165583Y0132263D02*
X0169115Y0132263D01*
X0175583Y0132263D02*
X0179115Y0132263D01*
X0179757Y0131621D02*
X0178470Y0132908D01*
X0177773Y0134590D01*
X0177773Y0136410D01*
X0178470Y0138092D01*
X0179757Y0139379D01*
X0181439Y0140076D01*
X0183259Y0140076D01*
X0184941Y0139379D01*
X0186228Y0138092D01*
X0186925Y0136410D01*
X0186925Y0134590D01*
X0186228Y0132908D01*
X0184941Y0131621D01*
X0183259Y0130924D01*
X0181439Y0130924D01*
X0179757Y0131621D01*
X0178075Y0133862D02*
X0176623Y0133862D01*
X0176925Y0135460D02*
X0177773Y0135460D01*
X0178042Y0137059D02*
X0176656Y0137059D01*
X0175663Y0138657D02*
X0179036Y0138657D01*
X0185663Y0138657D02*
X0188763Y0138657D01*
X0187842Y0137059D02*
X0186656Y0137059D01*
X0186925Y0135460D02*
X0192165Y0135460D01*
X0192533Y0135460D02*
X0197773Y0135460D01*
X0197773Y0134590D02*
X0198470Y0132908D01*
X0199757Y0131621D01*
X0201439Y0130924D01*
X0203259Y0130924D01*
X0204941Y0131621D01*
X0206228Y0132908D01*
X0206925Y0134590D01*
X0206925Y0136410D01*
X0206228Y0138092D01*
X0204941Y0139379D01*
X0203259Y0140076D01*
X0201439Y0140076D01*
X0199757Y0139379D01*
X0198470Y0138092D01*
X0197773Y0136410D01*
X0197773Y0134590D01*
X0198075Y0133862D02*
X0196831Y0133862D01*
X0195856Y0132263D02*
X0199115Y0132263D01*
X0198042Y0137059D02*
X0196856Y0137059D01*
X0195935Y0138657D02*
X0199036Y0138657D01*
X0205663Y0138657D02*
X0209036Y0138657D01*
X0208042Y0137059D02*
X0206656Y0137059D01*
X0206925Y0135460D02*
X0207773Y0135460D01*
X0208075Y0133862D02*
X0206623Y0133862D01*
X0205583Y0132263D02*
X0209115Y0132263D01*
X0212599Y0143453D02*
X0110395Y0143453D01*
X0110395Y0145051D02*
X0211535Y0145051D01*
X0210873Y0146650D02*
X0110395Y0146650D01*
X0110395Y0148248D02*
X0210739Y0148248D01*
X0210739Y0149847D02*
X0110395Y0149847D01*
X0110395Y0151445D02*
X0211323Y0151445D01*
X0212088Y0153044D02*
X0110395Y0153044D01*
X0110395Y0154642D02*
X0213686Y0154642D01*
X0192533Y0138657D02*
X0192165Y0138657D01*
X0192165Y0137059D02*
X0192533Y0137059D01*
X0192533Y0133862D02*
X0192165Y0133862D01*
X0192165Y0132263D02*
X0192533Y0132263D01*
X0188842Y0132263D02*
X0185583Y0132263D01*
X0186623Y0133862D02*
X0187867Y0133862D01*
X0154449Y0061929D02*
X0137962Y0061929D01*
X0125650Y0047542D02*
X0153242Y0047542D01*
X0152773Y0045944D02*
X0123991Y0045944D01*
X0123991Y0044345D02*
X0152875Y0044345D01*
X0153631Y0042747D02*
X0123991Y0042747D01*
X0120835Y0042747D02*
X0078824Y0042747D01*
X0078817Y0044345D02*
X0120828Y0044345D01*
X0120842Y0041148D02*
X0078830Y0041148D01*
X0078837Y0039550D02*
X0120849Y0039550D01*
X0120855Y0037951D02*
X0078844Y0037951D01*
X0078851Y0036353D02*
X0120862Y0036353D01*
X0120869Y0034754D02*
X0078857Y0034754D01*
X0078864Y0033156D02*
X0120876Y0033156D01*
X0100158Y0031557D02*
X0078871Y0031557D01*
X0079433Y0029959D02*
X0099026Y0029959D01*
X0207610Y0028360D02*
X0213738Y0028360D01*
X0212919Y0026762D02*
X0209209Y0026762D01*
X0210807Y0025163D02*
X0212773Y0025163D01*
X0212406Y0023565D02*
X0213198Y0023565D01*
X0214004Y0021966D02*
X0214412Y0021966D01*
X0215603Y0020368D02*
X0226574Y0020368D01*
X0226574Y0021966D02*
X0220286Y0021966D01*
X0221500Y0023565D02*
X0226574Y0023565D01*
X0226574Y0025163D02*
X0221925Y0025163D01*
X0221779Y0026762D02*
X0226574Y0026762D01*
X0226574Y0028360D02*
X0220960Y0028360D01*
X0220551Y0018769D02*
X0226574Y0018769D01*
X0226574Y0017171D02*
X0221610Y0017171D01*
X0221925Y0015572D02*
X0226574Y0015572D01*
X0226574Y0013973D02*
X0221669Y0013973D01*
X0220695Y0012375D02*
X0226574Y0012375D01*
X0057972Y0157840D02*
X0053924Y0157840D01*
X0053924Y0159438D02*
X0057972Y0159438D01*
X0057972Y0161037D02*
X0053924Y0161037D01*
X0053924Y0162635D02*
X0057972Y0162635D01*
X0057972Y0164234D02*
X0053924Y0164234D01*
X0053924Y0165832D02*
X0057972Y0165832D01*
X0057972Y0167431D02*
X0053924Y0167431D01*
X0053924Y0169029D02*
X0058367Y0169029D01*
X0053924Y0173825D02*
X0104985Y0173825D01*
D18*
X0188054Y0045575D03*
X0110988Y0042527D03*
X0094819Y0042860D03*
X0084983Y0014355D03*
D19*
X0087150Y0043194D03*
X0102820Y0043361D03*
X0129992Y0016689D03*
X0146900Y0130585D03*
X0101320Y0131045D03*
X0107988Y0172220D03*
X0160800Y0182185D03*
X0160800Y0187185D03*
X0160832Y0192224D03*
X0223511Y0160217D03*
D20*
X0160118Y0090510D02*
X0107789Y0090510D01*
X0106790Y0091510D01*
X0100800Y0085500D02*
X0099124Y0087177D01*
X0099124Y0087843D01*
X0100800Y0085500D02*
X0157349Y0085500D01*
X0160118Y0090510D02*
X0170116Y0080511D01*
X0170116Y0054847D01*
X0189115Y0035849D01*
X0197000Y0035849D01*
X0217349Y0015500D01*
X0217349Y0045500D02*
X0217335Y0045514D01*
X0192505Y0045514D01*
X0188115Y0045514D01*
X0188054Y0045575D01*
X0188115Y0045514D02*
X0192505Y0045514D01*
X0157349Y0065500D02*
X0138412Y0065500D01*
X0122600Y0049688D01*
D21*
X0122600Y0049688D03*
X0099124Y0087843D03*
X0106790Y0091510D03*
M02*
