G75*
%MOIN*%
%OFA0B0*%
%FSLAX25Y25*%
%IPPOS*%
%LPD*%
%AMOC8*
5,1,8,0,0,1.08239X$1,22.5*
%
%ADD10C,0.00000*%
%ADD11R,0.01340X0.00333*%
%ADD12R,0.00340X0.00333*%
%ADD13R,0.12330X0.00333*%
%ADD14R,0.02660X0.00334*%
%ADD15R,0.01000X0.00334*%
%ADD16R,0.01340X0.00334*%
%ADD17R,0.12330X0.00334*%
%ADD18R,0.03340X0.00333*%
%ADD19R,0.01670X0.00333*%
%ADD20R,0.04000X0.00333*%
%ADD21R,0.02340X0.00333*%
%ADD22R,0.04660X0.00334*%
%ADD23R,0.03000X0.00334*%
%ADD24R,0.01660X0.00333*%
%ADD25R,0.05000X0.00333*%
%ADD26R,0.04340X0.00334*%
%ADD27R,0.02330X0.00334*%
%ADD28R,0.02000X0.00334*%
%ADD29R,0.02000X0.00333*%
%ADD30R,0.04340X0.00333*%
%ADD31R,0.04000X0.00334*%
%ADD32R,0.01670X0.00334*%
%ADD33R,0.01660X0.00334*%
%ADD34R,0.03000X0.00333*%
%ADD35R,0.02330X0.00333*%
%ADD36R,0.02340X0.00334*%
%ADD37R,0.08340X0.00333*%
%ADD38R,0.04330X0.00333*%
%ADD39R,0.08340X0.00334*%
%ADD40R,0.04330X0.00334*%
%ADD41R,0.12660X0.00334*%
%ADD42R,0.04670X0.00333*%
%ADD43R,0.11670X0.00333*%
%ADD44R,0.03670X0.00334*%
%ADD45R,0.11000X0.00334*%
%ADD46R,0.02670X0.00333*%
%ADD47R,0.10330X0.00333*%
%ADD48R,0.08330X0.00333*%
%ADD49R,0.05340X0.00334*%
%ADD50R,0.05660X0.00333*%
%ADD51R,0.06340X0.00334*%
%ADD52R,0.02660X0.00333*%
%ADD53R,0.01330X0.00333*%
%ADD54R,0.01000X0.00333*%
%ADD55R,0.01330X0.00334*%
%ADD56R,0.00330X0.00333*%
%ADD57R,0.20330X0.00333*%
%ADD58R,0.04660X0.00333*%
%ADD59R,0.02670X0.00334*%
%ADD60R,0.20330X0.00334*%
%ADD61R,0.06340X0.00333*%
%ADD62R,0.05000X0.00334*%
%ADD63R,0.03660X0.00333*%
%ADD64R,0.00670X0.00334*%
%ADD65R,0.12660X0.00333*%
%ADD66R,0.07670X0.00334*%
%ADD67R,0.07670X0.00333*%
%ADD68R,0.11340X0.00333*%
%ADD69R,0.10330X0.00334*%
%ADD70R,0.09000X0.00333*%
%ADD71R,0.06000X0.00333*%
%ADD72R,0.03660X0.00334*%
%ADD73R,0.04670X0.00334*%
%ADD74R,0.05340X0.00333*%
%ADD75R,0.00660X0.00333*%
%ADD76R,0.05670X0.00333*%
%ADD77R,0.00660X0.00334*%
%ADD78R,0.06000X0.00334*%
%ADD79R,0.03670X0.00333*%
%ADD80R,0.06670X0.00333*%
%ADD81R,0.03340X0.00334*%
%ADD82R,0.03330X0.00334*%
%ADD83R,0.07000X0.00333*%
%ADD84R,0.11000X0.00333*%
%ADD85R,0.06670X0.00334*%
%ADD86R,0.06330X0.00333*%
%ADD87R,0.11660X0.00333*%
%ADD88R,0.12000X0.00334*%
%ADD89R,0.07340X0.00333*%
%ADD90R,0.07000X0.00334*%
%ADD91R,0.00670X0.00333*%
%ADD92R,0.11330X0.00333*%
%ADD93R,0.03330X0.00333*%
%ADD94R,0.07330X0.00333*%
%ADD95R,0.05330X0.00333*%
%ADD96R,0.00330X0.00334*%
%ADD97R,0.06660X0.00333*%
%ADD98R,0.07660X0.00333*%
%ADD99R,0.08000X0.00333*%
%ADD100R,0.05330X0.00334*%
%ADD101R,0.10000X0.00333*%
%ADD102R,0.08660X0.00334*%
%ADD103R,0.09000X0.00334*%
%ADD104R,0.05670X0.00334*%
%ADD105R,0.07660X0.00334*%
%ADD106R,0.08670X0.00333*%
%ADD107R,0.08670X0.00334*%
%ADD108R,0.11670X0.00334*%
%ADD109R,0.08660X0.00333*%
%ADD110R,0.16000X0.00333*%
%ADD111R,0.16000X0.00334*%
%ADD112R,0.26000X0.00334*%
%ADD113R,0.26000X0.00333*%
%ADD114R,0.09670X0.00333*%
%ADD115R,0.18330X0.00333*%
%ADD116R,0.18330X0.00334*%
%ADD117R,0.18660X0.00333*%
%ADD118R,0.12000X0.00333*%
%ADD119R,0.16660X0.00333*%
%ADD120R,0.00340X0.00334*%
%ADD121C,0.01000*%
D10*
X0004557Y0022435D02*
X0025391Y0026394D01*
X0045891Y0030019D01*
X0045960Y0031852D01*
X0046030Y0032019D01*
X0058794Y0032505D01*
X0071224Y0032991D01*
X0071200Y0032985D02*
X0071225Y0058990D01*
X0071224Y0058963D02*
X0071224Y0084935D01*
X0051224Y0088685D01*
X0051224Y0199797D01*
X0227474Y0199797D01*
X0227474Y0006741D01*
X0166919Y0006394D01*
X0106363Y0006047D01*
X0074002Y0009419D01*
X0074002Y0012574D01*
X0059905Y0013130D01*
X0045807Y0013685D01*
X0045807Y0015908D01*
X0004557Y0022435D01*
X0069653Y0022850D02*
X0069655Y0023003D01*
X0069661Y0023157D01*
X0069671Y0023310D01*
X0069685Y0023462D01*
X0069703Y0023615D01*
X0069725Y0023766D01*
X0069750Y0023917D01*
X0069780Y0024068D01*
X0069814Y0024218D01*
X0069851Y0024366D01*
X0069892Y0024514D01*
X0069937Y0024660D01*
X0069986Y0024806D01*
X0070039Y0024950D01*
X0070095Y0025092D01*
X0070155Y0025233D01*
X0070219Y0025373D01*
X0070286Y0025511D01*
X0070357Y0025647D01*
X0070432Y0025781D01*
X0070509Y0025913D01*
X0070591Y0026043D01*
X0070675Y0026171D01*
X0070763Y0026297D01*
X0070854Y0026420D01*
X0070948Y0026541D01*
X0071046Y0026659D01*
X0071146Y0026775D01*
X0071250Y0026888D01*
X0071356Y0026999D01*
X0071465Y0027107D01*
X0071577Y0027212D01*
X0071691Y0027313D01*
X0071809Y0027412D01*
X0071928Y0027508D01*
X0072050Y0027601D01*
X0072175Y0027690D01*
X0072302Y0027777D01*
X0072431Y0027859D01*
X0072562Y0027939D01*
X0072695Y0028015D01*
X0072830Y0028088D01*
X0072967Y0028157D01*
X0073106Y0028222D01*
X0073246Y0028284D01*
X0073388Y0028342D01*
X0073531Y0028397D01*
X0073676Y0028448D01*
X0073822Y0028495D01*
X0073969Y0028538D01*
X0074117Y0028577D01*
X0074266Y0028613D01*
X0074416Y0028644D01*
X0074567Y0028672D01*
X0074718Y0028696D01*
X0074871Y0028716D01*
X0075023Y0028732D01*
X0075176Y0028744D01*
X0075329Y0028752D01*
X0075482Y0028756D01*
X0075636Y0028756D01*
X0075789Y0028752D01*
X0075942Y0028744D01*
X0076095Y0028732D01*
X0076247Y0028716D01*
X0076400Y0028696D01*
X0076551Y0028672D01*
X0076702Y0028644D01*
X0076852Y0028613D01*
X0077001Y0028577D01*
X0077149Y0028538D01*
X0077296Y0028495D01*
X0077442Y0028448D01*
X0077587Y0028397D01*
X0077730Y0028342D01*
X0077872Y0028284D01*
X0078012Y0028222D01*
X0078151Y0028157D01*
X0078288Y0028088D01*
X0078423Y0028015D01*
X0078556Y0027939D01*
X0078687Y0027859D01*
X0078816Y0027777D01*
X0078943Y0027690D01*
X0079068Y0027601D01*
X0079190Y0027508D01*
X0079309Y0027412D01*
X0079427Y0027313D01*
X0079541Y0027212D01*
X0079653Y0027107D01*
X0079762Y0026999D01*
X0079868Y0026888D01*
X0079972Y0026775D01*
X0080072Y0026659D01*
X0080170Y0026541D01*
X0080264Y0026420D01*
X0080355Y0026297D01*
X0080443Y0026171D01*
X0080527Y0026043D01*
X0080609Y0025913D01*
X0080686Y0025781D01*
X0080761Y0025647D01*
X0080832Y0025511D01*
X0080899Y0025373D01*
X0080963Y0025233D01*
X0081023Y0025092D01*
X0081079Y0024950D01*
X0081132Y0024806D01*
X0081181Y0024660D01*
X0081226Y0024514D01*
X0081267Y0024366D01*
X0081304Y0024218D01*
X0081338Y0024068D01*
X0081368Y0023917D01*
X0081393Y0023766D01*
X0081415Y0023615D01*
X0081433Y0023462D01*
X0081447Y0023310D01*
X0081457Y0023157D01*
X0081463Y0023003D01*
X0081465Y0022850D01*
X0081463Y0022697D01*
X0081457Y0022543D01*
X0081447Y0022390D01*
X0081433Y0022238D01*
X0081415Y0022085D01*
X0081393Y0021934D01*
X0081368Y0021783D01*
X0081338Y0021632D01*
X0081304Y0021482D01*
X0081267Y0021334D01*
X0081226Y0021186D01*
X0081181Y0021040D01*
X0081132Y0020894D01*
X0081079Y0020750D01*
X0081023Y0020608D01*
X0080963Y0020467D01*
X0080899Y0020327D01*
X0080832Y0020189D01*
X0080761Y0020053D01*
X0080686Y0019919D01*
X0080609Y0019787D01*
X0080527Y0019657D01*
X0080443Y0019529D01*
X0080355Y0019403D01*
X0080264Y0019280D01*
X0080170Y0019159D01*
X0080072Y0019041D01*
X0079972Y0018925D01*
X0079868Y0018812D01*
X0079762Y0018701D01*
X0079653Y0018593D01*
X0079541Y0018488D01*
X0079427Y0018387D01*
X0079309Y0018288D01*
X0079190Y0018192D01*
X0079068Y0018099D01*
X0078943Y0018010D01*
X0078816Y0017923D01*
X0078687Y0017841D01*
X0078556Y0017761D01*
X0078423Y0017685D01*
X0078288Y0017612D01*
X0078151Y0017543D01*
X0078012Y0017478D01*
X0077872Y0017416D01*
X0077730Y0017358D01*
X0077587Y0017303D01*
X0077442Y0017252D01*
X0077296Y0017205D01*
X0077149Y0017162D01*
X0077001Y0017123D01*
X0076852Y0017087D01*
X0076702Y0017056D01*
X0076551Y0017028D01*
X0076400Y0017004D01*
X0076247Y0016984D01*
X0076095Y0016968D01*
X0075942Y0016956D01*
X0075789Y0016948D01*
X0075636Y0016944D01*
X0075482Y0016944D01*
X0075329Y0016948D01*
X0075176Y0016956D01*
X0075023Y0016968D01*
X0074871Y0016984D01*
X0074718Y0017004D01*
X0074567Y0017028D01*
X0074416Y0017056D01*
X0074266Y0017087D01*
X0074117Y0017123D01*
X0073969Y0017162D01*
X0073822Y0017205D01*
X0073676Y0017252D01*
X0073531Y0017303D01*
X0073388Y0017358D01*
X0073246Y0017416D01*
X0073106Y0017478D01*
X0072967Y0017543D01*
X0072830Y0017612D01*
X0072695Y0017685D01*
X0072562Y0017761D01*
X0072431Y0017841D01*
X0072302Y0017923D01*
X0072175Y0018010D01*
X0072050Y0018099D01*
X0071928Y0018192D01*
X0071809Y0018288D01*
X0071691Y0018387D01*
X0071577Y0018488D01*
X0071465Y0018593D01*
X0071356Y0018701D01*
X0071250Y0018812D01*
X0071146Y0018925D01*
X0071046Y0019041D01*
X0070948Y0019159D01*
X0070854Y0019280D01*
X0070763Y0019403D01*
X0070675Y0019529D01*
X0070591Y0019657D01*
X0070509Y0019787D01*
X0070432Y0019919D01*
X0070357Y0020053D01*
X0070286Y0020189D01*
X0070219Y0020327D01*
X0070155Y0020467D01*
X0070095Y0020608D01*
X0070039Y0020750D01*
X0069986Y0020894D01*
X0069937Y0021040D01*
X0069892Y0021186D01*
X0069851Y0021334D01*
X0069814Y0021482D01*
X0069780Y0021632D01*
X0069750Y0021783D01*
X0069725Y0021934D01*
X0069703Y0022085D01*
X0069685Y0022238D01*
X0069671Y0022390D01*
X0069661Y0022543D01*
X0069655Y0022697D01*
X0069653Y0022850D01*
X0211639Y0148504D02*
X0211641Y0148657D01*
X0211647Y0148811D01*
X0211657Y0148964D01*
X0211671Y0149116D01*
X0211689Y0149269D01*
X0211711Y0149420D01*
X0211736Y0149571D01*
X0211766Y0149722D01*
X0211800Y0149872D01*
X0211837Y0150020D01*
X0211878Y0150168D01*
X0211923Y0150314D01*
X0211972Y0150460D01*
X0212025Y0150604D01*
X0212081Y0150746D01*
X0212141Y0150887D01*
X0212205Y0151027D01*
X0212272Y0151165D01*
X0212343Y0151301D01*
X0212418Y0151435D01*
X0212495Y0151567D01*
X0212577Y0151697D01*
X0212661Y0151825D01*
X0212749Y0151951D01*
X0212840Y0152074D01*
X0212934Y0152195D01*
X0213032Y0152313D01*
X0213132Y0152429D01*
X0213236Y0152542D01*
X0213342Y0152653D01*
X0213451Y0152761D01*
X0213563Y0152866D01*
X0213677Y0152967D01*
X0213795Y0153066D01*
X0213914Y0153162D01*
X0214036Y0153255D01*
X0214161Y0153344D01*
X0214288Y0153431D01*
X0214417Y0153513D01*
X0214548Y0153593D01*
X0214681Y0153669D01*
X0214816Y0153742D01*
X0214953Y0153811D01*
X0215092Y0153876D01*
X0215232Y0153938D01*
X0215374Y0153996D01*
X0215517Y0154051D01*
X0215662Y0154102D01*
X0215808Y0154149D01*
X0215955Y0154192D01*
X0216103Y0154231D01*
X0216252Y0154267D01*
X0216402Y0154298D01*
X0216553Y0154326D01*
X0216704Y0154350D01*
X0216857Y0154370D01*
X0217009Y0154386D01*
X0217162Y0154398D01*
X0217315Y0154406D01*
X0217468Y0154410D01*
X0217622Y0154410D01*
X0217775Y0154406D01*
X0217928Y0154398D01*
X0218081Y0154386D01*
X0218233Y0154370D01*
X0218386Y0154350D01*
X0218537Y0154326D01*
X0218688Y0154298D01*
X0218838Y0154267D01*
X0218987Y0154231D01*
X0219135Y0154192D01*
X0219282Y0154149D01*
X0219428Y0154102D01*
X0219573Y0154051D01*
X0219716Y0153996D01*
X0219858Y0153938D01*
X0219998Y0153876D01*
X0220137Y0153811D01*
X0220274Y0153742D01*
X0220409Y0153669D01*
X0220542Y0153593D01*
X0220673Y0153513D01*
X0220802Y0153431D01*
X0220929Y0153344D01*
X0221054Y0153255D01*
X0221176Y0153162D01*
X0221295Y0153066D01*
X0221413Y0152967D01*
X0221527Y0152866D01*
X0221639Y0152761D01*
X0221748Y0152653D01*
X0221854Y0152542D01*
X0221958Y0152429D01*
X0222058Y0152313D01*
X0222156Y0152195D01*
X0222250Y0152074D01*
X0222341Y0151951D01*
X0222429Y0151825D01*
X0222513Y0151697D01*
X0222595Y0151567D01*
X0222672Y0151435D01*
X0222747Y0151301D01*
X0222818Y0151165D01*
X0222885Y0151027D01*
X0222949Y0150887D01*
X0223009Y0150746D01*
X0223065Y0150604D01*
X0223118Y0150460D01*
X0223167Y0150314D01*
X0223212Y0150168D01*
X0223253Y0150020D01*
X0223290Y0149872D01*
X0223324Y0149722D01*
X0223354Y0149571D01*
X0223379Y0149420D01*
X0223401Y0149269D01*
X0223419Y0149116D01*
X0223433Y0148964D01*
X0223443Y0148811D01*
X0223449Y0148657D01*
X0223451Y0148504D01*
X0223449Y0148351D01*
X0223443Y0148197D01*
X0223433Y0148044D01*
X0223419Y0147892D01*
X0223401Y0147739D01*
X0223379Y0147588D01*
X0223354Y0147437D01*
X0223324Y0147286D01*
X0223290Y0147136D01*
X0223253Y0146988D01*
X0223212Y0146840D01*
X0223167Y0146694D01*
X0223118Y0146548D01*
X0223065Y0146404D01*
X0223009Y0146262D01*
X0222949Y0146121D01*
X0222885Y0145981D01*
X0222818Y0145843D01*
X0222747Y0145707D01*
X0222672Y0145573D01*
X0222595Y0145441D01*
X0222513Y0145311D01*
X0222429Y0145183D01*
X0222341Y0145057D01*
X0222250Y0144934D01*
X0222156Y0144813D01*
X0222058Y0144695D01*
X0221958Y0144579D01*
X0221854Y0144466D01*
X0221748Y0144355D01*
X0221639Y0144247D01*
X0221527Y0144142D01*
X0221413Y0144041D01*
X0221295Y0143942D01*
X0221176Y0143846D01*
X0221054Y0143753D01*
X0220929Y0143664D01*
X0220802Y0143577D01*
X0220673Y0143495D01*
X0220542Y0143415D01*
X0220409Y0143339D01*
X0220274Y0143266D01*
X0220137Y0143197D01*
X0219998Y0143132D01*
X0219858Y0143070D01*
X0219716Y0143012D01*
X0219573Y0142957D01*
X0219428Y0142906D01*
X0219282Y0142859D01*
X0219135Y0142816D01*
X0218987Y0142777D01*
X0218838Y0142741D01*
X0218688Y0142710D01*
X0218537Y0142682D01*
X0218386Y0142658D01*
X0218233Y0142638D01*
X0218081Y0142622D01*
X0217928Y0142610D01*
X0217775Y0142602D01*
X0217622Y0142598D01*
X0217468Y0142598D01*
X0217315Y0142602D01*
X0217162Y0142610D01*
X0217009Y0142622D01*
X0216857Y0142638D01*
X0216704Y0142658D01*
X0216553Y0142682D01*
X0216402Y0142710D01*
X0216252Y0142741D01*
X0216103Y0142777D01*
X0215955Y0142816D01*
X0215808Y0142859D01*
X0215662Y0142906D01*
X0215517Y0142957D01*
X0215374Y0143012D01*
X0215232Y0143070D01*
X0215092Y0143132D01*
X0214953Y0143197D01*
X0214816Y0143266D01*
X0214681Y0143339D01*
X0214548Y0143415D01*
X0214417Y0143495D01*
X0214288Y0143577D01*
X0214161Y0143664D01*
X0214036Y0143753D01*
X0213914Y0143846D01*
X0213795Y0143942D01*
X0213677Y0144041D01*
X0213563Y0144142D01*
X0213451Y0144247D01*
X0213342Y0144355D01*
X0213236Y0144466D01*
X0213132Y0144579D01*
X0213032Y0144695D01*
X0212934Y0144813D01*
X0212840Y0144934D01*
X0212749Y0145057D01*
X0212661Y0145183D01*
X0212577Y0145311D01*
X0212495Y0145441D01*
X0212418Y0145573D01*
X0212343Y0145707D01*
X0212272Y0145843D01*
X0212205Y0145981D01*
X0212141Y0146121D01*
X0212081Y0146262D01*
X0212025Y0146404D01*
X0211972Y0146548D01*
X0211923Y0146694D01*
X0211878Y0146840D01*
X0211837Y0146988D01*
X0211800Y0147136D01*
X0211766Y0147286D01*
X0211736Y0147437D01*
X0211711Y0147588D01*
X0211689Y0147739D01*
X0211671Y0147892D01*
X0211657Y0148044D01*
X0211647Y0148197D01*
X0211641Y0148351D01*
X0211639Y0148504D01*
D11*
X0206059Y0175184D03*
X0193059Y0186184D03*
X0159059Y0171517D03*
X0150059Y0175184D03*
X0140059Y0171517D03*
X0131059Y0175517D03*
X0128059Y0169184D03*
X0118059Y0170517D03*
X0101059Y0171517D03*
X0098059Y0171517D03*
X0098059Y0175517D03*
X0101059Y0175517D03*
X0095059Y0175184D03*
X0128059Y0189517D03*
X0141059Y0125517D03*
X0140059Y0122517D03*
X0140059Y0122184D03*
X0139059Y0119184D03*
X0142059Y0081184D03*
X0146059Y0074517D03*
X0146059Y0074184D03*
X0146059Y0073517D03*
X0135059Y0075517D03*
X0142059Y0048517D03*
X0142059Y0048184D03*
X0142059Y0046184D03*
X0142059Y0034184D03*
X0146059Y0033517D03*
X0146059Y0033184D03*
X0146059Y0031184D03*
X0146059Y0030517D03*
X0146059Y0030184D03*
X0146059Y0022517D03*
X0146059Y0022184D03*
X0146059Y0021517D03*
X0093059Y0033184D03*
X0093059Y0035184D03*
X0086059Y0035184D03*
X0086059Y0032517D03*
X0086059Y0026184D03*
X0086059Y0025517D03*
X0086059Y0025184D03*
X0086059Y0024517D03*
X0086059Y0024184D03*
X0088059Y0021517D03*
X0090059Y0024517D03*
X0090059Y0025184D03*
X0090059Y0025517D03*
X0090059Y0026184D03*
X0086059Y0039184D03*
X0086059Y0061184D03*
X0093059Y0061184D03*
X0093059Y0061517D03*
X0093059Y0063184D03*
X0093059Y0063517D03*
X0093059Y0071184D03*
X0093059Y0073184D03*
X0093059Y0073517D03*
X0088059Y0077517D03*
X0086059Y0080184D03*
X0090059Y0080517D03*
X0090059Y0081184D03*
X0090059Y0081517D03*
X0090059Y0082184D03*
X0093059Y0086184D03*
X0093059Y0086517D03*
X0093059Y0087184D03*
X0093059Y0087517D03*
X0093059Y0088184D03*
X0093059Y0088517D03*
X0093059Y0089184D03*
X0093059Y0089517D03*
X0086059Y0073517D03*
X0086059Y0070517D03*
D12*
X0089559Y0067184D03*
X0093559Y0077517D03*
X0093559Y0021517D03*
X0139559Y0022517D03*
X0103559Y0172517D03*
D13*
X0180224Y0118184D03*
X0180224Y0107517D03*
X0180224Y0103184D03*
X0180224Y0102517D03*
X0180224Y0102184D03*
X0180224Y0101517D03*
X0180224Y0101184D03*
X0180224Y0089517D03*
X0180224Y0067517D03*
X0180224Y0067184D03*
X0180224Y0066517D03*
X0180224Y0066184D03*
X0180224Y0065517D03*
X0180224Y0061517D03*
X0180224Y0061184D03*
X0180224Y0056517D03*
X0180224Y0056184D03*
X0180224Y0033184D03*
X0180224Y0032517D03*
X0180224Y0032184D03*
X0180224Y0031517D03*
X0180224Y0031184D03*
X0180224Y0027184D03*
X0180224Y0023517D03*
X0180224Y0023184D03*
X0180224Y0022517D03*
X0180224Y0022184D03*
X0180224Y0021517D03*
D14*
X0175059Y0040850D03*
X0185059Y0081850D03*
X0185059Y0088850D03*
X0175059Y0088850D03*
X0175059Y0086850D03*
X0175059Y0116850D03*
X0118059Y0170850D03*
X0122059Y0175850D03*
X0148059Y0175850D03*
X0093059Y0175850D03*
X0088059Y0077850D03*
X0088059Y0021850D03*
X0209059Y0175850D03*
D15*
X0209229Y0174850D03*
X0209229Y0173850D03*
X0209229Y0172850D03*
X0209229Y0171850D03*
X0206229Y0171850D03*
X0206229Y0174850D03*
X0209229Y0176850D03*
X0209229Y0177850D03*
X0215229Y0174850D03*
X0215229Y0173850D03*
X0215229Y0172850D03*
X0215229Y0171850D03*
X0215229Y0170850D03*
X0218889Y0170850D03*
X0218889Y0171850D03*
X0218889Y0172850D03*
X0218889Y0173850D03*
X0218889Y0174850D03*
X0218889Y0175850D03*
X0218889Y0176850D03*
X0218889Y0177850D03*
X0216559Y0185850D03*
X0216559Y0186850D03*
X0216559Y0187850D03*
X0216559Y0188850D03*
X0216559Y0189850D03*
X0216559Y0190850D03*
X0216559Y0191850D03*
X0209559Y0191850D03*
X0209559Y0190850D03*
X0209559Y0189850D03*
X0209559Y0188850D03*
X0209559Y0187850D03*
X0209559Y0186850D03*
X0209559Y0185850D03*
X0204889Y0185850D03*
X0204889Y0186850D03*
X0204889Y0187850D03*
X0204889Y0188850D03*
X0204889Y0189850D03*
X0204889Y0190850D03*
X0199559Y0190850D03*
X0199559Y0189850D03*
X0199559Y0188850D03*
X0199559Y0187850D03*
X0199559Y0191850D03*
X0199559Y0192850D03*
X0193559Y0192850D03*
X0193559Y0191850D03*
X0193559Y0190850D03*
X0193559Y0189850D03*
X0193559Y0188850D03*
X0193559Y0187850D03*
X0193229Y0186850D03*
X0188889Y0185850D03*
X0188229Y0186850D03*
X0188229Y0187850D03*
X0188229Y0188850D03*
X0188229Y0189850D03*
X0188229Y0190850D03*
X0188229Y0191850D03*
X0188229Y0192850D03*
X0185229Y0192850D03*
X0185229Y0191850D03*
X0185229Y0190850D03*
X0185229Y0189850D03*
X0185229Y0188850D03*
X0185229Y0187850D03*
X0185229Y0186850D03*
X0185229Y0185850D03*
X0182889Y0185850D03*
X0182889Y0186850D03*
X0182889Y0187850D03*
X0182889Y0188850D03*
X0180559Y0190850D03*
X0177229Y0190850D03*
X0176229Y0189850D03*
X0175889Y0188850D03*
X0175889Y0187850D03*
X0175889Y0186850D03*
X0175889Y0185850D03*
X0169889Y0185850D03*
X0169889Y0186850D03*
X0169889Y0187850D03*
X0169889Y0188850D03*
X0169889Y0189850D03*
X0169889Y0190850D03*
X0168559Y0190850D03*
X0168229Y0189850D03*
X0167889Y0188850D03*
X0165559Y0187850D03*
X0165889Y0186850D03*
X0163229Y0186850D03*
X0163229Y0185850D03*
X0163229Y0187850D03*
X0163229Y0188850D03*
X0163229Y0189850D03*
X0163229Y0190850D03*
X0160559Y0189850D03*
X0160559Y0188850D03*
X0160559Y0187850D03*
X0160559Y0186850D03*
X0160559Y0185850D03*
X0154559Y0189850D03*
X0155889Y0190850D03*
X0151559Y0189850D03*
X0151559Y0188850D03*
X0151559Y0187850D03*
X0151559Y0186850D03*
X0151559Y0185850D03*
X0145889Y0185850D03*
X0145889Y0186850D03*
X0145889Y0187850D03*
X0145889Y0188850D03*
X0145889Y0189850D03*
X0145889Y0190850D03*
X0140559Y0190850D03*
X0140559Y0189850D03*
X0140559Y0188850D03*
X0140559Y0187850D03*
X0137889Y0186850D03*
X0137889Y0188850D03*
X0135889Y0190850D03*
X0133889Y0188850D03*
X0133889Y0186850D03*
X0131889Y0187850D03*
X0131229Y0185850D03*
X0129889Y0184850D03*
X0127889Y0186850D03*
X0127889Y0188850D03*
X0129889Y0190850D03*
X0131229Y0189850D03*
X0124889Y0189850D03*
X0121559Y0189850D03*
X0121559Y0185850D03*
X0124889Y0185850D03*
X0124889Y0177850D03*
X0124889Y0175850D03*
X0124889Y0174850D03*
X0124889Y0173850D03*
X0124889Y0172850D03*
X0124889Y0171850D03*
X0124889Y0170850D03*
X0127559Y0170850D03*
X0127559Y0172850D03*
X0127559Y0173850D03*
X0127559Y0174850D03*
X0131559Y0174850D03*
X0133889Y0174850D03*
X0133889Y0173850D03*
X0133889Y0172850D03*
X0133889Y0171850D03*
X0133889Y0170850D03*
X0136559Y0170850D03*
X0136559Y0172850D03*
X0136559Y0173850D03*
X0136559Y0174850D03*
X0136559Y0175850D03*
X0136559Y0176850D03*
X0136559Y0177850D03*
X0133889Y0177850D03*
X0133889Y0175850D03*
X0131229Y0171850D03*
X0140229Y0171850D03*
X0140559Y0174850D03*
X0150229Y0174850D03*
X0150229Y0173850D03*
X0150229Y0172850D03*
X0150229Y0171850D03*
X0150229Y0170850D03*
X0153559Y0174850D03*
X0158889Y0171850D03*
X0162229Y0171850D03*
X0168229Y0172850D03*
X0168229Y0174850D03*
X0171889Y0172850D03*
X0172229Y0171850D03*
X0175559Y0174850D03*
X0178229Y0174850D03*
X0178559Y0171850D03*
X0181889Y0171850D03*
X0184559Y0171850D03*
X0184559Y0170850D03*
X0184559Y0172850D03*
X0184559Y0173850D03*
X0184559Y0174850D03*
X0184559Y0175850D03*
X0184559Y0176850D03*
X0184559Y0177850D03*
X0182229Y0174850D03*
X0193889Y0175850D03*
X0196559Y0171850D03*
X0193889Y0170850D03*
X0200229Y0171850D03*
X0202229Y0172850D03*
X0202229Y0173850D03*
X0202559Y0171850D03*
X0200229Y0174850D03*
X0160559Y0192850D03*
X0151559Y0192850D03*
X0140559Y0192850D03*
X0140559Y0191850D03*
X0135889Y0184850D03*
X0122229Y0177850D03*
X0122229Y0176850D03*
X0122229Y0174850D03*
X0122229Y0173850D03*
X0122229Y0172850D03*
X0122229Y0171850D03*
X0119559Y0171850D03*
X0119229Y0172850D03*
X0115559Y0172850D03*
X0115559Y0174850D03*
X0112889Y0174850D03*
X0112889Y0173850D03*
X0112889Y0172850D03*
X0112889Y0171850D03*
X0112889Y0170850D03*
X0110229Y0170850D03*
X0107229Y0171850D03*
X0107559Y0172850D03*
X0107559Y0173850D03*
X0103559Y0171850D03*
X0101229Y0171850D03*
X0101559Y0174850D03*
X0097559Y0174850D03*
X0095229Y0174850D03*
X0095229Y0173850D03*
X0095229Y0172850D03*
X0095229Y0171850D03*
X0095229Y0170850D03*
X0097889Y0171850D03*
X0095229Y0175850D03*
X0091559Y0174850D03*
X0088229Y0174850D03*
X0088229Y0173850D03*
X0088229Y0172850D03*
X0088229Y0171850D03*
X0088229Y0170850D03*
X0096889Y0185850D03*
X0096229Y0187850D03*
X0096229Y0188850D03*
X0096229Y0189850D03*
X0096889Y0191850D03*
X0099889Y0191850D03*
X0100559Y0189850D03*
X0100559Y0188850D03*
X0100559Y0187850D03*
X0099889Y0185850D03*
X0111889Y0189850D03*
X0112229Y0188850D03*
X0114889Y0187850D03*
X0114559Y0186850D03*
X0115229Y0188850D03*
X0112889Y0177850D03*
X0112889Y0176850D03*
X0112889Y0175850D03*
X0173559Y0124850D03*
X0172889Y0123850D03*
X0174229Y0125850D03*
X0175229Y0126850D03*
X0176229Y0127850D03*
X0184229Y0127850D03*
X0185229Y0126850D03*
X0186229Y0125850D03*
X0186889Y0124850D03*
X0187559Y0123850D03*
X0189889Y0118850D03*
X0190229Y0117850D03*
X0190559Y0116850D03*
X0170559Y0118850D03*
X0170229Y0117850D03*
X0169889Y0116850D03*
X0146229Y0090850D03*
X0141889Y0081850D03*
X0141889Y0078850D03*
X0130229Y0079850D03*
X0130229Y0085850D03*
X0130229Y0092850D03*
X0107889Y0110850D03*
X0107889Y0111850D03*
X0107889Y0112850D03*
X0107889Y0113850D03*
X0107889Y0118850D03*
X0107889Y0119850D03*
X0107889Y0120850D03*
X0107889Y0121850D03*
X0107889Y0122850D03*
X0107889Y0123850D03*
X0085559Y0092850D03*
X0093229Y0077850D03*
X0130229Y0069850D03*
X0132559Y0062850D03*
X0132229Y0060850D03*
X0135229Y0062850D03*
X0135559Y0058850D03*
X0141889Y0059850D03*
X0146229Y0059850D03*
X0148559Y0059850D03*
X0148559Y0060850D03*
X0146229Y0068850D03*
X0141889Y0052850D03*
X0141889Y0050850D03*
X0144229Y0047850D03*
X0146229Y0046850D03*
X0146229Y0050850D03*
X0143889Y0035850D03*
X0143889Y0034850D03*
X0141889Y0034850D03*
X0141889Y0035850D03*
X0146229Y0033850D03*
X0139889Y0028850D03*
X0170229Y0030850D03*
X0170229Y0033850D03*
X0093229Y0021850D03*
X0083889Y0031850D03*
D16*
X0086059Y0032850D03*
X0086059Y0025850D03*
X0086059Y0024850D03*
X0086059Y0023850D03*
X0090059Y0024850D03*
X0090059Y0025850D03*
X0093059Y0032850D03*
X0093059Y0034850D03*
X0093059Y0060850D03*
X0086059Y0060850D03*
X0086059Y0063850D03*
X0086059Y0070850D03*
X0093059Y0070850D03*
X0086059Y0079850D03*
X0090059Y0080850D03*
X0090059Y0081850D03*
X0093059Y0085850D03*
X0093059Y0086850D03*
X0093059Y0087850D03*
X0093059Y0088850D03*
X0093059Y0089850D03*
X0139059Y0108850D03*
X0139059Y0118850D03*
X0142059Y0077850D03*
X0146059Y0073850D03*
X0142059Y0068850D03*
X0142059Y0060850D03*
X0146059Y0060850D03*
X0142059Y0047850D03*
X0146059Y0035850D03*
X0146059Y0030850D03*
X0146059Y0022850D03*
X0146059Y0021850D03*
X0140059Y0022850D03*
X0197059Y0172850D03*
X0202059Y0188850D03*
X0143059Y0188850D03*
X0109059Y0190850D03*
D17*
X0180224Y0117850D03*
X0180224Y0110850D03*
X0180224Y0102850D03*
X0180224Y0101850D03*
X0180224Y0066850D03*
X0180224Y0065850D03*
X0180224Y0050850D03*
X0180224Y0041850D03*
X0180224Y0032850D03*
X0180224Y0031850D03*
X0180224Y0022850D03*
X0180224Y0021850D03*
D18*
X0184059Y0046517D03*
X0144059Y0037184D03*
X0141059Y0023517D03*
X0088059Y0022184D03*
X0101059Y0086517D03*
X0092059Y0097184D03*
X0090059Y0098184D03*
X0088059Y0099184D03*
X0138059Y0118517D03*
X0150059Y0113184D03*
X0184059Y0085184D03*
X0118059Y0171184D03*
X0170059Y0176184D03*
D19*
X0169894Y0176517D03*
X0174224Y0176184D03*
X0199894Y0186184D03*
X0205894Y0175517D03*
X0205894Y0171517D03*
X0211894Y0171184D03*
X0140894Y0186184D03*
X0136894Y0175517D03*
X0136894Y0171517D03*
X0127894Y0175517D03*
X0117224Y0176517D03*
X0115894Y0171517D03*
X0094894Y0175517D03*
X0107894Y0191517D03*
X0140894Y0125184D03*
X0139224Y0119517D03*
X0134894Y0111517D03*
X0133894Y0110517D03*
X0133894Y0110184D03*
X0133224Y0109517D03*
X0133224Y0109184D03*
X0132224Y0108184D03*
X0131894Y0107517D03*
X0131224Y0106517D03*
X0130894Y0106184D03*
X0130224Y0105184D03*
X0128894Y0103517D03*
X0128894Y0103184D03*
X0139224Y0108517D03*
X0138894Y0109184D03*
X0138894Y0109517D03*
X0126894Y0115184D03*
X0101894Y0098517D03*
X0101894Y0098184D03*
X0101894Y0097517D03*
X0101894Y0097184D03*
X0101894Y0096517D03*
X0101894Y0096184D03*
X0101894Y0095517D03*
X0101894Y0095184D03*
X0101894Y0094517D03*
X0104224Y0088517D03*
X0104224Y0088184D03*
X0104224Y0087517D03*
X0104224Y0087184D03*
X0104224Y0086517D03*
X0105224Y0080517D03*
X0105224Y0077517D03*
X0104894Y0073184D03*
X0105224Y0072517D03*
X0101894Y0070517D03*
X0101894Y0070184D03*
X0102224Y0069184D03*
X0099224Y0067517D03*
X0098894Y0068184D03*
X0093224Y0071517D03*
X0093224Y0072184D03*
X0093224Y0072517D03*
X0092894Y0074184D03*
X0092224Y0075184D03*
X0092894Y0078184D03*
X0088894Y0073517D03*
X0088894Y0073184D03*
X0089224Y0072517D03*
X0089224Y0072184D03*
X0089894Y0070517D03*
X0092894Y0070517D03*
X0086224Y0070184D03*
X0085894Y0071184D03*
X0085894Y0071517D03*
X0085894Y0073184D03*
X0086224Y0079517D03*
X0085894Y0080517D03*
X0085894Y0081184D03*
X0085894Y0081517D03*
X0085894Y0082184D03*
X0085894Y0086184D03*
X0085894Y0086517D03*
X0085894Y0087184D03*
X0085894Y0087517D03*
X0085894Y0088184D03*
X0085894Y0088517D03*
X0085894Y0089184D03*
X0085894Y0089517D03*
X0085894Y0093184D03*
X0086224Y0064517D03*
X0086224Y0064184D03*
X0085894Y0063517D03*
X0085894Y0063184D03*
X0085894Y0061517D03*
X0086224Y0060517D03*
X0086224Y0060184D03*
X0092894Y0060517D03*
X0093224Y0062184D03*
X0093224Y0062517D03*
X0092894Y0064184D03*
X0086224Y0048517D03*
X0086224Y0035517D03*
X0085894Y0034517D03*
X0085894Y0033184D03*
X0086224Y0032184D03*
X0083894Y0032517D03*
X0083894Y0035184D03*
X0083894Y0035517D03*
X0092894Y0035517D03*
X0093224Y0034517D03*
X0093224Y0034184D03*
X0093224Y0033517D03*
X0092894Y0032517D03*
X0092894Y0032184D03*
X0086224Y0023517D03*
X0092894Y0022184D03*
X0142224Y0036184D03*
X0145224Y0049184D03*
X0148224Y0059184D03*
X0145894Y0070517D03*
X0142224Y0070517D03*
X0174894Y0075517D03*
X0174894Y0082184D03*
X0179894Y0086517D03*
X0179894Y0087184D03*
X0179894Y0087517D03*
X0179894Y0088184D03*
X0179894Y0088517D03*
X0179894Y0089184D03*
X0174894Y0093184D03*
X0174894Y0093517D03*
X0174894Y0096517D03*
X0174894Y0097184D03*
X0174894Y0097517D03*
X0175894Y0100517D03*
X0175224Y0064517D03*
X0175224Y0064184D03*
X0175224Y0059517D03*
X0179894Y0050517D03*
X0179894Y0050184D03*
X0179894Y0049517D03*
X0179894Y0049184D03*
X0179894Y0048517D03*
X0179894Y0048184D03*
X0174894Y0039517D03*
X0175224Y0039184D03*
X0185224Y0039184D03*
X0174894Y0025184D03*
X0175224Y0024517D03*
X0184894Y0024184D03*
X0185224Y0024517D03*
D20*
X0184729Y0041184D03*
X0184389Y0047517D03*
X0184389Y0050517D03*
X0176059Y0050517D03*
X0175729Y0041184D03*
X0144729Y0026517D03*
X0143729Y0024517D03*
X0144059Y0062184D03*
X0134059Y0075184D03*
X0103729Y0068184D03*
X0100059Y0072517D03*
X0087389Y0074184D03*
X0088059Y0078517D03*
X0090059Y0046517D03*
X0091059Y0046184D03*
X0091389Y0045517D03*
X0090389Y0045184D03*
X0088729Y0044517D03*
X0087729Y0044184D03*
X0088059Y0043517D03*
X0089059Y0043184D03*
X0090729Y0042517D03*
X0091389Y0042184D03*
X0090729Y0041517D03*
X0088059Y0040517D03*
X0087389Y0040184D03*
X0091059Y0023517D03*
X0088059Y0022517D03*
X0127059Y0102184D03*
X0140389Y0104517D03*
X0140389Y0105184D03*
X0140389Y0105517D03*
X0150059Y0113517D03*
X0150059Y0116517D03*
X0141729Y0127184D03*
X0141729Y0127517D03*
X0141729Y0128184D03*
X0141729Y0128517D03*
X0175729Y0117517D03*
X0184389Y0086184D03*
X0184389Y0081184D03*
X0184389Y0076184D03*
X0103389Y0118517D03*
X0103389Y0119184D03*
X0103389Y0119517D03*
X0103389Y0120184D03*
X0103389Y0120517D03*
X0103389Y0121184D03*
X0103389Y0121517D03*
X0103389Y0122184D03*
X0117059Y0173517D03*
X0169729Y0173517D03*
D21*
X0151559Y0176184D03*
X0197559Y0173184D03*
X0216559Y0176184D03*
X0185559Y0116517D03*
X0185559Y0116184D03*
X0185559Y0109517D03*
X0185559Y0109184D03*
X0185559Y0108517D03*
X0185559Y0088517D03*
X0185559Y0048184D03*
X0185559Y0040517D03*
X0185559Y0040184D03*
X0185559Y0025517D03*
X0140559Y0023184D03*
X0092559Y0022517D03*
X0089559Y0029517D03*
X0086559Y0039517D03*
X0087559Y0075184D03*
X0092559Y0078517D03*
X0104559Y0081184D03*
X0089559Y0176184D03*
D22*
X0150059Y0115850D03*
X0127059Y0099850D03*
X0088059Y0078850D03*
X0144059Y0061850D03*
X0184059Y0080850D03*
X0088059Y0022850D03*
D23*
X0090559Y0023850D03*
X0092229Y0022850D03*
X0086889Y0039850D03*
X0087559Y0074850D03*
X0090559Y0079850D03*
X0092229Y0078850D03*
X0099889Y0087850D03*
X0126889Y0098850D03*
X0083889Y0116850D03*
X0083889Y0117850D03*
X0099559Y0170850D03*
X0089559Y0175850D03*
X0116559Y0173850D03*
X0138889Y0175850D03*
X0143559Y0173850D03*
X0151559Y0175850D03*
X0169229Y0173850D03*
X0180229Y0170850D03*
X0198559Y0170850D03*
X0204229Y0175850D03*
X0216559Y0175850D03*
X0176559Y0100850D03*
X0142889Y0033850D03*
X0170229Y0032850D03*
X0170229Y0031850D03*
D24*
X0175559Y0024184D03*
X0185559Y0025184D03*
X0105559Y0069184D03*
X0105559Y0069517D03*
X0105559Y0071517D03*
X0101559Y0071517D03*
X0101559Y0071184D03*
X0098559Y0069184D03*
X0098559Y0068517D03*
X0092559Y0064517D03*
X0086559Y0069517D03*
X0089559Y0071184D03*
X0089559Y0071517D03*
X0092559Y0074517D03*
X0105559Y0078184D03*
X0105559Y0080184D03*
X0105559Y0091184D03*
X0129559Y0104184D03*
X0129559Y0104517D03*
X0130559Y0105517D03*
X0131559Y0107184D03*
X0132559Y0108517D03*
X0134559Y0111184D03*
X0138559Y0110517D03*
X0138559Y0110184D03*
X0139559Y0107517D03*
X0140559Y0103184D03*
X0139559Y0120517D03*
X0140559Y0124184D03*
X0168559Y0171517D03*
X0166559Y0185517D03*
X0169559Y0192517D03*
X0145559Y0192184D03*
X0091559Y0175517D03*
X0199559Y0174184D03*
X0204559Y0192184D03*
X0218559Y0175517D03*
X0089559Y0038517D03*
X0092559Y0036184D03*
X0086559Y0036184D03*
X0086559Y0023184D03*
D25*
X0091229Y0023184D03*
X0089559Y0030184D03*
X0144229Y0045184D03*
X0142889Y0052517D03*
X0144559Y0076517D03*
X0133229Y0083184D03*
X0126889Y0100184D03*
X0126889Y0100517D03*
X0126889Y0101184D03*
X0102559Y0086184D03*
X0091229Y0079184D03*
X0084889Y0114517D03*
X0084889Y0115184D03*
X0084889Y0115517D03*
X0084889Y0116184D03*
X0084889Y0118517D03*
X0084889Y0119184D03*
X0084889Y0119517D03*
X0084889Y0120184D03*
X0176559Y0080517D03*
X0180229Y0078517D03*
X0182559Y0080184D03*
X0180229Y0105517D03*
X0180229Y0129184D03*
D26*
X0087559Y0073850D03*
X0141559Y0023850D03*
X0178559Y0045850D03*
D27*
X0174894Y0049850D03*
X0174894Y0057850D03*
X0174894Y0062850D03*
X0175224Y0075850D03*
X0175224Y0081850D03*
X0174894Y0098850D03*
X0175224Y0099850D03*
X0174894Y0108850D03*
X0174894Y0109850D03*
X0175224Y0114850D03*
X0174894Y0115850D03*
X0185224Y0114850D03*
X0204224Y0170850D03*
X0198894Y0173850D03*
X0212224Y0175850D03*
X0200224Y0186850D03*
X0141224Y0186850D03*
X0138894Y0170850D03*
X0105224Y0090850D03*
X0145224Y0048850D03*
X0174894Y0025850D03*
X0176224Y0023850D03*
X0185224Y0047850D03*
X0087224Y0036850D03*
D28*
X0092389Y0064850D03*
X0089729Y0070850D03*
X0089389Y0071850D03*
X0101389Y0071850D03*
X0102389Y0068850D03*
X0105059Y0080850D03*
X0105389Y0083850D03*
X0131389Y0106850D03*
X0140059Y0106850D03*
X0150059Y0112850D03*
X0174729Y0087850D03*
X0185729Y0087850D03*
X0175729Y0059850D03*
X0174729Y0048850D03*
X0174729Y0039850D03*
X0185729Y0048850D03*
X0184059Y0023850D03*
X0145729Y0025850D03*
X0143389Y0032850D03*
X0135059Y0065850D03*
X0134729Y0066850D03*
X0134729Y0077850D03*
X0102389Y0110850D03*
X0102389Y0111850D03*
X0092389Y0116850D03*
X0092389Y0117850D03*
X0129729Y0170850D03*
X0145389Y0191850D03*
X0163729Y0191850D03*
X0169389Y0191850D03*
X0161059Y0170850D03*
X0204389Y0191850D03*
D29*
X0204389Y0191517D03*
X0200059Y0186517D03*
X0208729Y0171184D03*
X0180729Y0190517D03*
X0169389Y0192184D03*
X0163729Y0192184D03*
X0163729Y0192517D03*
X0145389Y0191517D03*
X0141059Y0186517D03*
X0150059Y0175517D03*
X0128059Y0171517D03*
X0121729Y0171184D03*
X0093059Y0176184D03*
X0141729Y0129517D03*
X0138059Y0111184D03*
X0143059Y0079517D03*
X0134059Y0065517D03*
X0133059Y0060517D03*
X0142389Y0061184D03*
X0145729Y0061184D03*
X0144059Y0037517D03*
X0145729Y0036184D03*
X0140389Y0028517D03*
X0145729Y0025517D03*
X0174729Y0049184D03*
X0174729Y0049517D03*
X0185729Y0049517D03*
X0185729Y0049184D03*
X0185729Y0048517D03*
X0185389Y0039517D03*
X0174729Y0058517D03*
X0175059Y0059184D03*
X0174729Y0063517D03*
X0185389Y0075184D03*
X0185389Y0082184D03*
X0183389Y0084517D03*
X0185729Y0087184D03*
X0185729Y0087517D03*
X0185729Y0088184D03*
X0174729Y0088184D03*
X0174729Y0087517D03*
X0175059Y0099517D03*
X0175389Y0100184D03*
X0174729Y0109184D03*
X0174729Y0109517D03*
X0175059Y0115184D03*
X0185389Y0115184D03*
X0185389Y0115517D03*
X0105059Y0077184D03*
X0104729Y0073517D03*
X0100059Y0073517D03*
X0102059Y0069517D03*
X0103729Y0067184D03*
X0092059Y0065184D03*
X0087059Y0065184D03*
X0086729Y0069184D03*
X0086389Y0079184D03*
X0090389Y0080184D03*
X0086059Y0093517D03*
X0086059Y0100517D03*
X0102389Y0111184D03*
X0102389Y0111517D03*
X0102389Y0112184D03*
X0102389Y0112517D03*
X0092389Y0116517D03*
X0092389Y0117184D03*
X0092389Y0117517D03*
X0092389Y0118184D03*
X0092059Y0036517D03*
X0092389Y0031517D03*
X0086729Y0031517D03*
X0086729Y0036517D03*
X0090389Y0024184D03*
D30*
X0087559Y0047517D03*
X0142559Y0024184D03*
X0184559Y0026517D03*
X0178559Y0084517D03*
D31*
X0176059Y0107850D03*
X0184389Y0107850D03*
X0140389Y0104850D03*
X0126729Y0118850D03*
X0141729Y0127850D03*
X0103389Y0121850D03*
X0103389Y0120850D03*
X0103389Y0119850D03*
X0103389Y0118850D03*
X0134059Y0087850D03*
X0091389Y0069850D03*
X0091729Y0045850D03*
X0089729Y0042850D03*
X0091729Y0041850D03*
X0089389Y0029850D03*
X0144729Y0024850D03*
X0129729Y0168850D03*
X0117389Y0175850D03*
X0170059Y0175850D03*
D32*
X0174224Y0175850D03*
X0179224Y0189850D03*
X0190894Y0184850D03*
X0199894Y0185850D03*
X0211894Y0170850D03*
X0177894Y0128850D03*
X0141224Y0125850D03*
X0140894Y0124850D03*
X0140224Y0122850D03*
X0139894Y0121850D03*
X0139224Y0119850D03*
X0134224Y0110850D03*
X0132894Y0108850D03*
X0132224Y0107850D03*
X0129894Y0104850D03*
X0129224Y0103850D03*
X0126894Y0119850D03*
X0101894Y0097850D03*
X0101894Y0096850D03*
X0101894Y0095850D03*
X0101894Y0094850D03*
X0104224Y0087850D03*
X0104224Y0086850D03*
X0105224Y0072850D03*
X0105224Y0068850D03*
X0101894Y0069850D03*
X0098894Y0067850D03*
X0093224Y0071850D03*
X0093224Y0072850D03*
X0092894Y0073850D03*
X0089224Y0072850D03*
X0085894Y0072850D03*
X0086224Y0069850D03*
X0091224Y0068850D03*
X0092894Y0063850D03*
X0093224Y0062850D03*
X0093224Y0061850D03*
X0085894Y0061850D03*
X0085894Y0080850D03*
X0085894Y0081850D03*
X0085894Y0085850D03*
X0085894Y0086850D03*
X0085894Y0087850D03*
X0085894Y0088850D03*
X0085894Y0089850D03*
X0085894Y0100850D03*
X0146224Y0091850D03*
X0174894Y0092850D03*
X0174894Y0093850D03*
X0174894Y0096850D03*
X0179894Y0088850D03*
X0179894Y0087850D03*
X0179894Y0086850D03*
X0174894Y0063850D03*
X0174894Y0058850D03*
X0179894Y0049850D03*
X0179894Y0048850D03*
X0179894Y0047850D03*
X0184894Y0038850D03*
X0174894Y0024850D03*
X0093224Y0033850D03*
X0092894Y0035850D03*
X0086224Y0035850D03*
X0085894Y0034850D03*
X0083894Y0034850D03*
X0083894Y0032850D03*
X0113894Y0185850D03*
X0123224Y0184850D03*
X0128224Y0185850D03*
X0128224Y0189850D03*
X0140894Y0185850D03*
D33*
X0121559Y0170850D03*
X0163559Y0192850D03*
X0169559Y0192850D03*
X0166559Y0185850D03*
X0182559Y0189850D03*
X0208559Y0170850D03*
X0182559Y0128850D03*
X0140559Y0123850D03*
X0139559Y0120850D03*
X0133559Y0109850D03*
X0130559Y0105850D03*
X0105559Y0079850D03*
X0105559Y0077850D03*
X0105559Y0071850D03*
X0101559Y0070850D03*
X0098559Y0071850D03*
X0098559Y0068850D03*
X0092559Y0074850D03*
X0086559Y0064850D03*
X0086559Y0059850D03*
X0092559Y0059850D03*
X0092559Y0031850D03*
X0086559Y0031850D03*
X0175559Y0038850D03*
X0185559Y0039850D03*
X0185559Y0024850D03*
D34*
X0185229Y0026184D03*
X0175229Y0026184D03*
X0170229Y0032184D03*
X0170229Y0032517D03*
X0179229Y0045517D03*
X0183889Y0046184D03*
X0175559Y0076184D03*
X0175559Y0081517D03*
X0175229Y0108184D03*
X0175559Y0110517D03*
X0175229Y0117184D03*
X0185229Y0117184D03*
X0180229Y0129517D03*
X0141889Y0126517D03*
X0141559Y0129184D03*
X0126889Y0119517D03*
X0126889Y0115517D03*
X0140559Y0106184D03*
X0104889Y0090517D03*
X0101229Y0088517D03*
X0100559Y0088184D03*
X0099889Y0073184D03*
X0103889Y0067517D03*
X0091229Y0069184D03*
X0145229Y0048184D03*
X0145229Y0026184D03*
X0145229Y0025184D03*
X0083889Y0116517D03*
X0083889Y0117184D03*
X0083889Y0117517D03*
X0083889Y0118184D03*
X0138889Y0171184D03*
X0143559Y0173184D03*
X0143559Y0173517D03*
X0135889Y0185184D03*
X0129889Y0185517D03*
X0129889Y0190184D03*
X0135889Y0190517D03*
X0123229Y0190517D03*
X0123229Y0185184D03*
X0099559Y0176184D03*
X0155889Y0190184D03*
X0177229Y0190184D03*
X0180229Y0176184D03*
X0198229Y0173517D03*
X0198559Y0176184D03*
X0204229Y0171184D03*
D35*
X0204224Y0176184D03*
X0212224Y0176184D03*
X0204224Y0191184D03*
X0177224Y0190517D03*
X0170894Y0173184D03*
X0155894Y0190517D03*
X0145224Y0191184D03*
X0129894Y0190517D03*
X0129894Y0185184D03*
X0129894Y0176184D03*
X0138894Y0176184D03*
X0147894Y0176184D03*
X0118224Y0173184D03*
X0150224Y0117184D03*
X0174894Y0116517D03*
X0174894Y0116184D03*
X0174894Y0115517D03*
X0180224Y0113184D03*
X0174894Y0108517D03*
X0174894Y0099184D03*
X0174894Y0098517D03*
X0174894Y0088517D03*
X0174894Y0087184D03*
X0176224Y0065184D03*
X0174894Y0063184D03*
X0174894Y0058184D03*
X0175224Y0050184D03*
X0174894Y0048517D03*
X0174894Y0040517D03*
X0174894Y0040184D03*
X0170224Y0033517D03*
X0170224Y0031184D03*
X0174894Y0025517D03*
X0184224Y0038517D03*
X0143224Y0033184D03*
X0132894Y0065184D03*
X0133894Y0067184D03*
X0132894Y0067517D03*
X0134894Y0077517D03*
X0126894Y0098517D03*
X0091894Y0031184D03*
X0087224Y0031184D03*
D36*
X0104559Y0076850D03*
X0185559Y0086850D03*
X0185559Y0108850D03*
X0185559Y0109850D03*
X0185559Y0115850D03*
X0185559Y0049850D03*
X0183559Y0045850D03*
X0185559Y0025850D03*
D37*
X0089559Y0026517D03*
X0089559Y0027184D03*
X0089559Y0027517D03*
X0089559Y0050517D03*
X0089559Y0051184D03*
X0089559Y0051517D03*
X0089559Y0056517D03*
X0089559Y0057184D03*
X0089559Y0057517D03*
D38*
X0088224Y0047184D03*
X0089894Y0041184D03*
X0091224Y0070184D03*
X0099894Y0072184D03*
X0103894Y0068517D03*
X0102894Y0089184D03*
X0126894Y0099517D03*
X0133894Y0093184D03*
X0133894Y0090517D03*
X0133894Y0085517D03*
X0133894Y0085184D03*
X0133894Y0080184D03*
X0143894Y0071517D03*
X0133894Y0069517D03*
X0142894Y0027184D03*
X0175894Y0026517D03*
X0150224Y0116184D03*
X0137894Y0118184D03*
X0126894Y0116184D03*
X0180224Y0120184D03*
D39*
X0128559Y0116850D03*
X0089559Y0057850D03*
X0089559Y0056850D03*
X0089559Y0050850D03*
X0089559Y0027850D03*
X0089559Y0026850D03*
D40*
X0088894Y0040850D03*
X0087224Y0043850D03*
X0089224Y0046850D03*
X0133894Y0069850D03*
X0133894Y0079850D03*
X0133894Y0085850D03*
X0133894Y0090850D03*
X0133894Y0092850D03*
X0126894Y0101850D03*
X0102894Y0085850D03*
X0150224Y0113850D03*
X0176224Y0080850D03*
X0179894Y0078850D03*
X0176224Y0076850D03*
X0144224Y0036850D03*
X0143894Y0026850D03*
X0129224Y0175850D03*
D41*
X0180059Y0061850D03*
X0180059Y0056850D03*
X0180059Y0026850D03*
D42*
X0141724Y0027517D03*
X0089394Y0066517D03*
X0143724Y0093184D03*
X0126724Y0118184D03*
X0126724Y0118517D03*
X0190724Y0185517D03*
D43*
X0180224Y0118517D03*
X0180224Y0111517D03*
X0180224Y0111184D03*
X0180224Y0107184D03*
X0180224Y0051184D03*
X0180224Y0042184D03*
X0180224Y0027517D03*
D44*
X0184224Y0046850D03*
X0141224Y0027850D03*
X0103894Y0067850D03*
X0099894Y0072850D03*
X0134224Y0074850D03*
X0126894Y0115850D03*
X0184224Y0085850D03*
X0180224Y0175850D03*
D45*
X0180229Y0118850D03*
X0180229Y0111850D03*
X0180229Y0106850D03*
X0136229Y0115850D03*
X0180229Y0027850D03*
D46*
X0145394Y0048517D03*
X0133724Y0063517D03*
X0140724Y0028184D03*
X0091724Y0065517D03*
X0087394Y0065517D03*
X0086724Y0048184D03*
X0086394Y0100184D03*
X0140394Y0103517D03*
X0140394Y0106517D03*
X0141724Y0126184D03*
X0185394Y0110184D03*
X0179394Y0084184D03*
X0129724Y0171184D03*
X0105394Y0176184D03*
X0098394Y0185184D03*
X0098394Y0192517D03*
X0180724Y0190184D03*
D47*
X0180224Y0119184D03*
X0180224Y0106517D03*
X0180224Y0090517D03*
X0180224Y0028184D03*
D48*
X0180224Y0028517D03*
D49*
X0180059Y0028850D03*
X0144059Y0054850D03*
X0144059Y0055850D03*
X0144059Y0064850D03*
X0144059Y0070850D03*
X0144059Y0088850D03*
D50*
X0089559Y0066184D03*
X0089559Y0037517D03*
X0089559Y0030517D03*
D51*
X0089559Y0030850D03*
X0089559Y0065850D03*
X0144559Y0057850D03*
X0177559Y0085850D03*
X0209559Y0192850D03*
X0216559Y0192850D03*
D52*
X0209059Y0176184D03*
X0161059Y0171184D03*
X0122059Y0176184D03*
X0175059Y0110184D03*
X0185059Y0108184D03*
X0185059Y0086517D03*
X0185059Y0075517D03*
X0175059Y0057517D03*
X0175059Y0048184D03*
X0185059Y0050184D03*
X0176059Y0038517D03*
X0170059Y0033184D03*
X0170059Y0031517D03*
X0143059Y0033517D03*
X0144059Y0062517D03*
X0105059Y0084184D03*
D53*
X0105724Y0083517D03*
X0105724Y0079517D03*
X0105724Y0079184D03*
X0105724Y0078517D03*
X0105394Y0072184D03*
X0105724Y0071184D03*
X0105724Y0070517D03*
X0105724Y0070184D03*
X0098394Y0070184D03*
X0098394Y0070517D03*
X0098394Y0071184D03*
X0098394Y0071517D03*
X0098394Y0069517D03*
X0092724Y0060184D03*
X0089394Y0056184D03*
X0089394Y0055517D03*
X0089394Y0055184D03*
X0089394Y0054517D03*
X0089394Y0054184D03*
X0089394Y0053517D03*
X0089394Y0053184D03*
X0089394Y0052517D03*
X0089394Y0052184D03*
X0085724Y0062184D03*
X0085724Y0062517D03*
X0085724Y0072184D03*
X0085724Y0072517D03*
X0089394Y0087517D03*
X0089394Y0088184D03*
X0089394Y0088517D03*
X0089394Y0089184D03*
X0089394Y0089517D03*
X0133394Y0060184D03*
X0135394Y0066517D03*
X0139724Y0065184D03*
X0139724Y0064517D03*
X0139724Y0064184D03*
X0142394Y0068517D03*
X0145724Y0068517D03*
X0148394Y0061517D03*
X0148394Y0059517D03*
X0145724Y0059184D03*
X0139724Y0055517D03*
X0139724Y0055184D03*
X0146394Y0047517D03*
X0146394Y0047184D03*
X0146394Y0035184D03*
X0146394Y0034517D03*
X0141724Y0035184D03*
X0134724Y0078184D03*
X0145724Y0090184D03*
X0146394Y0091517D03*
X0139724Y0107184D03*
X0139394Y0108184D03*
X0139394Y0120184D03*
X0139724Y0121184D03*
X0139724Y0121517D03*
X0140394Y0123184D03*
X0140394Y0123517D03*
X0140724Y0124517D03*
X0176724Y0128184D03*
X0183394Y0128517D03*
X0181724Y0171517D03*
X0178724Y0171517D03*
X0178724Y0175517D03*
X0181724Y0175517D03*
X0175394Y0175517D03*
X0170724Y0170517D03*
X0168394Y0174184D03*
X0166724Y0185184D03*
X0179394Y0189517D03*
X0182724Y0189517D03*
X0188394Y0186517D03*
X0199724Y0185517D03*
X0204724Y0192517D03*
X0198724Y0176517D03*
X0198394Y0170517D03*
X0211394Y0170517D03*
X0218724Y0175184D03*
X0153394Y0175517D03*
X0140724Y0185517D03*
X0145724Y0192517D03*
X0129724Y0176517D03*
X0127724Y0175184D03*
X0127724Y0172184D03*
X0129724Y0168184D03*
X0138724Y0170517D03*
X0136724Y0175184D03*
X0115724Y0174184D03*
X0105394Y0176517D03*
X0105394Y0170517D03*
X0091724Y0175184D03*
X0108724Y0191184D03*
X0113724Y0185517D03*
X0113724Y0185184D03*
X0185724Y0082517D03*
X0085724Y0034184D03*
X0085724Y0033517D03*
X0083724Y0033184D03*
X0083724Y0032184D03*
D54*
X0083889Y0033517D03*
X0083889Y0034517D03*
X0130229Y0069184D03*
X0130229Y0069517D03*
X0135559Y0072184D03*
X0132229Y0075517D03*
X0130229Y0079517D03*
X0130229Y0080184D03*
X0135559Y0082517D03*
X0130229Y0085184D03*
X0130229Y0085517D03*
X0132229Y0088184D03*
X0132559Y0090184D03*
X0130229Y0093184D03*
X0141889Y0082184D03*
X0142229Y0082517D03*
X0141889Y0081517D03*
X0142229Y0079184D03*
X0141889Y0078517D03*
X0141889Y0078184D03*
X0141889Y0070184D03*
X0141889Y0069517D03*
X0141889Y0069184D03*
X0146229Y0069184D03*
X0146229Y0069517D03*
X0146229Y0070184D03*
X0148559Y0061184D03*
X0148559Y0060517D03*
X0148559Y0060184D03*
X0146229Y0060184D03*
X0146229Y0060517D03*
X0146229Y0059517D03*
X0142229Y0059184D03*
X0141889Y0059517D03*
X0141889Y0060184D03*
X0141889Y0060517D03*
X0135559Y0058517D03*
X0135559Y0058184D03*
X0141889Y0053517D03*
X0141889Y0053184D03*
X0141889Y0050517D03*
X0141889Y0050184D03*
X0141889Y0047517D03*
X0141889Y0047184D03*
X0141889Y0046517D03*
X0145889Y0046184D03*
X0146229Y0046517D03*
X0146229Y0050184D03*
X0146229Y0050517D03*
X0143889Y0036184D03*
X0143889Y0035517D03*
X0143889Y0035184D03*
X0143889Y0034517D03*
X0143889Y0034184D03*
X0141889Y0034517D03*
X0141889Y0035517D03*
X0146229Y0035517D03*
X0146229Y0034184D03*
X0135559Y0066184D03*
X0146229Y0090517D03*
X0146229Y0091184D03*
X0168229Y0109517D03*
X0171229Y0120517D03*
X0172559Y0123184D03*
X0174559Y0126184D03*
X0174889Y0126517D03*
X0175559Y0127184D03*
X0175889Y0127517D03*
X0177229Y0128517D03*
X0183889Y0128184D03*
X0184559Y0127517D03*
X0184889Y0127184D03*
X0185559Y0126517D03*
X0185889Y0126184D03*
X0187889Y0123184D03*
X0188889Y0121184D03*
X0189229Y0120517D03*
X0191229Y0114517D03*
X0174559Y0082517D03*
X0174559Y0075184D03*
X0182889Y0045517D03*
X0105889Y0091517D03*
X0107889Y0111184D03*
X0107889Y0111517D03*
X0107889Y0112184D03*
X0107889Y0112517D03*
X0107889Y0113184D03*
X0107889Y0113517D03*
X0107889Y0114184D03*
X0107889Y0118517D03*
X0107889Y0119184D03*
X0107889Y0119517D03*
X0107889Y0120184D03*
X0107889Y0120517D03*
X0107889Y0121184D03*
X0107889Y0121517D03*
X0107889Y0122184D03*
X0107889Y0122517D03*
X0107889Y0123184D03*
X0107889Y0123517D03*
X0107889Y0124184D03*
X0085559Y0101184D03*
X0127889Y0169517D03*
X0127559Y0170184D03*
X0127559Y0170517D03*
X0127559Y0171184D03*
X0127559Y0172517D03*
X0127559Y0173184D03*
X0127559Y0173517D03*
X0127559Y0174184D03*
X0127559Y0174517D03*
X0127559Y0176184D03*
X0124889Y0176184D03*
X0124889Y0175517D03*
X0124889Y0175184D03*
X0124889Y0174517D03*
X0124889Y0174184D03*
X0124889Y0173517D03*
X0124889Y0173184D03*
X0124889Y0172517D03*
X0124889Y0172184D03*
X0124889Y0171517D03*
X0124889Y0171184D03*
X0122229Y0171517D03*
X0122229Y0172184D03*
X0122229Y0172517D03*
X0122229Y0173184D03*
X0122229Y0173517D03*
X0122229Y0174184D03*
X0122229Y0174517D03*
X0122229Y0175184D03*
X0122229Y0175517D03*
X0122229Y0176517D03*
X0122229Y0177184D03*
X0122229Y0177517D03*
X0119229Y0175184D03*
X0118889Y0175517D03*
X0115889Y0175517D03*
X0115559Y0175184D03*
X0115559Y0174517D03*
X0115559Y0173184D03*
X0115559Y0172517D03*
X0115559Y0172184D03*
X0115559Y0171184D03*
X0112889Y0171184D03*
X0112889Y0171517D03*
X0112889Y0172184D03*
X0112889Y0172517D03*
X0112889Y0173184D03*
X0112889Y0173517D03*
X0112889Y0174184D03*
X0112889Y0174517D03*
X0112889Y0175184D03*
X0112889Y0175517D03*
X0112889Y0176184D03*
X0112889Y0176517D03*
X0112889Y0177184D03*
X0112889Y0177517D03*
X0112889Y0178184D03*
X0112889Y0178517D03*
X0107229Y0175184D03*
X0106889Y0175517D03*
X0107559Y0174184D03*
X0107559Y0173517D03*
X0107559Y0173184D03*
X0106889Y0171517D03*
X0103889Y0171517D03*
X0103559Y0172184D03*
X0101559Y0172184D03*
X0101559Y0172517D03*
X0101559Y0174517D03*
X0101229Y0175184D03*
X0099559Y0176517D03*
X0097889Y0175184D03*
X0097559Y0174517D03*
X0097559Y0172517D03*
X0097559Y0172184D03*
X0095229Y0172184D03*
X0095229Y0172517D03*
X0095229Y0173184D03*
X0095229Y0173517D03*
X0095229Y0174184D03*
X0095229Y0174517D03*
X0095229Y0176184D03*
X0092889Y0176517D03*
X0089559Y0176517D03*
X0088559Y0175517D03*
X0088229Y0175184D03*
X0088229Y0174517D03*
X0088229Y0174184D03*
X0088229Y0173517D03*
X0088229Y0173184D03*
X0088229Y0172517D03*
X0088229Y0172184D03*
X0088229Y0171517D03*
X0088229Y0171184D03*
X0095229Y0171184D03*
X0095229Y0171517D03*
X0099559Y0170517D03*
X0103889Y0175517D03*
X0110229Y0171184D03*
X0119229Y0171517D03*
X0119559Y0172184D03*
X0119559Y0172517D03*
X0121229Y0170517D03*
X0124889Y0178184D03*
X0124889Y0178517D03*
X0131559Y0174517D03*
X0131559Y0172517D03*
X0130889Y0171517D03*
X0131559Y0169517D03*
X0131229Y0169184D03*
X0133889Y0171184D03*
X0133889Y0171517D03*
X0133889Y0172184D03*
X0133889Y0172517D03*
X0133889Y0173184D03*
X0133889Y0173517D03*
X0133889Y0174184D03*
X0133889Y0174517D03*
X0133889Y0175184D03*
X0133889Y0175517D03*
X0133889Y0176184D03*
X0133889Y0178184D03*
X0133889Y0178517D03*
X0136559Y0178517D03*
X0136559Y0178184D03*
X0136559Y0177517D03*
X0136559Y0177184D03*
X0136559Y0176517D03*
X0136559Y0176184D03*
X0136559Y0174517D03*
X0136559Y0174184D03*
X0136559Y0173517D03*
X0136559Y0173184D03*
X0136559Y0172517D03*
X0136559Y0172184D03*
X0136559Y0171184D03*
X0140559Y0172184D03*
X0140559Y0172517D03*
X0140559Y0174517D03*
X0140229Y0175517D03*
X0138889Y0176517D03*
X0146889Y0175517D03*
X0146889Y0175184D03*
X0147889Y0176517D03*
X0150229Y0174517D03*
X0150229Y0174184D03*
X0150229Y0173517D03*
X0150229Y0173184D03*
X0150229Y0172517D03*
X0150229Y0172184D03*
X0150229Y0171517D03*
X0150229Y0171184D03*
X0153559Y0175184D03*
X0151559Y0176517D03*
X0158889Y0172184D03*
X0160889Y0170517D03*
X0162229Y0171517D03*
X0168229Y0171184D03*
X0168229Y0172184D03*
X0168229Y0172517D03*
X0168229Y0173184D03*
X0168229Y0174517D03*
X0168229Y0175184D03*
X0168559Y0175517D03*
X0171559Y0175517D03*
X0171889Y0175184D03*
X0172229Y0172517D03*
X0172229Y0172184D03*
X0171889Y0171517D03*
X0175559Y0175184D03*
X0178229Y0174517D03*
X0178559Y0175184D03*
X0180229Y0176517D03*
X0181889Y0175184D03*
X0182229Y0174517D03*
X0182229Y0172517D03*
X0182229Y0172184D03*
X0184559Y0172184D03*
X0184559Y0172517D03*
X0184559Y0173184D03*
X0184559Y0173517D03*
X0184559Y0174184D03*
X0184559Y0174517D03*
X0184559Y0175184D03*
X0184559Y0175517D03*
X0184559Y0176184D03*
X0184559Y0176517D03*
X0184559Y0177184D03*
X0184559Y0177517D03*
X0184559Y0178184D03*
X0184559Y0178517D03*
X0185229Y0185184D03*
X0185229Y0185517D03*
X0185229Y0186184D03*
X0185229Y0186517D03*
X0185229Y0187184D03*
X0185229Y0187517D03*
X0185229Y0188184D03*
X0185229Y0188517D03*
X0185229Y0189184D03*
X0185229Y0189517D03*
X0185229Y0190184D03*
X0185229Y0190517D03*
X0185229Y0191184D03*
X0185229Y0191517D03*
X0185229Y0192184D03*
X0185229Y0192517D03*
X0188229Y0192517D03*
X0188229Y0192184D03*
X0188229Y0191517D03*
X0188229Y0191184D03*
X0188229Y0190517D03*
X0188229Y0190184D03*
X0188229Y0189517D03*
X0188229Y0189184D03*
X0188229Y0188517D03*
X0188229Y0188184D03*
X0188229Y0187517D03*
X0188229Y0187184D03*
X0188559Y0186184D03*
X0193229Y0186517D03*
X0193559Y0187184D03*
X0193559Y0187517D03*
X0193559Y0188184D03*
X0193559Y0188517D03*
X0193559Y0189184D03*
X0193559Y0189517D03*
X0193559Y0190184D03*
X0193559Y0190517D03*
X0193559Y0191184D03*
X0193559Y0191517D03*
X0193559Y0192184D03*
X0193559Y0192517D03*
X0199559Y0192517D03*
X0199559Y0192184D03*
X0199559Y0191517D03*
X0199559Y0191184D03*
X0199559Y0190517D03*
X0199559Y0190184D03*
X0199559Y0189517D03*
X0199559Y0189184D03*
X0199559Y0188517D03*
X0199559Y0188184D03*
X0199559Y0187517D03*
X0199559Y0187184D03*
X0200889Y0187184D03*
X0201229Y0187517D03*
X0201559Y0188184D03*
X0201889Y0188517D03*
X0202229Y0189184D03*
X0202559Y0189517D03*
X0202889Y0190184D03*
X0203229Y0190517D03*
X0204889Y0190517D03*
X0204889Y0190184D03*
X0204889Y0189517D03*
X0204889Y0189184D03*
X0204889Y0188517D03*
X0204889Y0188184D03*
X0204889Y0187517D03*
X0204889Y0187184D03*
X0204889Y0186517D03*
X0204889Y0186184D03*
X0204889Y0185517D03*
X0204889Y0185184D03*
X0209559Y0185184D03*
X0209559Y0185517D03*
X0209559Y0186184D03*
X0209559Y0186517D03*
X0209559Y0187184D03*
X0209559Y0187517D03*
X0209559Y0188184D03*
X0209559Y0188517D03*
X0209559Y0189184D03*
X0209559Y0189517D03*
X0209559Y0190184D03*
X0209559Y0190517D03*
X0209559Y0191184D03*
X0209559Y0191517D03*
X0216559Y0191517D03*
X0216559Y0191184D03*
X0216559Y0190517D03*
X0216559Y0190184D03*
X0216559Y0189517D03*
X0216559Y0189184D03*
X0216559Y0188517D03*
X0216559Y0188184D03*
X0216559Y0187517D03*
X0216559Y0187184D03*
X0216559Y0186517D03*
X0216559Y0186184D03*
X0216559Y0185517D03*
X0216559Y0185184D03*
X0218889Y0178517D03*
X0218889Y0178184D03*
X0218889Y0177517D03*
X0218889Y0177184D03*
X0218889Y0176517D03*
X0218889Y0176184D03*
X0218889Y0174517D03*
X0218889Y0174184D03*
X0218889Y0173517D03*
X0218889Y0173184D03*
X0218889Y0172517D03*
X0218889Y0172184D03*
X0218889Y0171517D03*
X0218889Y0171184D03*
X0215229Y0171184D03*
X0215229Y0171517D03*
X0215229Y0172184D03*
X0215229Y0172517D03*
X0215229Y0173184D03*
X0215229Y0173517D03*
X0215229Y0174184D03*
X0215229Y0174517D03*
X0215229Y0175184D03*
X0215559Y0175517D03*
X0216559Y0176517D03*
X0209229Y0176517D03*
X0209229Y0177184D03*
X0209229Y0177517D03*
X0209229Y0175517D03*
X0209229Y0175184D03*
X0209229Y0174517D03*
X0209229Y0174184D03*
X0209229Y0173517D03*
X0209229Y0173184D03*
X0209229Y0172517D03*
X0209229Y0172184D03*
X0209229Y0171517D03*
X0208229Y0170517D03*
X0206229Y0172184D03*
X0206229Y0172517D03*
X0206229Y0174517D03*
X0204229Y0176517D03*
X0202889Y0175517D03*
X0202559Y0175184D03*
X0202229Y0174184D03*
X0202229Y0173517D03*
X0202229Y0173184D03*
X0202889Y0171517D03*
X0204229Y0170517D03*
X0199889Y0171517D03*
X0196889Y0171517D03*
X0196559Y0172184D03*
X0196559Y0172517D03*
X0196889Y0175184D03*
X0197229Y0175517D03*
X0200229Y0175184D03*
X0200229Y0174517D03*
X0193889Y0176184D03*
X0193889Y0171184D03*
X0184559Y0171184D03*
X0184559Y0171517D03*
X0180229Y0170517D03*
X0178229Y0172184D03*
X0178229Y0172517D03*
X0175889Y0185184D03*
X0175889Y0185517D03*
X0175889Y0186184D03*
X0175889Y0186517D03*
X0175889Y0187184D03*
X0175889Y0187517D03*
X0175889Y0188184D03*
X0175889Y0188517D03*
X0175889Y0189184D03*
X0175889Y0189517D03*
X0179229Y0189184D03*
X0182889Y0189184D03*
X0182889Y0188517D03*
X0182889Y0188184D03*
X0182889Y0187517D03*
X0182889Y0187184D03*
X0182889Y0186517D03*
X0182889Y0186184D03*
X0182889Y0185517D03*
X0182889Y0185184D03*
X0182889Y0190184D03*
X0182889Y0190517D03*
X0169889Y0190517D03*
X0169889Y0190184D03*
X0169889Y0189517D03*
X0169889Y0189184D03*
X0169889Y0188517D03*
X0169889Y0188184D03*
X0169889Y0187517D03*
X0169889Y0187184D03*
X0169889Y0186517D03*
X0169889Y0186184D03*
X0169889Y0185517D03*
X0169889Y0185184D03*
X0167229Y0186184D03*
X0167229Y0186517D03*
X0167559Y0187517D03*
X0167889Y0188517D03*
X0165559Y0188184D03*
X0165229Y0189184D03*
X0164889Y0190184D03*
X0164889Y0190517D03*
X0164559Y0191517D03*
X0163229Y0191517D03*
X0163229Y0191184D03*
X0163229Y0190517D03*
X0163229Y0190184D03*
X0163229Y0189517D03*
X0163229Y0189184D03*
X0163229Y0188517D03*
X0163229Y0188184D03*
X0163229Y0187517D03*
X0163229Y0187184D03*
X0163229Y0186517D03*
X0163229Y0186184D03*
X0163229Y0185517D03*
X0163229Y0185184D03*
X0160559Y0185184D03*
X0160559Y0185517D03*
X0160559Y0186184D03*
X0160559Y0186517D03*
X0160559Y0187184D03*
X0160559Y0187517D03*
X0160559Y0188184D03*
X0160559Y0188517D03*
X0160559Y0189184D03*
X0160559Y0189517D03*
X0160559Y0190184D03*
X0160559Y0190517D03*
X0160559Y0192184D03*
X0160559Y0192517D03*
X0157889Y0189517D03*
X0157889Y0189184D03*
X0154559Y0189517D03*
X0151559Y0189517D03*
X0151559Y0189184D03*
X0151559Y0188517D03*
X0151559Y0188184D03*
X0151559Y0187517D03*
X0151559Y0187184D03*
X0151559Y0186517D03*
X0151559Y0186184D03*
X0151559Y0185517D03*
X0151559Y0185184D03*
X0151559Y0190184D03*
X0151559Y0190517D03*
X0151559Y0192184D03*
X0151559Y0192517D03*
X0145889Y0190517D03*
X0145889Y0190184D03*
X0145889Y0189517D03*
X0145889Y0189184D03*
X0145889Y0188517D03*
X0145889Y0188184D03*
X0145889Y0187517D03*
X0145889Y0187184D03*
X0145889Y0186517D03*
X0145889Y0186184D03*
X0145889Y0185517D03*
X0145889Y0185184D03*
X0142229Y0187517D03*
X0141889Y0187184D03*
X0142559Y0188184D03*
X0142889Y0188517D03*
X0143229Y0189184D03*
X0143559Y0189517D03*
X0143889Y0190184D03*
X0144229Y0190517D03*
X0140559Y0190517D03*
X0140559Y0190184D03*
X0140559Y0189517D03*
X0140559Y0189184D03*
X0140559Y0188517D03*
X0140559Y0188184D03*
X0140559Y0187517D03*
X0140559Y0187184D03*
X0140559Y0185184D03*
X0137889Y0186517D03*
X0137559Y0186184D03*
X0137889Y0189184D03*
X0137559Y0189517D03*
X0140559Y0191184D03*
X0140559Y0191517D03*
X0140559Y0192184D03*
X0140559Y0192517D03*
X0134229Y0189517D03*
X0133889Y0189184D03*
X0131889Y0188517D03*
X0131889Y0188184D03*
X0131889Y0187517D03*
X0131889Y0187184D03*
X0131559Y0186184D03*
X0133889Y0186517D03*
X0134229Y0186184D03*
X0131559Y0189517D03*
X0127889Y0189184D03*
X0125559Y0188517D03*
X0125559Y0187517D03*
X0125559Y0187184D03*
X0125229Y0186184D03*
X0127889Y0186184D03*
X0127889Y0186517D03*
X0125229Y0189517D03*
X0121229Y0189184D03*
X0121229Y0186184D03*
X0115229Y0188517D03*
X0115559Y0189517D03*
X0115889Y0190517D03*
X0114889Y0187517D03*
X0112889Y0187184D03*
X0112559Y0188184D03*
X0112229Y0189184D03*
X0111889Y0190184D03*
X0113229Y0186184D03*
X0107559Y0192184D03*
X0100559Y0189517D03*
X0100559Y0189184D03*
X0100559Y0188517D03*
X0100559Y0188184D03*
X0100229Y0186517D03*
X0096559Y0186517D03*
X0096229Y0188184D03*
X0096229Y0188517D03*
X0096229Y0189184D03*
X0096229Y0189517D03*
X0096559Y0191184D03*
X0100229Y0191184D03*
X0103229Y0185517D03*
X0103229Y0185184D03*
X0169889Y0191184D03*
X0169889Y0191517D03*
X0199559Y0185184D03*
D55*
X0201394Y0187850D03*
X0202724Y0189850D03*
X0203394Y0190850D03*
X0204724Y0192850D03*
X0192724Y0185850D03*
X0168394Y0171850D03*
X0157724Y0189850D03*
X0145724Y0192850D03*
X0144394Y0190850D03*
X0143724Y0189850D03*
X0142394Y0187850D03*
X0137394Y0185850D03*
X0134394Y0185850D03*
X0134394Y0189850D03*
X0137394Y0189850D03*
X0123394Y0190850D03*
X0107724Y0191850D03*
X0098394Y0192850D03*
X0098394Y0184850D03*
X0115724Y0171850D03*
X0127724Y0171850D03*
X0136724Y0171850D03*
X0138394Y0110850D03*
X0138724Y0109850D03*
X0139394Y0107850D03*
X0105724Y0078850D03*
X0105724Y0070850D03*
X0105724Y0069850D03*
X0098394Y0069850D03*
X0098394Y0070850D03*
X0085724Y0071850D03*
X0085724Y0062850D03*
X0089394Y0055850D03*
X0089394Y0054850D03*
X0089394Y0053850D03*
X0089394Y0052850D03*
X0089394Y0051850D03*
X0083724Y0035850D03*
X0085724Y0033850D03*
X0132394Y0064850D03*
X0132394Y0067850D03*
X0139724Y0064850D03*
X0141724Y0069850D03*
X0146394Y0069850D03*
X0148394Y0061850D03*
X0139724Y0055850D03*
X0139724Y0054850D03*
X0146394Y0047850D03*
X0141724Y0046850D03*
X0146394Y0034850D03*
X0180394Y0052850D03*
X0175724Y0064850D03*
X0185724Y0074850D03*
X0089394Y0087850D03*
X0089394Y0088850D03*
X0089394Y0089850D03*
D56*
X0085224Y0092517D03*
X0085224Y0101517D03*
X0131894Y0076517D03*
X0131894Y0076184D03*
X0131894Y0064517D03*
X0083894Y0036184D03*
X0191224Y0172517D03*
X0189894Y0177184D03*
X0208894Y0178184D03*
X0212224Y0178184D03*
X0121894Y0178184D03*
X0121224Y0186517D03*
D57*
X0142224Y0115517D03*
X0176224Y0038184D03*
X0176224Y0037517D03*
X0176224Y0037184D03*
X0176224Y0036517D03*
X0176224Y0036184D03*
D58*
X0144059Y0036517D03*
X0144059Y0071184D03*
X0127059Y0101517D03*
X0150059Y0114184D03*
X0184059Y0076517D03*
D59*
X0183724Y0084850D03*
X0185394Y0116850D03*
X0170724Y0170850D03*
X0105394Y0170850D03*
X0086394Y0093850D03*
X0091724Y0036850D03*
X0185394Y0040850D03*
D60*
X0176224Y0037850D03*
X0176224Y0036850D03*
D61*
X0177559Y0047184D03*
X0137559Y0112184D03*
X0089559Y0037184D03*
X0209559Y0192184D03*
X0209559Y0192517D03*
X0216559Y0192517D03*
X0216559Y0192184D03*
D62*
X0126889Y0100850D03*
X0143889Y0092850D03*
X0143889Y0089850D03*
X0144559Y0079850D03*
X0133229Y0072850D03*
X0143889Y0045850D03*
X0178229Y0084850D03*
X0089559Y0037850D03*
X0084889Y0114850D03*
X0084889Y0115850D03*
X0084889Y0118850D03*
X0084889Y0119850D03*
D63*
X0087559Y0074517D03*
X0089559Y0038184D03*
X0140559Y0104184D03*
X0184559Y0117517D03*
X0184559Y0089184D03*
X0198559Y0171184D03*
X0099559Y0171184D03*
D64*
X0101724Y0172850D03*
X0101724Y0173850D03*
X0097394Y0173850D03*
X0097394Y0172850D03*
X0091724Y0172850D03*
X0091724Y0171850D03*
X0091724Y0170850D03*
X0091724Y0173850D03*
X0107394Y0174850D03*
X0115394Y0170850D03*
X0127724Y0169850D03*
X0131724Y0172850D03*
X0131724Y0173850D03*
X0140724Y0173850D03*
X0140724Y0172850D03*
X0146724Y0172850D03*
X0146724Y0171850D03*
X0146724Y0170850D03*
X0146724Y0173850D03*
X0146724Y0174850D03*
X0153724Y0173850D03*
X0153724Y0172850D03*
X0153724Y0171850D03*
X0153724Y0170850D03*
X0158724Y0170850D03*
X0158724Y0172850D03*
X0158724Y0173850D03*
X0158724Y0174850D03*
X0158724Y0175850D03*
X0162394Y0175850D03*
X0162394Y0174850D03*
X0162394Y0173850D03*
X0162394Y0172850D03*
X0165394Y0170850D03*
X0175724Y0170850D03*
X0175724Y0171850D03*
X0175724Y0172850D03*
X0175724Y0173850D03*
X0175724Y0175850D03*
X0182394Y0173850D03*
X0182394Y0172850D03*
X0187394Y0174850D03*
X0187724Y0173850D03*
X0188394Y0171850D03*
X0188394Y0170850D03*
X0190724Y0173850D03*
X0190394Y0175850D03*
X0189724Y0177850D03*
X0186724Y0176850D03*
X0186394Y0177850D03*
X0191394Y0171850D03*
X0191724Y0170850D03*
X0202394Y0174850D03*
X0206394Y0173850D03*
X0206394Y0172850D03*
X0206394Y0170850D03*
X0206394Y0169850D03*
X0206394Y0168850D03*
X0212394Y0171850D03*
X0212394Y0172850D03*
X0212394Y0173850D03*
X0212394Y0174850D03*
X0212394Y0176850D03*
X0212394Y0177850D03*
X0206394Y0175850D03*
X0179394Y0185850D03*
X0179394Y0186850D03*
X0179394Y0187850D03*
X0179394Y0188850D03*
X0167724Y0187850D03*
X0167394Y0186850D03*
X0165394Y0188850D03*
X0164724Y0190850D03*
X0154394Y0188850D03*
X0154394Y0187850D03*
X0154394Y0186850D03*
X0154394Y0185850D03*
X0153724Y0175850D03*
X0133724Y0187850D03*
X0131724Y0186850D03*
X0131724Y0188850D03*
X0127724Y0187850D03*
X0125394Y0186850D03*
X0125394Y0188850D03*
X0127724Y0190850D03*
X0127724Y0191850D03*
X0127724Y0192850D03*
X0115724Y0189850D03*
X0112724Y0187850D03*
X0107394Y0187850D03*
X0107394Y0186850D03*
X0107394Y0185850D03*
X0107394Y0188850D03*
X0107394Y0189850D03*
X0107394Y0190850D03*
X0100394Y0190850D03*
X0100394Y0186850D03*
X0096394Y0186850D03*
X0096394Y0190850D03*
X0172394Y0122850D03*
X0171724Y0121850D03*
X0171394Y0120850D03*
X0169724Y0115850D03*
X0169394Y0114850D03*
X0168724Y0112850D03*
X0168724Y0111850D03*
X0168394Y0110850D03*
X0168394Y0109850D03*
X0167724Y0106850D03*
X0167724Y0105850D03*
X0167724Y0104850D03*
X0167394Y0103850D03*
X0190724Y0115850D03*
X0191394Y0113850D03*
X0191724Y0112850D03*
X0191724Y0111850D03*
X0192394Y0108850D03*
X0192394Y0107850D03*
X0192724Y0106850D03*
X0192724Y0105850D03*
X0189394Y0119850D03*
X0188724Y0121850D03*
X0174394Y0082850D03*
X0135724Y0081850D03*
X0135724Y0076850D03*
X0135394Y0075850D03*
X0133724Y0075850D03*
X0133724Y0076850D03*
X0135724Y0071850D03*
X0133724Y0062850D03*
X0133724Y0061850D03*
X0133724Y0060850D03*
X0135724Y0060850D03*
X0135724Y0061850D03*
X0146394Y0049850D03*
X0085724Y0048850D03*
X0085724Y0038850D03*
D65*
X0180059Y0041517D03*
X0180059Y0057184D03*
X0180059Y0062184D03*
D66*
X0142894Y0066850D03*
X0142894Y0067850D03*
X0142894Y0085850D03*
X0142894Y0086850D03*
X0137894Y0113850D03*
X0180224Y0119850D03*
X0180224Y0105850D03*
X0142894Y0042850D03*
X0142894Y0041850D03*
D67*
X0142894Y0042184D03*
X0142894Y0042517D03*
X0142894Y0067184D03*
X0142894Y0067517D03*
X0142894Y0085517D03*
X0142894Y0086184D03*
X0142894Y0086517D03*
X0137894Y0114184D03*
X0179894Y0079517D03*
D68*
X0180059Y0042517D03*
D69*
X0180224Y0042850D03*
X0180224Y0051850D03*
D70*
X0180229Y0052184D03*
X0180229Y0043184D03*
X0180229Y0106184D03*
X0180229Y0119517D03*
X0086889Y0122517D03*
X0086889Y0123184D03*
X0086889Y0123517D03*
X0086889Y0124184D03*
X0086889Y0112517D03*
X0086889Y0112184D03*
X0086889Y0111517D03*
X0086889Y0111184D03*
D71*
X0137729Y0117517D03*
X0177729Y0085517D03*
X0179729Y0079184D03*
X0180059Y0043517D03*
D72*
X0127559Y0102850D03*
X0140559Y0105850D03*
X0089559Y0044850D03*
X0099559Y0175850D03*
X0198559Y0175850D03*
D73*
X0126724Y0117850D03*
X0102724Y0088850D03*
X0144394Y0044850D03*
D74*
X0144059Y0045517D03*
X0144059Y0055184D03*
X0144059Y0055517D03*
X0144059Y0057517D03*
X0144059Y0061517D03*
X0144059Y0064184D03*
X0144059Y0064517D03*
X0144059Y0065184D03*
X0144059Y0088517D03*
X0144059Y0089184D03*
X0144059Y0089517D03*
X0144059Y0092184D03*
X0144059Y0092517D03*
X0127059Y0117517D03*
X0177059Y0080184D03*
X0183059Y0077184D03*
X0178059Y0046184D03*
D75*
X0186059Y0074517D03*
X0193059Y0103517D03*
X0193059Y0104184D03*
X0193059Y0104517D03*
X0192059Y0110184D03*
X0192059Y0110517D03*
X0192059Y0111184D03*
X0192059Y0111517D03*
X0191059Y0115184D03*
X0191059Y0115517D03*
X0190059Y0118184D03*
X0190059Y0118517D03*
X0187059Y0124517D03*
X0174059Y0125517D03*
X0173059Y0124184D03*
X0172059Y0122517D03*
X0172059Y0122184D03*
X0171059Y0120184D03*
X0170059Y0117517D03*
X0170059Y0117184D03*
X0169059Y0114184D03*
X0169059Y0113517D03*
X0169059Y0113184D03*
X0168059Y0109184D03*
X0168059Y0108517D03*
X0168059Y0108184D03*
X0168059Y0107517D03*
X0132059Y0089517D03*
X0132059Y0089184D03*
X0132059Y0088517D03*
X0132059Y0084184D03*
X0132059Y0083517D03*
X0132059Y0082517D03*
X0132059Y0082184D03*
X0132059Y0081517D03*
X0132059Y0077517D03*
X0132059Y0077184D03*
X0132059Y0073517D03*
X0132059Y0073184D03*
X0132059Y0072184D03*
X0132059Y0071517D03*
X0132059Y0071184D03*
X0132059Y0068184D03*
X0132059Y0062517D03*
X0132059Y0062184D03*
X0132059Y0061517D03*
X0132059Y0061184D03*
X0144059Y0072184D03*
X0144059Y0047517D03*
X0144059Y0047184D03*
X0144059Y0046517D03*
X0144059Y0046184D03*
X0106059Y0083184D03*
X0156059Y0171184D03*
X0156059Y0171517D03*
X0156059Y0172184D03*
X0156059Y0172517D03*
X0156059Y0173184D03*
X0156059Y0173517D03*
X0156059Y0174184D03*
X0156059Y0174517D03*
X0156059Y0175184D03*
X0156059Y0175517D03*
X0156059Y0176184D03*
X0156059Y0176517D03*
X0156059Y0177184D03*
X0156059Y0177517D03*
X0156059Y0178184D03*
X0156059Y0178517D03*
X0158059Y0185184D03*
X0158059Y0185517D03*
X0158059Y0186184D03*
X0158059Y0186517D03*
X0158059Y0187184D03*
X0158059Y0187517D03*
X0158059Y0188184D03*
X0158059Y0188517D03*
X0158059Y0190184D03*
X0158059Y0190517D03*
X0165059Y0189517D03*
X0168059Y0189517D03*
X0168059Y0189184D03*
X0166059Y0186517D03*
X0166059Y0186184D03*
X0174059Y0176517D03*
X0178059Y0174184D03*
X0178059Y0173517D03*
X0178059Y0173184D03*
X0187059Y0175517D03*
X0187059Y0176184D03*
X0187059Y0176517D03*
X0190059Y0176517D03*
X0190059Y0176184D03*
X0191059Y0173517D03*
X0191059Y0173184D03*
X0188059Y0172517D03*
X0188059Y0172184D03*
X0200059Y0175517D03*
X0138059Y0187184D03*
X0138059Y0187517D03*
X0138059Y0188184D03*
X0138059Y0188517D03*
X0121059Y0188517D03*
X0115059Y0188184D03*
X0113059Y0186517D03*
X0112059Y0189517D03*
X0100059Y0191517D03*
X0100059Y0186184D03*
D76*
X0177894Y0085184D03*
X0144224Y0084184D03*
X0144224Y0083517D03*
X0144224Y0083184D03*
X0144224Y0080517D03*
X0144224Y0077517D03*
X0144224Y0077184D03*
X0177894Y0046517D03*
D77*
X0144059Y0046850D03*
X0132059Y0061850D03*
X0132059Y0071850D03*
X0132059Y0073850D03*
X0132059Y0075850D03*
X0132059Y0081850D03*
X0132059Y0083850D03*
X0132059Y0088850D03*
X0132059Y0089850D03*
X0168059Y0107850D03*
X0168059Y0108850D03*
X0169059Y0113850D03*
X0171059Y0119850D03*
X0188059Y0122850D03*
X0189059Y0120850D03*
X0191059Y0114850D03*
X0192059Y0110850D03*
X0193059Y0104850D03*
X0193059Y0103850D03*
X0186059Y0082850D03*
X0168059Y0170850D03*
X0178059Y0172850D03*
X0178059Y0173850D03*
X0187059Y0175850D03*
X0188059Y0172850D03*
X0191059Y0172850D03*
X0190059Y0176850D03*
X0165059Y0189850D03*
X0158059Y0188850D03*
X0158059Y0187850D03*
X0158059Y0186850D03*
X0158059Y0185850D03*
X0156059Y0177850D03*
X0156059Y0176850D03*
X0156059Y0175850D03*
X0156059Y0174850D03*
X0156059Y0173850D03*
X0156059Y0172850D03*
X0156059Y0171850D03*
X0156059Y0170850D03*
X0138059Y0187850D03*
X0121059Y0188850D03*
X0113059Y0186850D03*
D78*
X0137059Y0111850D03*
X0177729Y0046850D03*
D79*
X0184224Y0047184D03*
X0175894Y0076517D03*
X0175894Y0081184D03*
X0175894Y0086517D03*
X0175894Y0089184D03*
X0180224Y0091517D03*
X0184224Y0085517D03*
X0137894Y0111517D03*
X0126894Y0119184D03*
X0127224Y0102517D03*
X0126894Y0099184D03*
X0134224Y0087517D03*
X0133894Y0063184D03*
X0103224Y0085517D03*
X0103224Y0089517D03*
X0090894Y0079517D03*
X0087894Y0078184D03*
X0091224Y0069517D03*
X0180224Y0171184D03*
X0190894Y0185184D03*
X0135894Y0185517D03*
X0135894Y0190184D03*
X0123224Y0190184D03*
X0123224Y0185517D03*
D80*
X0127724Y0117184D03*
X0177394Y0086184D03*
X0143394Y0051517D03*
X0177394Y0047517D03*
D81*
X0144059Y0071850D03*
X0104059Y0084850D03*
X0092059Y0096850D03*
X0090059Y0095850D03*
X0088059Y0094850D03*
X0087059Y0047850D03*
X0150059Y0116850D03*
D82*
X0141724Y0126850D03*
X0141724Y0128850D03*
X0140394Y0103850D03*
X0103724Y0089850D03*
X0100394Y0086850D03*
X0090724Y0097850D03*
X0088724Y0098850D03*
X0086724Y0099850D03*
X0089394Y0066850D03*
X0175724Y0047850D03*
X0184724Y0075850D03*
X0105394Y0175850D03*
D83*
X0085889Y0122184D03*
X0085889Y0121517D03*
X0085889Y0121184D03*
X0085889Y0120517D03*
X0085889Y0114184D03*
X0085889Y0113517D03*
X0085889Y0113184D03*
X0104889Y0114517D03*
X0104889Y0115184D03*
X0104889Y0115517D03*
X0104889Y0116184D03*
X0104889Y0116517D03*
X0104889Y0117184D03*
X0104889Y0117517D03*
X0104889Y0118184D03*
X0137889Y0113184D03*
X0101229Y0082184D03*
X0143229Y0051184D03*
X0144889Y0058184D03*
X0180229Y0052517D03*
D84*
X0180229Y0051517D03*
X0180889Y0055184D03*
X0180889Y0060184D03*
X0180229Y0090184D03*
D85*
X0137724Y0112850D03*
X0143394Y0051850D03*
D86*
X0143224Y0052184D03*
X0137894Y0112517D03*
X0137894Y0117184D03*
D87*
X0180559Y0055517D03*
D88*
X0180389Y0055850D03*
X0180389Y0060850D03*
D89*
X0145059Y0058517D03*
D90*
X0145229Y0058850D03*
X0101229Y0075850D03*
X0085889Y0112850D03*
X0085889Y0113850D03*
X0085889Y0120850D03*
X0085889Y0121850D03*
X0104889Y0117850D03*
X0104889Y0116850D03*
X0104889Y0115850D03*
X0104889Y0114850D03*
X0137889Y0116850D03*
X0180229Y0112850D03*
D91*
X0169394Y0114517D03*
X0169394Y0115184D03*
X0169394Y0115517D03*
X0169724Y0116184D03*
X0169724Y0116517D03*
X0170394Y0118184D03*
X0170394Y0118517D03*
X0170724Y0119184D03*
X0170724Y0119517D03*
X0171394Y0121184D03*
X0171724Y0121517D03*
X0172724Y0123517D03*
X0173394Y0124517D03*
X0173724Y0125184D03*
X0186394Y0125517D03*
X0186724Y0125184D03*
X0187394Y0124184D03*
X0187724Y0123517D03*
X0188394Y0122517D03*
X0188394Y0122184D03*
X0188724Y0121517D03*
X0189394Y0120184D03*
X0189724Y0119517D03*
X0189724Y0119184D03*
X0190394Y0117517D03*
X0190394Y0117184D03*
X0190724Y0116517D03*
X0190724Y0116184D03*
X0191394Y0114184D03*
X0191394Y0113517D03*
X0191394Y0113184D03*
X0191724Y0112517D03*
X0191724Y0112184D03*
X0192394Y0109517D03*
X0192394Y0109184D03*
X0192394Y0108517D03*
X0192394Y0108184D03*
X0192724Y0107517D03*
X0192724Y0107184D03*
X0192724Y0106517D03*
X0192724Y0106184D03*
X0192724Y0105517D03*
X0192724Y0105184D03*
X0182724Y0084184D03*
X0167394Y0103517D03*
X0167394Y0104184D03*
X0167724Y0104517D03*
X0167724Y0105184D03*
X0167724Y0105517D03*
X0167724Y0106184D03*
X0167724Y0106517D03*
X0167724Y0107184D03*
X0168394Y0110184D03*
X0168394Y0110517D03*
X0168394Y0111184D03*
X0168724Y0111517D03*
X0168724Y0112184D03*
X0168724Y0112517D03*
X0135724Y0082184D03*
X0135724Y0081517D03*
X0135724Y0077184D03*
X0135724Y0076517D03*
X0135724Y0076184D03*
X0133724Y0076184D03*
X0133724Y0076517D03*
X0133724Y0077184D03*
X0133724Y0075517D03*
X0135724Y0071517D03*
X0135724Y0071184D03*
X0135724Y0062517D03*
X0135724Y0062184D03*
X0135724Y0061517D03*
X0135724Y0061184D03*
X0135724Y0060517D03*
X0133724Y0061184D03*
X0133724Y0061517D03*
X0133724Y0062184D03*
X0133724Y0062517D03*
X0148394Y0062184D03*
X0206394Y0168517D03*
X0206394Y0169184D03*
X0206394Y0169517D03*
X0206394Y0170184D03*
X0206394Y0170517D03*
X0206394Y0171184D03*
X0206394Y0173184D03*
X0206394Y0173517D03*
X0206394Y0174184D03*
X0206394Y0176184D03*
X0202394Y0174517D03*
X0202394Y0172517D03*
X0202394Y0172184D03*
X0200394Y0172184D03*
X0191724Y0171184D03*
X0191394Y0171517D03*
X0191394Y0172184D03*
X0190724Y0174184D03*
X0190724Y0174517D03*
X0190394Y0175184D03*
X0190394Y0175517D03*
X0189724Y0177517D03*
X0189724Y0178184D03*
X0189394Y0178517D03*
X0186724Y0177517D03*
X0186724Y0177184D03*
X0186394Y0178184D03*
X0186394Y0178517D03*
X0187394Y0175184D03*
X0187394Y0174517D03*
X0187724Y0174184D03*
X0187724Y0173517D03*
X0187724Y0173184D03*
X0188394Y0171517D03*
X0188394Y0171184D03*
X0182394Y0173184D03*
X0182394Y0173517D03*
X0182394Y0174184D03*
X0175724Y0174184D03*
X0175724Y0174517D03*
X0175724Y0173517D03*
X0175724Y0173184D03*
X0175724Y0172517D03*
X0175724Y0172184D03*
X0175724Y0171517D03*
X0175724Y0171184D03*
X0175724Y0176184D03*
X0179394Y0185184D03*
X0179394Y0185517D03*
X0179394Y0186184D03*
X0179394Y0186517D03*
X0179394Y0187184D03*
X0179394Y0187517D03*
X0179394Y0188184D03*
X0179394Y0188517D03*
X0168724Y0191184D03*
X0168724Y0191517D03*
X0168394Y0190517D03*
X0168394Y0190184D03*
X0167724Y0188184D03*
X0167394Y0187184D03*
X0165724Y0187184D03*
X0165724Y0187517D03*
X0165394Y0188517D03*
X0164724Y0191184D03*
X0154394Y0189184D03*
X0154394Y0188517D03*
X0154394Y0188184D03*
X0154394Y0187517D03*
X0154394Y0187184D03*
X0154394Y0186517D03*
X0154394Y0186184D03*
X0154394Y0185517D03*
X0154394Y0185184D03*
X0153724Y0176184D03*
X0153724Y0174517D03*
X0153724Y0174184D03*
X0153724Y0173517D03*
X0153724Y0173184D03*
X0153724Y0172517D03*
X0153724Y0172184D03*
X0153724Y0171517D03*
X0153724Y0171184D03*
X0158724Y0171184D03*
X0158724Y0172517D03*
X0158724Y0173184D03*
X0158724Y0173517D03*
X0158724Y0174184D03*
X0158724Y0174517D03*
X0158724Y0175184D03*
X0158724Y0175517D03*
X0158724Y0176184D03*
X0162394Y0176184D03*
X0162394Y0175517D03*
X0162394Y0175184D03*
X0162394Y0174517D03*
X0162394Y0174184D03*
X0162394Y0173517D03*
X0162394Y0173184D03*
X0162394Y0172517D03*
X0162394Y0172184D03*
X0165394Y0171184D03*
X0146724Y0171184D03*
X0146724Y0171517D03*
X0146724Y0172184D03*
X0146724Y0172517D03*
X0146724Y0173184D03*
X0146724Y0173517D03*
X0146724Y0174184D03*
X0146724Y0174517D03*
X0140724Y0174184D03*
X0140724Y0173517D03*
X0140724Y0173184D03*
X0140394Y0175184D03*
X0131724Y0174184D03*
X0131724Y0173517D03*
X0131724Y0173184D03*
X0131394Y0172184D03*
X0131394Y0175184D03*
X0127724Y0185184D03*
X0127724Y0185517D03*
X0127724Y0187184D03*
X0127724Y0187517D03*
X0127724Y0188184D03*
X0127724Y0188517D03*
X0127724Y0190184D03*
X0127724Y0190517D03*
X0127724Y0191184D03*
X0127724Y0191517D03*
X0127724Y0192184D03*
X0127724Y0192517D03*
X0125394Y0189184D03*
X0125394Y0186517D03*
X0121394Y0189517D03*
X0115724Y0190184D03*
X0115394Y0189184D03*
X0114724Y0187184D03*
X0114394Y0186517D03*
X0114394Y0186184D03*
X0112724Y0187517D03*
X0112394Y0188517D03*
X0111724Y0190517D03*
X0109394Y0190517D03*
X0107394Y0190517D03*
X0107394Y0190184D03*
X0107394Y0189517D03*
X0107394Y0189184D03*
X0107394Y0188517D03*
X0107394Y0188184D03*
X0107394Y0187517D03*
X0107394Y0187184D03*
X0107394Y0186517D03*
X0107394Y0186184D03*
X0107394Y0185517D03*
X0107394Y0185184D03*
X0100394Y0187184D03*
X0100394Y0187517D03*
X0100394Y0190184D03*
X0100394Y0190517D03*
X0096724Y0191517D03*
X0096394Y0190517D03*
X0096394Y0190184D03*
X0096394Y0187517D03*
X0096394Y0187184D03*
X0096724Y0186184D03*
X0107394Y0191184D03*
X0107394Y0192517D03*
X0103724Y0175184D03*
X0101724Y0174184D03*
X0101724Y0173517D03*
X0101724Y0173184D03*
X0097394Y0173184D03*
X0097394Y0173517D03*
X0097394Y0174184D03*
X0091724Y0174184D03*
X0091724Y0174517D03*
X0091724Y0173517D03*
X0091724Y0173184D03*
X0091724Y0172517D03*
X0091724Y0172184D03*
X0091724Y0171517D03*
X0091724Y0171184D03*
X0107394Y0172184D03*
X0107394Y0172517D03*
X0107394Y0174517D03*
X0131724Y0186517D03*
X0133724Y0187184D03*
X0133724Y0187517D03*
X0133724Y0188184D03*
X0133724Y0188517D03*
X0131724Y0189184D03*
X0212394Y0177517D03*
X0212394Y0177184D03*
X0212394Y0176517D03*
X0212394Y0175517D03*
X0212394Y0175184D03*
X0212394Y0174517D03*
X0212394Y0174184D03*
X0212394Y0173517D03*
X0212394Y0173184D03*
X0212394Y0172517D03*
X0212394Y0172184D03*
X0212394Y0171517D03*
D92*
X0180724Y0060517D03*
D93*
X0175394Y0062517D03*
X0184724Y0081517D03*
X0184724Y0110517D03*
X0129724Y0168517D03*
X0117394Y0176184D03*
X0105394Y0171184D03*
X0098394Y0185517D03*
X0098394Y0192184D03*
X0170724Y0171184D03*
X0087394Y0099517D03*
X0089394Y0098517D03*
X0091394Y0097517D03*
X0091394Y0096517D03*
X0090724Y0096184D03*
X0089394Y0095517D03*
X0088724Y0095184D03*
X0087394Y0094517D03*
X0086724Y0094184D03*
X0099394Y0087517D03*
X0099724Y0087184D03*
X0103394Y0085184D03*
X0104724Y0084517D03*
X0104394Y0090184D03*
D94*
X0137724Y0113517D03*
X0180394Y0091184D03*
X0142724Y0068184D03*
D95*
X0133394Y0072517D03*
X0144394Y0080184D03*
X0176724Y0077184D03*
X0183394Y0080517D03*
X0100394Y0075184D03*
X0123394Y0188184D03*
D96*
X0119224Y0174850D03*
X0131894Y0169850D03*
X0103894Y0174850D03*
X0107224Y0192850D03*
X0171894Y0174850D03*
X0192224Y0109850D03*
X0174224Y0074850D03*
X0131894Y0076850D03*
X0106224Y0091850D03*
D97*
X0101059Y0082517D03*
X0101059Y0075517D03*
X0180059Y0078184D03*
D98*
X0101559Y0076184D03*
D99*
X0101729Y0076517D03*
X0101729Y0081517D03*
D100*
X0100394Y0082850D03*
X0137724Y0117850D03*
X0144394Y0076850D03*
X0183724Y0076850D03*
X0123394Y0187850D03*
D101*
X0180059Y0077517D03*
D102*
X0180059Y0077850D03*
X0102059Y0092850D03*
X0102059Y0093850D03*
X0102059Y0098850D03*
X0102059Y0099850D03*
D103*
X0086889Y0110850D03*
X0086889Y0111850D03*
X0086889Y0122850D03*
X0086889Y0123850D03*
X0180229Y0090850D03*
X0179889Y0079850D03*
D104*
X0144224Y0080850D03*
X0144224Y0082850D03*
X0144224Y0083850D03*
X0133224Y0082850D03*
D105*
X0101559Y0081850D03*
D106*
X0089394Y0082517D03*
X0089394Y0083184D03*
X0089394Y0083517D03*
X0089394Y0090184D03*
X0089394Y0090517D03*
X0089394Y0091184D03*
X0089394Y0091517D03*
D107*
X0089394Y0090850D03*
X0089394Y0083850D03*
X0089394Y0082850D03*
D108*
X0180224Y0089850D03*
D109*
X0180059Y0112517D03*
X0102059Y0100184D03*
X0102059Y0099517D03*
X0102059Y0099184D03*
X0102059Y0094184D03*
X0102059Y0093517D03*
X0102059Y0093184D03*
D110*
X0178389Y0094184D03*
X0178389Y0094517D03*
X0178389Y0095184D03*
X0178389Y0095517D03*
X0178389Y0096184D03*
D111*
X0178389Y0095850D03*
X0178389Y0094850D03*
D112*
X0095389Y0106850D03*
X0095389Y0107850D03*
X0095389Y0108850D03*
X0095389Y0109850D03*
X0095389Y0124850D03*
D113*
X0095389Y0124517D03*
X0095389Y0125184D03*
X0095389Y0125517D03*
X0095389Y0110517D03*
X0095389Y0110184D03*
X0095389Y0109517D03*
X0095389Y0109184D03*
X0095389Y0108517D03*
X0095389Y0108184D03*
X0095389Y0107517D03*
X0095389Y0107184D03*
D114*
X0180224Y0112184D03*
D115*
X0143224Y0114517D03*
D116*
X0143224Y0114850D03*
D117*
X0143059Y0115184D03*
D118*
X0135389Y0116184D03*
D119*
X0133059Y0116517D03*
D120*
X0190559Y0174850D03*
D121*
X0100950Y0016186D02*
X0100867Y0016131D01*
X0100782Y0016079D01*
X0100695Y0016030D01*
X0100606Y0015985D01*
X0100515Y0015943D01*
X0100424Y0015904D01*
X0100330Y0015869D01*
X0100236Y0015838D01*
X0100140Y0015810D01*
X0100043Y0015786D01*
X0099946Y0015765D01*
X0099847Y0015748D01*
X0099748Y0015735D01*
X0099649Y0015726D01*
X0099550Y0015720D01*
X0099450Y0015718D01*
X0099350Y0015720D01*
X0099251Y0015726D01*
X0099152Y0015735D01*
X0099053Y0015748D01*
X0098954Y0015765D01*
X0098857Y0015786D01*
X0098760Y0015810D01*
X0098664Y0015838D01*
X0098570Y0015869D01*
X0098476Y0015904D01*
X0098385Y0015943D01*
X0098294Y0015985D01*
X0098205Y0016030D01*
X0098118Y0016079D01*
X0098033Y0016131D01*
X0097950Y0016186D01*
X0095250Y0013185D02*
X0095364Y0013074D01*
X0095480Y0012966D01*
X0095599Y0012861D01*
X0095720Y0012759D01*
X0095844Y0012660D01*
X0095971Y0012565D01*
X0096100Y0012472D01*
X0096231Y0012383D01*
X0096364Y0012296D01*
X0096500Y0012214D01*
X0096637Y0012134D01*
X0096776Y0012058D01*
X0096917Y0011986D01*
X0097060Y0011917D01*
X0097205Y0011852D01*
X0097351Y0011790D01*
X0097499Y0011732D01*
X0097648Y0011678D01*
X0097799Y0011628D01*
X0097950Y0011581D01*
X0098103Y0011538D01*
X0098257Y0011499D01*
X0098411Y0011463D01*
X0098567Y0011432D01*
X0098723Y0011404D01*
X0098880Y0011381D01*
X0099037Y0011361D01*
X0099195Y0011345D01*
X0099354Y0011333D01*
X0099512Y0011325D01*
X0099671Y0011321D01*
X0099829Y0011321D01*
X0099988Y0011325D01*
X0100146Y0011333D01*
X0100305Y0011345D01*
X0100463Y0011361D01*
X0100620Y0011381D01*
X0100777Y0011404D01*
X0100933Y0011432D01*
X0101089Y0011463D01*
X0101243Y0011499D01*
X0101397Y0011538D01*
X0101550Y0011581D01*
X0101701Y0011628D01*
X0101852Y0011678D01*
X0102001Y0011732D01*
X0102149Y0011790D01*
X0102295Y0011852D01*
X0102440Y0011917D01*
X0102583Y0011986D01*
X0102724Y0012058D01*
X0102863Y0012134D01*
X0103000Y0012214D01*
X0103136Y0012296D01*
X0103269Y0012383D01*
X0103400Y0012472D01*
X0103529Y0012565D01*
X0103656Y0012660D01*
X0103780Y0012759D01*
X0103901Y0012861D01*
X0104020Y0012966D01*
X0104136Y0013074D01*
X0104250Y0013185D01*
X0102550Y0014735D02*
X0102452Y0014647D01*
X0102350Y0014563D01*
X0102247Y0014482D01*
X0102141Y0014403D01*
X0102033Y0014328D01*
X0101922Y0014256D01*
X0101810Y0014188D01*
X0101696Y0014123D01*
X0101579Y0014061D01*
X0101461Y0014002D01*
X0101342Y0013948D01*
X0101220Y0013896D01*
X0101097Y0013849D01*
X0100973Y0013805D01*
X0100848Y0013765D01*
X0100721Y0013728D01*
X0100594Y0013695D01*
X0100465Y0013666D01*
X0100336Y0013641D01*
X0100206Y0013620D01*
X0100076Y0013602D01*
X0099945Y0013589D01*
X0099813Y0013579D01*
X0099682Y0013573D01*
X0099550Y0013571D01*
X0099418Y0013573D01*
X0099287Y0013579D01*
X0099155Y0013589D01*
X0099024Y0013602D01*
X0098894Y0013620D01*
X0098764Y0013641D01*
X0098635Y0013666D01*
X0098506Y0013695D01*
X0098379Y0013728D01*
X0098252Y0013765D01*
X0098127Y0013805D01*
X0098003Y0013849D01*
X0097880Y0013896D01*
X0097758Y0013948D01*
X0097639Y0014002D01*
X0097521Y0014061D01*
X0097404Y0014123D01*
X0097290Y0014188D01*
X0097178Y0014256D01*
X0097067Y0014328D01*
X0096959Y0014403D01*
X0096853Y0014482D01*
X0096750Y0014563D01*
X0096648Y0014647D01*
X0096550Y0014735D01*
M02*
