G75*
%MOIN*%
%OFA0B0*%
%FSLAX25Y25*%
%IPPOS*%
%LPD*%
%AMOC8*
5,1,8,0,0,1.08239X$1,22.5*
%
%ADD10C,0.00000*%
%ADD11C,0.12211*%
%ADD12R,0.05518X0.06306*%
%ADD13R,0.06306X0.05518*%
%ADD14R,0.06699X0.05912*%
%ADD15R,0.03550X0.03550*%
%ADD16C,0.06337*%
%ADD17R,0.05900X0.01770*%
%ADD18C,0.01614*%
%ADD19R,0.10243X0.02369*%
%ADD20R,0.10243X0.08274*%
%ADD21R,0.02565X0.05124*%
%ADD22R,0.18510X0.04337*%
%ADD23R,0.13786X0.06699*%
%ADD24R,0.05912X0.05912*%
%ADD25R,0.04731X0.04337*%
%ADD26C,0.00880*%
%ADD27C,0.05400*%
%ADD28R,0.06400X0.17400*%
%ADD29R,0.03550X0.08274*%
%ADD30C,0.05124*%
%ADD31C,0.04534*%
D10*
X0005457Y0022435D02*
X0026291Y0026394D01*
X0046791Y0030019D01*
X0046860Y0031852D01*
X0046930Y0032019D01*
X0059694Y0032505D01*
X0072124Y0032991D01*
X0072100Y0032985D02*
X0072125Y0058990D01*
X0072124Y0058963D02*
X0072124Y0084935D01*
X0052124Y0088685D01*
X0052124Y0199797D01*
X0228374Y0199797D01*
X0228374Y0006741D01*
X0167819Y0006394D01*
X0107263Y0006047D01*
X0074902Y0009419D01*
X0074902Y0012574D01*
X0060805Y0013130D01*
X0046707Y0013685D01*
X0046707Y0015908D01*
X0005457Y0022435D01*
X0070553Y0022850D02*
X0070555Y0023003D01*
X0070561Y0023157D01*
X0070571Y0023310D01*
X0070585Y0023462D01*
X0070603Y0023615D01*
X0070625Y0023766D01*
X0070650Y0023917D01*
X0070680Y0024068D01*
X0070714Y0024218D01*
X0070751Y0024366D01*
X0070792Y0024514D01*
X0070837Y0024660D01*
X0070886Y0024806D01*
X0070939Y0024950D01*
X0070995Y0025092D01*
X0071055Y0025233D01*
X0071119Y0025373D01*
X0071186Y0025511D01*
X0071257Y0025647D01*
X0071332Y0025781D01*
X0071409Y0025913D01*
X0071491Y0026043D01*
X0071575Y0026171D01*
X0071663Y0026297D01*
X0071754Y0026420D01*
X0071848Y0026541D01*
X0071946Y0026659D01*
X0072046Y0026775D01*
X0072150Y0026888D01*
X0072256Y0026999D01*
X0072365Y0027107D01*
X0072477Y0027212D01*
X0072591Y0027313D01*
X0072709Y0027412D01*
X0072828Y0027508D01*
X0072950Y0027601D01*
X0073075Y0027690D01*
X0073202Y0027777D01*
X0073331Y0027859D01*
X0073462Y0027939D01*
X0073595Y0028015D01*
X0073730Y0028088D01*
X0073867Y0028157D01*
X0074006Y0028222D01*
X0074146Y0028284D01*
X0074288Y0028342D01*
X0074431Y0028397D01*
X0074576Y0028448D01*
X0074722Y0028495D01*
X0074869Y0028538D01*
X0075017Y0028577D01*
X0075166Y0028613D01*
X0075316Y0028644D01*
X0075467Y0028672D01*
X0075618Y0028696D01*
X0075771Y0028716D01*
X0075923Y0028732D01*
X0076076Y0028744D01*
X0076229Y0028752D01*
X0076382Y0028756D01*
X0076536Y0028756D01*
X0076689Y0028752D01*
X0076842Y0028744D01*
X0076995Y0028732D01*
X0077147Y0028716D01*
X0077300Y0028696D01*
X0077451Y0028672D01*
X0077602Y0028644D01*
X0077752Y0028613D01*
X0077901Y0028577D01*
X0078049Y0028538D01*
X0078196Y0028495D01*
X0078342Y0028448D01*
X0078487Y0028397D01*
X0078630Y0028342D01*
X0078772Y0028284D01*
X0078912Y0028222D01*
X0079051Y0028157D01*
X0079188Y0028088D01*
X0079323Y0028015D01*
X0079456Y0027939D01*
X0079587Y0027859D01*
X0079716Y0027777D01*
X0079843Y0027690D01*
X0079968Y0027601D01*
X0080090Y0027508D01*
X0080209Y0027412D01*
X0080327Y0027313D01*
X0080441Y0027212D01*
X0080553Y0027107D01*
X0080662Y0026999D01*
X0080768Y0026888D01*
X0080872Y0026775D01*
X0080972Y0026659D01*
X0081070Y0026541D01*
X0081164Y0026420D01*
X0081255Y0026297D01*
X0081343Y0026171D01*
X0081427Y0026043D01*
X0081509Y0025913D01*
X0081586Y0025781D01*
X0081661Y0025647D01*
X0081732Y0025511D01*
X0081799Y0025373D01*
X0081863Y0025233D01*
X0081923Y0025092D01*
X0081979Y0024950D01*
X0082032Y0024806D01*
X0082081Y0024660D01*
X0082126Y0024514D01*
X0082167Y0024366D01*
X0082204Y0024218D01*
X0082238Y0024068D01*
X0082268Y0023917D01*
X0082293Y0023766D01*
X0082315Y0023615D01*
X0082333Y0023462D01*
X0082347Y0023310D01*
X0082357Y0023157D01*
X0082363Y0023003D01*
X0082365Y0022850D01*
X0082363Y0022697D01*
X0082357Y0022543D01*
X0082347Y0022390D01*
X0082333Y0022238D01*
X0082315Y0022085D01*
X0082293Y0021934D01*
X0082268Y0021783D01*
X0082238Y0021632D01*
X0082204Y0021482D01*
X0082167Y0021334D01*
X0082126Y0021186D01*
X0082081Y0021040D01*
X0082032Y0020894D01*
X0081979Y0020750D01*
X0081923Y0020608D01*
X0081863Y0020467D01*
X0081799Y0020327D01*
X0081732Y0020189D01*
X0081661Y0020053D01*
X0081586Y0019919D01*
X0081509Y0019787D01*
X0081427Y0019657D01*
X0081343Y0019529D01*
X0081255Y0019403D01*
X0081164Y0019280D01*
X0081070Y0019159D01*
X0080972Y0019041D01*
X0080872Y0018925D01*
X0080768Y0018812D01*
X0080662Y0018701D01*
X0080553Y0018593D01*
X0080441Y0018488D01*
X0080327Y0018387D01*
X0080209Y0018288D01*
X0080090Y0018192D01*
X0079968Y0018099D01*
X0079843Y0018010D01*
X0079716Y0017923D01*
X0079587Y0017841D01*
X0079456Y0017761D01*
X0079323Y0017685D01*
X0079188Y0017612D01*
X0079051Y0017543D01*
X0078912Y0017478D01*
X0078772Y0017416D01*
X0078630Y0017358D01*
X0078487Y0017303D01*
X0078342Y0017252D01*
X0078196Y0017205D01*
X0078049Y0017162D01*
X0077901Y0017123D01*
X0077752Y0017087D01*
X0077602Y0017056D01*
X0077451Y0017028D01*
X0077300Y0017004D01*
X0077147Y0016984D01*
X0076995Y0016968D01*
X0076842Y0016956D01*
X0076689Y0016948D01*
X0076536Y0016944D01*
X0076382Y0016944D01*
X0076229Y0016948D01*
X0076076Y0016956D01*
X0075923Y0016968D01*
X0075771Y0016984D01*
X0075618Y0017004D01*
X0075467Y0017028D01*
X0075316Y0017056D01*
X0075166Y0017087D01*
X0075017Y0017123D01*
X0074869Y0017162D01*
X0074722Y0017205D01*
X0074576Y0017252D01*
X0074431Y0017303D01*
X0074288Y0017358D01*
X0074146Y0017416D01*
X0074006Y0017478D01*
X0073867Y0017543D01*
X0073730Y0017612D01*
X0073595Y0017685D01*
X0073462Y0017761D01*
X0073331Y0017841D01*
X0073202Y0017923D01*
X0073075Y0018010D01*
X0072950Y0018099D01*
X0072828Y0018192D01*
X0072709Y0018288D01*
X0072591Y0018387D01*
X0072477Y0018488D01*
X0072365Y0018593D01*
X0072256Y0018701D01*
X0072150Y0018812D01*
X0072046Y0018925D01*
X0071946Y0019041D01*
X0071848Y0019159D01*
X0071754Y0019280D01*
X0071663Y0019403D01*
X0071575Y0019529D01*
X0071491Y0019657D01*
X0071409Y0019787D01*
X0071332Y0019919D01*
X0071257Y0020053D01*
X0071186Y0020189D01*
X0071119Y0020327D01*
X0071055Y0020467D01*
X0070995Y0020608D01*
X0070939Y0020750D01*
X0070886Y0020894D01*
X0070837Y0021040D01*
X0070792Y0021186D01*
X0070751Y0021334D01*
X0070714Y0021482D01*
X0070680Y0021632D01*
X0070650Y0021783D01*
X0070625Y0021934D01*
X0070603Y0022085D01*
X0070585Y0022238D01*
X0070571Y0022390D01*
X0070561Y0022543D01*
X0070555Y0022697D01*
X0070553Y0022850D01*
X0212539Y0148504D02*
X0212541Y0148657D01*
X0212547Y0148811D01*
X0212557Y0148964D01*
X0212571Y0149116D01*
X0212589Y0149269D01*
X0212611Y0149420D01*
X0212636Y0149571D01*
X0212666Y0149722D01*
X0212700Y0149872D01*
X0212737Y0150020D01*
X0212778Y0150168D01*
X0212823Y0150314D01*
X0212872Y0150460D01*
X0212925Y0150604D01*
X0212981Y0150746D01*
X0213041Y0150887D01*
X0213105Y0151027D01*
X0213172Y0151165D01*
X0213243Y0151301D01*
X0213318Y0151435D01*
X0213395Y0151567D01*
X0213477Y0151697D01*
X0213561Y0151825D01*
X0213649Y0151951D01*
X0213740Y0152074D01*
X0213834Y0152195D01*
X0213932Y0152313D01*
X0214032Y0152429D01*
X0214136Y0152542D01*
X0214242Y0152653D01*
X0214351Y0152761D01*
X0214463Y0152866D01*
X0214577Y0152967D01*
X0214695Y0153066D01*
X0214814Y0153162D01*
X0214936Y0153255D01*
X0215061Y0153344D01*
X0215188Y0153431D01*
X0215317Y0153513D01*
X0215448Y0153593D01*
X0215581Y0153669D01*
X0215716Y0153742D01*
X0215853Y0153811D01*
X0215992Y0153876D01*
X0216132Y0153938D01*
X0216274Y0153996D01*
X0216417Y0154051D01*
X0216562Y0154102D01*
X0216708Y0154149D01*
X0216855Y0154192D01*
X0217003Y0154231D01*
X0217152Y0154267D01*
X0217302Y0154298D01*
X0217453Y0154326D01*
X0217604Y0154350D01*
X0217757Y0154370D01*
X0217909Y0154386D01*
X0218062Y0154398D01*
X0218215Y0154406D01*
X0218368Y0154410D01*
X0218522Y0154410D01*
X0218675Y0154406D01*
X0218828Y0154398D01*
X0218981Y0154386D01*
X0219133Y0154370D01*
X0219286Y0154350D01*
X0219437Y0154326D01*
X0219588Y0154298D01*
X0219738Y0154267D01*
X0219887Y0154231D01*
X0220035Y0154192D01*
X0220182Y0154149D01*
X0220328Y0154102D01*
X0220473Y0154051D01*
X0220616Y0153996D01*
X0220758Y0153938D01*
X0220898Y0153876D01*
X0221037Y0153811D01*
X0221174Y0153742D01*
X0221309Y0153669D01*
X0221442Y0153593D01*
X0221573Y0153513D01*
X0221702Y0153431D01*
X0221829Y0153344D01*
X0221954Y0153255D01*
X0222076Y0153162D01*
X0222195Y0153066D01*
X0222313Y0152967D01*
X0222427Y0152866D01*
X0222539Y0152761D01*
X0222648Y0152653D01*
X0222754Y0152542D01*
X0222858Y0152429D01*
X0222958Y0152313D01*
X0223056Y0152195D01*
X0223150Y0152074D01*
X0223241Y0151951D01*
X0223329Y0151825D01*
X0223413Y0151697D01*
X0223495Y0151567D01*
X0223572Y0151435D01*
X0223647Y0151301D01*
X0223718Y0151165D01*
X0223785Y0151027D01*
X0223849Y0150887D01*
X0223909Y0150746D01*
X0223965Y0150604D01*
X0224018Y0150460D01*
X0224067Y0150314D01*
X0224112Y0150168D01*
X0224153Y0150020D01*
X0224190Y0149872D01*
X0224224Y0149722D01*
X0224254Y0149571D01*
X0224279Y0149420D01*
X0224301Y0149269D01*
X0224319Y0149116D01*
X0224333Y0148964D01*
X0224343Y0148811D01*
X0224349Y0148657D01*
X0224351Y0148504D01*
X0224349Y0148351D01*
X0224343Y0148197D01*
X0224333Y0148044D01*
X0224319Y0147892D01*
X0224301Y0147739D01*
X0224279Y0147588D01*
X0224254Y0147437D01*
X0224224Y0147286D01*
X0224190Y0147136D01*
X0224153Y0146988D01*
X0224112Y0146840D01*
X0224067Y0146694D01*
X0224018Y0146548D01*
X0223965Y0146404D01*
X0223909Y0146262D01*
X0223849Y0146121D01*
X0223785Y0145981D01*
X0223718Y0145843D01*
X0223647Y0145707D01*
X0223572Y0145573D01*
X0223495Y0145441D01*
X0223413Y0145311D01*
X0223329Y0145183D01*
X0223241Y0145057D01*
X0223150Y0144934D01*
X0223056Y0144813D01*
X0222958Y0144695D01*
X0222858Y0144579D01*
X0222754Y0144466D01*
X0222648Y0144355D01*
X0222539Y0144247D01*
X0222427Y0144142D01*
X0222313Y0144041D01*
X0222195Y0143942D01*
X0222076Y0143846D01*
X0221954Y0143753D01*
X0221829Y0143664D01*
X0221702Y0143577D01*
X0221573Y0143495D01*
X0221442Y0143415D01*
X0221309Y0143339D01*
X0221174Y0143266D01*
X0221037Y0143197D01*
X0220898Y0143132D01*
X0220758Y0143070D01*
X0220616Y0143012D01*
X0220473Y0142957D01*
X0220328Y0142906D01*
X0220182Y0142859D01*
X0220035Y0142816D01*
X0219887Y0142777D01*
X0219738Y0142741D01*
X0219588Y0142710D01*
X0219437Y0142682D01*
X0219286Y0142658D01*
X0219133Y0142638D01*
X0218981Y0142622D01*
X0218828Y0142610D01*
X0218675Y0142602D01*
X0218522Y0142598D01*
X0218368Y0142598D01*
X0218215Y0142602D01*
X0218062Y0142610D01*
X0217909Y0142622D01*
X0217757Y0142638D01*
X0217604Y0142658D01*
X0217453Y0142682D01*
X0217302Y0142710D01*
X0217152Y0142741D01*
X0217003Y0142777D01*
X0216855Y0142816D01*
X0216708Y0142859D01*
X0216562Y0142906D01*
X0216417Y0142957D01*
X0216274Y0143012D01*
X0216132Y0143070D01*
X0215992Y0143132D01*
X0215853Y0143197D01*
X0215716Y0143266D01*
X0215581Y0143339D01*
X0215448Y0143415D01*
X0215317Y0143495D01*
X0215188Y0143577D01*
X0215061Y0143664D01*
X0214936Y0143753D01*
X0214814Y0143846D01*
X0214695Y0143942D01*
X0214577Y0144041D01*
X0214463Y0144142D01*
X0214351Y0144247D01*
X0214242Y0144355D01*
X0214136Y0144466D01*
X0214032Y0144579D01*
X0213932Y0144695D01*
X0213834Y0144813D01*
X0213740Y0144934D01*
X0213649Y0145057D01*
X0213561Y0145183D01*
X0213477Y0145311D01*
X0213395Y0145441D01*
X0213318Y0145573D01*
X0213243Y0145707D01*
X0213172Y0145843D01*
X0213105Y0145981D01*
X0213041Y0146121D01*
X0212981Y0146262D01*
X0212925Y0146404D01*
X0212872Y0146548D01*
X0212823Y0146694D01*
X0212778Y0146840D01*
X0212737Y0146988D01*
X0212700Y0147136D01*
X0212666Y0147286D01*
X0212636Y0147437D01*
X0212611Y0147588D01*
X0212589Y0147739D01*
X0212571Y0147892D01*
X0212557Y0148044D01*
X0212547Y0148197D01*
X0212541Y0148351D01*
X0212539Y0148504D01*
D11*
X0218445Y0148504D03*
X0076459Y0022850D03*
D12*
X0130060Y0025185D03*
X0137540Y0025185D03*
X0086540Y0136185D03*
X0079060Y0136185D03*
X0142237Y0138356D03*
X0149718Y0138356D03*
X0151917Y0147568D03*
X0144437Y0147568D03*
X0170960Y0155419D03*
X0178440Y0155419D03*
X0196060Y0160185D03*
X0203540Y0160185D03*
X0205540Y0151185D03*
X0198060Y0151185D03*
D13*
X0170800Y0181445D03*
X0170800Y0188926D03*
X0150800Y0185445D03*
X0150800Y0192926D03*
X0137800Y0193926D03*
X0137800Y0186445D03*
X0158485Y0165926D03*
X0158485Y0158445D03*
X0114994Y0159113D03*
X0114994Y0166593D03*
D14*
X0082800Y0124697D03*
X0082800Y0113674D03*
D15*
X0129047Y0146585D03*
X0128847Y0150985D03*
X0134753Y0150985D03*
X0134953Y0146585D03*
X0213847Y0160185D03*
X0219753Y0160185D03*
D16*
X0212349Y0135500D03*
X0202349Y0135500D03*
X0192349Y0135500D03*
X0182349Y0135500D03*
X0172349Y0135500D03*
X0162349Y0135500D03*
X0157349Y0125500D03*
X0157349Y0115500D03*
X0157349Y0105500D03*
X0157349Y0095500D03*
X0157349Y0085500D03*
X0157349Y0075500D03*
X0157349Y0065500D03*
X0157349Y0055500D03*
X0157349Y0045500D03*
X0157349Y0035500D03*
X0157349Y0025500D03*
X0157349Y0015500D03*
X0187349Y0015500D03*
X0197349Y0015500D03*
X0207349Y0015500D03*
X0217349Y0015500D03*
X0217349Y0025500D03*
X0217349Y0035500D03*
X0217349Y0045500D03*
X0217349Y0055500D03*
X0217349Y0065500D03*
X0217349Y0075500D03*
X0207349Y0080500D03*
X0207349Y0090500D03*
X0217349Y0085500D03*
X0217349Y0095500D03*
X0217349Y0105500D03*
X0217349Y0115500D03*
X0217349Y0125500D03*
D17*
X0123194Y0125906D03*
X0123194Y0128465D03*
X0123194Y0131024D03*
X0123194Y0133583D03*
X0123194Y0136142D03*
X0123194Y0138701D03*
X0123194Y0141260D03*
X0123194Y0143819D03*
X0123194Y0123347D03*
X0123194Y0120788D03*
X0123194Y0118229D03*
X0123194Y0115670D03*
X0123194Y0113111D03*
X0123194Y0110552D03*
X0094406Y0110552D03*
X0094406Y0113111D03*
X0094406Y0115670D03*
X0094406Y0118229D03*
X0094406Y0120788D03*
X0094406Y0123347D03*
X0094406Y0125906D03*
X0094406Y0128465D03*
X0094406Y0131024D03*
X0094406Y0133583D03*
X0094406Y0136142D03*
X0094406Y0138701D03*
X0094406Y0141260D03*
X0094406Y0143819D03*
D18*
X0075893Y0168432D02*
X0075895Y0168506D01*
X0075901Y0168580D01*
X0075911Y0168653D01*
X0075925Y0168726D01*
X0075942Y0168798D01*
X0075964Y0168868D01*
X0075989Y0168938D01*
X0076018Y0169006D01*
X0076051Y0169072D01*
X0076087Y0169137D01*
X0076127Y0169199D01*
X0076169Y0169260D01*
X0076215Y0169318D01*
X0076264Y0169373D01*
X0076316Y0169426D01*
X0076371Y0169476D01*
X0076428Y0169522D01*
X0076488Y0169566D01*
X0076550Y0169606D01*
X0076614Y0169643D01*
X0076680Y0169677D01*
X0076748Y0169707D01*
X0076817Y0169733D01*
X0076888Y0169756D01*
X0076959Y0169774D01*
X0077032Y0169789D01*
X0077105Y0169800D01*
X0077179Y0169807D01*
X0077253Y0169810D01*
X0077326Y0169809D01*
X0077400Y0169804D01*
X0077474Y0169795D01*
X0077547Y0169782D01*
X0077619Y0169765D01*
X0077690Y0169745D01*
X0077760Y0169720D01*
X0077828Y0169692D01*
X0077895Y0169661D01*
X0077960Y0169625D01*
X0078023Y0169587D01*
X0078084Y0169545D01*
X0078143Y0169499D01*
X0078199Y0169451D01*
X0078252Y0169400D01*
X0078302Y0169346D01*
X0078350Y0169289D01*
X0078394Y0169230D01*
X0078436Y0169168D01*
X0078474Y0169105D01*
X0078508Y0169039D01*
X0078539Y0168972D01*
X0078566Y0168903D01*
X0078589Y0168833D01*
X0078609Y0168762D01*
X0078625Y0168689D01*
X0078637Y0168616D01*
X0078645Y0168543D01*
X0078649Y0168469D01*
X0078649Y0168395D01*
X0078645Y0168321D01*
X0078637Y0168248D01*
X0078625Y0168175D01*
X0078609Y0168102D01*
X0078589Y0168031D01*
X0078566Y0167961D01*
X0078539Y0167892D01*
X0078508Y0167825D01*
X0078474Y0167759D01*
X0078436Y0167696D01*
X0078394Y0167634D01*
X0078350Y0167575D01*
X0078302Y0167518D01*
X0078252Y0167464D01*
X0078199Y0167413D01*
X0078143Y0167365D01*
X0078084Y0167319D01*
X0078023Y0167277D01*
X0077960Y0167239D01*
X0077895Y0167203D01*
X0077828Y0167172D01*
X0077760Y0167144D01*
X0077690Y0167119D01*
X0077619Y0167099D01*
X0077547Y0167082D01*
X0077474Y0167069D01*
X0077400Y0167060D01*
X0077326Y0167055D01*
X0077253Y0167054D01*
X0077179Y0167057D01*
X0077105Y0167064D01*
X0077032Y0167075D01*
X0076959Y0167090D01*
X0076888Y0167108D01*
X0076817Y0167131D01*
X0076748Y0167157D01*
X0076680Y0167187D01*
X0076614Y0167221D01*
X0076550Y0167258D01*
X0076488Y0167298D01*
X0076428Y0167342D01*
X0076371Y0167388D01*
X0076316Y0167438D01*
X0076264Y0167491D01*
X0076215Y0167546D01*
X0076169Y0167604D01*
X0076127Y0167665D01*
X0076087Y0167727D01*
X0076051Y0167792D01*
X0076018Y0167858D01*
X0075989Y0167926D01*
X0075964Y0167996D01*
X0075942Y0168066D01*
X0075925Y0168138D01*
X0075911Y0168211D01*
X0075901Y0168284D01*
X0075895Y0168358D01*
X0075893Y0168432D01*
X0075893Y0185755D02*
X0075895Y0185829D01*
X0075901Y0185903D01*
X0075911Y0185976D01*
X0075925Y0186049D01*
X0075942Y0186121D01*
X0075964Y0186191D01*
X0075989Y0186261D01*
X0076018Y0186329D01*
X0076051Y0186395D01*
X0076087Y0186460D01*
X0076127Y0186522D01*
X0076169Y0186583D01*
X0076215Y0186641D01*
X0076264Y0186696D01*
X0076316Y0186749D01*
X0076371Y0186799D01*
X0076428Y0186845D01*
X0076488Y0186889D01*
X0076550Y0186929D01*
X0076614Y0186966D01*
X0076680Y0187000D01*
X0076748Y0187030D01*
X0076817Y0187056D01*
X0076888Y0187079D01*
X0076959Y0187097D01*
X0077032Y0187112D01*
X0077105Y0187123D01*
X0077179Y0187130D01*
X0077253Y0187133D01*
X0077326Y0187132D01*
X0077400Y0187127D01*
X0077474Y0187118D01*
X0077547Y0187105D01*
X0077619Y0187088D01*
X0077690Y0187068D01*
X0077760Y0187043D01*
X0077828Y0187015D01*
X0077895Y0186984D01*
X0077960Y0186948D01*
X0078023Y0186910D01*
X0078084Y0186868D01*
X0078143Y0186822D01*
X0078199Y0186774D01*
X0078252Y0186723D01*
X0078302Y0186669D01*
X0078350Y0186612D01*
X0078394Y0186553D01*
X0078436Y0186491D01*
X0078474Y0186428D01*
X0078508Y0186362D01*
X0078539Y0186295D01*
X0078566Y0186226D01*
X0078589Y0186156D01*
X0078609Y0186085D01*
X0078625Y0186012D01*
X0078637Y0185939D01*
X0078645Y0185866D01*
X0078649Y0185792D01*
X0078649Y0185718D01*
X0078645Y0185644D01*
X0078637Y0185571D01*
X0078625Y0185498D01*
X0078609Y0185425D01*
X0078589Y0185354D01*
X0078566Y0185284D01*
X0078539Y0185215D01*
X0078508Y0185148D01*
X0078474Y0185082D01*
X0078436Y0185019D01*
X0078394Y0184957D01*
X0078350Y0184898D01*
X0078302Y0184841D01*
X0078252Y0184787D01*
X0078199Y0184736D01*
X0078143Y0184688D01*
X0078084Y0184642D01*
X0078023Y0184600D01*
X0077960Y0184562D01*
X0077895Y0184526D01*
X0077828Y0184495D01*
X0077760Y0184467D01*
X0077690Y0184442D01*
X0077619Y0184422D01*
X0077547Y0184405D01*
X0077474Y0184392D01*
X0077400Y0184383D01*
X0077326Y0184378D01*
X0077253Y0184377D01*
X0077179Y0184380D01*
X0077105Y0184387D01*
X0077032Y0184398D01*
X0076959Y0184413D01*
X0076888Y0184431D01*
X0076817Y0184454D01*
X0076748Y0184480D01*
X0076680Y0184510D01*
X0076614Y0184544D01*
X0076550Y0184581D01*
X0076488Y0184621D01*
X0076428Y0184665D01*
X0076371Y0184711D01*
X0076316Y0184761D01*
X0076264Y0184814D01*
X0076215Y0184869D01*
X0076169Y0184927D01*
X0076127Y0184988D01*
X0076087Y0185050D01*
X0076051Y0185115D01*
X0076018Y0185181D01*
X0075989Y0185249D01*
X0075964Y0185319D01*
X0075942Y0185389D01*
X0075925Y0185461D01*
X0075911Y0185534D01*
X0075901Y0185607D01*
X0075895Y0185681D01*
X0075893Y0185755D01*
D19*
X0087113Y0183393D03*
X0087113Y0180243D03*
X0087113Y0177094D03*
X0087113Y0173944D03*
X0087113Y0170795D03*
D20*
X0087113Y0159377D03*
X0065460Y0159377D03*
X0065460Y0194810D03*
X0087113Y0194810D03*
D21*
X0122060Y0189304D03*
X0129540Y0189304D03*
X0129540Y0179067D03*
X0125800Y0179067D03*
X0122060Y0179067D03*
X0171060Y0174304D03*
X0174800Y0174304D03*
X0178540Y0174304D03*
X0178540Y0164067D03*
X0171060Y0164067D03*
D22*
X0195233Y0177248D03*
X0195233Y0185122D03*
D23*
X0215706Y0194571D03*
X0215706Y0167800D03*
D24*
X0149800Y0160902D03*
X0149800Y0175469D03*
X0111437Y0187889D03*
X0096870Y0187889D03*
D25*
X0136454Y0179185D03*
X0143146Y0179185D03*
D26*
X0104761Y0026208D02*
X0104761Y0020688D01*
X0101241Y0020688D01*
X0101241Y0026208D01*
X0104761Y0026208D01*
X0104761Y0021567D02*
X0101241Y0021567D01*
X0101241Y0022446D02*
X0104761Y0022446D01*
X0104761Y0023325D02*
X0101241Y0023325D01*
X0101241Y0024204D02*
X0104761Y0024204D01*
X0104761Y0025083D02*
X0101241Y0025083D01*
X0101241Y0025962D02*
X0104761Y0025962D01*
X0110549Y0021159D02*
X0110549Y0012979D01*
X0107029Y0012979D01*
X0107029Y0021159D01*
X0110549Y0021159D01*
X0110549Y0013858D02*
X0107029Y0013858D01*
X0107029Y0014737D02*
X0110549Y0014737D01*
X0110549Y0015616D02*
X0107029Y0015616D01*
X0107029Y0016495D02*
X0110549Y0016495D01*
X0110549Y0017374D02*
X0107029Y0017374D01*
X0107029Y0018253D02*
X0110549Y0018253D01*
X0110549Y0019132D02*
X0107029Y0019132D01*
X0107029Y0020011D02*
X0110549Y0020011D01*
X0110549Y0020890D02*
X0107029Y0020890D01*
X0098972Y0021159D02*
X0098972Y0012979D01*
X0095452Y0012979D01*
X0095452Y0021159D01*
X0098972Y0021159D01*
X0098972Y0013858D02*
X0095452Y0013858D01*
X0095452Y0014737D02*
X0098972Y0014737D01*
X0098972Y0015616D02*
X0095452Y0015616D01*
X0095452Y0016495D02*
X0098972Y0016495D01*
X0098972Y0017374D02*
X0095452Y0017374D01*
X0095452Y0018253D02*
X0098972Y0018253D01*
X0098972Y0019132D02*
X0095452Y0019132D01*
X0095452Y0020011D02*
X0098972Y0020011D01*
X0098972Y0020890D02*
X0095452Y0020890D01*
D27*
X0103001Y0028319D03*
D28*
X0113001Y0017569D03*
X0093001Y0017569D03*
D29*
X0091104Y0035956D03*
X0098978Y0035956D03*
X0106852Y0035956D03*
X0114726Y0035956D03*
X0122600Y0035956D03*
X0130474Y0035956D03*
X0138348Y0035956D03*
X0083230Y0035956D03*
X0083230Y0099735D03*
X0091104Y0099735D03*
X0098978Y0099735D03*
X0106852Y0099735D03*
X0114726Y0099735D03*
X0122600Y0099735D03*
X0130474Y0099735D03*
X0138348Y0099735D03*
D30*
X0188054Y0045575D03*
X0110988Y0042527D03*
X0094819Y0042860D03*
X0084983Y0014355D03*
D31*
X0122600Y0049688D03*
X0099124Y0087843D03*
X0106790Y0091510D03*
M02*
