G75*
%MOIN*%
%OFA0B0*%
%FSLAX25Y25*%
%IPPOS*%
%LPD*%
%AMOC8*
5,1,8,0,0,1.08239X$1,22.5*
%
%ADD10C,0.00000*%
%ADD11C,0.00400*%
%ADD12C,0.00800*%
%ADD13C,0.00500*%
%ADD14C,0.00100*%
%ADD15C,0.00300*%
%ADD16C,0.00200*%
%ADD17C,0.00600*%
%ADD18R,0.03937X0.00787*%
%ADD19C,0.01000*%
%ADD20C,0.02400*%
%ADD21R,0.00787X0.03937*%
D10*
X0005457Y0022435D02*
X0026291Y0026394D01*
X0046791Y0030019D01*
X0046860Y0031852D01*
X0046930Y0032019D01*
X0059694Y0032505D01*
X0072124Y0032991D01*
X0072100Y0032985D02*
X0072125Y0058990D01*
X0072124Y0058963D02*
X0072124Y0084935D01*
X0052124Y0088685D01*
X0052124Y0199797D01*
X0228374Y0199797D01*
X0228374Y0006741D01*
X0167819Y0006394D01*
X0107263Y0006047D01*
X0074902Y0009419D01*
X0074902Y0012574D01*
X0060805Y0013130D01*
X0046707Y0013685D01*
X0046707Y0015908D01*
X0005457Y0022435D01*
X0070553Y0022850D02*
X0070555Y0023003D01*
X0070561Y0023157D01*
X0070571Y0023310D01*
X0070585Y0023462D01*
X0070603Y0023615D01*
X0070625Y0023766D01*
X0070650Y0023917D01*
X0070680Y0024068D01*
X0070714Y0024218D01*
X0070751Y0024366D01*
X0070792Y0024514D01*
X0070837Y0024660D01*
X0070886Y0024806D01*
X0070939Y0024950D01*
X0070995Y0025092D01*
X0071055Y0025233D01*
X0071119Y0025373D01*
X0071186Y0025511D01*
X0071257Y0025647D01*
X0071332Y0025781D01*
X0071409Y0025913D01*
X0071491Y0026043D01*
X0071575Y0026171D01*
X0071663Y0026297D01*
X0071754Y0026420D01*
X0071848Y0026541D01*
X0071946Y0026659D01*
X0072046Y0026775D01*
X0072150Y0026888D01*
X0072256Y0026999D01*
X0072365Y0027107D01*
X0072477Y0027212D01*
X0072591Y0027313D01*
X0072709Y0027412D01*
X0072828Y0027508D01*
X0072950Y0027601D01*
X0073075Y0027690D01*
X0073202Y0027777D01*
X0073331Y0027859D01*
X0073462Y0027939D01*
X0073595Y0028015D01*
X0073730Y0028088D01*
X0073867Y0028157D01*
X0074006Y0028222D01*
X0074146Y0028284D01*
X0074288Y0028342D01*
X0074431Y0028397D01*
X0074576Y0028448D01*
X0074722Y0028495D01*
X0074869Y0028538D01*
X0075017Y0028577D01*
X0075166Y0028613D01*
X0075316Y0028644D01*
X0075467Y0028672D01*
X0075618Y0028696D01*
X0075771Y0028716D01*
X0075923Y0028732D01*
X0076076Y0028744D01*
X0076229Y0028752D01*
X0076382Y0028756D01*
X0076536Y0028756D01*
X0076689Y0028752D01*
X0076842Y0028744D01*
X0076995Y0028732D01*
X0077147Y0028716D01*
X0077300Y0028696D01*
X0077451Y0028672D01*
X0077602Y0028644D01*
X0077752Y0028613D01*
X0077901Y0028577D01*
X0078049Y0028538D01*
X0078196Y0028495D01*
X0078342Y0028448D01*
X0078487Y0028397D01*
X0078630Y0028342D01*
X0078772Y0028284D01*
X0078912Y0028222D01*
X0079051Y0028157D01*
X0079188Y0028088D01*
X0079323Y0028015D01*
X0079456Y0027939D01*
X0079587Y0027859D01*
X0079716Y0027777D01*
X0079843Y0027690D01*
X0079968Y0027601D01*
X0080090Y0027508D01*
X0080209Y0027412D01*
X0080327Y0027313D01*
X0080441Y0027212D01*
X0080553Y0027107D01*
X0080662Y0026999D01*
X0080768Y0026888D01*
X0080872Y0026775D01*
X0080972Y0026659D01*
X0081070Y0026541D01*
X0081164Y0026420D01*
X0081255Y0026297D01*
X0081343Y0026171D01*
X0081427Y0026043D01*
X0081509Y0025913D01*
X0081586Y0025781D01*
X0081661Y0025647D01*
X0081732Y0025511D01*
X0081799Y0025373D01*
X0081863Y0025233D01*
X0081923Y0025092D01*
X0081979Y0024950D01*
X0082032Y0024806D01*
X0082081Y0024660D01*
X0082126Y0024514D01*
X0082167Y0024366D01*
X0082204Y0024218D01*
X0082238Y0024068D01*
X0082268Y0023917D01*
X0082293Y0023766D01*
X0082315Y0023615D01*
X0082333Y0023462D01*
X0082347Y0023310D01*
X0082357Y0023157D01*
X0082363Y0023003D01*
X0082365Y0022850D01*
X0082363Y0022697D01*
X0082357Y0022543D01*
X0082347Y0022390D01*
X0082333Y0022238D01*
X0082315Y0022085D01*
X0082293Y0021934D01*
X0082268Y0021783D01*
X0082238Y0021632D01*
X0082204Y0021482D01*
X0082167Y0021334D01*
X0082126Y0021186D01*
X0082081Y0021040D01*
X0082032Y0020894D01*
X0081979Y0020750D01*
X0081923Y0020608D01*
X0081863Y0020467D01*
X0081799Y0020327D01*
X0081732Y0020189D01*
X0081661Y0020053D01*
X0081586Y0019919D01*
X0081509Y0019787D01*
X0081427Y0019657D01*
X0081343Y0019529D01*
X0081255Y0019403D01*
X0081164Y0019280D01*
X0081070Y0019159D01*
X0080972Y0019041D01*
X0080872Y0018925D01*
X0080768Y0018812D01*
X0080662Y0018701D01*
X0080553Y0018593D01*
X0080441Y0018488D01*
X0080327Y0018387D01*
X0080209Y0018288D01*
X0080090Y0018192D01*
X0079968Y0018099D01*
X0079843Y0018010D01*
X0079716Y0017923D01*
X0079587Y0017841D01*
X0079456Y0017761D01*
X0079323Y0017685D01*
X0079188Y0017612D01*
X0079051Y0017543D01*
X0078912Y0017478D01*
X0078772Y0017416D01*
X0078630Y0017358D01*
X0078487Y0017303D01*
X0078342Y0017252D01*
X0078196Y0017205D01*
X0078049Y0017162D01*
X0077901Y0017123D01*
X0077752Y0017087D01*
X0077602Y0017056D01*
X0077451Y0017028D01*
X0077300Y0017004D01*
X0077147Y0016984D01*
X0076995Y0016968D01*
X0076842Y0016956D01*
X0076689Y0016948D01*
X0076536Y0016944D01*
X0076382Y0016944D01*
X0076229Y0016948D01*
X0076076Y0016956D01*
X0075923Y0016968D01*
X0075771Y0016984D01*
X0075618Y0017004D01*
X0075467Y0017028D01*
X0075316Y0017056D01*
X0075166Y0017087D01*
X0075017Y0017123D01*
X0074869Y0017162D01*
X0074722Y0017205D01*
X0074576Y0017252D01*
X0074431Y0017303D01*
X0074288Y0017358D01*
X0074146Y0017416D01*
X0074006Y0017478D01*
X0073867Y0017543D01*
X0073730Y0017612D01*
X0073595Y0017685D01*
X0073462Y0017761D01*
X0073331Y0017841D01*
X0073202Y0017923D01*
X0073075Y0018010D01*
X0072950Y0018099D01*
X0072828Y0018192D01*
X0072709Y0018288D01*
X0072591Y0018387D01*
X0072477Y0018488D01*
X0072365Y0018593D01*
X0072256Y0018701D01*
X0072150Y0018812D01*
X0072046Y0018925D01*
X0071946Y0019041D01*
X0071848Y0019159D01*
X0071754Y0019280D01*
X0071663Y0019403D01*
X0071575Y0019529D01*
X0071491Y0019657D01*
X0071409Y0019787D01*
X0071332Y0019919D01*
X0071257Y0020053D01*
X0071186Y0020189D01*
X0071119Y0020327D01*
X0071055Y0020467D01*
X0070995Y0020608D01*
X0070939Y0020750D01*
X0070886Y0020894D01*
X0070837Y0021040D01*
X0070792Y0021186D01*
X0070751Y0021334D01*
X0070714Y0021482D01*
X0070680Y0021632D01*
X0070650Y0021783D01*
X0070625Y0021934D01*
X0070603Y0022085D01*
X0070585Y0022238D01*
X0070571Y0022390D01*
X0070561Y0022543D01*
X0070555Y0022697D01*
X0070553Y0022850D01*
X0212539Y0148504D02*
X0212541Y0148657D01*
X0212547Y0148811D01*
X0212557Y0148964D01*
X0212571Y0149116D01*
X0212589Y0149269D01*
X0212611Y0149420D01*
X0212636Y0149571D01*
X0212666Y0149722D01*
X0212700Y0149872D01*
X0212737Y0150020D01*
X0212778Y0150168D01*
X0212823Y0150314D01*
X0212872Y0150460D01*
X0212925Y0150604D01*
X0212981Y0150746D01*
X0213041Y0150887D01*
X0213105Y0151027D01*
X0213172Y0151165D01*
X0213243Y0151301D01*
X0213318Y0151435D01*
X0213395Y0151567D01*
X0213477Y0151697D01*
X0213561Y0151825D01*
X0213649Y0151951D01*
X0213740Y0152074D01*
X0213834Y0152195D01*
X0213932Y0152313D01*
X0214032Y0152429D01*
X0214136Y0152542D01*
X0214242Y0152653D01*
X0214351Y0152761D01*
X0214463Y0152866D01*
X0214577Y0152967D01*
X0214695Y0153066D01*
X0214814Y0153162D01*
X0214936Y0153255D01*
X0215061Y0153344D01*
X0215188Y0153431D01*
X0215317Y0153513D01*
X0215448Y0153593D01*
X0215581Y0153669D01*
X0215716Y0153742D01*
X0215853Y0153811D01*
X0215992Y0153876D01*
X0216132Y0153938D01*
X0216274Y0153996D01*
X0216417Y0154051D01*
X0216562Y0154102D01*
X0216708Y0154149D01*
X0216855Y0154192D01*
X0217003Y0154231D01*
X0217152Y0154267D01*
X0217302Y0154298D01*
X0217453Y0154326D01*
X0217604Y0154350D01*
X0217757Y0154370D01*
X0217909Y0154386D01*
X0218062Y0154398D01*
X0218215Y0154406D01*
X0218368Y0154410D01*
X0218522Y0154410D01*
X0218675Y0154406D01*
X0218828Y0154398D01*
X0218981Y0154386D01*
X0219133Y0154370D01*
X0219286Y0154350D01*
X0219437Y0154326D01*
X0219588Y0154298D01*
X0219738Y0154267D01*
X0219887Y0154231D01*
X0220035Y0154192D01*
X0220182Y0154149D01*
X0220328Y0154102D01*
X0220473Y0154051D01*
X0220616Y0153996D01*
X0220758Y0153938D01*
X0220898Y0153876D01*
X0221037Y0153811D01*
X0221174Y0153742D01*
X0221309Y0153669D01*
X0221442Y0153593D01*
X0221573Y0153513D01*
X0221702Y0153431D01*
X0221829Y0153344D01*
X0221954Y0153255D01*
X0222076Y0153162D01*
X0222195Y0153066D01*
X0222313Y0152967D01*
X0222427Y0152866D01*
X0222539Y0152761D01*
X0222648Y0152653D01*
X0222754Y0152542D01*
X0222858Y0152429D01*
X0222958Y0152313D01*
X0223056Y0152195D01*
X0223150Y0152074D01*
X0223241Y0151951D01*
X0223329Y0151825D01*
X0223413Y0151697D01*
X0223495Y0151567D01*
X0223572Y0151435D01*
X0223647Y0151301D01*
X0223718Y0151165D01*
X0223785Y0151027D01*
X0223849Y0150887D01*
X0223909Y0150746D01*
X0223965Y0150604D01*
X0224018Y0150460D01*
X0224067Y0150314D01*
X0224112Y0150168D01*
X0224153Y0150020D01*
X0224190Y0149872D01*
X0224224Y0149722D01*
X0224254Y0149571D01*
X0224279Y0149420D01*
X0224301Y0149269D01*
X0224319Y0149116D01*
X0224333Y0148964D01*
X0224343Y0148811D01*
X0224349Y0148657D01*
X0224351Y0148504D01*
X0224349Y0148351D01*
X0224343Y0148197D01*
X0224333Y0148044D01*
X0224319Y0147892D01*
X0224301Y0147739D01*
X0224279Y0147588D01*
X0224254Y0147437D01*
X0224224Y0147286D01*
X0224190Y0147136D01*
X0224153Y0146988D01*
X0224112Y0146840D01*
X0224067Y0146694D01*
X0224018Y0146548D01*
X0223965Y0146404D01*
X0223909Y0146262D01*
X0223849Y0146121D01*
X0223785Y0145981D01*
X0223718Y0145843D01*
X0223647Y0145707D01*
X0223572Y0145573D01*
X0223495Y0145441D01*
X0223413Y0145311D01*
X0223329Y0145183D01*
X0223241Y0145057D01*
X0223150Y0144934D01*
X0223056Y0144813D01*
X0222958Y0144695D01*
X0222858Y0144579D01*
X0222754Y0144466D01*
X0222648Y0144355D01*
X0222539Y0144247D01*
X0222427Y0144142D01*
X0222313Y0144041D01*
X0222195Y0143942D01*
X0222076Y0143846D01*
X0221954Y0143753D01*
X0221829Y0143664D01*
X0221702Y0143577D01*
X0221573Y0143495D01*
X0221442Y0143415D01*
X0221309Y0143339D01*
X0221174Y0143266D01*
X0221037Y0143197D01*
X0220898Y0143132D01*
X0220758Y0143070D01*
X0220616Y0143012D01*
X0220473Y0142957D01*
X0220328Y0142906D01*
X0220182Y0142859D01*
X0220035Y0142816D01*
X0219887Y0142777D01*
X0219738Y0142741D01*
X0219588Y0142710D01*
X0219437Y0142682D01*
X0219286Y0142658D01*
X0219133Y0142638D01*
X0218981Y0142622D01*
X0218828Y0142610D01*
X0218675Y0142602D01*
X0218522Y0142598D01*
X0218368Y0142598D01*
X0218215Y0142602D01*
X0218062Y0142610D01*
X0217909Y0142622D01*
X0217757Y0142638D01*
X0217604Y0142658D01*
X0217453Y0142682D01*
X0217302Y0142710D01*
X0217152Y0142741D01*
X0217003Y0142777D01*
X0216855Y0142816D01*
X0216708Y0142859D01*
X0216562Y0142906D01*
X0216417Y0142957D01*
X0216274Y0143012D01*
X0216132Y0143070D01*
X0215992Y0143132D01*
X0215853Y0143197D01*
X0215716Y0143266D01*
X0215581Y0143339D01*
X0215448Y0143415D01*
X0215317Y0143495D01*
X0215188Y0143577D01*
X0215061Y0143664D01*
X0214936Y0143753D01*
X0214814Y0143846D01*
X0214695Y0143942D01*
X0214577Y0144041D01*
X0214463Y0144142D01*
X0214351Y0144247D01*
X0214242Y0144355D01*
X0214136Y0144466D01*
X0214032Y0144579D01*
X0213932Y0144695D01*
X0213834Y0144813D01*
X0213740Y0144934D01*
X0213649Y0145057D01*
X0213561Y0145183D01*
X0213477Y0145311D01*
X0213395Y0145441D01*
X0213318Y0145573D01*
X0213243Y0145707D01*
X0213172Y0145843D01*
X0213105Y0145981D01*
X0213041Y0146121D01*
X0212981Y0146262D01*
X0212925Y0146404D01*
X0212872Y0146548D01*
X0212823Y0146694D01*
X0212778Y0146840D01*
X0212737Y0146988D01*
X0212700Y0147136D01*
X0212666Y0147286D01*
X0212636Y0147437D01*
X0212611Y0147588D01*
X0212589Y0147739D01*
X0212571Y0147892D01*
X0212557Y0148044D01*
X0212547Y0148197D01*
X0212541Y0148351D01*
X0212539Y0148504D01*
X0070603Y0169543D02*
X0070605Y0169617D01*
X0070611Y0169691D01*
X0070621Y0169764D01*
X0070635Y0169837D01*
X0070652Y0169909D01*
X0070674Y0169979D01*
X0070699Y0170049D01*
X0070728Y0170117D01*
X0070761Y0170183D01*
X0070797Y0170248D01*
X0070837Y0170310D01*
X0070879Y0170371D01*
X0070925Y0170429D01*
X0070974Y0170484D01*
X0071026Y0170537D01*
X0071081Y0170587D01*
X0071138Y0170633D01*
X0071198Y0170677D01*
X0071260Y0170717D01*
X0071324Y0170754D01*
X0071390Y0170788D01*
X0071458Y0170818D01*
X0071527Y0170844D01*
X0071598Y0170867D01*
X0071669Y0170885D01*
X0071742Y0170900D01*
X0071815Y0170911D01*
X0071889Y0170918D01*
X0071963Y0170921D01*
X0072036Y0170920D01*
X0072110Y0170915D01*
X0072184Y0170906D01*
X0072257Y0170893D01*
X0072329Y0170876D01*
X0072400Y0170856D01*
X0072470Y0170831D01*
X0072538Y0170803D01*
X0072605Y0170772D01*
X0072670Y0170736D01*
X0072733Y0170698D01*
X0072794Y0170656D01*
X0072853Y0170610D01*
X0072909Y0170562D01*
X0072962Y0170511D01*
X0073012Y0170457D01*
X0073060Y0170400D01*
X0073104Y0170341D01*
X0073146Y0170279D01*
X0073184Y0170216D01*
X0073218Y0170150D01*
X0073249Y0170083D01*
X0073276Y0170014D01*
X0073299Y0169944D01*
X0073319Y0169873D01*
X0073335Y0169800D01*
X0073347Y0169727D01*
X0073355Y0169654D01*
X0073359Y0169580D01*
X0073359Y0169506D01*
X0073355Y0169432D01*
X0073347Y0169359D01*
X0073335Y0169286D01*
X0073319Y0169213D01*
X0073299Y0169142D01*
X0073276Y0169072D01*
X0073249Y0169003D01*
X0073218Y0168936D01*
X0073184Y0168870D01*
X0073146Y0168807D01*
X0073104Y0168745D01*
X0073060Y0168686D01*
X0073012Y0168629D01*
X0072962Y0168575D01*
X0072909Y0168524D01*
X0072853Y0168476D01*
X0072794Y0168430D01*
X0072733Y0168388D01*
X0072670Y0168350D01*
X0072605Y0168314D01*
X0072538Y0168283D01*
X0072470Y0168255D01*
X0072400Y0168230D01*
X0072329Y0168210D01*
X0072257Y0168193D01*
X0072184Y0168180D01*
X0072110Y0168171D01*
X0072036Y0168166D01*
X0071963Y0168165D01*
X0071889Y0168168D01*
X0071815Y0168175D01*
X0071742Y0168186D01*
X0071669Y0168201D01*
X0071598Y0168219D01*
X0071527Y0168242D01*
X0071458Y0168268D01*
X0071390Y0168298D01*
X0071324Y0168332D01*
X0071260Y0168369D01*
X0071198Y0168409D01*
X0071138Y0168453D01*
X0071081Y0168499D01*
X0071026Y0168549D01*
X0070974Y0168602D01*
X0070925Y0168657D01*
X0070879Y0168715D01*
X0070837Y0168776D01*
X0070797Y0168838D01*
X0070761Y0168903D01*
X0070728Y0168969D01*
X0070699Y0169037D01*
X0070674Y0169107D01*
X0070652Y0169177D01*
X0070635Y0169249D01*
X0070621Y0169322D01*
X0070611Y0169395D01*
X0070605Y0169469D01*
X0070603Y0169543D01*
X0065681Y0164819D02*
X0063319Y0164819D01*
X0063242Y0164807D01*
X0063166Y0164792D01*
X0063090Y0164773D01*
X0063016Y0164750D01*
X0062942Y0164724D01*
X0062871Y0164694D01*
X0062800Y0164660D01*
X0062732Y0164624D01*
X0062665Y0164583D01*
X0062600Y0164540D01*
X0062538Y0164494D01*
X0062477Y0164444D01*
X0062420Y0164392D01*
X0062365Y0164336D01*
X0062313Y0164279D01*
X0062263Y0164218D01*
X0062217Y0164156D01*
X0062174Y0164091D01*
X0062134Y0164024D01*
X0062097Y0163955D01*
X0062064Y0163885D01*
X0062034Y0163813D01*
X0062008Y0163739D01*
X0061986Y0163665D01*
X0061967Y0163589D01*
X0061952Y0163513D01*
X0061941Y0163436D01*
X0061933Y0163358D01*
X0061929Y0163280D01*
X0061930Y0163202D01*
X0061933Y0163125D01*
X0061941Y0163047D01*
X0061941Y0163048D02*
X0061933Y0162970D01*
X0061930Y0162893D01*
X0061929Y0162815D01*
X0061933Y0162737D01*
X0061941Y0162659D01*
X0061952Y0162582D01*
X0061967Y0162506D01*
X0061986Y0162430D01*
X0062008Y0162356D01*
X0062034Y0162282D01*
X0062064Y0162210D01*
X0062097Y0162140D01*
X0062134Y0162071D01*
X0062174Y0162004D01*
X0062217Y0161939D01*
X0062263Y0161877D01*
X0062313Y0161816D01*
X0062365Y0161759D01*
X0062420Y0161703D01*
X0062477Y0161651D01*
X0062538Y0161601D01*
X0062600Y0161555D01*
X0062665Y0161512D01*
X0062732Y0161471D01*
X0062800Y0161435D01*
X0062871Y0161401D01*
X0062942Y0161371D01*
X0063016Y0161345D01*
X0063090Y0161322D01*
X0063166Y0161303D01*
X0063242Y0161288D01*
X0063319Y0161276D01*
X0065681Y0161276D01*
X0065682Y0161276D02*
X0065759Y0161288D01*
X0065835Y0161303D01*
X0065911Y0161322D01*
X0065985Y0161345D01*
X0066059Y0161371D01*
X0066130Y0161401D01*
X0066201Y0161435D01*
X0066269Y0161471D01*
X0066336Y0161512D01*
X0066401Y0161555D01*
X0066463Y0161601D01*
X0066524Y0161651D01*
X0066581Y0161703D01*
X0066636Y0161759D01*
X0066688Y0161816D01*
X0066738Y0161877D01*
X0066784Y0161939D01*
X0066827Y0162004D01*
X0066867Y0162071D01*
X0066904Y0162140D01*
X0066937Y0162210D01*
X0066967Y0162282D01*
X0066993Y0162356D01*
X0067015Y0162430D01*
X0067034Y0162506D01*
X0067049Y0162582D01*
X0067060Y0162659D01*
X0067068Y0162737D01*
X0067072Y0162815D01*
X0067071Y0162893D01*
X0067068Y0162970D01*
X0067060Y0163048D01*
X0067060Y0163047D02*
X0067068Y0163125D01*
X0067071Y0163202D01*
X0067072Y0163280D01*
X0067068Y0163358D01*
X0067060Y0163436D01*
X0067049Y0163513D01*
X0067034Y0163589D01*
X0067015Y0163665D01*
X0066993Y0163739D01*
X0066967Y0163813D01*
X0066937Y0163885D01*
X0066904Y0163955D01*
X0066867Y0164024D01*
X0066827Y0164091D01*
X0066784Y0164156D01*
X0066738Y0164218D01*
X0066688Y0164279D01*
X0066636Y0164336D01*
X0066581Y0164392D01*
X0066524Y0164444D01*
X0066463Y0164494D01*
X0066401Y0164540D01*
X0066336Y0164583D01*
X0066269Y0164624D01*
X0066201Y0164660D01*
X0066130Y0164694D01*
X0066059Y0164724D01*
X0065985Y0164750D01*
X0065911Y0164773D01*
X0065835Y0164792D01*
X0065759Y0164807D01*
X0065682Y0164819D01*
X0070603Y0184898D02*
X0070605Y0184972D01*
X0070611Y0185046D01*
X0070621Y0185119D01*
X0070635Y0185192D01*
X0070652Y0185264D01*
X0070674Y0185334D01*
X0070699Y0185404D01*
X0070728Y0185472D01*
X0070761Y0185538D01*
X0070797Y0185603D01*
X0070837Y0185665D01*
X0070879Y0185726D01*
X0070925Y0185784D01*
X0070974Y0185839D01*
X0071026Y0185892D01*
X0071081Y0185942D01*
X0071138Y0185988D01*
X0071198Y0186032D01*
X0071260Y0186072D01*
X0071324Y0186109D01*
X0071390Y0186143D01*
X0071458Y0186173D01*
X0071527Y0186199D01*
X0071598Y0186222D01*
X0071669Y0186240D01*
X0071742Y0186255D01*
X0071815Y0186266D01*
X0071889Y0186273D01*
X0071963Y0186276D01*
X0072036Y0186275D01*
X0072110Y0186270D01*
X0072184Y0186261D01*
X0072257Y0186248D01*
X0072329Y0186231D01*
X0072400Y0186211D01*
X0072470Y0186186D01*
X0072538Y0186158D01*
X0072605Y0186127D01*
X0072670Y0186091D01*
X0072733Y0186053D01*
X0072794Y0186011D01*
X0072853Y0185965D01*
X0072909Y0185917D01*
X0072962Y0185866D01*
X0073012Y0185812D01*
X0073060Y0185755D01*
X0073104Y0185696D01*
X0073146Y0185634D01*
X0073184Y0185571D01*
X0073218Y0185505D01*
X0073249Y0185438D01*
X0073276Y0185369D01*
X0073299Y0185299D01*
X0073319Y0185228D01*
X0073335Y0185155D01*
X0073347Y0185082D01*
X0073355Y0185009D01*
X0073359Y0184935D01*
X0073359Y0184861D01*
X0073355Y0184787D01*
X0073347Y0184714D01*
X0073335Y0184641D01*
X0073319Y0184568D01*
X0073299Y0184497D01*
X0073276Y0184427D01*
X0073249Y0184358D01*
X0073218Y0184291D01*
X0073184Y0184225D01*
X0073146Y0184162D01*
X0073104Y0184100D01*
X0073060Y0184041D01*
X0073012Y0183984D01*
X0072962Y0183930D01*
X0072909Y0183879D01*
X0072853Y0183831D01*
X0072794Y0183785D01*
X0072733Y0183743D01*
X0072670Y0183705D01*
X0072605Y0183669D01*
X0072538Y0183638D01*
X0072470Y0183610D01*
X0072400Y0183585D01*
X0072329Y0183565D01*
X0072257Y0183548D01*
X0072184Y0183535D01*
X0072110Y0183526D01*
X0072036Y0183521D01*
X0071963Y0183520D01*
X0071889Y0183523D01*
X0071815Y0183530D01*
X0071742Y0183541D01*
X0071669Y0183556D01*
X0071598Y0183574D01*
X0071527Y0183597D01*
X0071458Y0183623D01*
X0071390Y0183653D01*
X0071324Y0183687D01*
X0071260Y0183724D01*
X0071198Y0183764D01*
X0071138Y0183808D01*
X0071081Y0183854D01*
X0071026Y0183904D01*
X0070974Y0183957D01*
X0070925Y0184012D01*
X0070879Y0184070D01*
X0070837Y0184131D01*
X0070797Y0184193D01*
X0070761Y0184258D01*
X0070728Y0184324D01*
X0070699Y0184392D01*
X0070674Y0184462D01*
X0070652Y0184532D01*
X0070635Y0184604D01*
X0070621Y0184677D01*
X0070611Y0184750D01*
X0070605Y0184824D01*
X0070603Y0184898D01*
X0065681Y0189622D02*
X0063516Y0189622D01*
X0063442Y0189619D01*
X0063367Y0189620D01*
X0063292Y0189624D01*
X0063217Y0189633D01*
X0063143Y0189645D01*
X0063070Y0189661D01*
X0062997Y0189680D01*
X0062926Y0189703D01*
X0062856Y0189730D01*
X0062787Y0189760D01*
X0062720Y0189794D01*
X0062655Y0189831D01*
X0062592Y0189871D01*
X0062531Y0189914D01*
X0062472Y0189961D01*
X0062416Y0190010D01*
X0062362Y0190062D01*
X0062311Y0190117D01*
X0062262Y0190175D01*
X0062217Y0190234D01*
X0062175Y0190296D01*
X0062136Y0190360D01*
X0062100Y0190426D01*
X0062067Y0190494D01*
X0062038Y0190563D01*
X0062013Y0190634D01*
X0061991Y0190705D01*
X0061973Y0190778D01*
X0061959Y0190852D01*
X0061948Y0190926D01*
X0061941Y0191001D01*
X0061941Y0191000D02*
X0061941Y0191788D01*
X0061941Y0191787D02*
X0061948Y0191862D01*
X0061959Y0191936D01*
X0061973Y0192010D01*
X0061991Y0192083D01*
X0062013Y0192154D01*
X0062038Y0192225D01*
X0062067Y0192294D01*
X0062100Y0192362D01*
X0062136Y0192428D01*
X0062175Y0192492D01*
X0062217Y0192554D01*
X0062262Y0192613D01*
X0062311Y0192671D01*
X0062362Y0192726D01*
X0062416Y0192778D01*
X0062472Y0192827D01*
X0062531Y0192874D01*
X0062592Y0192917D01*
X0062655Y0192957D01*
X0062720Y0192994D01*
X0062787Y0193028D01*
X0062856Y0193058D01*
X0062926Y0193085D01*
X0062997Y0193108D01*
X0063070Y0193127D01*
X0063143Y0193143D01*
X0063217Y0193155D01*
X0063292Y0193164D01*
X0063367Y0193168D01*
X0063442Y0193169D01*
X0063516Y0193166D01*
X0063516Y0193165D02*
X0065681Y0193165D01*
X0065681Y0193166D02*
X0065753Y0193164D01*
X0065825Y0193158D01*
X0065897Y0193149D01*
X0065968Y0193136D01*
X0066038Y0193119D01*
X0066107Y0193099D01*
X0066175Y0193074D01*
X0066241Y0193047D01*
X0066307Y0193016D01*
X0066370Y0192981D01*
X0066432Y0192944D01*
X0066491Y0192903D01*
X0066548Y0192859D01*
X0066603Y0192812D01*
X0066655Y0192762D01*
X0066705Y0192710D01*
X0066752Y0192655D01*
X0066796Y0192598D01*
X0066837Y0192539D01*
X0066874Y0192477D01*
X0066909Y0192414D01*
X0066940Y0192348D01*
X0066967Y0192282D01*
X0066992Y0192214D01*
X0067012Y0192145D01*
X0067029Y0192075D01*
X0067042Y0192004D01*
X0067051Y0191932D01*
X0067057Y0191860D01*
X0067059Y0191788D01*
X0067059Y0191000D01*
X0067057Y0190928D01*
X0067051Y0190856D01*
X0067042Y0190784D01*
X0067029Y0190713D01*
X0067012Y0190643D01*
X0066992Y0190574D01*
X0066967Y0190506D01*
X0066940Y0190440D01*
X0066909Y0190374D01*
X0066874Y0190311D01*
X0066837Y0190249D01*
X0066796Y0190190D01*
X0066752Y0190133D01*
X0066705Y0190078D01*
X0066655Y0190026D01*
X0066603Y0189976D01*
X0066548Y0189929D01*
X0066491Y0189885D01*
X0066432Y0189844D01*
X0066370Y0189807D01*
X0066307Y0189772D01*
X0066241Y0189741D01*
X0066175Y0189714D01*
X0066107Y0189689D01*
X0066038Y0189669D01*
X0065968Y0189652D01*
X0065897Y0189639D01*
X0065825Y0189630D01*
X0065753Y0189624D01*
X0065681Y0189622D01*
D11*
X0098853Y0159249D02*
X0098853Y0157715D01*
X0099620Y0156947D01*
X0099620Y0155413D02*
X0098853Y0154646D01*
X0098853Y0153111D01*
X0099620Y0152344D01*
X0102689Y0152344D01*
X0103457Y0153111D01*
X0103457Y0154646D01*
X0102689Y0155413D01*
X0103457Y0156947D02*
X0100387Y0160017D01*
X0099620Y0160017D01*
X0098853Y0159249D01*
X0103457Y0160017D02*
X0103457Y0156947D01*
X0125523Y0160918D02*
X0125523Y0163220D01*
X0126290Y0163987D01*
X0127825Y0163987D01*
X0128592Y0163220D01*
X0128592Y0160918D01*
X0129489Y0161314D02*
X0127954Y0162848D01*
X0127187Y0164383D01*
X0127825Y0165522D02*
X0125523Y0165522D01*
X0125523Y0168591D01*
X0127057Y0167824D02*
X0127057Y0167056D01*
X0127825Y0165522D01*
X0129359Y0165522D02*
X0130127Y0166289D01*
X0130127Y0167824D01*
X0129359Y0168591D01*
X0127825Y0168591D01*
X0127057Y0167824D01*
X0130256Y0164383D02*
X0129489Y0163616D01*
X0129489Y0161314D01*
X0131023Y0161314D01*
X0131791Y0162081D01*
X0131791Y0163616D01*
X0131023Y0164383D01*
X0130256Y0164383D01*
X0130127Y0163987D02*
X0128592Y0162452D01*
X0130127Y0160918D02*
X0125523Y0160918D01*
X0127187Y0159012D02*
X0127954Y0159779D01*
X0129489Y0159779D01*
X0130256Y0159012D01*
X0130256Y0156710D01*
X0130256Y0158245D02*
X0131791Y0159779D01*
X0131791Y0156710D02*
X0127187Y0156710D01*
X0127187Y0159012D01*
X0145877Y0157372D02*
X0145877Y0152768D01*
X0145877Y0154303D02*
X0148179Y0154303D01*
X0148946Y0155070D01*
X0148946Y0156605D01*
X0148179Y0157372D01*
X0145877Y0157372D01*
X0147412Y0154303D02*
X0148946Y0152768D01*
X0150481Y0152768D02*
X0153550Y0155838D01*
X0153550Y0156605D01*
X0152783Y0157372D01*
X0151248Y0157372D01*
X0150481Y0156605D01*
X0150481Y0152768D02*
X0153550Y0152768D01*
X0156397Y0151054D02*
X0158699Y0151054D01*
X0159466Y0150287D01*
X0159466Y0148752D01*
X0158699Y0147985D01*
X0156397Y0147985D01*
X0157931Y0147985D02*
X0159466Y0146450D01*
X0156397Y0146450D02*
X0156397Y0151054D01*
X0161001Y0148752D02*
X0164070Y0148752D01*
X0165605Y0147985D02*
X0167907Y0147985D01*
X0168674Y0148752D01*
X0168674Y0150287D01*
X0167907Y0151054D01*
X0165605Y0151054D01*
X0165605Y0146450D01*
X0170209Y0146450D02*
X0170209Y0151054D01*
X0172511Y0151054D01*
X0173278Y0150287D01*
X0173278Y0148752D01*
X0172511Y0147985D01*
X0170209Y0147985D01*
X0171743Y0147985D02*
X0173278Y0146450D01*
X0174812Y0147217D02*
X0175580Y0146450D01*
X0177114Y0146450D01*
X0177882Y0147217D01*
X0177882Y0150287D01*
X0177114Y0151054D01*
X0175580Y0151054D01*
X0174812Y0150287D01*
X0174812Y0147217D01*
X0179416Y0147217D02*
X0180184Y0146450D01*
X0181718Y0146450D01*
X0182486Y0147217D01*
X0182486Y0148752D01*
X0180951Y0148752D01*
X0179416Y0150287D02*
X0179416Y0147217D01*
X0179416Y0150287D02*
X0180184Y0151054D01*
X0181718Y0151054D01*
X0182486Y0150287D01*
X0184020Y0150287D02*
X0184788Y0151054D01*
X0186322Y0151054D01*
X0187090Y0150287D01*
X0187090Y0149519D01*
X0184020Y0146450D01*
X0187090Y0146450D01*
X0186598Y0149717D02*
X0185831Y0150485D01*
X0185831Y0153554D01*
X0186598Y0154321D01*
X0188133Y0154321D01*
X0188900Y0153554D01*
X0190435Y0154321D02*
X0193504Y0154321D01*
X0193504Y0153554D01*
X0190435Y0150485D01*
X0190435Y0149717D01*
X0188900Y0150485D02*
X0188133Y0149717D01*
X0186598Y0149717D01*
X0186026Y0155887D02*
X0184491Y0157421D01*
X0185259Y0157421D02*
X0182957Y0157421D01*
X0182957Y0155887D02*
X0182957Y0160490D01*
X0185259Y0160490D01*
X0186026Y0159723D01*
X0186026Y0158188D01*
X0185259Y0157421D01*
X0187561Y0156654D02*
X0188328Y0155887D01*
X0189863Y0155887D01*
X0190630Y0156654D01*
X0190630Y0157421D01*
X0189863Y0158188D01*
X0189095Y0158188D01*
X0189863Y0158188D02*
X0190630Y0158956D01*
X0190630Y0159723D01*
X0189863Y0160490D01*
X0188328Y0160490D01*
X0187561Y0159723D01*
X0168285Y0160480D02*
X0167518Y0161247D01*
X0168285Y0160480D02*
X0168285Y0158945D01*
X0167518Y0158178D01*
X0164448Y0158178D01*
X0163681Y0158945D01*
X0163681Y0160480D01*
X0164448Y0161247D01*
X0164448Y0162781D02*
X0165216Y0162781D01*
X0165983Y0163549D01*
X0165983Y0165083D01*
X0166750Y0165851D01*
X0167518Y0165851D01*
X0168285Y0165083D01*
X0168285Y0163549D01*
X0167518Y0162781D01*
X0166750Y0162781D01*
X0165983Y0163549D01*
X0165983Y0165083D02*
X0165216Y0165851D01*
X0164448Y0165851D01*
X0163681Y0165083D01*
X0163681Y0163549D01*
X0164448Y0162781D01*
X0145832Y0182074D02*
X0142763Y0182074D01*
X0141996Y0182841D01*
X0141996Y0184376D01*
X0142763Y0185143D01*
X0143531Y0186678D02*
X0141996Y0188212D01*
X0146600Y0188212D01*
X0146600Y0186678D02*
X0146600Y0189747D01*
X0145832Y0191282D02*
X0142763Y0191282D01*
X0141996Y0192049D01*
X0141996Y0193584D01*
X0142763Y0194351D01*
X0145832Y0191282D01*
X0146600Y0192049D01*
X0146600Y0193584D01*
X0145832Y0194351D01*
X0142763Y0194351D01*
X0145832Y0185143D02*
X0146600Y0184376D01*
X0146600Y0182841D01*
X0145832Y0182074D01*
X0156503Y0192560D02*
X0155736Y0193327D01*
X0155736Y0196396D01*
X0156503Y0197163D01*
X0158038Y0197163D01*
X0158805Y0196396D01*
X0160340Y0196396D02*
X0160340Y0195629D01*
X0161107Y0194861D01*
X0163409Y0194861D01*
X0163409Y0193327D02*
X0162642Y0192560D01*
X0161107Y0192560D01*
X0160340Y0193327D01*
X0158805Y0193327D02*
X0158038Y0192560D01*
X0156503Y0192560D01*
X0160340Y0196396D02*
X0161107Y0197163D01*
X0162642Y0197163D01*
X0163409Y0196396D01*
X0163409Y0193327D01*
X0175666Y0192292D02*
X0177968Y0189990D01*
X0177968Y0193060D01*
X0180270Y0192292D02*
X0175666Y0192292D01*
X0176433Y0188456D02*
X0175666Y0187688D01*
X0175666Y0186154D01*
X0176433Y0185386D01*
X0179502Y0185386D01*
X0180270Y0186154D01*
X0180270Y0187688D01*
X0179502Y0188456D01*
X0142648Y0133823D02*
X0141113Y0132289D01*
X0139579Y0133056D02*
X0139579Y0131521D01*
X0138811Y0130754D01*
X0136509Y0130754D01*
X0136509Y0129219D02*
X0136509Y0133823D01*
X0138811Y0133823D01*
X0139579Y0133056D01*
X0138044Y0130754D02*
X0139579Y0129219D01*
X0141113Y0129219D02*
X0144182Y0129219D01*
X0142648Y0129219D02*
X0142648Y0133823D01*
X0086465Y0126385D02*
X0083396Y0126385D01*
X0084931Y0126385D02*
X0084931Y0130989D01*
X0083396Y0129455D01*
X0081861Y0130222D02*
X0081094Y0130989D01*
X0079559Y0130989D01*
X0078792Y0130222D01*
X0078792Y0127153D01*
X0079559Y0126385D01*
X0081094Y0126385D01*
X0081861Y0127153D01*
X0129767Y0034989D02*
X0129000Y0034222D01*
X0129000Y0031153D01*
X0129767Y0030385D01*
X0131302Y0030385D01*
X0132069Y0031153D01*
X0133604Y0031153D02*
X0134371Y0030385D01*
X0135906Y0030385D01*
X0136673Y0031153D01*
X0136673Y0031920D01*
X0135906Y0032687D01*
X0133604Y0032687D01*
X0133604Y0031153D01*
X0133604Y0032687D02*
X0135139Y0034222D01*
X0136673Y0034989D01*
X0132069Y0034222D02*
X0131302Y0034989D01*
X0129767Y0034989D01*
D12*
X0111268Y0021724D02*
X0111268Y0020937D01*
X0105756Y0020937D01*
X0105756Y0021724D01*
X0111268Y0021724D01*
X0110875Y0021330D02*
X0105756Y0021330D01*
X0100245Y0021330D02*
X0095126Y0021330D01*
X0094733Y0020937D02*
X0094733Y0021724D01*
X0100245Y0021724D01*
X0100245Y0020937D01*
X0094733Y0020937D01*
X0094733Y0010701D01*
X0100245Y0010701D01*
X0105756Y0010701D02*
X0111268Y0010701D01*
X0111268Y0020937D01*
X0087524Y0109343D02*
X0078076Y0109343D01*
X0078076Y0115248D01*
X0078076Y0123122D02*
X0078076Y0127453D01*
X0079650Y0129028D01*
X0085950Y0129028D01*
X0087524Y0127453D01*
X0087524Y0123122D01*
X0087524Y0115248D02*
X0087524Y0109343D01*
X0131331Y0144774D02*
X0131331Y0146585D01*
X0132551Y0147506D01*
X0131331Y0148396D02*
X0131331Y0146585D01*
X0131391Y0146485D02*
X0132551Y0145726D01*
X0131131Y0149174D02*
X0131131Y0150985D01*
X0132351Y0151906D01*
X0131131Y0152796D02*
X0131131Y0150985D01*
X0131191Y0150885D02*
X0132351Y0150126D01*
X0147044Y0164748D02*
X0147044Y0171622D01*
X0148225Y0169367D02*
X0151375Y0169367D01*
X0149800Y0167004D01*
X0148225Y0169367D01*
X0149013Y0168973D02*
X0150587Y0168973D01*
X0149800Y0167792D01*
X0149013Y0168973D01*
X0149079Y0168873D02*
X0150521Y0168873D01*
X0149988Y0168074D02*
X0149612Y0168074D01*
X0152556Y0164748D02*
X0152556Y0171622D01*
X0169200Y0170876D02*
X0169200Y0167495D01*
X0173743Y0165995D02*
X0175857Y0165995D01*
X0180400Y0167495D02*
X0180400Y0170876D01*
X0192083Y0168587D02*
X0192083Y0165437D01*
X0205863Y0165437D01*
X0201926Y0168587D02*
X0192083Y0168587D01*
X0201926Y0168587D02*
X0201926Y0173311D01*
X0212797Y0161996D02*
X0212797Y0160185D01*
X0214017Y0161106D01*
X0212797Y0160185D02*
X0212797Y0158374D01*
X0214017Y0159326D02*
X0212857Y0160085D01*
X0221611Y0173311D02*
X0221611Y0189059D01*
X0205863Y0196933D02*
X0192083Y0196933D01*
X0192083Y0193784D01*
X0201926Y0193784D01*
X0201926Y0189059D01*
X0132296Y0187335D02*
X0132296Y0181036D01*
X0127375Y0188319D02*
X0124225Y0188319D01*
X0119304Y0187335D02*
X0119304Y0181036D01*
X0107591Y0185134D02*
X0100717Y0185134D01*
X0102973Y0186315D02*
X0102973Y0189464D01*
X0105335Y0187889D01*
X0102973Y0186315D01*
X0103366Y0187102D02*
X0103366Y0188677D01*
X0104548Y0187889D01*
X0103366Y0187102D01*
X0103366Y0187239D02*
X0103571Y0187239D01*
X0103366Y0188037D02*
X0104326Y0188037D01*
X0107591Y0190645D02*
X0100717Y0190645D01*
D13*
X0076311Y0187063D02*
X0076311Y0183914D01*
X0076311Y0170528D02*
X0076311Y0167378D01*
X0058595Y0162260D02*
X0055052Y0162260D01*
X0055052Y0192181D01*
X0058595Y0192181D01*
X0078800Y0120685D02*
X0086800Y0120685D01*
X0080474Y0099735D02*
X0078899Y0099735D01*
X0078899Y0035956D01*
X0080474Y0035956D01*
X0101301Y0018202D02*
X0101301Y0016701D01*
X0103302Y0016701D01*
X0102802Y0015480D02*
X0102802Y0014479D01*
X0104303Y0015480D02*
X0104303Y0013478D01*
X0104303Y0012257D02*
X0101301Y0012257D01*
X0101301Y0010256D01*
X0101301Y0015480D02*
X0104303Y0015480D01*
X0101301Y0018202D02*
X0101801Y0018703D01*
X0103302Y0018703D01*
X0141104Y0035956D02*
X0142679Y0035956D01*
X0142679Y0099735D01*
X0141104Y0099735D01*
X0152349Y0098000D02*
X0152349Y0093000D01*
X0154849Y0090500D01*
X0152349Y0088000D01*
X0152349Y0083000D01*
X0154849Y0080500D01*
X0152349Y0078000D01*
X0152349Y0073000D01*
X0154849Y0070500D01*
X0152349Y0068000D01*
X0152349Y0063000D01*
X0154849Y0060500D01*
X0152349Y0058000D01*
X0152349Y0053000D01*
X0154849Y0050500D01*
X0152349Y0048000D01*
X0152349Y0043000D01*
X0154849Y0040500D01*
X0152349Y0038000D01*
X0152349Y0033000D01*
X0154849Y0030500D01*
X0152349Y0028000D01*
X0152349Y0023000D01*
X0154849Y0020500D01*
X0152349Y0018000D01*
X0152349Y0013000D01*
X0154849Y0010500D01*
X0159849Y0010500D01*
X0162349Y0013000D01*
X0162349Y0018000D01*
X0159849Y0020500D01*
X0162349Y0023000D01*
X0162349Y0028000D01*
X0159849Y0030500D01*
X0162349Y0033000D01*
X0162349Y0038000D01*
X0159849Y0040500D01*
X0162349Y0043000D01*
X0162349Y0048000D01*
X0159849Y0050500D01*
X0162349Y0053000D01*
X0162349Y0058000D01*
X0159849Y0060500D01*
X0162349Y0063000D01*
X0162349Y0068000D01*
X0159849Y0070500D01*
X0162349Y0073000D01*
X0162349Y0078000D01*
X0159849Y0080500D01*
X0162349Y0083000D01*
X0162349Y0088000D01*
X0159849Y0090500D01*
X0162349Y0093000D01*
X0162349Y0098000D01*
X0159849Y0100500D01*
X0162349Y0103000D01*
X0162349Y0108000D01*
X0159849Y0110500D01*
X0162349Y0113000D01*
X0162349Y0118000D01*
X0159849Y0120500D01*
X0162349Y0123000D01*
X0162349Y0128000D01*
X0159849Y0130500D01*
X0157349Y0133000D01*
X0157349Y0138000D01*
X0159849Y0140500D01*
X0164849Y0140500D01*
X0167349Y0138000D01*
X0169849Y0140500D01*
X0174849Y0140500D01*
X0177349Y0138000D01*
X0179849Y0140500D01*
X0184849Y0140500D01*
X0187349Y0138000D01*
X0189849Y0140500D01*
X0194849Y0140500D01*
X0197349Y0138000D01*
X0199849Y0140500D01*
X0204849Y0140500D01*
X0207349Y0138000D01*
X0209849Y0140500D01*
X0214849Y0140500D01*
X0217349Y0138000D01*
X0217349Y0133000D01*
X0214849Y0130500D01*
X0209849Y0130500D01*
X0207349Y0133000D01*
X0204849Y0130500D01*
X0199849Y0130500D01*
X0197349Y0133000D01*
X0194849Y0130500D01*
X0189849Y0130500D01*
X0187349Y0133000D01*
X0184849Y0130500D01*
X0179849Y0130500D01*
X0177349Y0133000D01*
X0174849Y0130500D01*
X0169849Y0130500D01*
X0167349Y0133000D01*
X0164849Y0130500D01*
X0159849Y0130500D01*
X0154849Y0130500D01*
X0152349Y0128000D01*
X0152349Y0123000D01*
X0154849Y0120500D01*
X0152349Y0118000D01*
X0152349Y0113000D01*
X0154849Y0110500D01*
X0152349Y0108000D01*
X0152349Y0103000D01*
X0154849Y0100500D01*
X0152349Y0098000D01*
X0202349Y0093000D02*
X0202349Y0088000D01*
X0204849Y0085500D01*
X0202349Y0083000D01*
X0202349Y0078000D01*
X0204849Y0075500D01*
X0209849Y0075500D01*
X0212349Y0078000D01*
X0212349Y0073000D01*
X0214849Y0070500D01*
X0212349Y0068000D01*
X0212349Y0063000D01*
X0214849Y0060500D01*
X0212349Y0058000D01*
X0212349Y0053000D01*
X0214849Y0050500D01*
X0212349Y0048000D01*
X0212349Y0043000D01*
X0214849Y0040500D01*
X0212349Y0038000D01*
X0212349Y0033000D01*
X0214849Y0030500D01*
X0212349Y0028000D01*
X0212349Y0023000D01*
X0214849Y0020500D01*
X0212349Y0018000D01*
X0209849Y0020500D01*
X0204849Y0020500D01*
X0202349Y0018000D01*
X0199849Y0020500D01*
X0194849Y0020500D01*
X0192349Y0018000D01*
X0189849Y0020500D01*
X0184849Y0020500D01*
X0182349Y0018000D01*
X0182349Y0013000D01*
X0184849Y0010500D01*
X0189849Y0010500D01*
X0192349Y0013000D01*
X0194849Y0010500D01*
X0199849Y0010500D01*
X0202349Y0013000D01*
X0204849Y0010500D01*
X0209849Y0010500D01*
X0212349Y0013000D01*
X0214849Y0010500D01*
X0219849Y0010500D01*
X0222349Y0013000D01*
X0222349Y0018000D01*
X0219849Y0020500D01*
X0222349Y0023000D01*
X0222349Y0028000D01*
X0219849Y0030500D01*
X0222349Y0033000D01*
X0222349Y0038000D01*
X0219849Y0040500D01*
X0222349Y0043000D01*
X0222349Y0048000D01*
X0219849Y0050500D01*
X0222349Y0053000D01*
X0222349Y0058000D01*
X0219849Y0060500D01*
X0222349Y0063000D01*
X0222349Y0068000D01*
X0219849Y0070500D01*
X0222349Y0073000D01*
X0222349Y0078000D01*
X0219849Y0080500D01*
X0222349Y0083000D01*
X0222349Y0088000D01*
X0219849Y0090500D01*
X0222349Y0093000D01*
X0222349Y0098000D01*
X0219849Y0100500D01*
X0222349Y0103000D01*
X0222349Y0108000D01*
X0219849Y0110500D01*
X0222349Y0113000D01*
X0222349Y0118000D01*
X0219849Y0120500D01*
X0222349Y0123000D01*
X0222349Y0128000D01*
X0219849Y0130500D01*
X0214849Y0130500D01*
X0212349Y0128000D01*
X0212349Y0123000D01*
X0214849Y0120500D01*
X0212349Y0118000D01*
X0212349Y0113000D01*
X0214849Y0110500D01*
X0212349Y0108000D01*
X0212349Y0103000D01*
X0214849Y0100500D01*
X0212349Y0098000D01*
X0212349Y0093000D01*
X0209849Y0095500D01*
X0204849Y0095500D01*
X0202349Y0093000D01*
X0212349Y0018000D02*
X0212349Y0013000D01*
D14*
X0103750Y0112486D02*
X0103750Y0112986D01*
X0103500Y0113236D01*
X0102249Y0113236D01*
X0102749Y0113709D02*
X0102249Y0114209D01*
X0103750Y0114209D01*
X0103750Y0113709D02*
X0103750Y0114710D01*
X0103750Y0112486D02*
X0103500Y0112235D01*
X0102249Y0112235D01*
X0077313Y0111459D02*
X0077313Y0110959D01*
X0077063Y0110709D01*
X0077063Y0110236D02*
X0077313Y0109986D01*
X0077313Y0109486D01*
X0077063Y0109235D01*
X0076062Y0109235D01*
X0075812Y0109486D01*
X0075812Y0109986D01*
X0076062Y0110236D01*
X0075812Y0110709D02*
X0076562Y0110709D01*
X0076312Y0111209D01*
X0076312Y0111459D01*
X0076562Y0111710D01*
X0077063Y0111710D01*
X0077313Y0111459D01*
X0075812Y0111710D02*
X0075812Y0110709D01*
X0129657Y0142285D02*
X0130658Y0142285D01*
X0131130Y0142285D02*
X0132131Y0142285D01*
X0132603Y0142285D02*
X0133354Y0142285D01*
X0133604Y0142536D01*
X0133604Y0143536D01*
X0133354Y0143787D01*
X0132603Y0143787D01*
X0132603Y0142285D01*
X0131631Y0143036D02*
X0131130Y0143036D01*
X0131130Y0143787D02*
X0131130Y0142285D01*
X0129657Y0142285D02*
X0129657Y0143787D01*
X0131130Y0143787D02*
X0132131Y0143787D01*
X0134077Y0143286D02*
X0134577Y0143787D01*
X0134577Y0142285D01*
X0134077Y0142285D02*
X0135078Y0142285D01*
X0134878Y0146685D02*
X0133877Y0146685D01*
X0134878Y0147686D01*
X0134878Y0147936D01*
X0134627Y0148187D01*
X0134127Y0148187D01*
X0133877Y0147936D01*
X0133404Y0147936D02*
X0133154Y0148187D01*
X0132403Y0148187D01*
X0132403Y0146685D01*
X0133154Y0146685D01*
X0133404Y0146936D01*
X0133404Y0147936D01*
X0131931Y0148187D02*
X0130930Y0148187D01*
X0130930Y0146685D01*
X0131931Y0146685D01*
X0131431Y0147436D02*
X0130930Y0147436D01*
X0130458Y0146685D02*
X0129457Y0146685D01*
X0129457Y0148187D01*
X0175403Y0159386D02*
X0175654Y0159135D01*
X0176154Y0159135D01*
X0176404Y0159386D01*
X0176404Y0160637D01*
X0176877Y0160386D02*
X0177127Y0160637D01*
X0177627Y0160637D01*
X0177878Y0160386D01*
X0177878Y0160136D01*
X0176877Y0159135D01*
X0177878Y0159135D01*
X0175403Y0159386D02*
X0175403Y0160637D01*
X0211123Y0157387D02*
X0211123Y0155885D01*
X0212124Y0155885D01*
X0212596Y0155885D02*
X0213597Y0155885D01*
X0214069Y0155885D02*
X0214820Y0155885D01*
X0215070Y0156136D01*
X0215070Y0157136D01*
X0214820Y0157387D01*
X0214069Y0157387D01*
X0214069Y0155885D01*
X0213097Y0156636D02*
X0212596Y0156636D01*
X0212596Y0157387D02*
X0212596Y0155885D01*
X0212596Y0157387D02*
X0213597Y0157387D01*
X0215543Y0157387D02*
X0215543Y0156636D01*
X0216043Y0156886D01*
X0216293Y0156886D01*
X0216544Y0156636D01*
X0216544Y0156136D01*
X0216293Y0155885D01*
X0215793Y0155885D01*
X0215543Y0156136D01*
X0215543Y0157387D02*
X0216544Y0157387D01*
X0216100Y0183289D02*
X0216350Y0183539D01*
X0216350Y0183789D01*
X0216100Y0184040D01*
X0214849Y0184040D01*
X0214849Y0184290D02*
X0214849Y0183789D01*
X0215099Y0184762D02*
X0214849Y0185012D01*
X0214849Y0185513D01*
X0215099Y0185763D01*
X0215349Y0185763D01*
X0216350Y0184762D01*
X0216350Y0185763D01*
D15*
X0204834Y0126853D02*
X0204834Y0123150D01*
X0203600Y0124384D01*
X0202365Y0123150D01*
X0202365Y0126853D01*
X0201151Y0125619D02*
X0201151Y0123150D01*
X0201151Y0125002D02*
X0198682Y0125002D01*
X0198682Y0125619D02*
X0199917Y0126853D01*
X0201151Y0125619D01*
X0198682Y0125619D02*
X0198682Y0123150D01*
X0197468Y0123150D02*
X0196233Y0124384D01*
X0196851Y0124384D02*
X0194999Y0124384D01*
X0194999Y0123150D02*
X0194999Y0126853D01*
X0196851Y0126853D01*
X0197468Y0126236D01*
X0197468Y0125002D01*
X0196851Y0124384D01*
X0196851Y0116853D02*
X0195616Y0116853D01*
X0194999Y0116236D01*
X0194999Y0113767D01*
X0195616Y0113150D01*
X0196851Y0113150D01*
X0197468Y0113767D01*
X0197468Y0115002D01*
X0196233Y0115002D01*
X0197468Y0116236D02*
X0196851Y0116853D01*
X0198682Y0116853D02*
X0201151Y0113150D01*
X0201151Y0116853D01*
X0202365Y0116853D02*
X0204217Y0116853D01*
X0204834Y0116236D01*
X0204834Y0113767D01*
X0204217Y0113150D01*
X0202365Y0113150D01*
X0202365Y0116853D01*
X0198682Y0116853D02*
X0198682Y0113150D01*
X0199299Y0106853D02*
X0198682Y0106236D01*
X0198682Y0105619D01*
X0199299Y0105002D01*
X0200534Y0105002D01*
X0201151Y0104384D01*
X0201151Y0103767D01*
X0200534Y0103150D01*
X0199299Y0103150D01*
X0198682Y0103767D01*
X0197468Y0103150D02*
X0196233Y0104384D01*
X0196851Y0104384D02*
X0194999Y0104384D01*
X0194999Y0103150D02*
X0194999Y0106853D01*
X0196851Y0106853D01*
X0197468Y0106236D01*
X0197468Y0105002D01*
X0196851Y0104384D01*
X0199299Y0106853D02*
X0200534Y0106853D01*
X0201151Y0106236D01*
X0202365Y0106853D02*
X0204834Y0106853D01*
X0203600Y0106853D02*
X0203600Y0103150D01*
X0204999Y0101052D02*
X0204999Y0099117D01*
X0205967Y0098150D01*
X0206934Y0099117D01*
X0206934Y0101052D01*
X0207946Y0100569D02*
X0207946Y0098634D01*
X0208429Y0098150D01*
X0209397Y0098150D01*
X0209881Y0098634D01*
X0210892Y0098634D02*
X0211376Y0098150D01*
X0212343Y0098150D01*
X0212827Y0098634D01*
X0212827Y0100569D02*
X0212343Y0101052D01*
X0211376Y0101052D01*
X0210892Y0100569D01*
X0210892Y0098634D01*
X0209881Y0100569D02*
X0209397Y0101052D01*
X0208429Y0101052D01*
X0207946Y0100569D01*
X0210967Y0091052D02*
X0211934Y0090085D01*
X0211934Y0088150D01*
X0212946Y0088634D02*
X0213429Y0088150D01*
X0214397Y0088150D01*
X0214881Y0088634D01*
X0214881Y0089117D01*
X0214397Y0089601D01*
X0213913Y0089601D01*
X0214397Y0089601D02*
X0214881Y0090085D01*
X0214881Y0090569D01*
X0214397Y0091052D01*
X0213429Y0091052D01*
X0212946Y0090569D01*
X0211934Y0089601D02*
X0209999Y0089601D01*
X0209999Y0090085D02*
X0210967Y0091052D01*
X0209999Y0090085D02*
X0209999Y0088150D01*
X0210967Y0081052D02*
X0211934Y0080085D01*
X0211934Y0078150D01*
X0212946Y0078150D02*
X0214881Y0080085D01*
X0214881Y0080569D01*
X0214397Y0081052D01*
X0213429Y0081052D01*
X0212946Y0080569D01*
X0211934Y0079601D02*
X0209999Y0079601D01*
X0209999Y0080085D02*
X0210967Y0081052D01*
X0209999Y0080085D02*
X0209999Y0078150D01*
X0212946Y0078150D02*
X0214881Y0078150D01*
X0204917Y0066853D02*
X0204917Y0063150D01*
X0206151Y0063150D02*
X0203682Y0063150D01*
X0202468Y0063150D02*
X0202468Y0065619D01*
X0201233Y0066853D01*
X0199999Y0065619D01*
X0199999Y0063150D01*
X0199999Y0065002D02*
X0202468Y0065002D01*
X0203682Y0065619D02*
X0204917Y0066853D01*
X0200534Y0073150D02*
X0200534Y0076853D01*
X0198682Y0075002D01*
X0201151Y0075002D01*
X0197468Y0075002D02*
X0194999Y0075002D01*
X0194999Y0075619D02*
X0196233Y0076853D01*
X0197468Y0075619D01*
X0197468Y0073150D01*
X0194999Y0073150D02*
X0194999Y0075619D01*
X0194999Y0083150D02*
X0194999Y0085619D01*
X0196233Y0086853D01*
X0197468Y0085619D01*
X0197468Y0083150D01*
X0198682Y0083767D02*
X0199299Y0083150D01*
X0200534Y0083150D01*
X0201151Y0083767D01*
X0201151Y0085002D01*
X0200534Y0085619D01*
X0199917Y0085619D01*
X0198682Y0085002D01*
X0198682Y0086853D01*
X0201151Y0086853D01*
X0197468Y0085002D02*
X0194999Y0085002D01*
X0174834Y0093767D02*
X0174834Y0096236D01*
X0174217Y0096853D01*
X0172365Y0096853D01*
X0172365Y0093150D01*
X0174217Y0093150D01*
X0174834Y0093767D01*
X0171151Y0093150D02*
X0171151Y0096853D01*
X0168682Y0096853D02*
X0168682Y0093150D01*
X0167468Y0093767D02*
X0167468Y0095002D01*
X0166233Y0095002D01*
X0164999Y0096236D02*
X0165616Y0096853D01*
X0166851Y0096853D01*
X0167468Y0096236D01*
X0168682Y0096853D02*
X0171151Y0093150D01*
X0167468Y0093767D02*
X0166851Y0093150D01*
X0165616Y0093150D01*
X0164999Y0093767D01*
X0164999Y0096236D01*
X0164999Y0103150D02*
X0164999Y0106853D01*
X0166851Y0106853D01*
X0167468Y0106236D01*
X0167468Y0105002D01*
X0166851Y0104384D01*
X0164999Y0104384D01*
X0166233Y0104384D02*
X0167468Y0103150D01*
X0168682Y0103767D02*
X0169299Y0103150D01*
X0170534Y0103150D01*
X0171151Y0103767D01*
X0171151Y0104384D01*
X0170534Y0105002D01*
X0169299Y0105002D01*
X0168682Y0105619D01*
X0168682Y0106236D01*
X0169299Y0106853D01*
X0170534Y0106853D01*
X0171151Y0106236D01*
X0172365Y0106853D02*
X0174834Y0106853D01*
X0173600Y0106853D02*
X0173600Y0103150D01*
X0171151Y0113150D02*
X0168682Y0116853D01*
X0167468Y0116236D02*
X0167468Y0115002D01*
X0166851Y0114384D01*
X0164999Y0114384D01*
X0164999Y0113150D02*
X0164999Y0116853D01*
X0166851Y0116853D01*
X0167468Y0116236D01*
X0166233Y0114384D02*
X0167468Y0113150D01*
X0168682Y0113150D02*
X0171151Y0116853D01*
X0171151Y0123150D02*
X0168682Y0126853D01*
X0167468Y0126853D02*
X0164999Y0126853D01*
X0166233Y0126853D02*
X0166233Y0123150D01*
X0168682Y0123150D02*
X0171151Y0126853D01*
X0170534Y0086853D02*
X0169299Y0086853D01*
X0168682Y0086236D01*
X0167468Y0086236D02*
X0167468Y0083767D01*
X0166851Y0083150D01*
X0164999Y0083150D01*
X0164999Y0086853D01*
X0166851Y0086853D01*
X0167468Y0086236D01*
X0168682Y0083150D02*
X0171151Y0085619D01*
X0171151Y0086236D01*
X0170534Y0086853D01*
X0171151Y0083150D02*
X0168682Y0083150D01*
X0169299Y0076853D02*
X0170534Y0076853D01*
X0171151Y0076236D01*
X0171151Y0075619D01*
X0170534Y0075002D01*
X0171151Y0074384D01*
X0171151Y0073767D01*
X0170534Y0073150D01*
X0169299Y0073150D01*
X0168682Y0073767D01*
X0167468Y0073767D02*
X0167468Y0076236D01*
X0166851Y0076853D01*
X0164999Y0076853D01*
X0164999Y0073150D01*
X0166851Y0073150D01*
X0167468Y0073767D01*
X0168682Y0076236D02*
X0169299Y0076853D01*
X0169917Y0075002D02*
X0170534Y0075002D01*
X0170534Y0066853D02*
X0168682Y0065002D01*
X0171151Y0065002D01*
X0170534Y0066853D02*
X0170534Y0063150D01*
X0167468Y0063767D02*
X0167468Y0066236D01*
X0166851Y0066853D01*
X0164999Y0066853D01*
X0164999Y0063150D01*
X0166851Y0063150D01*
X0167468Y0063767D01*
X0166851Y0056853D02*
X0164999Y0056853D01*
X0164999Y0053150D01*
X0166851Y0053150D01*
X0167468Y0053767D01*
X0167468Y0056236D01*
X0166851Y0056853D01*
X0168682Y0056853D02*
X0168682Y0055002D01*
X0169917Y0055619D01*
X0170534Y0055619D01*
X0171151Y0055002D01*
X0171151Y0053767D01*
X0170534Y0053150D01*
X0169299Y0053150D01*
X0168682Y0053767D01*
X0168682Y0056853D02*
X0171151Y0056853D01*
X0171151Y0046853D02*
X0169917Y0046236D01*
X0168682Y0045002D01*
X0170534Y0045002D01*
X0171151Y0044384D01*
X0171151Y0043767D01*
X0170534Y0043150D01*
X0169299Y0043150D01*
X0168682Y0043767D01*
X0168682Y0045002D01*
X0167468Y0046236D02*
X0166851Y0046853D01*
X0164999Y0046853D01*
X0164999Y0043150D01*
X0166851Y0043150D01*
X0167468Y0043767D01*
X0167468Y0046236D01*
X0166851Y0036853D02*
X0164999Y0036853D01*
X0164999Y0033150D01*
X0166851Y0033150D01*
X0167468Y0033767D01*
X0167468Y0036236D01*
X0166851Y0036853D01*
X0168682Y0036853D02*
X0171151Y0036853D01*
X0171151Y0036236D01*
X0168682Y0033767D01*
X0168682Y0033150D01*
X0169299Y0026853D02*
X0170534Y0026853D01*
X0171151Y0026236D01*
X0171151Y0025619D01*
X0170534Y0025002D01*
X0169299Y0025002D01*
X0168682Y0025619D01*
X0168682Y0026236D01*
X0169299Y0026853D01*
X0169299Y0025002D02*
X0168682Y0024384D01*
X0168682Y0023767D01*
X0169299Y0023150D01*
X0170534Y0023150D01*
X0171151Y0023767D01*
X0171151Y0024384D01*
X0170534Y0025002D01*
X0167468Y0023767D02*
X0167468Y0026236D01*
X0166851Y0026853D01*
X0164999Y0026853D01*
X0164999Y0023150D01*
X0166851Y0023150D01*
X0167468Y0023767D01*
X0166851Y0016853D02*
X0164999Y0016853D01*
X0164999Y0013150D01*
X0166851Y0013150D01*
X0167468Y0013767D01*
X0167468Y0016236D01*
X0166851Y0016853D01*
X0168682Y0016236D02*
X0168682Y0015619D01*
X0169299Y0015002D01*
X0171151Y0015002D01*
X0171151Y0016236D02*
X0170534Y0016853D01*
X0169299Y0016853D01*
X0168682Y0016236D01*
X0168682Y0013767D02*
X0169299Y0013150D01*
X0170534Y0013150D01*
X0171151Y0013767D01*
X0171151Y0016236D01*
X0194999Y0005085D02*
X0194999Y0003150D01*
X0194999Y0004601D02*
X0196934Y0004601D01*
X0196934Y0005085D02*
X0196934Y0003150D01*
X0197946Y0003634D02*
X0197946Y0004601D01*
X0199397Y0004601D01*
X0199881Y0004117D01*
X0199881Y0003634D01*
X0199397Y0003150D01*
X0198429Y0003150D01*
X0197946Y0003634D01*
X0197946Y0004601D02*
X0198913Y0005569D01*
X0199881Y0006052D01*
X0196934Y0005085D02*
X0195967Y0006052D01*
X0194999Y0005085D01*
X0204999Y0005002D02*
X0207468Y0005002D01*
X0207468Y0005619D02*
X0207468Y0003150D01*
X0208682Y0003150D02*
X0208682Y0003767D01*
X0211151Y0006236D01*
X0211151Y0006853D01*
X0208682Y0006853D01*
X0207468Y0005619D02*
X0206233Y0006853D01*
X0204999Y0005619D01*
X0204999Y0003150D01*
X0214999Y0003150D02*
X0216851Y0003150D01*
X0217468Y0003767D01*
X0217468Y0006236D01*
X0216851Y0006853D01*
X0214999Y0006853D01*
X0214999Y0003150D01*
X0218682Y0003150D02*
X0221151Y0003150D01*
X0219917Y0003150D02*
X0219917Y0006853D01*
X0218682Y0005619D01*
X0222365Y0006236D02*
X0222365Y0003767D01*
X0224834Y0006236D01*
X0224834Y0003767D01*
X0224217Y0003150D01*
X0222983Y0003150D01*
X0222365Y0003767D01*
X0222365Y0006236D02*
X0222983Y0006853D01*
X0224217Y0006853D01*
X0224834Y0006236D01*
X0209834Y0023150D02*
X0207365Y0023150D01*
X0206151Y0023150D02*
X0203682Y0023150D01*
X0204917Y0023150D02*
X0204917Y0026853D01*
X0203682Y0025619D01*
X0202468Y0026236D02*
X0201851Y0026853D01*
X0199999Y0026853D01*
X0199999Y0023150D01*
X0201851Y0023150D01*
X0202468Y0023767D01*
X0202468Y0026236D01*
X0207365Y0025619D02*
X0208600Y0026853D01*
X0208600Y0023150D01*
X0209834Y0033150D02*
X0207365Y0033150D01*
X0209834Y0035619D01*
X0209834Y0036236D01*
X0209217Y0036853D01*
X0207983Y0036853D01*
X0207365Y0036236D01*
X0204917Y0036853D02*
X0204917Y0033150D01*
X0206151Y0033150D02*
X0203682Y0033150D01*
X0202468Y0033767D02*
X0202468Y0036236D01*
X0201851Y0036853D01*
X0199999Y0036853D01*
X0199999Y0033150D01*
X0201851Y0033150D01*
X0202468Y0033767D01*
X0203682Y0035619D02*
X0204917Y0036853D01*
X0204917Y0043150D02*
X0204917Y0046853D01*
X0203682Y0045619D01*
X0202468Y0046236D02*
X0201851Y0046853D01*
X0199999Y0046853D01*
X0199999Y0043150D01*
X0201851Y0043150D01*
X0202468Y0043767D01*
X0202468Y0046236D01*
X0203682Y0043150D02*
X0206151Y0043150D01*
X0207365Y0043767D02*
X0207983Y0043150D01*
X0209217Y0043150D01*
X0209834Y0043767D01*
X0209834Y0044384D01*
X0209217Y0045002D01*
X0208600Y0045002D01*
X0209217Y0045002D02*
X0209834Y0045619D01*
X0209834Y0046236D01*
X0209217Y0046853D01*
X0207983Y0046853D01*
X0207365Y0046236D01*
X0205534Y0053150D02*
X0204299Y0053150D01*
X0203682Y0053767D01*
X0206151Y0056236D01*
X0206151Y0053767D01*
X0205534Y0053150D01*
X0203682Y0053767D02*
X0203682Y0056236D01*
X0204299Y0056853D01*
X0205534Y0056853D01*
X0206151Y0056236D01*
X0202468Y0055619D02*
X0202468Y0053150D01*
X0202468Y0055002D02*
X0199999Y0055002D01*
X0199999Y0055619D02*
X0201233Y0056853D01*
X0202468Y0055619D01*
X0199999Y0055619D02*
X0199999Y0053150D01*
D16*
X0204881Y0143100D02*
X0204147Y0143834D01*
X0204147Y0145302D01*
X0205615Y0145302D02*
X0205615Y0143834D01*
X0204881Y0143100D01*
X0206357Y0143467D02*
X0206724Y0143100D01*
X0207457Y0143100D01*
X0207824Y0143467D01*
X0208566Y0143467D02*
X0208933Y0143100D01*
X0209667Y0143100D01*
X0210034Y0143467D01*
X0208566Y0143467D02*
X0208566Y0144935D01*
X0208933Y0145302D01*
X0209667Y0145302D01*
X0210034Y0144935D01*
X0207824Y0144935D02*
X0207457Y0145302D01*
X0206724Y0145302D01*
X0206357Y0144935D01*
X0206357Y0143467D01*
X0215196Y0143467D02*
X0215563Y0143100D01*
X0216297Y0143100D01*
X0216664Y0143467D01*
X0216664Y0144201D01*
X0215930Y0144201D01*
X0215196Y0144935D02*
X0215196Y0143467D01*
X0215196Y0144935D02*
X0215563Y0145302D01*
X0216297Y0145302D01*
X0216664Y0144935D01*
X0217406Y0145302D02*
X0218874Y0143100D01*
X0218874Y0145302D01*
X0219616Y0145302D02*
X0220717Y0145302D01*
X0221084Y0144935D01*
X0221084Y0143467D01*
X0220717Y0143100D01*
X0219616Y0143100D01*
X0219616Y0145302D01*
X0217406Y0145302D02*
X0217406Y0143100D01*
X0226245Y0143467D02*
X0226612Y0143100D01*
X0227346Y0143100D01*
X0227713Y0143467D01*
X0227713Y0144201D01*
X0226979Y0144201D01*
X0226245Y0144935D02*
X0226245Y0143467D01*
X0226245Y0144935D02*
X0226612Y0145302D01*
X0227346Y0145302D01*
X0227713Y0144935D01*
X0228455Y0145302D02*
X0229923Y0143100D01*
X0229923Y0145302D01*
X0230665Y0145302D02*
X0230665Y0143100D01*
X0231766Y0143100D01*
X0232133Y0143467D01*
X0232133Y0144935D01*
X0231766Y0145302D01*
X0230665Y0145302D01*
X0228455Y0145302D02*
X0228455Y0143100D01*
X0237295Y0143100D02*
X0237295Y0145302D01*
X0238396Y0145302D01*
X0238763Y0144935D01*
X0238763Y0144568D01*
X0238396Y0144201D01*
X0237295Y0144201D01*
X0238396Y0144201D02*
X0238763Y0143834D01*
X0238763Y0143467D01*
X0238396Y0143100D01*
X0237295Y0143100D01*
X0239505Y0143100D02*
X0240973Y0143100D01*
X0241715Y0143100D02*
X0241715Y0145302D01*
X0242082Y0144201D02*
X0243183Y0143100D01*
X0241715Y0143834D02*
X0243183Y0145302D01*
X0239505Y0145302D02*
X0239505Y0143100D01*
X0194565Y0143100D02*
X0193097Y0145302D01*
X0192355Y0144935D02*
X0192355Y0144201D01*
X0191988Y0143834D01*
X0190887Y0143834D01*
X0190887Y0143100D02*
X0190887Y0145302D01*
X0191988Y0145302D01*
X0192355Y0144935D01*
X0191621Y0143834D02*
X0192355Y0143100D01*
X0193097Y0143100D02*
X0194565Y0145302D01*
X0176886Y0145302D02*
X0175418Y0143100D01*
X0176886Y0143100D02*
X0175418Y0145302D01*
X0174676Y0145302D02*
X0173208Y0145302D01*
X0173942Y0145302D02*
X0173942Y0143100D01*
X0165837Y0143100D02*
X0165103Y0143834D01*
X0165470Y0143834D02*
X0164369Y0143834D01*
X0164369Y0143100D02*
X0164369Y0145302D01*
X0165470Y0145302D01*
X0165837Y0144935D01*
X0165837Y0144201D01*
X0165470Y0143834D01*
X0163627Y0145302D02*
X0162159Y0145302D01*
X0162893Y0145302D02*
X0162893Y0143100D01*
X0161417Y0143467D02*
X0161417Y0144935D01*
X0161050Y0145302D01*
X0159949Y0145302D01*
X0159949Y0143100D01*
X0161050Y0143100D01*
X0161417Y0143467D01*
X0078037Y0099296D02*
X0077570Y0098829D01*
X0078037Y0098362D01*
X0076636Y0098362D01*
X0076869Y0097823D02*
X0076636Y0097589D01*
X0076636Y0097122D01*
X0076869Y0096889D01*
X0077804Y0096889D01*
X0078037Y0097122D01*
X0078037Y0097589D01*
X0077804Y0097823D01*
X0078037Y0099296D02*
X0076636Y0099296D01*
X0076636Y0096349D02*
X0078037Y0096349D01*
X0077337Y0096349D02*
X0077337Y0095415D01*
X0077337Y0094876D02*
X0077337Y0094176D01*
X0077103Y0093942D01*
X0076869Y0093942D01*
X0076636Y0094176D01*
X0076636Y0094643D01*
X0076869Y0094876D01*
X0077804Y0094876D01*
X0078037Y0094643D01*
X0078037Y0094176D01*
X0077804Y0093942D01*
X0077804Y0093403D02*
X0077570Y0093403D01*
X0077337Y0093169D01*
X0077337Y0092469D01*
X0077804Y0092469D01*
X0078037Y0092702D01*
X0078037Y0093169D01*
X0077804Y0093403D01*
X0077337Y0092469D02*
X0076869Y0092936D01*
X0076636Y0093403D01*
X0076636Y0091930D02*
X0078037Y0091930D01*
X0078037Y0090996D02*
X0076636Y0090996D01*
X0077103Y0091463D01*
X0076636Y0091930D01*
X0076636Y0090456D02*
X0076636Y0089522D01*
X0078037Y0089522D01*
X0078037Y0088983D02*
X0077570Y0088516D01*
X0077570Y0088750D02*
X0077570Y0088049D01*
X0078037Y0088049D02*
X0076636Y0088049D01*
X0076636Y0088750D01*
X0076869Y0088983D01*
X0077337Y0088983D01*
X0077570Y0088750D01*
X0077337Y0089522D02*
X0077337Y0089989D01*
X0078037Y0095415D02*
X0076636Y0095415D01*
D17*
X0097284Y0106713D02*
X0120316Y0106713D01*
X0120316Y0147658D01*
X0097284Y0147658D01*
X0097284Y0106713D01*
X0114668Y0110552D02*
X0114670Y0110637D01*
X0114676Y0110721D01*
X0114686Y0110806D01*
X0114700Y0110889D01*
X0114717Y0110972D01*
X0114739Y0111054D01*
X0114765Y0111135D01*
X0114794Y0111215D01*
X0114827Y0111293D01*
X0114863Y0111369D01*
X0114903Y0111444D01*
X0114947Y0111517D01*
X0114994Y0111588D01*
X0115044Y0111656D01*
X0115097Y0111722D01*
X0115154Y0111785D01*
X0115213Y0111846D01*
X0115275Y0111904D01*
X0115340Y0111959D01*
X0115407Y0112011D01*
X0115476Y0112059D01*
X0115548Y0112104D01*
X0115622Y0112146D01*
X0115698Y0112184D01*
X0115775Y0112219D01*
X0115854Y0112250D01*
X0115934Y0112278D01*
X0116016Y0112301D01*
X0116098Y0112321D01*
X0116181Y0112337D01*
X0116265Y0112349D01*
X0116350Y0112357D01*
X0116435Y0112361D01*
X0116519Y0112361D01*
X0116604Y0112357D01*
X0116689Y0112349D01*
X0116773Y0112337D01*
X0116856Y0112321D01*
X0116938Y0112301D01*
X0117020Y0112278D01*
X0117100Y0112250D01*
X0117179Y0112219D01*
X0117256Y0112184D01*
X0117332Y0112146D01*
X0117406Y0112104D01*
X0117478Y0112059D01*
X0117547Y0112011D01*
X0117614Y0111959D01*
X0117679Y0111904D01*
X0117741Y0111846D01*
X0117800Y0111785D01*
X0117857Y0111722D01*
X0117910Y0111656D01*
X0117960Y0111588D01*
X0118007Y0111517D01*
X0118051Y0111444D01*
X0118091Y0111369D01*
X0118127Y0111293D01*
X0118160Y0111215D01*
X0118189Y0111135D01*
X0118215Y0111054D01*
X0118237Y0110972D01*
X0118254Y0110889D01*
X0118268Y0110806D01*
X0118278Y0110721D01*
X0118284Y0110637D01*
X0118286Y0110552D01*
X0118284Y0110467D01*
X0118278Y0110383D01*
X0118268Y0110298D01*
X0118254Y0110215D01*
X0118237Y0110132D01*
X0118215Y0110050D01*
X0118189Y0109969D01*
X0118160Y0109889D01*
X0118127Y0109811D01*
X0118091Y0109735D01*
X0118051Y0109660D01*
X0118007Y0109587D01*
X0117960Y0109516D01*
X0117910Y0109448D01*
X0117857Y0109382D01*
X0117800Y0109319D01*
X0117741Y0109258D01*
X0117679Y0109200D01*
X0117614Y0109145D01*
X0117547Y0109093D01*
X0117478Y0109045D01*
X0117406Y0109000D01*
X0117332Y0108958D01*
X0117256Y0108920D01*
X0117179Y0108885D01*
X0117100Y0108854D01*
X0117020Y0108826D01*
X0116938Y0108803D01*
X0116856Y0108783D01*
X0116773Y0108767D01*
X0116689Y0108755D01*
X0116604Y0108747D01*
X0116519Y0108743D01*
X0116435Y0108743D01*
X0116350Y0108747D01*
X0116265Y0108755D01*
X0116181Y0108767D01*
X0116098Y0108783D01*
X0116016Y0108803D01*
X0115934Y0108826D01*
X0115854Y0108854D01*
X0115775Y0108885D01*
X0115698Y0108920D01*
X0115622Y0108958D01*
X0115548Y0109000D01*
X0115476Y0109045D01*
X0115407Y0109093D01*
X0115340Y0109145D01*
X0115275Y0109200D01*
X0115213Y0109258D01*
X0115154Y0109319D01*
X0115097Y0109382D01*
X0115044Y0109448D01*
X0114994Y0109516D01*
X0114947Y0109587D01*
X0114903Y0109660D01*
X0114863Y0109735D01*
X0114827Y0109811D01*
X0114794Y0109889D01*
X0114765Y0109969D01*
X0114739Y0110050D01*
X0114717Y0110132D01*
X0114700Y0110215D01*
X0114686Y0110298D01*
X0114676Y0110383D01*
X0114670Y0110467D01*
X0114668Y0110552D01*
X0144551Y0097996D02*
X0145853Y0096695D01*
X0145853Y0098430D01*
X0147154Y0097996D02*
X0144551Y0097996D01*
X0144551Y0095483D02*
X0146720Y0095483D01*
X0147154Y0095050D01*
X0147154Y0094182D01*
X0146720Y0093748D01*
X0144551Y0093748D01*
X0145500Y0163485D02*
X0142898Y0163485D01*
X0142898Y0164787D01*
X0143331Y0165220D01*
X0145066Y0165220D01*
X0145500Y0164787D01*
X0145500Y0163485D01*
X0145500Y0166432D02*
X0143765Y0168167D01*
X0143331Y0168167D01*
X0142898Y0167733D01*
X0142898Y0166866D01*
X0143331Y0166432D01*
X0145500Y0166432D02*
X0145500Y0168167D01*
X0147211Y0178286D02*
X0147211Y0180888D01*
X0148512Y0180888D01*
X0148946Y0180454D01*
X0148946Y0179587D01*
X0148512Y0179153D01*
X0147211Y0179153D01*
X0148078Y0179153D02*
X0148946Y0178286D01*
X0150157Y0179587D02*
X0151892Y0179587D01*
X0151459Y0180888D02*
X0150157Y0179587D01*
X0151459Y0178286D02*
X0151459Y0180888D01*
X0120232Y0189087D02*
X0119798Y0188653D01*
X0118931Y0188653D01*
X0118497Y0189087D01*
X0117285Y0189087D02*
X0117285Y0191255D01*
X0118497Y0190821D02*
X0118931Y0191255D01*
X0119798Y0191255D01*
X0120232Y0190821D01*
X0120232Y0190388D01*
X0119798Y0189954D01*
X0120232Y0189520D01*
X0120232Y0189087D01*
X0119798Y0189954D02*
X0119364Y0189954D01*
X0117285Y0189087D02*
X0116852Y0188653D01*
X0115984Y0188653D01*
X0115550Y0189087D01*
X0115550Y0191255D01*
X0107808Y0183592D02*
X0106941Y0183592D01*
X0106507Y0183158D01*
X0105296Y0183158D02*
X0104862Y0183592D01*
X0103561Y0183592D01*
X0103561Y0180989D01*
X0104862Y0180989D01*
X0105296Y0181423D01*
X0105296Y0183158D01*
X0106507Y0181423D02*
X0106941Y0180989D01*
X0107808Y0180989D01*
X0108242Y0181423D01*
X0108242Y0181857D01*
X0107808Y0182291D01*
X0107375Y0182291D01*
X0107808Y0182291D02*
X0108242Y0182724D01*
X0108242Y0183158D01*
X0107808Y0183592D01*
X0051841Y0184299D02*
X0049239Y0182565D01*
X0049239Y0184299D02*
X0051841Y0182565D01*
X0051408Y0185511D02*
X0051841Y0185945D01*
X0051841Y0186812D01*
X0051408Y0187246D01*
X0050974Y0187246D01*
X0050540Y0186812D01*
X0050540Y0186378D01*
X0050540Y0186812D02*
X0050107Y0187246D01*
X0049673Y0187246D01*
X0049239Y0186812D01*
X0049239Y0185945D01*
X0049673Y0185511D01*
D18*
X0149800Y0166611D03*
D19*
X0110751Y0025819D02*
X0106251Y0025819D01*
X0099751Y0025819D02*
X0095251Y0025819D01*
D20*
X0082049Y0028082D02*
X0082051Y0028151D01*
X0082057Y0028219D01*
X0082067Y0028287D01*
X0082081Y0028354D01*
X0082099Y0028421D01*
X0082120Y0028486D01*
X0082146Y0028550D01*
X0082175Y0028612D01*
X0082207Y0028672D01*
X0082243Y0028731D01*
X0082283Y0028787D01*
X0082325Y0028841D01*
X0082371Y0028892D01*
X0082420Y0028941D01*
X0082471Y0028987D01*
X0082525Y0029029D01*
X0082581Y0029069D01*
X0082639Y0029105D01*
X0082700Y0029137D01*
X0082762Y0029166D01*
X0082826Y0029192D01*
X0082891Y0029213D01*
X0082958Y0029231D01*
X0083025Y0029245D01*
X0083093Y0029255D01*
X0083161Y0029261D01*
X0083230Y0029263D01*
X0083299Y0029261D01*
X0083367Y0029255D01*
X0083435Y0029245D01*
X0083502Y0029231D01*
X0083569Y0029213D01*
X0083634Y0029192D01*
X0083698Y0029166D01*
X0083760Y0029137D01*
X0083820Y0029105D01*
X0083879Y0029069D01*
X0083935Y0029029D01*
X0083989Y0028987D01*
X0084040Y0028941D01*
X0084089Y0028892D01*
X0084135Y0028841D01*
X0084177Y0028787D01*
X0084217Y0028731D01*
X0084253Y0028672D01*
X0084285Y0028612D01*
X0084314Y0028550D01*
X0084340Y0028486D01*
X0084361Y0028421D01*
X0084379Y0028354D01*
X0084393Y0028287D01*
X0084403Y0028219D01*
X0084409Y0028151D01*
X0084411Y0028082D01*
X0084409Y0028013D01*
X0084403Y0027945D01*
X0084393Y0027877D01*
X0084379Y0027810D01*
X0084361Y0027743D01*
X0084340Y0027678D01*
X0084314Y0027614D01*
X0084285Y0027552D01*
X0084253Y0027491D01*
X0084217Y0027433D01*
X0084177Y0027377D01*
X0084135Y0027323D01*
X0084089Y0027272D01*
X0084040Y0027223D01*
X0083989Y0027177D01*
X0083935Y0027135D01*
X0083879Y0027095D01*
X0083821Y0027059D01*
X0083760Y0027027D01*
X0083698Y0026998D01*
X0083634Y0026972D01*
X0083569Y0026951D01*
X0083502Y0026933D01*
X0083435Y0026919D01*
X0083367Y0026909D01*
X0083299Y0026903D01*
X0083230Y0026901D01*
X0083161Y0026903D01*
X0083093Y0026909D01*
X0083025Y0026919D01*
X0082958Y0026933D01*
X0082891Y0026951D01*
X0082826Y0026972D01*
X0082762Y0026998D01*
X0082700Y0027027D01*
X0082639Y0027059D01*
X0082581Y0027095D01*
X0082525Y0027135D01*
X0082471Y0027177D01*
X0082420Y0027223D01*
X0082371Y0027272D01*
X0082325Y0027323D01*
X0082283Y0027377D01*
X0082243Y0027433D01*
X0082207Y0027491D01*
X0082175Y0027552D01*
X0082146Y0027614D01*
X0082120Y0027678D01*
X0082099Y0027743D01*
X0082081Y0027810D01*
X0082067Y0027877D01*
X0082057Y0027945D01*
X0082051Y0028013D01*
X0082049Y0028082D01*
D21*
X0105729Y0187889D03*
M02*
